<?xml version="1.0" encoding="UTF-8"?>
<svg width="56px" height="56px" viewBox="0 0 56 56" version="1.1" xmlns="http://www.w3.org/2000/svg" xmlns:xlink="http://www.w3.org/1999/xlink">
    <!-- Generator: Sketch 59.1 (86144) - https://sketch.com -->
    <title>Res / Button / Close</title>
    <desc>Created with Sketch.</desc>
    <defs>
        <polygon id="path-1" points="0 0.000413793103 37.52811 0.000413793103 37.52811 39.6004138 0 39.6004138"></polygon>
    </defs>
    <g id="Res-/-Button-/-Close" stroke="none" stroke-width="1" fill="none" fill-rule="evenodd">
        <g id="Group-3" transform="translate(28.000000, 28.000000) rotate(45.000000) translate(-28.000000, -28.000000) translate(9.000000, 8.000000)">
            <mask id="mask-2" fill="white">
                <use xlink:href="#path-1"></use>
            </mask>
            <g id="Clip-2"></g>
            <path d="M1.05103448,26.606069 C-0.368275862,23.6653793 -0.368275862,23.6653793 1.16137931,20.8033103 C4.90344828,19.9053793 8.72827586,18.9867586 12.5434483,18.0708966 C12.9765517,16.0074483 12.782069,14.1343448 12.8137931,12.2791724 C12.8593103,9.75227586 12.9186207,7.21710345 12.7806897,4.69572414 C12.6772414,2.77848276 13.16,1.24193103 14.8468966,-0.000827586207 C15.5903448,0.117793103 16.4344828,0.252965517 17.097931,0.359172414 C19.9448276,5.46537931 19.0827586,10.9881379 19.6055172,16.4915862 C20.4855172,16.5453793 21.2151724,16.6433103 21.9406897,16.6267586 C26.0055172,16.5343448 30.0689655,16.4102069 34.1324138,16.3095172 C34.5710345,16.2971034 35.017931,16.3164138 35.4468966,16.3922759 C36.5531034,16.5895172 37.2937931,17.3177931 37.4593103,18.3081379 C37.7158621,19.8557241 37.2565517,21.0308966 36.0537931,21.5122759 C35.2482759,21.8350345 34.3751724,22.0488276 33.5131034,22.1591724 C29.5889655,22.6612414 25.657931,23.1012414 21.7310345,23.5826207 C21.3103448,23.6350345 20.9034483,23.8046897 20.2951724,23.9729655 C20.2275862,24.7357241 20.0772414,25.4722759 20.1103448,26.201931 C20.2551724,29.3867586 20.4289655,32.5715862 20.6427586,35.7536552 C20.72,36.9012414 20.6068966,37.8929655 19.6248276,38.6833103 C19.3144828,38.9329655 19.2868966,39.2529655 18.6703448,39.1826207 C17.5889655,39.0557241 16.5337931,40.161931 15.3351724,39.2115862 C14.8110345,38.7950345 14.2813793,38.4888276 14.0689655,37.8005517 C13.3462069,35.4681379 12.9931034,33.0915862 13.0151724,30.6433103 C13.0317241,29.0129655 12.9255172,27.3798621 12.8648276,25.4736552 C11.5572414,25.7315862 10.5158621,25.9164138 9.48413793,26.1453793 C8.41103448,26.384 7.3062069,26.5577931 6.28827586,26.9508966 C4.52689655,27.6336552 2.86344828,27.5164138 1.05103448,26.606069" id="Fill-1" fill="#FFFFFF" mask="url(#mask-2)"></path>
        </g>
    </g>
</svg>