<?xml version="1.0" encoding="UTF-8"?>
<svg width="390px" height="74px" viewBox="0 0 390 74" version="1.1" xmlns="http://www.w3.org/2000/svg" xmlns:xlink="http://www.w3.org/1999/xlink">
    <!-- Generator: Sketch 59.1 (86144) - https://sketch.com -->
    <title>Res / Button / Toi Aussi / White_Yellow</title>
    <desc>Created with Sketch.</desc>
    <defs>
        <polygon id="path-1" points="0 0.182285714 51.5905061 0.182285714 51.5905061 28.7143485 0 28.7143485"></polygon>
        <polygon id="path-3" points="0.184755806 0.208546587 4.565 0.208546587 4.565 4.99983333 0.184755806 4.99983333"></polygon>
    </defs>
    <g id="Res-/-Button-/-Toi-Aussi-/-White_Yellow" stroke="none" stroke-width="1" fill="none" fill-rule="evenodd">
        <g id="Group-4">
            <g id="Group">
                <g id="Group-6" transform="translate(195.000000, 66.000000) scale(-1, 1) rotate(90.000000) translate(-195.000000, -66.000000) translate(187.000000, -108.000000)" fill="#FFDD00">
                    <path d="M10.7373077,32.058543 C11.1587082,45.4314856 11.6262195,58.7483739 12.056586,72.1133087 C12.4613354,84.7094996 12.804604,97.3777602 13.2400939,109.925905 C14.5555296,147.762524 15.2958625,186.063592 15.4931138,224.708994 C15.5507522,235.86379 15.2343816,247.138702 14.9987047,258.293498 C14.7796789,268.615487 14.4453763,278.849392 14.1533419,289.115328 C14.0636822,292.262373 14.0982652,296.130117 13.8139159,298.364279 C12.7725827,306.556207 12.7290337,316.045391 12.6201612,325.718753 C12.5561185,331.292147 12.4369992,337.185851 12.0719562,342.166672 C11.7286877,346.83519 10.0319038,343.111753 9.44911581,347.5 C8.3872889,338.939715 8.50093881,339.179781 7.28284787,329.354272 L7.28284787,290.812971 C6.49768515,290.228405 5.89312266,289.779971 5.26678568,289.315521 C5.26678568,269.392239 5.2770325,249.444934 5.26422397,229.505636 C5.2309218,184.317903 4.17293745,140.035045 2.44122456,96.1846054 C1.62147882,75.436525 1.17318036,54.1118866 0.558371056,33.051504 C0.2970771,24.1148549 0.938784316,17.3963526 1.96858991,11.9590903 C2.45147139,9.40461806 3.00992317,6.95424655 3.60167713,5.75308404 C4.68271683,3.55896052 5.81242894,2.33377476 7.05869864,0.5 C9.21053122,8.40364931 10.3146263,18.6856004 10.7373077,32.058543 Z" id="Fill-1"></path>
                </g>
                <g id="Group-27">
                    <path d="M280.656789,24.9212717 C281.317512,25.6018852 281.641097,26.1967919 281.932492,26.1816672 C282.666064,26.1463761 283.391166,25.8522838 284.102714,25.6102879 C284.184033,25.5833994 284.155233,25.2321692 284.189116,24.9212717 L280.656789,24.9212717 Z M294.443876,22.9332079 C299.74152,20.9737131 304.973091,21.617355 310.19958,22.3752728 C311.175417,22.5181177 311.864941,23.4676156 311.881882,24.3717393 C311.898824,25.343084 311.214382,25.8069096 310.470645,26.1446956 C308.886604,26.8606002 307.26868,27.5092837 305.581295,28.2218273 C305.521999,29.2032552 305.46948,30.1040179 305.42035,30.9257957 C305.826948,31.1291395 306.067519,31.3593717 306.280984,31.3358444 C307.487227,31.2114853 308.690082,30.8871436 309.892936,30.8955462 C311.353304,30.9039488 312.850943,31.0131831 314.257097,31.376177 C315.836055,31.7845451 316.252819,33.8465521 314.985586,34.9237701 C314.191024,35.5993421 313.152503,36.0295571 312.168195,36.4362447 C309.948844,37.3504515 307.693915,38.1789515 305.68125,38.9553551 C305.105236,40.4661491 305.613484,41.4022028 306.424987,42.1769259 C307.175501,42.8928305 308.156421,42.8827474 309.105151,42.6508346 C309.887854,42.460935 310.667168,42.2273417 311.412599,41.9282079 C314.384159,40.7400751 317.169361,39.0461036 320.559378,38.9503135 C321.091345,37.0126656 320.43401,35.3136525 320.469588,33.6146394 C320.517024,31.3492886 320.449258,29.0738546 320.671193,26.8253091 C320.859245,24.9145496 321.975697,23.9263995 323.40557,23.9314411 C325.159027,23.9398437 326.775257,25.3498061 326.997192,27.1160403 C327.063265,27.6437259 327.058182,28.1932583 326.990416,28.7226244 C326.555016,32.1206506 327.442757,35.3959983 327.956088,38.6982344 C328.066208,39.4090975 328.676107,40.0443368 329.089482,40.7753662 C330.600674,40.0073652 330.787032,38.5654728 331.517216,37.5000185 C333.214766,35.0262823 333.302862,32.5575877 332.022076,29.9225209 C331.674773,29.2032552 331.43759,28.4150879 331.263091,27.6336427 C330.87174,25.8758112 331.837412,24.9750486 333.495996,25.5363447 C334.509105,25.8774917 335.496801,26.295943 336.574288,26.7110333 C338.088869,28.6268344 338.703849,30.8888241 338.907149,33.3625603 C339.210404,37.0445956 338.785169,40.6005913 337.419675,44.0221449 C336.601395,46.0690271 335.308749,47.7646792 333.128363,48.5847765 C331.676467,49.1292673 330.278783,49.1746416 328.825193,48.4234459 C326.644807,47.2958121 324.554211,46.1076793 323.200576,43.9616459 C322.92951,43.5314309 322.494111,43.2054086 322.262011,42.9617322 C319.11087,45.0640718 316.161334,47.1731336 313.064407,49.0435604 C311.14831,50.2031243 308.879828,50.374538 306.775679,49.6082176 C303.204386,48.30917 300.43782,46.0236529 299.118068,42.3399371 C298.072771,39.4175001 297.207054,36.4580915 297.906743,33.2953392 C297.964344,33.036538 297.959262,32.762612 297.976203,32.4954082 C298.143925,29.5746518 298.130372,29.5544854 294.958901,28.1226762 C294.16434,28.9377319 293.464651,29.9561315 292.498979,30.5527186 C291.631568,31.0888068 290.457514,31.1106537 289.444405,31.4417176 C287.27249,32.1542612 285.119211,32.9189011 282.750773,33.7322763 C282.455988,35.7573117 282.542391,37.8596513 282.974402,39.9619909 C283.272574,41.4223692 283.445379,42.8693032 282.869364,44.3179177 C282.084967,46.2874957 280.497538,46.8219034 278.666149,45.7228385 C277.710642,45.1497787 276.924551,44.4674846 276.655179,43.3297676 C276.285852,41.7719188 275.76405,40.2359169 275.545503,38.6595823 C275.103327,35.4699415 274.989818,32.2315654 274.427356,29.0671325 C273.812376,25.6102879 274.195256,22.1534432 274.002122,18.7033207 C273.92419,17.2967194 276.009703,15.7187042 277.505648,16.1455582 C281.922328,17.4093147 286.330536,18.723487 290.660813,20.2443642 C291.989036,20.7115508 293.054664,21.9181694 294.443876,22.9332079 L294.443876,22.9332079 Z" id="Fill-1" fill="#FFFFFF"></path>
                    <g id="Group-5" transform="translate(0.000000, 0.074514)">
                        <mask id="mask-2" fill="white">
                            <use xlink:href="#path-1"></use>
                        </mask>
                        <g id="Clip-4"></g>
                        <path d="M43.8688774,13.2780229 C42.7081032,12.4245943 41.4265548,11.4916229 40.155071,10.5470514 C38.7728774,9.51796571 37.2128774,9.30750857 35.5841032,9.67373714 C34.6766194,9.87922286 33.8026839,10.2471086 32.9287484,10.57688 C29.3122323,11.9373943 28.0105548,15.7123657 30.0301677,18.9454514 C31.7059097,21.6233943 34.5709419,22.8645943 37.6053935,22.0061943 C40.8629419,21.0815086 43.8135226,19.5138514 46.1552,17.0397371 C46.8664258,16.2873943 47.3847484,15.3229371 47.8359742,14.3849943 C48.0221677,14.0005371 47.799071,13.4221943 47.7453935,12.6947086 C46.3682323,12.9018514 45.2242323,13.0741943 43.8688774,13.2780229 M25.2327484,6.97756571 C23.3238452,6.20036571 21.7202323,6.26168 20.1367484,6.32465143 C18.6019097,6.38265143 17.9896516,7.21288 18.523071,8.73745143 C19.7106839,12.1345943 19.9874581,15.7057371 20.7641032,19.1791086 C21.0459097,20.4418514 20.799329,21.5073943 20.0361032,22.7270514 C19.3500387,22.87288 18.5834581,23.0385943 17.8168774,23.19768 C15.0927484,23.7627657 14.5895226,23.6252229 13.5998452,21.0201943 C12.7611355,18.8079086 12.2361032,16.4746514 11.6573935,14.17288 C11.1155871,12.0136229 11.0484903,9.72013714 9.75352258,7.77796571 C7.0428129,7.46808 4.41261935,7.16813714 1.66165161,6.85493714 C1.13829677,5.90705143 0.522683871,5.03705143 0.16036129,4.07425143 C-0.398219355,2.58945143 0.5512,1.13779429 2.13971613,0.837851429 C2.40139355,0.789794286 2.67145806,0.788137143 2.93984516,0.778194286 C7.75571613,0.576022857 12.5699097,0.353965714 17.3874581,0.193222857 C18.7210065,0.14848 20.0679742,0.231337143 21.3981677,0.363908571 C24.3839742,0.662194286 27.2020387,1.38636571 29.1679742,3.91019429 C32.3148129,3.91019429 35.3777806,3.88368 38.4407484,3.91682286 C42.2166194,3.95659429 44.9474581,6.03465143 47.423329,8.54522286 C47.9752,9.10368 48.3006194,9.90076571 48.8877161,10.4128229 C50.7395871,12.0252229 51.2763613,14.1198514 51.5346839,16.42328 C51.8047484,18.8311086 51.0884903,20.8727086 49.5251355,22.6243086 C47.175071,25.2575086 44.3687484,27.2278514 40.7958452,27.9139086 C39.3515871,28.1923086 37.9006194,28.4690514 36.4412645,28.6281371 C32.4305548,29.0606514 28.7603613,27.8757943 26.3264258,24.8465371 C23.0822968,20.8147086 21.0912,16.1813371 23.3808774,10.8602514 C23.8975226,9.65550857 24.5081032,8.49053714 25.2327484,6.97756571" id="Fill-3" fill="#FFFFFF" mask="url(#mask-2)"></path>
                    </g>
                    <path d="M154.78257,38.2557189 C153.616213,39.0408632 152.448185,39.9362329 151.183238,40.6569377 C145.647219,43.8093852 138.111015,41.4980426 135.347183,35.7629283 C134.972879,34.9862629 134.966195,33.9586226 135.031364,33.0649487 C135.059771,32.6715287 135.694751,32.3255904 136.002214,32.0101761 C139.382645,33.2735291 141.777186,36.1292159 145.294639,36.8448333 C146.898798,35.9884665 148.285727,34.9710009 149.32843,33.5295913 C149.963409,32.6511794 149.767902,31.5913194 148.815433,31.1131106 C147.50537,30.4551495 146.173584,29.7819264 144.776629,29.3749402 C141.31432,28.3676493 139.218887,25.7697205 137.278857,22.9869522 C136.832701,22.3476446 136.615471,21.5082355 136.426648,20.7264828 C135.972136,18.8407799 136.34644,18.1387287 138.100989,17.1857026 C138.797795,16.8092403 139.492931,16.4158203 140.134594,15.9528735 C143.984576,13.1734966 147.93983,13.8433282 151.895084,15.6103267 C152.937787,16.0749693 153.459139,17.0619109 153.432403,18.2489541 C153.417364,18.9730504 153.150004,19.6784932 152.346254,19.6903637 C151.301879,19.7056257 150.240795,19.5852256 149.206447,19.400386 C146.733369,18.9560927 146.738382,18.9272645 144.155018,19.9260765 C143.765675,21.7252948 144.641278,23.0089972 146.003142,23.9993304 C146.753421,24.5436745 147.642392,24.8963959 148.482904,25.3067737 C150.280899,26.1834898 152.083907,27.0500314 153.891927,27.9047024 C155.434259,28.6304946 156.593933,29.7530982 156.869647,31.4726151 C157.063483,32.6935738 157.770316,33.3871461 158.627538,34.0417157 C159.050301,34.3656089 159.566639,34.5707978 159.962666,34.9201276 C163.01391,37.6096283 164.788511,37.2195998 168.038603,34.5012709 C168.341054,34.2502961 168.593375,33.9128367 168.798908,33.5736815 C168.929246,33.3600137 168.930917,33.0666445 169.001099,32.759709 C168.58502,31.6286265 167.482161,31.3827389 166.529691,30.9910147 C163.120854,29.5869122 160.875031,27.0652933 159.387842,23.7008738 C158.503884,21.7032497 158.254905,19.8294173 159.556613,17.9928919 C161.027092,17.2993196 162.459138,16.6244007 163.988102,15.9020002 C167.41365,16.6498374 170.022079,19.1239745 173.288881,20.7468321 C173.160215,22.3035544 172.953011,23.6347386 171.121596,24.0824234 C169.537489,24.4690603 168.341054,23.5770822 167.188065,22.8055041 C166.272358,23.6228681 166.716843,24.2011277 167.231511,24.5894604 C167.868161,25.0710608 168.653531,25.3406892 169.320259,25.7849825 C170.655387,26.6752649 172.01558,27.5485895 173.252119,28.5677508 C174.578892,29.6615263 176.226497,30.7179948 175.974176,32.7766668 C175.6617,35.3423758 175.147032,37.8979102 172.68398,39.4071508 C170.027092,41.0334 167.400282,42.2509671 164.038232,41.638792 C159.020223,40.7264645 158.983461,40.935045 154.78257,38.2557189" id="Fill-6" fill="#FFFFFF"></path>
                    <path d="M259.199531,22.4680641 C259.755052,25.8853418 260.300442,29.0067439 260.763094,32.1437183 C261.168338,34.8983037 261.114305,37.6303956 260.121459,40.2863557 C259.489955,41.9733662 258.486978,43.1914744 256.605974,43.1793625 C255.162295,43.1707111 254.056319,43.8870418 252.881114,44.5756881 C248.256275,47.2922076 243.987713,46.2903829 241.019307,41.7795763 C239.653299,39.7032557 238.756699,37.4469873 238.42575,34.9034945 C237.890491,30.7664256 237.84659,26.6691529 238.370029,22.5199721 C238.626683,20.4886385 239.661742,19.2238131 241.221928,18.3067715 C241.718351,18.0143564 242.569362,18.0091656 243.124883,18.2289095 C244.641168,18.8241214 245.812996,20.9696527 245.49049,22.551117 C244.592201,26.9598378 244.978871,31.3443349 245.704932,35.7046082 C246.417484,39.9800984 248.028326,40.5112905 251.423927,37.9902912 C253.338701,36.5662813 253.77096,34.6872111 253.60042,32.5503311 C253.424815,30.354622 253.043211,28.1744853 252.746033,25.9874276 C252.634591,25.167281 252.509641,24.3488646 252.389756,23.5287179 C252.185446,22.1289318 252.751098,21.2032388 253.929681,20.466145 C255.169049,19.6927155 256.244632,19.9089989 257.291511,20.7049219 C257.934834,21.198048 258.493732,21.8088323 259.199531,22.4680641" id="Fill-8" fill="#FFFFFF"></path>
                    <path d="M101.25221,23.1940737 C102.099647,19.285866 101.800751,16.7168462 100.396281,15.138758 C99.5539394,16.8211548 98.6895198,18.463174 97.9066172,20.1438883 C97.6314974,20.736092 97.4786531,21.4090507 97.4107223,22.0618206 C97.3750586,22.3915704 97.6518766,22.7532857 97.8234019,23.1940737 L101.25221,23.1940737 Z M110,34.4022008 C108.181153,35.547913 106.773286,35.1155371 105.389196,33.9597305 C104.307398,33.0596482 103.614504,31.9593607 103.174652,30.6622329 C102.885946,29.8109401 102.588748,28.9596473 102.306836,28.1403201 C100.036248,28.7796309 98.0034186,29.3533282 95.6020644,30.0313341 C95.13504,30.5831602 94.4659215,31.5774567 93.5947089,32.3479944 C92.6555654,33.1807808 91.1916564,33.1168497 90.19647,32.4489382 C89.1350511,31.735602 87.664349,28.3237014 88.0685373,27.1275173 C89.1809044,23.8333844 89.9994707,20.4164366 92.2666615,17.5984221 C93.0122022,16.6714214 93.4469594,15.5038381 94.0566384,14.4657993 C94.8004808,13.1939074 95.5256422,11.9051914 96.3577947,10.690501 C97.2239125,9.42197383 98.5044083,8.60432901 99.9768087,8.23588412 C101.498459,7.85566246 102.868963,8.09624519 103.928684,9.50945847 C106.24003,12.5949741 107.763378,15.96145 108.092842,19.8208682 C108.300031,22.2266955 108.47835,24.6358877 108.763659,27.0316207 C108.953865,28.6265328 109.320692,30.1978913 109.592415,31.7810267 C109.746958,32.6794266 109.87263,33.5811912 110,34.4022008 L110,34.4022008 Z" id="Fill-10" fill="#FFFFFF"></path>
                    <path d="M356.602078,40.1444597 C358.283388,42.4107549 359.88921,44.5763637 361.561942,46.830713 C361.290874,47.9553278 361.009512,49.1157802 360.726434,50.2915914 C359.782842,51.085136 358.741459,51.1482783 357.703507,50.5356277 C356.888587,50.0560879 356.094253,49.5151123 355.380555,48.8990486 C354.351181,48.0116439 353.402442,47.0320856 352.258122,45.9381886 C351.563295,46.3272815 350.744943,46.5679047 350.250844,47.1054672 C348.868052,48.6055225 347.620795,50.2267426 346.354665,51.7592223 C342.82563,52.8002163 340.95217,51.2028878 340,47.8614677 C340.718846,43.688959 344.743696,41.4926323 346.641174,37.9071759 C345.791941,34.4957874 342.930283,31.7857899 343.19792,28.0638097 C344.174109,27.1303282 345.160592,26.4511222 346.490199,26.659321 C348.065141,26.9033573 349.302105,27.7446853 350.129034,29.0740858 C350.758668,30.0860685 351.139536,31.2652929 352.16891,32.0025214 C353.803898,31.0024845 354.273978,29.3744382 355.126642,28.0245591 C356.288119,26.1849008 357.60057,25.6609907 359.173796,26.3930996 C361.446995,27.4528656 362.491809,29.2839912 361.77811,31.2567601 C360.903143,33.6800576 360.031607,36.1204206 358.225056,38.0778307 C357.68292,38.664883 357.233427,39.3338496 356.602078,40.1444597" id="Fill-12" fill="#FFFFFF"></path>
                    <path d="M121.305477,30.2926356 C123.254115,29.5016455 124.581904,28.3969579 125.63652,27.0359153 C126.172933,26.3444314 126.50902,25.3493693 126.586833,24.4622461 C126.765637,22.4620026 126.740803,20.4448936 126.765637,18.4345308 C126.77226,17.8998958 126.628223,17.3652607 126.6067,16.8306256 C126.55041,15.3599575 127.012321,14.6111311 128.090115,14.3598358 C129.214266,14.0950481 130.090077,14.4492227 130.757283,15.5792085 C131.088402,16.1391418 131.368198,16.7817158 131.475812,17.4209167 C132.007259,20.5949962 132.484071,23.7808816 132.960883,26.9633938 C133.129754,28.0900065 132.734066,29.0682032 132.116528,29.9907438 C130.535433,32.3535947 128.662952,34.3825095 126.191145,35.8160736 C122.932929,37.7066917 119.931331,37.4958734 117.083703,34.9879795 C114.683087,32.8747374 113.191394,30.2032486 113.04239,26.9431553 C112.86193,23.0269955 113.269207,19.1411936 114.044026,15.302615 C114.355279,13.7627985 115.199633,12.6007683 116.797285,12.1825049 C117.937992,11.8822997 118.918105,12.2061166 119.573722,13.177567 C120.651516,14.7747261 121.212763,16.4663317 120.906478,18.4885003 C120.545558,20.8766494 120.368409,23.300216 120.239272,25.7153498 C120.163115,27.1691524 120.22106,28.6634322 121.305477,30.2926356" id="Fill-14" fill="#FFFFFF"></path>
                    <path d="M231.131518,22.6938017 C228.725567,23.0305256 226.434839,23.3536446 223.879268,23.7124767 C223.841433,24.6665279 223.628182,25.598471 223.803598,26.4504847 C224.436472,29.5065098 225.194888,32.5370255 225.91547,35.5760443 C226.35573,37.4297268 226.804589,39.280008 225.91719,41.4074912 C225.18285,41.6149676 224.218061,42.2169892 223.430409,42.0435254 C221.849944,41.6931964 220.185212,41.1030791 219.344246,39.55721 C218.706213,38.3820774 218.2178,37.0896016 217.896204,35.7920239 C217.242693,33.1594547 216.761159,30.4843698 216.179878,27.8330937 C215.949429,26.7838074 215.641591,25.7515274 215.371588,24.7260498 C213.920106,24.3127977 212.583848,24.0270925 211.3267,23.5441147 C210.454779,23.2090914 209.5691,22.7261136 208.898391,22.09178 C207.347163,20.6292416 207.875131,18.5340702 209.940569,18.0085768 C211.526193,17.607229 213.173728,17.3045176 214.804065,17.2483969 C219.051886,17.1004424 223.304866,17.0647293 227.554406,17.0766337 C229.910485,17.0851368 229.910485,17.1701681 232,19.6309741 C231.740315,20.5459109 231.453115,21.5628853 231.131518,22.6938017" id="Fill-16" fill="#FFFFFF"></path>
                    <path d="M388,32.4277052 C387.786682,33.6129931 387.54163,34.803368 387.365335,36.0039171 C387.079735,37.9387003 385.073487,38.5135395 383.483297,37.7453916 C382.769299,37.3994707 381.981256,36.8500668 381.64453,36.1972259 C381.029257,35.0068509 380.567362,33.6943862 380.324074,32.3853129 C379.513112,27.9900823 378.735647,23.5829819 378.120374,19.1606202 C377.616168,15.5437117 377.335857,11.8996721 377.014998,8.26071961 C376.87925,6.71594527 377.669056,5.62561608 379.218698,5.21186752 C379.842786,5.04568982 380.666088,4.99651478 381.216131,5.25765117 C383.033743,6.11227934 384.505814,7.32978535 384.692688,9.47652993 C384.738525,10.0157596 384.842539,10.5549893 384.853117,11.094219 C384.960658,16.8171755 386.330477,22.3654758 387.342416,27.9646469 C387.60686,29.4280281 387.77963,30.9083662 388,32.4277052" id="Fill-18" fill="#FFFFFF"></path>
                    <path d="M65.117176,29.2951168 C63.6609323,29.5943497 62.4546801,29.8413908 61.3166073,30.074514 C59.5998831,29.319473 59.4338049,27.6649936 58.9075992,26.2923498 C58.56845,25.408569 58.5352344,24.4012677 58.4093646,23.4444184 C57.8324614,19.0637885 57.5929591,14.629227 56.2276214,10.3808162 C56.1856648,10.2503368 56.1769239,10.109419 56.1489528,9.97372037 C55.8727385,8.69328207 55.8989614,7.36239172 56.9426318,6.51514518 C58.1069274,5.57395344 59.279964,6.33421368 60.3778284,6.99878899 C61.8235829,7.87387115 62.9127063,8.93858343 63.676666,10.5460902 C65.737784,14.8780078 66.5524413,19.4621857 66.9772519,24.1611855 C67.152071,26.0748841 66.2989535,27.6319388 65.117176,29.2951168" id="Fill-20" fill="#FFFFFF"></path>
                    <path d="M181.158101,22.2912501 C181.158101,21.5100043 181.082414,20.7205693 181.17492,19.9491504 C181.33134,18.6519874 182.495233,17.3761163 183.612032,17.1369928 C184.838157,16.8700262 186.076055,17.4580079 186.800966,18.9124027 C187.374503,20.060523 187.88749,21.3019996 188.080912,22.5500276 C188.758729,26.9263147 189.290217,31.3238937 189.860391,35.7132834 C189.944487,36.3569514 190.084087,37.0481165 189.932714,37.6541144 C189.636694,38.8513695 189.936077,40.4335153 188.341611,40.9707242 C186.93552,41.4440576 184.353762,40.2238728 183.650717,38.8218886 C183.247054,38.0144374 182.851801,37.1431108 182.734067,36.2668706 C182.106708,31.6187034 181.568491,26.9607092 181,22.3043528 C181.05214,22.2994393 181.105961,22.2961636 181.158101,22.2912501" id="Fill-22" fill="#FFFFFF"></path>
                    <g id="Group-26" transform="translate(385.000000, 52.074514)">
                        <mask id="mask-4" fill="white">
                            <use xlink:href="#path-3"></use>
                        </mask>
                        <g id="Clip-25"></g>
                        <path d="M3.82216667,4.99983333 C2.7255,4.65983333 2.0705,4.52483333 1.4755,4.2565 C0.452166667,3.7915 -0.0811666667,2.52316667 0.317166667,1.67816667 C0.827166667,0.599833333 2.1705,-0.0268333333 3.2905,0.2915 C4.25383333,0.564833333 4.70883333,1.26983333 4.5255,2.43483333 C4.40716667,3.1865 4.12716667,3.91316667 3.82216667,4.99983333" id="Fill-24" fill="#FFFFFF" mask="url(#mask-4)"></path>
                    </g>
                </g>
            </g>
        </g>
    </g>
</svg>