<?xml version="1.0" encoding="UTF-8"?>
<svg width="316px" height="200px" viewBox="0 0 316 200" version="1.1" xmlns="http://www.w3.org/2000/svg" xmlns:xlink="http://www.w3.org/1999/xlink">
    <!-- Generator: Sketch 59.1 (86144) - https://sketch.com -->
    <title>Res / Logo / Black_Pink</title>
    <desc>Created with Sketch.</desc>
    <g id="Res-/-Logo-/-Black_Pink" stroke="none" stroke-width="1" fill="none" fill-rule="evenodd">
        <g id="logo-colouche" fill-rule="nonzero">
            <path d="M191.649229,169.336981 C191.649229,174.796953 188.479101,179.142645 181.810903,177.731224 C178.502096,177.043797 175.63856,174.94922 173.940243,171.97411 C171.799045,168.345453 172.470277,163.680396 175.543525,160.831309 C176.782355,159.56644 178.493815,158.903783 180.244059,159.011318 C181.447196,159.232599 182.665583,159.356793 183.887883,159.382745 C187.823213,158.937033 189.718002,161.611305 191.175531,164.545576 C191.62064,166.099529 191.781216,167.723747 191.649229,169.336981 Z M180.717756,163.431296 C180.199822,164.207264 179.748734,165.027462 179.369541,165.882712 C178.167079,169.819835 180.389812,171.528398 183.450624,171.491255 C184.840526,171.553436 186.126502,170.743368 186.693628,169.448409 C187.118002,168.261907 186.865778,166.933554 186.037739,165.99414 C184.791694,164.313021 182.819923,163.356591 180.754194,163.431296 L180.717756,163.431296 Z" id="Shape" fill="#E2077A"></path>
            <path d="M290.25763,176.719865 C286.948642,176.719865 286.948642,176.719865 283.603292,174.562858 C281.96698,170.814617 281.785167,166.535964 279.967042,162.752362 C277.676205,163.530299 275.56718,164.202153 273.458155,164.98009 C272.852752,165.092474 272.332269,165.465456 272.042596,165.994489 C271.752923,166.523521 271.725235,167.151672 271.967292,167.702869 C272.585455,170.354927 273.494517,172.900902 274.294492,175.482238 C274.595561,176.328644 274.790896,177.207181 274.876292,178.098935 C275.00075,178.95832 274.66647,179.820164 273.98939,180.385553 C273.31231,180.950942 272.385702,181.14199 271.530942,180.892435 C268.912842,180.220581 266.476555,179.26584 265.858392,176.189453 C265.494767,174.527497 264.985692,172.936263 264.549342,171.274307 C262.949392,165.404419 261.361563,159.510958 259.785855,153.593923 C259.040621,151.380259 258.672147,149.0631 258.69498,146.733935 C258.69498,145.390226 259.022242,144.117238 260.58583,143.657548 C262.423003,143.131229 264.39641,143.852674 265.422042,145.425586 C266.260416,147.328365 266.905878,149.306151 267.349255,151.330834 C267.915503,153.583595 268.681999,155.784242 269.640092,157.907937 C272.368612,158.033174 275.102777,157.843257 277.785292,157.342165 C278.502174,156.610438 278.662798,155.517041 278.18528,154.619386 C277.31258,151.896607 276.330792,149.209188 275.458092,146.486409 C275.120055,145.33556 274.936717,144.146981 274.912655,142.950333 C274.760536,141.610458 275.723652,140.392899 277.094405,140.192193 C279.100035,139.550505 281.268457,140.565798 282.003342,142.490643 C283.396672,145.424173 284.610863,148.435066 285.639592,151.507638 C287.644121,157.2718 289.164216,163.184675 290.184905,169.188021 C290.444084,170.590938 290.614098,172.008055 290.69398,173.431313 C290.636973,174.536888 290.491077,175.636429 290.25763,176.719865 Z" id="Path" fill="#000000"></path>
            <path d="M39.6743412,0 C43.9151567,0.0372673545 47.8664238,2.16136599 50.2416722,5.68072289 C52.249465,8.39759036 54.2220335,11.1497418 56.0537042,14.0077453 C56.9943985,15.7497877 58.53371,17.0911277 60.3863098,17.7831325 C61.1494502,21.6492643 63.0654884,25.1925462 65.8813219,27.9449225 C66.8504645,29.0433 67.7226067,30.2238632 68.4879302,31.4733219 C69.0916908,33.051396 68.3246148,34.8233581 66.7619328,35.4604131 C64.3784026,36.4544849 61.6256104,35.7326403 60.0340655,33.6962134 C58.1319459,31.4733219 56.5116218,29.1092943 54.3981557,26.6394148 L45.8386176,31.4733219 C45.8386176,32.8846816 46.0499642,34.1901893 46.2613108,35.4604131 C46.8877778,37.6340404 45.9014507,39.9491924 43.9012736,41 L40.37883,40.7177281 C38.1767743,38.8543999 36.8913879,36.1247734 36.8563863,33.2375215 C36.6808743,31.9427985 36.3860794,30.6671314 35.9757754,29.4268503 C35.8317147,29.0161841 35.7371135,28.5897588 35.6939799,28.1566265 C35.6939799,22.8640275 35.6939799,17.5714286 35.6939799,12.3141136 C35.6939799,9.95008606 36.1166732,7.62134251 36.3280198,5.25731497 C36.4488702,3.039275 37.7178179,1.04566559 39.6743412,0 Z M44.2182935,11.9965577 C44.1082658,13.70017 44.1082658,15.4091243 44.2182935,17.1127367 C44.4648646,18.6299484 43.9012736,20.288296 44.817109,21.8407917 C46.6969356,21.6591745 48.3810732,20.5999048 49.3610612,18.9827883 C48.0023224,16.4113622 46.2690785,14.0568243 44.2182935,11.9965577 L44.2182935,11.9965577 Z" id="Shape" fill="#000000"></path>
            <path d="M105.615541,172.486063 C107.059901,173.241043 108.160858,174.516347 108.69398,176.052005 C106.024807,180.865532 101.410474,184.306603 96.0222646,185.501749 C90.8617465,186.820962 85.3808532,185.482724 81.4175757,181.935808 C79.5266947,180.317491 78.1052989,178.224304 77.301058,175.873708 C75.5097629,171.915905 75.2048919,167.448848 76.4419587,163.285935 C77.5250005,158.78043 80.0351924,154.741917 83.6011199,151.767945 C84.0869718,151.33665 84.6145582,150.954413 85.1761353,150.626844 C89.5266715,147.698491 95.4357108,148.831128 98.3847878,153.158662 C99.1635425,154.199967 99.8238432,155.324181 100.353557,156.510647 C100.5695,157.067963 100.47814,157.697114 100.11251,158.170621 C99.7468804,158.644129 99.1598872,158.893476 98.5637668,158.828509 C96.7268342,158.619762 95.000523,157.847128 93.6239456,156.617625 C93.0879411,156.029272 92.3274581,155.693757 91.5298909,155.693757 C90.7323238,155.693757 89.9718408,156.029272 89.4358363,156.617625 C89.0316591,156.937143 88.6599827,157.29546 88.3261663,157.687407 C85.7817451,160.443709 84.058753,163.851866 83.3505492,167.529405 C82.78553,170.241912 83.2988141,173.067001 84.7823815,175.410135 C86.5102015,178.696105 90.4008318,180.216029 93.910312,178.976077 C97.0836531,178.138366 100.054447,176.670758 102.644489,174.661288 L105.615541,172.486063 Z" id="Path" fill="#000000"></path>
            <path d="M124.953074,153.149429 C127.343836,152.793881 129.785816,153.075464 132.033676,153.965888 C134.333876,154.897155 136.28858,156.522184 137.627352,158.616154 C139.462728,161.488091 140.512718,164.793436 140.672011,168.200672 C140.8868,171.651226 139.517758,175.011131 136.954694,177.323713 C134.854515,179.34887 131.947799,180.302954 129.059823,179.915083 C125.601377,179.432745 122.283622,178.223044 119.323996,176.365261 C118.095481,175.600497 117.150469,174.453458 116.633367,173.099426 C115.310455,170.569443 114.379313,167.852294 113.871932,165.041331 C113.149487,161.231914 114.662136,157.343604 117.766263,155.030835 C119.123765,154.01587 120.748839,153.423345 122.43946,153.32692 C123.501551,153.113931 124.528238,153.149429 124.953074,153.149429 Z M133.626812,163.337417 C132.163161,163.255458 130.784604,162.621392 129.767883,161.562506 C129.201435,161.065531 128.741196,160.391065 128.103942,159.929588 C127.123859,159.285543 125.917574,159.087873 124.783999,159.38556 C123.650424,159.683247 122.695639,160.448433 122.156236,161.49151 C121.128515,163.57461 121.00998,165.992171 121.828967,168.166304 C122.647955,170.340437 124.330859,172.075748 126.475404,172.957433 C127.570776,173.591547 128.920332,173.591547 130.015705,172.957433 C132.569539,171.773456 134.131936,169.134231 133.945439,166.319267 C133.896256,165.32002 133.789871,164.32443 133.626812,163.337417 L133.626812,163.337417 Z" id="Shape" fill="#000000"></path>
            <path d="M227.685442,167.506338 C227.183414,170.765305 226.511117,173.99653 225.671236,177.187107 C223.693652,183.364016 219.738484,185.278497 213.549379,183.183405 C211.430801,182.367252 209.374642,181.401487 207.396896,180.293623 C206.92955,180.024286 206.519223,179.668616 206.188372,179.246077 C202.333679,174.417436 200.393904,168.36932 200.731705,162.232486 C201.063323,160.021346 201.678623,157.860766 202.562802,155.802721 C202.750424,155.306279 203.036808,154.85186 203.405106,154.466197 C203.883222,153.738679 204.638978,153.232477 205.500897,153.062445 C206.362816,152.892413 207.257823,153.072967 207.982846,153.56314 C208.844584,153.967605 209.491999,154.713556 209.7643,155.615731 C210.036602,156.517906 209.908243,157.491662 209.411102,158.295158 C207.507347,162.151167 207.321509,166.615895 208.898395,170.612854 C209.689012,173.175923 211.499265,175.313376 213.915598,176.536907 C214.60132,177.061059 215.50456,177.218978 216.331153,176.959231 C217.157746,176.699485 217.801918,176.055312 218.053876,175.236505 C219.496664,172.087608 220.161849,168.646127 219.994838,165.194513 C219.930977,163.507754 219.17805,161.918213 217.907388,160.787595 L215.85656,158.873115 C214.682223,157.951337 214.277425,156.369027 214.867768,155.008031 C216.019566,153.642155 218.007319,153.305171 219.555375,154.213341 C220.403141,154.603855 221.172361,155.142305 221.825934,155.802721 C223.425583,157.571432 224.905847,159.441767 226.257187,161.401674 C227.273261,163.275788 227.766167,165.38257 227.685442,167.506338 L227.685442,167.506338 Z" id="Path" fill="#000000"></path>
            <path d="M299.375988,149.088175 C299.829266,151.796876 299.968736,151.90241 302.130521,151.339563 L306.419224,150.178691 L309.104022,152.219012 C309.078144,152.857475 308.948574,153.487323 308.720479,154.083443 C308.152471,154.913656 307.484927,155.669852 306.733032,156.334831 C305.582404,157.319814 304.292306,158.199263 303.002209,159.149067 C303.196479,162.2838 304.193639,165.314036 305.896211,167.943554 L312.869712,165.797699 L315.69398,167.767664 C315.480573,169.762548 314.376424,171.550098 312.695375,172.62222 C311.753952,173.466491 310.568457,174.029338 309.592167,174.838431 C307.961512,176.198613 305.660693,176.381504 303.839029,175.295744 C300.982139,174.045698 298.744914,171.68711 297.632613,168.752646 C297.109601,167.169639 296.586588,165.586631 296.028708,164.003624 C295.233826,161.291362 294.290966,158.625498 293.20444,156.01823 C291.989729,152.361991 291.14854,148.590083 290.69398,144.761287 C294.23599,142.125556 298.414447,140.497606 302.793004,140.047443 C303.954429,139.853143 305.134612,140.263269 305.931079,141.137959 C306.536462,141.634519 306.870063,142.393152 306.828695,143.179202 C306.787326,143.965251 306.375973,144.683977 305.721874,145.113067 C304.63331,145.86568 303.463569,146.491163 302.235124,146.977498 C301.13564,147.452988 300.157887,148.174787 299.375988,149.088175 L299.375988,149.088175 Z" id="Path" fill="#000000"></path>
            <path d="M14.6758758,51.4167362 C16.226004,51.6285919 16.9469939,50.6046229 17.8842807,49.8984373 C20.1553987,48.1682828 22.4265167,46.3675097 24.7336842,44.7785923 C26.9350867,43.4140451 29.7421802,43.4140451 31.9435827,44.7785923 C32.9066104,45.2515799 33.5587486,46.170948 33.6753194,47.2199515 C33.7918903,48.268955 33.3569606,49.3042139 32.5203745,49.9690559 C32.2852706,50.1578575 32.0316917,50.3234388 31.7633352,50.4633858 C28.5776363,51.8358768 25.7358121,53.8722698 23.4359025,56.4306535 C22.3544177,57.4193132 21.1647845,58.3726637 20.0112007,59.2907049 C17.9209003,60.741386 15.3201984,61.3017922 12.8013022,60.844313 C11.1395929,60.6377786 9.63255758,59.7852088 8.61956113,58.4785915 C6.96084719,56.3764313 5.73636707,53.9777564 5.0146119,51.4167362 C2.72530426,42.9833533 1.28842409,34.3498687 0.724722318,25.6409644 C0.512808057,23.508259 1.40619564,21.4134582 3.10398881,20.0620987 C4.88892445,19.771905 6.68496756,20.5140525 7.71832383,21.9687997 C9.06331801,23.6258106 9.79980692,25.6779735 9.80919438,27.7948303 C10.3479832,34.2858925 11.433156,40.7222858 13.0536487,47.0383859 C13.1624086,48.6183936 13.7247533,50.1361477 14.6758758,51.4167362 L14.6758758,51.4167362 Z" id="Path" fill="#000000"></path>
            <path d="M257.69398,173.664651 C257.231115,177.680896 254.133482,178.702573 251.569924,180.041321 C249.047132,181.183767 246.174077,181.310114 243.558803,180.393623 C236.358265,178.646052 231.147518,172.461826 230.705406,165.138938 C230.658852,164.120844 230.754705,163.101268 230.990246,162.109139 C231.488716,159.607793 231.95158,157.035987 232.66368,154.569872 C233.714519,151.230722 235.840179,148.323239 238.716526,146.29077 C240.234178,144.976339 242.376951,144.634368 244.235298,145.410014 C245.993713,146.234255 247.673877,147.212877 249.2556,148.334123 C249.647255,148.580734 249.82528,149.179648 250.03891,149.637641 C250.964639,151.610533 249.46923,152.949282 247.582166,152.843591 C247.073239,152.772189 246.579887,152.617407 246.122362,152.385598 C243.950458,151.645763 242.989124,151.857145 241.849764,153.653886 C241.238867,154.797583 240.692096,155.973705 240.211935,157.176908 C239.119225,159.373726 238.512324,161.77578 238.431687,164.222952 C238.170632,167.231683 239.342362,170.188798 241.60053,172.220212 C243.481386,174.320704 246.519399,174.976049 249.11318,173.840802 C250.430564,173.241889 251.783553,172.819126 253.100938,172.220212 C253.898293,171.781711 254.843156,171.688119 255.712536,171.961525 C256.581916,172.234932 257.298792,172.851114 257.69398,173.664651 Z" id="Path" fill="#000000"></path>
            <path d="M152.683378,178.447424 C154.123994,178.016046 155.204455,177.656564 156.284917,177.368979 C157.461595,177.037348 158.667778,176.82064 159.886456,176.721911 C161.530091,176.651799 163.012407,177.70228 163.487996,179.274232 C163.888909,180.009675 163.689726,180.927264 163.019796,181.431123 C160.167531,183.582157 156.908825,185.135102 153.439701,185.996543 C151.988911,186.039664 150.554751,185.678682 149.297931,184.954045 C147.14642,184.191703 145.584931,182.315896 145.228192,180.065092 C143.807873,174.699432 143.36866,169.122086 143.931638,163.600824 C144.435853,160.006006 144.579915,156.411188 144.976084,152.816369 C145.372253,149.221551 146.48873,148.574484 149.982224,149.221551 C150.387447,149.339158 150.784475,149.483262 151.170731,149.652929 C152.342871,151.856096 152.796169,154.369719 152.467286,156.842566 C152.143147,160.653073 151.782993,164.427633 151.49487,168.23814 C151.031321,171.686909 151.439904,175.196637 152.683378,178.447424 L152.683378,178.447424 Z" id="Path" fill="#000000"></path>
            <path d="M45.492092,189.63291 L38.1752173,192.080695 C37.5164158,193.665619 36.9429893,195.288026 36.457641,196.940269 C36.1281799,198.239659 35.3101678,199.343618 34.1904404,200 C33.5033319,199.77406 32.8366115,199.484962 32.198052,199.136076 C31.2488137,198.786884 30.4736032,198.052104 30.0471067,197.097311 C29.6206102,196.142519 29.5787113,195.048046 29.9308513,194.060522 C30.1369605,193.05261 30.5148273,192.044699 30.7552879,191.036787 C30.9613803,190.275651 31.065432,189.488173 31.0644517,188.696993 C30.9914785,187.653861 31.3550825,186.629051 32.0606459,185.889239 C32.6945939,185.108373 33.1734195,184.202758 33.4690584,183.225473 C34.4996041,180.273732 35.3927438,177.285995 36.4232895,174.334254 C36.9902993,172.707777 37.6794896,171.130973 38.484381,169.618668 C38.7851242,168.914149 39.3558578,168.375522 40.0558763,168.135577 C40.7558948,167.895632 41.5200656,167.976694 42.1599941,168.358779 C43.6549595,169.125322 44.8636395,170.391894 45.5951466,171.958462 C46.6130939,173.743884 47.4974322,175.609309 48.240214,177.537972 C49.0990021,179.805773 49.7516811,182.145568 50.5074146,184.449366 C51.4164975,187.920025 52.6595274,191.284989 54.2173793,194.492484 C54.7854292,195.501348 54.8495023,196.736759 54.3891369,197.804193 C53.9082156,199.028085 53.2211851,199.532041 52.0875848,199.100079 C51.1486379,198.770585 50.283677,198.243899 49.545572,197.552215 C48.213564,196.146268 47.1727641,194.467401 46.4882863,192.620648 C46.2478256,191.648733 45.9386619,190.784809 45.492092,189.63291 Z M41.5073152,177.285995 C40.511121,178.833859 41.5073152,179.949761 41.5073152,180.885679 C41.3221371,182.099896 41.0698008,183.301816 40.7515816,184.485362 C41.8651858,184.883055 43.0731299,184.883055 44.1867341,184.485362 C43.5362919,181.993994 42.6382378,179.581 41.5073152,177.285995 Z" id="Shape" fill="#000000"></path>
            <path d="M43.4349802,157.231765 L43.6939799,160.919613 C42.9826887,161.026796 42.2592733,161.026796 41.5479821,160.919613 C37.4937347,159.577548 33.7284628,157.488429 30.4479933,154.760907 C29.8389309,154.210138 29.3262389,153.56203 28.9309948,152.843227 C28.6059963,152.252531 28.6158121,151.53518 28.9568522,150.953539 C29.2978924,150.371897 29.9201321,150.011282 30.5959932,150.003584 C31.5318518,149.969994 32.4610214,150.172979 33.2969904,150.593639 C36.8219804,152.577028 40.208972,154.794754 43.4349802,157.231765 Z" id="Path" fill="#000000"></path>
            <path d="M82.0305613,110.748244 C81.6401061,120.461429 75.6057987,124.85035 68.4711176,127.908204 C57.9288276,132.369074 48.6643909,129.31122 40.1808646,122.368091 C37.6869825,119.925766 35.3175153,117.356235 33.0816794,114.669493 C31.5807077,112.895536 30.7504195,110.638817 30.7389483,108.30196 C30.5349552,107.130766 31.0362048,105.948555 32.0149576,105.292458 C32.9937103,104.636362 34.2633136,104.631499 35.2469309,105.280081 C36.3459123,105.984314 37.3083463,106.886575 38.086605,107.942213 C39.7194176,109.848875 40.9972709,112.043335 42.7365713,113.806099 C44.8070209,116.657 47.988754,118.465952 51.468569,118.770615 C52.0457076,118.848336 52.6012297,119.044168 53.1013816,119.346211 C58.8872176,122.296142 63.5016879,119.346211 67.796695,116.036534 C69.4063435,115.081489 70.4378414,113.373636 70.54486,111.486392 C70.6518787,109.599148 69.8202267,107.782774 68.3291339,106.647121 C66.4842524,104.972497 64.4602156,103.512425 62.2948264,102.294176 C57.9288276,99.4521695 53.4563409,96.7900374 49.0548461,94.0199809 C44.6913464,91.1461001 41.5306388,86.7382975 40.1808646,81.6446637 C39.28331,79.1893578 39.7727252,76.4337059 41.4587179,74.4497118 C44.6525603,70.0108217 49.6728486,67.2945658 55.0891535,67.0748862 C60.0828325,66.667352 65.0705646,67.9311059 69.2875239,70.6723621 C70.3886327,71.4127248 71.2522666,72.4630657 71.7722387,73.6942419 C72.4713805,75.2940899 72.1018423,77.1667059 70.8493446,78.3709606 C68.8897612,78.2577677 66.9427219,77.9810238 65.0280127,77.5435411 C58.8162257,75.4210303 54.8761779,77.0758693 51.7880324,83.4074269 C52.5652485,85.1610528 53.9207044,86.5856728 55.6215924,87.4365999 C59.3486646,89.810934 63.1112327,92.1133186 66.8738009,94.6315518 C68.6485972,95.7467693 70.4233935,96.9699111 72.1981898,98.2290277 C75.0282205,99.9546798 77.327,102.446433 78.8359279,105.42398 C79.6482621,106.630927 80.5500992,107.77343 81.5336183,108.841582 C81.3235328,105.175245 81.3235328,101.499642 81.5336183,97.8333054 C81.8273773,94.3722116 82.5549845,90.9631438 83.6988698,87.6884232 C86.6707383,79.4669987 95.5755145,75.1542147 103.754068,77.9752382 C106.842213,79.0185063 109.894863,80.0257995 113.018505,80.9611433 C118.542076,82.3273357 122.870245,86.6723775 124.270713,92.2572177 C125.087119,95.6388451 126.010013,99.0204724 126.506956,102.438075 C127.206483,107.328116 125.92636,112.297126 122.957364,116.216407 C118.666608,122.87377 110.805813,126.208724 103.115141,124.634501 C95.6200316,123.573823 88.8372245,119.568119 84.2313087,113.482326 C83.7698616,112.798805 83.2729187,112.223209 82.0305613,110.748244 Z M116.568097,95.0992237 C114.693921,95.2183881 112.812456,95.121839 110.959741,94.8114256 C108.262051,94.0559556 107.410148,91.2139497 105.74184,89.3792369 L94.8800864,90.0627574 C92.5883367,94.2722901 91.6455405,99.1001521 92.1823961,103.877065 C92.3506973,108.755605 95.8021102,112.878746 100.523939,113.842073 C105.102966,115.806658 110.407662,114.607118 113.728423,110.856168 C117.738361,106.672498 118.859868,100.449417 116.568097,95.0992237 L116.568097,95.0992237 Z" id="Shape" fill="#000000"></path>
            <path d="M186.812346,111.830314 C187.244917,115.033782 187.641441,117.87731 188.037965,120.720839 C188.434488,123.564367 188.758917,125.328074 188.903107,127.631692 C189.048123,128.793104 188.66136,129.957941 187.850194,130.802813 C187.039028,131.647685 185.889807,132.082658 184.721585,131.986969 C182.739655,132.064679 180.808959,131.347449 179.359843,129.995148 C177.910727,128.642846 177.063641,126.767877 177.007398,124.788164 C176.034112,119.245083 175.277113,113.702003 174.484065,108.158923 C173.582875,101.823974 172.75378,95.4890253 171.888638,89.1900704 C171.8579,89.0593979 171.833838,88.9272492 171.816543,88.7941361 C171.445426,86.6817218 171.924779,84.5084351 173.150304,82.7471395 C174.736399,81.1634023 176.755065,81.7393067 178.665588,82.099247 C178.665588,82.099247 178.990016,82.099247 179.314444,81.9192769 C179.963301,81.0914142 180.612158,80.1555695 181.33311,79.2557188 C183.127177,76.8658994 186.088538,75.6499534 189.047298,76.0882444 C196.11622,76.954049 202.284325,81.289617 205.485005,87.6423272 C207.239724,90.9820907 207.074789,95.0032765 205.052434,98.1885773 C202.116795,103.490895 197.465066,107.640771 191.859011,109.958624 C190.417107,110.390553 188.975202,111.002451 186.812346,111.830314 Z M186.45187,101.032106 C190.514951,99.8649419 193.722471,96.7432714 194.995152,92.7174851 C195.280038,91.8155356 195.280038,90.8478945 194.995152,89.945945 C194.708742,88.1525551 193.206593,86.8026303 191.390392,86.7064825 C189.789485,86.8551546 188.480731,88.0444971 188.182155,89.6219988 C186.610458,93.2199342 186.013751,97.1672466 186.45187,101.0681 L186.45187,101.032106 Z" id="Shape" fill="#000000"></path>
            <path d="M147.986771,116.757325 C149.923727,116.429544 151.577856,115.195153 152.421649,113.447803 C153.673429,111.124096 154.782148,108.729974 155.998163,106.406267 C157.26046,102.981254 157.183974,99.2165524 155.783572,95.8439632 C154.359698,91.1362753 152.454393,86.5829134 150.096915,82.2537987 C149.148272,80.8157717 148.731498,79.1000682 148.916665,77.3951388 C148.988865,76.6338376 149.39274,75.9407217 150.023853,75.4950235 C150.654966,75.0493254 151.451347,74.8948094 152.207058,75.0714319 C154.486132,75.5448259 156.524034,76.7908744 157.965246,78.5921999 C162.02433,83.8658241 164.768475,90.0042107 165.976637,96.5129092 C168.26743,106.744611 164.989192,117.412847 157.321473,124.679053 C154.284684,127.707804 149.762526,128.772928 145.662037,127.425252 C143.056719,126.668032 140.756262,125.129581 139.081251,123.024292 C134.424019,117.894473 131.609051,111.399725 131.06986,104.54026 C130.783739,99.0478621 130.640678,93.555464 130.712208,88.0630659 C130.712208,84.96479 132.178579,83.4508598 134.288722,83.0635753 C137.041398,82.8659138 139.64209,84.3268719 140.869508,86.7603817 C141.241541,87.8281566 141.458279,88.9423669 141.513281,90.0699037 C141.727872,92.9217258 141.763637,95.7735479 141.978228,98.5901623 C142.228584,102.11093 142.514705,105.385245 142.979652,108.765182 C143.36897,112.026035 145.201537,114.951098 147.986771,116.757325 L147.986771,116.757325 Z" id="Path" fill="#000000"></path>
            <path d="M238.552111,95.0309568 L237.559028,98.5718592 C235.03793,100.289659 231.956797,100.98589 228.940489,100.519356 C226.628131,100.042707 224.221782,100.380544 222.13078,101.475399 C221.753731,103.73705 221.923981,106.055933 222.627321,108.238523 C226.847922,108.592613 230.501048,106.609708 234.721649,106.007754 L238.69398,109.79652 L236.565946,114.753783 C232.04169,117.191917 227.290285,119.184232 222.37905,120.702499 C221.406839,122.533279 221.558012,124.755992 222.76919,126.438761 C227.308996,126.013853 231.033056,122.47295 236.353142,122.897859 L238.445709,125.164036 C238.500631,125.741084 238.500631,126.32203 238.445709,126.899078 C238.276734,127.84261 237.901316,128.737299 237.346225,129.519346 C233.267492,133.449748 229.18876,137.450967 223.15933,137.946694 C220.475236,138.255911 217.813789,137.206365 216.065882,135.149381 C213.021137,132.191238 211.123844,128.25235 210.710329,124.030947 C210.710329,122.508359 210.710329,120.985771 210.710329,119.463183 C210.710329,112.983332 210.710329,106.503481 210.710329,100.023629 C210.568101,97.3392884 211.357257,94.6880754 212.944765,92.5169162 C214.016561,90.8925968 215.856482,89.9406258 217.803777,90.0028755 C223.15933,90.3923747 228.443948,90.9943281 233.799501,91.4546454 C235.963003,91.3484184 236.956085,93.5791869 238.552111,95.0309568 Z" id="Path" fill="#000000"></path>
            <path d="M245.67398,146.981901 C246.11398,146.141901 246.19398,144.941901 247.71398,145.021901 C247.462279,146.010155 246.671508,146.769915 245.67398,146.981901 Z" id="Path" fill="#000000" opacity="0.3"></path>
            <path d="M240.65398,174.2 C238.77398,174.2 239.17398,172.88 238.73398,171.8 C239.69398,171.8 239.57398,172.72 240.13398,172.84 L240.65398,174.2 Z" id="Path" fill="#000000" opacity="0.3"></path>
            <path d="M235.755825,160.438469 C236.00529,160.479422 236.180231,160.706845 236.155825,160.958469 C236.155825,161.238469 236.155825,161.598469 235.835825,161.558469 C235.557853,161.503615 235.329631,161.305822 235.235825,161.038469 C235.195825,160.918469 235.355825,160.518469 235.755825,160.438469 Z" id="Path" fill="#000000" opacity="0.3"></path>
        </g>
    </g>
</svg>