<?xml version="1.0" encoding="UTF-8"?>
<svg width="451px" height="149px" viewBox="0 0 451 149" version="1.1" xmlns="http://www.w3.org/2000/svg" xmlns:xlink="http://www.w3.org/1999/xlink">
    <!-- Generator: Sketch 59.1 (86144) - https://sketch.com -->
    <title>Res / Logo / Black_Yellow_Alt</title>
    <desc>Created with Sketch.</desc>
    <g id="Res-/-Logo-/-Black_Yellow_Alt" stroke="none" stroke-width="1" fill="none" fill-rule="evenodd">
        <g id="Group-31">
            <path d="M178.373662,29.7014789 C176.423662,29.7014789 174.851831,29.9845775 173.436338,29.6380986 C171.021549,29.048662 170.113099,26.5155634 168.640563,25.0578169 C165.186338,25.4106338 162.057465,25.7275352 159.091268,26.0317606 C156.784225,30.0817606 156.860282,34.0852817 157.162394,38.1437324 C157.519437,42.9141549 160.58493,45.4873944 164.704648,46.6219014 C168.957465,47.7923239 173.309577,47.3211972 176.260986,43.5690845 C179.432113,39.5444366 180.813803,34.9789437 178.373662,29.7014789 M148.426479,44.4564085 C148.382113,52.9535915 143.201831,56.9719014 137.030704,59.8514789 C127.956761,64.083169 119.58,61.748662 111.995493,55.9852817 C109.608169,54.1747183 107.837746,51.5761268 105.617324,49.5141549 C103.967324,47.9824648 103.622958,46.0282394 103.329296,44.0444366 C102.982817,41.7162676 105.144085,40.1528873 107.212394,41.2451408 C108.201127,41.7669718 109.050423,42.633169 109.817324,43.4761268 C111.291972,45.0902113 112.519437,46.9557042 114.112394,48.4366901 C116.315915,50.4859859 118.56169,52.6514789 121.977887,52.4655634 C122.446901,52.4402113 122.956056,52.7127465 123.412394,52.9197887 C128.615915,55.2817606 132.617324,52.6176761 136.278592,49.5352817 C139.282817,47.0021831 139.177183,43.976831 136.185634,41.2578169 C134.588451,39.8064085 132.613099,38.7437324 130.722254,37.6578169 C126.771549,35.3909155 122.749014,33.255 118.783521,31.0155634 C114.606761,28.6578169 112.147606,24.9437324 110.531408,20.5303521 C109.694789,18.2528873 110.089859,16.3578169 111.414507,14.3444366 C114.241268,10.0472535 118.394789,8.16908451 123.222254,7.46978873 C127.739155,6.81274648 131.956056,8.00640845 135.879296,10.161338 C136.836338,10.6873944 137.691972,11.7120423 138.177887,12.711338 C138.769437,13.9240141 138.74831,15.3310563 137.533521,16.7972535 C135.936338,16.605 134.064507,16.6366901 132.351127,16.1317606 C126.809577,14.4902113 123.39338,16.0451408 120.858169,21.6859859 C121.485634,23.3359859 122.953944,24.2106338 124.392676,25.0493662 C127.749718,27.0014789 131.153239,28.8669718 134.529296,30.7852817 C136.141268,31.7000704 137.713099,32.6866901 139.335634,33.5845775 C141.908873,35.0064085 143.941268,36.9416197 145.449718,39.4852817 C146.01169,40.4338732 146.892676,41.1923239 147.917324,42.3711972 C147.720845,38.811338 147.285634,35.7923239 147.467324,32.8134507 C147.649014,29.811338 148.128592,26.7479577 149.03493,23.8873944 C151.341972,16.6134507 159.112394,12.6796479 166.43493,14.7796479 C169.179296,15.5655634 171.925775,16.3578169 174.691268,17.0676761 C180.053239,18.4409155 183.570845,21.711338 185.085634,27.0521831 C185.913803,29.9719014 186.847606,32.876831 187.396901,35.8493662 C188.195493,40.1676761 187.331408,44.3169718 184.86169,47.9402113 C180.699718,54.0437324 174.801127,56.8810563 167.470141,55.7782394 C160.819437,54.7747183 154.800423,52.2162676 150.44831,46.7106338 C150.034225,46.1888028 149.556761,45.7134507 148.426479,44.4564085" id="Fill-1" fill="#1D1D1B"></path>
            <path d="M45.9775352,34.5561972 C49.3747183,33.6984507 49.4507746,33.0392958 47.0169718,29.5533803 C46.683169,31.1632394 46.3873944,32.5850704 45.9775352,34.5561972 M51.0585211,43.3449296 C48.8803521,44.4012676 46.9789437,45.4090141 45.0078169,46.2477465 C43.7951408,46.7632394 43.0620423,47.5322535 42.8634507,48.8083099 C42.7599296,49.4759155 42.6733099,50.1477465 42.6352817,50.8195775 C42.5296479,52.6576056 41.7859859,54.2505634 40.0028873,54.7449296 C38.0528873,55.2857746 35.9697887,55.3660563 34.389507,53.568169 C33.6162676,52.6892958 32.8134507,51.84 32.0845775,51.0435211 C28.1761268,53.7815493 24.3542958,56.5069014 20.4796479,59.1519718 C18.6437324,60.4026761 16.5564085,60.9857746 14.3275352,61.2667606 C8.3021831,62.0294366 3.24443662,56.8174648 1.59021127,51.7280282 C0.662746479,48.8759155 0.157816901,45.7935211 0.0521830986,42.7935211 C-0.108380282,38.2576056 0.132464789,33.696338 0.407112676,29.1561972 C0.804295775,22.5815493 1.95992958,16.0998592 3.31415493,9.66253521 C3.76204225,7.52661972 4.44021127,5.42661972 5.17753521,3.36887324 C6.15570423,0.649859155 7.98105634,-0.362112676 10.6388028,0.113239437 C13.3282394,0.597042254 15.3479577,2.73295775 15.333169,5.25549296 C15.3247183,6.42169014 15.1240141,7.61112676 14.8472535,8.74774648 C12.470493,18.4512676 11.2388028,28.3280282 10.6134507,38.2660563 C10.370493,42.0984507 10.8521831,46.0026761 11.2514789,49.8456338 C11.4733099,51.9688732 13.0197887,52.6977465 14.9528873,51.6329577 C18.0500704,49.9259155 21.0479577,48.0287324 24.0247183,46.1188732 C26.2282394,44.705493 28.4211972,43.5329577 31.3366901,44.9188732 C32.1564085,40.0956338 32.8620423,35.6167606 33.6880986,31.1611268 C34.2416197,28.1843662 34.8141549,25.1991549 35.6507746,22.2984507 C37.1951408,16.9491549 38.9402113,11.6569014 44.3042958,7.84774648 L49.389507,7.84774648 C52.0578169,10.0301408 54.0521831,12.8949296 55.0873944,16.3639437 C57.0648592,22.9850704 58.9176761,29.646338 60.8697887,36.2738028 C61.8690845,39.6646479 62.7711972,43.1061972 64.1064085,46.3639437 C64.9852817,48.5104225 64.898662,50.2301408 63.5106338,52.0322535 C62.0190845,52.7674648 60.3373944,53.6083099 58.755,52.6850704 C56.7669718,51.5252113 54.8169718,50.1773239 53.6380986,48.0519718 C52.7634507,46.4759155 52.2733099,44.6590141 51.0585211,43.3449296" id="Fill-3" fill="#1D1D1B"></path>
            <path d="M384.985775,111.025141 C388.619577,112.482887 392.411831,111.817394 396.463944,111.204718 C396.673099,110.201197 396.994225,109.267394 397.04493,108.318803 C397.296338,103.438521 397.467465,98.5561268 397.699859,93.6758451 C397.746338,92.6702113 397.832958,91.6476761 398.07169,90.6758451 C398.555493,88.7026056 400.44,87.6948592 402.39,88.3962676 C403.995634,88.9730282 405.394225,89.828662 406.125211,91.5483803 C406.989296,93.5871127 407.587183,95.600493 407.563944,97.8821831 C407.496338,104.456831 407.631549,111.031479 407.686479,117.606127 C407.722394,122.173732 408.032958,126.713873 409.545634,131.065986 C410.832254,134.775845 409.093521,137.47162 404.60831,136.157535 C403.80338,135.923028 403.030141,135.580775 402.309718,135.314577 C398.428732,130.789225 397.95338,125.186408 397.104085,119.399789 C393.392113,120.202606 389.849155,121.030775 386.430845,120.652606 C384.907606,121.977254 385.617465,123.367394 385.74,124.637113 C385.963944,126.982183 386.361127,129.306127 386.580845,131.651197 C386.754085,133.487113 386.046338,134.940634 384.191408,135.878662 C381.846338,135.361056 379.279437,135.031479 378.092113,132.329366 C377.625211,131.26669 377.211127,130.144859 377.00831,129.008239 C376.44,125.856127 375.992113,122.682887 375.506197,119.518099 C375.45338,119.184296 375.406901,118.842042 375.434366,118.508239 C375.645634,115.755423 372.654085,113.558239 373.797042,110.801197 C374.975915,107.961761 374.257606,105.139225 374.390704,102.320915 C374.517465,99.6293662 374.27662,96.9230282 374.325211,94.2272535 C374.375915,91.2589437 376.839296,89.6997887 379.539296,90.8511972 C381.918169,91.8673944 383.219577,93.7730282 383.55338,96.2575352 C383.868169,98.5899296 383.984366,100.951901 384.142817,103.307535 C384.290704,105.494155 384.364648,107.685 384.506197,109.869507 C384.527324,110.186408 384.755493,110.488521 384.985775,111.025141" id="Fill-5" fill="#1D1D1B"></path>
            <path d="M197.447535,110.468028 C196.919366,110.744789 196.458803,110.829296 196.374296,111.053239 C195.537676,113.277887 193.798944,113.586338 191.874296,113.01169 C190.623592,112.637746 189.423592,111.940563 188.335563,111.199014 C184.260211,108.41662 182.35669,108.412394 178.332042,111.36169 C174.901056,113.871549 172.84331,119.457465 174.02007,123.494789 C175.298239,127.889155 178.965845,129.135634 182.916549,129.851831 C183.723592,129.995493 184.60669,129.944789 185.42007,129.794789 C191.878521,128.609577 196.600352,125.527183 198.284155,118.660986 C199.013028,115.699014 198.630634,113.142676 197.447535,110.468028 M184.659507,138.387042 C178.07007,139.109577 172.839085,135.910986 168.104577,131.541972 C166.17993,129.765211 164.941901,127.599718 164.673592,124.960986 C164.401056,122.286338 163.767254,119.565211 164.008099,116.930704 C164.927113,106.899718 173.052465,101.024366 181.925704,101.370845 C184.186268,101.457465 186.218662,101.269437 188.303873,100.47507 C189.364437,100.067324 190.608803,99.851831 191.732746,99.9532394 C198.757394,100.599718 205.171479,104.732113 206.318662,112.356761 C206.83838,115.821549 206.933451,119.421549 206.673592,122.920141 C206.295423,127.986338 203.255282,131.641268 199.163028,134.353944 C194.863732,137.201831 190.190493,139.027183 184.659507,138.387042" id="Fill-7" fill="#1D1D1B"></path>
            <path d="M63.740493,106.38507 C64.2433099,102.054085 64.1228873,101.348451 62.2383803,97.433662 C59.6883803,100.420986 59.2130282,101.42662 58.5940141,105.261127 C60.2228873,106.000563 61.875,106.666056 63.740493,106.38507 M65.6799296,115.047042 C61.6806338,114.842113 57.8609155,114.647746 53.925,114.44493 C51.0580986,118.08507 50.8066901,122.920986 48.2693662,126.856901 C45.4489437,127.995634 43.1207746,126.550563 40.9024648,125.014648 C40.3257042,124.617465 39.9559859,123.632958 39.8735915,122.87662 C39.7637324,121.904789 39.9010563,120.846338 40.1841549,119.899859 C40.6616197,118.29 41.2214789,116.680141 41.9503521,115.167465 C45.8926056,106.974507 49.8707746,98.8005634 53.9038732,90.6519718 C54.5609155,89.3230986 55.5475352,88.1569014 56.2996479,87.0392958 C57.8926056,86.8343662 59.2257042,86.5766197 60.5672535,86.5069014 C65.5954225,86.2449296 69.225,88.4547887 71.4073944,93.1892958 C72.9707746,96.5801408 73.6742958,100.209718 74.2383803,103.894225 C75.081338,109.382958 76.0383803,114.861127 77.181338,120.292817 C77.696831,122.741408 78.7130282,125.09493 79.6214789,127.446338 C80.3334507,129.292817 79.9827465,130.720986 78.3982394,131.849155 C72.6221831,131.916761 69.3644366,128.87662 67.9552817,123.510423 C67.2707746,120.909718 66.5588028,118.313239 65.6799296,115.047042" id="Fill-9" fill="#1D1D1B"></path>
            <path d="M239.769296,32.433169 C243.853099,31.1740141 245.672113,28.2796479 246.918592,24.9289437 C247.176338,24.2380986 246.943944,23.2726056 246.703099,22.5078169 C246.153803,20.7606338 244.848169,19.7275352 243.489718,19.8226056 C241.869296,19.9366901 241.146761,21.1641549 240.810845,22.448662 C240.014366,25.4951408 238.907324,28.5310563 239.769296,32.433169 M240.447465,41.7923239 C240.93338,44.583169 241.362254,47.0423239 241.789014,49.5014789 C242.13338,51.4916197 242.564366,53.4690845 242.790423,55.4719014 C243.050282,57.770493 241.571408,59.3528873 239.298169,59.4247183 C235.658028,59.5430282 233.272817,57.6479577 232.364366,53.5071127 C231.318592,48.7388028 230.477746,43.9240141 229.605211,39.1197887 C228.614366,33.6542958 227.691127,28.1761268 226.734085,22.7064085 C226.704507,22.539507 226.611549,22.3810563 226.609437,22.2162676 C226.575634,20.3824648 226.218592,18.4345775 227.591831,16.9197887 C228.908028,15.4662676 230.667887,15.920493 232.332676,16.155 C232.476338,16.1761268 232.639014,16.0683803 232.913662,15.9796479 C233.427042,15.2402113 233.976338,14.4014789 234.574225,13.5965493 C236.215775,11.3845775 238.510141,10.3409155 241.17,10.5880986 C247.668592,11.1965493 252.553099,14.6233099 255.825634,20.1035915 C257.534789,22.970493 257.376338,26.2472535 255.796056,29.3085211 C253.315775,34.1064085 249.635493,37.676831 244.736197,39.9627465 C243.531972,40.5247183 242.289718,41.0106338 240.447465,41.7923239" id="Fill-11" fill="#1D1D1B"></path>
            <path d="M322.860893,112.405352 C322.86507,117.152535 322.592535,121.83 321.02493,126.397606 C319.163662,131.820845 315.734789,135.750423 310.444648,137.871549 C306.948169,139.274366 303.280563,138.606761 300.139014,136.967324 C295.448873,134.522958 291.584789,130.908169 288.952394,126.241268 C284.245352,117.89831 285.234085,109.34831 288.424225,100.821549 C289.104507,98.9940845 290.568592,98.3940845 292.52493,98.7109859 C295.53338,99.1947887 297.559437,101.806056 297.153803,104.890563 C296.910845,106.726479 296.264366,108.509577 296.065775,110.345493 C295.812254,112.675775 295.67493,115.041972 295.755211,117.380704 C295.930563,122.408873 298.905211,125.79338 302.792535,128.495493 C304.666479,129.796901 306.084085,129.638451 307.862958,128.21662 C310.022113,126.490563 311.547465,124.426479 312.32493,121.660986 C313.613662,117.074366 314.403803,112.449718 314.386901,107.696197 C314.376338,104.981408 314.192535,102.325775 312.079859,100.179296 C311.418592,99.5074648 311.082676,98.4130986 310.846056,97.4497183 C310.176338,94.7285915 312.534085,92.3983099 315.318592,92.9814085 C317.870704,93.5138028 319.537606,95.2461972 320.355211,97.5384507 C321.312254,100.221549 322.015775,103.027183 322.508028,105.83493 C322.884085,107.977183 322.761549,110.210282 322.860893,112.405352" id="Fill-13" fill="#1D1D1B"></path>
            <path d="M206.575986,47.3002817 C208.728803,46.7953521 209.685845,45.57 210.349225,44.2178873 C211.382324,42.113662 212.280211,39.9333803 213.087254,37.7298592 C214.249225,34.554507 213.704155,31.3685915 212.544296,28.3538028 C210.97669,24.2826761 209.480915,20.1587324 207.121056,16.4488732 C206.275986,15.1242254 205.760493,13.7594366 205.906268,12.1707042 C206.037254,10.7319718 207.31331,9.68408451 208.72669,10.0178873 C210.716831,10.4805634 212.548521,11.2347887 213.887958,12.941831 C217.580915,17.6509859 220.498521,22.8312676 221.662606,28.6707042 C223.534437,38.0742254 221.971056,46.7467606 215.011901,53.9890141 C212.106972,57.0101408 208.673873,57.7178873 204.896408,56.826338 C202.623169,56.2897183 200.643592,54.9735211 198.991479,53.1228169 C194.829507,48.4580282 191.924577,43.2228169 191.34993,36.9376056 C190.906268,32.076338 190.610493,27.191831 190.502746,22.3115493 C190.439366,19.5397183 191.605563,18.1347887 193.519648,17.7228169 C195.524577,17.2939437 198.530915,18.8066197 199.386549,20.8073239 C199.775282,21.72 199.978099,22.7425352 200.087958,23.735493 C200.364718,26.2474648 200.489366,28.7784507 200.772465,31.2925352 C201.112606,34.3073239 201.46331,37.3242254 201.97669,40.3115493 C202.479507,43.2460563 203.947817,45.635493 206.575986,47.3002817" id="Fill-15" fill="#1D1D1B"></path>
            <path d="M449.219155,124.615141 C449.27831,125.612324 449.770563,126.932746 449.320563,127.486268 C447.433944,129.818662 445.532535,132.292606 443.140986,134.027113 C438.632535,137.29331 433.581127,136.184155 429.298732,133.739789 C425.371268,131.500352 423.467746,127.365845 423.095915,122.701056 C422.567746,116.05669 423.883944,109.598239 424.826197,103.086972 C425.265634,100.046831 427.357183,97.653169 427.701549,94.5834507 C427.781831,93.8735915 429.009296,92.9757042 429.871268,92.7264085 C432.774085,91.8855634 435.721268,91.0869718 438.706479,90.6792254 C441.195211,90.3390845 443.76,90.5503521 446.288873,90.5588028 C448.050845,90.5651408 449.595211,91.0911972 450.738169,92.7602113 C449.920563,93.8989437 449.140986,95.1179577 448.215634,96.2102113 C447.702254,96.8165493 447.007183,97.3806338 446.276197,97.6721831 C442.388873,99.2144366 438.463521,100.659507 434.466338,102.172183 C434.369155,103.021479 434.227606,103.67007 434.240282,104.316549 C434.259296,105.123592 434.40507,105.930634 434.508592,106.845423 C437.542394,107.052465 440.022676,105.979225 442.414225,104.804577 C444.450845,103.805282 446.601549,103.52007 448.775493,103.304577 C449.660704,103.215845 450.321972,103.879225 450.469859,104.840493 C450.687465,106.266549 450.298732,107.536268 449.301549,108.565141 C447.199437,110.736972 445.14169,112.946831 442.308592,114.250352 C439.857887,115.378521 437.421972,116.559507 435.095915,117.917958 C432.617746,119.365141 431.956479,122.41162 433.35507,124.93838 C434.217042,126.501761 435.869155,127.251761 437.614225,126.698239 C439.380423,126.140493 441.224789,125.635563 442.800845,124.710211 C444.947324,123.448944 446.901549,123.575704 449.219155,124.615141" id="Fill-17" fill="#1D1D1B"></path>
            <path d="M347.434225,97.5319014 C342.585634,100.170634 340.301831,103.941761 338.377183,107.831197 C336.737746,111.148099 335.945493,114.815704 335.776479,118.574155 C335.556761,123.469225 339.006761,127.365 343.933521,127.430493 C345.756761,127.455845 347.639155,127.113592 349.405352,126.621338 C351.995493,125.900915 354.526479,124.948099 357.044789,123.993169 C360.334225,122.750915 360.317324,122.708662 363.091268,125.700211 C362.573662,126.665704 361.946197,127.637535 361.506761,128.687535 C360.739859,130.508662 359.326479,131.442465 357.668028,132.448099 C354.872958,134.14669 351.826479,135.04669 348.777887,135.868521 C346.891268,136.377676 344.727887,136.405141 342.788451,136.071338 C337.084225,135.091056 332.400423,132.249507 328.91662,127.557254 C327.473662,125.611479 326.662394,123.460775 326.607465,120.995282 C326.402535,112.130493 328.494085,104.038944 333.942676,96.8389437 C336.207465,93.8473944 338.518732,91.0628873 341.736338,89.0769718 C343.555352,87.9530282 345.359577,87.549507 347.497606,88.0797887 C352.568028,89.3389437 355.508873,92.7593662 357.365915,97.3692254 C357.551831,97.8297887 357.640563,98.349507 357.680704,98.8480986 C357.987042,102.653028 354.891972,104.947394 351.437746,103.430493 C349.17507,102.435423 347.628592,100.774859 347.434225,97.5319014" id="Fill-19" fill="#1D1D1B"></path>
            <path d="M285.672465,24.4362676 C285.421056,25.431338 285.173873,26.4010563 284.909789,27.4426056 C282.769648,29.3334507 280.073873,29.4496479 277.346408,29.4559859 C275.337254,29.4602113 273.268944,29.1200704 271.36331,30.5376761 C271.014718,32.4771127 271.435141,34.3975352 272.054155,36.5059859 C275.785141,36.668662 278.933028,34.7862676 282.632324,34.1038732 C283.771056,35.1073944 285.006972,36.1933099 286.295704,37.3299296 C285.67669,38.9292254 285.142183,40.3193662 284.578099,41.7792254 C280.948521,44.5383803 276.412606,45.5566901 272.371056,47.5130282 C271.646408,49.3088028 271.678099,50.8721831 272.907676,52.5665493 C276.909085,52.040493 280.067535,48.7954225 284.780915,48.8228873 C285.353451,49.4059859 286.164718,50.2341549 286.705563,50.7834507 C286.705563,51.6665493 286.78162,52.0172535 286.690775,52.3151408 C286.447817,53.1221831 286.346408,54.1109155 285.811901,54.6665493 C282.328099,58.2897887 278.865423,61.9383803 273.416831,62.6102113 C270.803451,62.9334507 268.650634,62.1137324 266.979507,60.3792254 C264.387254,57.6855634 262.247113,54.6390845 261.885845,50.7200704 C261.761197,49.3785211 261.666127,48.0285211 261.606972,46.6806338 C261.353451,40.9447183 261.16331,35.2088028 260.859085,29.4771127 C260.728099,27.0264085 261.167535,24.8165493 262.597817,22.7757042 C263.647817,21.2799296 265.029507,20.3144366 266.795704,20.3735915 C271.519648,20.5362676 276.237254,20.8911972 280.956972,21.1362676 C283.255563,21.2588028 284.214718,23.2257042 285.672465,24.4362676" id="Fill-21" fill="#1D1D1B"></path>
            <path d="M159.287324,129.756549 C157.789437,135.386831 153.595775,137.412887 148.778873,138.122746 C143.685211,138.874859 138.650704,137.691761 133.983803,135.695282 C129.969718,133.975563 126.20493,131.668521 123.340141,128.165704 C122.030282,126.564296 121.047887,124.876268 120.580986,122.845986 C119.473944,118.054437 118.91831,113.298803 119.746479,108.338239 C121.261268,99.3002113 132.185915,92.649507 140.930282,95.0283803 C145.58662,96.2938732 149.273239,98.4614789 151.65,102.722746 C152.385211,104.041056 152.484507,105.270634 151.609859,106.500211 C150.752113,107.700211 148.985915,108.175563 147.509155,107.459366 C146.30493,106.876268 145.204225,106.071338 144.09507,105.308662 C138.807042,101.679085 133.134507,103.337535 130.411268,109.181197 C128.750704,112.738944 128.828873,116.372746 129.466901,120.072042 C129.794366,121.962887 130.842254,123.484014 132.3,124.736831 C136.821127,128.624155 142.071127,129.845282 147.870423,128.964296 C149.028169,128.788944 150.160563,128.393873 151.288732,128.049507 C155.148592,126.870634 155.144366,126.862183 159.287324,129.756549" id="Fill-23" fill="#1D1D1B"></path>
            <path d="M219.39338,101.736761 C226.003944,100.268451 229.04831,102.581831 228.86662,108.712817 C228.763099,112.243099 228.294085,115.767042 227.877887,119.282535 C227.282113,124.304366 226.521549,129.309296 225.968028,134.335352 C225.792676,135.943099 225.374366,137.694507 226.637746,139.281127 C229.018732,139.247324 231.141972,138.127606 233.389859,137.500141 C237.076479,136.469155 239.009577,136.942394 242.305352,139.61493 C242.474366,142.124789 241.576479,144.019859 239.026479,145.090986 C237.008873,145.940282 235.105352,147.064225 233.081408,147.89662 C225.034225,151.198732 217.056761,146.67338 215.740563,138.019859 C215.463803,136.202958 215.425775,134.303662 215.607465,132.476197 C216.509577,123.406479 217.506761,114.345211 218.520845,105.286056 C218.647606,104.134648 219.070141,103.017042 219.39338,101.736761" id="Fill-25" fill="#1D1D1B"></path>
            <path d="M257.08331,115.343239 C256.498099,116.376338 255.735423,117.320704 255.391056,118.396056 C253.848803,123.240423 256.650211,125.37 260.550211,125.334085 C262.341761,125.319296 263.884014,124.472113 264.623451,122.800986 C265.282606,121.303099 264.792465,119.817887 263.818521,118.531268 C262.174859,116.365775 259.971338,115.393944 257.08331,115.343239 M270.876972,122.640423 C270.653028,129.430563 266.837535,134.830563 258.407958,133.055915 C254.216408,132.170704 250.795986,129.78338 248.472042,125.940423 C245.548099,121.10662 246.972042,115.370704 250.508662,112.163662 C252.209366,110.619296 254.106549,109.710845 256.422042,109.886197 C257.922042,110.000282 259.447394,110.511549 260.909366,110.355211 C265.905845,109.820704 268.297394,113.122817 270.139648,116.767183 C270.97838,118.423521 270.665704,120.66507 270.876972,122.640423" id="Fill-27" fill="#FFDD00"></path>
            <path d="M86.0535211,79.4402113 C85.7577465,81.1219014 85.5316901,82.4148592 85.278169,83.8620423 C84.3929577,84.0479577 83.5330986,84.4958451 82.8084507,84.3310563 C79.8507042,83.6697887 76.7598592,83.1965493 74.0471831,81.9458451 C70.5528169,80.3338732 67.4408451,77.9571127 65.0133803,74.8472535 C64.193662,73.7972535 64.2316901,72.6521831 64.6647887,71.4902113 C65.1380282,70.2310563 66.2323944,69.5444366 67.4323944,69.6479577 C69.9,69.861338 72.4647887,69.7747183 74.5098592,71.7226056 C76.2021127,73.3324648 78.0126761,74.8620423 79.9478873,76.1655634 C81.75,77.3761268 83.7823944,78.2444366 86.0535211,79.4402113" id="Fill-29" fill="#1D1D1B"></path>
        </g>
    </g>
</svg>