<?xml version="1.0" encoding="UTF-8"?>
<svg width="210px" height="210px" viewBox="0 0 210 210" version="1.1" xmlns="http://www.w3.org/2000/svg" xmlns:xlink="http://www.w3.org/1999/xlink">
    <!-- Generator: Sketch 59.1 (86144) - https://sketch.com -->
    <title>Res / Logo / Restos</title>
    <desc>Created with Sketch.</desc>
    <g id="Res-/-Logo-/-Restos" stroke="none" stroke-width="1" fill="none" fill-rule="evenodd">
        <g id="Group-2">
            <circle id="Oval" fill="#FFFFFF" cx="105" cy="105" r="105"></circle>
            <g id="Restos_du_coeur" transform="translate(30.000000, 34.000000)">
                <path d="M97.2491566,83.409402 C88.9326827,91.7299632 78.2004704,96.9243026 67.7481023,102.006077 C61.7460856,100.354574 57.4323583,94.4370134 51.7806931,91.5410359 C40.6369734,85.0161494 30.0746626,75.3874189 27.5613895,62.154455 C24.0806423,52.6839803 27.9095891,41.4753222 35.7989219,35.3487824 C41.6256683,29.911463 50.676011,27.2000562 58.2686202,30.5000124 C64.2604563,31.3980088 69.2419334,39.2733353 75.3744323,36.1696551 C80.9320718,33.9158748 86.2569637,30.5322016 92.4455828,30.8189398 C99.9578612,29.6729904 105.800519,36.1817117 110.233299,41.3006731 C115.119561,47.3908791 112.037949,55.8758596 111.067642,62.8578936 C109.179341,71.2031304 104.124416,78.3961667 97.2491566,83.409402 Z M35.7427747,138.128817 C33.1928882,138.962003 21.8245869,143.877319 26.6590268,138.604812 C60.4546497,127.37473 95.5102671,118.118847 131.326595,117.572416 C127.40013,121.851963 116.996172,118.789333 110.768458,120.846972 C85.2224751,123.741787 60.0989079,129.99741 35.7427747,138.128817 Z M66.5309689,110.2603 C60.0884137,107.795356 54.8201341,102.76542 48.5343317,99.7734267 C41.7253655,95.9969345 34.9210132,92.1807958 28.4597351,87.836835 C26.8627519,92.6923119 31.8777065,100.311581 26.5237489,104.101719 C20.6786689,107.197594 16.7009548,101.903931 13.6163933,97.6957396 C8.51947881,91.2132731 8.09686527,82.2419064 7.18623108,74.3162738 C5.25663279,65.2580179 12.0721486,56.3685337 8.47594183,47.91117 C2.62862673,39.3777909 -2.30846486,28.4611381 1.67823259,18.1249968 C3.69136246,13.8767187 5.47724265,2.86486051 11.2589717,5.66616295 C9.27470426,11.1280845 5.7500665,16.2397837 4.68551795,22.140904 C3.36564771,25.2711613 6.13534224,31.8802276 7.67967344,25.6766452 C9.00423443,18.6916225 12.3414787,12.1884267 16.4919204,6.46730482 C22.4061721,8.57336181 13.0544318,16.6862857 13.2816447,21.6290712 C10.8050087,24.7540236 13.3901579,35.6636489 16.0766793,27.800326 C17.0971269,20.7909964 20.0001763,13.980572 24.660692,8.59323151 C29.560838,12.3484353 20.4387738,19.3374286 21.0967755,25.1020404 C19.8481974,29.69494 20.8696237,33.0824632 24.7244356,28.3038954 C30.1392388,22.8096918 37.0362976,18.6911986 44.8760251,18.1294458 C55.6205558,15.8747259 65.1779736,22.2396329 74.2151979,27.0178179 C81.6608077,23.8583088 89.1143328,19.3216836 97.5129866,20.2784618 C103.865041,17.6953579 113.136008,29.7193199 114.516733,18.7432991 C116.78444,10.8668772 121.55219,1.85240538 130.437186,0.490318988 C139.614117,1.92439554 132.707153,13.5806893 131.252638,18.9469994 C128.390306,28.5167874 124.939349,38.0034737 122.702433,47.7128136 C122.027476,58.2046388 119.358672,68.8190636 122.055558,79.2317366 C124.835543,86.5041414 122.331547,99.6589263 112.026838,96.140917 C107.801027,94.2864836 106.612127,85.9060067 101.232726,91.7393923 C96.1772978,95.5373919 90.0263841,97.3413711 84.7310067,100.85299 C79.0835045,104.048162 73.4770599,107.323113 67.695545,110.27354 L66.5309689,110.2603 L66.5309689,110.2603 Z" id="path2285" fill="#E566A2"></path>
                <path d="M8.98781628,64.2462424 C9.27839263,63.7619485 8.81922308,65.3673875 8.81922308,65.9321637 C8.81922308,66.4806337 8.65063527,66.9600887 8.65063527,67.5337857 C8.65063527,68.0368945 8.5651303,68.636862 8.48204206,69.1354077 C8.40759894,69.5820502 8.48204206,70.1141814 8.48204206,70.5684418 C8.48204206,71.0992647 8.56400573,71.6503136 8.65063527,72.1700638 C8.72966317,72.644242 8.65063527,73.2045577 8.65063527,73.6873919 C8.65063527,74.1884029 8.56633596,74.6062284 8.56633596,75.120426 C8.56633596,75.5677119 8.48204206,76.0598021 8.48204206,76.5534602 C8.48204206,77.0701449 8.56633596,77.5008867 8.56633596,77.986489 C8.56633596,78.4936256 8.70159224,79.0332829 8.81922308,79.503817 C8.95283034,80.0382407 9.38327476,80.4050497 9.74648302,80.768258 C10.2050308,81.2268058 10.8005488,81.1897383 11.4323989,81.1897383 C12.1184121,81.1897383 12.3660819,80.7812608 12.949727,80.4310716 C13.4159797,80.1513246 13.8080428,79.7413549 14.2141685,79.3352238 C14.6211429,78.9282548 15.0330374,78.6849481 15.4786094,78.2393761 C15.8554585,77.862527 16.0079942,77.3728103 16.405864,76.9749351 C16.9638333,76.4169658 17.207567,77.0627811 17.3331239,77.5650087 C17.5333456,78.3659007 18.086276,78.4079693 18.7661527,78.4079693 C19.3529336,78.4079693 19.7290149,78.1915982 20.1148875,77.9021951 C20.5299016,77.5909332 20.983178,77.0535629 21.2950346,76.6377541 C21.61,76.2177984 22.1704077,76.0325638 22.4751763,75.6262003 C22.9088971,75.0479077 23.4531012,75.3986484 23.9082104,75.6262003 C24.3247005,75.8344453 24.9666771,75.7104996 25.4255385,75.7104996 C25.7698292,75.7104996 26.519721,74.9741566 26.7742734,74.7832396 C27.2354271,74.4373756 27.7388819,73.9594561 27.8701211,73.4345048 C27.989255,72.9579747 28.4106001,72.5370242 28.5444885,72.001476 C28.6799719,71.4595426 29.0653093,70.7912359 29.3031553,70.3155547 C29.5665257,69.7888084 29.6948129,69.2002054 29.8089295,68.6296334 C29.9022848,68.162846 29.8932234,67.6890463 29.8932234,67.1965993 C29.8932234,66.5967506 29.6622113,66.2423119 29.3031553,65.7635705 C28.9576535,65.3029087 28.4051071,64.9773627 27.954415,64.7520167 C27.3877574,64.4686905 27.215293,64.2010272 26.9428666,63.6561689 C26.6301719,63.0307796 26.8974513,62.7332667 27.2800476,62.2231347 C27.5933802,61.8053633 28.0217539,61.4308878 28.3758953,60.9586992 C28.7094702,60.5139327 29.0017117,60.1804769 29.3031553,59.7785521 C29.6118436,59.3669658 29.5028363,58.8823854 29.218856,58.5984105 C28.8833618,58.2629109 28.1900714,58.1093966 27.7858272,58.0083369 C27.2933748,57.8852238 26.8509115,58.0159981 26.5213862,58.3455234 C26.1253222,58.741582 25.9059721,59.2138246 25.5098324,59.6099589 C25.0852,60.0345913 24.8816587,60.7439122 24.4139846,61.2115863 C24.045332,61.580239 23.7461862,62.1278925 23.4867301,62.5603212 C23.2045934,63.0305471 23.1140225,63.4610673 22.9809559,63.9933553 C22.8682937,64.4439987 22.9005061,64.9013571 22.8123627,65.3420902 C22.7242463,65.7826719 22.7987003,66.3832991 22.8966566,66.7751189 C23.0317128,67.3153547 23.1824481,67.5630839 23.7396172,67.7023789 C24.197527,67.8168523 24.6496951,67.6180796 25.0883521,67.6180796 C25.7414771,67.6180796 25.8813181,68.0081693 26.015612,68.5453395 C26.1351784,69.0236213 25.9313127,69.5188149 25.9313127,69.9783683 C25.9313127,70.4736862 25.3382223,70.992939 25.0040582,71.3271032 C24.7013657,71.6297956 24.0530039,71.7485835 23.571024,71.7485835 C22.9768901,71.7485835 22.5495167,71.5799957 21.969402,71.5799957 C21.3559397,71.5799957 20.984481,71.9182796 20.5363679,72.2543631 C20.0634115,72.6090776 19.4776795,71.7700314 19.2719269,71.4956964 C18.9935045,71.1244647 19.0925151,70.3588452 19.187633,69.9783683 C19.3224135,69.4392409 20.160492,68.8369215 20.5363679,68.4610402 C20.9602054,68.0372026 21.3684667,67.7449611 21.7165149,67.2808986 C21.9341241,66.9907494 21.8851027,66.4054498 21.8851027,66.0164576 C21.8851027,65.6554282 20.3566966,65.5949773 20.1148875,65.5949773 C19.5310856,65.5949773 19.608816,64.7532007 19.6934072,64.4148356 C19.8115247,63.9423605 19.9317398,63.5239673 20.1148875,63.0660954 C20.3214295,62.5497513 20.8843728,62.1096507 21.2950346,61.8016598 C21.7722567,61.4437392 22.0581672,61.2026438 22.306583,60.7058121 C22.5386927,60.2415928 22.6183478,59.8963019 22.3908824,59.4413711 C22.1192831,58.8981726 21.6993977,58.8891652 21.2107353,58.7670037 C20.6642496,58.6303795 20.1274632,58.84375 19.6934072,59.1041847 C19.1730407,59.4164035 18.7852433,59.9778925 18.4289717,60.4529196 C18.0587132,60.9465993 17.5105136,61.2870837 17.0802314,61.7173605 C16.6317236,62.1658737 16.4704022,62.302168 16.3215701,62.8975076 C16.1943642,63.4063257 16.1529769,63.8734591 16.1529769,64.4148356 C16.1529769,64.8957667 16.068683,65.3190474 16.068683,65.7635705 C16.068683,66.381742 16.068683,66.9999081 16.068683,67.6180796 C16.068683,68.1446475 15.9990463,68.8935013 15.9000897,69.3883002 C15.8075995,69.8507461 15.9000897,70.4362727 15.9000897,70.9056228 C15.9000897,71.3920631 15.7577833,71.9806228 15.6472026,72.4229509 C15.4910121,73.0477022 15.2383899,73.1299686 14.7199427,73.5188041 C14.2382061,73.8801038 13.7334159,74.1806553 13.2026146,74.4460586 C12.5513652,74.7716858 12.5924389,75.1838397 11.8538792,75.0361321 C11.5460883,74.9745729 11.6009921,73.5448692 11.6009921,73.2659115 C11.6009921,72.6767463 11.7108159,72.0679498 11.8538792,71.4956964 C11.9885083,70.9571799 11.9732618,70.3438149 12.1067663,69.8097751 C12.2573016,69.2076557 12.2417252,68.5449124 12.3596588,67.955266 C12.4617512,67.4447935 12.612546,66.9568718 12.612546,66.4379379 C12.612546,65.8197664 12.612546,65.2015949 12.612546,64.5834234 C12.612546,63.8791468 12.5376054,63.4126406 12.0224724,62.8975076 C11.5790468,62.4540766 10.9586748,62.71609 10.5051444,62.8975076 C9.86534656,63.1534224 9.43967615,63.6814176 8.98781628,64.2462424 M123.1246,26.4816339 C122.581455,26.3458478 122.869204,25.3807645 122.618826,24.8800087 C122.375551,24.3934629 122.183564,24.0232677 121.775865,23.6155688 C121.45804,23.2977428 120.704828,23.4407748 120.342836,23.5312727 C119.776098,23.6729569 119.59235,24.1172556 119.078395,24.3742328 C118.656796,24.585033 117.986597,24.4451546 117.561067,24.3742328 C117.073573,24.2929833 116.593399,24.257892 116.128033,24.3742328 C115.664527,24.4901092 115.479644,25.1053287 115.032185,25.2171924 C114.592231,25.3271816 113.931628,25.7253228 113.599151,25.8915609 C113.040463,26.1709018 112.802146,26.2057688 112.250422,26.4816285 C111.797681,26.7080017 110.887722,27.1699611 110.5645,27.4931823 C110.133732,27.9239511 109.689463,28.3652357 109.131466,28.5047362 C108.73524,28.6037954 108.266879,29.3639165 107.951325,29.6005839 C107.58152,29.8779358 107.027698,29.9157872 106.602584,30.0220642 C106.177898,30.1282385 105.844766,30.8616458 105.759624,31.2022113 C105.625038,31.7405655 105.861029,32.1209126 105.338149,32.3823529 C104.885451,32.6086992 104.376768,31.7240322 104.242301,31.4550984 C103.923454,30.8174092 103.807212,30.339668 103.062154,30.1906574 C102.510159,30.0802552 102.161002,30.5773302 101.882012,30.9493188 C101.611554,31.3099319 101.541198,32.0633218 101.460532,32.4666468 C101.368074,32.9289414 101.376233,33.4020112 101.376233,33.899681 C101.376233,34.4335532 101.376233,34.9674308 101.376233,35.501303 C101.376233,35.9659224 101.207645,36.446383 101.207645,36.9343372 C101.207645,37.39129 101.060013,38.0306282 100.954752,38.4516652 C100.850789,38.8675227 100.954752,39.4533088 100.954752,39.8846994 C100.954752,40.7428633 100.638641,40.8540928 100.280385,40.1375865 C100.031655,39.6401222 99.8563527,39.120918 99.6060175,38.6202584 C99.3678741,38.1439663 99.1578287,37.7238754 98.9316501,37.2715236 C98.6089317,36.6260867 98.0511192,36.1848292 97.7515084,35.5856023 C97.4723183,35.0272221 97.1861267,34.3821853 96.8242485,33.899681 C96.4413387,33.3891328 96.2287684,33.1219939 95.6441068,32.8881272 C95.1345264,32.6842939 94.7071907,33.5753731 94.4639598,33.899681 C94.1940744,34.2595318 94.1468155,34.9153763 94.0424849,35.3327152 C93.9087587,35.8676092 93.7895923,36.3962208 93.7895923,36.9343372 C93.7895923,37.3327476 93.7052984,37.7582991 93.7052984,38.1987781 C93.7052984,38.7407872 93.5540549,39.376476 93.4524113,39.8846994 C93.3483023,40.4052336 93.2838181,40.8405115 93.2838181,41.4020275 C93.2838181,41.9209505 93.2982104,42.4259137 93.1995242,42.9193555 C93.0912954,43.4604942 93.030931,44.0466641 93.030931,44.6052714 C93.030931,45.0395869 92.7982266,45.7046691 92.6937446,46.1225995 C92.5254487,46.7957937 92.4941825,46.8047145 91.850784,46.9655601 C91.4799416,47.0582721 90.8240538,46.1765301 90.6706423,45.8697102 C90.3905493,45.3095264 90.0339154,45.0463776 89.9119756,44.4366836 C89.7943447,43.8485078 90.1433824,43.3766382 90.4177552,42.9193555 C90.7481726,42.3686527 91.0686365,41.8704801 91.3450097,41.3177282 C91.6131326,40.7814825 91.7603482,40.2341696 92.0193772,39.7161062 C92.1961127,39.3626406 92.1036765,38.6965506 92.1036765,38.283072 C92.1036765,37.6159007 91.9600833,37.3215182 91.6821962,36.7657439 C91.4640787,36.3295091 90.4258867,36.1987835 89.9962749,36.0913765 C89.5029358,35.9680417 88.9621486,35.9592885 88.4789468,35.8384894 C87.9348292,35.70246 87.2999838,35.7541955 86.7087316,35.7541955 C86.0678471,35.7541955 85.811024,35.9080125 85.2756974,36.1756704 C84.7937122,36.4166685 84.5115052,36.7450205 84.1798497,37.1872243 C83.8547524,37.6206856 83.7583694,38.3394464 83.7583694,38.8731455 C83.7583694,39.3789198 83.7583694,39.8846994 83.7583694,40.3904736 C83.7583694,40.9816717 83.818085,41.6163062 83.9269626,42.1606888 C83.9379812,42.2157926 83.9269626,42.2730861 83.9269626,42.329282 C83.9269626,42.8531953 84.1622621,43.505785 84.2641436,44.0152033 C84.3665171,44.5270599 84.2732212,45.2342723 84.1798497,45.701117 C84.0859213,46.1707721 84.0955558,46.7374297 84.0955558,47.2184472 C84.0955558,48.3151546 83.6271302,47.1010867 83.5054823,46.7969669 C83.2925335,46.2646032 83.3856618,45.5590128 83.2525952,45.0267517 C83.1050822,44.4366944 83.117101,43.8435067 82.999708,43.2565365 C82.8751838,42.6339263 82.7662792,42.1088722 82.6625216,41.4863214 C82.5787576,40.9837154 82.505612,40.4488754 82.4096345,39.9689933 C82.3986105,39.9138895 82.4096345,39.856596 82.4096345,39.8004001 C82.4096345,39.0280709 81.637327,38.7355428 81.0608997,38.6202584 C80.4940852,38.5068934 80.2744647,38.4794334 79.7964587,38.9574394 C79.3595696,39.3943339 79.144242,39.7560986 78.8692042,40.3061797 C78.6891058,40.6663657 78.7849048,41.3106239 78.7849048,41.7392085 C78.7849048,42.3069312 79.037792,42.7358618 79.037792,43.3408304 C79.037792,43.7833207 79.1220913,44.2995837 79.1220913,44.7738646 C79.1220913,45.3944637 79.4015409,45.8073724 79.5435716,46.3754866 C79.6622513,46.8502163 79.7121594,47.4084072 79.7121594,47.8928147 C79.7121594,48.4266923 79.7121594,48.9605644 79.7121594,49.494442 C79.7121594,49.9334883 79.5435716,50.3760164 79.5435716,50.8431769 C79.5435716,51.4642625 78.9234429,51.6752865 78.4477238,51.7704314 C77.8771788,51.8845426 77.549854,51.2391382 77.3518761,50.8431769 C77.0979077,50.3352455 77.0384786,49.9505623 76.9303958,49.4101427 C76.8147654,48.8319961 76.9961505,48.1541144 77.0989836,47.6399276 C77.1968047,47.1508488 77.2675768,46.6186743 77.2675768,46.1225995 C77.2675768,45.5546929 77.3930471,44.9463614 77.5204639,44.4366836 C77.6513192,43.9132677 77.7733564,43.3740268 77.7733564,42.8350562 C77.7733564,42.3368512 77.8576503,41.9208369 77.8576503,41.4020275 C77.8576503,40.827114 77.3594669,40.2065041 76.9303958,39.8846994 C76.4812122,39.5478103 75.6930796,39.6318069 75.1601806,39.6318069 L74.4015138,40.2218804 C74.0861754,40.2218804 73.7395383,41.3400681 73.6428525,41.8235024 C73.5551957,42.2617809 73.6428525,42.8067312 73.6428525,43.2565365 C73.6428525,43.7431282 73.5470534,44.1262814 73.6428525,44.6052714 C73.7259407,45.0207342 73.7271464,45.429774 73.7271464,45.8697102 C73.7271464,46.3915009 73.6046821,46.7354617 73.3056661,47.1341533 C73.0158142,47.5206207 72.5230861,46.2433661 72.4627054,46.1225995 C72.2588127,45.7148064 72.0799795,45.2728482 71.8726319,44.8581585 C71.6169658,44.3468263 71.3635002,43.8398951 71.1139706,43.3408304 C70.780758,42.6744107 70.4326449,42.3679498 69.8495296,42.0763949 C69.3550389,41.8291468 68.9845426,41.7502217 68.5007948,41.9920956 C67.915652,42.284667 67.8080234,42.8396572 67.1520599,43.0036494 C66.5091966,43.1643653 65.7954909,43.0879433 65.1289522,43.0879433 C64.507061,43.0879433 62.2842344,44.0045307 61.7571151,44.2680904 C61.154947,44.5691717 60.560067,44.8109645 59.9026006,44.9424578 C59.3824557,45.0464857 56.1488214,46.5045415 55.7720967,46.8812662 C55.345691,47.3076719 54.7956639,47.5078666 54.2547686,47.7242269 C53.6466047,47.9674903 53.3726535,48.1848616 52.9060337,48.6514814 C52.5109916,49.0465236 52.1265841,49.4517139 51.8944799,49.9159224 C51.6298821,50.4451233 51.3440582,50.912646 51.1358186,51.4332504 C50.919588,51.9738214 50.6300443,52.4962965 50.6300443,53.1191717 C50.6300443,53.6152574 50.0778925,54.3077638 49.8713776,54.7207937 C49.6029682,55.2576125 48.9484267,55.3508596 48.5226427,55.5637543 C47.9806877,55.8347264 47.2531358,56.0446529 46.8367215,55.7323475 C46.2477217,55.290598 46.2256196,54.7312176 46.4995329,54.0464263 C46.617274,53.7520869 47.607061,53.0788008 47.8904196,52.8662792 C48.4278222,52.4632299 48.5830504,51.9629109 49.028417,51.5175443 C49.3805147,51.1654466 49.7870837,50.5592561 49.7870837,50.0845156 C49.7870837,49.4715885 50.1060554,49.1208369 49.7870837,48.4828882 C49.5734483,48.0556228 48.362792,48.2278168 48.0168631,48.314295 C47.3707342,48.4758272 46.7460316,48.9939933 46.2466458,49.4101427 C45.7670015,49.8098508 45.2579563,50.3759786 44.9822048,50.9274708 C44.7379574,51.4159764 44.1161473,52.0464263 43.7177692,52.4447989 C43.2601676,52.9024005 43.0434018,53.4068826 43.0434018,54.0464263 C43.0434018,54.5485835 42.890066,55.2345588 42.7905093,55.7323475 C42.693856,56.2156304 42.7062154,56.7498919 42.7062154,57.2496756 C42.7062154,57.827606 42.7716836,58.335678 42.8748086,58.8512976 C43.010984,59.5321853 43.3805828,60.0795091 43.3805828,60.790106 C43.3805828,61.2795577 43.549176,61.7889868 43.549176,62.307434 C43.549176,62.9915279 43.443591,63.1716804 42.9591025,63.6561689 C42.3475378,64.267739 42.2627195,63.4655655 41.8632548,63.0660954 C41.5503114,62.753152 40.8499978,61.7931282 40.767407,61.3801795 C40.6472675,60.7794821 41.3938289,60.2232321 41.5260737,59.6942582 C41.6619085,59.1509029 41.3938343,58.4529844 41.5260683,57.924043 C41.6683478,57.35492 41.5260737,56.5755298 41.5260737,55.9852346 C41.5260737,55.4281412 41.6562641,55.0729617 41.5260737,54.5522005 C41.3526687,53.8585856 40.5821886,53.2836019 39.9244464,53.1191717 C39.378285,52.9826287 38.871343,52.8073908 38.3228244,52.6976914 C37.6572751,52.5645815 37.0913095,52.6262381 36.4683099,52.7819853 C35.8371032,52.939787 35.2493112,53.2099211 34.6980947,53.5406466 C34.185638,53.8481239 33.7759764,54.1255839 33.3493599,54.5522005 C33.1356326,54.7659278 33.1807667,55.4908953 33.3704347,55.7955666 C33.6392009,56.1111267 33.4336538,56.728936 33.4336538,57.3339695 C33.4336538,57.8996702 33.4781931,58.5045631 33.3493599,59.0198908 C33.2251114,59.5168739 33.265066,60.0974697 33.265066,60.6215128 C33.265066,61.1834883 33.265066,61.7454585 33.265066,62.307434 C33.265066,62.7934472 33.1790582,63.329255 33.0964728,63.8247621 C33.0111246,64.3368458 33.0121734,64.9249892 33.0121734,65.4263841 C33.0121734,65.8822881 32.8435856,66.3161927 32.8435856,66.7751189 C32.8435856,67.1910846 32.6749924,67.5975562 32.6749924,68.0395599 C32.6749924,68.491782 32.5906931,68.9074449 32.5906931,69.3883002 C32.5906931,69.9741512 32.6317506,70.4797686 32.7592863,70.9899221 C32.9158067,71.6159872 33.0628871,72.018431 33.602247,72.4229509 C33.8588646,72.6154141 34.6935154,72.5072502 35.0352811,72.5072502 C35.8432937,72.5072502 35.7617896,72.286516 36.2997167,71.7485835 C36.7007439,71.3475616 36.7485597,70.6823097 36.9740895,70.2312554 C37.1618599,69.8557093 37.0583834,69.0743242 37.0583834,68.6296334 C37.0583834,68.1537846 36.8897902,67.7121378 36.8897902,67.1965993 C36.8897902,66.8183607 36.8054963,66.3602509 36.8054963,65.9321637 C36.8054963,65.4774978 36.8822805,64.9581585 36.9740895,64.4991295 C37.1437911,63.6506109 37.840585,64.2776276 38.0699373,64.5834234 C38.5595134,65.236197 38.7358434,65.6840614 39.4186721,66.2693447 C39.9079833,66.6887543 40.3873032,67.0693826 40.8517009,67.5337857 C41.261303,67.9433878 41.8045664,68.0523681 42.2847351,68.292447 C42.7357677,68.517966 43.4716295,68.4455342 43.9706564,68.5453395 C44.5753439,68.6662738 45.1040311,68.8216101 45.6565776,68.5453395 C46.2077833,68.269734 46.608072,68.0967236 47.1739079,67.955266 C47.6366025,67.8395923 48.0973832,67.2846724 48.4383434,66.9437122 C48.8883434,66.4937122 49.2985564,66.2142571 49.7870837,65.8478644 C50.3329639,65.438457 50.6336127,65.0084775 51.2201125,65.5949773 C51.5288279,65.9036927 52.1038711,65.8369918 52.4845534,65.9321637 C52.9111646,66.0388138 53.4155601,65.5931012 53.7489944,65.4263841 C54.1915766,65.205093 54.5931985,64.6941555 54.929136,64.2462424 C55.2657764,63.7973886 55.6263462,63.4805093 55.7720967,62.8975076 C55.8815636,62.4596507 56.2575962,61.9265138 56.4464641,61.5487673 C56.6607429,61.1202206 56.6722913,60.6454639 56.7836505,60.2000324 C56.9039414,59.7188689 56.9158196,59.1655709 57.0365376,58.6827044 C57.1487889,58.2337046 57.1208315,57.7380569 57.1208315,57.2496756 C57.1208315,56.6199178 57.1752757,56.0892842 56.6993566,55.7323421 C56.1918469,55.3517139 55.8405061,55.5478698 55.3506163,55.0579747 C54.8412576,54.5486159 54.7605482,54.410651 54.7605482,53.7092398 C54.7605482,53.1116404 55.0996378,52.6114836 55.5192096,52.1919172 C56.0022491,51.7088776 56.0500216,51.4925065 56.5307634,51.0117701 C57.0865917,50.4559418 57.3796713,50.2942636 58.1323854,50.1688095 C58.9693015,50.0293253 59.1500649,50.4462046 59.3125324,51.096064 C59.415333,51.5072881 59.3125324,52.1030006 59.3125324,52.5290982 C59.3125324,53.0665171 59.2673443,53.6370891 59.1439392,54.1307202 C59.0321259,54.577979 59.0822664,55.0517734 58.975346,55.479455 C58.8657926,55.9176633 58.975346,56.5413927 58.975346,56.9967831 C58.975346,57.4672362 59.032699,58.153444 59.1439392,58.5984105 C59.2659278,59.0863646 59.1699394,59.9274276 59.0596399,60.3686256 C58.9384191,60.8535197 58.8067528,61.3634083 58.8067528,61.8859537 C58.8067528,62.4890733 59.1160035,62.883537 59.6497135,63.1503947 C60.1270815,63.3890787 60.8090506,62.9079098 61.1670415,62.7289144 C61.6599805,62.4824449 62.0760975,62.1314176 62.5157764,61.8016598 C62.7657331,61.6141923 62.9413981,60.604947 63.021556,60.2843317 C63.049654,60.1719345 63.0777519,60.0595426 63.1058499,59.9471453 C63.2431228,59.398059 63.2214695,58.8102941 63.358737,58.261224 C63.475692,57.793404 63.4430363,57.2298227 63.4430363,56.743896 C63.4430363,56.1743837 63.4675011,55.6018004 63.358737,55.0579747 C63.2423227,54.4759029 63.3058769,53.8664144 63.1901438,53.2877595 C63.0966641,52.8203503 63.1058499,52.3454585 63.1058499,51.8547308 C63.1058499,51.3641544 63.0966966,50.888949 63.1901438,50.4216966 C63.2729131,50.0078558 63.1901438,49.4973616 63.1901438,49.0729617 C63.1901438,48.4492323 63.272513,48.1495621 63.5273302,47.6399276 C63.7538441,47.1868999 64.3106618,47.0796713 64.7074719,46.8812662 C65.1133488,46.6783304 65.5504217,46.56516 65.9719128,46.4597859 C66.7079693,46.2757731 66.9834667,46.5426308 66.9834667,47.2184472 C66.9834667,47.780931 66.9467669,48.2924957 66.8148735,48.8200746 C66.6687446,49.4045902 66.3396302,49.939149 66.0562122,50.5059905 C65.8793415,50.8597264 65.8876189,51.3431715 65.8876189,51.7704314 C65.8876189,52.2200097 65.8876189,52.669588 65.8876189,53.1191717 C65.8876189,53.6610348 65.6347318,54.0774708 65.6347318,54.6364998 C65.6347318,55.1546172 65.5118512,55.8023735 65.3818393,56.3224157 C65.2735294,56.7556715 65.3219074,57.2365268 65.2132515,57.6711559 C65.1142031,58.0673497 65.2132515,58.6100616 65.2132515,59.0198908 C65.2132515,59.5058013 65.2975454,59.9087857 65.2975454,60.3686256 C65.2975454,61.035332 66.5649708,60.8743999 66.9834667,60.8743999 C67.3774924,60.8743999 68.0083207,60.4786603 68.3322016,60.2843317 C68.7711181,60.0209829 68.8822881,59.4370458 69.0908683,59.0198908 C69.3018653,58.597886 69.3437554,58.1580125 69.3437554,57.6711559 C69.3437554,57.109548 69.4068663,56.5969291 69.5123486,56.0695285 C69.629774,55.4823908 70.1014381,55.1003731 70.6081964,54.9736808 C71.0437554,54.8647924 71.6579963,55.8676417 71.8726319,56.1538279 C72.1844885,56.5696313 72.332088,56.9884353 72.5469994,57.4182634 C72.7957558,57.915771 73.1122567,58.2636894 73.5585532,58.5984105 C73.9307147,58.8775303 74.5907926,58.5880677 74.9072881,58.4298173 C75.3782385,58.1943447 75.6405655,57.5364079 75.9188419,57.1653763 C76.1915225,56.8018058 76.947167,56.8248378 77.3518761,56.743896 C77.8130731,56.6516598 78.3937284,56.743896 78.8692042,56.743896 C79.3758651,56.743896 79.8788603,56.5341047 80.3022329,56.3224157 C80.7856888,56.0806931 81.2076449,55.3327152 81.5666739,54.9736808 C81.9195826,54.6207721 82.1978482,53.9642193 82.4096345,53.5406466 C82.6887814,52.9823583 83.0361538,52.4219939 83.2525952,53.2877595 C83.375027,53.7774924 83.6411765,54.2554498 83.9269626,54.6364998 C84.4006866,55.2681282 84.5112186,55.1030331 85.1071042,54.8050876 C85.5689879,54.5741458 85.9305688,54.2669118 86.3715452,54.0464263 C86.9140625,53.7751676 86.9616187,53.4104942 86.9616187,52.8662792 C86.9616187,52.3035846 86.9185229,51.6899276 87.0459126,51.1803633 C87.1539846,50.7480807 87.2724859,50.358364 87.383099,49.9159224 C87.5788657,49.1328449 88.6808661,49.929255 89.0690203,50.0845156 C89.5879596,50.2920902 90.015944,50.7785521 90.4177552,51.1803633 C90.8013516,51.5639598 91.1912251,52.1150195 91.6821962,52.360505 C92.1303255,52.5845696 92.7144301,52.5768058 93.1152249,52.2762111 C93.5643545,51.9393653 93.9778222,51.7507948 94.3796659,51.3489511 C94.7636138,50.9650032 94.9070015,50.4628676 95.1383326,50.0002163 C95.3704152,49.5360402 95.5061473,49.0959937 95.7284007,48.6514814 C95.8858834,48.3365214 95.8127,47.7625433 95.8127,47.3870404 C95.8127,46.8933229 96.5933661,46.5330774 96.9085478,46.3754866 C97.4163819,46.1215722 97.7001135,45.9365355 98.1729888,46.2911927 C98.6295631,46.6336235 98.9351644,47.0264436 99.2688365,47.4713397 C99.6151925,47.9331477 99.8669226,48.3811851 100.196091,48.8200746 C100.622194,49.3882137 100.906147,49.2326287 101.544826,49.0729617 C102.246497,48.8975454 102.799924,48.5858726 103.146448,47.8928147 C103.381564,47.4225941 103.691506,47.1456315 103.820821,46.6283791 C103.982147,45.9830612 104.151092,45.4779412 104.579482,44.9424578 C104.838397,44.6188095 104.748075,44.0855536 104.748075,43.6780169 C104.748075,42.7849103 105.497443,43.7437176 105.67533,44.0994972 C105.977644,44.7041306 106.620475,45.331596 107.024065,45.8697102 C107.4397,46.4238917 107.577103,46.7219345 108.288506,46.5440798 C108.900438,46.3910954 109.16522,46.2910251 109.300059,45.6168253 C109.382018,45.2070285 109.306277,44.6301525 109.21576,44.2680904 C109.086008,43.7490701 109.131466,43.125692 109.131466,42.5821691 C109.131466,42.1044929 109.131466,41.6268166 109.131466,41.1491349 C109.131466,40.6077801 109.171994,40.0597751 109.300059,39.547513 C109.417842,39.0763733 109.384353,38.5437878 109.384353,38.0301849 C109.384353,37.5525087 109.384353,37.0748324 109.384353,36.5971507 C109.384353,36.0585154 109.347248,35.4811311 109.468653,34.9955288 C109.579763,34.5510813 109.552947,33.9363971 109.552947,33.4782007 C109.552947,32.9131812 109.822454,32.5177065 110.058721,32.0451665 C110.444523,31.2735727 111.112154,32.2695988 111.323162,32.5509462 C111.744247,33.1123865 111.620107,33.7827801 111.744642,34.4054552 C111.845588,34.910186 111.828936,35.4587478 111.828936,36.0070826 C111.828936,36.6956477 111.699221,37.3300389 111.576049,37.945891 C111.470318,38.4745675 111.510013,39.0347318 111.407461,39.547513 C111.284689,40.1613538 111.323162,40.8496269 111.323162,41.4863214 C111.323162,42.0182093 111.3891,42.5746648 111.491755,43.0879433 C111.603633,43.6473454 111.840425,44.1224643 112.081829,44.6052714 C112.422356,45.2863322 113.125168,44.8080666 113.599157,44.6895707 C114.048086,44.5773356 114.503822,43.961024 114.779298,43.593723 C115.082212,43.1898356 115.235873,42.7648735 115.453666,42.329282 C115.783456,41.6697016 115.622567,41.9927173 115.95944,42.666463 C116.243096,43.2337695 116.851941,43.1474751 117.30818,42.9193555 C117.807991,42.6694474 118.261473,42.5204909 118.741209,42.1606888 C119.347686,41.7058337 119.7891,41.3656845 120.342836,40.8119539 C120.947524,40.2072664 121.472913,39.5633488 121.860164,38.7888516 C122.153498,38.2021843 122.326433,37.6376514 122.450232,37.0186311 C122.56337,36.4529412 122.864522,35.9371756 123.1246,35.4170091 C123.368469,34.929282 123.588987,34.4024438 123.714673,33.899681 C123.832888,33.4268328 123.798973,32.8896086 123.798973,32.3823529 C123.798973,31.815133 123.6607,31.4011246 123.293193,31.0336181 C122.720258,30.4606834 121.952822,30.0304282 121.438684,29.51629 C120.923405,29.001011 122.121561,28.3021086 122.197345,27.9989619 C122.332975,27.4564446 122.604736,27.0857969 123.040306,26.6502271 C123.084732,26.6057958 123.096502,26.5378298 123.1246,26.4816339 M116.633813,28.7576233 C116.460651,29.1625811 115.53138,29.2699827 115.116485,29.6848832 C114.724027,30.0773356 114.901319,30.5101481 115.032185,31.0336181 C115.143063,31.4771194 115.029687,32.141955 114.947891,32.5509462 C114.936867,32.60605 114.947891,32.663338 114.947891,32.7195394 C114.947891,33.3094345 114.695004,33.8788873 114.695004,34.4897545 C114.695004,34.9955288 114.695004,35.501303 114.695004,36.0070826 C114.695004,36.4764652 114.779298,37.0224265 114.779298,37.5244107 C114.779298,38.0633596 114.904477,38.6151871 115.032185,39.1260327 C115.192479,39.7671983 115.593107,39.6544983 116.128033,39.547513 C116.709083,39.4313041 117.169891,38.7585478 117.561067,38.3673713 C117.974259,37.9541739 118.328503,37.422567 118.572621,36.9343372 C118.788133,36.5033034 118.966798,35.9476914 119.078395,35.501303 C119.243993,34.8389219 119.101471,34.681423 118.656915,34.2368674 C118.280315,33.8602617 117.718809,33.7861754 117.30818,33.4782007 C116.85718,33.1399492 116.802401,32.5337857 116.802401,31.9608726 C116.802401,31.4010272 116.549513,30.9479563 116.549513,30.3592506 C116.549513,29.735559 116.412505,29.4215344 116.633813,28.7576233 Z M96.4027682,40.1375865 C96.4027682,39.6525249 96.1498811,41.085559 96.1498811,41.5706153 C96.1498811,42.0356239 95.8339208,42.4129812 95.7284007,42.8350562 C95.6039252,43.3329585 97.0223237,43.0310554 97.2457288,42.9193555 C97.7667928,42.6588235 97.9676849,42.9121053 98.3415766,42.4135759 C98.5222481,42.172686 97.6488322,41.2651276 97.4986159,41.064841 C97.1649978,40.6200151 96.9798551,40.2818555 96.4027682,40.1375865 Z M87.2145058,38.7888516 C86.8773248,38.3392679 87.2145058,39.9127974 87.2145058,40.4747675 C87.2145058,41.0659115 86.9834505,41.4020275 87.8045794,41.4020275 C88.4170199,41.4020275 88.7994647,41.1151546 89.1533142,40.6433607 C89.4568177,40.2386894 89.3466587,39.6813095 89.1533142,39.2946259 C88.863484,38.7149708 88.2530763,38.7888516 87.7202801,38.7888516 C87.1956477,38.7888516 86.969934,38.9111321 86.5401384,39.1260327 M69.8495296,48.9886678 C69.2764273,48.9886678 69.6513462,50.1185932 69.5123486,50.6745837 C69.3965182,51.1378947 69.1007894,51.5411008 69.6809364,51.6861375 C70.1363322,51.7999838 70.6724751,51.7965128 71.1139706,51.6861375 C71.757407,51.5252811 71.6835586,50.9456045 71.788338,50.4216966 C71.8148194,50.2893004 70.8439987,49.3930634 70.6924903,49.2415549 C70.2247729,48.7738376 69.8034386,49.1038927 70.0181228,48.5671875 M49.9556715,57.8397437 C49.4467831,57.3308553 48.9134516,58.8666306 48.2697556,59.188484 C47.7589965,59.4438581 47.335013,59.9621107 47.0896086,60.4529196 C46.7991079,61.0339263 46.9543523,61.5135218 47.0896086,62.0545469 C47.2723237,62.7854022 47.7596183,62.307434 48.4383488,62.307434 C48.9988484,62.307434 48.8300876,61.1257407 49.5341912,61.0429931 C50.5109051,60.9282115 50.7138841,61.0007299 51.2201125,61.127287 C51.3325097,61.1553904 51.3606077,60.6777141 51.473005,60.7058121 C52.0049524,60.8387976 52.5328071,60.7538657 52.8217398,60.3686256 C53.2482537,59.7999405 53.2800714,59.3781088 52.8217398,58.7670037 C52.4476806,58.268258 51.655585,58.1122891 51.1358186,58.0083369 C50.7429985,57.929774 50.3793739,57.9244864 49.9556715,57.8397437 Z M36.4683099,56.743896 C36.3902173,56.7282764 36.2997167,57.981542 36.2997167,58.4298173 C36.2997167,59.0261083 36.0295177,59.406742 36.2997167,59.9471453 C36.5267928,60.4012976 37.4906499,60.0444258 37.7327509,59.8628514 C38.2266198,59.492447 38.2139414,58.8056445 38.3228244,58.261224 C38.443045,57.6601265 38.6192561,57.0392139 37.985638,56.9124892 C37.3969269,56.7947448 37.0853839,56.6204801 36.4683099,56.743896 Z" id="path3400" fill="#000000"></path>
                <path d="M10.8423254,86.2053471 C10.8184337,91.000957 11.3052309,96.023551 9.57788441,100.619972 C7.86241079,106.967831 17.2572589,107.252222 20.325625,103.823221 C23.0875303,102.508175 24.6638116,93.055958 27.0271551,99.1869377 C30.3372599,103.905385 36.7919258,100.174978 36.8897902,95.1828774 C38.0614003,90.4568339 38.3115247,85.2792766 37.5641577,80.5153709 C34.5876276,75.1291468 30.6423908,81.6336451 33.0121734,85.4045361 C33.175971,87.7606239 33.2443804,97.2693447 29.6403309,94.2556228 C29.2610651,89.5997135 32.7670664,83.6000487 28.8816696,79.7988538 C23.2642442,78.7241025 26.0184397,93.1595534 21.8429531,86.2896464 C18.9874816,83.7361051 13.3506196,83.2674254 10.8423254,86.2053471 Z M15.6471918,90.1251135 C16.7749708,93.0306282 13.0872162,104.683029 18.9347405,98.891901 C21.8134656,95.634202 20.5514306,88.2912305 15.6471972,90.5465939 M59.649708,94.6770978 C59.1027303,100.140295 53.1485564,105.825141 47.6054823,102.823794 C41.5725433,99.345572 40.0251708,91.7824827 39.8695048,85.3483672 C40.2898767,79.8259083 41.6685208,74.0585802 46.0780526,70.3155547 C49.9125865,66.2238322 56.0028276,69.9370296 59.0596399,70.6527357 C60.2906358,65.8180255 64.8871053,60.8940041 70.3873324,62.8147491 C73.2362619,63.0682472 76.2091155,66.5510975 76.0874297,61.7173605 C80.5386354,59.3166739 83.6882083,53.7993566 89.110505,53.7112295 C91.5015679,55.7497567 95.5171442,50.1123324 97.5808607,54.9136138 C98.9771356,60.0607753 95.8707018,65.4020491 97.4986159,70.6527357 C97.254628,74.0189717 101.827027,83.2557742 103.483634,75.8790874 C104.313646,69.4377541 102.4508,63.0380623 101.713414,56.6596021 C98.3222372,51.2862132 107.304298,46.9943393 107.951319,53.877833 C109.809153,62.7046226 109.253174,71.8898302 107.445994,80.6643112 C106.480617,86.9288008 97.8014057,88.4180688 94.4639598,83.2128406 C90.1174362,83.7278114 87.5330017,91.5449881 82.4096345,93.0754758 C78.9027898,95.380904 77.72879,87.7351373 76.000465,93.0790333 C72.6176525,98.6805796 64.9077584,97.0491944 61.9257029,91.8953287 C59.4442204,87.7120404 59.6651979,82.3073475 58.1199232,78.151995 C54.2031304,78.9162251 48.0216966,73.1624135 47.6381109,80.9476319 C46.8922524,85.7511949 45.385957,93.4310121 50.7143382,95.9415441 C53.826968,95.3591101 58.4157764,86.2842669 59.9026006,94.3399167 L59.6497135,94.6771032 L59.649708,94.6770978 Z M69.0065744,68.7982266 C72.9442582,71.3820826 74.1716263,77.0651763 73.7271464,81.6955125 C74.7950314,87.0625973 68.2991079,93.8171713 65.8418036,86.0294226 C64.1197124,80.8584072 64.1599319,74.721875 66.6631109,69.8138138 C67.0132191,69.2380515 68.3241349,68.0260218 69.0065744,68.7982266 Z M90.6706423,58.5141112 C90.8538062,63.3241079 89.9039792,68.8436581 91.5135975,73.7716912 C93.3650843,76.9868188 92.2239241,78.3888084 88.9867485,78.7448205 C87.2493404,80.9303417 82.5014327,85.2251298 83.0840019,79.4195231 C81.9688311,74.3180526 94.2601265,71.8791198 87.9444961,67.1475238 C85.1690149,67.1529304 79.5145707,71.4797199 81.9881542,65.7635705 C85.3717452,63.9726644 88.0583261,61.2333423 90.6706423,58.5141112 Z M108.878523,51.7704314 C110.454152,56.9612727 110.780666,62.4172145 110.058721,67.7866728 C109.947497,72.3104725 109.427422,77.2287251 111.167707,81.4469074 C116.900822,84.0723346 119.382558,75.0191987 119.246983,70.6527357 C118.99109,64.4267517 126.763581,73.2821907 130.106504,73.4482483 C134.525865,76.6196853 140.540268,76.4143869 145.715928,75.6262003 C152.076368,75.0426525 150.176995,66.4125378 144.282899,67.7023789 C138.802552,67.1235889 132.900973,68.2051741 127.845177,65.4263841 C124.935975,63.4790874 116.909937,63.3249297 122.679466,58.817101 C125.600038,54.8830179 127.20845,47.4010164 121.017198,45.7854163 C116.082699,43.9126135 108.858824,45.3002541 108.878523,51.7704314 Z M114.947891,51.7704314 C114.456996,56.4517139 119.51948,57.3077963 118.73251,52.1509299 C117.933732,50.4407115 116.203001,51.2066933 114.947891,51.7704314 Z" id="path9260" fill="#000000"></path>
                <path d="M16.6587511,125.276552 C16.6587511,125.433299 16.5744518,125.835775 16.5744518,126.119512 C16.5744518,126.385716 16.4670502,126.675557 16.4058586,126.920323 C16.3300151,127.223713 16.3124978,127.504525 16.2372708,127.805434 C16.1791122,128.038051 16.1529715,128.239587 16.1529715,128.479801 C16.1529715,128.752487 16.0918393,129.103666 16.0265279,129.364906 C15.9685316,129.596897 16.0265279,129.923784 16.0265279,130.165717 C16.0265279,130.478649 15.942234,130.769123 15.942234,131.092977 C15.942234,131.354752 15.9000843,131.657585 15.9000843,131.935938 C15.9000843,132.288376 15.9018577,132.617404 15.9843837,132.947486 C16.0629952,133.261938 16.0734029,133.598605 16.1529715,133.91689 C16.222792,134.196172 16.2328806,134.444918 16.4058586,134.675557 C16.5802801,134.908115 16.7293447,135.149016 16.9116382,135.392074 C17.0960402,135.637943 17.4016306,135.805661 17.6702995,135.939998 C17.8768739,136.043285 18.2406391,136.024292 18.4711105,136.024292 C18.7723432,136.024292 19.0327725,135.926027 19.3140712,135.855699 C19.6156337,135.780309 19.8224459,135.558067 20.0305882,135.349924 C20.2517388,135.128774 20.4074265,134.867096 20.6628114,134.675557 C20.8695264,134.520518 21.1217215,134.464814 21.3793231,134.464814 C21.6463268,134.464814 21.8501222,134.607175 22.0536905,134.759851 C22.2331726,134.894458 22.6706293,134.88324 22.8966512,134.928444 C23.1172664,134.972567 23.373311,135.012738 23.6131683,135.012738 C23.8909418,135.012738 24.1086267,134.981082 24.371835,134.928444 C24.6174665,134.879314 24.8338592,134.781726 25.0462024,134.675557 C25.3162554,134.540528 25.5363949,134.430461 25.8048638,134.296226 C26.1189371,134.139187 26.3663527,133.825816 26.689974,133.664003 C26.9681207,133.52493 27.1579131,133.411116 27.490785,133.411116 C27.7347026,133.411116 27.9887197,133.398616 28.2073021,133.453266 C28.5069615,133.528179 28.6635521,133.706153 29.0081131,133.706153 C29.2906877,133.706153 29.5927909,133.728574 29.8510737,133.664003 C30.1798746,133.581801 30.4875249,133.544923 30.7783283,133.326822 C31.0588214,133.116452 31.3813614,132.906158 31.6634386,132.694599 C31.9829563,132.454958 32.3062424,132.262532 32.5906931,131.978082 C32.8851676,131.683607 33.1393955,131.471269 33.3915041,131.135121 C33.5514792,130.921821 33.6699643,130.653514 33.7286905,130.418609 C33.7913149,130.168107 33.8551341,129.9234 33.8551341,129.659943 C33.8551341,129.373648 33.8354001,129.159537 33.7708348,128.901281 C33.6958672,128.601395 33.4805125,128.331537 33.3072102,128.100465 C33.0479596,127.754801 32.7822264,127.403612 32.4642496,127.131066 C32.1845621,126.891333 31.9534472,126.783829 31.7898821,126.456693 C31.6310154,126.138965 32.0533337,126.093155 32.2535067,125.993069 C32.4940506,125.8728 32.8745167,125.93265 33.138617,125.866625 C33.4110921,125.798502 33.6137089,125.6125 33.7708348,125.402995 C33.908351,125.219642 33.8551341,124.905888 33.8551341,124.686478 C33.8551341,124.363781 33.744575,124.043885 33.602247,123.759224 C33.4196237,123.393982 33.1296529,123.072902 32.8857299,122.74767 C32.7000411,122.500087 32.2786311,122.541117 32.0006196,122.494783 C31.7117409,122.446637 31.4337889,122.527633 31.1998086,122.621226 C30.9186451,122.733694 30.6909689,122.917793 30.4411473,123.042707 C30.1787878,123.173886 29.9166879,123.288533 29.6824805,123.464187 C29.429215,123.654136 29.2416555,123.905017 29.0081131,124.138554 C28.8214025,124.32527 28.5157202,124.307147 28.2494518,124.307147 C27.9775335,124.307147 27.7186073,123.866295 27.5750789,123.67493 C27.412341,123.457942 27.1390171,123.523762 26.9007115,123.464187 C26.6557288,123.402941 26.3576427,123.422037 26.0999005,123.422037 C25.8741274,123.422037 25.6115679,123.4607 25.3833834,123.506337 C25.0543555,123.57214 24.7367625,123.61037 24.4139792,123.67493 C24.1211159,123.733499 23.8624059,123.736127 23.6131683,123.885667 C23.3514144,124.042723 23.139082,124.167474 22.8966512,124.349297 C22.6761224,124.514695 22.4702887,124.678941 22.306583,124.897221 C22.1388008,125.120929 22.0526362,125.362954 21.927247,125.613738 C21.8182288,125.83178 21.7325616,126.139603 21.6743599,126.372399 C21.5974838,126.679909 21.6250681,126.991047 21.5479163,127.299654 C21.4908715,127.527849 21.5630439,127.787078 21.5057667,128.016171 C21.4384224,128.285548 21.4636224,128.619377 21.4636224,128.901281 C21.4636224,129.174557 21.5479163,129.43045 21.5479163,129.702092 C21.5479163,129.990436 21.590066,130.252465 21.590066,130.545053 C21.590066,130.792312 21.2964241,131.217096 21.1685856,131.430158 C21.0254304,131.668755 20.7632602,131.780342 20.5363679,131.893788 C20.3024092,132.010764 19.9551071,131.996956 19.6934072,132.062381 C19.3050476,132.159467 19.0969323,131.887386 18.8504466,131.640901 C18.6617463,131.4522 18.5975595,131.14062 18.5975595,130.882234 C18.5975595,130.524784 18.6599405,130.233121 18.724003,129.91283 C18.779934,129.633164 18.8504466,129.320264 18.8504466,129.027725 C18.8504466,128.785997 18.9761711,128.44196 19.0190398,128.184764 C19.0718566,127.867863 19.1240517,127.575384 19.1876276,127.25751 C19.2420177,126.98557 19.2297772,126.700995 19.2297772,126.414549 C19.2297772,126.139084 19.1976622,125.916787 19.1454833,125.655882 C19.0900065,125.37852 18.8626492,125.06443 18.6397037,124.897221 C18.4120545,124.726481 18.2107083,124.686478 17.9231866,124.686478 C17.6752574,124.686478 17.4967701,124.878612 17.2909689,124.981515 C17.0043609,125.124816 17.0074968,125.346302 16.6587511,125.276552 Z M24.7933153,127.299654 C24.5532364,127.419691 24.6878114,126.688641 24.8776092,126.498843 C25.1175422,126.25891 25.4121734,126.323054 25.7205699,126.245956 C25.9430774,126.190328 26.3888927,126.318204 26.6056747,126.372399 C26.9448021,126.45718 27.2118004,126.390463 27.5329347,126.583137 C27.7734245,126.727438 27.8279715,127.052774 27.8279715,127.341804 C27.8279715,127.562505 27.8701157,127.821313 27.8701157,128.058321 C27.8701157,128.319215 27.9313506,128.491193 28.0808586,128.690538 C28.2272253,128.8857 28.6745491,128.975946 28.8816696,129.027725 C29.1778579,129.101773 29.4302314,129.249162 29.7246302,129.322762 C29.9320372,129.374611 30.0179909,129.821832 30.0618112,129.997129 C30.1196021,130.228276 30.1168609,130.493447 30.0618112,130.713646 C29.9888873,131.005358 29.5939263,130.999205 29.3874438,131.050827 C29.1106272,131.120031 28.6474513,130.485646 28.5023389,130.292166 C28.3487219,130.087343 27.8931531,130.173367 27.7015279,130.250016 C27.4319291,130.357856 27.1820642,130.523702 26.9850108,130.671497 C26.7211592,130.869383 26.4589511,131.029596 26.1420502,131.092977 C25.8644064,131.148502 25.6064803,131.25539 25.3412392,131.388014 C25.1409526,131.488154 24.8205644,131.514457 24.5825724,131.514457 C24.2064317,131.514457 24.2157093,131.197454 24.1610921,130.924384 C24.1045664,130.641744 24.4808423,130.469474 24.6668718,130.37646 C24.9026957,130.258548 25.266596,130.268674 25.509827,130.207867 C25.7970891,130.136051 26.0952617,130.131369 26.3949373,130.081423 C26.6345026,130.041495 27.0092269,129.535283 27.1114544,129.364906 C27.2503006,129.133499 27.2378979,128.883878 27.2378979,128.606245 C27.2378979,128.183299 27.1788852,127.903768 26.8585673,127.63684 C26.627447,127.444237 26.2601892,127.510397 25.973457,127.510397 C25.6716133,127.510397 25.4319074,127.543599 25.1304963,127.468247 C24.9677098,127.427552 24.9965376,127.421588 24.7933153,127.299654 Z M34.9088322,130.629347 C34.6542042,130.56569 35.0021983,130.105439 35.119575,129.870686 C35.2103514,129.689127 35.2404498,129.387181 35.2881628,129.196318 C35.3547232,128.930088 35.4250087,128.62759 35.5410554,128.395502 C35.6669042,128.143804 35.7561992,127.88092 35.8782364,127.63684 C36.0135251,127.366268 36.0808964,127.062933 36.2154228,126.79388 C36.3383304,126.548059 36.4131358,126.27852 36.5104596,126.035213 C36.6132764,125.778163 36.6533553,125.547929 36.721197,125.276552 C36.7838754,125.025849 36.8476406,124.775492 36.8476406,124.517885 C36.8476406,124.242674 37.0482623,123.894101 37.1005277,123.63278 C37.1544637,123.3631 37.1720621,123.106515 37.2269712,122.831969 C37.287141,122.531142 37.3402228,122.226135 37.4798638,121.946859 C37.6266685,121.653244 37.6918447,121.312154 37.8170448,121.061754 C37.9603028,120.775238 38.0087078,120.511165 38.1963754,120.260938 C38.4096161,119.976622 38.6262954,119.795204 38.9550422,119.713014 C39.331875,119.618809 39.697965,119.590506 40.0508899,119.502276 C40.3549449,119.42626 40.7495275,119.439695 41.0624438,119.502276 C41.3707807,119.563944 41.657021,119.556088 41.9475487,119.62872 C42.1902336,119.689392 42.4495167,119.963046 42.6219161,120.09235 C42.821197,120.241809 43.0542582,120.479823 43.2119896,120.598124 C43.3828212,120.726249 43.4696075,121.16496 43.5070264,121.314641 C43.5761873,121.591285 43.5756196,121.967517 43.5070264,122.241896 C43.4381953,122.51722 43.3646064,122.811575 43.2962835,123.084856 C43.22496,123.37015 43.0851027,123.633661 42.9591025,123.885667 C42.8534418,124.096983 42.8116274,124.349211 42.7062154,124.560035 C42.6075941,124.757272 42.5797718,125.047383 42.5797718,125.276552 C42.5797718,125.611803 42.7601892,125.711527 43.0433964,125.782326 C43.0706564,125.789144 43.0995923,125.782326 43.1276957,125.782326 C43.5144064,125.782326 43.6796367,125.747529 43.8863571,125.402995 C44.0589619,125.115322 44.2047935,124.892571 44.349987,124.602184 C44.4768901,124.348373 44.4597567,123.969042 44.5185748,123.67493 C44.5825562,123.355044 44.5185748,122.947172 44.5185748,122.621226 C44.5185748,122.351644 44.4764306,122.120945 44.4764306,121.862565 C44.4764306,121.521313 44.5185748,121.178795 44.5185748,120.851011 C44.5185748,120.604715 44.5875357,120.32228 44.6450238,120.09235 C44.6982461,119.87945 44.687168,119.646578 44.687168,119.417977 C44.687168,119.196491 44.8301881,118.937781 44.9822048,118.785759 C45.2329077,118.535062 45.4056531,118.287624 45.7408715,118.153541 C45.9883359,118.054552 46.2305396,117.88763 46.4573832,117.774205 C46.7035143,117.651146 46.9438095,117.59422 47.1739025,117.479174 C47.3786603,117.376795 47.7748594,117.437024 48.0168631,117.437024 C48.2862349,117.437024 48.6144193,117.507456 48.8598237,117.605617 C49.1880569,117.736911 49.3613268,117.909007 49.5763408,118.195686 C49.7456045,118.421378 49.744934,118.720464 49.744934,118.996502 C49.744934,119.267934 49.6361213,119.52679 49.4498973,119.713014 C49.2344777,119.928433 49.0750487,120.106515 48.8176741,120.260938 C48.5651168,120.412473 48.29016,120.529801 48.0168631,120.598124 C47.694934,120.678606 47.4819096,120.838041 47.2582018,121.061754 C47.0642842,121.255671 47.4726698,121.486965 47.6375324,121.651822 C47.774508,121.788798 48.0803633,121.778266 48.2697502,121.778266 C48.6016003,121.778266 48.700492,121.941744 48.7755298,122.241896 C48.83125,122.464787 48.8176741,122.712257 48.8176741,122.958413 C48.8176741,123.200697 48.5562824,123.472691 48.3961938,123.63278 C48.1548443,123.87413 47.9497783,124.020275 47.6796821,124.222854 C47.4828503,124.370475 47.2128568,124.446524 47.0053093,124.602184 C46.7678363,124.780288 46.7524221,124.960348 46.7524221,125.234402 C46.7524221,125.490328 46.9378406,125.679039 47.1317582,125.824476 C47.304974,125.95439 47.7643653,125.866625 47.9747135,125.866625 C48.1900195,125.866625 48.5237727,125.57074 48.6912305,125.445145 C48.9552552,125.247129 49.177606,124.979287 49.365598,124.728628 C49.5298335,124.509651 49.6606347,124.214019 49.6606347,123.927817 C49.6606347,123.668107 49.7272167,123.324308 49.7870783,123.084856 C49.8563852,122.807634 49.8244539,122.481277 49.8713776,122.199746 C49.9238051,121.885164 49.9789468,121.57759 50.0399654,121.272491 C50.0882515,121.031061 50.2346453,120.830969 50.2928579,120.598124 C50.3692204,120.292658 50.4693663,120.018528 50.545745,119.713014 C50.6167604,119.428958 50.6038711,119.101173 50.6721886,118.827909 C50.732407,118.587035 50.7083099,118.310099 50.7564825,118.069242 C50.8037089,117.833104 50.8407818,117.552087 50.8407818,117.310581 C50.8407818,117.063273 51.0798335,116.775854 51.1358131,116.551914 C51.2005082,116.293134 51.5090074,116.17719 51.683737,116.04614 C51.9156412,115.87221 52.2530763,115.919696 52.5266977,115.919696 C52.6853698,115.919696 53.0879217,116.263527 53.2432147,116.341176 C53.5683175,116.503725 53.6524708,116.948946 53.7911386,117.226281 C53.9118674,117.467739 53.8079747,117.87547 53.7489944,118.111392 C53.6827747,118.376254 53.6754596,118.689782 53.6225454,118.954352 C53.5590668,119.271767 53.4455071,119.493934 53.3696583,119.797313 C53.296729,120.08903 53.146902,120.351162 53.0746215,120.640274 C53.0059959,120.914787 52.8894247,121.128184 52.8217344,121.398935 C52.7559418,121.662122 52.7374405,121.954309 52.7374405,122.241896 C52.7374405,122.497486 52.6531412,122.732612 52.6531412,123.000557 C52.6531412,123.293193 52.6990917,123.513933 52.8217344,123.759224 C52.9560229,124.027795 53.1078612,124.213938 53.3275141,124.433591 C53.5632245,124.669307 53.9884786,124.226671 54.0861754,124.09641 C54.2726752,123.84774 54.3219183,123.676357 54.3812122,123.379893 C54.4326287,123.122794 54.446583,122.865522 54.5076557,122.621226 C54.5822394,122.322891 54.5770815,121.979066 54.6340993,121.693972 C54.6903547,121.412705 54.6616782,121.134597 54.7183932,120.851011 C54.7712478,120.586759 54.7792279,120.312651 54.8448421,120.0502 C54.9133813,119.776043 54.903763,119.519469 54.9712857,119.249389 C55.0540657,118.918258 55.1853698,118.645934 55.2663224,118.322129 C55.3421334,118.018869 55.4470696,117.725568 55.5192096,117.437024 C55.5969291,117.126141 55.6617593,116.869912 55.7720967,116.594064 C55.8857807,116.309856 55.9963289,116.03431 56.0671334,115.751103 C56.1204693,115.537749 56.3203936,115.286981 56.4464641,115.118885 C56.683683,114.802595 56.8673875,114.571518 57.1629812,114.275925 C57.4141382,114.024762 57.5529196,113.978233 57.8794983,113.896594 C58.181396,113.821118 58.5479131,113.935764 58.8067528,114.065182 C59.1443177,114.233964 59.4384624,114.51789 59.7340074,114.739549 C59.9928255,114.933661 60.0890409,115.311019 60.1976373,115.58251 C60.3111267,115.866236 60.3967128,116.149259 60.5348183,116.42547 C60.6529141,116.661662 60.7673767,116.934224 60.8298551,117.184137 C60.8985673,117.458986 61.0292496,117.675319 61.0827422,117.942798 C61.1907061,118.482618 61.5621269,117.869139 61.6306661,117.732061 C61.7320718,117.52925 61.7149654,117.244518 61.7149654,117.015544 C61.7149654,116.733299 61.7992593,116.460954 61.7992593,116.172583 C61.7992593,115.919031 61.841409,115.675643 61.841409,115.413922 C61.841409,115.078303 61.7992593,114.776108 61.7992593,114.444518 C61.7992593,114.238197 62.0448043,113.911278 62.1364457,113.728001 C62.2817528,113.437381 62.4921929,113.191869 62.7686635,113.053633 C63.075811,112.900059 63.4202909,112.8643 63.7380677,112.800741 C64.0661062,112.735137 64.2938149,112.911981 64.5388787,113.095777 C64.841955,113.323086 65.0296821,113.384899 65.2553958,113.685851 C65.433737,113.923638 65.4612943,114.186786 65.5925822,114.318069 C65.7314284,114.45692 65.7642031,114.330682 65.5925822,114.570961 C65.5172956,114.676362 65.5082829,114.820761 65.5082829,114.950292 C65.5082829,115.326022 65.4573259,115.473692 65.2975454,115.793253 C65.1569853,116.074373 64.9555634,116.233926 64.8760651,116.551914 C64.8163441,116.790793 64.7496215,116.999481 64.7496215,117.268431 C64.7496215,117.565998 64.8339154,117.817712 64.8339154,118.111392 C64.8339154,118.443701 64.9706315,118.690484 65.1289522,118.954352 C65.2899438,119.222675 65.6075368,119.367674 65.8033196,119.62872 C65.9834234,119.868853 66.3295145,120.039338 66.6041306,120.176644 C66.8440149,120.296583 67.1777141,120.260938 67.4470913,120.260938 C67.5874243,120.260938 67.7191555,119.574978 67.742128,119.460127 C67.7696907,119.322302 67.4475779,118.914154 67.4049416,118.743609 C67.335386,118.465387 67.1661603,118.09275 67.0256109,117.858505 C66.8440095,117.555828 66.6069258,117.448205 66.5198367,117.099838 C66.4459126,116.804136 66.3933932,116.529742 66.3933932,116.214733 C66.3933932,115.921583 66.3443772,115.764836 66.4776871,115.498216 C66.645426,115.162743 66.7922253,114.862695 67.0256109,114.570961 C67.2413116,114.30133 67.4647167,114.029931 67.6156845,113.728001 C67.7535575,113.452249 68.0636624,113.214987 68.2479022,112.969334 C68.4822016,112.656937 68.8316879,112.487776 69.1330125,112.337116 C69.3552282,112.226006 69.5644193,112.187116 69.80738,112.126373 C70.0139652,112.07473 70.3381758,112.122091 70.5238971,112.168523 C70.7966858,112.236721 71.0981455,112.288641 71.324708,112.379266 C71.7761192,112.559829 72.1167982,112.783299 72.3362619,113.222221 C72.471675,113.493058 72.5048497,113.754228 72.5048497,114.065182 C72.5048497,114.342274 72.5469994,114.657915 72.5469994,114.950292 C72.5469994,115.265739 72.505785,115.454201 72.3784061,115.708953 C72.2235564,116.018658 72.0022383,116.275584 71.7461884,116.46762 C71.5547416,116.611208 71.2652195,116.551914 71.0296713,116.551914 C70.6990214,116.551914 70.4223832,116.323962 70.1867106,116.088289 C69.9351373,115.836711 69.5427876,115.973546 69.34375,116.172583 C69.1679823,116.348351 69.3707937,116.714419 69.4701936,116.846951 C69.6728644,117.117177 69.8412522,117.367593 70.1024167,117.563468 C70.3367809,117.739241 70.4850184,118.072513 70.6924903,118.279985 C70.866409,118.453904 70.848989,118.82168 70.9032277,119.038646 C70.9651654,119.286402 70.9875216,119.485267 70.9875216,119.755163 C70.9875216,120.013722 71.0040982,120.278947 70.9453774,120.51383 C70.867274,120.826238 70.7269301,121.092577 70.6503406,121.398935 C70.5956801,121.617571 70.2468642,121.964998 70.1024167,122.157602 C69.3569204,123.15159 68.6630298,123.301946 68.4586451,123.506337 C68.320426,123.644556 67.7662089,123.548486 67.5735348,123.548486 C67.2977184,123.548486 67.0482915,123.63278 66.7727238,123.63278 C66.4245296,123.63278 66.1711992,123.629915 65.8454693,123.548486 C65.6167171,123.491295 65.3704314,123.504433 65.1289522,123.464187 C64.7519356,123.401352 64.5510272,123.43704 64.2438419,123.59063 C63.9874405,123.718831 63.9510543,124.211613 63.9066609,124.433591 C63.8488592,124.722589 63.7085424,124.982585 63.4851806,125.150108 C63.2727941,125.309397 62.941955,125.276552 62.6843696,125.276552 C62.372886,125.276552 62.070691,125.192258 61.7571096,125.192258 C61.470891,125.192258 61.105904,125.16317 60.8298551,125.107958 C60.467247,125.03544 60.1170577,125.036986 59.8183013,124.812922 C59.517128,124.58704 59.369907,124.195934 59.1017896,123.927817 C58.8161927,123.64222 58.7280331,123.337743 58.3009732,123.337743 C57.9900465,123.337743 57.7900303,123.466771 57.5423119,123.59063 C57.285067,123.719253 57.2218858,123.885916 57.1208315,124.138554 C57.0141706,124.405207 56.9357861,124.583705 56.8679444,124.855071 C56.7952584,125.145821 56.9836289,125.287305 56.6993512,125.571588 C56.4821096,125.78883 56.2722426,125.911586 56.0249838,126.035213 C55.791928,126.151741 55.5908953,126.312332 55.3506163,126.372399 C55.1272221,126.428249 54.8946799,126.486386 54.6762489,126.540993 C54.3871486,126.613268 54.1800335,126.700022 53.9597318,126.920323 C53.8894842,126.990571 53.8192366,127.060819 53.7489944,127.131066 C53.4917874,127.388268 53.324854,127.490652 53.0324773,127.63684 C52.7564446,127.774854 52.4532872,127.884288 52.1895167,128.016171 C51.9329531,128.144453 51.6565528,128.131196 51.3887057,128.184764 C51.0360348,128.255298 50.759083,128.145215 50.5035954,127.889728 C50.3000054,127.686138 49.9494539,127.713949 49.7027844,127.763284 C49.2997297,127.843896 49.0614079,127.98318 48.7755298,128.269058 C48.570399,128.474189 48.4513625,128.701281 48.2697502,128.943426 C48.0290603,129.264349 47.7223562,129.364906 47.3424957,129.364906 C46.995199,129.364906 46.6798497,129.322762 46.3309397,129.322762 C46.0066696,129.322762 45.7306585,129.335851 45.4458348,129.407056 C45.2146118,129.464863 45.0197264,129.533499 44.7714673,129.533499 C44.4975378,129.533499 44.2207699,129.525622 43.970651,129.575649 C43.7378979,129.622199 43.345332,129.545761 43.1276957,129.491349 C42.7645577,129.400568 42.5044745,129.419085 42.1582915,129.280612 C42.0999546,129.257277 42.0458942,129.224416 41.9896983,129.196318 C41.7299232,129.066431 41.4720999,128.887787 41.1888873,128.816982 C40.8973648,128.744101 40.6405093,128.513338 40.3459267,128.395502 C40.1170988,128.303974 39.8638981,128.285532 39.6294096,128.226914 C39.3661797,128.161105 38.979042,128.25106 38.786449,128.395502 C38.5382439,128.581655 38.486303,128.911505 38.3649686,129.154168 C38.3409148,129.202271 38.322819,129.06656 38.322819,129.575649 C38.322819,129.907542 38.1120815,130.105909 38.1120815,130.418609 C38.1120815,130.527622 37.7967647,130.944664 37.6906012,131.050827 C37.4633953,131.278033 37.2905039,131.419469 37.0162338,131.556601 C36.7727379,131.678352 36.4223594,131.640901 36.1311235,131.640901 C35.8783013,131.640901 35.5270091,131.535532 35.3303125,131.388014 C35.0886927,131.206796 34.8477487,130.934759 34.9088322,130.629347 Z M74.331769,113.061619 C74.4607645,113.168328 74.331769,113.599897 74.331769,113.891863 C74.331769,114.135619 74.2327044,114.443799 74.1760975,114.670215 C74.1091425,114.938041 73.9850454,115.259883 73.8647599,115.50046 C73.7707721,115.688435 73.7595318,116.077027 73.7090885,116.278817 C73.640825,116.551865 73.5015247,116.76928 73.5015247,117.057169 C73.5015247,117.294777 73.3946367,117.643501 73.3458532,117.887413 C73.2886894,118.173232 73.242074,118.482964 73.242074,118.76955 C73.242074,119.089419 73.2605266,119.325362 73.3977455,119.599795 C73.5451827,119.894664 73.5604185,120.288376 73.7090885,120.58571 C73.8792225,120.925984 74.2243188,121.220448 74.5912197,121.31217 C74.869388,121.381715 75.1032548,121.518588 75.4214641,121.571626 C75.7278709,121.622691 76.0715506,121.53883 76.3554931,121.467842 C76.7336505,121.373302 77.0995999,121.433077 77.4451881,121.260283 C77.8283142,121.068718 78.2027249,120.881515 78.5867701,120.68949 C78.907553,120.529098 79.1626784,120.284851 79.3651276,120.014917 C79.5950205,119.708391 79.8262273,119.455947 79.9878082,119.13278 C80.143231,118.821934 80.2530547,118.550405 80.4029304,118.250649 C80.5645923,117.92733 80.5576881,117.577903 80.7142734,117.264733 C80.8484916,116.996291 81.1077747,116.71556 81.3369593,116.486375 C81.6634678,116.159867 81.8984862,116.812549 81.9596399,117.057169 C82.0441987,117.39541 82.2771302,117.744042 82.4266544,118.043085 C82.5732915,118.336359 82.7396572,118.563652 82.9974481,118.821437 C83.2533737,119.077368 83.6119215,119.208564 83.9314717,119.288452 C84.3627325,119.396269 84.7854239,119.288452 85.2287251,119.288452 C85.4880731,119.288452 85.963776,119.15658 86.2665333,119.080893 C86.5595859,119.007629 86.8580071,118.741063 87.0967777,118.561986 C87.3938257,118.339198 87.7633218,118.230726 88.0826936,117.991193 C88.3391328,117.798865 88.5569204,117.324303 88.7572664,117.057169 C88.9645437,116.780801 89.0630515,116.445604 89.2242809,116.123146 C89.4058013,115.760099 89.4424038,115.40632 89.5356185,115.03345 C89.5529196,114.964263 89.5702152,114.895075 89.5875108,114.825887 C89.6690365,114.499784 89.6764165,114.173794 89.7431823,113.839971 C89.8194312,113.458726 89.8469615,113.145404 89.8469615,112.750276 C89.8469615,112.490825 89.8469615,112.231374 89.8469615,111.971924 C89.8469615,111.564479 89.7431823,111.152498 89.7431823,110.726557 C89.7431823,110.377909 89.6394031,110.051746 89.6394031,109.688749 C89.6394031,109.301119 89.4186851,108.961565 89.3280601,108.599054 C89.2454098,108.268447 89.0101049,107.95844 88.7572664,107.768809 C88.5543144,107.616598 88.0715074,107.613138 87.8232429,107.613138 C87.454947,107.613138 87.1941393,107.720129 86.8892139,107.872589 C86.5920361,108.021183 86.3935932,108.402163 86.3184256,108.702833 C86.2184148,109.10286 85.848178,109.090398 85.5919604,108.962289 C85.3106185,108.821615 85.203417,108.411429 84.9692744,108.235824 C84.7279033,108.054796 84.2629487,108.23079 84.0352509,108.287711 C83.7351373,108.362743 83.4816771,108.783661 83.3087857,109.014176 C83.0525357,109.355845 82.9760435,109.627779 82.7898843,110.000092 C82.6610781,110.25771 82.652487,110.601563 82.5823259,110.882229 C82.5114025,111.165912 82.5823259,111.571643 82.5823259,111.868144 C82.5823259,112.233991 82.415652,112.51283 82.2709829,112.802168 C82.0982699,113.147589 81.9288008,113.186083 81.59641,113.269183 C81.2450692,113.357018 81.0847859,112.920507 80.973724,112.698389 C80.8284548,112.40785 80.8301362,111.980455 80.7661657,111.660581 C80.7003676,111.331607 80.547659,111.067901 80.4029304,110.778449 C80.2271951,110.426973 80.0021464,110.140571 79.6764706,109.896313 C79.5683932,109.815257 79.4689068,109.723346 79.3651276,109.636862 C79.1344128,109.444599 78.6637381,109.396653 78.3792117,109.325519 C78.08125,109.251027 77.7046064,109.273627 77.3932958,109.273627 C76.9842723,109.273627 76.672713,109.337019 76.3036008,109.429298 C76.009229,109.502893 75.7343966,109.7139 75.4733564,109.84442 C75.1685716,109.99681 75.0252054,110.495426 74.954455,110.778449 C74.8635489,111.142063 74.7203233,111.430196 74.643112,111.816252 C74.5534494,112.264565 74.5321259,112.610824 74.331769,113.061619 Z M77.7046388,112.646497 C77.6868999,112.735186 77.3053147,113.138289 77.2376244,113.476741 C77.1806066,113.761824 77.2376244,114.120058 77.2376244,114.410764 C77.2376244,114.734251 77.0523519,115.099973 76.9781737,115.39668 C76.8999351,115.709635 76.7465019,115.960143 76.6668307,116.278817 C76.5969994,116.558159 76.5980158,116.885689 76.6668307,117.160948 C76.7562122,117.518474 76.9935391,117.696664 77.3414035,117.783634 C77.6318123,117.856234 78.0368728,117.399508 78.2235402,117.212841 C78.4410792,116.995302 78.555066,116.549789 78.6905547,116.278817 C78.8231618,116.013598 78.8462262,115.643609 78.8462262,115.344793 C78.8462262,115.00698 78.9854833,114.760245 78.8981131,114.410764 C78.8099859,114.05825 78.6918685,113.63504 78.5348832,113.321069 C78.3645761,112.980455 78.1218209,112.729936 77.7046388,112.646497 Z M86.214641,110.882229 C86.0751946,110.603325 86.2665333,111.504428 86.2665333,111.816252 C86.2665333,112.096324 86.214641,112.349697 86.214641,112.646497 C86.214641,112.95784 86.214641,113.269183 86.214641,113.58052 C86.214641,113.897426 86.1814014,114.180509 86.1108618,114.462657 C86.0215182,114.820026 86.089787,115.026957 85.8514111,115.344793 C85.6158088,115.658932 85.4114241,115.728347 85.073059,115.863695 C84.6912576,116.016414 84.6750865,115.620961 84.6060446,115.344793 C84.500984,114.924546 84.3465939,114.657396 84.3465939,114.203206 C84.3465939,113.805612 84.4175443,113.558807 84.5541522,113.21729 C84.672021,112.922621 84.7814554,112.658905 84.9173875,112.387046 C85.0470642,112.127692 85.1628244,111.820415 85.2287251,111.556801 C85.308737,111.236776 85.315917,110.968361 85.5919604,110.830336 C85.7145923,110.76902 86.108537,110.861008 86.214641,110.882229 Z M99.6023356,115.448573 C99.6736484,115.163306 99.6023356,116.036662 99.6023356,116.330704 C99.6023356,116.609153 99.5556066,116.979466 99.498551,117.264733 C99.4316339,117.59934 99.4424146,117.84402 99.2909926,118.146864 C99.1582558,118.412343 99.0639544,118.674443 98.8758705,118.925222 C98.6665063,119.204374 98.3137165,119.346832 98.0456261,119.547902 C97.7515138,119.76849 97.3040712,119.87566 96.955931,120.014917 C96.7148951,120.111332 96.320199,120.121307 96.0737943,120.170588 C95.7552444,120.234299 95.4256218,120.222475 95.0878785,120.222475 C94.7172956,120.222475 94.4069258,120.178174 94.0500757,120.118696 C93.6893328,120.058575 93.4140787,119.778612 93.1160521,119.599795 C92.7454314,119.377422 92.4319907,118.915733 92.1301362,118.613879 C91.9323259,118.416074 91.7395383,118.075789 91.5593426,117.835527 C91.3649221,117.576298 91.3335316,117.176346 91.1961073,116.901498 C91.0113268,116.531937 90.8088992,116.178968 90.625319,115.811803 C90.471356,115.503877 90.4997837,115.154006 90.4177552,114.825887 C90.3483023,114.548081 90.4599643,114.138154 90.5215344,113.891863 C90.6076233,113.547513 90.6105482,113.135473 90.6772059,112.802168 C90.747859,112.448919 90.7485132,112.101817 90.8328774,111.76436 C90.9037576,111.48085 90.9189284,111.160716 90.9885489,110.882229 C91.0813527,110.510997 91.1082072,110.142009 91.2479996,109.792534 C91.3712532,109.484391 91.4670848,109.198692 91.6112295,108.910397 C91.7941393,108.544588 91.9196529,108.171502 92.1301362,107.820702 C92.3628622,107.432818 92.6960424,107.047232 93.0122675,106.731007 C93.272221,106.471053 93.4965236,106.142971 93.7387327,105.900762 C94.0335099,105.605985 94.3977779,105.429585 94.7765409,105.278076 C95.1668415,105.121956 95.5293739,105.012035 95.9181228,104.914846 C96.268404,104.827276 96.5899438,104.768285 96.955931,104.707283 C97.238311,104.660224 97.6363538,104.695777 97.8899546,104.759175 C97.9591425,104.776471 98.0283304,104.793766 98.0975184,104.811067 C98.5390625,104.921453 98.643258,105.077676 98.9796497,105.329969 C99.1108997,105.428406 99.6350995,105.308802 99.7580071,105.278076 C100.023221,105.211776 100.289576,104.586613 100.43258,104.395945 C100.65559,104.098594 100.86197,103.840393 101.15904,103.617588 C101.423654,103.419128 101.680747,103.291171 101.937397,103.098686 C102.210727,102.893685 102.633202,102.891122 102.9752,102.891122 C103.409607,102.891122 103.691831,102.961581 104.013008,103.202465 C104.246324,103.377455 104.657083,103.461916 104.947032,103.461916 C105.326827,103.461916 105.756347,103.027671 106.036727,102.787343 C106.33418,102.532385 106.660191,102.190025 106.97075,101.957099 C107.35392,101.669729 107.496237,101.414809 107.956666,101.230634 C108.251914,101.112538 108.519442,101.086949 108.838803,101.023075 C109.117544,100.967328 109.428909,101.06682 109.669047,101.126854 C110.029325,101.216923 110.110462,101.438889 110.239841,101.697648 C110.349092,101.916155 110.893842,101.811716 111.018193,101.74954 C111.326427,101.595421 111.305066,101.279574 111.433315,101.023075 C111.592014,100.705677 111.882321,100.711732 112.211673,100.711732 C112.504174,100.711732 112.985635,101.066182 113.093804,101.282526 C113.203774,101.50246 113.093804,102.070664 113.093804,102.320334 C113.093804,102.663527 113.145696,102.9516 113.145696,103.306245 C113.145696,103.671918 113.125887,104.056288 112.990025,104.395945 C112.892042,104.640895 112.782466,105.171145 112.782466,105.433748 C112.782466,105.712116 112.643366,106.197697 112.574903,106.471556 C112.496588,106.784813 112.52301,107.243518 112.52301,107.561251 C112.52301,107.843826 112.508256,108.124903 112.574903,108.391495 C112.667155,108.760494 113.070464,109.014176 113.405147,109.014176 C113.714884,109.014176 114.125324,108.709121 114.339171,108.495275 C114.425654,108.408791 114.512138,108.322308 114.598621,108.235824 C114.836878,107.997567 114.783299,107.549011 114.858077,107.249908 C114.950633,106.879688 115.131445,106.571561 115.221307,106.2121 C115.302984,105.885386 115.301654,105.495696 115.221307,105.174297 C115.130634,104.811613 114.93225,104.559261 114.858077,104.188381 C114.769096,103.743485 114.605753,103.282877 114.494842,102.839236 C114.417517,102.52992 114.260202,102.263906 114.183499,101.957099 C114.107591,101.65346 114.106812,101.277947 114.183499,100.971183 C114.301471,100.499297 114.589046,100.40997 114.909964,100.089052 C115.101141,99.8978752 115.593507,99.9897545 115.792101,100.089052 C116.140603,100.2633 116.358629,100.495648 116.518566,100.815511 C116.705369,101.189122 116.726773,101.56955 116.881796,101.957099 C117.019691,102.301844 117.001135,102.745804 117.089354,103.098686 C117.181964,103.469118 117.157986,103.657202 117.400697,103.980823 C117.639825,104.299654 118.033348,103.967534 118.179055,103.773259 C118.365371,103.524832 118.195172,102.851817 118.127163,102.579785 C118.04401,102.247162 118.051973,101.915793 117.971491,101.593869 C117.954196,101.524681 117.9369,101.455493 117.919599,101.386305 C117.832196,101.036689 117.867712,100.612797 117.867712,100.244723 C117.867712,99.8784602 117.935024,99.5084505 118.023383,99.1550227 C118.106547,98.8223616 118.581153,98.5647978 118.853628,98.4285629 C119.201633,98.2545577 119.52154,98.1911981 119.891431,98.1172199 C120.282504,98.039003 120.801108,98.0203233 121.188689,98.1172199 C121.521875,98.200519 121.891766,98.1373162 122.226492,98.2209991 C122.588327,98.3114565 122.960256,98.615652 123.2643,98.8436851 C123.607953,99.1014219 123.8393,99.4892788 124.094545,99.829601 C124.330736,100.144523 124.27886,100.54362 124.353995,100.919296 C124.421891,101.258786 124.273481,101.708375 124.198324,102.008991 C124.101362,102.396848 124.005034,102.655023 123.835094,102.994907 C123.661083,103.342928 123.494193,103.622405 123.2643,103.928931 C123.002352,104.27819 122.792517,104.45738 122.589728,104.862954 C122.441939,105.158537 122.410164,105.390079 122.485943,105.693199 C122.573697,106.044204 122.911527,106.373005 123.212408,106.523443 C123.523675,106.679077 123.901087,106.713068 124.250216,106.782894 C124.634272,106.859705 124.991512,106.90299 125.339911,107.042344 C125.740755,107.202687 126.147097,107.212435 126.533386,107.40558 C126.937732,107.607753 127.354596,107.712403 127.778752,107.924481 C128.138895,108.104552 128.359959,108.246237 128.660889,108.547167 C128.983894,108.870172 129.283569,109.231369 129.283569,109.688749 C129.283569,110.173465 129.46011,110.446237 129.076011,110.830336 C128.765582,111.140766 128.690425,111.412305 128.297659,111.608694 C127.974811,111.770112 127.414738,111.63444 127.104179,111.556801 C126.685775,111.4522 126.289776,111.340225 125.910705,111.245458 C125.527465,111.149649 125.081001,111.116003 124.717225,110.934115 C124.273389,110.712197 123.821183,110.693658 123.36808,110.467106 C122.967544,110.266836 122.686511,110.044988 122.382164,109.740641 C122.12819,109.486662 121.782645,109.278028 121.500032,109.066068 C121.105347,108.770053 120.755109,108.599054 120.254666,108.599054 C119.942415,108.599054 119.81563,109.17773 119.735759,109.377411 C119.578006,109.771794 119.371069,110.123119 119.113079,110.467106 C118.871551,110.789138 118.497967,110.878444 118.179055,111.0379 C117.816122,111.219361 117.384186,111.228476 117.037468,111.089787 C116.876335,111.025335 116.778017,110.307147 116.778017,110.155763 C116.778017,109.765976 116.970361,109.355947 117.141247,109.014176 C117.344572,108.607531 117.499697,108.254942 117.608261,107.820702 C117.691171,107.489057 116.699011,108.165349 116.674232,108.183932 C116.468896,108.337938 116.416609,108.802963 116.311002,109.014176 C116.128768,109.378644 115.946994,109.820415 115.792101,110.207656 C115.665155,110.525016 115.254644,110.848886 115.013744,111.089787 C114.703509,111.400027 114.375595,111.607315 114.027833,111.868144 C113.818799,112.024913 113.477238,112.10957 113.197589,112.179482 C113.128401,112.196783 113.059213,112.214079 112.990025,112.231374 C112.711192,112.301081 112.301708,112.137132 112.056001,112.075703 C111.629844,111.969166 111.308461,111.738149 110.966306,111.453022 C110.608478,111.154833 110.482375,110.84954 110.395513,110.415214 C110.313224,110.003768 110.270475,109.582466 110.187949,109.169848 C110.130747,108.883845 110.08417,108.534305 110.08417,108.235824 C110.08417,107.946945 109.99827,107.570188 109.772827,107.457466 C109.468128,107.30512 109.04953,107.558878 108.838803,107.716923 C108.547556,107.935354 108.210045,108.135078 107.904779,108.287711 C107.604001,108.438106 107.327482,108.632791 107.022643,108.754725 C106.705266,108.881677 106.555628,109.326757 106.555628,109.636862 C106.555628,110.055466 107.12321,109.948205 107.437765,109.948205 C107.775087,109.948205 108.02633,109.84442 108.371788,109.84442 C108.758861,109.84442 108.927271,110.014268 109.150146,110.311435 C109.322432,110.541149 109.253925,111.054747 109.253925,111.349238 C109.253925,111.711608 108.991447,112.078731 108.735024,112.335154 C108.406374,112.663803 107.979844,112.870177 107.541544,112.95784 C107.192269,113.027692 106.80825,113.12819 106.451849,113.21729 C106.087587,113.308353 105.778968,113.437403 105.414046,113.528633 C105.060986,113.616896 104.739457,113.852947 104.376238,113.943755 C104.001763,114.03737 103.514208,114.296934 103.182764,114.462657 C102.813819,114.647129 102.407007,114.746751 102.041176,114.929671 C101.705039,115.09774 101.310856,115.099276 100.951481,115.189122 C100.701054,115.251725 100.375146,115.292901 100.121237,115.292901 C99.8577044,115.292901 99.868458,115.342123 99.6023356,115.448573 Z M96.8002595,108.495275 C96.5896951,108.495275 96.0641706,109.061603 95.8662359,109.325519 C95.5857915,109.699443 95.3099373,110.089376 94.9840993,110.415214 C94.7323746,110.666939 94.5200368,111.135786 94.3614187,111.453022 C94.2111051,111.753639 94.1019626,112.255271 94.1019626,112.594604 C94.1019626,112.899513 94.0072448,113.275757 93.9462965,113.58052 C93.883072,113.896643 93.9462965,114.294518 93.9462965,114.618328 C93.9462965,115.006374 94.0875108,115.367766 94.2576341,115.708023 C94.4684256,116.129601 94.6594615,116.463435 95.0359916,116.745826 C95.3536278,116.984056 95.6404304,117.005282 96.0219074,117.005282 C96.453471,117.005282 96.6543631,116.810505 96.7483672,116.434489 C96.8530006,116.015949 96.9040387,115.645686 96.9040387,115.189122 C96.9040387,114.730066 97.2294496,114.706104 97.5786116,114.566436 C97.8706585,114.449616 98.3333369,114.618328 98.6164198,114.618328 C98.8145653,114.618328 98.7907061,113.973064 98.8239782,113.839971 C98.9225184,113.445826 98.9277628,112.954179 98.9277628,112.542717 C98.9277628,112.186792 99.0177282,111.8129 98.9277628,111.453022 C98.9104617,111.383834 98.8931661,111.314646 98.8758705,111.245458 C98.7939879,110.917923 98.7478644,110.577757 98.6683067,110.259543 C98.5781358,109.898859 98.4143058,109.543972 98.2531845,109.22174 C98.0780872,108.871534 97.6914252,108.731039 97.3710532,108.650946 C97.3374892,108.642555 97.3018653,108.650946 97.267274,108.650946 C97.1031791,108.650946 96.9611646,108.527455 96.8002595,108.495275 Z M103.027092,105.900762 C103.014252,105.900762 102.477238,106.520713 102.196848,106.731007 C101.904666,106.950141 101.683629,107.225032 101.470383,107.509359 C101.235986,107.821886 101.014782,108.213003 100.847702,108.547167 C100.762176,108.718209 100.847702,109.18391 100.847702,109.377411 C100.847702,109.756791 100.835397,110.153098 100.743918,110.518993 C100.668642,110.820107 101.349768,110.951508 101.522275,110.986008 C101.864949,111.054542 102.13697,110.912165 102.404406,110.778449 C102.759407,110.600946 102.990701,110.19754 103.078985,109.84442 C103.167571,109.490074 103.234651,109.129877 103.234651,108.754725 C103.234651,108.369929 103.390322,108.061797 103.390322,107.66503 C103.390322,107.305558 103.494107,106.961348 103.494107,106.575335 C103.494107,106.203649 103.464976,105.813187 103.027092,105.900762 Z M109.772827,103.928931 C109.772827,103.814657 109.035716,104.235289 108.890695,104.344053 C108.604769,104.558494 108.313457,104.713727 108.060451,104.966733 C107.700238,105.326946 108.247221,105.433748 108.52746,105.433748 C108.844183,105.433748 109.100811,105.495507 109.409597,105.433748 C109.769318,105.361803 109.98039,105.113668 109.98039,104.759175 C109.98039,104.513625 110.032277,104.239263 110.032277,103.980823 M121.08491,100.607953 C121.08491,100.209753 120.410332,101.195669 120.410332,101.593869 C120.410332,101.92021 120.462224,102.205385 120.462224,102.527893 C120.462224,102.943474 120.542782,103.177065 120.929239,103.254358 C121.23783,103.316074 121.539538,102.863998 121.655699,102.631672 C121.819642,102.303795 121.863262,102.070577 121.863262,101.697648 C121.863262,101.204196 121.825097,101.088695 121.500032,100.763625 C121.395529,100.659126 121.222124,100.662841 121.08491,100.607953 Z M40.9663203,122.246199 C40.7413852,122.347113 40.4882656,122.497929 40.3955266,122.86888 C40.3316047,123.124562 40.3955266,123.485981 40.3955266,123.751016 C40.3955266,124.160489 41.1821994,123.878303 41.2776633,123.751016 C41.5529012,123.384029 41.537114,122.991112 41.537114,122.557537 C41.537114,122.333905 41.0903849,122.27101 40.9663203,122.246199 Z M57.7787738,118.561986 C57.7787738,118.263397 57.7566339,119.177054 57.6231023,119.444123 C57.4524492,119.785429 57.2174416,119.897097 57.3117593,120.274367 C57.3702963,120.508505 58.1809094,120.349611 58.2976752,120.32626 C58.7899816,120.227795 58.7166739,120.134197 58.6090182,119.703574 C58.5321259,119.396015 58.3764273,119.134618 58.2457829,118.873329 C58.1634245,118.708607 57.9221832,118.619356 57.7787738,118.561986 Z" id="path10266" fill="#000000"></path>
            </g>
        </g>
    </g>
</svg>