<?xml version="1.0" encoding="UTF-8"?>
<svg width="95px" height="72px" viewBox="0 0 95 72" version="1.1" xmlns="http://www.w3.org/2000/svg" xmlns:xlink="http://www.w3.org/1999/xlink">
    <!-- Generator: Sketch 59.1 (86144) - https://sketch.com -->
    <title>Res / Image / Bol</title>
    <desc>Created with Sketch.</desc>
    <g id="Res-/-Image-/-Bol" stroke="none" stroke-width="1" fill="none" fill-rule="evenodd">
        <g id="Fill-7" fill="#FFFFFF">
            <path d="M60,13.3491873 C60.198741,13.7031873 60.4748201,13.8771873 60.8363309,13.8631873 C60.8920863,13.8611873 60.9460432,13.7841873 61,13.7421873 C60.7392086,13.5361873 60.4820144,13.3241873 60.2104317,13.1371873 C60.1888489,13.1211873 60.0719424,13.2751873 60,13.3491873 L60,13.3491873 Z M66.374865,3.16525241 C66.2010689,3.29525241 66.0046432,3.37025241 66.0010225,3.45625241 C65.9774876,3.96025241 66.3658131,3.77625241 66.5902996,3.81825241 C66.7405607,3.84725241 67.0791009,3.86925241 66.983151,3.59825241 C66.9098308,3.38825241 66.5676699,3.29225241 66.374865,3.16525241 L66.374865,3.16525241 Z M46,11.709955 C45.7580999,11.495955 45.6225673,11.336955 45.459585,11.242955 C45.2837356,11.141955 45.0632806,11.151955 45.0100969,11.416955 C44.9457618,11.728955 45.2031023,11.781955 45.3789516,11.810955 C45.5410761,11.836955 45.7152099,11.761955 46,11.709955 L46,11.709955 Z M48.0266759,0.370250558 C48.0172609,0.428250558 48.0078459,0.485250558 48,0.543250558 C48.2840199,0.580250558 48.569609,0.653250558 48.8544134,0.642250558 C49.0348681,0.634250558 49.0513444,0.417250558 48.8826585,0.385250558 C48.6033461,0.331250558 48.312265,0.370250558 48.0266759,0.370250558 L48.0266759,0.370250558 Z M75,4.6648525 C75.2681818,4.3948525 75.5686869,5.0728525 76,4.3168525 C75.5444444,4.3788525 75.2590909,4.1308525 75,4.6648525 L75,4.6648525 Z M43,13.6017259 C42.9245098,13.5727259 42.7970588,13.4827259 42.6696078,13.4827259 C42.4441176,13.4827259 42.1617647,13.2287259 42,13.6017259 L43,13.6017259 Z M53,1.46782993 C53.4226442,1.69382993 53.7060478,1.76782993 54,1.48782993 C53.7172996,1.29282993 53.4507736,1.27182993 53,1.46782993 L53,1.46782993 Z M69.5542562,63.1189759 C69.2954206,63.1419759 68.9095491,63.0109759 69.0191175,63.6559759 C69.0619921,63.9159759 69.2247569,64.0059759 69.4319842,63.9609759 C69.7559257,63.8909759 70.0346107,63.7119759 69.9964999,63.2449759 C69.9671229,62.8869759 69.7368703,63.0679759 69.5542562,63.1189759 L69.5542562,63.1189759 Z M50,1.44036715 C50.3815724,1.77636715 50.65999,1.64836715 51,1.54136715 C50.68002,1.33136715 50.4181272,1.27236715 50,1.44036715 L50,1.44036715 Z M64,3.83936795 C64.4564549,3.60136795 64.732582,4.00836795 65,3.35736795 C64.7228484,3.23736795 64.491291,2.79236795 64,3.83936795 L64,3.83936795 Z M42,11.4142411 C42.3780895,11.0962411 42.49165,12.2552411 43,11.7722411 C42.7735471,11.1772411 42.5357381,10.8182411 42,11.4142411 L42,11.4142411 Z M5,14.8735008 C4.97373221,14.8194544 4.9524206,14.7502372 4.92119662,14.7132581 C4.64910194,14.3908765 4.44094207,13.6844814 4.03552595,14.1595202 C4.01173625,14.1870175 3.9919115,14.3055401 4.00331073,14.3510529 C4.16785615,14.9901271 4.52965782,14.7729936 4.79233575,14.9910753 C4.84338448,15.0327952 4.93011776,14.9171171 5,14.8735008 L5,14.8735008 Z M45.0540338,13.426 C45.036773,13.476 45.0180113,13.524 45,13.574 L47,13.574 C47,13.524 47,13.476 46.9992495,13.426 L45.0540338,13.426 Z M29,11.411207 C30.3894346,12.013207 30.3894346,12.013207 31,11.164207 C30.3087337,11.570207 29.7284311,11.374207 29,11.411207 L29,11.411207 Z M43,12.9241916 C42.1118326,11.9641916 42.1118326,11.9641916 41,12.2211916 C41.6334776,12.4431916 42.3160173,12.6841916 43,12.9241916 L43,12.9241916 Z M80,5.78897147 C79.2784966,5.17897147 78.8200863,4.75997147 78,5.57997147 C78.7560074,5.46897147 79.1947012,6.10097147 80,5.78897147 L80,5.78897147 Z M50,68.7000207 C50.6019707,68.6800207 51.2379815,69.1980207 52,68.3350207 C51.1740818,68.1990207 50.5512093,67.8940207 50,68.7000207 L50,68.7000207 Z M39,70.2740134 C39.969863,71.0400134 39.9732877,71.0190134 41,70.8590134 C40.4869863,69.4290134 39.6513699,70.3490134 39,70.2740134 L39,70.2740134 Z M27,56 C27.9132666,56.7357724 28.757635,57.5650407 30,58 C29.2516492,57.1051103 28.1646714,56.5255517 27,56 L27,56 Z M59,68.6826923 C57.3346213,68.2446923 55.6673107,68.1486923 54,68.6826923 L59,68.6826923 Z M40,68 C39.4403591,67.1947449 38.6117031,67.0418318 38.3151158,66.3789894 C38.2182406,66.1624171 37.7882635,65.9333755 37.4074692,66.0180356 C37.0818193,66.0902264 36.9916508,66.3579884 37.0005931,66.6375635 C37.0117711,66.9899857 37.2017956,67.2039328 37.5997293,67.3089376 C38.3210774,67.4992587 39.0319927,67.7191123 40,68 L40,68 Z M60,68.1478653 C60.8474396,69.4105009 62.0159544,68.8735639 63.0125661,68.9509362 C63.4281169,68.9836193 64.0581915,69.0183035 63.9956812,68.4053283 C63.9509296,67.9697757 63.4124894,67.9617717 63.0225109,68.0344749 C62.0727818,68.2118976 61.1123977,68.1065112 60,68.1478653 L60,68.1478653 Z M5,17.0755758 C5.6063739,18.6413812 5.85138173,20.2983569 6.9854648,22 C7.10510074,21.0564784 6.4569362,17.6513565 6.11441689,17.3142097 C5.88743639,17.0908729 5.57523578,16.8840569 5,17.0755758 L5,17.0755758 Z M66,68.4863814 C66.0329962,68.7450286 66.2144751,68.8534649 66.4954926,68.9187933 C67.1900621,69.0792257 67.8560349,68.9712338 68.5379558,68.8583534 C68.8365712,68.8090238 69.0587455,68.7748042 68.9861539,68.4961585 C68.9240111,68.2615095 68.8233728,67.9184242 68.4494161,68.0175279 C67.6443094,68.231734 66.7044683,67.98953 66,68.4863814 L66,68.4863814 Z M66.5518868,14.887454 C65.6334232,14.5839634 64.8726415,14.3406115 64.1172507,14.0797775 C63.8477089,13.9867723 63.3942049,13.956703 63.3598383,14.0909661 C63.0828841,15.1608752 62.5208895,14.5476005 62.0006739,14.4196309 C61.7203504,14.3511008 61.3827493,14.3455065 61,14.660885 C61.5208895,14.8748668 61.9770889,15.062975 62.4359838,15.2510832 C62.2648248,15.5580702 61.8638814,15.2440903 61.6920485,15.7538706 C63.4285714,16.1720442 65.1475741,16.5860221 66.8652291,17 C67.0208895,16.3188945 66.1981132,16.6895166 66.2291105,16.2035121 C66.3847709,15.8349878 66.8571429,16.2832308 67,15.8993223 C66.1671159,15.606321 65.3423181,15.3154176 64.3584906,14.9692705 C65.1866577,14.5622855 65.7520216,15.3790527 66.5518868,14.887454 L66.5518868,14.887454 Z M69,19.1581603 C68.331385,18.6674784 67.6563596,18.6032371 67.031336,18.4251966 C64.4889325,17.7020222 61.8978091,17.1581118 59.3284815,16.5334408 C56.504657,15.8463638 53.6577548,15.3997332 50.7627739,15.1984436 C48.4697387,15.0387578 46.1581131,15.0412051 43.8811041,14.7701677 C39.5097854,14.2501183 35.1339794,13.8665055 30.7306082,14.0439341 C29.0068253,14.1136819 27.2798371,14.261743 25.5573362,14.4715982 C23.7489347,14.6924662 22.0898978,15.6059175 20.2167503,15.4382781 C19.0872205,15.3373273 18.3320638,15.7656032 18,16.8564832 C18.2115464,16.9549866 18.385912,17.0645029 18.5769448,17.1201788 C23.224556,18.4778134 27.9394774,19.5429968 32.7640183,20.163385 C34.4903654,20.3854767 36.2301746,20.3854767 37.9539575,20.5647407 C39.5264527,20.7287092 41.0963837,20.9134797 42.6778536,20.9612019 C48.2049851,21.1282295 53.7122441,20.7232028 59.2188619,20.3707929 C61.7651118,20.2074363 64.2914891,19.8281062 66.8479958,19.7228727 C67.5095592,19.6959525 68.2871526,19.6959525 69,19.1581603 L69,19.1581603 Z M70.1817064,16.5446775 C69.7436928,16.3203626 69.3359091,15.9690412 68.7094403,16.2003067 C69.2207778,16.5301445 69.6960966,16.6325079 70.217082,16.507397 C70.8757104,17.2915515 71.799334,17.354107 72.7300326,17.4002337 C73.247802,18.1332065 73.9032145,18.0763379 74.6936973,17.846968 C78.779252,16.6615741 82.7850509,15.2720851 86.6757185,13.5635003 C86.8609578,13.4819886 87.0654928,13.4320707 86.9799483,13.0415731 C85.7025692,12.4703598 84.3602278,11.8530198 83.0037362,11.2653778 C79.0738339,9.56311169 74.937467,8.63615385 70.6891848,8.14392471 C67.1284747,7.73131157 63.5491119,7.43053998 60.0366412,6.69440782 C54.6460502,5.56461872 49.1975719,4.92074004 43.6924928,5.04016405 C39.1753564,5.13747251 34.6582199,4.85060212 30.1455858,5.11598882 C27.1740394,5.2903858 24.2108545,5.56967371 21.3248526,6.31528396 C17.454124,7.31553908 13.6033343,8.37961337 10.008535,10.174133 C8.32594512,11.0145242 6.69352417,11.9181027 5,13.1976457 C6.23042603,13.251355 7.09487589,13.679133 7.97862151,14.0494107 C9.16338092,14.5454311 10.3127648,15.2335409 11.6628245,14.4816119 C11.8570684,14.3735616 12.1690165,14.4576007 12.4250068,14.4752931 C12.5021899,14.48098 12.5735842,14.5624916 12.7015793,14.6440033 C12.4822509,14.8285102 12.0680354,14.8398839 12.113702,15.2543927 C12.8012741,15.7226106 13.4920621,15.6657421 14.2677515,15.3700255 C15.2872106,14.9807916 16.2275571,14.3400723 17.6490111,14.1915821 C16.5916037,15.2701895 15.2338257,15.1153806 14.2516717,15.7908529 C15.0350794,16.3626981 15.6711962,16.0436022 16.3491204,15.7750561 C20.1465251,14.2674069 24.0153242,12.9745945 28.2140807,12.1702201 C27.0113119,11.8732397 26.0246556,12.2428855 25.0553654,12.4330793 C24.1941315,12.6017894 24.0886481,12.160742 23.9741599,11.5958474 C24.6038447,11.7752994 25.2367455,11.7386508 25.8696463,11.6166993 C27.4801987,11.4144999 29.0856056,11.1491132 30.970801,11.4195548 C30.4202287,10.960815 30.1719567,10.577268 29.7095017,10.6354003 C28.647592,10.7693574 27.5895414,10.9292213 26.5340635,11.1004589 C26.2324065,11.149745 25.9249608,11.2514766 25.861928,11.6173311 C25.2406047,11.2375754 24.6167086,11.5200227 23.9940989,11.612908 C23.763193,11.687469 23.5245688,11.8005743 23.3238929,11.4732641 C23.7361789,11.3418345 24.1175917,11.2002949 24.5086523,11.0985633 C26.9321993,10.4711133 29.4136335,10.174133 31.9008564,9.96371923 C37.4786162,9.49297377 42.968902,10.3611674 48.4675492,11.0796071 C49.113957,11.1636462 49.7455714,11.289389 50.4305707,11.2356798 C51.0705466,11.1857618 51.8822548,11.1465857 52.2836065,11.9244215 L52.3016159,11.9092565 C51.0383871,12.1436814 49.7629376,11.9958231 48.4919905,12.031208 C47.9401319,11.7443376 47.9401319,11.7443376 46.9084521,11.9977187 C47.498259,12.3901119 48.0160285,12.2239293 48.5337979,11.9844494 C49.2310179,12.5714595 50.3559605,11.9635976 51.0178049,12.8513793 C48.6450701,12.6845648 46.3353682,12.5215415 44.0256662,12.3585183 C45.6522984,12.9670121 47.424292,12.7951426 49.1570509,13.2772618 C48.8663281,13.649435 48.5312252,13.4143782 48.3588498,13.7549578 C51.9349965,13.9369373 55.3702842,14.8771644 58.8891869,15.2404915 C58.5328586,15.0250227 58.1295773,15.058512 58.3469762,14.3678747 C58.4254456,14.1163892 58.7335345,13.7334741 58.5753093,13.3663559 C57.8632959,13.1072879 56.9358132,13.4428125 56.2951941,12.5360746 C57.8420706,12.2119237 59.1451773,12.4318155 60.3717442,13.0978098 C60.5531243,13.1970139 60.5807815,13.5666596 60.9236028,13.4112189 C61.712156,13.0523149 62.43639,13.5041042 63.1696287,13.6285832 C64.1878015,13.8017164 65.1622371,14.2339176 66.1816962,14.391254 C67.0873104,14.530898 67.9967837,14.6421076 68.9023978,14.8032353 C69.7732796,14.9580442 70.3167767,15.9488212 71.3298039,15.6644783 C71.9054606,16.3848136 73.1731918,16.3115164 73.4336845,17.4071843 C73.1764077,17.6062243 72.9339244,17.5120753 72.6837228,17.4362505 C71.8501461,17.1380064 71.0770295,16.6792665 70.1817064,16.5446775 L70.1817064,16.5446775 Z M36.4137344,11.3124285 C35.9404086,10.9104285 35.469353,11.0064285 35,11.2464285 C35.485244,11.4724285 35.969353,11.5554285 36.4466515,11.2534285 C36.8785471,12.4554285 37.454597,11.8174285 38,11.5684285 C37.4733258,11.4794285 36.9466515,11.3904285 36.4137344,11.3124285 L36.4137344,11.3124285 Z M70.2294947,59.6016585 C70.3024042,59.4750898 70.3753136,59.3472361 70.4482231,59.2206674 C70.6611954,58.665564 71.3436023,58.5043013 71.5546559,58.0025238 C72.3790443,56.042315 74.2785273,55.0940133 75.6497366,53.666421 C76.288014,53.0014534 76.8911159,52.0550792 77.9259184,51.7749576 C77.819752,51.9728417 77.8248684,52.1771506 78.0314452,52.2773776 C78.2559296,52.3865993 78.4190165,52.2099171 78.4861699,52.0229552 C78.6102439,51.6773005 78.4337263,51.4607845 78.1133084,51.3406406 C79.3310241,51.0226126 80.1573312,50.1803203 80.7220596,49.1369315 C81.4294092,47.8314105 82.3669991,46.6877947 83.1325483,45.4208226 C85.0972661,42.1717973 86.7684273,38.8007006 87.980387,35.2028082 C88.2035923,34.541053 88.6167458,33.9975143 88.7126793,33.2265374 C88.9147792,31.5959211 89.4097959,30.0019263 89.7992859,28.3282639 C90.3678517,29.0163608 89.5396259,29.6395671 90.0116187,30.2531363 C89.9156852,29.1050231 91.174972,28.0365776 90.0896446,26.834496 C90.5462879,25.5713788 90.5948942,24.2260241 90.8513564,22.9224305 C91.107179,21.6181946 91.4307947,20.3293781 91.6053936,19.0026553 C91.7787134,17.6862122 91.9111016,16.3736239 92,15 C91.1103768,15.1111492 90.4605874,15.6598278 89.6918404,15.9110378 C84.5562012,17.5866276 79.4921924,19.4800185 74.309226,21.0181175 C71.9716468,21.7119967 69.6506961,22.473979 67.2414865,22.8607524 C62.9679696,23.5462794 58.6784637,24.1309369 54.4055864,24.8235312 C51.9337003,25.2237967 49.4368715,25.3349459 46.9541129,25.6060728 C44.9286373,25.8277287 42.8692652,25.9947737 40.8425104,25.8804121 C39.0587872,25.7795426 37.2699475,25.6908802 35.4913407,25.6767457 C30.5418125,25.6381968 25.7905468,24.5061457 21.0610261,23.2366036 C17.5006147,22.2812347 14.2222478,20.5529614 10.7660841,19.3065487 C10.2576367,19.1227992 9.78884171,18.7251036 9.18893766,18.8895787 C8.74892274,19.9843659 9.20492657,21.0412468 9.28231291,22.0949153 C9.44603939,24.3410281 9.66348862,26.5890684 10.4610157,28.7291719 C11.2035408,30.7195773 11.8654819,32.7427493 12.6821956,34.7010308 C13.1202918,35.7508444 12.5472491,36.7923057 12.8881328,37.8228449 C12.969996,38.0708425 12.4647463,37.5362985 12.3720106,37.9288542 C12.2901474,38.270654 12.567715,38.553988 12.726325,38.7338826 C13.5372827,39.6545576 13.6396117,40.8662764 14.1365472,41.9090227 C14.2337598,42.1126891 14.1877117,42.4615561 14.5778412,42.4140126 L14.5720852,42.4165825 C14.9609356,43.2151861 14.7639522,44.2515076 15.5985735,44.908123 C15.9221891,44.4673812 15.1048358,43.9868055 15.6081668,43.5672656 C16.3698787,43.7060414 16.3340635,44.5181371 16.8111727,44.8933459 C17.8594059,45.7176488 18.5411732,46.8503424 19.2830588,47.9438447 C20.625488,49.9246129 22.0254773,51.8751846 24.0579881,53.2372439 C24.2377035,53.3940092 24.4174189,53.550132 24.5971343,53.7068973 C24.6630086,53.9696719 24.8740623,54.3211089 25.0544172,54.2459387 C26.2100959,53.7615082 26.6987171,54.6339971 27.3146101,55.2771203 C27.4885695,55.4589424 27.6714826,55.6394795 27.8774199,55.7833952 C29.2767696,56.761251 30.9428144,57.4679798 31.3911436,59.3967071 C31.4320752,59.5759593 31.8983119,59.7944027 31.8893582,59.3909248 C31.8797648,58.9508255 32.0396539,58.9116341 32.2794877,59.0626171 C32.7297355,59.3453087 33.3373142,59.5438352 33.3411515,60.2255073 C33.3424307,60.5531725 33.5355767,60.706083 33.7607006,60.7863931 C34.2141462,60.9489407 34.6912554,61.0318207 34.2371703,61.689721 C34.200076,61.743047 34.5409596,62.1002663 34.8057361,61.8079375 C34.9701021,61.625473 34.918298,61.2965228 35.2316807,61.1789488 C37.1522691,62.5178788 39.0236116,63.9274816 41.2965956,64.7382924 C43.313757,65.4585133 45.1927741,66.2943808 47.4676768,65.8613488 C49.7464168,65.4263893 52.105741,65.4842126 54.4343664,65.5574554 C56.5193208,65.6236309 58.618985,65.6461177 60.6777175,65.9358765 C62.0137512,66.1241234 63.0587866,65.919172 64.0443433,65.0364035 C65.2997928,63.9114196 66.5622774,62.794788 67.8983111,61.7603939 C68.2743703,61.4699926 68.9906737,61.2746785 68.796888,60.5114113 C69.5093541,60.5820842 69.6871508,59.80147 70.2294947,59.6016585 L70.2294947,59.6016585 Z M74.2485743,56.4429481 C74.202952,55.9184723 74.8899698,55.7285097 75,55 C74.5129151,55.5602937 73.7520966,55.7278701 74.2539416,56.4467857 C73.6984233,56.2888034 73.262999,56.3821856 73,56.9450377 C73.6682321,57.2219865 73.7272727,56.3578807 74.2485743,56.4429481 L74.2485743,56.4429481 Z M69.6953216,21.9558566 C69.4632508,21.8844336 69.2316254,21.8130106 69,21.7415876 C69.2213804,22.0855674 69.4458789,22.0313844 69.6645867,21.8926432 C69.7452102,21.6192654 70.128283,21.7218847 69.9559002,21.161994 C69.8850763,20.9337687 69.6899764,20.9625021 69.6040078,21.1496796 C69.4730503,21.4353717 69.6971034,21.6693436 69.6953216,21.9558566 L69.6953216,21.9558566 Z M73.9998544,62.6312505 C73.5000888,62.5955475 72.9376126,62.1932514 72.532553,62.4661242 C71.7800251,62.9742542 71.1170839,63.629659 70.4746196,64.280601 C70.0458835,64.7141373 71.2789798,64.7166875 70.8169686,65.3446775 C70.6896276,65.5187296 71.2009114,65.4925899 71.398002,65.3899438 C72.0199894,65.0660667 72.6246993,64.7103119 73.2716429,64.3469065 C73.4975292,64.9717088 73.7157367,65.4976903 72.8972987,65.769288 C72.7392422,65.822205 72.4915991,66.139069 72.6387772,66.2238636 C73.3753074,66.6465614 72.9427319,67.3733722 72.9856055,67.8713014 C73.0393575,68.4890906 73.4098623,68.488453 73.7080579,68.6950203 C73.9166668,68.8397449 74.2263806,68.942391 74.1828671,69.2267398 C74.1393536,69.5168265 73.9800173,69.8241272 73.6453472,69.9050965 C71.9240037,70.3201437 70.2039399,70.8046843 68.4070877,70.5821782 C67.0728865,70.4164143 65.7617218,70.639558 64.5708592,71.100509 C63.5822066,71.483041 62.639627,71.6832328 61.6164194,71.6080015 C60.4901873,71.5251195 59.3754733,71.554447 58.2530806,71.7049096 C55.861117,72.0243238 53.4601947,71.6411542 51.0611921,71.7348746 C50.095576,71.7724902 49.1382786,71.835608 48.175862,71.9165773 C46.6708063,72.0434504 45.1452736,72.0045596 43.6318991,71.9382541 C42.0526144,71.8693983 40.477809,71.6774948 38.8998041,71.5557221 C38.4941046,71.524482 38.0583295,71.4658271 37.6807857,71.572936 C36.162292,72.0032845 35.0520574,71.3172772 34.2688141,70.1926331 C33.578357,69.2025127 33.1048275,68.051729 32.6185,66.9360106 C32.3075063,66.2225885 32.3932536,65.4358476 32.5903442,64.6892727 C32.732403,64.149265 32.5301932,63.8177373 32.0585834,63.5894932 C27.7648232,61.5117069 24.215272,58.3800449 20.5345405,55.446662 C17.9608439,53.3956529 16.014254,50.7619201 14.1527713,48.0765454 C9.54289815,41.425589 6.38752829,34.1396295 4.5618803,26.2715838 C4.37822766,25.479105 4.15106151,24.6942769 3.89445974,23.9221998 C3.80679281,23.6582527 3.79655433,23.3273625 3.52523476,23.1443847 C3.18032615,23.2285418 3.42540963,23.6015105 3.21104157,23.7424097 C3.16112901,23.6697287 3.05938417,23.5887594 3.06962264,23.5256416 C3.34030231,21.8456886 2.42523865,20.3697526 2.24990477,18.7675811 C2.23390716,18.6164809 2.20255183,18.4628306 2.15007965,18.3206562 C1.82948742,17.4503959 2.00418139,16.4487996 1.13583077,15.6977618 C0.749968258,15.3636838 0.80372025,14.5010742 0,14.2747427 C0.501685251,14.1300181 1.17102552,14.3429609 0.93298099,13.5122289 C0.906744899,13.4204212 0.936180514,13.3101245 0.948338702,13.2100286 C1.08655811,12.0439436 1.20494047,11.9935769 2.32093419,12.6202918 C1.88835864,12.3639954 1.65095402,12.5622745 1.52937213,12.9664833 C1.4570629,13.2093911 1.42186815,13.4752508 1.72518296,13.6053117 C1.80581094,13.6397396 1.9229135,13.6129624 2.01633958,13.5880978 C2.40156218,13.4873644 2.30237696,13.2801595 2.14688013,13.035339 C2.02593814,12.8459857 2.01186024,12.6553572 2.30941591,12.6018028 C3.20656224,12.7707544 3.82662985,12.3939604 4.2598453,11.6320841 C4.09027057,11.4892722 3.92197564,11.4287046 3.70248835,11.4248793 C3.15536986,11.4159536 3.14129196,11.0614739 3.37037783,10.7222955 C3.56426894,10.4366716 3.85158613,10.1982267 4.1350639,9.98974675 C8.06791792,7.09716727 12.382795,4.95116275 17.0093057,3.39170729 C23.6969493,1.1373187 30.5605666,0.109582723 37.6193549,0.127434216 C40.0497128,0.133172196 42.4883894,0.0228754693 44.9245065,0.00183620927 C48.1988986,-0.0255785841 51.4508941,0.25621999 54.6920112,0.697406898 C60.8024607,1.53068911 66.8406011,2.80643333 72.9612891,3.60018723 C77.7599341,4.22243929 82.5297835,5.09716246 87.0596685,6.91928989 C88.5276098,7.51030183 90.0134684,8.07453654 91.3572682,8.9084563 C91.9319026,9.26421106 92.7900147,9.4822543 92.6364376,10.5399553 C92.587165,10.8810463 93.0600545,11.1048275 93.4337588,10.7650116 C93.6890808,10.5335797 93.8541762,10.1370216 94.2720339,10.5737456 C94.5382343,10.8517189 95.03672,11.0072819 94.8236317,11.5179621 C94.4313702,12.461541 94.4064139,13.2833473 94.808274,14.3231968 C95.1627812,15.2393609 94.9439338,16.4252101 94.8005952,17.4676098 C94.6636556,18.4666559 94.5299155,19.4567762 94.452487,20.4653856 C94.3533018,21.7564311 94.0320697,23.0130487 93.6980394,24.2843301 C93.0536554,26.7344475 92.0579638,29.1023206 91.7623279,31.6455209 C91.7040965,32.1460003 91.5370814,32.6381914 91.385424,33.1233695 C91.0193985,34.2996554 90.8946171,35.4957055 90.8434248,36.7300087 C90.721203,39.6735925 90.7250424,42.6630801 89.2449429,45.358018 C88.237733,47.1903463 87.3565843,49.0781417 86.5503044,51.0029152 C86.1126096,52.0472276 85.4637463,52.9646669 84.7790483,53.850866 C82.6590442,56.5955331 80.5524781,59.3644272 77.7394572,61.4638904 C77.1936185,61.8712869 77.1481853,62.523504 76.6983323,62.9200622 C75.9912377,63.5429518 75.2495882,64.1275882 74.519457,64.7243381 C74.2942105,64.908591 73.9825769,64.95577 73.8526763,64.7103119 C73.640228,64.3080158 73.4936898,63.8553529 73.4143416,63.4071529 C73.3676286,63.1400181 73.7125372,63.0367344 73.8904307,62.8665077 C73.9493019,62.810403 73.9480221,62.6918181 73.9742582,62.6019231 C75.6015357,62.2844215 76.2625572,60.8237868 77.3081615,59.8196403 C76.0981017,60.6318833 74.8394093,61.3880215 73.9998544,62.6312505 L73.9998544,62.6312505 Z" id="Fill-6"></path>
        </g>
    </g>
</svg>