<?xml version="1.0" encoding="UTF-8"?>
<svg width="221px" height="326px" viewBox="0 0 221 326" version="1.1" xmlns="http://www.w3.org/2000/svg" xmlns:xlink="http://www.w3.org/1999/xlink">
    <!-- Generator: Sketch 59.1 (86144) - https://sketch.com -->
    <title>Res / Image / Carotte</title>
    <desc>Created with Sketch.</desc>
    <defs>
        <polygon id="path-1" points="0 0.247763108 220.192567 0.247763108 220.192567 320.155667 0 320.155667"></polygon>
        <polygon id="path-3" points="0.443945851 0.504388617 3.61340678 0.504388617 3.61340678 3.29292929 0.443945851 3.29292929"></polygon>
    </defs>
    <g id="Res-/-Image-/-Carotte" stroke="none" stroke-width="1" fill="none" fill-rule="evenodd">
        <g id="Group-51" transform="translate(0.000000, 0.000000)">
            <g id="Group-3">
                <mask id="mask-2" fill="white">
                    <use xlink:href="#path-1"></use>
                </mask>
                <g id="Clip-2"></g>
                <path d="M107.309931,91.1137666 C107.119348,90.7993646 107.355934,89.9391256 106.530075,90.3081114 C105.953945,90.5657464 105.406294,91.0831998 105.075512,91.6224866 C104.823592,92.0373227 105.112753,92.698877 105.675738,92.7447273 C106.718467,92.8298779 107.068964,92.0351393 107.309931,91.1137666 M166.67756,63.4507521 C167.428938,61.8263415 167.152922,60.372232 166.850618,58.5666035 C166.366494,60.3372984 166.077334,61.7673911 166.67756,63.4507521 M161.266762,62.2346275 C161.109038,63.5752029 159.387222,63.9638388 160.469381,65.3284311 C160.701586,65.623183 161.575638,65.8349677 161.785936,65.6559332 C163.012675,64.6079264 162.042237,63.6581702 161.266762,62.2346275 M117.807318,183.901674 C117.141373,182.958468 116.681346,181.66156 114.885049,181.757627 C115.224593,183.353654 116.11836,184.039225 117.807318,183.901674 M29.2323307,282.763655 C28.8730712,281.9449 28.3845659,282.48637 27.9705413,282.503837 C27.3900305,282.52567 26.9321937,282.689421 27.3768869,283.344426 C27.5784227,283.643544 27.6748094,284.471033 28.356088,283.916463 C28.7263005,283.612977 28.9563142,283.137008 29.2323307,282.763655 M183.661333,58.2587515 C182.666798,59.3526086 181.418152,59.9442958 181.249475,61.8962086 C182.752232,60.8853187 184.355756,60.5447164 183.661333,58.2587515 M81.0226518,213.298267 C82.8474271,212.796097 84.4750478,212.034109 85.2527131,210.141146 C89.1498023,209.499242 91.6996684,207.069176 93.6493082,203.846555 C95.6778099,203.63477 97.1455164,202.669731 97.8684165,200.709084 C105.185043,197.353279 111.338456,192.425463 117.218045,186.643959 C114.113955,189.052191 112.589293,186.301173 110.516979,185.264083 C106.935337,183.467188 110.05257,180.526219 109.025176,178.253354 C108.578292,178.168203 108.072262,177.973885 107.577185,177.995719 C102.983483,178.200954 102.567268,177.773017 103.206925,173.572257 C103.364648,172.55045 103.774292,171.268825 103.349314,170.50902 C101.395293,167.011297 102.562886,164.214429 104.998841,161.441577 C106.416163,165.712205 109.658261,168.696841 112.076691,172.238231 C114.49293,175.775254 118.219152,177.997902 120.565291,181.692126 C121.432772,181.115723 122.276155,180.493469 123.180876,179.980382 C123.678143,179.69873 124.105312,179.279527 124.790972,180.124483 C126.098764,181.731427 126.278393,181.683393 126.907098,181.100439 C132.782304,175.650804 138.909431,170.439153 144.427569,164.651098 C151.135207,157.616352 157.656642,150.404755 165.109086,144.149464 C166.82214,142.712821 165.969994,140.177955 168.318325,139.029514 C169.198949,138.599394 172.581245,135.780692 168.200032,134.326583 C168.173745,134.31785 168.202223,133.972881 168.285466,133.83533 C169.428962,131.955467 170.364351,129.167333 171.80358,128.396611 C176.022688,126.136846 177.652499,122.970992 177.720408,118.519146 C177.733552,117.689474 177.9088,116.693867 178.392924,116.073797 C180.9406,112.800959 181.426915,108.729015 182.725944,105.006408 C184.254988,100.620062 183.03701,96.1289161 180.263702,92.7578274 C177.424676,89.3081381 173.945993,86.2449014 170.094907,83.7668018 C166.557077,81.4895703 166.557077,81.4895703 163.396032,85.0593436 C162.537314,83.7515184 159.658857,83.3410491 160.296323,82.0288571 C161.674215,79.1948719 159.676382,78.0027641 158.259059,77.2429591 C154.778185,75.3718302 151.14835,73.4766845 146.45169,74.0880218 C147.86025,76.3914535 147.17678,77.7909794 144.878834,78.8957533 C142.510788,80.0332774 140.112074,81.0507174 137.665167,81.9873735 C136.747302,82.3388925 135.936778,82.2799421 135.393508,81.3978697 C134.793281,80.42628 135.472369,79.7319754 136.116408,79.1861385 C138.009092,77.5835614 140.541433,76.6731054 141.728742,74.1382388 C139.470226,73.3369502 138.377114,74.723376 137.093418,75.9460506 C131.919205,80.8716829 126.836998,85.9064825 121.406484,90.5373629 C118.173149,93.2927476 115.632045,96.4411349 113.285906,99.8995575 C112.332992,101.301267 111.973732,102.299057 113.158851,103.528281 C117.353862,107.875326 119.551041,113.816215 124.442665,117.584673 C125.445963,118.357578 125.785507,119.078083 125.207187,120.19159 C125.231284,120.527826 125.25319,120.864061 125.277286,121.200297 C126.278393,123.859614 128.929027,125.416341 130.620176,128.438094 C127.722003,127.962125 126.142576,126.569149 124.539052,125.350841 C118.839093,121.014712 113.581638,116.220081 109.498347,110.268275 C108.442475,108.729015 107.419461,107.772709 105.373435,109.222452 C104.34604,109.95169 102.64832,109.667855 101.331766,110.084874 C99.881584,110.547744 98.4686427,110.99533 97.4828698,112.50184 C91.6164253,121.468849 84.818973,129.846354 79.8988706,139.400683 C78.5932691,141.935549 75.8703451,143.361275 75.0926797,145.959459 C73.7914594,150.302138 70.9480521,153.850077 69.4102462,158.022455 C69.055368,153.834794 70.2273425,149.810884 70.5909832,145.62759 C67.5876616,149.5991 66.343397,154.085879 65.8877508,159.092295 C67.61833,158.935094 68.0214017,156.919864 69.5373014,157.887087 C67.0422005,164.369446 68.3543739,171.757895 73.2219017,175.469586 C69.7278842,171.751345 71.7498141,167.775469 70.7268008,164.240629 C72.5209076,165.980757 74.233962,167.675035 75.5308011,169.646598 C76.5538143,171.203324 78.437736,173.177071 77.7060734,174.746898 C75.8396766,178.753341 78.5757442,179.895231 80.9722679,181.64846 C72.2383194,182.871134 68.4310451,176.386592 64.2141274,170.08545 C63.2831196,171.563577 62.6040315,172.360499 62.2294378,173.281871 C58.9807682,181.294757 54.8580466,188.866607 52.851451,197.493013 C50.4855959,207.669597 47.7911497,217.765396 45.9313247,228.06643 C44.6366762,235.247461 42.9236219,242.347707 39.8129605,249.015651 C39.2937868,250.133525 38.7570881,251.218648 38.8512842,252.49154 C38.5445993,253.091961 38.2357238,253.694565 37.9290388,254.297169 C36.8841195,257.517606 35.8413908,260.740227 34.7964714,263.962849 C35.1119188,264.122233 35.4251755,264.283801 35.7384323,264.445368 C38.7724224,259.773004 42.371589,255.47181 44.4570465,250.166275 C48.9017873,246.437117 51.732051,241.452535 54.9303366,236.758337 C56.2863221,235.791114 57.3553381,234.561889 58.2644399,233.184197 C59.5218481,231.806505 60.7770656,230.430996 62.0344738,229.055487 C63.0290092,228.221448 64.0257352,227.387409 65.0202706,226.55337 C69.2043292,223.509784 73.6315451,220.760949 76.9503141,216.678089 C78.4530703,215.726149 81.0007457,216.023085 81.0226518,213.298267 M101.546445,84.7449416 C104.59796,84.4807565 106.192722,82.9611466 107.618806,80.0594776 C108.801734,77.6512451 111.752481,75.9591507 114.197198,74.3696736 C115.590424,73.4657677 116.76678,72.7256129 117.169851,71.0488019 C117.426152,69.9876949 118.120575,69.3588908 119.191781,68.869821 C122.357208,67.4222615 125.406532,65.7607339 127.864393,63.1887504 C128.442713,62.5839631 129.283906,62.062143 130.09224,61.8590917 C137.938992,59.8897121 145.763839,58.4618028 153.558017,62.2411775 C157.993996,64.391775 158.004949,64.1254066 160.018116,59.7849115 C162.086049,55.3199656 162.537314,50.4598337 163.980924,45.8507869 C165.025843,42.5058983 166.239439,39.2548937 167.961256,36.2134904 C168.863786,34.6174633 170.022617,34.4013119 171.069727,36.1829236 C171.967875,37.7090836 172.423521,39.3291275 172.511146,41.1303893 C172.587817,42.6652827 172.620676,44.2547598 173.512253,45.6739357 C177.012842,51.2458389 176.988746,51.2545723 174.094954,57.2041946 C173.981043,57.4378128 174.215438,57.8395487 174.36878,58.54477 C176.217652,58.0120332 177.249428,56.7653417 177.450964,55.0535971 C178.423593,46.7525094 180.335992,38.5191055 179.142112,29.9603828 C178.19577,32.9668525 177.249428,35.9733222 176.320611,38.9230248 C176.125647,31.0498733 177.685358,23.0937545 181.004127,14.7817501 C182.029331,12.2163166 183.446654,9.76660056 183.299883,6.83654804 C183.183781,4.49163268 185.549636,3.40650891 186.263774,1.44149604 C186.566078,0.605273897 187.398508,-0.252781723 188.158649,0.600907201 C188.719444,1.23189467 189.900181,1.45241278 189.729314,2.95455595 C189.505872,4.91083543 187.62195,6.35402821 188.715063,8.87579473 C189.418247,10.5023887 187.924254,12.834204 187.072108,14.7533666 C186.581412,15.8603238 185.989948,17.0087647 185.869465,18.179039 C184.962554,27.141681 182.322873,35.7986544 181.212235,44.7176295 C181.082989,45.7481695 181.104895,46.793993 181.008509,48.8638066 C185.389722,44.1106588 186.964768,38.748357 189.744648,34.1393102 C192.49605,29.578297 195.017438,24.8688161 198.918908,21.0850747 C200.524623,22.4824172 199.091966,24.3688295 200.759018,25.9517566 C202.995627,22.1745652 205.254142,18.5611248 207.306741,14.8319671 C208.745969,12.2228666 210.250916,9.68145 212.211509,7.43260194 C213.488633,5.96975903 213.523682,6.00032589 217.039606,6.11167662 C215.190734,11.6923132 213.350624,17.0131314 209.501729,21.6789452 C202.649511,29.9887663 196.881644,39.0955093 191.348172,48.3354365 C190.686609,49.4423937 190.395258,50.5340675 190.318587,51.7501922 L190.340493,51.5274907 C190.423736,53.6256878 191.731528,54.217375 193.50811,53.8200057 C196.224462,53.2152184 198.85319,52.3244126 201.484109,51.365923 C206.875191,49.4009101 211.773388,46.221956 217.512777,44.9730811 C218.17434,46.1346221 218.759232,47.3507467 219.519373,48.4467872 C220.349613,49.638895 220.599342,50.8266361 219.171066,51.5078406 C216.255369,52.898633 216.397758,55.033947 217.780031,57.7172813 C215.344076,57.9399827 213.422914,58.1801509 213.022033,60.987936 C212.816116,62.4333121 211.030772,63.0948665 209.43382,63.6472534 C205.779888,64.913595 201.652785,65.5882495 199.687811,69.6405427 C195.442416,69.7715435 193.249618,73.2867332 190.141148,75.3106965 C188.331707,76.4875208 186.084144,76.1250851 184.005258,76.0246511 C182.975673,75.9744341 181.954851,75.6491154 180.934028,75.4285972 C179.840915,75.1927957 179.249452,76.0224678 178.916479,76.7014889 C178.59227,77.3586765 179.321742,77.788796 179.952636,78.1948987 C184.338231,81.0092338 187.751196,84.8431922 189.098419,89.8081247 C190.463167,94.8472911 192.333945,99.9606912 191.694288,105.288059 C191.455512,107.298923 193.928706,109.757372 190.885954,111.362133 C189.746838,110.405826 190.769852,109.056517 190.417164,108.043444 C189.705217,107.702842 185.142183,118.936166 184.270322,122.791957 C185.278001,124.064849 187.087442,122.032152 187.919872,123.540846 C188.598961,124.774437 187.396318,125.811527 187.183829,126.946868 C186.147672,132.470737 182.903383,137.101618 181.148707,142.313269 C180.285608,144.869969 178.960292,147.0948 177.209997,149.020513 C170.962387,155.900241 165.253666,163.253756 158.427736,169.637864 C152.458333,175.225051 147.46594,181.76636 141.154803,187.089362 C137.130659,190.482284 132.929075,193.560804 128.609199,196.503957 C113.750314,206.619406 98.617604,216.348403 84.0040674,226.804455 C72.6830125,234.904675 61.8723689,243.788716 52.9785062,254.596287 C51.2566894,256.687934 48.7265388,255.58971 47.3596002,257.50014 C46.9609098,258.05471 46.5622194,257.55909 46.3957333,257.002336 C46.091239,255.99363 45.7495044,254.799339 44.3387537,255.382292 C43.0835362,255.901929 43.4712735,257.181371 43.6114724,258.148594 C43.8480579,259.775188 44.0101628,261.050263 42.0408074,261.960719 C40.2050791,262.807858 41.3967691,264.314368 41.9728986,265.534859 C40.4460458,264.932255 39.0352952,265.532676 37.3310032,265.923495 C38.4547844,267.181103 39.6420932,267.495505 41.0484626,267.229137 C40.3080376,267.967108 40.0407836,268.866647 40.1546951,269.892821 C39.3310271,269.984521 39.2193061,272.242103 37.9706604,270.761793 C36.3737082,268.871014 35.1951618,269.2138 34.4196871,271.263963 C33.9421348,272.525938 33.9377536,273.964764 33.718693,275.32499 L33.85232,275.130672 C31.5806609,274.060831 30.8665232,275.608825 30.923479,277.257252 C30.9935784,279.265932 32.7153951,278.073824 33.7340272,278.231025 L33.7866018,279.303049 C32.6672018,280.667641 31.5127521,282.099917 31.8632492,283.975413 C32.4569036,287.15655 29.8960845,289.032046 28.890596,291.538529 C28.4962868,292.525402 27.5039421,293.165123 26.2991084,292.553786 C24.152314,291.468662 23.3264553,292.817971 22.1457183,294.337581 C17.92661,299.7632 14.9999596,305.876573 12.4479029,312.153698 C11.2255444,315.162351 9.14227757,317.365348 7.11815707,320.155667 C6.04037863,315.590287 1.57373178,320.013749 0.0687850471,316.858812 C-0.336477173,315.839188 1.15313531,315.839188 1.22323472,314.978949 C1.28019049,314.291195 1.37876779,313.04232 1.55401632,313.024853 C2.56388596,312.926603 2.09071494,314.284645 2.54855171,314.448396 C3.42698496,314.764981 3.0085791,313.856709 3.13782489,313.470256 C3.84977203,311.330575 4.62743737,309.302246 3.23640219,306.992264 C2.57922021,305.902773 2.40835289,304.186662 2.708466,302.918137 C4.18493484,296.695596 3.85634385,290.224154 5.59349488,284.03218 C9.30657306,270.803277 11.9637789,257.177004 18.2705353,244.86729 C21.6944534,238.18188 23.0241516,230.579463 28.0406407,224.540324 C30.2268661,221.907207 29.1447064,217.573261 30.800805,214.237106 C34.7833278,206.206754 37.6464506,197.687331 41.0024599,189.453927 C42.9477186,189.947364 41.5479209,191.456057 42.4263542,192.128528 C42.6410336,191.97351 42.9608622,191.864343 43.0660113,191.650375 C46.6980371,184.176776 50.005853,176.519776 54.1395277,169.336562 C55.1537785,167.572417 53.5436827,164.974234 56.1965073,164.135828 C58.9785776,163.255939 58.040998,160.775656 58.4835005,158.895794 C58.8953346,157.142566 60.6675353,156.535595 61.6073055,155.109869 C64.6193896,150.524839 66.0389027,145.282621 67.9491116,140.330789 C72.4354739,128.711013 78.838617,118.300811 86.2341049,108.416797 C87.8003886,106.32515 89.0205565,104.168002 90.058904,101.882037 C88.5868164,100.785997 88.0238305,101.606935 87.4126512,102.567608 C83.482703,108.735565 78.8101391,114.434103 75.6009005,121.062746 C74.5428375,123.25046 71.9031565,124.298467 71.2372121,126.815867 C76.4004719,114.538903 83.8288189,103.729149 92.6241043,93.7971009 C92.1071212,95.6027294 91.1520167,97.3887077 92.1728394,99.9061075 C93.8420816,97.5240753 95.2440698,95.7708471 96.3612792,93.8516846 C97.3667676,92.1246566 97.1761848,90.7425975 94.6350812,90.908532 C95.7260033,87.5025096 98.299966,85.7645649 101.574923,84.8235421 C102.021807,86.0069165 100.199222,86.8911723 101.263857,88.271048 C103.025104,87.1793742 101.688834,85.8977491 101.546445,84.7449416" id="Fill-1" fill="#FFFFFF" mask="url(#mask-2)"></path>
            </g>
            <path d="M33.1219065,274.841665 C34.9918561,273.215579 36.8336861,274.916342 38.6919192,274.873403 C37.5999436,275.730318 37.4593459,277.315332 35.5097243,277.516959 C34.4903909,277.24999 33.9022238,277.828735 33.2367279,278.252525 L33.1922053,278.243191 L33.1383096,277.326534 C32.784472,276.43228 32.9156965,275.549227 33.2648475,274.675509 L33.1219065,274.841665 Z" id="Fill-4" fill="#FFFFFF"></path>
            <path d="M49.3939394,172.055556 C47.9197908,174.207254 48.4476953,177.127565 45.2777778,179.464646 C45.8953265,176.175652 47.3844158,174.00729 49.3939394,172.055556" id="Fill-6" fill="#FFFFFF"></path>
            <path d="M191.011597,50.0032907 L190.989899,50.2171717 C192.60425,49.1247009 193.094631,46.943953 195.106061,46.2289194 L194.980211,46.1010101 C195.208042,48.875173 193.376709,49.6929535 191.011597,50.0032907" id="Fill-8" fill="#FFFFFF"></path>
            <path d="M67.8436792,130.070707 C69.7799216,132.426014 67.9852752,133.065472 66.7438408,134.186869 C65.3805681,132.454143 67.6757398,131.932825 67.8436792,130.070707" id="Fill-10" fill="#FFFFFF"></path>
            <g id="Group-14" transform="translate(4.116162, 322.707071)">
                <mask id="mask-4" fill="white">
                    <use xlink:href="#path-3"></use>
                </mask>
                <g id="Clip-13"></g>
                <path d="M3.61340678,2.2855399 C3.43092361,2.91531263 3.00833102,3.50063081 2.50650231,3.22155505 C1.77176747,2.81405505 0.554412668,2.78194899 0.44876452,1.75702475 C0.376731692,1.05069141 1.12347201,0.386342929 1.93984407,0.522176263 C2.86426536,0.675297475 3.6038024,1.20381263 3.61340678,2.2855399" id="Fill-12" fill="#FFFFFF" mask="url(#mask-4)"></path>
            </g>
            <path d="M32.9314356,278.596746 C33.8699204,277.980912 34.6931527,277.139905 36.125577,277.527853 C36.3626679,278.851761 36.26388,280.297751 34.5153346,280.653145 C32.4144457,281.079074 33.2245063,279.429615 32.9314356,278.596746" id="Fill-15" fill="#FFFFFF"></path>
            <path d="M92.7440118,85.6161616 C91.9932239,84.2366651 91.8384562,83.3531414 92.6320522,82.5595848 C93.0173249,82.1743408 93.6627391,82.2781491 93.8405572,82.7395192 C94.1994865,83.6553388 93.5935875,84.453509 92.7440118,85.6161616" id="Fill-17" fill="#FFFFFF"></path>
            <path d="M193.621171,46.0659841 C194.566213,45.0799214 195.511256,44.0968558 196.748456,42.8080808 C196.83193,45.8352035 195.627523,46.5065653 193.460186,45.8951465 C193.448261,45.8831579 193.621171,46.0659841 193.621171,46.0659841" id="Fill-19" fill="#FFFFFF"></path>
            <path d="M39.3243109,274.136364 L39.3012604,270.020202 C43.6578059,271.377436 39.8874019,272.76275 39.3243109,274.136364" id="Fill-21" fill="#FFFFFF"></path>
            <path d="M69.1515152,219.80303 C68.57786,222.729749 64.8058501,223.14285 64.3801616,226.18393 C63.3443954,227.077816 62.3109057,227.969368 61.2796923,228.858586 C60.88815,228.457154 60.4920548,228.053388 60.0959596,227.649623 C62.6591963,224.480178 65.5047077,221.658486 69.1515152,219.80303" id="Fill-23" fill="#FFFFFF"></path>
            <path d="M61.3999297,227.212121 C61.7899998,227.603981 62.18007,227.993575 62.5656566,228.385435 C61.2743899,229.812438 59.9898486,231.241706 58.7030655,232.668709 C57.3086768,232.924664 56.028619,233.393536 55.1565657,234.621212 C56.7863415,231.762676 58.0193218,228.564377 61.3999297,227.212121" id="Fill-25" fill="#FFFFFF"></path>
            <path d="M40.3383838,251.909091 C39.6745046,252.896415 39.1231099,253.991247 38.3070457,254.833764 C37.6321385,255.531473 37.0454545,255.197977 37.0454545,254.168966 C37.3542356,253.565601 37.6652222,252.960042 37.9740033,252.356678 C38.7636005,252.207482 39.5509922,252.058287 40.3383838,251.909091" id="Fill-27" fill="#FFFFFF"></path>
            <path d="M125.954545,118.682025 C127.776954,118.174246 129.049777,119.058349 130.070707,121.739009 C128.149068,122.442682 127.53651,119.153718 126.013702,119.872857 C125.994619,119.475913 125.975537,119.078969 125.954545,118.682025" id="Fill-29" fill="#FFFFFF"></path>
            <path d="M130.893939,172.055556 C133.601864,169.947992 136.311974,167.840428 138.30303,166.292929 C137.061625,168.459037 133.96904,170.246563 130.893939,172.055556" id="Fill-31" fill="#FFFFFF"></path>
            <path d="M172.884956,114.429293 C174.050526,116.288125 177.680887,118.54869 175.474075,119.829894 C173.139827,121.18493 173.646462,118.368453 173.217532,117.41515 C172.822792,116.526993 172.87874,115.482486 172.884956,114.429293" id="Fill-33" fill="#FFFFFF"></path>
            <path d="M158.883838,144.888889 C158.250278,147.127416 156.94554,148.794578 154.767677,150.651515 C155.304223,147.545737 157.493966,146.470346 158.883838,144.888889" id="Fill-35" fill="#FFFFFF"></path>
            <path d="M83.9543869,210.747475 C84.1821415,212.222401 81.7953668,212.311389 81.6745175,213.600766 C80.1964369,213.436044 79.4457766,214.590993 78.2070707,214.863636 C79.2668266,212.697634 81.3119694,211.446124 83.9543869,210.747475" id="Fill-37" fill="#FFFFFF"></path>
            <path d="M45.0490105,249.90583 C43.6698076,250.182719 42.9637086,251.195499 41.9848485,251.909091 C42.7921331,250.372267 43.1242856,248.562271 45.2777778,247.792929 C45.2007888,248.49723 45.1259995,249.20153 45.0490105,249.90583" id="Fill-39" fill="#FFFFFF"></path>
            <path d="M97.8769807,200.016973 C97.0829703,200.025736 96.2889599,200.0345 95.4949495,200.045455 C96.0103598,198.209477 97.742324,197.742814 99.6019799,196.752525 C99.76914,198.443903 97.5821289,198.709003 97.8769807,200.016973" id="Fill-41" fill="#FFFFFF"></path>
            <path d="M95.4945296,199.222222 C95.5296069,200.810859 93.3548116,200.780308 93.5769681,202.506423 C92.8442414,202.508605 92.1115146,202.512969 91.3787879,202.515152 C92.6025974,201.186196 93.5847631,199.475357 95.4945296,199.222222" id="Fill-43" fill="#FFFFFF"></path>
            <path d="M73.2676768,215.686869 C72.6084317,218.007709 71.1436714,219.253733 69.1515152,219.80303 C69.9055267,217.60822 71.7534732,216.871068 73.2676768,215.686869" id="Fill-45" fill="#FFFFFF"></path>
            <path d="M85.9685315,209.904498 C85.3022533,209.911079 84.6359751,209.917661 83.969697,209.924242 C84.952603,208.206479 86.0889666,206.730035 88.0858586,206.631313 C87.8954934,208.147245 86.009324,208.263518 85.9685315,209.904498" id="Fill-47" fill="#FFFFFF"></path>
            <path d="M51.8636364,237.914141 C51.8701335,240.342962 50.2106458,241.177126 48.5707071,242.030303 C49.194101,240.205123 50.275809,238.814849 51.8636364,237.914141" id="Fill-49" fill="#FFFFFF"></path>
        </g>
    </g>
</svg>