<?xml version="1.0" encoding="UTF-8"?>
<svg width="92px" height="160px" viewBox="0 0 92 160" version="1.1" xmlns="http://www.w3.org/2000/svg" xmlns:xlink="http://www.w3.org/1999/xlink">
    <!-- Generator: Sketch 59.1 (86144) - https://sketch.com -->
    <title>Res / Image / Couple</title>
    <desc>Created with Sketch.</desc>
    <g id="Res-/-Image-/-Couple" stroke="none" stroke-width="1" fill="none" fill-rule="evenodd">
        <path d="M77.2665961,66.2493355 C76.1851539,61.444572 76.7579726,56.8916512 76.777725,52.3584827 C78.066567,54.8077764 78.0171861,57.4299032 77.8048481,60.0619062 C77.7505291,60.7433629 77.6962101,61.2026055 78.1258241,61.9482574 C78.8418474,63.1926566 78.2690287,64.7037127 77.2665961,66.2493355 M17.2045832,49.1734134 C17.1996451,53.6275724 16.4539932,57.5928602 14.9577513,61.6223433 C12.5578386,58.4669025 13.5750856,52.748592 17.2045832,49.1734134 M91.0883156,66.1258832 C89.8537926,62.2741714 89.2809739,58.3039455 88.7970409,54.304091 C88.1699032,49.1042801 87.6267131,43.8797788 86.6390947,38.739225 C85.6564144,33.6085474 84.3132533,28.5321889 82.8417019,23.5150874 C82.2639452,21.5398506 81.7948264,19.2337616 79.5134279,18.3449051 C79.5973755,17.9202292 79.5924374,17.6634484 79.6961373,17.4560485 C82.1948119,12.3994423 81.2170697,7.56011217 78.7480237,2.84423432 C78.3579144,2.08870625 77.7357148,1.36280672 77.0443819,0.868997524 C74.4518836,-0.992663157 69.5977392,0.286302669 68.0076736,3.28372451 C66.2694652,6.55274141 65.4201134,10.0785391 65.8941702,13.7870462 C66.150951,15.8116639 66.7632744,17.7869007 67.2323931,19.8559612 C64.0325095,21.4065221 60.674607,22.9521449 57.400652,24.6656628 C55.9834196,25.4063766 54.9118536,26.5075711 54.289654,28.1717081 C53.4699308,30.3691591 52.2107173,32.4085911 50.9268134,34.9418323 C50.5021375,33.6332379 50.2009139,32.8184527 49.9688235,31.9839152 C49.3219335,29.6284453 48.1318533,27.6778989 45.8553929,26.5915187 C43.4554802,25.4508195 41.0259389,24.3743154 38.6013358,23.2731209 C37.5347079,22.7891879 36.4532658,22.3200691 35.5347806,21.9102075 C35.4853997,21.4262745 35.4063903,21.2435651 35.4607093,21.1102366 C36.9865797,17.3523486 37.8161791,13.456194 37.9100029,9.39708239 C37.9346934,8.27119742 38.2704836,7.13543626 38.1717218,6.03424175 C38.0285171,4.31084764 37.4507603,2.41462032 35.8705709,1.75785408 C34.3249481,1.11590212 32.2707018,0.873935616 30.7793981,2.14302526 C29.0708182,3.5997624 27.4906288,5.31821841 27.0610148,7.64899783 C26.6659674,9.77731548 26.4091866,11.9451379 26.2363534,14.1030841 C26.107963,15.6931497 26.211663,17.3029677 26.211663,19.0312999 C22.6809272,20.9225891 19.288458,22.739807 15.8959888,24.5619629 C14.2713565,25.4310671 12.4096958,26.1026476 11.6739201,27.9643083 C11.0566586,29.5247454 10.6665494,31.1839443 10.325821,32.833267 C9.48634539,36.912131 7.79257983,40.7292761 7.05680413,44.8624591 C6.05930955,50.4869459 4.38529636,55.9879803 3.13102099,61.5680243 C2.55326423,64.130894 2.67671653,66.6591971 4.25196788,68.9949146 C5.7778383,71.2565608 7.2000088,73.5972164 8.53329363,75.9823148 C9.05673138,76.9205523 9.4814073,78.0711277 9.47153111,79.1180032 C9.43696447,83.9869619 8.27651285,88.7028398 7.23951353,93.4236557 C6.65188058,96.0951635 5.79265258,98.7123523 5.27415292,101.393736 C4.419863,105.828143 3.87667288,110.321807 2.96312587,114.741399 C1.81748852,120.277 0.854560585,125.837292 0.56815125,131.481531 C0.252113362,137.678836 -0.00960551311,143.890956 -9.23705556e-14,150.093199 C0.00520876286,152.794336 0.647160722,155.520163 1.21997939,158.186732 C1.36812215,158.883003 2.25204062,159.663222 2.96806396,159.929879 C3.9260538,160.280483 4.33591544,159.238546 4.63713905,158.527461 C5.5309337,156.374452 6.44941881,154.221444 7.14075169,151.999303 C8.19256529,148.611772 9.1061123,145.179798 9.98509268,141.742886 C10.913454,138.08376 11.7825582,134.404881 12.5825291,130.716126 C13.2738619,127.565624 13.7034759,124.360802 14.4738183,121.23499 C15.3429225,117.724006 16.5774455,114.296971 17.4218592,110.781049 C17.7922161,109.240364 18.4391062,108.045346 19.7328863,107.294756 C22.3747655,105.754071 25.0808399,104.331901 27.821481,102.825783 C28.0980141,103.368973 28.3893615,103.704763 28.4486186,104.080058 C29.1350134,108.618165 30.1720127,113.146395 30.3695364,117.709192 C30.6608838,124.301545 30.399165,130.923526 30.2460841,137.535631 C30.1522604,141.476229 29.7423987,145.411888 29.6041322,149.357424 C29.5201846,151.925232 29.6140083,154.502916 29.7473368,157.070723 C29.7769654,157.618852 30.2065794,158.27068 30.6411315,158.655851 C32.4682255,160.260731 34.9570239,160.058269 37.1495367,158.102785 C37.7865506,157.529966 38.4976358,156.764562 38.6556548,155.984343 C39.4013067,152.201765 40.0037539,148.38462 40.5963249,144.572413 C41.2037103,140.681196 41.672829,136.765289 42.3345333,132.888887 C42.9419186,129.313708 43.7418895,125.773096 44.4430986,122.21767 C45.2726981,118.030168 46.0479785,113.83279 46.9220208,109.660102 C47.2183063,108.247808 47.9047011,106.909585 48.117039,105.497291 C48.7738053,101.146832 50.8280515,98.4111286 55.4056628,97.3691912 C59.6622981,96.3963871 59.9092027,96.1593587 61.0943448,100.499942 C61.854811,103.285025 62.284425,106.163933 62.7584818,109.01815 C63.3954957,112.830357 63.9930048,116.65244 64.4917521,120.479462 C64.9312423,123.916374 65.1534564,127.373038 65.5781323,130.80995 C66.3040318,136.651713 67.1385694,142.478662 67.8743451,148.320424 C68.1953211,150.863542 68.3879067,153.426412 68.6397494,155.979405 C68.8125826,157.678109 69.6273678,158.818808 71.360638,159.090403 C72.0914757,158.601532 72.9013227,158.206485 73.5185842,157.604037 C74.0518982,157.085538 74.683974,156.3547 74.7185406,155.68312 C74.9061881,152.152384 75.0000118,148.611772 74.9802595,145.076098 C74.9456928,139.693578 74.0370839,134.320934 74.6592835,128.928537 C75.1432165,124.770664 75.5827067,120.5881 76.348111,116.474669 C77.2320294,111.724225 78.3579144,107.013285 79.5578708,102.331974 C80.7380747,97.7247339 81.8590216,93.0730512 83.5182205,88.6287684 C85.5971573,83.0536625 88.1452127,77.6464518 90.6191968,72.2244268 C91.5475581,70.1849948 91.7598961,68.2048199 91.0883156,66.1258832" id="Fill-138" fill="#FFFFFF"></path>
    </g>
</svg>