<?xml version="1.0" encoding="UTF-8"?>
<svg width="811px" height="747px" viewBox="0 0 811 747" version="1.1" xmlns="http://www.w3.org/2000/svg" xmlns:xlink="http://www.w3.org/1999/xlink">
    <!-- Generator: Sketch 59.1 (86144) - https://sketch.com -->
    <title>Res / Image / Don</title>
    <desc>Created with Sketch.</desc>
    <defs>
        <polygon id="path-1" points="0.49670098 0.388644231 202.37353 0.388644231 202.37353 206.286401 0.49670098 206.286401"></polygon>
        <polygon id="path-3" points="0 0.559824774 97.7106 0.559824774 97.7106 104.280103 0 104.280103"></polygon>
    </defs>
    <g id="Res-/-Image-/-Don" stroke="none" stroke-width="1" fill="none" fill-rule="evenodd">
        <g id="Group">
            <path d="M807.209395,230.355337 L764.406452,230.355337 C753.28803,223.467476 748.15645,210.368596 741.950819,197.409066 C707.362382,125.146248 624.879202,76.154844 545.24027,78.3844405 C508.52362,79.3997033 477.952931,95.6040928 448.098276,113.938543 C425.264737,127.933243 403.922935,144.01819 380.4927,157.515212 C350.478926,174.794586 330.310625,203.878877 315.552362,236.725612 C373.272686,253.00963 429.501273,259.041485 486.087877,263.401143 C496.768723,264.217335 508.066154,267.362658 517.275151,272.618136 C521.690696,275.146339 521.869705,285.060081 523.838799,291.291008 C496.370926,306.480134 466.595831,307.037533 442.648459,323.998393 C434.712412,329.612199 421.207209,327.601581 410.208125,328.577029 C373.809712,331.782074 337.37152,334.56907 300.992996,337.873651 C275.533997,340.182876 259.423224,352.206771 259.542563,382.82391 C269.467595,384.854436 279.730754,388.039574 290.172922,388.915487 C315.134675,391.025641 342.940676,381.92809 364.481376,395.803348 C385.50494,409.360091 411.222507,405.318947 433.200784,422.538599 C431.231689,429.506089 428.844908,438.006426 426.318898,446.984534 C398.433338,458.351495 371.482601,472.44573 342.821337,480.16969 C314.160073,487.913557 283.390485,487.376065 252.839686,496.9912 C250.293786,536.944774 258.945868,571.244729 292.758601,593.182367 C312.449546,605.942826 334.78584,616.055639 357.321032,622.565265 C384.649677,630.428574 413.310941,635.982659 441.634077,637.316435 C463.194667,638.331698 485.292283,631.981329 506.832983,627.4226 C526.862055,623.182385 547.308814,618.94217 566.064936,611.138582 C592.299639,600.229485 617.221613,586.135249 642.581163,573.135905 C653.560356,567.522099 664.221312,561.251359 676.950812,554.224148 C682.778536,568.198941 688.009565,578.590453 691.351058,589.559272 C693.001915,594.9541 693.578721,603.454437 690.515685,607.057624 C674.365132,626.068917 662.391447,647.727855 640.41317,663.076238 C606.341869,686.905052 570.142354,706.414022 532.888678,723.235532 C463.115108,754.748491 390.696189,753.434622 319.251872,728.053053 C294.131001,719.134667 269.765943,708.165848 247.986564,690.647589 C201.404552,653.102775 169.342125,608.172423 160.908831,547.833965 C159.397203,537.004496 155.777252,526.453726 152.913114,515.823328 C152.535207,514.449737 150.88435,513.414568 146.966051,508.995189 C134.216662,508.995189 118.563355,508.796117 102.929938,509.05491 C88.6291411,509.293795 74.308454,510.747014 60.0275466,510.448408 C21.9981665,509.632216 8.67197162,498.762933 4.37576549,465.597684 C3.7790702,460.979234 1.6110773,456.559855 0,451.443727 C7.6973693,424.091354 25.5186688,410.693868 54.7965179,409.499441 C80.1361781,408.444364 105.455948,404.880991 130.59671,401.178268 C156.871193,397.296381 158.959626,393.076073 156.891083,356.048844 C139.964826,356.048844 122.660663,357.322899 105.674737,355.710423 C85.5661053,353.839155 70.1514768,344.880954 63.4287098,323.281737 C59.2717326,309.88425 61.7380732,294.794659 68.6995183,288.563733 C80.9516616,277.594914 91.6126176,262.087274 111.422901,260.554426 C131.949219,258.961857 152.395978,252.213346 172.743288,252.750838 C193.96575,253.308237 211.071016,240.587592 231.796232,239.691772 C240.368755,239.333444 249.199845,227.210013 256.539197,219.187446 C283.370595,189.904084 308.411908,158.868896 336.416807,130.77996 C367.524522,99.5656081 400.143865,69.784568 433.300233,40.6803697 C454.284018,22.2861978 479.30544,11.4766358 505.798711,6.63920751 C576.427544,-6.28050843 644.550257,-2.93611355 706.825356,40.1030634 C728.206938,54.8940479 746.147576,72.0141646 762.357798,91.6226703 C768.4242,98.9683948 774.092806,106.672447 779.642072,114.416314 C814.409518,163.04939 814.389628,163.109111 807.209395,230.355337" id="Fill-1" fill-opacity="0.3" fill="#FFFFFF"></path>
            <g id="Group-23" transform="translate(358.000000, 373.000000) rotate(90.000000) translate(-358.000000, -373.000000) translate(200.000000, 40.000000)">
                <path d="M119.030374,258.332107 C118.970149,258.053171 118.907917,257.774235 118.847692,257.493292 C118.745309,257.750154 118.556605,258.01103 118.564635,258.265885 C118.572665,258.586963 118.741294,258.906033 118.841669,259.227111 C118.905909,258.928107 118.968141,258.631111 119.030374,258.332107 L119.030374,258.332107 Z M117.643194,192.316555 C117.410324,192.661713 117.259762,192.786131 117.24571,192.924595 C117.153365,193.873781 117.01284,194.849054 117.617096,195.681849 C117.699404,195.796233 118.315705,195.744058 118.43214,195.581512 C119.118704,194.650387 118.235405,193.823613 118.157113,192.928609 C118.149083,192.808205 117.976438,192.699841 117.643194,192.316555 L117.643194,192.316555 Z M199.193713,532.71094 C198.208033,532.524314 197.778428,533.714307 197.449199,534.340409 C196.97543,535.24946 198.087583,535.632746 198.808274,535.791278 C200.213521,536.100315 200.109132,534.773863 200.402226,534.033378 C200.689298,533.314967 200.125191,532.933688 199.193713,532.71094 L199.193713,532.71094 Z M241.531809,230.386319 C239.275383,229.997013 237.428486,228.718723 235.451103,227.685254 C229.97666,224.823651 224.777245,224.309927 219.278713,228.267208 C213.862488,232.16228 209.588529,237.064733 205.141925,241.874876 C192.972482,255.031029 183.515168,270.045418 174.955204,285.681895 C173.877178,287.652508 172.867408,289.66727 173.00994,292.029197 C173.078195,293.185076 173.463634,293.939608 174.778544,293.421871 C176.402609,292.781722 177.299959,293.708834 176.436736,294.870733 C175.145916,296.604552 176.131597,297.41728 177.014895,298.529011 C181.600016,304.308407 185.655159,310.469082 189.955216,316.449152 C194.542344,322.824548 197.274547,329.980564 199.729715,337.226883 C201.418019,342.213619 199.302118,346.955533 196.604043,351.261986 C196.296896,351.747616 195.638437,352.152976 195.066301,352.311508 C187.775075,354.33229 180.584223,354.625273 173.564009,351.139575 C165.254982,347.009715 158.25685,341.228312 152.083799,334.385347 C151.224591,333.432148 150.45572,332.414733 149.162892,331.764551 C144.529591,344.023694 137.914891,355.684829 138.800197,370.474464 C142.251083,358.638743 144.110024,347.320759 148.966158,336.590748 C151.67427,342.127329 151.708397,342.917983 149.891613,347.479291 C145.726059,357.936386 143.461603,368.901184 141.255365,379.88003 C141.03454,380.981727 140.877955,382.001148 141.423994,383.128933 C144.790565,390.062202 144.451299,397.402837 143.66436,404.777588 C142.41369,416.44675 139.77584,427.778781 135.720697,438.809802 C132.811835,446.722357 128.766731,453.900447 123.167824,460.201594 C122.742234,460.681204 122.431072,461.297271 121.935221,461.672531 C119.696863,463.362201 117.849966,466.290027 118.068783,468.240573 C118.289608,470.247308 121.216537,472.500871 123.468948,473.626649 C128.834985,476.309654 133.02463,480.4355 137.463204,484.206155 C144.266609,489.987558 150.853204,496.023816 157.899516,501.526282 C159.784555,502.997219 161.278132,505.009974 163.253508,506.312345 C166.365127,508.363228 168.563336,512.039566 172.907558,511.991404 C175.84854,515.457035 180.471803,517.066436 182.316692,521.988956 C183.272261,524.535503 185.888028,527.475369 189.746436,527.419181 C191.203878,527.399113 191.537123,528.215854 191.392583,529.620569 C191.242021,531.069431 192.502728,531.428637 193.620904,531.480812 C194.781237,531.532987 195.076338,530.531626 195.48386,529.616555 C199.810015,519.905966 202.064433,509.356561 207.601107,500.123575 C209.343614,497.213809 211.266796,494.554886 213.635641,492.11871 C219.660137,485.915893 225.459794,479.500362 231.889804,473.688858 C234.854876,471.005854 237.205654,467.768991 239.59056,464.520087 C244.512941,457.809566 249.678228,451.281658 254.09472,444.209925 C261.02259,433.112682 260.536776,436.126798 251.816212,429.143361 C249.816746,427.543993 247.72092,426.06503 245.775656,424.41148 C243.954857,422.860274 242.270567,421.14853 240.369468,419.360529 C241.258789,417.753134 242.15614,416.125672 243.003303,414.592527 C247.3676,416.358454 249.073972,420.482294 251.45687,423.939898 C253.466374,426.853676 255.467848,429.562768 259.105431,430.562122 C260.98244,431.077853 262.588437,432.010985 263.576125,433.885275 C265.541464,437.611781 269.124844,436.459916 272.105976,436.201047 C275.014838,435.948198 277.648673,432.562837 278.06824,429.580829 C278.766849,424.618174 277.287324,420.060879 275.420353,415.591881 C274.906434,414.361753 273.774206,413.711571 272.67209,413.009213 C266.751984,409.228525 260.462498,405.871258 256.798818,399.431646 C256.325048,398.598851 255.399593,398.193491 254.409897,397.958703 C253.398119,397.715888 252.314071,396.431578 252.69148,396.016184 C254.124833,394.43889 250.826516,392.801395 252.785833,391.741839 C254.389822,390.876936 255.178768,392.86561 256.268839,393.598068 C260.643173,396.535928 264.786645,399.830986 269.273399,402.5762 C271.519787,403.950813 273.495164,405.564228 275.135288,407.460592 C276.972147,409.589737 279.160318,411.0386 281.569314,412.282775 C285.686688,414.405901 285.692711,414.39386 288.214126,410.364337 C288.362681,410.565011 288.615625,410.74963 288.621648,410.942277 C288.67585,412.294816 287.668087,414.070776 289.348361,414.827315 C291.203288,415.664123 292.83739,414.438009 293.977648,413.071422 C295.955032,410.705482 297.488759,407.964282 297.540954,404.829763 C297.627276,399.814933 296.81424,394.972682 293.985678,390.60402 C290.815841,385.707587 286.594077,381.758334 282.623249,377.580312 C281.047365,375.922749 278.869231,374.953496 276.72121,374.473886 C270.588309,373.109307 266.276207,369.386814 262.534234,364.614799 C259.64344,360.928427 252.081201,359.050123 247.801219,360.697653 C245.603011,361.542488 244.539038,363.316441 244.416581,365.52385 C244.147576,370.374127 244.422603,375.152163 247.644635,379.195733 C249.256654,381.216515 249.523651,384.539668 253.006657,384.758402 C252.773788,385.304234 251.3043,386.018631 253.368007,386.145056 C259.575185,386.526335 264.616008,389.387939 268.881937,393.778675 C270.534107,395.478379 272.107984,397.228252 274.245967,398.428279 C275.010823,398.85772 276.183201,399.670448 275.723485,401.326004 C273.286384,399.907242 270.560204,398.911902 268.637023,397.079753 C264.457416,393.096385 259.137551,391.629462 254.040518,389.678915 C250.172073,388.197945 249.134197,389.113016 249.186392,393.337193 C249.196429,394.011456 249.186392,394.627523 248.493806,394.938567 C247.730957,395.279712 247.365593,394.667658 246.923944,394.222163 C246.315672,393.604089 246.656947,392.135159 245.223594,392.271617 C243.872549,392.400048 242.822629,393.150567 241.959405,394.121826 C241.682371,394.436884 241.437456,395.285732 241.547869,395.363995 C244.709675,397.597491 241.439464,400.31461 242.089893,402.851122 C242.734299,405.349507 242.750359,408.227165 241.429426,410.787758 C235.657875,403.874557 236.882447,391.98666 244.59324,388.157811 C245.930233,387.493581 246.21329,386.28352 246.763344,385.167776 C247.27124,384.170429 247.108633,383.263385 246.385935,382.434603 C245.609034,381.888771 244.492866,381.55164 244.274049,380.570347 C243.196023,375.746156 240.650518,371.351407 240.138606,366.370692 C240.056299,365.578031 240.032209,364.777344 240.036224,363.978664 C240.078381,357.948426 245.368134,354.456708 250.826516,357.129678 C252.749698,358.070837 254.668864,358.516332 256.680375,358.879551 C257.326789,358.995941 258.414852,358.442083 258.26429,358.241409 C256.164449,355.383819 261.353827,354.585139 259.950587,352.072707 C259.66753,351.562996 258.982973,350.906794 258.511212,350.930875 C255.269105,351.091413 254.203125,348.522793 252.870147,346.455856 C250.874696,343.357458 249.377104,340.024271 248.236846,336.474358 C247.118671,332.992673 247.851407,329.76785 248.909357,326.605236 C250.26241,322.563672 253.897986,321.217153 257.633936,320.886042 C262.965846,320.412453 268.125111,321.582379 272.925035,324.044643 C273.079612,324.122905 273.03344,324.594488 273.097679,324.989815 C271.53384,326.225963 270.393582,324.572414 269.273399,324.138959 C266.436807,323.049302 263.028078,324.730946 260.488596,322.072022 C259.870287,321.42184 257.662041,321.937571 257.585756,322.886757 C257.387014,325.351027 255.34539,326.938354 255.194828,329.438746 C254.753179,336.719179 256.240734,343.487895 260.085089,349.642551 C261.654951,352.158996 263.855167,354.193825 267.105303,353.910876 C267.64532,355.393853 266.703804,355.482149 265.955008,355.62262 C265.121897,355.781152 264.222539,356.027981 264.270719,356.955092 C264.316891,357.844076 264.579873,359.003968 265.581614,359.306985 C272.065826,361.257532 276.634888,366.069681 281.914603,369.872444 C286.32708,373.051112 291.719214,373.50664 297.055139,373.498613 C297.805943,373.496607 298.604927,373.131381 299.29149,372.764148 C299.996121,372.386882 303.358678,363.902408 303.224175,363.161923 C301.995588,356.361099 299.560495,350.136208 295.294565,344.569525 C290.386237,338.166035 284.606655,332.802033 277.871505,328.419324 C277.331489,328.070153 276.7453,327.787203 276.243426,327.39589 C275.556862,326.864105 274.135555,326.864105 274.466792,325.54568 C274.775946,324.315552 276.299636,325.463404 276.92999,324.518232 C276.508416,322.49143 274.866284,320.655268 275.693372,318.341503 L275.619095,318.479967 C278.859194,323.356333 283.386098,326.908253 287.921032,330.46218 C290.313967,332.340484 292.626603,334.323138 294.989426,336.241576 C296.896547,337.786762 299.080703,338.633604 301.531856,338.320554 C302.320802,338.222224 302.904983,337.810843 303.61363,338.595476 C305.564916,340.752716 306.773429,339.069066 307.660742,337.527893 C309.262724,334.756593 309.228597,331.714383 308.606273,328.654112 C307.694869,324.193141 305.843958,320.071308 303.416895,316.304667 C298.566784,308.785432 292.474033,302.522413 284.140916,298.741724 C282.643324,298.061441 281.159784,297.61996 279.537727,297.593872 C277.303384,297.559758 275.62311,298.151744 274.719736,300.57588 C273.732048,303.21875 272.274606,305.687033 270.590317,309.110523 C268.966252,304.031477 268.287718,299.885563 270.485927,295.731622 C271.744627,293.355648 273.966925,293.781076 275.980444,294.363029 C278.297095,295.035285 280.613745,295.577104 283.022741,295.783797 C284.514311,295.912229 285.086447,295.223918 285.048305,293.855325 C284.984065,291.453264 284.432003,289.133479 283.924107,286.793626 C282.988613,282.493193 280.501326,278.714512 279.917144,274.275615 C279.732454,272.862873 278.279027,272.056166 276.831622,271.504314 C271.820912,269.597916 264.937207,272.521728 264.332951,277.725192 C262.949786,289.629142 257.02165,299.072836 249.732431,308.020866 C248.220786,309.875089 247.020303,312.026308 245.046935,313.418982 C243.083603,314.805636 243.402795,317.123415 242.40507,318.877301 C242.081863,319.447213 241.600064,319.888695 240.883387,319.4432 C240.395566,319.138176 240.375491,318.580304 240.654533,318.201031 C242.951109,315.084572 243.928759,311.267763 246.18117,308.103142 C250.473197,302.078924 253.908023,295.56105 256.670338,288.698017 C257.138084,287.544145 257.692153,286.384252 257.529546,284.439726 C253.871888,288.726111 251.68171,293.277386 249.702318,298.079502 C249.475471,295.017225 251.478953,285.703969 252.73163,283.185517 C254.492204,279.647644 256.431446,276.163952 256.903207,272.126402 C256.975477,271.504314 257.140092,270.545095 257.537576,270.368502 C262.445904,268.187181 260.940282,263.541591 261.416059,259.849199 C261.753318,257.226396 261.291594,254.356766 260.566888,251.772091 C259.510945,248.015484 256.945365,245.559241 252.914312,245.577301 C252.219719,243.658863 253.932113,242.940452 254.164983,241.449448 C254.614662,238.597878 257.704198,238.098201 259.986722,240.177178 C264.499573,244.282957 266.412717,249.602811 266.770051,255.542746 C266.918606,258.02909 266.794141,260.533495 266.794141,262.92753 C268.078939,263.266668 268.548693,262.439893 269.233249,262.094735 C273.932798,259.714747 278.038128,260.798384 280.856652,265.177079 C282.17357,267.219935 282.996643,269.463465 283.57681,271.819371 C284.80339,276.79808 286.363215,281.636318 289.067312,286.075215 C290.552859,288.513398 289.635433,290.937533 288.370711,293.291433 C286.732594,296.339663 286.877134,296.722949 289.954625,298.41262 C293.861213,300.559826 297.151499,303.63013 301.146417,305.693054 C302.527574,306.407451 303.26031,308.43626 304.215879,309.91121 C309.473511,318.006378 314.381839,326.256064 315.726862,336.077024 C315.967761,337.83091 316.092226,339.538642 315.807162,341.328649 C315.485962,343.353444 312.998675,343.92135 312.97057,346.198994 C312.960532,347.081957 311.35855,347.039816 310.457184,346.927439 C308.435636,346.676597 306.436169,346.245149 304.286141,345.861863 C306.229397,350.667992 309.662216,354.288142 311.362565,358.989921 C313.151244,363.946556 312.386388,368.766733 311.968829,373.669186 C311.858417,374.98159 310.912886,375.956863 309.694336,376.584971 C306.263525,378.354911 302.874871,380.136892 298.759504,379.500757 C297.095289,379.243895 295.358805,379.458616 292.739023,379.458616 C296.025294,383.526267 298.11309,387.230699 300.319328,390.864896 C302.284667,394.105772 303.115771,397.577423 303.230198,401.319984 C303.344625,404.996322 302.383034,408.58637 302.834721,412.336957 C303.186033,415.258763 299.472165,418.638104 296.276231,418.882926 C291.821597,419.222064 287.324805,419.884287 283.127131,418.042104 C281.88449,419.294307 282.526889,420.295667 282.896269,421.297028 C283.556735,423.097069 284.140916,424.927211 284.88369,426.689124 C286.244772,429.915954 286.218675,432.707322 282.751729,434.601679 C283.309813,433.146796 283.765514,431.673853 283.745439,429.558755 C282.051113,431.406957 281.822258,432.899968 282.876194,434.569571 C282.035053,435.107376 281.450871,435.777626 281.352504,436.851229 C281.234062,438.155606 282.378335,437.589707 282.747714,437.934866 C283.847822,438.960307 282.585107,439.692765 281.902558,440.049964 C277.791206,442.193157 273.531299,443.176457 269.076664,441.037277 C268.221471,440.627904 267.440555,440.059998 266.240072,439.331553 C265.212234,442.450019 263.802972,445.12901 263.53999,448.345805 C263.186671,452.676339 260.281824,455.897148 258.011345,459.360772 C251.958744,468.599779 244.629375,476.773209 236.950702,484.665697 C233.495801,488.215611 229.474786,491.12337 226.23268,494.950213 C219.864902,502.471454 214.743779,510.723148 211.003814,519.781548 C209.227179,524.085994 207.149421,528.227895 205.248322,532.464112 C205.117835,532.757095 205.021475,533.070146 204.860875,533.343062 C202.656644,537.057528 202.566307,537.2281 206.368505,539.18868 C209.829428,540.972667 212.503413,544.087119 216.444128,545.028278 C217.795173,545.351362 218.357272,546.675807 219.292765,547.522649 C220.503286,548.612306 220.111824,549.659822 219.252616,550.871889 C217.512116,553.332146 215.066986,555.296739 212.447203,555.950935 C210.393535,556.462652 209.841473,557.377723 208.952152,558.844646 C206.474902,562.932365 203.921367,566.991989 201.118902,570.858967 C195.672565,578.372182 189.654091,585.417828 183.40074,592.290894 C169.725676,607.333378 156.251361,622.554461 142.441795,637.480554 C136.84891,643.524839 132.022889,650.35777 127.495985,657.349234 C125.416219,660.562016 123.039344,663.955405 118.990224,665.388213 C117.755614,665.825682 116.446726,666.377534 115.420896,665.637049 C114.047768,664.645722 115.081629,663.41158 115.591533,662.227606 C116.725768,659.598784 117.588992,656.979995 120.525958,655.499025 C121.965333,654.772587 122.896812,652.938431 123.91662,651.505623 C132.570936,639.340797 142.451832,628.205426 152.398976,617.106176 C158.812927,609.952167 164.977948,602.567383 171.052631,595.124404 C172.82525,592.955123 175.029481,591.247392 176.655553,588.899513 C179.092653,585.39174 182.29461,582.618433 184.143514,578.446431 C186.452135,573.228921 190.635757,568.930495 194.731049,564.93308 C198.208033,561.539691 200.633088,557.243272 204.493503,554.243204 C205.101775,553.771621 204.917085,553.213749 204.794628,552.559553 C204.168289,549.248441 203.845082,546.142016 199.54904,544.939982 C197.005542,544.229597 194.719004,542.004129 192.719538,540.049569 C187.477965,534.926375 181.901141,530.276771 175.918802,526.0245 C172.090507,523.307381 168.838363,519.789575 165.273049,516.68917 C158.311053,510.630838 151.405265,504.528358 144.660078,498.20915 C138.049393,492.016366 131.93456,485.275745 124.81397,479.556551 C120.271006,475.908307 115.699938,472.179794 111.466128,468.156291 C107.047629,463.956195 101.916468,460.330025 99.0678313,454.661 L98.9714715,454.757323 C102.400275,456.190131 104.951803,458.863102 107.780365,461.114658 C109.1555,462.212342 110.392118,462.14612 111.692975,461.520019 C112.628468,461.072517 113.072125,458.893203 114.517522,461.094591 C114.846752,461.596275 115.583503,460.76348 115.976972,460.287884 C121.666216,453.426858 123.647615,448.989967 125.920101,438.872011 C127.010171,434.015713 127.59636,429.081152 128.551928,424.212813 C128.877143,422.561271 128.110279,421.192678 128.252811,419.603344 C128.499734,416.797929 129.951153,414.355732 130.109745,411.476068 C130.22618,409.300768 130.701957,407.081319 130.804339,404.839796 C131.400566,391.717758 132.591011,378.633848 133.058757,365.497762 C133.239432,360.42875 134.389727,355.357731 135.122464,350.292733 C135.939515,344.635748 139.095299,339.847679 141.996131,335.043556 C145.997071,328.423338 146.137595,328.214637 140.733416,322.902811 C137.848643,320.069301 135.313176,317.239805 134.951826,313.007602 C134.897624,312.397554 134.55635,311.787507 134.249203,311.231641 C130.836459,305.076986 127.415686,298.926344 123.958777,292.795769 C123.495045,291.973008 122.928931,291.152254 122.24036,290.520132 C119.548308,288.055862 119.036396,285.162151 119.018329,281.503873 C118.994239,276.771993 117.450474,272.068206 116.81209,267.318265 C115.515248,257.706006 115.942845,248.170003 118.418087,238.746376 C119.712923,233.823856 121.923176,229.025753 121.403234,223.796203 C120.688566,216.628146 119.419828,209.548386 116.878338,202.755589 C114.758422,197.098604 112.253067,191.529915 112.459839,185 C114.087918,185.820755 113.885161,187.947893 115.541345,188.379341 C116.912465,187.528486 114.728309,185.854869 116.304194,185.048162 C116.559146,185.084283 117.042953,185.046155 117.087117,185.170572 C119.945792,192.934629 123.438836,200.365568 125.578827,208.522945 C127.895477,217.356591 127.76499,225.130681 123.864425,233.085378 C118.404035,244.222755 119.566375,255.915999 121.515654,267.46275 C122.24036,271.741109 123.220018,276.382686 125.877943,280.073071 C127.923582,282.910594 127.249063,286.972225 130.364698,289.193681 C129.670104,294.371056 133.311702,298.079502 135.122464,302.331773 C137.045645,306.854953 140.097039,310.908557 142.744927,315.112666 C143.754697,316.716047 144.742386,317.95621 146.964684,318.784991 C149.714954,319.812439 152.228339,322.417181 152.922933,325.866758 C153.113645,326.81193 153.199967,327.831351 153.988913,328.485547 C157.750961,331.612039 159.640015,336.329873 163.550618,339.39215 C167.714165,342.651087 171.51837,346.387627 176.657561,348.151547 C180.116477,349.337527 180.355369,349.239197 183.370628,345.916045 C184.037117,347.641836 183.444905,350.270659 186.564554,349.975669 C189.258614,349.720814 191.599355,349.387696 192.779763,346.455856 C193.873848,343.742751 193.550641,341.125969 192.7898,338.471059 C191.282171,333.199367 188.921355,328.302934 186.120898,323.611188 C180.202799,313.695912 173.935396,304.021444 166.879046,294.858693 C161.790043,288.252522 157.712819,281.082459 155.289771,272.591964 C158.744672,272.608018 160.298474,274.680975 161.663571,277.077016 C163.859772,280.92794 166.092108,284.758797 168.701853,289.27997 C170.592914,284.227012 171.769307,279.800155 173.724609,275.670295 C179.062541,264.400473 186.741214,254.695904 194.464052,245.077624 C201.293554,236.575089 208.749395,228.602332 217.865436,222.393495 C221.456846,219.947285 225.253022,217.900416 229.274037,216.268941 C231.58868,215.329789 233.658409,215.408051 235.127896,217.804093 C235.374818,218.203433 235.788362,218.50043 236.113576,218.855622 C240.016149,223.111906 240.016149,223.111906 241.746611,230.031127 L241.531809,230.386319 Z" id="Fill-1" fill="#FFFFFF"></path>
                <g id="Group-5" transform="translate(27.971471, 0.000000)">
                    <mask id="mask-2" fill="white">
                        <use xlink:href="#path-1"></use>
                    </mask>
                    <g id="Clip-4"></g>
                    <path d="M61.5706225,180.412603 C63.3955245,178.833045 63.2648873,177.691584 61.7595441,176.50993 C61.6972402,177.773978 61.6409657,178.947593 61.5706225,180.412603 M124.318711,150.208084 C122.37523,152.324209 119.477093,152.505074 117.085426,153.72692 C103.973466,160.418939 90.819299,167.028564 77.07425,172.384189 C73.5550833,173.754747 69.6440049,174.080305 66.5087108,176.505911 C73.2596422,175.326266 79.831701,173.523641 86.0721422,170.641853 C96.6236127,165.768536 107.175083,160.895218 117.674299,155.913382 C119.965475,154.82618 122.224495,153.592276 124.153907,151.849939 C124.83523,151.234997 124.543809,150.778814 124.312681,150.206074 C125.703466,150.467324 127.251015,151.232987 128.165475,149.032459 C126.623956,149.213324 125.727583,150.531632 124.318711,150.208084 M5.45287745,85.7617279 C8.96802451,89.8975163 12.0550833,94.3347471 14.8125343,99.0050933 C18.5186127,105.283132 22.2327304,111.557151 25.8664559,117.875382 C26.224201,118.498362 26.664348,119.08517 27.1929265,119.03292 C29.4760637,118.807843 28.6480245,121.80217 30.5091029,122.045334 C33.0776324,122.380939 32.4726814,124.979372 33.4695441,126.446391 C34.0805245,127.354737 34.3719461,128.538401 35.4994461,129.060901 C36.7415049,129.635651 36.8761618,130.660555 36.6952794,131.882401 C36.3214559,134.428584 37.4489559,136.412074 38.8698873,138.463891 C42.9718971,144.37618 45.3615539,151.198824 48.6194461,157.565286 C51.0955245,162.408459 53.0430245,167.516901 55.8728284,172.193276 C57.1972892,174.385766 58.8855245,175.081093 60.8149363,173.459334 C64.8948382,170.026911 69.9474853,168.913584 74.7247892,167.165218 C82.5549853,164.295487 90.2645931,161.20068 97.7068971,157.400497 C106.134005,153.097911 114.663613,148.990257 123.221358,144.95093 C129.04175,142.201776 134.37376,138.622651 139.892681,135.377122 C147.769103,130.742949 155.480721,125.823411 163.521946,121.472593 C168.741407,118.649084 173.173025,114.69617 178.499005,111.516959 C174.887387,106.350237 171.356162,101.408593 167.939495,96.3865644 C163.562142,89.951776 158.443172,84.0113529 155.547044,76.5938625 C154.401456,73.6638433 152.265034,71.1116317 150.508466,68.434824 C142.77876,56.6444106 134.962632,44.912276 127.307289,33.0736317 C124.190083,28.2525644 121.175377,23.3551317 119.217828,17.8789298 C118.717387,16.4782279 120.417681,13.885824 117.262289,13.7250548 C114.79425,9.65558365 113.558221,5.21634327 113.315034,0.3872375 C116.112681,4.22560288 118.641015,8.13229519 120.321211,12.5655067 C121.486897,15.6341894 122.907828,18.6285163 126.740525,19.0666125 C127.847926,19.1932183 128.493074,19.816199 128.969397,20.6019587 C131.624348,24.9648337 135.221897,28.7208048 137.171407,33.547901 C138.375279,36.5221317 141.205083,38.2986317 142.921456,41.0055837 C147.525917,48.2763721 151.481211,55.9068817 155.932926,63.252026 C158.883319,68.121324 162.181407,72.7896606 165.495574,77.4238337 C168.582632,81.7364683 171.225525,86.3083433 173.948809,90.8420356 C175.58077,93.5509971 176.822828,96.5814971 179.724985,98.374074 C180.518858,98.8644202 180.991162,99.7908529 181.061505,100.833843 C181.170034,102.421439 182.040279,103.239353 183.485328,104.031141 C185.495132,105.13442 186.471897,106.617516 185.374544,109.495286 C183.794838,113.625045 184.966554,115.554276 188.646505,117.644276 C186.333221,121.213353 185.816701,121.341968 183.207975,118.815882 C182.295525,117.931651 181.52376,116.902728 180.609299,115.853709 C178.85675,117.067516 177.632779,118.188882 177.184593,120.033709 C175.834005,125.624459 171.794299,129.320141 167.859103,133.074103 C166.932583,133.960343 166.020132,134.896824 164.958956,135.600189 C163.296848,136.703468 162.86474,137.836891 164.136946,139.555112 C164.573074,140.14192 164.824299,141.098497 164.71577,141.817939 C164.281652,144.695709 165.485525,147.075093 166.562779,149.60118 C169.388564,156.218843 172.332926,162.754112 176.382681,168.736737 C177.00974,169.661161 177.349397,170.537353 178.850721,169.540584 C179.731015,168.953776 180.275672,170.519266 180.844446,171.198516 C183.209985,174.020016 184.628907,177.70967 187.651652,179.865987 C191.582828,182.665382 193.466015,186.75093 195.686848,190.701834 C196.309887,191.807122 197.025377,192.932507 197.943858,193.788603 C201.641897,197.237103 203.488907,201.188007 201.659985,206.286401 C200.220966,206.274343 199.843123,204.82943 199.011064,203.931132 C198.466407,203.342314 198.036309,202.588709 197.389152,202.160661 C187.024593,195.333997 178.010623,182.390064 172.549985,172.494718 C168.970525,166.00768 166.016113,159.303603 163.919887,152.205641 C163.576211,151.042074 163.670672,149.753911 162.219593,148.976189 C161.264936,148.463737 161.413662,147.416728 162.65773,146.858055 C164.287681,146.124545 163.805328,144.587189 162.726064,144.460584 C160.057044,144.151103 160.169593,141.964641 159.28126,140.137901 C152.070083,144.171199 144.792583,147.868891 137.898956,152.179516 C125.196995,160.123526 111.765475,166.542237 98.0284657,172.408305 C87.2458676,177.010324 76.2482206,180.900939 64.681799,183.043189 C60.2883676,183.857084 55.7964559,184.019862 51.4613088,185.229651 C50.2493971,185.567266 48.8485637,185.537122 48.1210147,184.043978 C49.1500343,183.119555 50.6171912,183.621959 51.7306225,182.950747 C53.1656225,182.086612 55.3120931,181.497795 53.0490539,179.303295 C54.8639069,176.98018 53.0048382,176.489834 51.3909657,175.519189 C49.6082696,174.448064 45.5745931,166.747218 44.7123873,163.622266 C44.6319951,163.326853 44.5315049,162.995266 44.3325343,162.780237 C38.8055735,156.849862 36.6611127,148.849584 31.9199853,142.404747 C30.8949853,141.016103 27.8280245,139.748036 29.8378284,136.952661 C29.8820441,136.888353 29.7353284,136.558776 29.6589559,136.550737 C25.6614559,136.158862 25.8081716,132.004987 23.6777794,129.896901 C21.5634657,127.802882 20.4379755,125.194401 19.4973873,122.181987 C18.3538088,118.514439 15.4114559,115.389487 13.1564559,112.093718 C11.9746912,110.367459 10.6462108,108.767805 10.5557696,106.525074 C10.531652,105.910132 10.3648382,105.090209 9.94880882,104.732497 C5.85081863,101.231747 5.29008333,96.022824 3.31846569,91.4851125 C2.53062255,89.6724394 0.753955882,88.3099202 0.643416667,86.121449 L0.49670098,86.1757087 C1.05743627,86.3646125 1.77292647,86.3947567 2.15076961,86.7685452 C4.16459314,88.7620837 4.13444608,88.7902183 5.45287745,85.7617279" id="Fill-3" fill="#FFFFFF" mask="url(#mask-2)"></path>
                </g>
                <g id="Group-8" transform="translate(0.971471, 451.000000)">
                    <mask id="mask-4" fill="white">
                        <use xlink:href="#path-3"></use>
                    </mask>
                    <g id="Clip-7"></g>
                    <path d="M97.7106,3.3706 C97.2366,3.3486 96.4806,3.1226 96.3306,3.3326 C93.5766,7.1686 87.6306,8.2366 87.1266,14.0706 C86.9686,15.9166 86.6446,17.9166 84.7126,19.0086 C84.5786,19.0846 84.3726,19.2186 84.3726,19.3286 C84.3206,24.3806 79.0386,25.5386 77.0886,29.1166 C74.9986,32.9526 71.4066,35.4966 69.0346,39.0646 C68.6886,39.5846 68.2026,40.2526 67.6706,40.3746 C62.8786,41.4686 62.0866,46.2266 59.5586,49.3266 C57.4946,51.8566 56.2766,54.8166 52.6606,56.0286 C51.0126,56.5786 49.0586,58.6106 49.6206,61.3786 C49.9146,62.8166 49.7546,64.3326 47.5166,63.8266 C46.4986,63.5966 46.2146,64.4166 45.7266,65.0386 C40.5206,71.6666 35.2266,78.2166 29.6966,84.5866 C27.7026,86.8846 25.3506,88.7466 23.2986,90.9506 C21.3586,93.0286 19.2646,94.9126 17.4706,97.1826 C14.0866,101.4626 9.4366,103.8286 3.9166,104.2466 C3.1286,104.3066 2.2886,104.3026 1.5386,104.0946 C-0.2354,103.6006 -0.4974,102.0206 0.8666,100.7166 C7.3206,94.5586 13.8346,88.4646 20.1846,82.2026 C28.6506,73.8566 34.9066,63.7606 41.9286,54.2766 C43.2586,52.4806 44.5306,50.6366 45.7486,48.7606 C47.8506,45.5206 47.8326,45.4426 46.5126,41.8786 C48.0586,41.4206 49.6086,43.5306 51.3366,41.1026 C56.6526,33.6366 63.7606,27.7086 69.8346,20.8806 C74.4386,15.7066 79.1906,10.6066 82.4946,4.3826 C83.0586,3.3186 84.2086,1.0106 86.0786,3.8066 C86.9506,5.1126 88.2906,3.8166 88.7766,2.9826 C90.3426,0.3026 93.1246,1.2326 95.3246,0.6446 C97.3886,0.0946 97.0166,2.3586 97.6146,3.4666 L97.7106,3.3706 Z" id="Fill-6" fill="#FFFFFF" mask="url(#mask-4)"></path>
                </g>
                <path d="M241.780899,229.944721 C243.085838,226.980698 242.813727,223.730865 243.2785,220.628934 C243.721425,217.686896 242.813727,217.285164 239.888042,218.218542 C239.329917,218.396423 238.714192,218.398422 237.746908,218.53633 C238.384481,216.281834 238.146136,213.787497 240.148235,212.724206 C241.828568,211.828804 238.740013,209.734201 240.918884,210.028005 C242.750169,210.275839 244.968764,210.999357 245.616268,213.379769 C246.005565,214.808816 246.607386,216.057983 247.926229,216.865444 C249.100078,217.584964 249.515196,218.336463 247.948077,219.139927 C247.773291,219.231866 247.675967,219.751519 247.745484,220.021339 C249.352327,226.311144 247.445566,232.357112 246.486227,238.461041 C245.030336,247.72686 242.00534,256.487018 236.424093,264.002005 C232.646324,269.084615 229.146624,274.485013 224.298288,278.724186 C223.076769,279.793473 221.396437,280.792806 223.223749,282.909394 C223.738177,283.502998 223.009238,284.7002 221.904906,285 C218.899772,280.173219 219.285097,277.912727 223.855363,273.457698 C229.859673,267.603603 234.559043,260.832119 237.431101,252.923394 C239.717228,246.627594 240.626911,239.942053 242.289368,233.464373 C242.599217,232.251182 241.94774,231.319804 241.57036,230.298485 L241.780899,229.944721 Z" id="Fill-9" fill="#FFFFFF"></path>
                <path d="M28.1730165,85.9471426 C25.2662232,82.3508796 24.2162262,77.7933944 21.9714715,73.9935324 C22.5138413,72.8698225 23.8958227,74.8392513 24.1062081,73.1360674 L24.0154915,73.2378669 C24.7547357,73.0068603 25.6348803,72.7738961 26.1425075,73.421889 C28.4258651,76.3270901 31.3847722,78.9229773 30.9234684,83.2142176 C28.792592,82.8990307 28.6555519,84.7079295 28.0340463,86 L28.1730165,85.9471426 Z" id="Fill-11" fill="#FFFFFF"></path>
                <path d="M274.971471,318.162741 C274.585568,318.732659 273.825634,319.250402 273.415982,318.869119 C271.61114,317.187459 269.923058,315.361313 269.972533,312 C272.840095,313.627477 272.18109,317.354019 274.886375,318.321275 C274.898249,318.301207 274.971471,318.162741 274.971471,318.162741" id="Fill-13" fill="#FFFFFF"></path>
                <path d="M301.115595,330.5 C301.513595,332.393382 301.813595,333.792279 302.087595,335.196691 C302.103595,335.28125 301.915595,335.398897 301.823595,335.5 C300.741595,333.669118 300.741595,333.669118 300.987595,331.115809 C301.035595,330.602941 301.135595,330.558824 301.115595,330.5" id="Fill-15" fill="#FFFFFF"></path>
                <path d="M245.820893,382.526199 C246.520314,383.43013 246.678122,384.414846 246.185215,385.5 C245.236419,385.21179 244.435689,384.646288 244.472706,383.451964 C244.494136,382.683404 245.131213,382.408295 245.820893,382.526199" id="Fill-17" fill="#FFFFFF"></path>
                <path d="M33.1863407,86.5 C33.0119472,85.0741008 32.283598,84.2552677 31.4714715,83.5258473 C33.1111121,83.3493746 33.9505945,84.0482064 33.1863407,86.5" id="Fill-19" fill="#FFFFFF"></path>
                <path d="M24.4459845,73.4216979 C24.0459845,72.5659705 23.7319845,71.7067503 24.5039845,70.5 C25.3519845,71.6945256 24.6639845,72.5921662 24.3659845,73.4985387 C24.3519845,73.5125098 24.4459845,73.4216979 24.4459845,73.4216979" id="Fill-21" fill="#FFFFFF"></path>
            </g>
        </g>
    </g>
</svg>