<?xml version="1.0" encoding="UTF-8"?>
<svg width="99px" height="125px" viewBox="0 0 99 125" version="1.1" xmlns="http://www.w3.org/2000/svg" xmlns:xlink="http://www.w3.org/1999/xlink">
    <!-- Generator: Sketch 59.1 (86144) - https://sketch.com -->
    <title>Res / Image / Exclamation</title>
    <desc>Created with Sketch.</desc>
    <g id="Res-/-Image-/-Exclamation" stroke="none" stroke-width="1" fill="none" fill-rule="evenodd">
        <g id="Group" fill="#FFFFFF">
            <path d="M82.6775486,10.8351649 C82.1050916,9.23176626 81.472376,7.64604565 80.9779008,6.01966554 C80.6695184,5.00494577 80.3753146,3.92128163 80.4125331,2.8800448 C80.4710194,1.12815057 81.7470845,0.0338796046 83.4750892,0.0175438596 C86.9470495,-0.0156189205 89.3059976,1.94310843 91.1899658,4.55062002 C91.8085029,5.40800519 92.1895501,6.50934738 92.4288123,7.55588762 C93.7686806,13.4585867 95.353128,19.3312332 96.2286504,25.3046445 C97.0829051,31.1419349 97.3168504,37.0852935 97.5773803,42.993296 C97.8680396,49.5288691 97.9353874,56.0785847 97.9938738,62.6229968 C98.0364093,67.5869918 97.9194366,72.5368443 95.585301,77.1419749 C95.1900753,77.9251123 95.2928694,78.9698848 95.211343,79.8962143 C94.9419515,82.9226956 94.9508131,82.9226956 91.9626941,85.0175439 C90.0840428,84.6887322 89.0064767,83.5962291 88.6520142,81.6763934 C88.3702165,80.1543138 87.9271384,78.6640546 87.5567251,77.1614208 C86.7645013,77.014693 86.0307639,76.8785721 85.1516969,76.7159341 C85.0878937,75.6322699 84.9797826,74.5539092 84.9744657,73.4773163 C84.9124347,62.2659003 84.9212963,51.0527166 84.7972344,39.8430684 C84.7050741,31.2480031 83.1206267,22.8668421 80.9034637,14.5846782 C80.2228957,12.0408076 79.708925,9.45274182 79.1169726,6.88412192 L79,6.96720873 C80.6659738,7.0343853 80.7191432,8.50519862 81.1728552,9.55704228 C81.4954161,10.3048236 81.699232,11.0031063 82.7041333,10.8121835 C82.6243792,11.8587237 82.3603046,12.9211742 82.5393082,13.9040735 C82.8600968,15.6718779 83.4467322,17.3901839 83.9146227,19.1314713 C84.3098484,20.5934456 84.6501325,22.0730979 85.1233399,23.5085552 C85.2172725,23.7914039 85.8092249,23.9098468 86.1654597,24.1131443 C86.3267401,24.6841451 85.7844125,25.4230874 86.7414613,26.0612648 C86.4702975,25.2710562 86.285977,24.7371793 86.1016564,24.2033023 C85.8818897,22.6847583 85.8145418,21.1237869 85.4104545,19.6547414 C84.5951908,16.6901333 83.6009234,13.7732559 82.6775486,10.8351649" id="Fill-189"></path>
            <path d="M95.9189808,119.017544 C93.0576702,118.694083 90.1786534,118.370622 87.1827762,118.033173 C86.2602868,113.824684 89.0029664,111.623401 91.5260899,109.530521 C93.2365021,108.109042 95.0000327,110.076034 96.7954343,110.233393 C97.8631139,110.326061 98.640413,111.369878 98.8528866,112.511608 C99.0511953,113.562419 99.1680557,114.620223 98.3942978,115.588858 C97.5390917,116.657153 96.7865812,117.805877 95.9189808,119.017544" id="Fill-191"></path>
            <path d="M47.2511816,30.8171687 L47.1040337,31.0731085 L47.3093563,31.1228745 L47.2511816,30.8171687 Z M46.3939596,26.7185775 C46.4949099,26.7096907 46.5958602,26.7025813 46.6985215,26.6954718 C46.657457,26.1373809 46.6181035,25.57929 46.577039,25.0211991 L46.2776101,25.0443048 C46.3152526,25.6023957 46.3546061,26.1604866 46.3939596,26.7185775 L46.3939596,26.7185775 Z M43.0164025,12.3130781 C43.6392144,12.2153233 43.8205828,12.6134519 43.9386433,13.1466597 C44.152521,14.1153207 44.383509,15.080427 44.6572724,16.0330917 C44.7137362,16.2286012 44.9857886,16.3565711 45.2629742,16.6142883 C45.2629742,15.6705103 45.3587914,14.8102683 45.245864,13.978464 C44.8625951,11.1169151 44.3646877,8.26780769 43.996818,5.40270405 C43.8548032,4.29540903 43.8513812,3.14545738 43.9540425,2.03105292 C44.0618368,0.89887487 44.8095534,0.205704634 45.8566988,0.0724026657 C46.9620189,-0.0680087411 48.0245634,0.0208592379 48.9450932,0.818893689 C49.7817829,1.54227904 50.6646701,2.20523416 51.7956556,3.10991019 C52.2696086,6.460233 52.8633332,10.0451673 53.2551572,13.6549846 C53.6042057,16.8915564 54.1500216,20.0854715 54.1962192,23.3878056 C54.254394,27.5166119 55.0465971,31.629422 55.4726415,35.7546736 C55.6146563,37.1267952 55.5684588,38.5184677 55.669409,39.8976988 C56.3401296,49.2039535 56.1416511,58.5244272 56.1296739,67.8431234 C56.1262519,71.2485444 56.1929817,74.6450786 56.9492534,77.9865146 C57.0536257,78.4557375 56.9646526,78.9729491 56.9646526,79.5114891 C56.0817653,80.3184103 54.8908941,80.7147615 54.5589559,82.125985 C54.410097,82.7658345 53.4159933,83.3363669 52.7538278,82.8120458 C51.1488893,81.5394564 49.088819,81.7225244 47.441105,80.8978296 C46.0722875,76.2749173 45.952516,71.6466729 46.1030859,66.9846588 C46.3854045,58.1831741 46.5205752,49.3781348 46.0774206,40.5819822 C45.9148735,37.3347463 45.4460535,34.1035065 45.1209594,30.8651574 C45.0319862,29.9906965 44.9310359,29.1180129 44.8745722,28.243552 C44.7479566,26.2422451 44.4998584,24.2889269 44.0310385,22.3142804 C43.2576566,19.0368294 42.7922586,15.6634009 43.0916875,12.2455384 L43.0164025,12.3130781 Z" id="Fill-193"></path>
            <path d="M50.2419473,123.283711 C49.3229592,120.200261 51.2055132,118.36237 52.8085989,116.59829 C53.953905,115.339815 57.7481601,116.303047 58.653432,117.806943 C59.2089398,118.735115 59.0923517,120.370026 58.3345294,121.455047 C57.7687345,122.265121 57.1412165,123.023528 56.4914096,123.874198 C55.4455462,124.300456 54.5076982,123.671218 53.4652639,123.348296 C52.4999835,123.047516 51.392397,123.283711 50.2419473,123.283711" id="Fill-195"></path>
            <path d="M9.1821781,3.01754386 C12.1947437,4.7571439 13.7404768,7.02021023 14.3322307,9.96360645 C14.9221915,12.9070027 15.5767072,15.8380613 16.1792204,18.779695 C16.7458696,21.5521275 17.2264456,24.3404226 17.8361315,27.10228 C19.6777415,35.4301526 20.7142075,43.8602509 20.9903594,52.3661372 C21.0710531,54.8213174 20.6281342,57.3029353 20.2981866,59.7581155 C19.9915504,62.0299944 19.5235268,64.2824857 19.1146786,66.542027 C18.9891551,67.2346945 19.0375713,68.0859881 18.6394823,68.5777291 C17.1816157,70.3807797 17.1206471,72.4693572 16.9682257,74.5984726 C16.878566,75.8251814 16.7117989,77.1223908 16.2007387,78.2186737 C15.7201628,79.2462186 14.7446653,80.0516869 13.9287621,81.0175439 C12.4422045,79.1334178 11.2013143,77.5612564 9.49598702,75.3986533 L9.49598702,66.9156797 C8.39675921,66.7870162 7.55037173,66.6883155 6.67349995,66.5860898 C6.67349995,62.2009582 6.6878455,57.810539 6.66991356,53.4218824 C6.62329052,43.4760231 5.14211243,33.7293278 2.71771439,24.0778082 C1.57007035,19.5111378 0.94245251,14.8175665 0.0817194781,10.182158 C-0.284092061,8.21519384 0.614298042,6.73644568 2.05602587,5.53969955 C2.73205994,4.97745799 3.51389244,4.4381291 4.34234799,4.1737522 C5.85580357,3.69082372 7.43740051,3.42115927 9.1821781,3.01754386" id="Fill-197"></path>
            <path d="M21.1172186,107.985798 C20.2355823,108.304347 19.2249261,108.66714 18.2483168,109.017544 C13.6860282,106.771771 13.6860282,106.771771 10.2508721,106.998295 C10.1720266,105.947082 10.0931811,104.89587 10,103.648218 C11.0984615,102.159885 13.1126062,101.706837 14.3795104,100.204346 C15.9546289,98.3337538 20.4828705,98.8098081 22.124291,100.687479 C22.9647125,101.650206 23.3356449,102.781056 22.6224513,104.120733 C21.997063,105.292287 21.6422581,106.601878 21.1172186,107.985798" id="Fill-199"></path>
        </g>
    </g>
</svg>