<?xml version="1.0" encoding="UTF-8"?>
<svg width="83px" height="160px" viewBox="0 0 83 160" version="1.1" xmlns="http://www.w3.org/2000/svg" xmlns:xlink="http://www.w3.org/1999/xlink">
    <!-- Generator: Sketch 59.1 (86144) - https://sketch.com -->
    <title>Res / Image / Famille</title>
    <desc>Created with Sketch.</desc>
    <g id="Res-/-Image-/-Famille" stroke="none" stroke-width="1" fill="none" fill-rule="evenodd">
        <g id="Fill-133" fill="#FFFFFF">
            <path d="M81.5244741,136.814923 C79.7413542,133.127718 78.0971206,129.36435 76.1706343,125.753308 C73.7423655,121.192464 71.0900867,116.743624 68.464689,112.129017 C69.0381547,111.407705 69.7684274,110.663992 70.2881307,109.794833 C71.2110521,108.240203 72.3624637,106.699014 72.7880827,104.992058 C73.5989991,101.743912 72.7298401,98.5764103 71.0184034,95.7718046 C70.0551603,94.194774 68.5453326,93.056803 66.6502077,93.3345754 C63.9844883,95.3417054 62.9182005,98.0163852 62.5284231,101.013639 C62.3492151,102.384581 62.3088932,103.773443 62.2013684,105.153345 C62.1610466,105.695449 62.1072842,106.233073 62.0311208,107.102232 C60.4137683,106.058345 59.0607477,105.216068 57.7435687,104.324508 C56.4801521,103.468789 55.1853741,102.639952 54.0250021,101.654308 C52.4703725,100.337129 50.9157428,98.9796283 49.5716826,97.4563601 C48.4247512,96.1571019 47.5779933,94.5935118 46.5923491,93.146407 C45.3154919,91.2736831 44.1192783,89.3830384 43.6846989,87.075735 C42.5064061,80.7496916 40.9338556,74.508772 40.1767017,68.0931246 C39.8003648,64.9121821 38.8371217,61.7984426 38.263656,58.6354209 C37.304893,53.3577444 35.8577882,48.236875 33.5863264,43.371377 C32.7843705,41.6554601 32.0675384,39.8364986 30.9519684,38.3356314 C28.2996896,34.7649114 26.2611983,30.7192902 22.7711219,27.9684469 C23.4700332,25.5312177 24.1062217,23.2955976 24.7424102,21.0599774 C25.4637225,18.5376244 26.2970399,16.0421526 26.8705055,13.483958 C27.3095652,11.5305905 28.0039963,9.47865855 26.6688965,7.54321184 C26.5927331,7.43120682 26.5703321,7.2609592 26.5792925,7.12207297 C26.6912975,5.31655208 25.7504554,3.90080866 24.8768162,2.45818402 C23.0936963,-0.48530785 20.2980511,-0.816842703 17.9369853,1.63382709 C17.5830495,2.00568375 17.2246334,2.37306021 16.8706975,2.74491687 C13.219334,6.6606123 12.058962,11.3021002 12.8161159,16.5215341 C13.2954974,19.7876004 14.9710924,22.5563645 16.4540389,25.4102523 C16.6690885,25.8224308 16.7810935,26.2883717 16.991663,26.8618373 C12.6548287,27.5697091 10.6208175,30.7730526 8.57784601,33.9047129 C8.12086553,34.6036242 8.00886052,35.5489465 7.82517229,36.4001847 C7.61908305,37.3275862 7.52499884,38.2773888 7.35923141,39.2137507 C6.87088953,41.9511534 6.19437922,44.6616748 5.90764638,47.4214785 C5.15945286,54.5494778 4.68903178,61.7088386 3.90499666,68.8323577 C3.11200113,76.0992433 2.10395597,83.3392476 1.13623261,90.5882124 C0.567247119,94.8578437 -0.275030616,99.0961136 0.0878656419,103.446388 C0.244672667,105.310152 0.517964911,106.085227 1.40952485,106.125548 C2.84318908,106.192752 3.14784273,105.014459 3.5824222,104.010894 C4.83687841,101.103243 5.47306691,98.0253456 6.0734138,94.9340071 C6.38702785,93.3076942 6.81712712,91.7082626 7.19346398,90.0953903 C7.45779583,90.1222715 7.72212767,90.1491527 7.99093971,90.1715537 C8.15222694,93.1956892 8.5061628,96.2287851 8.43447958,99.2484404 C8.29111316,105.090622 7.86101389,110.923843 7.63700386,116.766025 C7.49811763,120.489072 7.51603844,124.221079 7.46675623,127.948606 C7.43091462,130.726331 7.16658278,133.526456 7.41747402,136.277299 C7.94613771,142.09708 8.73017283,147.88998 9.43804455,153.69184 C9.54556936,154.556518 9.71581699,155.434638 10.0025498,156.254514 C10.3564857,157.253599 10.9837138,158.046595 12.2202492,158.028674 C13.9540869,156.536767 14.6529982,154.695405 14.715721,152.406022 C14.782924,149.928471 15.1727015,147.4554 15.5176769,144.99129 C16.0956228,140.865025 16.9558214,136.765641 17.327678,132.621456 C17.7891387,127.446824 18.398446,122.294593 19.1959217,117.164763 C19.2496841,116.842189 19.5632982,116.564416 19.7335458,116.304565 C21.279215,123.029346 22.7128793,129.655563 24.3571129,136.232497 C25.0470639,138.983341 26.0147872,141.689382 27.148278,144.287898 C28.4609768,147.285153 30.1096907,150.13456 31.5836767,153.064611 C32.3811524,154.650602 33.4026382,155.134464 35.4456097,154.699885 C35.5083325,154.027855 35.651699,153.306542 35.629298,152.59419 C35.4366493,145.797726 35.2305601,139.001261 35.0020699,132.209277 C34.9483074,130.677048 34.7422182,129.1493 34.7242974,127.626032 C34.6974162,124.919991 34.8094212,122.209469 34.7780598,119.507908 C34.7511786,116.797387 34.6078122,114.091345 34.536129,111.385304 C34.4599656,108.6255 34.4868468,105.856736 34.3255595,103.101413 C34.1553119,100.189283 33.8058563,97.2905927 33.5639254,94.3829424 C33.3354352,91.694822 33.174148,89.0022213 32.9232567,86.3185811 C32.7306081,84.1904858 32.6992467,82.075831 32.9456577,79.419072 C33.5863264,80.601845 34.0074653,81.2828355 34.3345199,81.9996676 C35.89811,85.422541 37.9366013,88.4825181 40.5395979,91.2423217 C43.285961,94.1634126 45.7993536,97.3712363 47.2016564,101.174927 C49.0654199,106.237554 51.946189,110.731195 54.6522302,115.323401 C56.0052508,117.621744 57.0849792,119.951448 57.6674053,122.572365 C58.4693612,126.147566 59.2937182,129.700365 59.0876289,133.405491 C58.9980249,135.009403 58.9711437,136.613314 58.9621833,138.221706 C58.9487427,140.417005 59.0428269,142.616783 58.9711437,144.807602 C58.8546585,148.544089 58.7829753,152.262656 59.5311688,155.954341 C59.692456,156.729416 59.9209463,157.464169 60.740823,157.594094 C61.721987,157.746421 62.2103288,156.948945 62.4388191,156.178351 C62.7748341,155.062781 62.9406015,153.897929 63.1646116,152.750997 C63.8456021,149.337084 64.5176322,145.918691 65.1941425,142.500298 C65.3778307,142.486858 65.5659992,142.477897 65.7496874,142.464457 C66.1797867,143.745794 66.7577326,145.00025 67.0175842,146.312949 C67.7971391,150.327209 68.4557286,154.36387 69.1591201,158.39605 C69.199442,158.6111 69.1187983,158.951595 69.2352836,159.032239 C69.7908284,159.413056 70.3956555,159.995482 70.9825618,160 C71.7755574,160.004442 71.8741218,159.215927 71.7800376,158.485654 C71.5963493,157.034069 71.1214481,155.519761 71.3902601,154.14434 C71.7083544,152.500106 71.3409779,150.981318 71.2737749,149.408768 C71.2558541,148.974188 71.1393689,148.535129 71.1572897,148.100549 C71.3185769,144.529829 71.4664235,140.954629 71.7038742,137.383909 C71.766597,136.380344 72.0443694,135.372299 72.3714241,134.413536 C72.7029589,133.432372 73.4287514,133.230763 74.244148,133.929674 C75.2432327,134.785393 76.0810303,135.815839 77.0442734,136.716359 C78.5765021,138.150023 80.1490525,139.538885 81.6364792,140.887426 C82.8506135,140.381163 83.2045494,139.758415 82.5728411,138.74141 C82.1875438,138.118662 81.8380882,137.473513 81.5244741,136.814923 Z" id="Fill-132"></path>
        </g>
    </g>
</svg>