<?xml version="1.0" encoding="UTF-8"?>
<svg width="652px" height="716px" viewBox="0 0 652 716" version="1.1" xmlns="http://www.w3.org/2000/svg" xmlns:xlink="http://www.w3.org/1999/xlink">
    <!-- Generator: Sketch 59.1 (86144) - https://sketch.com -->
    <title>Res / Image / Map</title>
    <desc>Created with Sketch.</desc>
    <defs>
        <polygon id="path-1" points="4.75542168e-05 0.0314420063 553.6569 0.0314420063 553.6569 589.693899 4.75542168e-05 589.693899"></polygon>
        <polygon id="path-3" points="0.697996078 0.951024951 92.3258157 0.951024951 92.3258157 200.146789 0.697996078 200.146789"></polygon>
        <polygon id="path-5" points="0.000127431989 0.19075 26.224261 0.19075 26.224261 31.9997024 0.000127431989 31.9997024"></polygon>
    </defs>
    <g id="Res-/-Image-/-Map" stroke="none" stroke-width="1" fill="none" fill-rule="evenodd">
        <g id="Group">
            <g id="Group-7">
                <g id="Group-3" transform="translate(0.000000, 0.727811)">
                    <mask id="mask-2" fill="white">
                        <use xlink:href="#path-1"></use>
                    </mask>
                    <g id="Clip-2"></g>
                    <path d="M296.7955,574.192994 C301.44825,577.699702 306.2712,580.873495 312.41875,580.575721 C313.982,580.49989 316.27785,581.071395 316.00775,578.265658 C315.81535,576.260768 314.4852,575.006787 312.41505,575.424781 C307.1111,576.493809 302.09205,575.178793 296.7955,574.192994 M65.00715,218.818793 C55.65355,210.76779 45.8171,211.642618 36.7373,209.813433 C44.52025,215.337978 53.87755,215.635752 65.00715,218.818793 M89.70465,221.827978 C81.42405,215.421207 72.1722,211.293056 61.3238,212.326944 C70.7847,215.495188 80.24375,218.659734 89.70465,221.827978 M470.6326,414.955878 C470.71215,406.118824 474.96345,396.255282 463.9393,388.822022 C463.96335,398.964843 467.3137,406.956661 470.6326,414.955878 M488.9883,156.262147 C490.99555,156.140078 493.00095,156.018009 496.8508,155.783119 C486.4353,151.262868 477.6441,147.445439 467.4025,142.999169 C472.0608,150.319608 479.3461,150.35105 483.9193,154.584624 C479.7827,155.609263 476.3898,153.332492 473.23555,151.523652 C440.84575,132.939577 410.92015,111.006003 383.92865,85.1458777 C389.26035,84.6631505 392.56815,90.7388558 398.3568,89.8899216 C394.78445,81.4764107 392.26845,72.5838715 380.0159,76.1960031 C377.9957,76.7897022 375.21515,74.135627 372.69545,73.88779 C369.5523,73.5789185 372.99145,75.7336207 372.08495,76.4789812 C368.35905,77.3020219 367.04555,73.9525235 364.894,72.1936207 C355.5552,64.5569122 347.43185,55.6033386 338.698,45.9506426 C337.99315,51.3309248 344.32015,52.2575392 342.39615,57.4769122 C334.258,47.06221 326.2475,37.3928683 322.09795,25.2470063 C321.4745,23.4233699 320.7641,22.1915831 318.42755,22.7316458 C305.7014,25.6797962 292.78285,29.0718339 284.33575,39.6381975 C273.07295,53.7223668 261.43275,67.0741223 247.3709,78.6299843 C237.4179,86.8104545 227.32245,92.0150313 214.65365,90.4614263 C206.02155,89.4016458 201.1838,93.2468182 197.40425,100.334216 C201.04135,100.559859 202.3678,96.059953 205.9087,96.7553762 C205.04475,108.152179 190.08195,107.785972 187.5937,119.105094 C187.92855,113.608292 184.8298,113.269828 181.34625,113.824687 C173.3524,115.099013 166.5,104.530799 157.9012,111.547915 C157.7051,111.708824 156.50445,110.637947 155.77,110.147821 C149.9203,106.241614 143.20295,103.572743 138.49655,98.0389498 C135.78445,94.848511 133.0668,93.1155016 128.6971,95.8232132 C124.3348,98.5253762 122.5514,101.49942 124.13315,106.668856 C125.8851,112.389451 127.52235,118.208072 126.94885,124.574154 C130.81905,123.412649 130.27145,119.192022 134.91125,117.303652 C125.6964,133.300235 125.88325,154.44406 102.0386,157.088887 C95.8226,157.780611 89.71205,158.117226 83.5423,157.854592 C76.12935,157.540172 73.1897,151.799232 70.7736,145.531176 C62.10265,155.46685 49.55595,157.558668 39.70285,157.449545 C31.82185,157.360768 27.2431,161.548103 20.96605,162.596787 C9.14455,164.575784 14.9147,172.673025 14.9073,178.802367 C14.90545,180.577915 14.8444,182.359013 14.94615,184.127163 C15.6658,196.580047 22.62735,203.432555 35.1204,203.80431 C43.6896,204.059545 52.26435,204.124279 60.8391,204.222304 C75.3875,204.392461 89.20885,207.756755 101.9313,214.696191 C108.8836,218.487727 113.96555,223.768135 117.4158,231.826536 C122.3331,243.310266 123.75575,255.84268 128.8673,266.873276 C134.5986,279.244781 133.37945,292.082367 135.18875,304.709107 C135.37005,305.974185 134.83725,307.923589 133.9178,308.66895 C127.15235,314.149107 127.84795,316.845721 134.70405,321.828354 C144.50535,328.949044 153.41495,337.286724 161.6974,346.66569 C158.42105,347.692179 152.57135,343.969075 153.67025,348.846285 C155.2816,355.983621 152.26795,361.959451 152.16065,368.399514 C151.8628,386.081019 147.73545,403.059702 144.62005,420.286223 C140.30955,444.128511 134.2286,467.526912 128.33265,490.975251 C126.25695,499.231552 123.1989,507.478605 117.9893,514.242335 C114.3448,518.973433 113.39575,519.089953 117.28815,522.611458 C118.7737,523.954216 120.74765,524.751364 122.47185,525.842586 C140.07275,536.989702 159.86405,543.205972 179.93655,546.113433 C195.42105,548.356912 212.5021,551.005439 226.47145,538.025439 C231.2204,533.61431 234.6614,531.063809 228.75065,525.298824 C226.14215,522.753871 228.2826,520.220016 230.82265,518.958636 C234.32655,517.216379 233.73455,520.856254 234.17485,522.280392 C235.15905,525.459734 237.74905,526.547257 240.12815,528.245125 C248.2034,534.00826 258.408,536.873182 264.35575,545.525282 C273.96095,559.500329 287.2421,567.939734 303.4703,572.178856 C311.99325,574.40569 315.42315,571.759013 316.84395,563.03663 C319.28965,548.031395 326.33445,534.831301 340.9328,529.793182 C353.70335,525.387602 367.43775,522.683589 381.5255,523.632398 C388.2965,524.087382 394.8973,525.559608 399.60185,529.528699 C409.3902,537.790549 420.8232,542.928542 431.6716,549.22989 C444.61975,556.750078 445.1285,556.864749 456.7983,548.28663 C460.8202,545.329232 464.92905,542.468009 469.17295,539.841677 C479.71425,533.320235 492.46445,531.121144 502.0863,522.48384 C504.67075,520.16453 507.9434,518.496254 506.5966,515.170799 C502.32495,504.613683 498.6675,493.440674 492.3183,484.191176 C485.5954,474.401614 479.1389,465.061489 476.3343,453.274436 C471.8314,434.361144 466.05385,415.743777 461.89135,396.765752 C459.71205,386.830078 459.2403,376.402429 459.096,366.181928 C458.98685,358.388009 457.16645,355.98732 449.65175,357.674091 C446.82125,358.30663 443.87235,358.650643 441.1991,359.695627 C434.44845,362.331207 434.0174,359.048292 434.42995,353.525596 C436.045,331.926787 443.80205,312.12942 453.8161,293.502806 C459.78975,282.388981 466.7809,270.783182 480.3525,266.242586 C484.4817,264.860987 487.04025,261.637257 487.73585,257.161395 C489.58585,245.243025 494.4088,234.382586 499.352,223.503652 C506.2821,208.254279 514.337,193.395157 516.3054,176.298103 C516.6495,173.320361 517.2193,169.765564 520.5604,166.878448 C521.7777,171.407947 517.53565,174.298762 519.5984,178.35848 C522.45295,176.144592 527.14085,175.91895 525.24645,170.233495 C523.4242,164.753339 518.49395,165.350737 514.46835,164.498103 C513.06975,164.202179 509.8415,165.802022 509.74345,164.681207 C508.99235,155.931082 502.89845,160.556755 499.02085,160.238636 C495.17285,159.920517 491.3822,160.020392 488.9883,156.262147 M119.1955,480.889765 C121.3859,482.062367 122.0149,480.849075 122.914,478.971803 C126.1367,472.243213 125.47995,464.996755 126.2218,457.903809 C121.86505,465.026348 120.20005,472.896097 119.4175,481.034028 C117.5416,487.720078 115.66755,494.404279 113.7935,501.090329 C117.31405,494.740893 124.62895,489.197853 119.1955,480.889765 M553.6569,173.627382 C548.02735,175.203182 539.19545,169.998605 538.3944,179.14453 C536.7701,197.641677 522.00155,209.184592 515.1362,225.057257 C507.83055,241.952712 498.2531,258.256317 491.28785,275.606755 C489.473,280.125157 487.0236,281.495658 481.91575,280.901959 C468.7937,279.376097 466.5034,280.711458 462.33165,292.748197 C455.65315,312.01105 449.57405,331.4829 442.86965,352.007132 C451.34265,349.016442 459.1219,348.043589 466.87895,347.065188 C471.66305,346.464091 475.6831,346.835846 477.0114,353.348041 C478.8799,362.512461 483.26625,371.588103 472.2495,378.176129 C468.864,380.199514 469.44675,382.629796 471.9461,385.385596 C474.78955,388.524248 478.10845,390.691897 481.91945,392.397163 C488.29825,395.249138 490.3906,403.006066 485.4141,407.772304 C482.10445,410.942398 482.4467,414.055157 481.97495,417.881834 C480.1231,432.890768 482.76305,446.745596 488.84955,460.609671 C492.86775,469.762994 497.18195,478.285627 505.4015,483.926693 C511.673,488.232398 515.51915,494.783433 521.8591,499.146473 C529.4478,504.367696 528.0048,513.016097 524.52865,519.981426 C520.89895,527.248229 515.84845,533.738229 507.40135,536.893527 C490.5978,543.17268 474.5472,550.981395 461.2346,563.399138 C452.1252,571.897727 442.49965,571.209702 432.32095,565.557539 C424.2235,561.059483 415.09005,556.62616 408.73715,551.179295 C394.04445,538.580298 377.90505,535.441646 360.3134,536.562461 C348.8656,537.293025 335.9748,536.009451 328.7228,549.224342 C323.2468,559.198856 324.2939,565.609326 334.10815,570.911928 C340.80885,574.531458 341.2695,577.697853 335.33285,582.530674 C328.4268,588.151395 319.84095,590.753683 311.51595,589.294404 C289.7914,585.484373 269.8003,577.816223 256.31195,558.647696 C252.36775,553.041771 248.5031,549.829138 239.7785,553.030674 C230.4397,556.454154 220.33685,558.889984 210.4116,561.039138 C195.6449,564.238824 181.46835,559.670486 167.4805,556.117539 C148.2072,551.223683 131.58125,541.042022 116.3021,528.30616 C93.21225,509.063652 98.55875,516.877915 106.99845,489.499326 C111.5069,474.875094 115.3105,460.028918 119.19735,445.221583 C120.74765,439.317884 124.58455,434.268668 122.87515,427.009263 C122.1148,423.776285 122.7401,416.374467 129.1485,413.973777 C131.18165,413.211771 132.2306,410.50221 131.4129,408.69337 C129.7923,405.11453 129.3039,409.318511 128.14395,409.512712 C127.14865,409.681019 126.392,409.294467 126.6325,408.242085 C126.94515,406.875282 127.3762,404.518981 128.05515,404.408009 C136.65395,403.004216 135.50695,395.254687 136.5596,390.055658 C138.82215,378.884498 140.4039,367.419263 140.64995,356.040956 C140.87935,345.472743 139.8674,335.450141 129.2817,327.756097 C116.84045,318.715596 117.05135,304.206034 120.27035,290.510266 C123.3987,277.191803 120.028,265.561959 113.39205,254.376003 C111.13505,250.567821 107.9993,247.220172 106.13265,243.254781 C97.45615,224.822367 80.7784,221.121458 63.11645,220.461176 C50.9786,220.008041 40.1709,214.285596 28.2458,213.229514 C27.047,213.124091 24.18135,209.056975 21.8485,207.02989 C20.02255,205.442994 19.1327,203.034906 17.82845,207.802994 C17.094,210.482962 14.18025,207.721614 13.65485,206.134718 C9.3943,193.280486 -1.4615,182.941614 0.16465,167.631207 C0.6216,163.3329 -0.0296,160.671426 4.7175,159.452586 C18.3261,155.956975 30.44915,148.734561 43.4713,143.727884 C50.8935,140.87221 58.78745,140.24152 66.18745,137.644781 C69.60625,136.444436 71.60425,138.166348 73.87975,140.110204 C76.5456,142.388824 79.50375,144.317884 82.20845,146.552116 C95.53585,157.569765 105.9162,149.914561 112.5947,139.109608 C119.9614,127.194937 119.7283,114.877069 115.56025,102.139357 C113.5863,96.1080408 114.3226,91.1439028 120.8309,88.2660345 C134.53385,82.2051254 141.35665,82.46221 146.1352,89.3461599 C155.00595,102.122712 157.2352,102.853276 172.309,100.001301 C174.2367,99.6369436 179.78115,98.4920846 178.0181,104.447571 C177.17635,107.295846 179.3686,106.485752 180.43975,106.485752 C183.70685,106.485752 186.6761,106.972179 188.2116,102.239232 C190.07825,96.4853448 193.00495,90.7795455 196.6957,85.9948119 C200.6732,80.8346238 206.4526,77.6589812 213.527,78.1565047 C238.59265,79.9172571 261.0868,57.8431191 270.88995,39.4994828 C271.4246,38.4988871 271.9833,37.3299843 271.97405,36.2443103 C271.8612,23.395627 271.83345,23.3142476 284.4079,23.1292947 C291.7006,23.0238715 297.8056,19.3839969 304.2991,16.8889812 C308.6133,15.2318025 312.75175,13.0623041 317.1455,11.6788558 C320.88805,10.4988558 324.0608,9.6665674 323.60385,4.56371473 C323.4133,2.43860502 324.2717,-0.413369906 327.7016,0.0897021944 C330.73375,0.533589342 331.0908,2.92133229 331.26285,5.39230408 C333.3108,34.6740596 353.90685,50.5448746 375.1208,65.9477586 C378.2732,68.2374765 381.8585,67.8213323 385.3476,67.0537774 C395.9111,64.7252194 401.98465,66.3176646 405.15185,76.1867555 C412.0505,97.6912382 427.77365,108.666348 447.0303,117.764185 C472.04785,129.58268 497.12275,141.284655 522.39005,152.539044 C527.71435,154.911991 527.60705,162.9371 535.05145,162.528354 C537.00135,162.421082 539.8189,162.617132 541.80025,163.571489 C544.00545,164.636818 548.7285,163.305157 546.94325,169.273589 C545.58165,173.823433 551.3888,170.967759 553.6569,173.627382" id="Fill-1" fill="#FFFFFF" mask="url(#mask-2)"></path>
                </g>
                <g id="Group-6" transform="translate(531.000000, 514.727811)">
                    <mask id="mask-4" fill="white">
                        <use xlink:href="#path-3"></use>
                    </mask>
                    <g id="Clip-5"></g>
                    <path d="M49.9613686,38.6865211 L50.8202706,38.9941541 C54.2872118,36.4126312 57.7725843,33.8570532 61.2118784,31.2384661 C62.6532118,30.1450716 64.1019176,28.7811083 62.186898,27.048356 C60.8506235,25.8400624 59.2876431,26.759255 58.3845059,27.8545028 C55.4797216,31.3830165 52.7555647,35.0634936 49.9613686,38.6865211 M19.8721529,105.090778 C18.1377608,111.623347 21.2637216,118.745237 21.0904667,125.900484 C20.786349,138.593127 25.4642314,150.133072 27.7644667,162.201182 C28.3837608,165.442448 31.6424275,166.997292 34.0772118,169.154429 C42.2165059,176.361567 53.2052902,179.386007 60.4727804,187.603145 C62.4559961,189.84553 65.0161137,189.843677 66.7228588,189.549017 C70.3096039,188.928191 67.6536431,185.774026 67.893251,183.759585 C69.2534863,172.388283 66.000349,160.707494 70.1898,149.506686 C72.3259961,143.791383 75.8224275,138.787714 77.0001922,132.481237 C79.1824667,120.780062 76.8988196,109.655237 76.0841529,98.1449431 C74.8584667,80.8081541 70.3833294,64.5999706 66.5827804,48.0748881 C64.6530157,39.6909615 61.2561137,39.1164661 55.1977216,45.0838055 C47.8417608,52.3280073 40.3217608,59.4258055 33.3123098,67.0017321 C23.6782314,77.4130716 15.5592118,88.623145 19.8721529,105.090778 M0.697996078,140.622393 C8.80042745,139.086081 9.28148627,136.962301 7.06787843,129.658796 C1.46289804,111.160044 1.60113333,93.6638789 13.2552902,75.1873651 C24.8983882,56.7293835 38.4749373,39.748411 50.4719176,21.6351266 C54.5360353,15.5009982 59.7521137,9.95989725 62.6550549,2.93066789 C63.1674471,1.68531009 63.6061137,0.903255046 65.0142706,0.953291743 C66.4685059,1.00518165 67.1191333,1.74275963 66.940349,3.16417248 C66.4463882,7.09297982 70.136349,10.1767229 68.1420745,14.8227229 C65.2852118,21.4813101 70.1234471,27.5283376 72.8144275,33.0008697 C79.1179569,45.8139706 81.5527412,59.9224661 85.0086235,73.2822642 C89.2036039,89.4978606 94.5136824,106.447328 91.380349,123.971292 C91.1720745,125.127695 91.5001529,126.495365 91.004349,127.466448 C80.2017216,148.587494 80.0174078,172.377163 74.3313294,194.776925 C73.3544667,198.618631 72.1619569,200.558943 68.0480745,200.073402 C61.8459176,199.33953 54.4291333,201.57265 51.9519569,192.491916 C51.5999176,191.203934 49.3512902,190.032705 47.7606627,189.558283 C38.3090549,186.743255 32.0552902,178.555769 22.8285451,174.993897 C18.3497216,173.264851 14.0294078,168.135163 13.4580353,162.323494 C12.6046627,153.64676 9.14325098,146.686099 0.697996078,140.622393" id="Fill-4" fill="#FFFFFF" mask="url(#mask-4)"></path>
                </g>
            </g>
            <g id="Group-2" transform="translate(484.000000, 109.000000)" fill="#FFDD00">
                <g id="Group-6">
                    <path d="M23.8037392,0.407535792 C30.5816886,1.73690786 36.2516886,5.28083613 40.2565747,11.1696512 C42.0508785,13.8076488 41.8552329,16.8552569 41.9349797,19.7017835 C42.164119,27.9110151 40.2634861,35.742022 37.3394354,43.4320591 C35.2054101,49.0453181 32.1426,54.2372634 30.4381443,60.0484121 C28.9288025,65.1924809 26.7362962,70.1312125 25.0026,75.2141057 C23.8909291,78.4729026 23.1072835,81.8407516 22.2486759,85.1766828 C21.7872076,86.9699254 21.777638,89.1871414 20.1928025,90.7191909 C19.8222456,91.077733 20.8855367,91.8921662 20.1598405,92.561374 C19.1747013,91.9607893 18.668043,91.0208131 18.1592582,89.9047577 C15.7992835,84.7261113 13.9544734,79.3213814 11.1388785,74.336901 C9.77042278,71.9148798 8.25735949,69.5497785 7.40619494,66.8298587 C5.94842278,62.169343 5.3524481,57.305618 3.96006835,52.6429745 C1.46027089,44.2672389 -0.636007595,35.8324555 0.178473418,26.9965731 C0.467688608,23.8601274 0.919587342,20.7226179 2.44647342,17.8314065 C4.68789114,13.5879487 6.70389114,9.17745495 9.67578987,5.41382654 C13.2404734,0.900132246 18.392119,-0.654259588 23.8037392,0.407535792 Z M6.31047342,59.4111221 C6.64062532,61.9230448 7.31953671,64.3307031 8.52211899,66.5809007 C8.00163797,64.1264298 7.60715696,61.6341897 6.31047342,59.4111221 Z M25.5429163,14.1712998 C24.0255369,13.5289587 23.4473097,14.9058635 22.3148812,14.8249006 C18.7307266,14.5680714 16.1097501,16.5883896 13.5645891,18.7320287 C12.2420879,19.8451339 12.1668062,21.8166599 10.7530059,22.8777559 C10.6739868,22.9372717 10.7535398,23.1999988 10.7449972,23.3672863 C10.6259347,25.5736582 9.61363659,27.7333827 10.1614308,29.0137754 C10.7113607,34.2361478 12.6190301,37.5336417 16.3548159,39.593637 C21.5834211,42.4772016 25.672657,40.5625104 29.5739557,37.1357977 C31.9525359,35.0463125 34.4266865,32.8613878 33.9376226,29.1869609 C33.3770145,24.9752837 32.135134,21.0064952 29.7805799,17.3889031 C28.6988731,15.7267518 27.3245823,14.9246297 25.5429163,14.1712998 Z" id="Combined-Shape"></path>
                </g>
            </g>
            <g id="Group-20" transform="translate(440.000000, 73.000000)">
                <path d="M121.634294,8.52541933 C121.086251,8.31756493 120.774619,8.13144694 120.444181,8.08525707 C118.761099,7.84887363 117.142492,8.23877045 115.611196,8.85825808 C113.525141,9.70326095 113.350519,10.2045569 113.981843,12.423029 C114.008708,12.5208429 114.096019,12.6009959 114.164524,12.7056023 C117.02563,12.154041 119.310485,10.5700002 121.634294,8.52541933 M115.483588,24.4649992 C118.137834,23.8686065 120.616116,23.4284442 122.695455,21.8213085 C121.829064,20.2861747 121.822347,20.3106282 120.507313,19.9411092 C118.863185,19.477852 117.235175,18.9643294 115.59642,18.4834114 C115.323742,18.4032583 115.034945,18.3733708 114.611824,18.2932178 C114.907337,20.3880641 115.175985,22.2927169 115.483588,24.4649992 M136.768603,23.5629382 C139.17032,23.4800682 140.913848,22.936658 142.365893,21.5672643 C142.837371,21.1216679 143.042887,20.6584107 143.036171,20.0049599 C143.011993,17.8883772 142.289328,16.7730277 139.534339,16.5067567 C137.464402,16.308412 135.38372,16.3790553 133.352738,15.7364728 C132.219042,15.377822 131.715326,15.7989649 131.747564,17.0094112 C131.791891,18.6016031 131.666969,20.3201378 133.303038,21.3621269 C133.42393,21.4395629 133.582433,21.6283979 133.562284,21.7343629 C133.395722,22.6011022 134.108983,22.7328792 134.60464,22.9244313 C135.44148,23.2477603 136.329363,23.4393124 136.768603,23.5629382 M109.569292,27.7281775 C110.469265,25.066826 109.269749,22.4666082 109.10856,19.7903129 C108.947371,17.0949983 108.620963,14.4119104 108.427537,11.7179543 C108.373807,10.9816335 108.083667,10.5319615 107.483237,10.1705937 C105.536879,9.00090326 105.480463,6.97534172 107.465775,5.95237201 C111.17178,4.04364366 114.998677,2.60360662 119.311828,3.09810991 C122.159501,3.42551456 124.134067,4.91717557 125.607604,7.27285881 C126.609662,8.87456039 126.167736,10.4164868 125.236869,11.807617 C124.711661,12.5914862 123.89497,13.1797277 123.188425,13.8358956 C122.844555,14.1551491 122.457701,14.4254956 122.07622,14.7284468 C123.575278,15.7650018 124.989712,16.7417816 126.541157,17.8150168 C126.701003,16.9999015 126.914578,16.2377687 126.992487,15.4593336 C127.480083,10.6420021 131.589061,7.45625975 135.994895,7.51060078 C137.680664,7.53233718 139.304644,7.60977314 140.704302,8.70610323 C142.285299,9.9450785 143.637943,11.3756059 144.529856,13.2164079 C145.511766,15.2419695 146.524571,17.2525872 147.51454,19.2754317 C148.203623,20.6882983 148.131088,22.1052404 147.474243,23.5072387 C145.89459,26.8858917 143.154376,28.5962753 139.575979,29.0812689 C137.559773,29.355691 135.624161,29.08942 133.796008,28.153396 C132.648879,27.5678715 131.422499,27.0951046 130.384173,26.3533497 C129.494947,25.7189182 128.821982,24.7761015 127.934099,23.8455116 C127.102632,25.4091744 125.633125,26.2704796 124.217348,27.2391083 C121.749812,28.9277555 118.997509,29.6545666 116.105509,29.9928395 C115.750893,30.0335953 115.377472,29.8895916 115.010766,29.8325335 C114.501678,29.753739 113.977813,29.7320026 113.488873,29.5893574 C112.627855,29.3393887 111.769523,29.0622495 110.950145,28.7049573 C110.48807,28.502537 110.103903,28.1153572 109.569292,27.7281775" id="Fill-1" fill="#FFDD00"></path>
                <path d="M198.087404,17.5306561 C197.659227,17.2257434 197.290442,16.8849587 196.853977,16.6835232 C196.621933,16.575907 196.128838,16.6062603 196.021103,16.7607861 C195.878838,16.9636013 195.877457,17.4809871 196.036297,17.6341332 C196.499004,18.0797748 197.019723,18.5585291 197.608122,18.762724 C200.208953,19.6664244 202.715861,19.1780123 205.069455,17.9224896 C205.855367,17.5016825 206.51697,16.8063161 206.717246,15.819834 C204.279399,15.2803731 203.226911,15.4900868 198.087404,17.5306561 M206.555644,8.03007443 C205.249013,7.5126887 203.992106,7.0159984 202.432712,6.40065431 C201.853982,6.81456289 200.990722,7.38851613 200.175804,8.02731504 C199.58188,8.49227235 198.976907,8.88824489 198.308398,9.25800322 C197.423039,9.75055444 196.837403,10.7853259 196.121932,11.5869289 C196.179943,11.6986842 196.236573,11.8118192 196.294584,11.9249542 C196.736574,11.8628679 197.202044,11.8656273 197.619171,11.7262781 C198.695139,11.368937 199.728289,10.870867 200.818069,10.5700934 C202.308402,10.1589442 203.82636,9.93129452 205.347079,10.549398 C205.8015,10.7342772 206.318075,10.757732 206.793213,10.8970812 C207.671667,11.1578436 208.80979,11.1978548 209.363658,11.7814659 C210.707582,13.1928942 211.898191,14.8609457 211.996257,16.8946166 C212.040456,17.8121139 211.689627,18.925528 211.134378,19.6609056 C209.460343,21.8849744 207.323601,23.5406087 204.608128,24.4498279 C201.769728,25.3976786 199.110885,25.0720705 196.458949,23.8469011 C194.707566,23.0356402 192.947896,22.2519733 191.847066,20.5659857 C191.529386,20.0775736 191.359497,19.4884437 191.152314,18.9351859 C191.058392,18.6840813 191.095684,18.377789 190.978281,18.1432408 C189.121926,14.4015072 190.134357,10.9370924 192.121928,7.65479731 C193.779389,4.91610219 196.25591,2.92382221 198.921659,1.24335337 C200.558401,0.212720997 202.40785,-0.379168277 204.438239,0.273427589 C205.56393,0.636287446 206.160616,1.36890564 206.46034,2.45472582 C206.602605,2.96935216 206.754539,3.50467392 207.032164,3.95307489 C208.01559,5.55214171 207.961723,6.41169187 206.555644,8.03007443" id="Fill-3" fill="#FFDD00"></path>
                <path d="M50.382179,7.24464635 C50.0604227,9.91384337 49.8002792,12.2336478 50.7600716,14.7186688 C52.1004948,13.3007849 54.2679003,13.1829664 55.0866676,11.0500465 C53.5833124,9.83394351 52.0881722,8.62596596 50.382179,7.24464635 M52.5263085,19.2052491 C51.1776702,19.6115196 51.3898925,20.2425931 51.541871,20.9102309 C51.9786382,22.8494953 52.0197135,24.2904012 51.6062223,25.9615271 C49.7920642,25.6879716 47.9642143,25.499733 46.6265294,24.0005949 C46.4485365,23.8028766 46.2486369,23.5983872 46.1527945,23.3600418 C44.6302709,19.6047484 43.7868585,15.7451789 44.2400557,11.6662233 C44.3263138,10.8767044 44.2414249,10.0533296 44.125045,9.26110214 C43.8977618,7.7118574 43.829303,6.30480732 45.2806295,5.15641612 C45.969325,4.61201368 46.3088806,3.65321536 46.8784578,2.93682509 C47.5301855,2.1148045 49.3867881,1.78572542 50.3712256,2.14324343 C53.3245381,3.21579748 55.5289114,5.36090559 57.8113277,7.3394428 C58.8861308,8.27251065 59.7117439,9.59830663 60.342934,10.8929552 C61.1931923,12.6317928 60.125235,14.0997835 59.1627043,15.491937 C58.9176218,15.8453923 58.6040806,16.1500951 58.3644748,16.4304218 C58.5958655,18.1679052 59.7103747,19.1158696 60.9946617,20.0827933 C62.0502964,20.8790835 62.9840744,21.971951 63.6303254,23.1216965 C64.0602467,23.8895477 64.039709,25.0027288 63.9411284,25.9330882 C63.8535011,26.7835477 63.0032429,27.229091 62.2365043,26.8810526 C60.7673785,26.2161233 59.2681309,25.54036 57.9578295,24.623543 C56.2723739,23.4440044 54.6444237,22.1439389 53.4518715,20.4172894 C53.1451761,19.9731003 52.7974054,19.5573502 52.5263085,19.2052491" id="Fill-5" fill="#FFDD00"></path>
                <g id="Group-9">
                    <mask id="mask-6" fill="white">
                        <use xlink:href="#path-5"></use>
                    </mask>
                    <g id="Clip-8"></g>
                    <path d="M9.32769,26.161475 C11.45529,26.5176 13.40604,26.903975 15.37299,27.145975 C16.35039,27.2656 17.40204,27.4086 18.26604,26.57535 C18.44964,26.397975 18.88839,26.5231 19.19214,26.441975 C19.74564,26.2921 20.31399,26.150475 20.82699,25.89885 C21.50469,25.5661 22.34979,25.13435 22.18644,24.263975 C22.00554,23.276725 21.26034,22.503975 20.29104,22.193225 C17.68149,21.3531 15.03954,20.6216 12.43134,19.78285 C11.51874,19.4886 10.67229,18.986725 9.77994,18.6196 C8.64189,18.1521 7.45119,17.801475 6.34959,17.2611 C4.40559,16.308225 2.59389,15.1436 1.16289,13.442725 C-0.32616,11.67035 -0.35181,9.757725 0.89559,7.73785 C1.91754,6.08235 3.00024,4.494225 4.68099,3.53585 C7.36074,2.0096 10.12824,0.649725 13.22919,0.209725 C14.61159,0.0131 17.89749,1.320725 18.91674,2.530725 C18.29439,3.11235 17.56809,3.31585 16.74189,3.284225 C14.55624,3.198975 12.74454,4.439225 10.75464,5.046975 C10.15659,6.06585 9.13599,6.5911 8.25039,7.274475 C7.53354,7.8286 6.78159,8.34835 6.12144,8.968475 C5.34249,9.699975 5.27634,10.101475 6.08364,10.852225 C7.02189,11.7281 8.05734,12.617725 9.21024,13.1141 C12.62439,14.5826 16.14789,15.793975 19.57149,17.243225 C21.14424,17.9101 22.61439,18.84785 24.06699,19.7691 C24.53139,20.061975 24.82974,20.666975 25.13349,21.175725 C26.78319,23.9381 26.48889,26.6496 24.74064,29.216725 C24.37479,29.75435 23.64174,30.091225 23.01399,30.37585 C20.85264,31.358975 18.63189,31.875975 16.20729,31.98735 C13.91499,32.093225 12.00204,31.51435 10.11474,30.410225 C8.14914,29.263475 7.92909,28.03285 9.32769,26.161475" id="Fill-7" fill="#FFDD00" mask="url(#mask-6)"></path>
                </g>
                <path d="M178.651749,15.2726506 C178.022822,14.1100378 177.284697,12.9752388 176.171981,12.1352649 C175.407593,11.5595213 174.735816,11.7667334 174.665321,12.695711 C174.597591,13.6080005 174.770373,14.5453223 174.909981,15.4590024 C174.94039,15.6676052 175.254163,15.9763373 175.45459,15.9916348 C176.547955,16.0736852 177.762958,16.6633357 178.651749,15.2726506 M181.948431,20.5433472 C184.873285,21.8658888 187.512013,23.1717421 186.914878,26.9557963 C185.763459,28.3005889 185.528475,28.2672124 183.873914,27.3076397 C181.506109,25.9350335 179.120334,24.5777248 176.377937,23.5736501 C176.259063,25.0004931 176.149865,26.2896582 176.029608,27.7373614 C174.052982,27.6094184 172.290605,27.1936035 171.053485,25.5122652 C170.987137,25.4218706 170.935993,25.3189599 170.855822,25.2452536 C168.024961,22.6544072 167.700131,19.3626555 168.186685,15.809455 C168.461754,13.7873989 168.611038,11.7472638 168.832199,9.7168635 C168.957984,8.54312525 169.386484,7.56825497 170.62775,7.18998862 C172.027976,6.76582966 173.312092,5.79930349 174.850544,6.03711065 C175.859591,6.19425807 176.98613,6.38617262 177.786456,6.95357215 C180.154262,8.62795704 182.300906,10.5568373 182.834457,13.6705813 C182.889747,13.9904389 183.063912,14.2908269 183.196608,14.5939962 C184.114427,16.710619 184.133778,18.6798291 181.948431,20.5433472" id="Fill-10" fill="#FFDD00"></path>
                <path d="M75.6446913,14.0072766 C75.4142602,14.7327208 75.2646821,15.2077302 75.0436838,15.9045921 C75.6136977,15.7752916 75.9640608,15.6949891 76.4666971,15.5806602 C76.1715835,15.0130988 75.9654083,14.6197529 75.6446913,14.0072766 M76.6553541,2 C78.4206452,4.35873297 79.2480411,7.0168802 79.9986267,9.71722025 C80.2600515,10.6522674 80.5605552,11.5845925 80.9459546,12.4747248 C81.9781783,14.8592992 83.0440906,17.2329852 84.1423442,19.5903385 C85.0950624,21.6346484 85.2271223,23.7265953 84.6719315,25.8879562 C82.8136595,26.534459 80.3233864,25.4102247 79.6603915,23.6190717 C79.2143524,22.4077296 78.7831362,21.1923044 78.256244,19.7332497 C77.5406947,20.159261 76.9962844,20.5417184 76.4020146,20.8207354 C75.5840515,21.205915 74.7499178,21.5829282 73.886138,21.8360851 C72.855262,22.1396011 72.3782291,22.7942702 72.3553208,23.8232305 C72.3310648,24.8780508 72.3499305,25.9328711 72.3499305,27.1986555 C71.7111917,27.8165761 70.7544309,28.2902244 69.6925611,27.790716 C68.3638764,27.164629 66.9273877,26.557597 67.0028505,24.6112833 C67.0998741,22.1028525 67.4866211,19.6815295 68.4096931,17.3268983 C69.6561773,14.1461046 70.7921623,10.920396 71.9187144,7.69332627 C72.2017,6.88349647 72.2744677,5.99744739 72.4240458,5.1413416 C72.5709288,4.31381804 72.9940596,3.70270277 73.5519455,3.06028317 C74.4116827,2.06943258 75.447949,1.99865754 76.6553541,2" id="Fill-12" fill="#FFDD00"></path>
                <path d="M150.787825,8.43685532 C152.446594,9.97987642 153.292932,11.6751957 153.090842,13.9623404 C152.934866,15.7458323 153.204772,17.5747465 153.38923,19.3742698 C153.514011,20.6020069 154.113501,21.6560707 155.347744,22.1062855 C156.061164,22.3654596 156.27953,23.2284827 157.219454,23.2324905 C158.734454,23.2391703 160.165362,22.4429447 160.909977,20.8398059 C161.661374,19.2246435 161.940774,17.4892458 162.1076,15.7391526 C162.134726,15.4439078 161.974681,15.1219441 161.868889,14.8240275 C161.546087,13.91959 161.263974,12.9951133 160.863862,12.1227386 C160.191132,10.6598745 160.26166,9.36133203 161.463352,8.29791663 C162.399207,8.18970476 163.282166,8.08950858 164.062045,8 C164.775464,9.31724572 165.444126,10.567694 166.126351,11.8114625 C167.714591,14.7118078 168.381896,17.7684591 167.782407,21.0508858 C167.725442,21.3634979 167.734936,21.6881335 167.715948,22.0074253 C167.622362,23.7107603 167.169354,24.163647 165.425138,24.5644317 C164.954498,24.6713076 164.397054,24.9799118 164.151561,25.3646651 C163.440854,26.4721669 162.454816,27.2416735 161.438938,28.0419069 C160.150443,29.0558922 158.750729,29.2335734 157.318465,28.7232409 C155.545766,28.0886652 153.671343,27.4914959 152.163125,26.4347603 C150.412127,25.2083591 149.078873,23.4529221 148.63129,21.2445984 C147.935502,17.8165533 147.854124,14.3617892 148.195914,10.8936655 C148.332902,9.50561453 148.758783,9.13021286 150.787825,8.43685532" id="Fill-14" fill="#FFDD00"></path>
                <path d="M39.7660729,29.4335776 C37.8025193,30.5402696 35.7705632,30.0180105 34.8692599,27.9303555 C33.827128,25.5193973 32.9620378,23.0255408 32.0982888,20.5399741 C30.9099633,17.1218018 29.7994289,13.6759968 28.6513402,10.2440081 C28.5829377,10.0409073 28.4702748,9.85576782 28.3401759,9.58082187 C27.1411207,9.74385515 25.9527952,10.217757 24.7550811,9.66510179 C24.1367763,9.38048437 23.4607989,9.22021437 22.8585888,8.90796419 C22.1611517,8.54321177 21.8043858,7.54152425 22.1101852,6.767807 C22.45488,5.89323018 22.9645456,5.17477844 23.8832848,4.75199723 C26.6971751,3.45740247 29.6626239,2.80803263 32.6844041,2.35071047 C33.422078,2.23879779 34.1557281,2.04675012 34.8960844,2.02740719 C36.6477244,1.97766822 38.4007057,2.01082753 40.2234306,2.01082753 C40.4769222,2.46676805 40.7357786,2.93099841 41,3.40628186 C40.7156603,3.85945911 40.4608275,4.33059765 40.1416159,4.75061559 C39.9189725,5.04352284 39.6520687,5.37511594 39.3328572,5.50360827 C37.8923814,6.08389621 36.520308,6.8769564 34.9430273,7.07453063 C34.5393185,7.12565123 34.1517044,7.32875201 33.648745,7.50007512 C34.1637755,9.20777962 34.6184508,10.839494 35.149576,12.4421941 C36.1072107,15.3436338 37.0983761,18.235402 38.1056362,21.1202621 C38.6984577,22.8210584 39.3569992,24.4983668 39.9712803,26.192255 C40.1711229,26.7407652 40.3843777,27.2505896 39.9404321,27.8681818 C39.7030353,28.1983933 39.8224043,28.7994058 39.7660729,29.4335776" id="Fill-16" fill="#FFDD00"></path>
                <path d="M90.2147666,23.7594806 C91.228718,23.9102682 92.2015634,24.087101 93.1840001,24.1926523 C95.0118532,24.3886762 96.9013654,23.5346699 98.1674346,21.9747035 C97.5741359,20.1679936 95.9586646,19.3619652 94.5405028,18.3818457 C93.604653,17.7334589 92.5920717,17.1974775 91.637039,16.5765067 C89.4200479,15.1344287 87.6730369,13.2907073 87.0975509,10.6231372 C86.7385573,8.95624864 87.4401021,7.41410252 88.0690261,5.92267588 C88.5403765,4.8013643 89.5913235,4.32021471 90.6641937,3.82261556 C92.7181305,2.87128276 94.7076677,2.62042699 96.764345,3.74173857 C97.7892581,4.30239436 98.6127511,4.97271387 98.6579678,6.26537501 C98.6675593,6.52445556 98.7484013,6.85618833 98.9210471,7.02068391 C99.6458854,7.70471139 99.2389346,8.39696365 99.0375145,9.18243007 C97.9125765,9.13856458 96.884923,9.24411592 95.8901544,8.37228931 C94.9981511,7.59093528 93.390901,8.22972647 92.159087,9.57584868 C92.8880359,11.4346488 94.4569203,12.5230613 96.0025112,13.6196985 C96.8040809,14.1872083 97.6467568,14.6971446 98.4771008,15.2235305 C101.233953,16.9671837 102.28764,19.7046644 102.917934,22.719046 C103.183754,23.9829204 102.786395,25.0685913 101.977974,25.878732 C99.2512665,28.6162128 95.0831038,30.4215518 91.1670588,27.5209463 C89.4981495,26.283117 89.3241335,26.0130701 90.2147666,23.7594806" id="Fill-18" fill="#FFDD00"></path>
            </g>
        </g>
    </g>
</svg>