<?xml version="1.0" encoding="UTF-8"?>
<svg width="696px" height="735px" viewBox="0 0 696 735" version="1.1" xmlns="http://www.w3.org/2000/svg" xmlns:xlink="http://www.w3.org/1999/xlink">
    <!-- Generator: Sketch 59.1 (86144) - https://sketch.com -->
    <title>Res / Image / Marmitte</title>
    <desc>Created with Sketch.</desc>
    <g id="Res-/-Image-/-Marmitte" stroke="none" stroke-width="1" fill="none" fill-rule="evenodd">
        <g id="Group" fill="#FFFFFF">
            <path d="M386.447042,326.038199 C386.460525,325.57522 386.470638,325.115595 386.484122,324.652615 L331.862533,324.652615 C331.845679,325.115595 331.828824,325.57522 331.81197,326.038199 L386.447042,326.038199 Z M514.250233,248.210661 C525.640405,255.792791 537.849699,261.898753 547.540952,272.345988 C554.757986,280.129413 564.64475,281.015113 576.051777,271.893073 C554.596185,263.203819 536.127184,252.112438 514.250233,248.210661 L514.250233,248.210661 Z M203.246962,298.219166 C295.645898,320.515994 386.126809,325.293406 477.288636,305.932137 C387.465045,277.676963 297.260545,263.076332 203.246962,298.219166 L203.246962,298.219166 Z M554.350111,281.672678 C522.475158,268.809898 492.376653,255.967247 462.362421,243.060852 C411.917341,221.361201 359.169956,222.052315 306.206836,220.730475 C281.184863,220.106459 257.979789,227.057862 234.552238,234.042815 C198.676061,244.741669 157.649194,243.413119 131.093475,278.797508 C149.562475,283.930542 166.474133,287.691413 185.6645,281.313701 C195.143389,278.163427 203.351459,272.080949 213.309011,270.547748 C236.642178,266.957979 259.887702,260.959374 283.315253,260.160902 C348.659582,257.939942 413.747724,260.68427 475.552638,285.60465 C501.997118,296.266599 527.784279,300.859491 554.350111,281.672678 L554.350111,281.672678 Z M585.82056,290.747749 C574.076446,307.727022 554.289435,308.552333 537.135074,314.426806 C522.633589,319.388739 507.454558,322.46185 494.227261,330.714964 L494.645249,330.419731 C463.626497,335.804384 432.803256,341.806344 400.935044,340.91058 C359.264341,339.739711 317.580154,341.766085 275.943159,336.495499 C238.654587,331.771765 203.108756,321.619764 168.173052,308.538913 C155.201942,303.684338 141.313955,307.284171 127.516981,301.218468 C114.148108,295.34064 103.968078,284.074804 88.6036496,281.052017 C82.3810223,279.830824 84.7507444,268.112073 91.6374332,264.451851 C119.396553,249.700248 146.468016,232.744459 177.227211,225.105296 C240.731044,209.327087 305.29333,200.862612 370.907328,205.076397 C448.380049,210.05175 521.929077,229.681413 590.799336,265.860919 C594.227511,267.659158 597.615236,269.064872 597.965807,273.412854 C598.40402,278.90822 594.557857,278.814282 590.580229,279.220228 C581.994622,280.095864 584.991326,286.322603 585.385718,291.264407 L585.82056,290.747749 Z" id="Fill-10"></path>
            <path d="M459.116003,42.4879812 C459.152666,36.6451657 457.002202,32.7454496 451.290137,29.9000762 C437.384701,22.9826422 422.425977,20.1372687 407.676561,16.051691 C398.716856,13.567903 396.502249,15.7576916 394.253883,23.0299524 C391.877232,30.700971 393.764374,34.7054455 401.893601,37.1148888 C416.619386,41.4775695 431.652381,45.6476298 445.37214,52.3420298 C458.649653,58.8201543 458.467353,51.2167218 459.116003,42.4879812 M601.431027,207.316882 C601.09681,205.14399 600.965149,204.613439 600.941518,204.07613 C599.402096,170.89475 542.149783,113.764248 508.586336,111.898872 C506.587789,111.787355 504.032213,110.98646 505.426471,114.555005 C509.025207,123.760227 502.935038,119.002168 500.49762,117.738308 C493.917942,114.318453 487.027679,111.111495 481.285231,106.529159 C463.480602,92.3293265 443.846222,81.3972801 423.253079,71.9757823 C373.346779,49.1418295 320.537184,34.8642728 267.504777,22.3709883 C239.980861,15.8894844 211.302377,19.7925798 186.087593,35.9321327 C180.47343,39.5243321 173.46501,45.3705269 174.710726,50.3347236 C176.138742,56.0153325 182.590135,61.3546319 189.581676,64.196626 C255.439221,90.9708465 320.270486,120.083545 387.765355,143.032394 C455.067797,165.917036 522.106916,189.450505 590.533541,208.793638 C594.61841,209.949359 600.300092,215.785416 601.431027,207.316882 M205.50929,0 C234.184397,4.57557675 263.480675,10.1953582 293.030147,13.6726614 C316.995839,16.4910004 340.954779,18.3969275 363.95158,26.4193937 C369.295669,28.2847691 370.696678,24.7365006 372.597324,20.0595448 C379.811676,2.30130559 385.547372,0.135172135 403.723353,3.89633678 C423.745964,8.0393627 443.279066,12.8683872 460.263345,25.0980861 C470.890757,32.7488289 477.237496,42.1500508 470.715209,54.8832659 C466.177966,63.7437993 471.657092,66.1667598 477.180106,69.187857 C508.636975,86.3986491 539.513186,104.592818 567.881084,126.60898 C595.060656,147.702591 616.450517,172.489782 613.773409,210.148738 C613.398681,215.437348 611.93353,220.695544 610.488634,225.832085 C609.830328,228.177322 608.41244,230.813178 604.918357,229.762215 C548.773348,212.879215 492.753248,195.607596 436.463074,179.170664 C375.628905,161.409046 317.765549,135.570892 260.388327,108.675017 C230.011754,94.4346325 201.012558,77.352254 169.586072,65.2813824 C148.770118,57.2859506 144.583971,40.7577779 161.389326,27.3655986 C171.942467,18.9578919 183.859483,12.1519749 193.818462,2.65275314 C196.090459,0.483240381 200.880897,0.949584245 205.50929,0" id="Fill-16"></path>
            <path d="M678.743108,378.245643 C657.166716,379.390138 636.487513,381.443495 617.848909,392.898538 C610.29363,397.537106 607.062399,402.478629 612.988571,412.213564 C625.650409,393.696318 642.039293,385.725251 664.442045,390.723998 C669.073026,391.75741 678.948855,389.926219 678.743108,378.245643 M585.819923,291.496335 C601.540975,295.037535 606.424923,304.755639 605.419801,320.563126 C604.074017,341.658851 605.085885,362.906052 605.085885,385.540112 C621.633295,380.585125 632.483889,373.936959 642.464278,366.591998 C657.912125,355.217743 672.840547,360.660824 687.684646,366.076975 C696.599201,369.328686 696.909507,379.198267 695.15223,385.964248 C692.821561,394.928332 683.303259,399.075441 674.790079,398.12955 C666.600696,397.220687 658.849789,398.536856 651.041543,399.112469 C627.367212,400.85614 611.200938,419.423878 610.738852,443.640033 C609.571831,504.735837 611.565211,565.696994 616.31087,626.637954 C618.037791,648.861342 616.587448,671.323728 616.587448,698.168854 C602.003061,684.892719 592.305995,688.84459 579.940972,694.960903 C536.3261,716.541355 489.746457,727.141392 440.785551,728.885063 C410.335078,729.965601 380.140946,736.206461 349.434133,734.792674 C291.244994,732.109845 233.362788,727.397221 177.706691,708.513063 C165.560905,704.392883 154.298817,698.279937 143.890072,690.497375 C137.201626,685.498627 131.113555,679.005305 122,679.109656 C127.001999,664.601506 137.225236,671.697371 145.883451,672.730783 C143.222239,673.366987 140.557654,673.999825 139.248972,674.312878 C151.954657,690.72964 176.73867,686.447884 190.500071,702.827619 C203.121435,696.812291 214.400387,705.291648 226.384273,706.136554 C237.305699,706.907405 252.87497,704.426545 258.153547,707.509947 C268.697208,713.666654 276.340183,708.876608 285.052364,709.108873 C296.368418,709.411828 311.053991,704.581388 318.319201,709.973977 C332.913707,720.802913 347.083227,719.05251 361.411274,715.693082 C385.473489,710.051398 409.6605,704.36932 434.218529,704.315462 C457.744454,704.264969 481.320971,693.042192 504.84015,704.03607 C507.717227,705.382534 510.860763,705.295014 509.039401,701.127708 C506.556952,695.455729 510.27388,696.583392 513.316229,696.034708 C533.823414,692.3252 553.035409,684.680651 571.582944,675.568455 C605.561462,658.868936 610.452156,653.563868 603.43654,617.381014 C600.060275,599.971235 601.54772,582.931733 599.092255,565.777782 C591.523484,512.918972 591.314365,459.511478 591.749468,406.120814 C592.063147,367.696098 594.936851,329.052582 586.241535,291.00073 C586.258399,290.977946 585.819923,291.496335 585.819923,291.496335" id="Fill-21"></path>
            <path d="M14.0929516,408.677161 C35.5805149,414.039786 56.0924413,414.433651 79.245316,423.54641 C53.2193586,395.332878 41.969255,393.016816 14.0929516,408.677161 M81.9670068,397.345966 C88.2750045,375.861804 82.9224582,354.939825 84.1167724,334.179432 C84.3926422,329.42612 85.7417126,324.693007 85.6643345,319.963259 C85.5533137,312.762598 91.5988987,317.313928 94.3676892,315.556683 C97.8328826,313.361811 97.7857829,318.138688 97.9203535,321.511789 C99.9557341,373.199007 102.26362,424.876125 104.457121,476.553244 C104.955032,488.248007 105.688442,499.95287 105.567329,511.647633 C105.203988,547.583614 110.179737,583.159393 112.595279,618.903491 C113.681937,634.957701 107.481596,652.045386 118.257338,667.00216 C120.195155,669.691889 117.931004,670.860018 116.137851,671.85983 C113.729037,673.206377 111.575907,674.014305 109.789482,670.415658 C106.327653,663.443909 102.12905,656.664044 101.584039,648.763177 C100.379632,631.305192 100.584852,613.702452 98.5158285,596.362289 C96.0195435,575.426845 88.2379975,555.444084 87.6997151,533.949822 C87.0201335,506.672141 84.3320854,479.444954 83.3463556,452.167273 C82.8585371,438.621007 76.8903302,431.622327 63.7158668,429.663101 C48.0316613,427.333574 32.4147412,424.573152 16.7910925,421.866592 C4.22219681,419.691918 -3.2128298,407.135365 1.35584266,395.925358 C2.58716381,392.90236 4.42068847,389.357574 7.94980292,389.842331 C20.1755435,391.528882 30.8099866,386.482696 42.0802758,383.402469 C51.6886178,380.780068 61.0984683,384.826442 69.2298978,390.152037 C73.2434665,392.781171 76.6615602,396.241797 81.9670068,397.345966" id="Fill-29"></path>
            <path d="M463,660 C444.472369,558.967531 441.075135,457.242599 449.033222,355 C448.498225,456.90309 452.132864,558.617938 463,660" id="Fill-45"></path>
            <path d="M493.768714,330.29361 C498.273116,331.602915 496.591257,335.419474 496.364416,338.186563 C488.865722,429.065189 484.789077,519.84258 502.79048,610.073302 C503.289528,612.570431 502.852051,615.273405 501.954411,618 C495.14596,588.891574 489.02127,559.746028 486.901933,529.743359 C483.042406,475.086603 483.103977,420.473715 486.66213,365.806835 C487.469034,353.375181 488.272697,341.172994 494.170546,330 C494.170546,329.996654 493.768714,330.29361 493.768714,330.29361" id="Fill-51"></path>
        </g>
    </g>
</svg>