<?xml version="1.0" encoding="UTF-8"?>
<svg width="444px" height="846px" viewBox="0 0 444 846" version="1.1" xmlns="http://www.w3.org/2000/svg" xmlns:xlink="http://www.w3.org/1999/xlink">
    <!-- Generator: Sketch 59.1 (86144) - https://sketch.com -->
    <title>Res / Image / Poireau</title>
    <desc>Created with Sketch.</desc>
    <defs>
        <polygon id="path-1" points="0.001414449 0.984909385 306.732833 0.984909385 306.732833 803 0.001414449 803"></polygon>
    </defs>
    <g id="Res-/-Image-/-Poireau" stroke="none" stroke-width="1" fill="none" fill-rule="evenodd">
        <g id="Group-90" transform="translate(222.000000, 423.000000) rotate(-10.000000) translate(-222.000000, -423.000000) translate(68.000000, 21.000000)">
            <g id="Group-3" transform="translate(0.683326, 0.210282)">
                <mask id="mask-2" fill="white">
                    <use xlink:href="#path-1"></use>
                </mask>
                <g id="Clip-2"></g>
                <path d="M193.255299,452.785193 C193.067228,452.405782 192.819078,451.914627 192.570928,451.420873 C192.367184,451.989989 192.064181,452.548711 191.996266,453.13342 C191.954472,453.481646 192.267925,454.180698 192.442935,454.185895 C193.273584,454.21708 193.103797,453.468653 193.255299,452.785193 L193.255299,452.785193 Z M217.046321,254.176527 C216.983631,253.672378 217.21872,253.038294 216.492556,252.752436 C216.361951,253.116255 216.103353,253.493067 216.134698,253.841294 C216.179104,254.348041 216.437702,254.8314 216.604876,255.327753 C216.748542,254.953539 216.892207,254.579326 217.046321,254.176527 L217.046321,254.176527 Z M41.8213154,180.095229 C41.863109,180.264145 41.9022905,180.430462 41.9414721,180.599378 C42.4377714,180.409672 42.9366828,180.230361 43.43037,180.03286 C44.0389897,179.783384 43.994584,179.617067 43.3023771,179.606672 C42.7590599,179.598876 42.1399918,179.424763 41.8213154,180.095229 L41.8213154,180.095229 Z M18.6519734,169.718598 C18.9706498,169.027342 18.7930269,168.567371 18.4273326,168.707701 C17.8918518,168.9104 17.3746556,169.326193 17.024634,169.786164 C16.7346907,170.165575 17.0455308,170.719099 17.385104,170.59696 C17.9101365,170.407255 18.3411333,169.947284 18.6519734,169.718598 L18.6519734,169.718598 Z M252.706734,148.51576 C252.207822,147.510061 251.311871,147.289171 250.55175,147.294368 C250.152098,147.296967 249.38414,148.151941 249.43377,148.544345 C249.559151,149.547446 250.575259,149.71896 251.374562,149.57863 C251.876085,149.490274 252.283573,148.874381 252.706734,148.51576 L252.706734,148.51576 Z M206.488206,86.5704165 C206.412455,86.5756139 206.339316,86.5782126 206.260953,86.58341 C206.339316,87.4773647 206.412455,88.3713194 206.488206,89.2626754 L206.488206,86.5704165 Z M198.72504,473.907472 C198.905275,473.431908 199.221339,473.02651 199.129916,472.761442 C198.954905,472.252096 198.610108,471.508866 198.218292,471.430905 C197.390256,471.259391 197.44511,472.098772 197.627957,472.54575 C197.829089,473.039504 198.31494,473.418915 198.72504,473.907472 L198.72504,473.907472 Z M265.568722,617.249468 C266.532588,614.292141 265.840381,612.181993 265.122053,610.061449 C265.038466,612.184591 263.860408,614.299938 265.568722,617.249468 L265.568722,617.249468 Z M216.54741,169.73419 C215.332783,171.42075 214.316675,173.219054 215.040227,175.906116 C216.586591,173.801164 217.391119,172.026248 216.54741,169.73419 L216.54741,169.73419 Z M105.180454,164.859018 C105.230084,167.637035 106.217458,169.791361 109.216151,170.607355 C107.870919,168.692109 106.525686,166.774264 105.180454,164.859018 L105.180454,164.859018 Z M206.412455,120.184672 C206.417679,119.415455 207.82299,117.923798 206.718071,115.855229 C205.529565,117.692514 206.503879,119.42585 206.412455,120.184672 L206.412455,120.184672 Z M190.334969,298.229782 C189.26662,300.987009 188.780769,303.99631 190.358478,308.094468 C191.163006,304.204206 190.763354,301.361222 190.334969,298.229782 L190.334969,298.229782 Z M205.022817,352.124336 C205.863914,347.592193 205.895259,347.586996 203.614894,342.283038 C202.301007,345.59119 204.664959,348.106737 205.022817,352.124336 L205.022817,352.124336 Z M14.3498419,181.581688 C12.8426592,183.166899 10.7137963,183.803582 11.88663,186.098239 C12.1974701,186.701138 12.9680401,187.457361 13.8430941,186.971404 C16.0137507,185.757808 15.2039991,183.977695 14.3498419,181.581688 L14.3498419,181.581688 Z M39.3920608,180.620167 C35.5783923,180.633161 34.4447402,182.42107 32.9767391,185.607083 C35.7925847,184.094637 37.7699457,183.390387 39.3920608,180.620167 L39.3920608,180.620167 Z M248.887841,784.328041 C247.986666,786.989116 247.067206,789.652789 249.478176,792.994724 C249.517357,789.642394 250.24091,786.983918 248.887841,784.328041 L248.887841,784.328041 Z M214.193906,316.392135 C215.353679,313.065792 214.867828,309.775831 214.02412,306.491067 C213.561778,309.801818 213.188247,313.10997 214.193906,316.392135 L214.193906,316.392135 Z M188.574413,445.339902 C187.777722,448.486934 189.655823,450.495734 190.170407,452.990491 C191.194351,447.660546 191.194351,447.660546 188.574413,445.339902 L188.574413,445.339902 Z M215.15516,260.590132 C217.239617,264.412828 211.97362,267.999041 215.144711,271.793151 C214.690206,267.988646 219.00801,264.503782 215.15516,260.590132 L215.15516,260.590132 Z M262.442037,769.011283 C263.596586,768.304423 266.388922,769.920818 265.984047,767.137604 C265.579171,764.372582 263.776821,767.402672 262.703247,766.802371 C261.65057,766.209866 260.605729,765.591374 259.566113,764.97808 C258.510824,764.354391 257.489492,763.676128 256.402858,763.120006 C256.139035,762.984873 255.569597,763.122604 255.331896,763.340895 C255.083746,763.569582 254.900899,764.089323 254.981874,764.406365 C255.206515,765.27953 261.368463,769.019067 262.442037,769.011283 L262.442037,769.011283 Z M193.242239,439.417452 C192.526523,433.827637 191.808195,428.235222 191.089867,422.642808 C190.648422,422.707776 190.206976,422.772743 189.765531,422.837711 C189.295353,428.606837 191.055909,434.045928 193.242239,439.417452 L193.242239,439.417452 Z M183.812551,150.18153 C183.023697,158.525973 183.188259,166.769067 183.851733,176.186776 C185.755955,166.691106 183.789043,158.398637 183.812551,150.18153 L183.812551,150.18153 Z M89.842193,177.972086 C92.8043163,184.008879 98.0546407,189.175106 103.276232,190.942226 C99.7916883,185.21208 96.9784548,179.648251 89.842193,177.972086 L89.842193,177.972086 Z M22.2070438,179.59108 C26.8748695,180.646154 29.8840107,179.692429 33.4338569,176.891025 C38.6319392,172.795465 44.5274528,169.097507 51.8256649,169.154679 C53.2649329,169.167672 55.4617104,169.939488 56.6240957,167.813747 C45.0237521,161.218232 29.917968,169.588662 22.2070438,179.59108 L22.2070438,179.59108 Z M193.048943,256.629705 C194.172147,257.684779 195.052425,257.734154 195.407671,256.011213 C195.517379,255.473281 195.624475,254.854789 195.002795,254.47018 C194.652773,255.109462 194.368054,255.790323 193.931833,256.362038 C193.730702,256.624507 193.237014,256.660889 192.873932,256.79862 C192.988865,252.266478 194.227001,247.695355 192.759,243.209989 C190.763354,237.116025 188.365445,231.141601 186.583991,224.987866 C184.588346,218.083106 181.540023,211.500585 180.884385,204.164439 C179.724612,191.189103 178.152127,178.278734 179.233537,165.183857 C179.842157,157.811329 178.455131,150.407617 178.345423,143.042886 C178.225266,135.033675 179.126441,126.9543 180.508243,118.989268 C180.826919,117.151983 181.331055,115.527792 183.044594,114.04653 C183.796879,117.845837 181.098578,121.343695 182.759874,124.935106 C183.331925,124.087928 182.718081,122.759989 184.353256,122.302617 C184.267057,129.789488 182.54307,137.141226 183.789043,144.550135 C184.718951,134.947918 185.795137,125.379484 187.769885,115.878617 C188.29753,117.851035 188.454256,119.810459 188.45948,121.772481 C188.485601,132.772802 188.402014,143.765326 187.312768,154.742258 C186.429877,163.661015 188.213943,172.540792 188.19827,181.47774 C188.179985,195.523743 189.817773,209.465798 191.552209,223.407853 C193.333662,215.674106 193.109021,207.83641 193.179548,200.022103 C193.299705,185.91373 193.0829,171.789766 193.547854,157.691789 C194.080723,141.621394 195.420731,125.582183 197.126434,109.584552 C198.132093,100.161646 198.278371,90.5074553 200.56396,81.3937951 C203.60967,69.2552417 205.777715,56.8672126 209.920508,44.9937272 C211.205662,41.3087628 212.031086,37.4574812 212.882631,33.6373841 C213.971878,28.7518178 213.4155,28.3334262 208.865219,26.3428178 C206.101615,25.1370184 202.901791,26.0543615 200.579632,24.6926398 C195.856952,21.919821 190.914856,20.4827369 185.612289,19.2899311 C182.866971,18.6740379 181.649731,19.3574974 179.364142,20.5113227 C182.621433,22.3564036 183.634929,24.3937887 182.357611,27.4732547 C181.67324,29.1156366 180.510855,31.4622676 180.638848,32.4133939 C181.602713,39.6144068 178.935758,46.2930799 178.334974,53.2238275 C176.652781,72.6283615 174.879164,92.0302968 173.45818,111.453022 C172.865233,119.522002 173.416387,127.674141 172.849561,135.743122 C171.739417,151.50687 171.75509,167.231637 172.972329,182.982391 C173.304066,187.25986 173.826487,191.766015 172.862621,195.843384 C171.433801,201.91396 173.142116,207.740258 173.724615,213.449614 C174.32801,219.369465 176.874809,225.489417 180.398535,230.684229 C183.15169,234.743407 184.737235,239.200187 185.883948,243.81029 C186.952298,248.103352 189.081161,251.902659 190.677155,255.948844 C191.233532,257.365138 192.004102,257.198821 193.048943,256.629705 L193.048943,256.629705 Z M24.7433945,191.235879 C24.3280703,192.462468 24.012006,193.70465 25.884883,193.886559 C27.2457879,194.019093 28.4238458,193.304449 28.6484865,192.038879 C28.943654,190.360116 28.120842,189.312837 26.1748262,189.752018 C26.373346,188.179802 27.2405637,186.022876 24.0825328,187.40019 C22.7581972,187.9823 21.4286375,188.561811 20.1016898,189.141323 C21.3241534,186.89864 23.5392156,184.71053 20.1199745,182.376892 C19.1090912,181.690834 18.1530619,182.488637 18.359418,182.740711 C20.1487076,184.900235 18.7303364,186.662158 18.1138804,188.647569 C17.9519301,189.180303 19.4591128,189.128329 20.2584159,188.995795 C19.6602446,193.891756 23.0272437,190.929232 24.7433945,191.235879 L24.7433945,191.235879 Z M32.7468741,195.336637 C32.4334219,196.098057 32.1695996,196.880268 31.7960691,197.610504 C31.3807449,198.418701 31.2605882,199.36463 31.9423468,199.845391 C32.9036002,200.523653 33.9014231,200.074077 34.6223631,199.159332 C33.1674225,202.062086 35.439951,203.530355 37.2449132,204.569837 C39.2301105,205.713268 39.9406022,203.267886 40.9854429,202.189423 C43.942342,199.135944 46.0921017,195.51075 48.4011996,191.906345 C43.6968044,189.923533 40.5387735,191.500947 37.9789138,195.045582 C37.0176604,196.37352 35.8709477,197.563727 34.8104344,198.816303 C35.2022497,197.47797 35.7142216,196.155229 35.9519229,194.790908 C36.2000725,193.353824 35.1212745,193.234284 34.0372523,193.288857 C31.0437838,192.971815 30.3176195,195.198905 28.9619388,197.207705 C31.2449156,197.745637 31.5766525,195.856378 32.7468741,195.336637 L32.7468741,195.336637 Z M251.251793,787.13984 C253.229154,785.627394 253.811653,783.657575 253.189972,781.292753 C255.992758,777.030876 254.020621,772.186889 254.832984,767.678135 C254.92702,767.153196 254.386315,766.542501 253.675823,766.425559 C252.693673,766.264439 252.181701,766.851747 251.755929,767.613167 C251.170818,768.668242 251.59659,769.536209 252.082441,770.502928 C253.417225,773.153607 254.313176,775.814682 252.419402,778.686251 C251.755929,779.694549 252.92615,780.562517 253.375432,781.466866 C250.841693,782.690857 250.745045,784.788012 251.332768,787.124248 C252.889581,788.984921 251.129024,791.81751 253.537382,794.68908 C253.840386,790.991122 255.64796,788.080572 251.251793,787.13984 L251.251793,787.13984 Z M168.853045,244.769213 C168.887002,244.244274 168.923572,243.719336 168.954917,243.194397 L168.228753,241.533824 C167.580951,239.909633 166.935762,238.288041 166.233107,236.526119 C165.008031,238.540116 163.892664,239.626374 162.280997,236.947109 C157.354573,228.755989 153.564414,220.013944 150.06681,211.183543 C141.363287,189.195895 130.844353,168.060624 120.147797,147.005912 C112.439485,131.837268 104.595343,116.746585 97.4199,101.310274 C93.3920392,92.6513874 90.1817662,83.662465 85.9188162,75.1049278 C80.4987052,64.2215492 73.7986643,54.1177822 67.4408088,43.7983227 C65.1108141,40.0146074 63.6741582,39.8768761 60.4821699,43.1590411 C59.3876993,44.2842806 57.1099466,44.2089181 57.1151708,46.495779 C59.9780343,46.6335104 61.2893093,48.754054 62.5509544,50.8927887 C72.2679728,67.3373971 82.1600019,83.6832547 91.6210342,100.273391 C100.867874,116.481517 109.850892,132.848164 118.564863,149.347345 C121.532211,154.963148 125.81867,160.015031 126.90008,166.550776 L126.685887,166.737883 C125.042875,168.390659 125.891808,169.970672 126.644094,171.717002 C127.67065,174.092219 129.616665,176.132203 129.478224,178.959594 L129.624502,178.837455 C126.106001,176.68053 124.617103,172.86563 123.20918,169.502905 C118.371568,157.954258 112.052894,147.2294 105.901394,136.387601 C99.5539871,125.200174 93.5513774,113.817844 87.0968741,102.697983 C78.0224328,87.0589731 68.6893934,71.5654909 59.4085961,56.043423 C57.838723,53.4213291 56.861797,50.4016333 54.3306704,47.9562515 C52.2200922,49.4946851 50.0860052,50.7966366 48.2705945,52.4416172 C46.4734685,54.0736042 46.3846571,55.6848016 48.6493492,57.4571188 C56.812167,63.8473356 62.642378,72.1657919 67.754261,81.0403712 C73.2396746,90.5620282 79.0359282,99.917368 84.1713202,109.618336 C89.0010962,118.737193 95.5522473,127.016669 98.1747974,137.237378 C99.0550756,140.670268 100.653682,143.75753 102.422075,146.821404 C107.928385,156.358653 113.476489,165.88031 118.624942,175.609863 C121.184801,180.448653 124.144312,184.754708 128.13038,188.561811 C134.864378,194.98841 141.190888,201.810012 145.579219,210.154455 C149.338033,217.300895 153.4103,224.294012 156.881783,231.575585 C160.509992,239.181996 165.405071,246.089355 168.680646,253.885472 C170.906157,259.186831 173.416387,264.412828 176.294923,269.389349 C179.324961,274.628339 181.641895,279.90631 182.532622,286.005472 C182.947946,288.851054 182.540458,292.377497 185.110766,294.887847 C185.366752,294.391494 185.565272,294.074452 185.693265,293.731423 C185.83693,293.362407 185.818646,292.71273 186.038062,292.629572 C188.182598,291.834368 188.616206,291.647261 188.686733,290.935216 C189.303189,284.745099 189.898748,278.552384 190.49692,272.359669 C190.643197,270.870611 190.246158,269.540073 189.595745,268.178352 C186.928789,262.575543 184.789477,256.744048 182.428138,251.024297 C177.386781,238.797387 172.88613,226.375575 167.991051,214.09929 C167.708944,213.392442 167.014125,212.841517 166.512602,212.220426 C164.880038,214.587847 164.895711,213.405436 164.289703,211.505782 C163.281432,208.340559 164.506508,205.08698 162.957531,201.85419 C158.848696,193.270666 155.095105,184.507831 151.498241,175.69562 C142.141693,152.777637 128.987149,131.904834 116.441225,110.699397 C112.233129,103.589339 108.215716,96.3649375 103.858731,89.345834 C101.340665,85.286656 99.1543355,80.8376722 94.4708372,77.8075816 C94.5883817,78.9744003 94.4865098,79.6448663 94.7294352,80.1490152 C100.909668,93.051588 106.912278,106.039918 113.385066,118.796963 C123.533081,138.804397 134.070299,158.609132 144.926193,178.24495 C154.298414,195.196306 160.86785,213.379449 167.855222,231.357294 C169.944904,236.731417 172.669326,241.952216 173.371981,247.809698 C171.264015,247.640782 170.903545,244.77441 168.675422,244.797798 L168.853045,244.769213 Z M150.380262,289.537112 C152.083352,290.870248 152.921837,292.61398 153.454706,294.731925 C154.961888,300.729737 156.839989,306.628798 158.174773,312.691578 C159.005422,316.454504 160.614476,320.13687 162.772072,323.445022 C167.510425,330.700607 169.607942,339.011268 171.843901,347.147815 C176.336716,363.511863 180.375026,380.011044 184.274893,396.531015 C186.064183,404.098446 188.164313,411.613902 189.264008,419.394426 C188.216555,413.432996 194.125129,408.318743 190.893959,402.063659 C194.057214,404.168611 195.486034,406.946627 195.671493,410.31195 C196.342803,422.572643 199.602706,434.440931 201.078544,446.579484 C202.078979,454.801789 203.29883,463.000705 204.186945,471.236002 C205.584419,484.22953 208.554379,496.970983 210.173882,509.943721 C211.129911,517.604705 211.069833,525.250096 211.30231,532.872099 C211.485157,538.823135 212.968831,544.678018 212.153855,550.720009 C210.691078,561.603387 212.626645,572.614103 211.075057,583.557251 C210.448152,587.97765 212.213933,592.561766 211.291861,597.122494 C211.093342,598.112601 211.250068,599.201459 209.920508,599.936892 C207.977104,586.948562 208.303617,573.960232 207.559168,561.01608 C207.316242,572.203507 206.065046,583.411724 207.739403,594.549776 C208.311453,598.354281 207.133395,602.558986 209.855205,605.978883 L209.646237,605.739802 C209.452942,607.64985 209.058514,609.606675 210.868701,611.059352 L210.879149,611.046358 C209.486899,610.718921 208.329738,610.3603 207.958819,608.580187 C206.942712,603.7362 205.39896,598.983167 204.683244,594.105397 C204.406361,592.203145 200.927042,592.668313 202.384594,589.544669 C203.246588,587.699588 202.052858,584.80463 201.274451,582.413821 C200.459476,579.895675 200.804273,577.065685 199.229176,574.690468 C197.758562,572.468575 198.638841,569.815297 198.072015,567.403698 C197.505189,564.997297 197.001053,562.546717 196.776412,560.088342 C196.188689,553.72931 195.85434,547.349488 195.266617,540.990455 C194.545677,533.207332 194.255734,525.317662 192.688473,517.698258 C191.202187,510.468659 191.212636,502.85965 187.845636,496.048442 C187.333665,495.019355 187.829964,494.024051 187.715031,493.106708 C186.628397,484.45042 186.947073,475.578439 183.815164,467.221002 C182.250515,463.039685 180.615339,458.847973 181.602713,454.209284 C181.717646,453.660957 181.375461,453.006083 181.208286,452.41098 C179.019345,444.685028 179.019345,444.685028 181.247468,437.639938 C182.783383,439.238141 180.667581,441.608161 183.078551,443.450643 C183.078551,439.893015 183.553953,436.675818 182.989739,433.648326 C181.059396,423.276892 178.810377,412.960031 176.595314,402.640572 C174.027618,390.681329 170.480384,378.968963 166.852175,367.300776 C164.010208,358.171523 162.487353,348.746018 159.987572,339.577785 C156.061583,325.178358 149.81866,311.615714 143.510434,298.063465 C133.32585,276.179766 120.552673,255.808514 108.453418,235.005876 C101.270138,222.654229 92.1068851,212.789543 80.4908689,204.837504 C74.0233051,200.411908 66.7355414,197.878171 59.1369375,196.555429 C49.4355918,194.86887 43.3467828,199.642692 40.3271932,210.822323 C40.0006805,212.030721 39.9797837,213.21573 38.934943,214.029125 C38.3080386,214.517682 37.0385572,215.16476 36.9523578,214.190245 C36.5370337,209.559352 31.6968092,209.915374 29.3511419,207.345255 C25.2762633,202.87808 19.9867573,199.507559 15.1831023,195.703054 C11.4347364,192.735332 6.74862594,191.477559 2.70248041,189.260863 C2.38380401,187.168905 5.29107319,187.579501 5.00112991,185.965705 C4.78954967,184.798886 4.02159177,183.730818 3.49394723,182.592585 C3.42080838,182.371695 3.30587591,182.168996 3.31632431,181.976692 C3.32677272,181.818171 3.4547657,181.602478 3.59320709,181.529714 C4.80522228,180.890433 6.33068967,183.663251 7.54531696,180.99698 C8.11214302,179.7522 9.09429326,179.65085 7.68898255,177.78498 C5.40600567,174.747093 9.70291296,175.040747 10.988067,173.730999 C10.5805791,175.079727 11.0847148,175.719009 12.4639044,175.378578 C13.6315139,175.087523 14.3681266,174.084423 13.5609872,173.130698 C12.7042178,172.112006 11.7821459,173.219054 10.9959033,173.780374 C11.4112275,172.9254 11.220544,171.893714 10.3219811,171.984669 C7.17962272,172.301711 5.67244004,174.97318 3.71858797,176.98198 C1.93974672,178.814067 2.90622435,180.73451 3.49133513,182.652355 C2.49873648,181.602478 1.48785313,180.573391 0.526599702,179.502724 C-0.105528908,178.798475 -0.23090979,177.790177 0.505702888,177.306818 C4.65894458,174.580776 5.06120824,167.7072 11.5836262,167.52529 C12.6415274,167.499303 13.5635993,166.223339 14.3916355,165.233232 C20.7285942,157.658006 28.6981165,152.161743 37.4277603,147.681575 C38.1513125,147.307361 38.9819609,147.10986 39.7891003,146.953938 C40.3820474,146.842193 41.014176,146.933148 41.6672014,146.933148 C41.3511371,148.939349 38.5875335,149.251193 38.8670284,151.644601 C62.5091608,146.325051 82.4891267,155.680391 102.440359,167.190057 C101.915327,163.793549 99.6010049,161.426128 98.3393598,158.614329 C99.2666559,158.845614 100.19134,159.076899 101.492167,159.401737 C99.9797596,156.457404 99.3711399,153.549452 96.8086682,151.821313 C96.1425822,150.815614 95.4138059,149.968436 94.0502888,150.750646 C85.7647022,139.365717 77.8343615,127.7573 70.7999716,115.538187 C63.6480372,103.108578 55.6393334,91.2065071 46.9671557,79.7774003 C43.9083847,75.7468081 42.2444759,70.7962741 38.4882736,67.2048631 C38.3498322,67.0723291 37.2292406,64.6243485 38.6998539,62.8988081 C40.5622824,63.9642773 42.6493516,62.8182482 44.8487413,65.8613324 C48.6519613,71.1315071 54.3332825,75.0555524 59.5183044,79.268054 C56.0102518,71.9423032 51.1517427,65.6690282 45.7081227,59.7907563 C44.7050757,58.7096948 43.9580146,57.940478 42.8321988,59.3957531 C41.4686817,61.1628728 40.8287168,61.0667207 40.2880117,58.8110443 C40.0268015,57.7143906 38.8435195,58.2809084 38.2270635,58.7278858 C36.3280655,60.1077984 34.1521848,60.6873097 31.9397347,61.3135977 C28.5779598,62.2673227 26.9114389,61.4695201 26.4699937,58.2523227 C26.0416091,55.1182838 27.2666848,52.1245751 29.56011,50.4795945 C34.8809612,46.6646948 38.8173984,41.5608372 43.2945408,36.9819181 C49.0986307,31.0490735 55.0960162,25.4358696 62.0624914,20.8491544 C64.4316677,19.2899311 66.0537828,19.1158178 67.6967948,21.6495557 C68.3550444,22.6578534 69.3136857,23.7752968 70.3846474,24.1651026 C74.2218248,25.5580087 75.3920464,27.7045395 72.9079377,31.1894036 C71.7795097,32.7720152 72.6362791,34.0505783 73.5531268,35.0952579 C78.6023194,40.8539893 83.7507718,46.5321608 88.8626548,52.2389181 C89.4190325,52.8600087 90.1843783,53.4109343 90.458649,54.1437693 C94.9697486,66.0250508 104.227037,75.0139731 110.088593,86.0272871 C115.516541,96.2298049 120.612751,106.609035 126.375047,116.63484 C131.591414,125.725112 136.671952,134.875154 140.874824,144.487766 C141.953622,146.953938 143.601858,149.108264 145.25793,151.270387 C147.995413,154.851404 150.607515,158.422025 151.751615,163.078905 C152.994976,168.125591 156.672815,172.078222 159.94839,176.088025 L159.870027,175.960688 C160.389836,178.541203 160.233109,181.347805 162.905289,183.863352 C163.106421,176.745497 162.790357,170.129193 162.158228,163.479106 C161.868285,160.454213 158.691969,164.079407 158.981913,161.821132 C159.253571,159.687594 157.53742,157.418925 158.535243,155.838912 C161.9362,150.449196 158.893101,145.176423 158.887877,139.867268 C158.880041,128.794183 157.545257,117.70031 159.517394,106.655811 C160.209601,102.791536 159.846518,98.8441026 160.272291,94.9148599 C161.233544,86.0662676 162.86872,77.3502094 164.603156,68.6523421 C166.366324,59.8297369 168.646689,51.1110799 170.443815,42.2936722 C171.235282,38.4008113 171.352826,34.3728178 171.846514,30.4149893 C172.431624,25.6957401 172.87307,20.9712935 175.192616,16.6184618 C176.268802,14.5940702 176.550909,12.055135 175.688915,9.92679515 C174.137327,6.08330971 175.553086,3.50279515 178.875679,0.984649515 C182.425525,4.21484045 186.790347,6.40554919 190.961874,8.92109612 C193.772495,10.6180508 196.826042,10.5842676 199.636663,11.7614812 C204.11903,13.6403453 207.807318,16.6912256 211.440751,19.6745395 C216.027602,23.437465 220.060687,27.8656592 224.639701,32.3068469 C220.865214,33.2345848 219.146451,30.4981479 216.325381,29.57041 C215.42943,32.3302353 214.240924,34.8016042 215.442491,37.7875168 C216.252242,39.8015136 215.601829,41.9038663 214.85738,43.8476981 C214.24876,45.4303097 213.93792,46.901177 214.259209,48.6605006 C214.577885,50.4094294 214.473401,51.8750994 212.438574,53.4291252 C210.476886,54.9285783 210.79295,58.3562709 210.89221,61.5422838 C212.558731,61.4409343 213.930084,61.0823129 214.977537,59.9466786 C217.398955,62.1789667 212.600524,62.872821 214.120767,64.8400411 C212.075492,64.3073065 210.241796,64.5126042 209.988423,66.9449926 C209.748109,69.2396495 208.925297,71.6408534 210.108579,73.9822871 C212.357599,73.5690929 211.76204,71.9890799 211.997129,70.6533453 C212.354987,68.6211576 211.284025,66.0250508 214.013671,64.7828696 C215.238747,68.3846754 212.673663,71.5524974 212.79382,75.0893356 C212.846062,76.6199731 210.79295,76.9941867 209.382415,77.3216236 C207.509538,77.7530087 207.269225,79.0523615 207.368485,80.6245783 C207.51215,82.9062417 209.191731,81.7238307 210.155597,81.7316269 C212.140794,81.7446204 211.991905,83.080355 211.897869,84.262766 C211.459036,89.7798178 211.532175,95.3696333 209.591383,100.67619 C209.019333,99.2391058 209.30144,97.1393518 206.913979,96.9314553 C206.49343,98.2879796 207.094214,99.2183162 207.6741,99.9225654 C208.050243,100.379938 209.055902,100.322766 209.779454,100.499478 C210.288814,107.32108 209.847369,114.147879 209.204792,120.917507 C207.326691,140.743031 205.984071,160.555562 208.285332,180.427863 C208.423774,181.625866 207.423339,184.377895 210.651896,183.231866 C210.147761,187.828976 207.517374,192.122038 208.812977,198.17962 C210.732871,192.545627 212.691948,188.12263 213.008012,183.182491 C213.05503,182.392484 213.352809,181.449154 212.054595,181.581688 C211.135135,181.672643 210.701526,182.374294 210.638836,183.28384 C211.670616,175.144695 213.903963,167.260222 217.354549,159.903287 C221.327556,151.42631 225.227424,142.790811 231.721109,135.719734 C233.596598,137.770112 231.167343,139.971216 231.559158,142.27107 C233.361508,141.377116 233.993637,139.971216 234.466427,138.700449 C235.498208,135.92763 233.719366,135.579404 231.530425,135.839274 C233.220455,133.807086 233.855196,130.940714 236.501255,129.646559 C237.493853,130.696436 236.37065,131.496837 236.166906,132.411582 C235.942265,133.414682 235.66277,134.438572 236.934864,136.106941 C245.450315,124.194475 259.145564,118.604659 270.082434,108.32418 C280.457702,116.975271 289.957916,126.868543 295.756782,141.50965 C292.745028,140.537734 291.175155,140.285659 289.55304,142.193109 C281.614863,151.525061 273.235241,160.51918 266.772901,170.976371 C260.336683,181.381588 254.704991,192.23898 249.872603,203.486177 C244.543916,215.889798 239.698467,228.483125 237.117711,241.765109 C234.873915,253.316355 233.23874,264.95076 234.241787,276.821646 C234.497773,279.833546 233.902214,283.022158 233.142092,285.987281 C232.345401,289.090135 231.953586,292.021475 233.019323,295.098342 C233.338,296.02608 233.489501,297.200695 232.627508,297.943925 C232.415928,298.125834 232.175614,296.018284 231.297948,296.951219 C230.540439,297.754219 230.412446,299.266666 231.653194,300.251575 L231.674091,300.222989 C228.262686,303.476569 230.193029,307.652688 229.853456,311.405219 C229.715015,312.941054 230.822546,314.510672 230.801649,316.233614 C230.733734,321.602539 230.775528,326.971465 230.357592,332.345588 C229.39895,326.929886 230.710225,321.394643 228.994074,316.030915 C228.563078,323.673708 227.400692,331.300908 229.244836,338.96709 C229.670609,340.742006 229.675833,342.698831 229.464253,344.525721 C227.5966,360.577925 228.92616,376.414436 233.505174,391.84295 C235.819496,399.644264 236.987106,407.58331 238.28532,415.522355 C239.915272,425.485792 241.970996,435.394656 243.984926,445.256743 C245.123802,450.856954 245.259632,456.64687 247.140345,462.265271 C249.062852,468.011009 249.425934,474.398627 250.212177,480.560158 C250.97491,486.526785 250.86259,492.503808 251.465985,498.460041 C252.079829,504.476044 254.250486,510.04507 255.441604,515.884361 C258.119008,529.028614 261.903944,541.949378 264.803377,555.05465 C267.112474,565.506643 268.880867,576.083374 270.69889,586.639316 C272.58744,597.598057 274.233064,608.543805 277.835152,619.1933 C279.431146,623.920345 279.922221,629.325653 280.300976,634.447701 C281.115952,645.476607 284.678858,655.918206 286.630098,666.692439 C286.888696,668.11653 287.196924,669.577002 287.155131,671.008889 C286.81817,682.640695 287.473807,694.225724 288.395879,705.818549 C289.020171,713.684831 288.73284,721.571902 287.330142,729.370617 C286.462924,734.191216 288.338413,739.245698 285.992746,743.962349 C285.619215,744.710776 286.415906,745.586539 287.170803,745.952957 C289.004499,746.833918 288.432449,745.173345 288.68321,744.422319 C289.239588,742.764345 290.365404,743.41662 291.021041,744.07929 C296.819907,749.944569 305.398049,753.496999 306.732833,763.288921 C302.106801,761.784271 296.895658,761.768679 292.551733,758.85553 C289.613118,756.88831 289.670585,756.799954 285.337108,758.920497 C289.132492,765.069035 294.270496,770.133912 299.202144,776.52153 C293.361484,775.510633 289.626179,772.241462 285.162097,769.564795 C284.522132,773.53042 287.737629,775.300138 288.991438,777.911837 C290.242635,780.507944 291.896095,782.914345 293.735015,786.014601 C290.27398,785.931442 288.087651,784.203303 285.668845,782.989708 C284.127705,782.220491 282.991441,779.156617 280.530841,781.796902 C279.964015,782.407598 279.514733,781.526637 279.193445,781.108245 C276.829493,778.028779 276.839941,778.020983 274.196494,777.293345 C274.196494,778.265261 274.585697,779.543824 274.110295,780.167514 C273.284871,781.251174 272.229582,780.336429 271.490357,779.626983 C270.597018,778.774607 269.868242,777.514235 268.559579,779.086452 C265.579171,780.53653 265.482523,782.872766 266.550873,786.180918 C267.295322,783.389908 269.293579,781.56042 268.384568,778.938326 C269.912647,779.671161 270.583958,781.630585 270.32536,782.521941 C268.925273,787.373724 271.359752,791.225006 273.634892,796.170342 C269.936156,794.044601 268.455095,789.252588 263.612258,791.438099 L263.612258,803.002339 C260.984484,800.206132 260.974035,797.4593 261.559146,794.90997 C262.32188,791.604417 260.736334,788.961533 259.856056,786.092562 C259.584397,785.201206 259.048917,784.681465 258.045869,785.060876 C257.074168,785.427294 255.815135,785.814501 256.397633,787.145038 C257.181264,788.930349 256.664068,790.972931 257.395456,792.576332 C259.017571,796.123565 253.819489,796.185934 254.362806,799.062701 C254.443781,799.504481 253.874343,799.585041 253.644478,799.114675 C253.555667,798.927569 253.508649,798.722271 253.43551,798.527368 C252.163416,795.2504 247.310132,798.688488 246.544786,795.11007 C245.915269,792.155342 243.316228,790.086772 243.102036,787.248986 C242.825153,783.613397 238.969691,783.257374 237.700209,780.310442 C235.887411,782.345229 235.733297,785.242785 233.742875,786.957931 C231.927465,786.13674 230.783364,784.775018 230.373264,782.446578 C228.492551,784.975119 226.358464,786.833193 223.900476,788.899164 C223.748974,783.88886 226.013666,779.665963 225.718499,775.131222 C223.555679,774.89474 223.547842,776.872355 222.484717,777.84687 C220.253982,774.928523 220.849541,771.617772 221.257029,768.483734 C221.625336,765.632954 221.983193,762.706811 223.239614,760.030145 C225.752456,754.7002 224.908747,748.343766 228.492551,743.304876 C229.550452,741.823614 228.11902,740.623012 227.157767,739.56274 C224.368042,736.49107 221.690638,733.344038 219.736786,729.721442 C221.1212,728.211594 221.826467,730.386711 223.03587,729.924141 C224.135565,727.164316 222.654504,724.734527 221.554809,722.421679 C215.144711,708.9292 212.083328,694.657109 210.80601,679.867876 C209.223077,661.536607 207.240492,643.241721 206.242669,624.863675 C206.161694,623.436986 206.23222,621.999902 206.23222,620.240578 C208.705881,622.48586 208.439446,625.237889 208.384592,627.80541 C208.327126,630.557439 208.340186,633.197724 210.231348,635.440407 L210.228736,635.430012 C208.85477,636.885287 209.486899,638.56665 209.795127,640.141465 C211.124687,646.942277 212.84345,653.683319 213.836048,660.52831 C215.251807,670.330627 215.7899,680.262879 217.422464,690.021018 C218.370657,695.69919 218.268785,701.860721 222.197386,706.767077 L222.04066,706.585167 C222.043272,708.575776 221.484282,710.782077 224.036305,711.808565 C224.208704,712.533604 224.375879,713.256044 224.545665,713.983682 C224.456854,716.384886 226.086805,718.188387 226.82603,720.303734 C227.664515,722.723128 229.422459,719.238264 231.000169,720.763705 C232.342789,722.060459 229.850844,724.240772 232.045009,724.448669 C234.082449,724.640973 234.273132,726.078057 234.876527,727.23708 C237.258764,731.823795 240.876525,735.672478 242.720669,740.604821 C243.274434,742.080886 244.410699,743.720669 245.742871,744.471695 C251.155145,747.527772 256.737207,750.2824 262.280086,753.107193 C263.852572,753.912792 264.785092,753.458018 265.560886,751.714287 C268.329714,745.495585 270.591794,739.00142 274.880865,733.546737 C275.554787,732.691763 275.802937,731.730242 275.800325,730.654378 C275.774204,714.331908 278.691921,698.082203 277.007116,681.718154 C276.586567,677.604404 275.873464,673.547824 274.745036,669.564009 C269.460754,650.868921 265.179519,631.991925 263.374557,612.584792 C262.57003,603.944096 261.122925,595.339782 259.482525,586.813429 C258.764197,583.099879 258.529108,579.461692 258.539557,575.745543 L258.377606,575.818306 C260.686704,577.811514 260.535202,580.698675 261.115089,583.318171 C261.360627,585.838915 259.801202,588.837821 263.385005,591.025931 C263.324927,587.850313 264.463803,584.882591 260.872164,583.323368 C261.822969,582.71787 262.324492,581.761546 262.099851,580.737656 C260.908733,575.290769 260.587444,569.643782 258.442909,564.407391 L258.625756,564.72963 C258.675386,560.919928 256.883484,557.471446 256.358452,553.820264 C254.326237,539.6963 250.193892,526.021912 247.853449,511.929132 C245.933554,500.359695 244.773781,488.668119 242.663203,477.106478 C241.163856,468.89197 240.664945,460.326637 239.758546,451.922423 C238.209569,437.590562 236.229596,423.297682 234.061552,409.046381 C233.332775,404.246572 231.43639,399.628672 230.148623,394.909423 C229.712402,393.306022 228.711967,393.118915 227.366735,393.438556 C228.450757,391.835154 228.544793,390.140798 227.387632,388.326902 L227.387632,393.443753 C230.744183,401.840171 232.217408,410.647183 234.103345,419.36584 C233.630555,419.477585 233.157765,419.591928 232.690198,419.703672 C231.297948,414.332148 229.806438,408.986611 228.547405,403.586501 C227.1865,397.749808 225.530428,392.022261 223.788156,386.284319 C221.654069,379.244426 221.110752,371.739365 219.668871,364.478582 C218.23744,357.264575 218.95838,350.320834 220.301,343.093834 C221.505179,336.602268 222.066781,329.632539 218.861732,323.120183 C218.112059,321.594743 217.809055,319.105183 218.556116,317.72787 C221.400695,312.465491 218.801654,306.58462 221.306659,301.059772 C223.540006,296.132627 223.508661,290.168598 224.36543,284.64375 C225.253545,278.908407 226.125987,273.162669 226.784236,267.39874 C227.371959,262.261099 227.674963,257.087077 228.072003,251.928646 C228.902651,241.193394 230.801649,230.614064 234.158199,220.414145 C236.872173,212.171051 240.510831,204.229407 243.760285,196.165624 C245.387625,192.122038 246.975783,188.060261 248.752012,184.084242 C249.903949,181.501128 250.14165,178.915417 249.668859,176.197171 C250.483835,177.600472 251.455537,177.935705 252.377609,176.371284 C255.674081,170.752883 258.918311,165.098099 262.267026,159.308183 C260.587444,158.910582 259.769857,159.438119 259.048917,160.222928 C259.448568,157.647611 260.610953,155.454303 262.826016,154.069193 C264.466415,153.040106 265.728061,151.78753 266.566545,150.095772 C267.760276,147.689371 269.742861,146.353637 272.294884,145.711756 C275.716737,144.848986 277.814255,142.122944 280.303588,139.968617 C281.369326,139.046077 281.134236,137.707743 280.97751,136.460365 C283.310117,137.939028 285.553912,139.78151 289.041068,138.3964 C285.9614,134.173504 282.644031,130.569099 279.736762,126.65285 C277.997102,124.311417 275.424182,122.253242 272.148607,121.785475 C269.633153,119.324501 267.493841,119.560983 264.748522,121.920607 C256.684965,128.84096 248.76246,135.966611 241.890021,143.994012 C236.556109,150.223109 231.381535,156.790038 227.755938,164.308093 C221.894382,176.470035 216.766826,188.891847 213.070703,201.911361 C208.089425,219.455222 203.703706,237.110828 201.358039,255.218607 C200.746807,259.932659 200.276628,264.667501 199.660172,269.384151 C199.025432,274.212546 200.537839,278.955183 200.172144,283.775782 C200.138187,284.24095 200.799049,284.776284 200.52739,285.438954 C195.945764,296.670559 197.740278,308.686973 196.230483,320.295391 C195.666269,324.630031 198.769446,328.018743 199.281418,332.410556 C201.603576,330.49531 200.407233,328.5073 200.496045,326.612844 C202.870445,330.677219 202.264438,335.508213 204.113806,339.741504 C206.616199,338.496724 204.312326,336.742598 205.043714,335.269132 C206.95316,331.420449 202.452509,327.527588 204.680632,323.691899 C206.898306,319.8744 205.153422,316.298582 204.758995,312.56684 C203.95708,304.903258 204.936618,297.224083 204.915721,289.552705 C204.876539,275.805552 209.523468,262.851006 211.427691,249.439086 C213.326688,236.073944 216.868698,223.106404 221.144709,210.320772 C221.343229,209.733465 221.659293,209.169546 221.771613,208.564048 C222.119023,206.721565 220.392424,205.073986 221.225684,203.166536 C224.529993,205.193527 223.978839,201.537148 224.433345,200.560035 C225.190854,198.925449 225.783801,197.121947 226.408094,195.373018 C231.25093,181.794782 239.110744,169.622446 244.700642,156.397633 C245.238735,155.121669 246.265291,153.939258 245.84213,152.18773 C243.415488,150.761041 243.308392,155.690785 240.884361,154.139358 C240.630987,154.170543 240.375002,154.201727 240.119016,154.232912 C242.263551,148.453391 246.429853,143.991413 251.053273,140.402601 C256.300986,136.330429 261.621837,131.65276 269.152526,131.728122 C265.649698,137.408892 259.250048,140.218093 255.600942,145.779323 C259.746348,144.155132 262.455097,140.015394 267.969244,138.908345 C266.33668,142.375018 264.119006,144.035591 261.744605,145.480472 C248.927022,153.273989 241.897857,164.723886 238.246139,179.141504 C235.3023,190.760316 230.519542,201.911361 226.622286,213.29629 C223.534782,222.313798 220.794687,231.440452 218.738963,240.754213 C218.475141,241.941821 218.46208,243.186601 218.318415,244.600297 C220.259206,244.085753 219.133391,241.710536 220.833869,241.396093 L220.666694,241.216782 C221.755941,246.549326 221.573094,251.806507 220.381975,257.149446 C218.396778,266.057808 218.049368,275.278015 216.134698,284.149996 C213.979714,294.121229 216.314933,303.95473 215.523466,313.848002 C215.084633,319.37285 213.287507,324.801546 214.460341,330.451132 C212.28446,327.641931 211.811669,325.31609 211.701961,321.425828 C211.66278,320.157659 210.766829,318.910281 209.959689,316.88329 C208.995824,331.989565 208.812977,346.29284 209.695867,360.518154 C210.069398,366.523763 213.337137,372.233119 216.826905,377.373358 C218.524771,379.87851 219.313626,382.479815 219.585284,385.476122 C220.018893,390.234352 221.429428,394.789883 223.59486,399.085543 C224.242661,400.374501 224.219153,401.595892 222.683237,402.074054 C221.191727,402.539222 221.204787,401.206086 220.912232,400.244565 C219.645362,396.089235 218.326251,391.949497 217.025424,387.801963 C215.126427,381.749578 212.420289,376.061012 209.068963,370.689488 C208.528258,369.818921 207.870008,369.252404 207.990165,368.044006 C208.520421,362.664685 205.934441,358.093562 203.980589,353.348326 C201.45991,347.228374 199.179546,341.017468 197.358911,334.645442 C197.076804,333.650138 196.92269,332.571675 196.429003,331.685517 C189.919645,320.032921 186.124261,307.203112 180.388086,295.204889 C177.083777,288.287135 174.239199,281.158886 171.702848,273.9033 C170.631886,270.844624 169.116867,267.845717 166.880908,265.04951 C165.337156,266.367054 168.607507,267.853514 166.126011,268.770857 C166.238331,268.791646 165.663669,268.815035 165.603591,268.653915 C162.884393,261.143656 157.398979,255.047093 154.679781,247.542031 C154.470813,246.970316 153.924884,246.515543 153.739425,245.941229 C147.441647,226.728999 136.264464,210.401332 122.676311,195.752429 C113.769044,186.147614 103.257947,178.221562 92.0102374,171.363578 C91.5061017,171.054332 91.0202508,170.602158 90.1321362,171.290815 C93.1543379,174.619756 96.8713586,177.059941 100.496956,179.554698 C102.591861,180.994381 104.234873,183.424171 103.702005,185.108132 C102.748587,188.125229 106.705921,190.209391 104.50392,193.138132 C103.910973,193.930737 105.052461,194.390708 105.966697,194.429688 C108.453418,194.531038 110.485633,194.736336 109.91097,198.364128 C109.775141,199.211306 111.40248,201.763235 113.264909,202.402517 C116.130384,203.390025 116.172178,207.706475 119.787327,207.67529 C118.891376,209.289086 119.941441,210.190837 121.119499,210.876895 C121.798645,211.271899 122.639742,211.251109 122.63713,210.053106 C126.022414,212.589442 128.349796,216.063912 130.708524,219.444828 C134.574434,224.995662 138.928808,230.089125 143.510434,235.068245 C150.678041,242.856565 155.068984,252.279472 158.658012,262.09998 C154.946216,258.576135 153.961453,253.272177 149.977998,249.384514 C150.056361,252.786219 152.433374,254.85219 153.141253,257.544449 C150.978433,258.389028 150.808647,256.67908 150.220924,255.839698 C148.831286,253.846491 147.475605,252.097562 145.252706,250.678669 C144.223538,250.021196 144.568336,246.281659 143.176085,244.184504 C141.488668,241.645569 139.660196,239.444465 137.264899,237.355106 C133.981487,234.488734 131.821279,230.265837 129.454715,226.456135 C125.264904,219.712494 119.761206,214.008336 114.915757,207.787035 C114.179144,206.838507 113.097734,206.087481 112.045057,205.468989 C103.681108,200.541844 96.7799351,193.564319 88.0137218,189.047769 C84.8635271,187.426177 82.0085,184.219374 78.6650098,182.311925 C74.893135,180.157598 70.758178,178.730908 65.7168217,178.452847 C67.4590935,181.407575 69.9693233,183.016174 72.5396313,184.234967 C89.6515095,192.322138 102.748587,205.20652 115.231821,218.940679 C119.296252,223.407853 123.130817,228.056938 126.019801,233.246552 C129.002822,238.612879 132.936647,243.238575 136.24618,248.324242 C137.970167,250.97752 139.153449,254.033598 139.069861,257.076682 C138.876566,264.074996 142.136469,269.799944 145.495632,275.36897 C147.880481,279.321601 149.599243,283.209264 149.460802,287.824565 C146.446437,281.717607 143.34326,275.64963 140.433379,269.490698 C134.678919,257.302769 129.48606,244.83418 121.61841,233.748103 C118.38724,229.192572 114.764255,224.954083 111.287548,220.590857 C100.747718,207.360847 87.9014014,196.914051 72.6519517,189.671459 C67.9292718,187.428776 62.9662786,184.640365 57.2248791,185.355009 C55.8561378,185.523925 55.963234,184.590989 55.5348493,183.582692 C54.1217023,180.264145 51.6140847,179.216866 48.4038117,180.648753 C43.7229254,182.730316 39.9197054,186.009883 36.957582,190.3913 C40.7477416,188.439672 44.5796948,187.293643 48.8217479,187.454763 C51.3998923,187.553514 53.6619724,188.772306 56.0964512,189.06596 C65.6645797,190.206792 74.174807,194.445281 81.9614821,199.377624 C89.5992675,204.219012 99.039403,207.935161 101.58359,218.288404 C105.167394,221.019643 106.41859,226.175475 111.311057,227.557986 C112.149541,227.794468 112.886154,228.3324 112.89399,229.254941 C112.914887,232.461743 115.435565,234.387384 116.804307,236.889938 C117.407702,237.986591 118.316714,238.948112 118.139091,240.25786 C117.6663,243.740125 119.944053,245.9984 121.741179,248.441183 C123.582711,250.946336 126.296684,253.072077 127.344137,255.844895 C129.749883,262.222119 134.002384,267.289594 137.954494,272.59875 C138.57095,273.425138 139.310175,274.157973 139.618403,275.14808 C141.527849,281.288821 146.096415,286.073038 148.334986,292.065653 C148.713741,293.079148 150.085094,293.926326 151.461672,292.829672 C150.936639,294.820281 149.251834,296.873258 152.543082,299.633083 C151.709822,296.732928 151.142996,294.815083 151.45906,292.842666 C150.37765,291.974698 150.803422,290.618174 150.380262,289.537112 L150.380262,289.537112 Z" id="Fill-1" fill="#FFFFFF" mask="url(#mask-2)"></path>
            </g>
            <path d="M188.019742,331.914239 C183.185583,321.609066 177.66083,311.477722 178.038045,299.914239 C183.432224,310.058555 185.425662,321.074608 188.019742,331.914239" id="Fill-4" fill="#FFFFFF"></path>
            <path d="M171.628095,285.694904 C170.421229,286.867357 168.900281,286.208675 167.683522,286.079574 C164.537756,285.737059 163.795831,284.543528 164.698507,280.978742 C165.477529,277.896111 163.518845,275.925336 162.7695,273.456596 C162.059724,271.122228 158.901593,268.110735 161.894027,266.574689 C164.17174,265.41014 164.681195,269.778517 165.776773,271.783545 C167.042993,274.104739 167.40901,276.934436 169.234147,278.968445 C169.112966,281.57946 169.9736,283.7979 171.628095,285.694904" id="Fill-6" fill="#FFFFFF"></path>
            <path d="M201.973313,398.607647 C198.362832,393.757103 196.99221,387.797425 194.442449,382.420425 C194.046884,381.589853 193.999013,380.375939 194.256004,379.476365 C195.006823,376.851755 194.762429,374.35237 193.235596,371.87343 C193.69415,371.783984 194.150184,371.694538 194.606218,371.607647 C197.483517,380.462829 200.358297,389.323123 203.235596,398.183416 C202.814835,398.32653 202.394074,398.467089 201.973313,398.607647" id="Fill-8" fill="#FFFFFF"></path>
            <path d="M173.758314,311.412595 C171.618184,310.477136 171.314713,308.416993 170.913603,306.743294 C169.844857,302.303193 169.195693,297.783139 166.203205,294.041302 C165.493347,293.15648 164.84946,291.45613 166.282371,290.704564 C167.992365,289.811747 168.865834,291.104333 169.364582,292.7194 C170.852909,297.540613 172.386098,302.348501 173.937758,307.148393 C174.396923,308.56624 174.829699,309.93345 173.758314,311.412595" id="Fill-10" fill="#FFFFFF"></path>
            <path d="M214.416871,357.612119 C211.789546,353.463204 210.423717,343.129681 211.536615,335.612119 C210.844215,339.325885 216.05144,341.444107 215.008098,345.538002 C214.072252,349.22676 215.713144,353.203116 214.416871,357.612119" id="Fill-12" fill="#FFFFFF"></path>
            <path d="M260.111369,575.493705 C256.086886,567.026973 253.243474,553.550735 254.709378,549.56321 C256.541144,554.631923 255.996034,560.573309 260.192399,564.581428 L260.020517,564.26222 C259.021149,565.523606 259.202852,566.839052 259.68412,568.285785 C260.469865,570.65925 260.482142,573.112517 259.959131,575.56321 L260.111369,575.493705 Z" id="Fill-14" fill="#FFFFFF"></path>
            <path d="M219.202069,674.430235 C219.57933,674.588831 220.240829,674.683988 220.289925,674.911309 C221.946255,682.978554 223.550906,691.064301 225.202069,699.35358 C222.654266,699.234633 222.023775,697.841633 221.943671,696.083862 C221.907496,695.277666 222.57933,694.265295 222.289925,693.659988 C219.370028,687.519683 221.176229,680.633978 219.277005,674.35358 L219.202069,674.430235 Z" id="Fill-16" fill="#FFFFFF"></path>
            <path d="M202.657149,380.219324 C207.751058,385.478064 208.958863,391.44437 211.657149,398.219324 C207.76819,394.163449 202.660005,383.868349 202.657149,380.219324" id="Fill-18" fill="#FFFFFF"></path>
            <path d="M172.638699,286.899255 C171.018553,284.792739 170.175786,282.329287 170.294452,279.429903 C170.999179,278.713102 171.783824,276.451524 172.619325,278.768691 C174.023937,282.66867 174.929669,286.834889 176.283423,291.750091 C174.23705,290.170205 172.214894,289.901039 172.638699,286.899255" id="Fill-20" fill="#FFFFFF"></path>
            <path d="M226.218849,714.207266 C226.016986,713.467736 225.815123,712.728206 225.613259,711.988676 C226.107048,709.796593 225.125682,708.078975 223.237483,706.66088 L223.426924,706.849076 C223.473508,705.335557 223.926924,703.967825 225.644315,702.669009 C227.793384,707.554147 229.877235,712.298802 232.237483,717.669009 C229.013881,717.194543 229.212638,713.600269 226.218849,714.207266" id="Fill-22" fill="#FFFFFF"></path>
            <path d="M256.345979,165.003977 C254.716766,168.688163 254.729534,173.085661 251.345979,176.003977 C251.407266,171.636514 253.079891,167.97235 256.345979,165.003977" id="Fill-24" fill="#FFFFFF"></path>
            <path d="M219.064229,50.3328363 C217.675226,46.2348476 220.155839,42.7851282 222.664441,39.3328363 C221.467869,42.996073 220.2643,46.6644547 219.064229,50.3328363" id="Fill-26" fill="#FFFFFF"></path>
            <path d="M231.563,172.523417 C232.10435,168.128063 234.835298,166.143715 236.537982,162.523417 C236.643832,167.32271 236.643832,167.32271 231.563,172.523417" id="Fill-28" fill="#FFFFFF"></path>
            <path d="M241.597852,154.466014 C241.870282,154.436804 242.139931,154.412088 242.412361,154.385125 C241.942559,156.297255 241.097471,158.099286 239.852079,159.764255 C239.526832,160.202404 238.937495,160.63606 238.298119,160.211392 C237.858896,159.917045 237.280678,159.193537 237.439132,158.968845 C238.576108,157.328592 238.881897,155.151325 241.597852,154.466014" id="Fill-30" fill="#FFFFFF"></path>
            <path d="M210.15444,607.460956 C210.075711,606.770816 209.922,606.082938 209.936997,605.395061 C209.948244,604.840686 210.510598,604.437916 211.455354,604.358719 C212.572565,604.263684 213.153665,604.833898 213.142418,605.284186 C213.09368,606.960887 214.87447,608.676055 212.966213,610.348231 C210.368135,609.850425 213.446089,607.329716 209.850769,607.248257 C209.854518,607.252783 210.15444,607.460956 210.15444,607.460956" id="Fill-32" fill="#FFFFFF"></path>
            <path d="M273.320713,120.903807 C273.771165,124.539893 276.081628,126.919097 277.491188,129.903807 C274.216555,128.708088 273.158752,124.98026 271.53662,121.986376 C271.227883,121.417568 272.566585,120.983318 273.320713,120.903807" id="Fill-34" fill="#FFFFFF"></path>
            <path d="M230.936475,176.861413 C231.377134,180.12271 229.304543,182.803035 227.258093,186.861413 C226.21993,182.177158 228.438163,179.485606 230.936475,176.861413" id="Fill-36" fill="#FFFFFF"></path>
            <path d="M98.8651047,152.0749 L100.892664,156.755343 C96.978153,156.398951 97.0231474,153.321024 95.8926637,151.050586 C97.3634174,150.297927 98.1480068,151.1104 98.8651047,152.0749" id="Fill-38" fill="#FFFFFF"></path>
            <path d="M238.417725,464.049263 C241.681725,465.314323 241.841725,466.949044 241.369725,469.049263 C238.313725,468.011475 237.077725,466.672483 238.417725,464.049263" id="Fill-40" fill="#FFFFFF"></path>
            <path d="M240.49295,476.471458 C243.60095,474.704254 240.52495,472.85447 239.86095,470.471458 C244.26095,473.470278 244.24095,474.166306 240.50095,476.447864 L240.49295,476.471458 Z" id="Fill-42" fill="#FFFFFF"></path>
            <path d="M222.82781,404.558824 C224.510442,405.6952 225.11677,406.230115 225.842043,406.567957 C227.457951,407.315303 226.758788,408.415846 226.056724,409.014747 C224.292861,410.532474 224.464025,408.451678 224.017257,407.893728 C223.526973,407.276912 223.451544,406.406714 222.82781,404.558824" id="Fill-44" fill="#FFFFFF"></path>
            <path d="M240.426456,476.704812 C242.546456,478.942258 245.194456,481.056951 243.446456,485.704812 C241.174456,482.008284 240.794456,479.371892 240.418456,476.732711 L240.426456,476.704812 Z" id="Fill-46" fill="#FFFFFF"></path>
            <path d="M232.777451,301.365451 C233.357451,304.396909 233.357451,307.422861 232.541451,311.349163 C231.301451,307.411847 231.401451,304.391402 232.793451,301.357191 C232.809451,301.335164 232.777451,301.365451 232.777451,301.365451" id="Fill-48" fill="#FFFFFF"></path>
            <path d="M241.550627,488.900186 C243.428445,489.978669 244.346404,491.248997 244.449246,492.817463 C244.468291,493.123378 243.99598,493.566697 243.565567,493.742987 C242.632372,494.134456 241.866771,493.73521 241.443976,493.198561 C240.449804,491.948973 239.77946,490.650128 241.550627,488.900186" id="Fill-50" fill="#FFFFFF"></path>
            <path d="M223.029279,233.55438 C223.463124,234.559762 223.995571,235.545903 224.307808,236.570527 C225.090045,239.136897 223.17718,238.706363 221.129561,238.059358 C221.142708,238.068979 221.343197,238.191646 221.343197,238.191646 C219.597955,236.168855 220.669422,234.773827 223.210048,233.703504 L223.029279,233.55438 Z" id="Fill-52" fill="#FFFFFF"></path>
            <path d="M221.152263,241.409413 C221.628263,240.199852 220.800263,238.768177 222.788263,237.807288 C222.768263,237.800045 222.524263,237.676916 222.508263,237.667259 C223.008263,238.553305 223.608263,239.434522 224.020263,240.347124 C224.372263,241.119698 225.396263,241.974357 223.704263,242.667259 C223.052263,241.991257 222.260263,241.41907 220.904263,241.245241 C220.900263,241.242827 221.152263,241.409413 221.152263,241.409413" id="Fill-54" fill="#FFFFFF"></path>
            <path d="M222.902635,233.200697 C222.822635,231.752605 222.458635,230.274552 223.886635,228.80399 C225.746635,230.099783 226.158635,231.792553 225.946635,233.053392 C225.662635,234.718698 223.846635,233.100829 222.682635,233.048398 C222.682635,233.045901 222.902635,233.200697 222.902635,233.200697" id="Fill-56" fill="#FFFFFF"></path>
            <path d="M212.170793,612.237825 C210.646793,614.166763 213.022793,616.348942 211.210793,618.226693 C206.174793,615.893648 210.050793,614.118271 212.182793,612.227049 C212.186793,612.224355 212.170793,612.237825 212.170793,612.237825" id="Fill-58" fill="#FFFFFF"></path>
            <path d="M211.503807,636.670614 C210.635807,633.731316 210.671807,630.76007 211.119807,627.670614 C213.647807,630.661029 211.135807,633.699368 211.499807,636.654639 C211.499807,636.657834 211.503807,636.670614 211.503807,636.670614" id="Fill-60" fill="#FFFFFF"></path>
            <path d="M217.663368,675.305925 C217.491368,672.409869 216.547368,669.496244 218.071368,666.365927 C218.319368,669.543096 219.383368,672.468434 217.583368,675.358633 C217.547368,675.390844 217.663368,675.305925 217.663368,675.305925" id="Fill-62" fill="#FFFFFF"></path>
            <path d="M161.504375,176.00776 C161.176375,174.00696 160.844375,172.008561 160.516375,170.00776 C163.424375,171.910082 162.620375,173.867648 161.352375,175.858841 C161.384375,175.887664 161.504375,176.00776 161.504375,176.00776" id="Fill-64" fill="#FFFFFF"></path>
            <path d="M161.875495,278.054237 C161.111495,277.910237 160.431495,277.982237 160.223495,277.706237 C159.743495,277.058237 159.055495,276.118237 159.227495,275.514237 C159.615495,274.150237 160.555495,274.950237 160.983495,275.570237 C161.427495,276.214237 161.547495,277.086237 161.875495,278.054237" id="Fill-66" fill="#FFFFFF"></path>
            <path d="M216.438244,364.531407 C218.130244,366.307535 217.578244,367.701024 217.374244,369.531407 C215.010244,367.898055 215.554244,366.504565 216.438244,364.531407" id="Fill-68" fill="#FFFFFF"></path>
            <path d="M169.42685,243.164491 C168.588627,244.621339 167.213942,246.110489 165.77965,244.185254 C164.486925,242.460294 167.064925,241.885308 168.391179,241.100355 L169.42685,243.164491 Z" id="Fill-70" fill="#FFFFFF"></path>
            <path d="M170.451926,243.946476 L173.639926,249.923019 C171.007926,248.250602 168.859926,246.484286 170.719926,243.923636 C170.723926,243.91856 170.451926,243.946476 170.451926,243.946476" id="Fill-72" fill="#FFFFFF"></path>
            <path d="M174.831682,254.316469 C175.752964,251.951963 173.362416,250.118807 173.982187,247.802123 C176.626388,250.387138 177.006865,254.196915 178.878146,257.802123 C176.468454,257.29734 175.288733,256.271836 174.831682,254.316469" id="Fill-74" fill="#FFFFFF"></path>
            <path d="M130.479906,177.320183 C132.922011,179.888309 133.464117,183.513561 135.479906,187.193392 C130.856222,183.329713 130.529906,182.597194 130.622011,177.193788 C130.627275,177.18517 130.479906,177.320183 130.479906,177.320183" id="Fill-76" fill="#FFFFFF"></path>
            <path d="M127.980654,166.515054 C130.897579,167.116242 130.479104,169.508622 132.72647,171.515054 C129.006693,170.389374 127.88146,168.83074 127.72647,166.688236 C127.72647,166.69071 127.980654,166.515054 127.980654,166.515054" id="Fill-78" fill="#FFFFFF"></path>
            <path d="M120.574227,170.197154 C120.862227,171.157154 120.466227,171.705154 119.858227,171.357154 C119.178227,170.965154 118.618227,170.193154 118.282227,169.461154 C118.098227,169.061154 118.486227,168.393154 118.618227,167.845154 C119.318227,168.689154 120.014227,169.529154 120.574227,170.197154" id="Fill-80" fill="#FFFFFF"></path>
            <path d="M127.171495,179.216318 C127.651495,180.297824 127.395495,180.991194 126.647495,180.915828 C125.235495,180.780169 124.439495,179.830554 124.467495,178.485265 C124.479495,177.96147 124.891495,177.441443 125.115495,176.921415 C125.891495,177.784359 126.663495,178.647303 127.171495,179.216318" id="Fill-82" fill="#FFFFFF"></path>
            <path d="M187.605314,43.8072366 C194.434778,39.4134143 189.430959,33.2898621 191.841987,28.5176614 C194.14075,29.7531826 193.656941,31.9616768 193.801281,33.7634786 C194.362607,40.7570436 193.964333,47.7712006 193.237283,54.7184336 C192.919198,57.7866446 192.951274,60.8574297 192.611805,63.9153448 C192.299067,66.7596176 192.34718,69.5112264 190.166029,71.9616768 C188.484725,73.8432727 188.752023,76.6000294 188.361768,79.0298879 C187.982204,81.3979702 187.399495,83.7428866 186.282189,86.0311749 C187.487703,73.3284722 188.548876,60.6669535 188.329692,47.0298879 C184.493966,51.171458 187.586603,55.8715867 184.886894,59.5678544 C184.65969,48.1032469 181.949289,34.4841993 187.821826,28.0311749 C189.361462,32.0594889 189.382846,36.8548557 187.605314,43.8072366" id="Fill-84" fill="#FFFFFF"></path>
            <path d="M197.474747,48.2380533 C198.894731,63.2086697 196.159335,77.7378144 193.157005,92.2380533 C192.722204,92.1907528 192.292907,92.1434523 191.860857,92.0961518 C193.732154,77.4776615 195.600698,62.8565435 197.474747,48.2380533" id="Fill-86" fill="#FFFFFF"></path>
            <path d="M184.641418,62.3810962 C186.597418,64.0969579 186.661418,65.728846 185.121418,67.3019524 C184.969418,67.453105 183.725418,67.3775287 183.529418,67.1619963 C181.741418,65.2362005 185.845418,64.2677044 184.641418,62.3810962" id="Fill-88" fill="#FFFFFF"></path>
        </g>
    </g>
</svg>