<?xml version="1.0" encoding="UTF-8"?>
<svg width="617px" height="214px" viewBox="0 0 617 214" version="1.1" xmlns="http://www.w3.org/2000/svg" xmlns:xlink="http://www.w3.org/1999/xlink">
    <!-- Generator: Sketch 59.1 (86144) - https://sketch.com -->
    <title>Res / Image / Rejoins</title>
    <desc>Created with Sketch.</desc>
    <defs>
        <polygon id="path-1" points="0.000455098935 0.85890123 38.9614749 0.85890123 38.9614749 51.6438356 0.000455098935 51.6438356"></polygon>
        <polygon id="path-3" points="0.259750419 0.399616438 38.2726951 0.399616438 38.2726951 43.5458549 0.259750419 43.5458549"></polygon>
        <polygon id="path-5" points="0.13627763 0.338913922 25.6764706 0.338913922 25.6764706 23.9999339 0.13627763 23.9999339"></polygon>
        <polygon id="path-7" points="0 0.387371796 27.4213333 0.387371796 27.4213333 23.9443346 0 23.9443346"></polygon>
        <polygon id="path-9" points="0.13627763 0.338913922 25.6764706 0.338913922 25.6764706 23.9999339 0.13627763 23.9999339"></polygon>
        <polygon id="path-11" points="0.13627763 0.338913922 25.6764706 0.338913922 25.6764706 23.9999339 0.13627763 23.9999339"></polygon>
        <polygon id="path-13" points="0 0.387371796 27.4213333 0.387371796 27.4213333 23.9443346 0 23.9443346"></polygon>
        <polygon id="path-15" points="0 0.387371796 27.4213333 0.387371796 27.4213333 23.9443346 0 23.9443346"></polygon>
        <polygon id="path-17" points="0.239346257 0.0747668514 26.4439443 0.0747668514 26.4439443 49 0.239346257 49"></polygon>
    </defs>
    <g id="Res-/-Image-/-Rejoins" stroke="none" stroke-width="1" fill="none" fill-rule="evenodd">
        <g id="Group">
            <g id="Group-27" transform="translate(89.000000, 0.000000)">
                <g id="Group-2" transform="translate(123.500000, 41.390411) rotate(4.000000) translate(-123.500000, -41.390411) translate(2.000000, 8.890411)">
                    <path d="M110.212386,21.2088973 C110.472567,22.8355818 110.344759,24.2093784 110.919897,25.1639734 C112.010835,26.977476 112.816486,29.1258843 114.868271,30.5019591 C115.062266,27.5083128 115.233438,24.9179203 115.418304,22.0951442 C114.071749,21.865039 112.540328,21.6053162 110.212386,21.2088973 M125.334883,24.6490845 C124.668452,25.3735742 124.070491,26.0502203 123.442859,26.6972488 C122.025553,28.1644545 121.952519,29.791139 122.418108,31.7253899 C122.9864,34.0902338 123.846826,36.145233 125.846118,37.6488909 C126.71339,38.300476 127.47796,39.0933139 128.272199,39.8405863 C129.411065,40.911373 130.741644,41.1961567 132.284476,41.1050259 C136.020596,40.886312 139.434912,39.694777 142.401897,37.5099165 C143.814639,36.4710255 145.131524,35.0493853 145.928046,33.5115533 C146.756519,31.9190428 146.678921,29.9893484 145.873271,28.6132736 C143.9744,27.2280857 142.420156,25.9773156 140.742668,24.9179203 C139.866266,24.3620225 138.763917,23.7992899 137.784811,23.8334639 C133.633314,23.9838297 129.488663,24.3574659 125.334883,24.6490845 M84.5890411,19.3088205 C86.4171607,16.5954013 89.012132,15.654476 91.997376,15.0621259 C97.53651,13.9571651 103.041409,12.7792997 108.708352,12.4922377 C111.517859,12.350985 114.124242,12.7496822 116.687261,14.2966273 L116.687261,19.4660211 C117.159697,19.4113426 117.604744,19.4933603 117.846668,19.3110987 C123.317333,15.1805959 129.682658,15.2603353 136.029725,15.6089106 C138.547098,15.747885 141.055342,16.4268094 143.524787,17.0351074 C149.358338,18.468139 154.146596,24.8290678 154.039328,30.7958559 C154.002811,32.9237597 153.181184,34.7873843 151.770725,36.2135811 C146.457539,41.5880191 140.384347,45.761809 132.969165,47.8259213 C129.37683,48.8238034 126.254649,48.6096461 123.292228,46.0443145 C121.717443,44.679631 120.140376,43.0028245 117.545405,42.7772758 C117.0045,44.164742 116.490984,45.4838601 115.975185,46.8007 C113.962199,51.9313632 110.289984,55.1095493 104.853553,56.2099535 C101.27263,56.9389998 97.7556104,57.6862722 94.2066392,55.7770823 C93.2366631,55.2530803 91.7417588,55.6973429 90.3906392,55.6973429 C89.988955,55.2325759 89.5439071,54.6789563 89.0623425,54.1663457 C86.9329598,51.9040239 86.8599263,51.5645618 88.0010746,49.0220129 C88.8090076,47.2290147 89.842888,46.657169 91.9197779,47.0604227 C93.3462133,47.3383716 94.7224382,47.848704 96.144309,48.1494356 C99.4308162,48.8443078 102.607773,48.7531771 105.688874,47.0923185 C108.470993,45.5932171 109.582472,43.2671038 109.235563,40.3349708 C109.025591,38.5693118 108.450453,36.7558092 107.63339,35.1746901 C105.303165,30.6546032 102.199242,26.6402921 99.175199,22.6214245 C96.4501368,22.972278 93.9236344,23.1978267 91.435931,23.6443675 C88.5374143,24.1660913 86.4605243,23.3595838 85.3399167,20.5185816 C85.157333,20.0629277 84.8195531,19.6710653 84.5890411,19.3088205" id="Fill-1" fill="#E2077A"></path>
                    <g id="Group-8" transform="translate(0.000000, 11.575342)">
                        <mask id="mask-2" fill="white">
                            <use xlink:href="#path-1"></use>
                        </mask>
                        <g id="Clip-7"></g>
                        <path d="M14.0971446,23.1958559 C18.0064444,20.8592239 21.0920152,18.6733425 23.5814064,15.7496974 C24.5120837,14.6624669 25.1765282,13.3102811 25.8022892,12.0014932 C26.6237428,10.2815676 25.5360563,8.48626683 23.5723044,8.68269923 C20.3570304,9.00932519 17.0552877,9.18976891 14.117624,10.8388874 C11.8853638,12.0928571 10.925105,14.2604658 11.6896712,16.8414961 C12.2517184,18.7395813 13.0845495,20.557723 14.0971446,23.1958559 M24.371003,24.1231995 C23.2855921,25.5576129 22.2001811,26.9920262 21.173933,28.3487802 C21.5084307,30.4204568 23.105828,31.0851292 24.5234612,31.8114723 C29.5568554,34.3925027 34.2443744,37.46233 38.5905693,41.6285241 C38.4130807,42.5969815 37.9966651,43.8052692 38.0353486,44.9998523 C38.06493,45.9705938 38.6406301,46.9230625 38.9614749,47.845838 C36.9180807,49.0723985 35.2364901,48.8531251 33.6641233,47.7087921 C32.4922435,46.8591078 31.4113836,45.8837981 30.2736362,44.9861477 C27.0105769,42.4142537 23.6747017,39.9702692 19.2306606,38.8693341 C19.4445571,43.051517 19.6425251,46.9618922 19.8791766,51.6442924 C18.6731644,50.6141644 18.0474033,50.0796855 17.2760107,49.4195813 C16.5273729,49.880969 15.6786134,50.4017433 14.9094962,50.8745515 C11.9900365,49.2505581 10.8704932,46.7015051 10.3312009,43.7550191 C9.93754033,41.6125354 9.45513546,39.4860405 9.04554642,37.510296 C6.76777626,35.7012906 4.47180213,34.2006385 3.49106393,31.2884139 C4.43084323,29.9065348 5.42750989,28.4447123 6.53112481,26.8275712 C6.15794368,25.4365557 5.88033333,24.018131 5.38655099,22.6796498 C4.84043227,21.1927022 4.33299696,19.7971185 2.87440487,18.6664902 C1.57509741,17.656919 0.997121766,15.7131519 0.000455098935,14.009215 C1.69342314,10.5533752 4.1850898,7.78961703 7.53689346,5.79331566 C8.93859817,4.95733591 10.3721598,4.17389041 11.7511096,3.299081 C15.9858052,0.612982132 20.8007519,0.702061942 25.4154551,1.01041513 C30.1507595,1.32333651 33.8234079,6.21358964 34.0350289,11.2865706 C34.0805388,12.3760852 34.0486819,13.4678839 34.0418554,14.5573985 C34.021376,17.5564187 32.5855388,19.7719934 30.1006986,21.2612251 C28.243895,22.3781489 26.2642146,23.2826516 24.3368706,24.2830864 C24.0683623,24.157461 23.8112314,23.9998582 23.5313455,23.9221989 C23.4517032,23.9039261 23.308347,24.1186313 23.1945723,24.228268 C23.5859574,24.1940066 23.9773425,24.157461 24.371003,24.1231995" id="Fill-6" fill="#E2077A" mask="url(#mask-2)"></path>
                    </g>
                    <path d="M72.3101982,55.994581 C69.2891914,57.3124901 66.3268887,58.5986969 63.3691018,59.8962259 C60.6100059,61.103177 58.0518588,60.5642383 55.7375599,58.8523151 C51.8856633,56.0059033 48.6795125,52.6092304 47.8982955,47.6387657 C47.1712669,43.0102328 46.7038914,38.3386754 46.0558877,33.6965558 C45.6336693,30.6871036 45.0917847,27.6935026 44.5205479,24.172285 C45.7465619,21.552318 48.5417835,20.7054142 51.7456764,20.5287873 C56.9477689,20.2434667 62.1476035,19.9060639 67.4151737,19.5890411 C67.6928896,20.6850342 67.9389955,21.6655404 68.2031643,22.7049224 C68.1173659,22.9449539 68.0925295,23.3344391 67.8870649,23.5518261 C66.552674,24.9557842 65.3921378,26.7333764 63.7574524,27.5848091 C62.262754,28.3637794 60.2374602,28.0852522 58.4582723,28.3479282 C57.038083,28.5585219 55.6359565,28.8823381 54.2767292,29.149543 C53.5248643,32.0208638 53.5271221,32.0208638 54.8344188,35.711915 C58.9437106,35.1390095 63.1433165,34.5547818 67.3045389,33.9773474 C68.7540803,36.6380745 67.1916463,38.8776142 66.2185118,40.9042956 C65.6427594,42.09766 63.7145532,42.7407634 62.2875904,43.3883957 C60.3616421,44.2602084 58.0021861,44.0654659 56.2907338,45.7207778 C56.4013685,48.0871266 57.6138354,49.7605541 59.4268911,51.4385105 C63.0417132,50.7727626 66.6994344,50.1024858 70.0546035,48.2977203 C71.072895,47.7497237 72.3282611,47.4168498 72.9604598,48.4403805 C73.5339544,49.3710689 74.4100012,50.4693265 73.5316965,51.9140447 C72.926592,52.910402 72.8182151,54.2101955 72.3101982,55.994581" id="Fill-11" fill="#E2077A"></path>
                    <path d="M206.813849,39.7321949 C205.711209,39.8282801 204.293201,39.9495305 202.87289,40.0684932 C196.892392,36.4195426 192.369036,31.0845254 186.565789,25.5573376 C186.782173,27.4172729 186.84893,28.1859546 186.96633,28.9477732 C187.109052,29.8468563 187.348456,30.7322129 187.452044,31.6358715 C187.689146,33.6788262 187.608577,35.8224417 186.310271,37.414711 C185.38258,38.5562949 183.768904,39.1465326 182.470597,39.9724079 C180.000592,37.9591939 178.941689,35.6279835 178.976219,32.6882334 C179.042976,26.6646054 178.897952,20.6386896 179.031466,14.6173494 C179.112034,10.9638234 178.900254,11.6592973 181.183801,7.9142616 C182.210476,7.86393125 183.2947,7.8136009 184.586101,7.75183183 C187.691448,10.8494362 189.14859,15.1275161 191.83498,18.5637065 C194.505257,21.9770194 196.885486,25.6465596 200.755084,28.8539757 C201.088869,27.7078163 201.27763,27.1130031 201.431861,26.5090388 C201.473297,26.3397458 201.362803,26.1338489 201.408842,25.9645559 C203.082368,19.8539937 201.164834,14.1254846 199.364699,8.43357932 C198.609656,6.05203859 199.357793,4.26302336 200.757386,2.54492817 C201.049736,2.19032796 201.703493,2.12855889 202.564427,1.78082192 C203.84662,5.22845101 205.784872,8.27801278 206.219943,11.9498407 C206.369571,13.212675 206.671128,14.486948 207.122312,15.6742867 C208.768215,20.0370131 208.330843,24.7040094 209.189475,29.1834107 C209.412765,30.357023 208.929353,31.6999283 208.6324,32.9330219 C208.091439,35.1750103 207.446889,37.3895458 206.813849,39.7321949" id="Fill-13" fill="#E2077A"></path>
                    <path d="M242.191781,32.6222835 C241.088496,34.117045 240.184164,35.681592 238.940708,36.9017136 C238.176547,37.6490943 238.088375,38.1488489 238.178808,39.1371024 C238.23759,39.7921861 237.534472,40.7916953 236.892396,41.1833948 C234.75139,42.4958134 232.578733,43.8622595 230.236513,44.7086907 C228.317069,45.4042951 226.187367,46.0886437 224.215923,44.0986299 C223.316113,43.1891666 221.625013,43.0811116 220.315992,42.5498409 C216.680578,41.0685863 216.14024,37.1290794 219.226272,34.4884842 C219.750785,34.040506 220.438077,33.7771218 221.066588,33.4169383 C222.945337,35.2246092 224.570874,37.6085737 227.496387,36.510014 C230.175471,35.5015003 233.772451,35.436217 234.346702,31.1455312 C233.467239,30.5489773 232.644297,29.9141539 231.75353,29.4008924 C228.317069,27.4266367 224.846695,25.515413 221.417016,23.5321527 C219.018276,22.1476974 217.28648,20.0946515 215.785289,17.8052352 C211.941879,11.9522535 213.804802,8.06902525 218.147856,4.65178439 C221.064327,2.36011694 224.726871,0.930638712 228.491153,0.174253384 C230.519117,-0.235455335 232.422735,0.0279288415 234.057315,1.49567656 C235.761981,3.0219541 235.592419,5.83588761 233.645844,7.03574886 C232.045177,8.02400231 230.277208,8.06902525 228.439153,8.12530392 C224.521135,8.2446147 224.523396,8.34141401 221.360495,11.3759599 C222.273871,14.5590815 223.976276,17.1636584 226.992222,18.8407627 C228.249244,19.5386182 229.338964,20.6304244 230.66381,21.0851561 C236.175713,22.9783706 239.578262,26.9313844 242.191781,32.6222835" id="Fill-19" fill="#E2077A"></path>
                    <path d="M169.178082,44.3674023 C166.963876,44.7559808 165.627957,41.9970735 164.305905,44.5205479 C161.065491,41.7662122 159.734194,38.3992938 159.616318,34.7877996 C159.445284,29.457417 158.150967,24.3487526 156.960658,19.2400883 C156.311189,16.4514662 157.004572,14.2411403 158.241107,11.9713848 C159.18642,10.2319246 161.021576,10.2684967 162.105567,12.0079569 C162.394477,12.4696795 162.722678,12.933688 162.893713,13.4434115 C164.285103,17.5623436 165.775879,21.6561323 166.977744,25.8344939 C168.699647,31.8140312 168.528613,38.0221441 169.178082,44.3674023" id="Fill-21" fill="#E2077A"></path>
                </g>
                <g id="Group-4" transform="translate(362.602740, 37.500000) rotate(-4.000000) translate(-362.602740, -37.500000) translate(287.602740, 12.000000)">
                    <g id="Group-5" transform="translate(0.000000, -0.000000)">
                        <mask id="mask-4" fill="white">
                            <use xlink:href="#path-3"></use>
                        </mask>
                        <g id="Clip-4"></g>
                        <path d="M36.92557,42.7839349 C36.0722595,42.1867808 35.633089,41.8825274 35.2257755,41.5987089 C33.8741317,41.6009795 34.151742,42.9247089 33.5601134,43.5082397 C33.2096872,43.5082397 32.8319551,43.6013322 32.5179368,43.4946164 C28.2035989,42.0323836 24.9997024,39.187387 22.6855244,35.3456199 C21.0949536,32.7072432 19.624984,29.9939384 18.152739,27.2874452 C16.6895959,24.5945753 15.0421377,22.0561027 12.996468,19.8423185 C11.2306842,20.673339 11.3899688,22.0583733 11.285296,23.229976 C10.8210951,28.463589 10.466118,33.7085548 9.99964155,38.9444384 C9.89724429,40.1137705 9.51268569,41.2581267 9.08944368,43.1721986 C7.96079833,41.5532979 7.30545586,40.6132911 6.55681811,39.5347808 C5.81728234,40.3567192 5.25523516,40.9811199 4.71366743,41.5828151 C4.34958828,41.5828151 3.92407078,41.7145068 3.68286834,41.5623801 C0.738378234,39.6800959 -0.180921613,37.0031199 0.447114916,33.6086507 C0.840775495,31.4743356 0.829398021,29.2650925 1.22078311,27.1285068 C2.52464155,20.0080685 3.88311187,12.8921712 5.31212253,5.79443836 C6.13812709,1.69609932 7.97900228,0.638023973 12.2273508,1.57348973 C12.7507146,1.68701712 13.2649764,1.86411986 13.7564833,2.00262329 C17.5338044,10.0380925 21.4999916,17.8941884 27.0840556,24.69675 C28.2172519,24.7580548 28.3901895,24.0541849 28.387914,23.325339 C28.3719855,18.4277671 28.5244437,13.5165719 28.189946,8.64170548 C28.0602428,6.76623288 28.62229,5.08375685 28.6427694,3.30591781 C28.6609734,1.70064041 29.8396796,1.20339041 30.9797024,0.644835616 C31.9058288,0.192996575 33.1823813,0.358746575 33.3598699,1.1647911 C33.8058668,3.2060137 36.1564528,2.80185616 37.1758744,4.87259589 C37.376118,8.98001712 37.6719323,13.6732397 37.8175639,18.3664623 C38.010981,24.6899384 37.9996035,31.020226 38.2612854,37.3414315 C38.3432032,39.2486918 37.992777,40.8789452 36.92557,42.7839349" id="Fill-3" fill="#E2077A" mask="url(#mask-4)"></path>
                    </g>
                    <path d="M48.0309171,27.008265 C48.159468,28.5882296 48.1571725,29.8571597 48.3821366,31.0855201 C49.2751067,35.9741693 53.097202,38.1018248 57.6791253,36.0124851 C60.1307757,34.8945644 62.3804174,33.2875534 64.563488,31.6918118 C66.3746792,30.364281 67.6188688,28.3538268 67.5752533,26.1833477 C67.52016,23.5260322 66.9370896,20.846178 66.2599015,18.2564786 C66.0395285,17.4067688 64.7058123,16.1288231 64.060762,16.2234858 C61.6642049,16.5795976 59.8667871,15.4120917 57.8880206,14.5916822 C55.9873029,13.8028269 54.4102582,14.3212175 52.9158533,15.6983335 C49.4748198,18.8740397 48.4785499,22.9760874 48.0309171,27.008265 M59.5706608,7.20123471 C64.6300591,6.71439828 68.4934744,8.50171906 71.2182955,12.741253 C71.8954836,13.7960652 72.6667893,14.9072243 73.6722414,15.6104325 C75.7083967,17.0348798 76.2271916,19.1445044 76.4269047,21.2406057 C77.1660727,29.0299885 75.2378084,35.8141444 68.5370899,40.8154871 C65.1236029,43.3646168 61.5769739,45.3953558 57.2774036,46.0782791 C51.8828546,46.9347506 48.2168568,45.3615477 45.2326383,40.7275861 C43.8713755,38.6089461 42.5330682,36.4790367 41.132781,34.3851893 C40.0423935,32.7624012 39.8266115,30.9209875 40.3178598,29.1967751 C41.8398113,23.8573515 43.2378029,18.461581 45.8019353,13.4692537 C46.8326385,11.4655612 48.4555943,10.056891 50.5147052,9.14181881 C51.5132706,8.69780596 52.5347916,8.21773114 53.5976325,8.01488263 C55.5695123,7.64299369 57.578121,7.4626839 59.5706608,7.20123471" id="Fill-9" fill="#E2077A"></path>
                    <path d="M98.9150038,10.4789209 C101.582354,9.56618174 104.481055,9.28481101 106.334137,11.439699 C109.396146,15.0037283 112.34021,18.9337682 112.185976,24.0190294 C112.058959,28.1984142 111.820803,32.4464259 110.945295,36.5091447 C110.085665,40.484936 107.656471,43.7126929 104.17939,46.0711744 C102.870665,46.9564628 101.573281,47.3613621 100.110321,47.1257427 C93.2922489,46.0139852 87.7783654,43.3283817 85.4444345,35.9784292 C83.0197774,28.347106 82.9630735,20.9536898 86.274579,13.6128876 C86.4265454,13.283478 86.5649028,12.9426305 86.744087,12.6269463 C87.4744327,11.3413337 89.5565985,10.362255 90.8290332,10.6939522 C92.7025288,11.181204 93.6438129,12.7642003 93.4215337,14.8321607 C93.0336793,18.4533792 92.5913892,22.0768851 92.4144732,25.7118289 C92.3192107,27.6951494 92.5414898,29.7425218 92.9565621,31.6869537 C93.2922489,33.2585122 93.9500137,34.8323582 94.7801583,36.211761 C96.6445812,39.3114142 100.346209,39.3342898 101.548331,36.0539189 C104.113614,29.0562517 105.583378,21.9442062 100.21012,15.3811768 C99.0556294,13.9674605 97.8557757,12.5423063 98.9150038,10.4789209" id="Fill-15" fill="#E2077A"></path>
                    <path d="M117.554115,40.4993154 C123.162322,43.4954184 128.619513,44.2197015 134.207126,41.8938979 C137.399068,40.5645459 140.334739,38.7650847 141.094398,35.1099291 C139.778723,33.1170258 137.694237,33.3846956 136.081105,32.7076483 C134.415346,32.0103571 132.859418,31.5222532 131.73137,29.826261 C130.893914,28.5643888 129.150359,27.8895909 127.818667,26.9448737 C123.015882,23.543892 121.368428,17.6079193 123.484949,12.1488038 C124.251472,10.1716458 125.791384,8.97275472 127.223753,7.64565206 C127.676803,7.22277867 128.589767,7.08332043 129.267053,7.13280561 C130.717728,7.23852396 132.147809,7.59616688 133.596196,7.77161435 C136.241274,8.09326804 137.23661,9.87473466 137.71483,12.1420558 C137.89788,13.0102958 136.795001,13.8717879 135.991868,13.2824644 C133.619077,11.536987 131.747386,13.2307298 130.083916,14.2136855 C128.127565,15.3720887 128.539428,19.4231258 130.605609,20.8334535 C131.935013,21.7399321 133.481789,22.3787409 134.994243,22.9883084 C137.019238,23.8003152 139.126606,24.41888 141.160754,25.2128923 C143.769222,26.2318372 146.041335,27.628669 147.098451,30.4245819 C147.409637,31.2433367 148.082347,31.927132 148.5926,32.6716591 C149.558191,34.0797375 149.775563,35.5013119 149.443785,37.2535373 C148.766498,40.8299664 146.917689,43.2457431 143.915662,45.4613298 C139.629995,48.6238829 134.955345,50.139929 129.80934,50.677518 C126.450365,51.0329116 123.281305,50.0926931 120.24038,48.8510649 C118.572333,48.1717683 117.025557,47.1730673 115.497087,46.2036075 C113.307346,44.8135237 113.506413,42.6024358 115.902086,41.2235986 C116.368864,40.9559287 116.895134,40.7849799 117.554115,40.4993154" id="Fill-17" fill="#E2077A"></path>
                </g>
                <path d="M256.885387,36.5380948 C258.175188,35.1247494 259.548955,34.3767853 261.293568,34.1078014 C264.202034,33.6594948 267.077847,32.9846755 269.976984,32.4514266 C271.849878,32.1045789 272.568248,32.8195099 272.90411,35.4550805 C270.081941,35.9458582 268.367648,39.180744 265.016032,38.6734497 C264.785127,38.6380571 264.288332,39.0202974 264.248682,39.2633268 C263.763549,42.2905758 261.456834,40.9668917 259.863825,41.0872266 C257.599093,41.2547517 256.995009,40.341622 256.88772,38.0623371 C256.864396,37.5220097 256.885387,36.9793228 256.885387,36.5380948" id="Fill-23" fill="#E2077A"></path>
                <path d="M137.80243,57.1540325 C137.310923,57.5119777 136.867499,57.8351968 136.424074,58.158416 C136.269143,57.8859503 135.929896,57.5467037 136.002019,57.3650599 C136.114211,57.0712242 136.472156,56.7319777 136.771334,56.6812242 C137.046471,56.6384845 137.383047,56.9456763 137.80243,57.1540325" id="Fill-25" fill="#E2077A"></path>
            </g>
            <g id="Group-7" transform="translate(0.000000, 67.000000)">
                <g id="Group-3" transform="translate(0.000000, 123.000000)">
                    <mask id="mask-6" fill="white">
                        <use xlink:href="#path-5"></use>
                    </mask>
                    <g id="Clip-2"></g>
                    <path d="M15.8426471,9.04911765 C14.4485294,9.94617647 13.575,10.4667647 12.7470588,11.0535294 C11.6,11.8652941 10.5367647,12.8035294 9.34852941,13.5447059 C7.86323529,14.4726471 6.125,14.405 5.26176471,13.0020588 C4.31764706,11.4652941 3.15147059,10.9785294 1.54117647,10.9226471 C1.21029412,10.9108824 0.879411765,10.7020588 0.558823529,10.5594118 C0.0485294118,10.3329412 -0.0191176471,9.43735294 0.463235294,9.09617647 C0.838235294,8.83294118 1.22647059,8.50352941 1.65441176,8.40794118 C4.57058824,7.76088235 7.075,6.22411765 9.61470588,4.77117647 C11.5544118,3.66235294 13.4970588,2.63441176 15.7308824,2.18882353 C16.7397059,1.98735294 17.6676471,1.39029412 18.6382353,0.988823529 C20.0735294,0.394705882 21.5102941,0.0579411765 23.0661765,0.644705882 C25.1117647,1.41529412 25.8676471,2.46235294 25.6367647,4.63882353 C25.475,6.15058824 25.2147059,7.65205882 24.9794118,9.155 C24.4,12.8491176 23.75,16.5344118 23.2573529,20.2402941 C23.0911765,21.5005882 22.5352941,22.4417647 21.7161765,23.2976471 C20.7102941,24.3491176 19.7367647,24.1755882 18.8,23.0726471 C16.2970588,20.1241176 15.5441176,16.6902941 15.7441176,12.9432353 C15.8,11.9005882 15.7985294,10.855 15.8426471,9.04911765" id="Fill-1" fill="#FFDD00" mask="url(#mask-6)"></path>
                </g>
                <g id="Group-6" transform="translate(603.000000, 12.000000) scale(1, -1) translate(-603.000000, -12.000000) translate(589.000000, 0.000000)">
                    <mask id="mask-8" fill="white">
                        <use xlink:href="#path-7"></use>
                    </mask>
                    <g id="Clip-5"></g>
                    <path d="M-0.000333333333,5.49883333 C0.969666667,4.08883333 1.75966667,2.80216667 3.06966667,1.75216667 C4.718,0.433833333 6.393,0.152166667 8.253,0.5605 C11.5013333,1.2705 14.7146667,2.1405 17.9496667,2.91216667 C20.268,3.46716667 22.5996667,3.9705 25.363,4.59716667 C25.9113333,5.42383333 26.703,6.61716667 27.4213333,7.70216667 C27.253,9.0955 26.5346667,9.7705 25.3996667,10.0921667 C22.768,10.8405 20.1396667,10.9288333 17.5596667,9.94383333 C15.9396667,9.3255 14.3146667,8.81216667 12.683,8.71383333 C11.8696667,9.37216667 12.2913333,10.0005 12.468,10.5988333 C13.3013333,13.4038333 14.1513333,16.2021667 14.983,19.0071667 C15.1346667,19.5188333 15.2413333,20.0421667 15.358,20.5621667 C15.6113333,21.6821667 15.4763333,22.7205 14.473,23.4138333 C13.273,24.2388333 11.5813333,24.0788333 10.4446667,23.0921667 C10.0446667,22.7455 9.718,22.3171667 9.33466667,21.9521667 C9.048,21.6788333 8.72133333,21.4438333 8.42466667,21.2005 C7.43466667,21.6388333 6.603,22.0055 5.853,22.3388333 C5.50466667,22.1788333 5.21633333,22.1305 5.058,21.9588333 C4.243,21.0855 3.658,20.1738333 3.423,18.8838333 C2.82466667,15.6171667 1.963,12.3971667 1.158,9.16883333 C0.871333333,8.0205 0.449666667,6.90716667 -0.000333333333,5.49883333" id="Fill-4" fill="#FFDD00" mask="url(#mask-8)"></path>
                </g>
                <g id="Group-3" transform="translate(0.000000, 123.000000)">
                    <mask id="mask-10" fill="white">
                        <use xlink:href="#path-9"></use>
                    </mask>
                    <g id="Clip-2"></g>
                    <path d="M15.8426471,9.04911765 C14.4485294,9.94617647 13.575,10.4667647 12.7470588,11.0535294 C11.6,11.8652941 10.5367647,12.8035294 9.34852941,13.5447059 C7.86323529,14.4726471 6.125,14.405 5.26176471,13.0020588 C4.31764706,11.4652941 3.15147059,10.9785294 1.54117647,10.9226471 C1.21029412,10.9108824 0.879411765,10.7020588 0.558823529,10.5594118 C0.0485294118,10.3329412 -0.0191176471,9.43735294 0.463235294,9.09617647 C0.838235294,8.83294118 1.22647059,8.50352941 1.65441176,8.40794118 C4.57058824,7.76088235 7.075,6.22411765 9.61470588,4.77117647 C11.5544118,3.66235294 13.4970588,2.63441176 15.7308824,2.18882353 C16.7397059,1.98735294 17.6676471,1.39029412 18.6382353,0.988823529 C20.0735294,0.394705882 21.5102941,0.0579411765 23.0661765,0.644705882 C25.1117647,1.41529412 25.8676471,2.46235294 25.6367647,4.63882353 C25.475,6.15058824 25.2147059,7.65205882 24.9794118,9.155 C24.4,12.8491176 23.75,16.5344118 23.2573529,20.2402941 C23.0911765,21.5005882 22.5352941,22.4417647 21.7161765,23.2976471 C20.7102941,24.3491176 19.7367647,24.1755882 18.8,23.0726471 C16.2970588,20.1241176 15.5441176,16.6902941 15.7441176,12.9432353 C15.8,11.9005882 15.7985294,10.855 15.8426471,9.04911765" id="Fill-1" fill="#FFDD00" mask="url(#mask-10)"></path>
                </g>
                <g id="Group-3-Copy" transform="translate(13.000000, 12.000000) scale(1, -1) translate(-13.000000, -12.000000) ">
                    <mask id="mask-12" fill="white">
                        <use xlink:href="#path-11"></use>
                    </mask>
                    <g id="Clip-2"></g>
                    <path d="M15.8426471,9.04911765 C14.4485294,9.94617647 13.575,10.4667647 12.7470588,11.0535294 C11.6,11.8652941 10.5367647,12.8035294 9.34852941,13.5447059 C7.86323529,14.4726471 6.125,14.405 5.26176471,13.0020588 C4.31764706,11.4652941 3.15147059,10.9785294 1.54117647,10.9226471 C1.21029412,10.9108824 0.879411765,10.7020588 0.558823529,10.5594118 C0.0485294118,10.3329412 -0.0191176471,9.43735294 0.463235294,9.09617647 C0.838235294,8.83294118 1.22647059,8.50352941 1.65441176,8.40794118 C4.57058824,7.76088235 7.075,6.22411765 9.61470588,4.77117647 C11.5544118,3.66235294 13.4970588,2.63441176 15.7308824,2.18882353 C16.7397059,1.98735294 17.6676471,1.39029412 18.6382353,0.988823529 C20.0735294,0.394705882 21.5102941,0.0579411765 23.0661765,0.644705882 C25.1117647,1.41529412 25.8676471,2.46235294 25.6367647,4.63882353 C25.475,6.15058824 25.2147059,7.65205882 24.9794118,9.155 C24.4,12.8491176 23.75,16.5344118 23.2573529,20.2402941 C23.0911765,21.5005882 22.5352941,22.4417647 21.7161765,23.2976471 C20.7102941,24.3491176 19.7367647,24.1755882 18.8,23.0726471 C16.2970588,20.1241176 15.5441176,16.6902941 15.7441176,12.9432353 C15.8,11.9005882 15.7985294,10.855 15.8426471,9.04911765" id="Fill-1" fill="#01B4AD" mask="url(#mask-12)"></path>
                </g>
                <g id="Group-6" transform="translate(603.000000, 12.000000) scale(1, -1) translate(-603.000000, -12.000000) translate(589.000000, 0.000000)">
                    <mask id="mask-14" fill="white">
                        <use xlink:href="#path-13"></use>
                    </mask>
                    <g id="Clip-5"></g>
                    <path d="M-0.000333333333,5.49883333 C0.969666667,4.08883333 1.75966667,2.80216667 3.06966667,1.75216667 C4.718,0.433833333 6.393,0.152166667 8.253,0.5605 C11.5013333,1.2705 14.7146667,2.1405 17.9496667,2.91216667 C20.268,3.46716667 22.5996667,3.9705 25.363,4.59716667 C25.9113333,5.42383333 26.703,6.61716667 27.4213333,7.70216667 C27.253,9.0955 26.5346667,9.7705 25.3996667,10.0921667 C22.768,10.8405 20.1396667,10.9288333 17.5596667,9.94383333 C15.9396667,9.3255 14.3146667,8.81216667 12.683,8.71383333 C11.8696667,9.37216667 12.2913333,10.0005 12.468,10.5988333 C13.3013333,13.4038333 14.1513333,16.2021667 14.983,19.0071667 C15.1346667,19.5188333 15.2413333,20.0421667 15.358,20.5621667 C15.6113333,21.6821667 15.4763333,22.7205 14.473,23.4138333 C13.273,24.2388333 11.5813333,24.0788333 10.4446667,23.0921667 C10.0446667,22.7455 9.718,22.3171667 9.33466667,21.9521667 C9.048,21.6788333 8.72133333,21.4438333 8.42466667,21.2005 C7.43466667,21.6388333 6.603,22.0055 5.853,22.3388333 C5.50466667,22.1788333 5.21633333,22.1305 5.058,21.9588333 C4.243,21.0855 3.658,20.1738333 3.423,18.8838333 C2.82466667,15.6171667 1.963,12.3971667 1.158,9.16883333 C0.871333333,8.0205 0.449666667,6.90716667 -0.000333333333,5.49883333" id="Fill-4" fill="#FFDD00" mask="url(#mask-14)"></path>
                </g>
                <g id="Group-6-Copy" transform="translate(589.000000, 123.000000)">
                    <mask id="mask-16" fill="white">
                        <use xlink:href="#path-15"></use>
                    </mask>
                    <g id="Clip-5"></g>
                    <path d="M-0.000333333333,5.49883333 C0.969666667,4.08883333 1.75966667,2.80216667 3.06966667,1.75216667 C4.718,0.433833333 6.393,0.152166667 8.253,0.5605 C11.5013333,1.2705 14.7146667,2.1405 17.9496667,2.91216667 C20.268,3.46716667 22.5996667,3.9705 25.363,4.59716667 C25.9113333,5.42383333 26.703,6.61716667 27.4213333,7.70216667 C27.253,9.0955 26.5346667,9.7705 25.3996667,10.0921667 C22.768,10.8405 20.1396667,10.9288333 17.5596667,9.94383333 C15.9396667,9.3255 14.3146667,8.81216667 12.683,8.71383333 C11.8696667,9.37216667 12.2913333,10.0005 12.468,10.5988333 C13.3013333,13.4038333 14.1513333,16.2021667 14.983,19.0071667 C15.1346667,19.5188333 15.2413333,20.0421667 15.358,20.5621667 C15.6113333,21.6821667 15.4763333,22.7205 14.473,23.4138333 C13.273,24.2388333 11.5813333,24.0788333 10.4446667,23.0921667 C10.0446667,22.7455 9.718,22.3171667 9.33466667,21.9521667 C9.048,21.6788333 8.72133333,21.4438333 8.42466667,21.2005 C7.43466667,21.6388333 6.603,22.0055 5.853,22.3388333 C5.50466667,22.1788333 5.21633333,22.1305 5.058,21.9588333 C4.243,21.0855 3.658,20.1738333 3.423,18.8838333 C2.82466667,15.6171667 1.963,12.3971667 1.158,9.16883333 C0.871333333,8.0205 0.449666667,6.90716667 -0.000333333333,5.49883333" id="Fill-4" fill="#01B4AD" mask="url(#mask-16)"></path>
                </g>
            </g>
        </g>
        <g id="Group-12" transform="translate(192.000000, 119.000000)">
            <g id="Group-2" transform="translate(0.000000, 5.000000)">
                <g id="Group-13" transform="translate(0.556333, 14.000000)">
                    <mask id="mask-18" fill="white">
                        <use xlink:href="#path-17"></use>
                    </mask>
                    <g id="Clip-12"></g>
                    <path d="M14.2112571,41.04044 C18.8983286,32.4086 20.9786143,23.6095067 18.3821143,13.9623867 C17.5939714,11.0354533 17.5933286,7.88377333 17.3124,4.82682667 C17.2365429,3.99905333 17.4229714,3.13796 17.5419,2.30038667 C17.7257571,1.00874667 18.4026857,-0.0150266667 19.7449714,0.0810133333 C21.1026857,0.17836 22.9129714,-0.24304 23.4465429,1.69932 C23.9203286,3.42673333 24.2366143,5.21033333 24.4686857,6.99001333 C24.9765429,10.8812667 25.2735429,14.8032267 25.8611143,18.6801067 C26.9822571,26.08172 26.6537571,33.2853733 23.3867571,40.1303467 C22.2527571,42.50652 20.9728286,44.8180133 19.6337571,47.0824667 C19.2416143,47.7456 18.4811143,48.4655733 17.7797571,48.6093067 C14.3057571,49.32144 10.9172571,49.2619867 8.02504286,46.6996133 C4.83261429,43.8713333 2.32482857,40.5079733 0.5499,36.6173733 C0.192471429,35.83468 0.159042857,34.73316 0.370542857,33.8792533 C0.996042857,31.3502 2.27532857,30.75828 4.51311429,32.1296267 C5.7879,32.9116667 6.8364,34.1464667 7.82447143,35.3185467 C8.84082857,36.5232933 9.6399,37.9148933 10.5701143,39.1973867 C11.4193286,40.3668533 12.5359714,41.06788 14.2112571,41.04044" id="Fill-11" fill="#1D1D1B" mask="url(#mask-18)"></path>
                </g>
                <path d="M22.6421496,6.98404924 C18.690246,7.14104904 16.7466469,6.14881026 16.5659605,3.57471118 C16.4103017,1.34740724 18.1738249,0.741039094 19.5680399,0 C24.1431893,2.76180107 24.1883608,2.86018761 22.6421496,6.98404924" id="Fill-14" fill="#1D1D1B"></path>
            </g>
            <path d="M350.183249,48 C348.313535,46.4322332 347.264718,44.7686843 347.105371,42.5942976 C346.946677,40.4392003 346.870922,38.2747908 346.639739,36.1276753 C346.46929,34.5419494 346.108147,32.9775084 345.199739,31.2082001 C344.838596,31.7137168 344.26782,32.1746681 344.154188,32.7327319 C343.657208,35.1605422 343.319575,37.6216101 342.870922,40.0607279 C342.623412,41.4076637 342.271412,42.7339798 341.942922,44.1720417 C340.971167,44.2352312 340.250841,44.2365615 339.545535,44.3389952 C338.4288,44.5012926 337.280065,45.1750931 336.29329,44.0197215 C335.311739,42.869006 334.37982,41.7242768 334.353698,40.0534112 C334.315167,37.6708314 334.202188,35.2875865 334.055249,32.9089976 C333.976228,31.6292423 333.758106,30.358134 333.02929,28.8794977 C332.657045,29.5240315 332.098677,30.1239999 331.943249,30.8184202 C331.262759,33.8668186 330.671739,36.936502 330.102922,40.0081808 C329.651004,42.4466335 329.201045,43.0891718 327.672882,43.1776372 C324.429779,43.3645453 322.586841,42.4120455 322.02782,40.1704783 C321.846269,39.4454609 321.768555,38.6605798 321.814269,37.9129473 C322.131657,32.6781893 321.462922,27.5698105 320.233861,22.4880378 C319.351575,18.8416664 320.995984,17.1568326 324.655086,17.9683199 C326.278596,18.3281679 327.096882,17.9756366 328.124147,16.6785873 C329.61182,14.8001938 331.471739,14.5261506 333.55631,15.7167753 C335.478269,16.8149437 337.222596,18.2350464 339.293453,19.6884068 C339.443004,19.5387473 339.774759,19.1902068 340.1248,18.8589604 C342.691984,16.430485 343.930841,16.5295929 346.609698,18.9301318 C348.770024,20.8650633 349.742433,23.4531756 351.105371,25.8976146 C353.786188,30.7066744 354.425535,35.8789079 354.791902,41.1874979 C354.83631,41.8353574 354.934269,42.4885382 354.899657,43.1330719 C354.795167,45.0633473 354.468637,46.8186874 352.034024,47.0601381 C351.457371,47.1180065 350.922514,47.6102201 350.183249,48" id="Fill-1" fill="#1D1D1B"></path>
            <path d="M174.230685,21.1744711 C175.484563,20.4704723 176.374032,19.9075345 177.317053,19.4523515 C182.973216,16.7219071 187.173053,21.2639404 188.393624,25.2143012 C189.48489,28.7486627 188.978767,32.3705342 188.494196,35.9636711 C188.225787,37.9561576 188.045543,39.9617053 187.841134,41.9626816 C187.660236,43.726597 186.655828,44.6565547 184.910849,44.6454527 C182.728318,44.6323915 180.559502,42.6248846 180.693379,40.4279903 C180.846196,37.895423 181.306604,35.3804884 181.626604,32.8577171 C181.904155,30.673884 182.5004,28.4632754 181.192971,26.3682584 C177.910685,28.1537249 175.180236,34.5739591 173.287665,44.9713297 C172.314604,44.9713297 171.284726,45.0438193 170.26791,44.9582685 C166.879828,44.6748404 165.986441,43.7305154 166,40.3450516 C166.009298,38.2199939 165.996236,36.0727322 166.277706,33.9737969 C167.371583,25.8118512 166.834114,17.6414158 166.550032,9.47228643 C166.476236,7.35310627 166.162767,5.24241589 166.02693,3.12388878 C165.949869,1.92291118 166.07591,0.708872375 167.44342,0.215811968 C168.802441,-0.2746362 170.021053,0.0636489544 170.778604,1.30446323 C171.46889,2.43425727 172.323094,3.63131651 172.490277,4.88062057 C173.066277,9.19800117 173.365379,13.5526062 173.788563,17.8908847 C173.888481,18.9129239 174.060236,19.9277793 174.230685,21.1744711" id="Fill-7" fill="#1D1D1B"></path>
        </g>
    </g>
</svg>