<?xml version="1.0" encoding="UTF-8"?>
<svg width="473px" height="117px" viewBox="0 0 473 117" version="1.1" xmlns="http://www.w3.org/2000/svg" xmlns:xlink="http://www.w3.org/1999/xlink">
    <!-- Generator: Sketch 59.1 (86144) - https://sketch.com -->
    <title>Res / Image / Slider / Low</title>
    <desc>Created with Sketch.</desc>
    <defs>
        <polygon id="path-1" points="0 0.00081721086 388.521446 0.00081721086 388.521446 9.91869214 0 9.91869214"></polygon>
    </defs>
    <g id="Res-/-Image-/-Slider-/-Low" stroke="none" stroke-width="1" fill="none" fill-rule="evenodd">
        <g id="Group-5">
            <g id="Slider" transform="translate(30.000000, 0.000000)">
                <g id="Group-4" transform="translate(8.663043, 0.000000)">
                    <g id="Group-3" transform="translate(0.000000, 58.112583)">
                        <mask id="mask-2" fill="white">
                            <use xlink:href="#path-1"></use>
                        </mask>
                        <g id="Clip-2"></g>
                        <path d="M103.18062,5.09098679 L103.215206,4.82527132 L102.920205,4.93074616 L103.18062,5.09098679 Z M214.538248,7.96517631 L214.833249,7.81304913 L214.534179,7.68729066 L214.538248,7.96517631 Z M98.5908178,5.31613502 C98.5989557,5.17617801 98.6091282,5.03216428 98.6193006,4.89017891 L96.4017101,4.89017891 L96.3895032,5.06056135 C97.1219184,5.14575257 97.8563681,5.2309438 98.5908178,5.31613502 L98.5908178,5.31613502 Z M219.846224,7.7826237 C218.232876,9.31606567 216.173976,8.82723033 214.2758,8.920535 C212.597348,9.00369786 210.788689,9.63857529 209.384894,7.84753129 C209.047169,7.41346174 207.85496,7.6041278 207.055406,7.57167401 C202.184845,7.37492285 197.316319,7.18020006 192.445757,7.0219878 C189.528304,6.92868312 186.602712,6.76438577 183.691361,6.88608751 C179.976389,7.04227142 176.326519,6.26338026 172.627823,6.34451475 C172.015442,6.35871329 171.403062,6.44593287 170.098956,6.56154953 C171.004302,7.24510766 171.38882,7.53719184 171.848614,7.88404182 L165.492878,7.88404182 C166.233431,7.45605735 166.723742,7.17208661 167.816262,6.54126591 C163.033183,6.19238757 158.838072,6.21469956 154.661271,6.25323845 C151.737713,6.27757879 148.830432,6.65891093 146.065565,5.27556777 C145.524391,5.00579557 144.789941,5.06461808 144.147044,5.07070317 C133.109953,5.1822631 122.048449,4.92668944 111.041876,5.56156687 C102.592653,6.04837384 94.1698782,5.9591259 85.7369309,5.942899 C70.7692124,5.91247356 55.8035283,5.68124025 40.8358098,5.70760896 C36.1320766,5.71572241 31.4263089,6.27757879 26.7225757,6.5899466 C22.1795669,6.89420096 17.6365582,7.39723484 13.0915149,7.43983045 C9.86481903,7.47025589 6.61370931,6.99156236 3.4073583,6.51084047 C2.20701115,6.33031622 1.10431937,5.49868763 -0.000406897337,4.98348358 C0.95173287,1.82735169 1.41152686,1.30403419 3.85697985,1.26346694 C6.94329615,1.21275788 10.0357159,1.37299851 13.1240667,1.39733886 C14.9123805,1.41153739 16.7149357,1.46224645 18.4869736,1.28375056 C31.3022052,-0.0164297354 44.168299,0.170179605 57.0140479,0.0200807878 C67.0908605,-0.0995925939 77.1758109,0.366930758 87.254658,0.63061787 C88.6991435,0.667128394 90.1354911,0.999779827 91.5698042,1.22087133 C92.8515308,1.41762248 94.1515678,1.93079817 95.3987082,1.82329496 C102.698446,1.18841753 109.957495,2.91861066 117.285716,1.97947887 C120.119756,1.616402 123.088072,2.35675427 126.001457,2.47642766 C128.92298,2.59610104 131.85671,2.68940571 134.774163,2.57784578 C138.839068,2.42369023 142.865317,2.44803058 146.920049,2.97743317 C149.916848,3.37093547 153.013337,3.41555945 156.024377,3.1539007 C159.271418,2.87398669 162.426906,3.70155855 165.663775,3.45206997 C168.896574,3.20258139 172.16396,3.22286502 175.408966,3.34051004 C178.476972,3.45004161 181.530736,3.96118893 184.598742,4.07883395 C189.298407,4.26138657 194.008243,4.25732984 198.714011,4.32832253 C199.039529,4.33237925 199.381323,4.24515967 199.68853,4.31615235 C204.475677,5.44189348 209.311652,4.51087514 214.121179,4.6589456 C219.136188,4.81310114 224.149163,5.04839118 229.164173,5.14778094 C232.571938,5.2147169 235.981738,5.08084498 239.389503,5.09098679 C241.643714,5.09504351 243.895891,5.29585139 246.146033,5.23500052 C250.040041,5.13155404 253.92998,4.81918623 257.823987,4.72993828 C261.04051,4.65691724 264.259068,4.8151295 267.477626,4.80295933 C272.663533,4.7826757 277.851474,5.01390902 283.031277,4.49261988 C284.477797,4.34657779 286.034179,4.19850733 287.39932,4.56766929 C290.65043,5.44392185 293.846608,5.04230609 297.075339,4.67922922 C297.557512,4.6264918 298.06003,4.49464824 298.527962,4.56969765 C305.770735,5.74817621 313.090818,4.47436462 320.362073,5.27151104 C323.556217,5.6244461 326.848017,5.42769495 330.066575,5.14575257 C333.645237,4.83338476 337.189313,5.1335824 340.749664,5.15792275 C343.471807,5.17820637 346.208192,5.58185049 348.973059,4.82932804 C350.446028,4.42771228 352.181445,5.12749731 353.778517,5.02405083 C363.657984,4.38714504 373.543555,3.98755764 383.445402,4.13968482 C384.409748,4.15388336 385.37613,4.14171319 386.3242,4.14171319 C387.137995,5.32627683 387.837859,6.34451475 388.521446,7.33638397 C387.49403,8.92662009 386.053614,9.2876686 384.318197,9.24912971 C379.762981,9.14771159 375.199627,9.33634929 370.658653,9.09700253 C361.570601,8.618309 352.529342,8.98747096 343.475876,9.80692937 C340.745595,10.0543896 337.950211,9.84546826 335.199585,9.62234839 C324.994599,8.79071981 314.781476,8.35259353 304.537836,8.44184148 C295.594232,8.51891925 286.640456,8.57774176 277.70906,8.20046635 C269.589424,7.8576731 261.49827,8.52297597 253.384737,8.31202628 C245.261032,8.10107659 237.12512,8.39113242 228.995311,8.35259353 C225.917132,8.33839499 222.843023,8.02197046 219.748569,7.86375819 C219.569534,7.87795673 219.400672,7.83738948 219.252154,7.87592837 C219.140257,7.90229708 219.054809,8.02805555 218.957153,8.1112184 C219.254188,8.00168683 219.549189,7.89215527 219.846224,7.7826237 L219.846224,7.7826237 Z" id="Fill-1" fill="#FFFFFF" mask="url(#mask-2)"></path>
                    </g>
                </g>
                <path d="M381.306828,71.4190406 C379.758237,64.2646088 384.362398,60.5224278 388.597988,56.9645321 C391.469272,54.5480165 394.429727,57.8919034 397.443683,58.1594144 C399.236007,58.3169486 400.540866,60.0914379 400.897547,62.0323785 C401.230449,63.8187572 401.426624,65.6170253 400.12771,67.2637038 C398.692068,69.079806 397.428822,71.0326359 395.972373,73.0924703 C391.169065,72.5425867 386.336034,71.992703 381.306828,71.4190406 Z" id="Fill-191" fill="#FFFFFF"></path>
                <path d="M18.6648662,68.3385024 C17.1846737,68.8800362 15.4878677,69.4967831 13.8482236,70.0924703 C6.18852832,66.2746567 6.18852832,66.2746567 0.421192982,66.6597475 C0.288818045,64.8726858 0.156443108,63.0856242 3.07309733e-13,60.9646166 C1.84422356,58.4344502 5.2258015,57.6642688 7.35282606,55.1100342 C9.99731629,51.9300272 17.5998496,52.7393194 20.3556551,55.9313605 C21.7666516,57.5679961 22.3894155,59.4904412 21.1920241,61.7678918 C20.1420501,63.7595329 19.5463629,65.9858387 18.6648662,68.3385024" id="Fill-199" fill="#FFFFFF"></path>
            </g>
            <path d="M445.842031,63.1754703 C448.555031,62.5244703 451.328031,61.8584703 454.094031,61.1944703 C454.408031,59.6984703 454.267031,58.3404703 454.290031,56.9954703 C454.323031,55.1634703 454.366031,53.3254703 454.266031,51.4974703 C454.191031,50.1074703 454.541031,48.9934703 455.764031,48.0924703 C456.303031,48.1784703 456.915031,48.2764703 457.396031,48.3534703 C459.460031,52.0554703 458.835031,56.0594703 459.214031,60.0494703 C459.852031,60.0884703 460.381031,60.1594703 460.907031,60.1474703 C463.854031,60.0804703 466.800031,59.9904703 469.746031,59.9174703 C470.064031,59.9084703 470.388031,59.9224703 470.700031,59.9774703 C471.501031,60.1204703 472.038031,60.6484703 472.158031,61.3664703 C472.344031,62.4884703 472.011031,63.3404703 471.139031,63.6894703 C470.555031,63.9234703 469.922031,64.0784703 469.297031,64.1584703 C466.452031,64.5224703 463.602031,64.8414703 460.755031,65.1904703 C460.450031,65.2284703 460.155031,65.3514703 459.714031,65.4734703 C459.665031,66.0264703 459.556031,66.5604703 459.580031,67.0894703 C459.685031,69.3984703 459.811031,71.7074703 459.966031,74.0144703 C460.022031,74.8464703 459.940031,75.5654703 459.228031,76.1384703 C459.003031,76.3194703 458.983031,76.5514703 458.536031,76.5004703 C457.752031,76.4084703 456.987031,77.2104703 456.118031,76.5214703 C455.738031,76.2194703 455.354031,75.9974703 455.200031,75.4984703 C454.676031,73.8074703 454.420031,72.0844703 454.436031,70.3094703 C454.448031,69.1274703 454.371031,67.9434703 454.327031,66.5614703 C453.379031,66.7484703 452.624031,66.8824703 451.876031,67.0484703 C451.098031,67.2214703 450.297031,67.3474703 449.559031,67.6324703 C448.282031,68.1274703 447.076031,68.0424703 445.762031,67.3824703 C444.733031,65.2504703 444.733031,65.2504703 445.842031,63.1754703 Z" id="Fill-18" fill="#FFFFFF"></path>
            <path d="M14.0549191,59.0924703 C14.4889191,59.6514703 14.8259191,60.0834703 15.1979191,60.5614703 C14.9869191,61.1764703 14.8209191,61.7854703 14.5689191,62.3564703 C14.3499191,62.8534703 14.0349191,63.3084703 13.6679191,63.9464703 C12.6169191,64.4664703 11.3709191,64.9124703 9.97691905,64.9514703 C8.78491905,64.9854703 7.59991905,65.1924703 6.40891905,65.2474703 C3.80491905,65.3684703 2.76991905,65.0854703 0.253919053,63.6714703 C0.196919053,63.4764703 0.0959190533,63.2554703 0.0699190533,63.0254703 C-0.288080947,59.9804703 0.688919053,59.4974703 3.92391905,59.5614703 C6.31291905,59.6084703 8.66891905,59.8534703 11.0409191,59.3274703 C12.0309191,59.1074703 13.0809191,59.1604703 14.0549191,59.0924703" id="Fill-31" fill="#FFFFFF"></path>
            <path d="M80.120572,43.0924703 C81.800572,44.0794703 82.662572,45.3634703 82.992572,47.0334703 C83.321572,48.7034703 83.686572,50.3664703 84.022572,52.0354703 C84.338572,53.6084703 84.606572,55.1904703 84.946572,56.7574703 C85.973572,61.4824703 86.551572,66.2654703 86.705572,71.0914703 C86.750572,72.4844703 86.503572,73.8924703 86.319572,75.2854703 C86.148572,76.5744703 85.887572,77.8524703 85.659572,79.1344703 C85.589572,79.5274703 85.616572,80.0104703 85.394572,80.2894703 C84.581572,81.3124703 84.547572,82.4974703 84.462572,83.7054703 C84.412572,84.4014703 84.319572,85.1374703 84.034572,85.7594703 C83.766572,86.3424703 83.222572,86.7994703 82.767572,87.3474703 C81.938572,86.2784703 81.246572,85.3864703 80.295572,84.1594703 L80.295572,79.3464703 C79.682572,79.2734703 79.210572,79.2174703 78.721572,79.1594703 C78.721572,76.6714703 78.729572,74.1804703 78.719572,71.6904703 C78.693572,66.0474703 77.867572,60.5174703 76.515572,55.0414703 C75.875572,52.4504703 75.525572,49.7874703 75.045572,47.1574703 C74.841572,46.0414703 75.342572,45.2024703 76.146572,44.5234703 C76.523572,44.2044703 76.959572,43.8984703 77.421572,43.7484703 C78.265572,43.4744703 79.147572,43.3214703 80.120572,43.0924703" id="Fill-197" fill="#FFDD00"></path>
        </g>
    </g>
</svg>