<?xml version="1.0" encoding="UTF-8"?>
<svg width="704px" height="696px" viewBox="0 0 704 696" version="1.1" xmlns="http://www.w3.org/2000/svg" xmlns:xlink="http://www.w3.org/1999/xlink">
    <!-- Generator: Sketch 59.1 (86144) - https://sketch.com -->
    <title>Res / Image / Soupe</title>
    <desc>Created with Sketch.</desc>
    <defs>
        <polygon id="path-1" points="0 0.976772727 699.162835 0.976772727 699.162835 694.022727 0 694.022727"></polygon>
        <polygon id="path-3" points="0.600821067 0.0493100173 3.91 0.0493100173 3.91 2.04931002 0.600821067 2.04931002"></polygon>
    </defs>
    <g id="Res-/-Image-/-Soupe" stroke="none" stroke-width="1" fill="none" fill-rule="evenodd">
        <g id="Group-53">
            <g id="Group-3" transform="translate(0.000000, 0.533708)">
                <mask id="mask-2" fill="white">
                    <use xlink:href="#path-1"></use>
                </mask>
                <g id="Clip-2"></g>
                <path d="M212.438729,423.177293 C212.189576,422.868839 211.979972,422.501066 211.665565,422.275657 C211.542966,422.188657 211.015,422.37452 210.971497,422.520839 C210.779689,423.185202 211.086186,423.653816 211.780254,423.73093 C211.950311,423.748725 212.157938,423.424452 212.438729,423.177293 L212.438729,423.177293 Z M152.644096,624.837361 C152.646073,624.900634 152.646073,624.965884 152.648051,625.029157 C153.231384,624.993566 153.814718,624.957975 154.396073,624.920407 C153.81274,624.892725 153.229407,624.865043 152.644096,624.837361 L152.644096,624.837361 Z M142.476299,623.043975 C142.768955,623.17052 143.06952,623.429543 143.310763,623.380111 C143.755678,623.291134 144.76613,623.654952 144.483362,622.862066 C144.319237,622.407293 143.128842,622.375657 142.476299,623.043975 L142.476299,623.043975 Z M299.788446,266.345952 C299.074605,267.57977 298.863023,268.524907 299.701441,269.497725 C300.245226,268.60993 300.359915,267.741907 299.788446,266.345952 L299.788446,266.345952 Z M301.848898,448.063248 C301.572062,448.150248 301.295226,448.237248 301.01839,448.324248 C301.239859,448.43102 301.471215,448.650498 301.676864,448.628748 C302.040706,448.59118 302.388729,448.403339 302.742684,448.27877 C302.446073,448.205611 302.147486,448.13443 301.848898,448.063248 L301.848898,448.063248 Z M210.858785,516.34243 C211.076299,515.996407 211.005113,515.658293 210.609633,515.606884 C209.913588,515.513952 209.40935,515.923248 209.183927,516.544111 C209.035621,516.959339 209.136469,517.550543 209.658503,517.566361 C210.376299,517.590089 210.613588,516.909907 210.858785,516.34243 L210.858785,516.34243 Z M503.096921,503.037361 C503.069237,502.515361 502.948616,502.046748 502.325734,502.216793 C501.837316,502.351248 501.734492,502.817884 501.750311,503.294407 C501.764153,503.737316 501.772062,504.340384 502.264435,504.360157 C503.154266,504.391793 502.916977,503.529702 503.096921,503.037361 L503.096921,503.037361 Z M216.081102,541.45577 C215.341554,542.549202 215.543249,543.520043 216.21952,544.76177 C216.781102,543.409316 216.808785,542.418702 216.081102,541.45577 L216.081102,541.45577 Z M211.268107,426.894566 C211.337316,426.259861 210.844944,426.192634 210.431667,426.117498 C209.804831,426.008748 209.177994,426.117498 208.831949,426.694861 C208.533362,427.195111 208.875452,427.554975 209.36387,427.622202 C210.10935,427.728975 210.898333,427.810043 211.268107,426.894566 L211.268107,426.894566 Z M286.959068,383.434111 C287.837034,382.39802 287.805395,381.369839 287.192401,379.746498 C287.089576,381.367861 287.024322,382.401975 286.959068,383.434111 L286.959068,383.434111 Z M291.121497,362.150748 C291.576299,361.084998 291.752288,360.09043 291.036469,359.078066 C290.10709,360.139861 290.516412,361.116634 291.121497,362.150748 L291.121497,362.150748 Z M332.694379,451.986157 C332.211893,451.982202 331.834209,452.156202 331.634492,452.620861 C331.343814,453.30302 331.517825,453.864566 332.265282,453.93377 C332.506525,453.953543 332.878277,453.386066 333.05822,453.022248 C333.250028,452.630748 333.220367,452.187839 332.694379,451.986157 L332.694379,451.986157 Z M306.361328,243.364111 C305.530819,243.686407 305.285621,244.362634 305.261893,245.159475 C305.246073,245.70718 304.987034,246.454589 305.948051,246.434816 C306.513588,246.422952 306.588729,245.898975 306.600593,245.46002 C306.616412,244.758089 306.871497,244.018589 306.361328,243.364111 L306.361328,243.364111 Z M232.098051,433.265339 C232.665565,433.480861 233.063023,433.763611 233.452571,433.753725 C234.304831,433.73593 235.295508,434.384475 235.973757,433.399793 C236.102288,433.21393 236.040989,432.72752 235.878842,432.53968 C235.107655,431.643975 234.231667,432.059202 233.399181,432.470475 C233.001723,432.668202 232.637881,432.93118 232.098051,433.265339 L232.098051,433.265339 Z M219.367542,430.84318 C219.478277,431.110111 219.589011,431.375066 219.697768,431.64002 C220.668672,431.036952 221.627712,430.412134 222.612458,429.830816 C223.029689,429.583657 223.037599,429.453157 222.559068,429.314748 C221.495226,429.822907 220.431384,430.333043 219.367542,430.84318 L219.367542,430.84318 Z M408.676017,456.003975 C410.505113,456.405361 411.829972,456.846293 413.111328,455.816134 C411.739011,454.778066 410.473475,455.67377 408.676017,456.003975 L408.676017,456.003975 Z M366.300311,689.618748 C364.700593,688.280134 363.468672,687.722543 361.940141,689.82043 C363.419237,690.245543 364.663023,690.107134 366.300311,689.618748 L366.300311,689.618748 Z M291.313305,365.434998 C291.159068,365.379634 291.004831,365.322293 290.850593,365.26693 C290.682514,365.974793 290.565847,366.700452 290.330537,367.384589 C290.154548,367.900657 290.144661,368.345543 290.688446,368.495816 C291.250028,368.650043 291.489294,368.179452 291.483362,367.706884 C291.473475,366.949589 291.374605,366.192293 291.313305,365.434998 L291.313305,365.434998 Z M487.505113,622.794839 C488.913023,620.999475 488.913023,620.999475 488.450311,618.543702 C488.080537,620.202634 487.793814,621.497748 487.505113,622.794839 L487.505113,622.794839 Z M490.336751,429.53027 C492.873757,430.218361 494.149181,429.453157 495.826017,428.294475 C493.870367,428.213407 492.351723,427.748748 490.336751,429.53027 L490.336751,429.53027 Z M53.2262994,623.747884 C53.125452,623.80918 53.0246045,623.870475 52.9257345,623.93177 C53.204548,624.044475 53.475452,624.206611 53.7661299,624.261975 C55.2590678,624.546702 56.7698023,625.031134 58.4407062,623.89618 C56.5720621,623.154702 54.9070904,623.293111 53.2262994,623.747884 L53.2262994,623.747884 Z M254.61274,231.688316 C255.486751,230.414952 256.360763,229.137634 257.234774,227.86427 C255.569802,228.617611 254.349746,229.667543 254.61274,231.688316 L254.61274,231.688316 Z M154.099463,622.86602 C154.091554,622.962907 154.085621,623.057816 154.077712,623.154702 L158.975734,623.154702 C158.973757,623.057816 158.97178,622.962907 158.97178,622.86602 L154.099463,622.86602 Z M513.472345,446.11168 C512.546921,447.35143 513.007655,448.749361 513.173757,450.465634 C513.606808,449.123066 514.45709,448.32227 514.387881,447.159634 C514.360198,446.696952 514.324605,446.27777 513.472345,446.11168 L513.472345,446.11168 Z M214.655395,510.406657 C214.166977,512.585611 213.431384,513.809543 215.22291,515.300407 C215.857655,513.730452 215.754831,512.532225 214.655395,510.406657 L214.655395,510.406657 Z M225.697203,443.867475 C226.399181,443.92877 226.699746,443.968316 227.002288,443.98018 C227.461045,443.997975 227.919802,443.982157 228.378559,444.007861 C230.340141,444.122543 231.41387,443.50168 230.502288,442.789861 C229.151723,441.733998 227.903983,442.681111 226.640424,443.050861 C226.391271,443.12402 226.205395,443.41468 225.697203,443.867475 L225.697203,443.867475 Z M291.993531,329.614725 C291.66726,332.948407 291.133362,335.639475 292.048898,338.324611 C292.859633,335.661225 293.21161,332.987952 291.993531,329.614725 L291.993531,329.614725 Z M505.627994,618.933225 C505.074322,618.80668 503.897768,618.573361 503.023757,619.374157 C502.683644,619.682611 502.814153,620.509111 502.729124,621.100316 C503.023757,621.122066 503.551723,621.232793 503.577429,621.161611 C504.542401,618.504157 506.32404,619.969316 507.80709,620.368725 C508.530819,620.562498 509.10822,620.649498 509.246638,619.846725 C509.404831,618.923339 508.66726,619.028134 508.044379,619.043952 C507.41952,619.055816 506.792684,618.990566 505.627994,618.933225 L505.627994,618.933225 Z M291.250028,345.03152 C290.557938,348.177361 290.838729,351.420089 291.141271,355.265884 C291.594096,351.493248 291.760198,348.319725 291.250028,345.03152 L291.250028,345.03152 Z M305.633644,250.243043 C305.645508,252.679043 303.592966,254.846134 304.631102,257.717134 C305.738446,255.130861 306.003418,252.728475 305.633644,250.243043 L305.633644,250.243043 Z M102.483362,623.144816 C107.964718,623.882339 112.722345,623.399884 117.481949,622.923361 C112.712458,622.61293 107.940989,622.100816 102.483362,623.144816 L102.483362,623.144816 Z M211.887034,537.435975 C214.143249,532.257498 211.97404,528.526384 211.119802,524.648952 C211.050593,528.619316 210.678842,532.607475 211.887034,537.435975 L211.887034,537.435975 Z M221.335056,620.28568 C222.139859,617.252543 222.479972,614.114611 220.698333,610.711725 C218.230537,614.25302 221.710763,617.139839 221.335056,620.28568 L221.335056,620.28568 Z M572.039011,302.245316 C570.342401,305.86768 567.186469,308.119793 563.415565,310.955202 C570.461045,309.306157 571.863023,307.813316 572.039011,302.245316 L572.039011,302.245316 Z M518.330819,432.861975 C517.789011,431.663748 516.835904,431.948475 516.183362,431.632111 C513.992401,430.576248 513.454548,430.882725 513.438729,433.16252 C513.428842,434.548589 513.36952,435.972225 513.998333,437.306884 C514.383927,438.12943 514.941554,438.58618 515.803701,438.384498 C516.559068,438.212475 516.61839,437.494725 516.448333,436.887702 C515.908503,434.983589 516.909068,433.72802 518.330819,432.861975 L518.330819,432.861975 Z M267.046638,447.420634 C269.053701,448.597111 271.735056,447.381089 274.018955,448.616884 C276.166412,449.77952 278.26048,449.073634 280.226017,447.420634 L267.046638,447.420634 Z M307.199746,687.983543 C304.045791,686.37602 301.226017,687.639498 298.503136,687.372566 C295.102006,687.038407 291.657373,687.127384 288.232514,687.10168 C287.599746,687.099702 287.061893,687.520861 287.32291,688.307816 C287.51274,688.875293 288.129689,688.912861 288.479689,688.709202 C289.905395,687.886657 291.433927,687.613793 293.003983,687.88468 C296.683927,688.517407 300.514153,687.247998 304.144661,688.86343 C304.832797,689.169907 306.007373,689.08093 307.199746,687.983543 L307.199746,687.983543 Z M404.986186,688.090316 C398.571497,687.706725 392.020367,686.348339 385.736186,688.92077 C392.152853,688.643952 398.56952,688.367134 404.986186,688.090316 L404.986186,688.090316 Z M252.133079,682.826816 C260.046638,687.174839 268.503983,684.31768 276.710198,684.786293 C268.448616,685.065089 260.321497,683.532702 252.133079,682.826816 L252.133079,682.826816 Z M196.26161,622.905566 C200.044379,623.919907 203.96952,623.142839 207.797768,623.963407 C205.743249,624.532861 203.46726,623.894202 201.173475,625.046952 C204.849463,625.914975 208.147768,625.381111 211.436186,625.300043 C212.237034,625.28027 213.502571,626.009884 213.573757,624.435975 C213.623192,623.34452 212.867825,622.755293 211.744661,622.749361 C206.585621,622.715748 201.418672,622.09093 196.26161,622.905566 L196.26161,622.905566 Z M166.638164,623.336611 L182.953701,623.336611 C182.40596,625.485907 180.555113,623.842793 179.700876,625.19327 C181.828559,625.300043 183.819802,625.22293 185.743814,625.547202 C187.626299,625.863566 186.50709,622.759248 188.624887,623.370225 C189.831102,623.718225 191.221215,623.43152 192.528277,623.43152 L192.51048,622.34402 C184.049181,621.831907 175.576017,622.907543 166.638164,623.336611 L166.638164,623.336611 Z M484.734774,625.663861 C481.891271,632.55268 478.134209,639.190384 479.091271,647.11727 C481.640141,640.147384 483.668955,633.037111 484.734774,625.663861 L484.734774,625.663861 Z M448.000593,436.67218 C455.295226,436.86793 461.616977,435.612361 467.942684,434.516952 C474.126017,433.449225 480.265847,432.128407 486.439294,431.007293 C487.483362,430.817475 488.298051,430.637543 488.312099,429.439316 C488.327712,428.219339 487.431949,428.063134 486.447203,427.81202 C483.674887,427.10218 480.851158,427.064611 478.027429,426.880725 C475.215565,426.694861 472.318672,426.714634 469.627429,426.008748 C466.679124,425.233657 463.738729,425.182248 460.776582,424.88368 C459.174887,424.72352 458.073475,425.107111 456.993814,426.176816 C453.895226,429.251475 450.933079,432.436861 448.000593,436.67218 L448.000593,436.67218 Z M508.321215,529.291589 C517.029689,522.064657 525.137034,514.566839 532.603701,506.400702 C533.436186,505.48918 534.080819,504.352248 534.596921,503.21927 C535.294944,501.690839 536.352853,500.063543 535.105113,498.378907 C534.389294,497.413998 530.652006,498.230611 529.139294,499.56527 C529.028559,499.662157 529.002853,499.846043 528.91387,499.974566 C528.743814,500.221725 528.557938,500.45702 528.377994,500.69627 C528.209915,500.294884 528.126864,499.818361 527.85596,499.505952 C527.20935,498.76052 526.370932,499.175748 525.67291,499.387316 C520.140141,501.07393 515.467542,504.194066 511.36839,508.203975 C510.593249,508.96127 509.988164,509.86093 509.786469,511.031475 C508.750311,517.034475 508.133362,523.069111 508.321215,529.291589 L508.321215,529.291589 Z M463.568672,419.398725 C472.057655,419.736839 480.293531,420.810498 488.689576,419.993884 C489.071215,414.289452 488.357373,408.840089 487.740424,403.396657 C487.479407,401.091157 486.886186,398.809384 483.746073,398.502907 C486.01613,395.570611 490.053983,394.423793 489.440989,389.753475 C485.136186,391.770293 482.154266,394.852861 479.534209,398.28343 C474.950593,404.282475 470.620085,410.47727 465.494661,416.051202 C464.765,416.846066 463.96613,417.631043 463.568672,419.398725 L463.568672,419.398725 Z M187.942684,500.24743 C185.490706,499.450589 183.724887,498.827748 181.931384,498.305748 C179.17291,497.50693 178.696356,497.686861 178.80709,500.411543 C178.911893,502.985952 178.239576,505.40218 177.944944,507.887611 C177.751158,509.516884 176.900876,510.989952 174.949181,510.827816 C172.973757,510.663702 173.303983,509.006748 173.286186,507.658248 C173.248616,504.664657 173.197203,501.671066 173.163588,498.679452 C173.153701,497.688839 173.082514,496.708111 171.818955,496.597384 C167.955113,496.257293 164.202006,496.739748 160.326299,497.870748 C161.939859,502.57468 164.686469,506.028975 168.182514,508.727952 C170.458503,510.48377 172.081949,513.712657 175.789576,513.024566 C177.389294,517.135316 181.545791,517.823407 184.806525,519.638543 C190.434209,522.77252 196.510763,525.174907 200.91839,530.177407 C201.444379,530.774543 201.774605,532.04593 203.46726,531.047407 C201.940706,524.892157 202.092966,518.406702 202.11274,512.000339 C202.124605,508.366111 201.414718,505.922202 198.420932,504.05368 C194.61839,501.68293 191.134209,498.78227 186.477429,496.640884 C187.031102,498.00718 187.355395,498.80402 187.942684,500.24743 L187.942684,500.24743 Z M431.323192,424.976611 C422.197486,422.319157 413.160763,424.185702 404.677712,421.629089 C404.276299,421.506498 403.513023,421.603384 403.335056,421.872293 C401.901441,424.043339 399.661045,423.321634 397.764718,423.36118 C392.554266,423.46993 387.337881,423.23068 382.127429,423.325589 C375.374605,423.446202 368.651441,422.27368 361.886751,423.003293 C359.541554,423.256384 357.146921,423.080407 354.807655,423.371066 C353.203983,423.566816 353.514435,420.701748 351.851441,421.65677 C348.950593,423.327566 346.083362,422.467452 343.125169,421.996861 C340.17291,421.52627 337.169237,421.625134 334.220932,422.23018 C331.802571,422.728452 329.492966,423.552975 326.890706,423.110066 C324.472345,422.696816 322.075734,424.219316 319.586186,423.713134 C317.614718,423.313725 315.973475,423.895043 314.231384,424.79668 C310.765,426.59402 307.654548,426.655316 303.875734,425.407657 C305.056243,424.64443 306.758785,425.76752 307.86613,424.413089 C302.384774,423.228702 297.101158,424.980566 291.746356,424.859952 C289.52178,424.808543 288.392684,426.370589 288.726864,428.721566 C289.063023,431.08243 288.940424,433.346407 287.164718,435.290066 C285.772627,434.319225 285.428559,432.745316 284.817542,431.323657 C284.208503,429.90793 283.542119,428.517907 282.81048,426.92027 C268.919237,430.797702 254.462458,430.79177 240.46048,434.505089 C241.25935,435.744839 241.91387,436.059225 242.704831,436.32418 C252.526582,439.645998 262.76161,440.430975 272.980819,441.085452 C289.533644,442.14527 306.114153,442.25402 322.698616,442.034543 C333.902571,441.886248 345.116412,442.157134 356.312458,441.803202 C359.759068,441.694452 363.177994,442.085952 366.614718,441.803202 C376.331667,440.994498 386.048616,440.13043 395.779407,439.533293 C403.799746,439.038975 411.841836,438.849157 419.876017,438.623748 C421.827712,438.570361 423.045791,437.866452 424.06613,436.169952 C426.255113,432.535725 428.66952,429.03793 431.323192,424.976611 L431.323192,424.976611 Z M378.742119,15.7760659 C376.988164,13.9273159 375.182797,14.6391341 373.17178,14.8190659 C367.838729,15.2916341 363.187881,17.5378159 358.412458,19.503225 C337.119802,28.2625432 323.00709,43.3689068 318.111045,66.1846568 C316.254266,74.8391795 316.552853,83.7645886 316.293814,92.5970659 C316.117825,98.6376341 316.782232,104.56352 318.463023,110.360884 C319.155113,112.751407 319.536751,115.290225 321.595226,117.103384 C324.353701,119.531475 326.335056,122.617998 328.261045,125.686725 C332.103136,131.80243 337.519237,136.316543 343.96952,138.940384 C355.936751,143.810407 368.267825,147.822293 380.952853,150.430316 C384.893814,151.23902 389.044379,151.183657 393.149463,151.218644 C400.030819,151.272634 406.615565,149.641384 413.32291,148.708111 C423.955395,147.229111 433.638729,143.260725 441.77178,136.36202 C453.22291,126.649657 460.727147,114.44593 462.326864,99.1932477 C463.066412,92.1284523 463.560763,84.840225 461.82065,78.0166568 C459.489294,68.8658386 457.71952,59.5647477 454.933362,50.5286114 C453.578842,46.1390659 452.046356,41.8780432 448.585904,38.6115886 C448.040141,38.0935432 447.065282,37.0574523 447.531949,36.6797932 C449.981949,34.7084523 447.500311,33.7356341 446.622345,33.7514523 C443.031384,33.8068159 441.56613,30.8428841 439.400876,29.0178614 C438.101723,27.9264068 436.990424,26.637225 435.497486,25.6901114 C433.170085,24.2130886 430.733927,22.7756114 429.792684,19.8532023 C429.502006,18.9535432 428.66161,18.4078159 427.704548,18.0954068 C418.855678,15.1947477 410.853136,10.2219068 401.640424,8.06074773 C394.996356,6.50067955 388.423475,5.33211136 381.633079,5.55554318 C378.581949,5.65638409 375.653418,6.49870227 372.641836,7.84720227 C378.981384,11.847225 379.046638,11.9302705 378.742119,15.7760659 L378.742119,15.7760659 Z M204.111893,442.483384 C204.651723,443.695452 204.505395,444.986611 204.380819,446.218452 C203.589859,453.981225 203.607655,461.777611 203.403983,469.562134 C203.190424,477.769793 203.696638,485.94977 204.351158,494.151498 C205.456525,507.980543 206.666695,521.789816 208.286186,535.565475 C208.416695,536.676702 208.606525,537.724657 209.925452,538.697475 C209.468672,534.564975 208.794379,530.73302 208.683644,526.887225 C208.535339,521.813543 207.147203,516.880248 208.023192,511.626634 C208.592684,508.20793 209.081102,504.494611 208.731102,500.990884 C208.118107,494.916702 207.594096,488.957202 208.96839,482.884998 C209.860198,478.944293 209.877994,474.839475 210.125169,470.780134 C210.392119,466.386634 209.215565,461.204202 214.026582,457.961475 C214.754266,457.473089 214.924322,455.970361 213.941554,455.019293 C211.341271,452.512111 211.305678,452.415225 212.828277,450.028657 C213.332514,449.241702 214.002853,448.541748 214.400311,447.707339 C214.62178,447.246634 214.671215,446.222407 213.720085,446.489339 C212.260763,446.898634 211.776299,446.00293 212.175734,445.12502 C212.944944,443.432475 210.200311,440.958907 213.377994,439.887225 C213.427429,439.86943 213.417542,439.242634 213.265282,439.12993 C211.440141,437.789339 209.229407,437.093339 207.11161,437.043907 C205.476299,437.002384 205.480254,439.02118 205.337881,440.409225 C205.237034,441.385998 205.061045,442.293566 203.955678,442.637611 C204.141554,440.763157 204.366977,438.95593 203.686751,437.04193 C203.006525,435.135839 203.048051,432.982589 202.476582,431.025089 C201.681667,428.300407 203.139011,426.85502 205.199463,425.820907 C205.86387,425.48477 206.573757,425.132816 207.269802,424.865884 C209.195791,424.12243 210.204266,423.256384 210.277429,420.804566 C210.40596,416.55343 211.681384,416.013634 216.344096,417.237566 C216.427147,418.59793 214.149181,420.074952 214.942119,420.367589 C217.900311,421.464975 215.70935,424.40518 217.392119,425.816952 C223.002006,425.597475 228.303418,423.355248 233.976582,422.981543 C236.418672,422.821384 239.452006,422.184702 241.302853,420.735361 C243.349463,419.13377 245.192401,418.716566 247.480254,418.811475 C248.247486,418.843111 249.083927,419.179248 249.732514,418.550475 C251.217542,417.116952 252.334774,418.317157 253.881102,418.769952 C250.242684,421.045793 246.175169,420.948907 242.186751,423.199043 C250.841836,422.083861 258.81274,421.170361 266.742119,419.983998 C270.352853,419.442225 273.997203,419.596452 277.586186,419.050725 C281.173192,418.504998 281.187034,418.439748 280.595791,414.89252 C279.456808,408.045225 278.286186,400.998225 278.956525,394.23793 C280.115282,382.540384 279.925452,370.809225 280.939859,359.113657 C281.977994,347.093816 284.374605,335.210407 284.447768,323.089725 C284.465565,320.232566 285.804266,317.323998 286.009915,314.56768 C286.456808,308.604225 287.874605,302.830589 288.594379,296.934361 C289.260763,291.48302 290.35822,286.087043 291.303418,280.43402 C288.877147,282.055384 286.423192,283.134975 285.290141,285.491884 C283.894096,288.390566 281.879124,290.78702 279.72178,293.062861 C270.044379,303.27152 260.653701,313.727339 252.046073,324.867293 C247.923192,330.201975 243.620367,335.400225 239.673475,340.861452 C231.067825,352.770566 223.690141,365.470589 216.288729,378.136998 C213.154548,383.501339 210.048051,388.924998 208.665847,395.177134 C207.536751,400.29827 205.589011,405.23552 204.355113,410.336884 C203.773757,412.737293 202.148333,414.467407 201.343531,416.703702 C197.622062,427.056702 192.059633,436.788839 190.934492,448.007884 C190.803983,449.320793 189.922062,449.573884 188.792966,450.042498 C186.694944,450.908543 186.392401,452.523975 188.148333,453.81118 C189.991271,455.161657 189.712458,456.17402 188.581384,457.63918 C186.72065,460.04552 185.741836,462.900702 184.768955,465.728202 C184.415,466.760339 184.393249,467.97043 183.582514,468.757384 C181.000028,471.256657 179.888729,474.040657 180.280254,477.809339 C180.580819,480.70802 179.734492,483.737202 179.313305,486.695202 C178.753701,490.60427 179.331102,491.559293 183.098051,491.901361 C184.784774,492.053611 186.139294,492.587475 187.290141,493.771861 C188.40935,494.920657 189.698616,495.869748 191.288446,496.15843 C193.704831,496.599361 195.743531,497.483202 197.287881,499.553407 C198.132232,500.68243 199.603418,501.637452 201.019237,500.854452 C202.302571,500.146589 201.535339,498.582566 201.55709,497.380384 C201.563023,497.067975 201.515565,496.751611 201.489859,496.437225 C200.584209,484.460884 199.714153,472.474657 200.71274,460.470634 C201.216977,454.388543 201.472062,448.211543 204.111893,442.483384 L204.111893,442.483384 Z M438.21839,425.573748 C433.266977,430.13927 429.946921,434.809589 429.242966,438.190725 C434.712458,438.313316 434.591836,437.937634 440.399463,434.77993 C442.633927,433.565884 444.304831,432.144225 445.576299,430.27768 C449.673475,424.258861 454.450876,418.787748 459.036469,413.168339 C469.115282,400.822248 478.01952,387.499384 489.597203,376.39502 C490.494944,375.53293 491.236469,374.455316 491.861328,373.37177 C494.378559,369.00002 498.281949,366.047952 502.195226,363.097861 C503.698051,361.964884 505.513305,361.10477 506.695791,359.704861 C512.10596,353.288611 518.46726,347.835293 524.352006,341.901498 C534.128277,332.04677 543.959915,322.251361 555.357655,314.223634 C557.936186,312.408498 560.730254,310.901816 563.395791,309.207293 C564.307373,308.62993 565.788446,308.123748 565.604548,306.963089 C565.177429,304.238407 566.792966,302.739634 568.256243,300.882975 C569.624605,299.144952 569.937034,296.84143 569.71952,294.567566 C569.383362,291.016384 568.635904,290.377725 564.849181,290.39552 C564.380537,290.397498 563.826864,290.488452 563.455113,290.280839 C560.255678,288.483498 557.906525,290.300611 555.885621,292.305566 C550.946073,297.207225 545.292684,301.331816 540.434209,306.267089 C529.586186,317.290384 518.835056,328.426384 508.475452,339.90643 C496.217542,353.488316 484.398616,367.467634 472.417542,381.298657 C463.633927,391.438111 455.356525,401.982907 447.31048,412.711589 C445.236186,415.473839 443.033362,418.14118 440.929407,420.800611 C441.791554,422.277634 443.717542,422.497111 444.200028,424.537657 C442.009068,424.330043 439.731102,423.547043 438.141271,425.62318 L438.21839,425.573748 Z M496.636751,536.093407 C494.123475,540.287202 495.857655,545.81368 492.363588,549.704952 C492.290424,549.78602 492.329972,550.021316 492.387316,550.157748 C493.459068,552.688657 492.359633,554.737111 490.886469,556.662975 C490.36048,557.351066 490.024322,558.147907 490.340706,558.845884 C491.879124,562.260634 489.577429,564.959611 488.731102,567.901793 C487.578277,571.91368 485.687881,575.757498 486.66274,580.145066 C486.856525,581.013089 486.927712,582.35368 486.429407,582.859861 C483.765847,585.566748 484.566695,589.299839 483.32291,592.368566 C481.871497,595.955339 482.62291,600.279634 479.550028,603.326611 C479.128842,603.743816 478.602853,604.912384 479.466977,605.40077 C481.756808,606.69193 480.299463,608.384475 480.180819,609.96827 C479.961328,610.69393 479.76952,611.429475 479.51048,612.137339 C479.202006,612.985589 478.630537,613.835816 479.60935,614.599043 C479.789294,614.73943 480.222345,614.816543 480.36274,614.703839 C481.133927,614.082975 481.30596,613.15168 481.303983,612.248066 C481.300028,611.287111 480.609915,610.593089 480.048333,609.875339 C481.044944,609.948498 482.000028,609.863475 482.367825,608.738407 C483.338729,605.752725 485.005678,602.952907 485.782797,600.010725 C488.098333,591.221748 490.856808,582.511861 491.711045,573.374884 C492.116412,569.036748 492.96274,564.775725 494.738446,560.69068 C495.51161,558.911134 497.245791,556.71043 494.843249,554.654066 C494.730537,554.55718 495.046921,553.843384 495.272345,553.485498 C497.40596,550.130066 497.129124,546.278339 497.042119,542.644111 C496.988729,540.467134 498.475734,538.035089 496.545791,535.988611 C496.670367,536.085498 496.781102,536.223907 496.921497,536.26543 C497.053983,536.306952 497.334774,536.273339 497.348616,536.22193 C497.937881,533.924339 498.420367,531.595111 499.096638,529.325202 C500.882232,523.328134 500.676582,516.967248 502.57291,510.982043 C502.956525,509.77393 503.563588,508.06952 501.675169,507.20743 C501.26387,508.682475 501.422062,510.17927 500.882232,511.741316 C498.163305,519.602952 496.887881,527.771066 496.636751,536.093407 L496.636751,536.093407 Z M278.487881,688.750725 C280.629407,688.18127 283.16048,690.097248 285.737034,687.72452 C282.618672,686.720066 280.534492,687.690907 278.470085,688.772475 C279.225452,687.720566 280.80935,686.597475 277.831384,686.364157 C274.363023,686.097225 270.977712,686.421498 267.548898,686.864407 C263.540706,687.382452 259.489011,687.07993 254.413023,686.221793 C255.902006,687.182748 256.37065,687.673111 256.928277,687.815475 C262.372062,689.213407 268.082797,687.317202 273.506808,689.154089 C274.896921,689.622702 275.640424,687.961793 276.927712,687.930157 C277.623757,687.916316 278.118107,688.185225 278.487881,688.750725 L278.487881,688.750725 Z M507.486751,488.13268 C508.176864,484.158361 508.866977,480.182066 509.55709,476.207748 C508.123475,478.795998 507.192119,481.53452 506.498051,484.332361 C506.153983,485.716452 506.393249,487.16777 507.567825,488.205839 C506.848051,487.992293 505.815847,487.555316 505.647768,488.577566 C505.149463,491.610702 504.01048,494.600339 504.641271,497.756066 C505.028842,494.370975 505.786186,491.116384 507.486751,488.13268 L507.486751,488.13268 Z M218.774322,358.018248 C218.10596,357.547657 217.439576,357.075089 216.771215,356.604498 C216.826582,356.143793 216.737599,355.592134 216.959068,355.234248 C221.404266,348.007316 225.604266,340.62418 230.808785,333.893543 C231.166695,333.428884 231.504831,333.363634 232.088164,334.024043 C230.567542,336.705225 228.60596,339.323134 227.731949,342.919793 C229.197203,341.944998 230.361893,341.395316 231.233927,340.545089 C233.822345,338.022089 235.495226,334.840657 237.263023,331.734361 C237.747486,330.884134 237.492401,330.360157 236.901158,329.739293 C235.908503,328.69727 235.744379,329.725452 235.291554,330.27118 C234.755678,330.917748 234.12291,331.487202 232.754548,331.469407 C234.900028,328.390793 236.167542,325.100611 239.521215,323.526702 C239.303701,324.867293 239.086186,326.207884 238.823192,327.821339 C242.135339,326.79118 242.730537,323.417952 245.032232,321.786702 C246.683362,320.61418 247.153983,318.846498 246.968107,316.885043 C249.145226,317.755043 250.357373,316.629975 250.847768,314.723884 C251.261045,313.116361 252.053983,311.771816 253.119802,310.63093 C257.035056,306.450975 261.05709,302.369884 265.002006,298.215634 C271.982232,290.862157 279.448898,283.981248 286.203701,276.406316 C287.864718,274.545702 287.866695,274.533839 291.518955,274.86602 C292.347486,274.941157 292.794379,274.442884 292.721215,273.833884 C292.394944,271.172475 293.456808,268.738452 294.461328,266.541702 C296.395226,262.31627 296.768955,257.71318 298.315282,253.430407 C299.01726,251.490702 298.131384,249.019111 300.221497,247.488702 C300.688164,248.184702 301.105395,248.805566 301.522627,249.42643 C302.129689,248.96177 302.82178,248.568293 303.312175,248.000816 C303.549463,247.727952 303.496073,247.11302 303.426864,246.674066 C302.932514,243.58952 305.499181,242.403157 307.140424,240.649316 C307.632797,240.121384 308.313023,240.097657 308.876582,240.417975 C309.457938,240.74818 309.732797,241.40068 309.459915,242.051202 C307.872062,245.825816 308.951723,249.81002 308.490989,253.647907 C307.379689,262.883748 306.266412,272.143316 303.677994,281.124089 C303.326017,282.34802 303.088729,283.558111 302.894944,284.80577 C301.283362,295.214134 299.721215,305.632384 297.975169,316.018998 C296.579124,324.319589 294.556243,332.562839 294.496921,341.00777 C294.41387,352.51352 295.011045,364.025202 294.87065,375.526998 C294.793531,381.692134 295.295791,388.001611 293.073192,394.396111 C292.454266,391.27202 291.914435,388.551293 291.376582,385.830566 C290.300876,393.04168 290.55596,400.23302 290.656808,407.479725 C289.375452,405.971066 289.589011,404.021475 288.177147,402.532589 C287.01839,401.304702 289.205395,399.517248 288.645791,397.678384 C287.896356,395.21668 287.562175,392.632384 287.326864,390.004589 C287.202288,392.064907 286.601158,394.075793 286.498333,396.005611 C286.213588,401.391702 284.689011,407.007157 288.179124,412.05118 C288.938446,413.150543 288.932514,413.814907 287.431667,414.868793 C285.998051,415.875225 287.581949,418.42393 289.50596,418.22027 C290.403701,418.125361 291.289576,417.338407 292.133927,417.413543 C301.570085,418.243998 310.988446,416.786748 320.416695,417.288975 C322.148898,417.381907 324.021497,417.862384 325.597486,417.391793 C332.049746,415.461975 338.689859,415.65377 345.199463,415.964202 C357.451441,416.54552 369.713305,416.353725 381.963305,416.832225 C383.810198,416.903407 385.556243,417.391793 387.51387,417.19802 C397.843814,416.17577 408.193531,416.165884 418.553136,417.203952 C423.269237,417.674543 427.993249,417.895998 432.584774,419.214839 C434.279407,419.701248 435.556808,419.143657 436.634492,417.631043 C439.290141,413.903884 442.293814,410.410043 444.795226,406.58402 C452.166977,395.319498 460.865565,385.075248 469.202288,374.556157 C473.700876,368.881384 478.634492,363.552634 483.285339,357.99452 C487.337034,353.154157 491.12178,348.082452 495.284209,343.336998 C505.293814,331.926157 516.048898,321.227134 527.065,310.789111 C527.695791,310.189998 528.532232,309.634384 528.465,308.483611 C525.184492,306.130657 522.465565,302.448975 518.245791,301.986293 C509.608503,301.03918 502.594661,296.380725 494.449746,292.519111 C495.760763,294.800884 492.897486,295.447452 493.407655,297.592793 C494.837316,303.593816 494.837316,309.788611 495.464153,315.896407 C496.193814,322.992839 495.489859,330.107066 495.389011,337.211407 C495.375169,338.10118 494.880819,338.981066 494.548616,340.064611 C490.158785,332.390816 488.426582,324.37693 488.877429,315.84302 C488.96048,314.267134 488.980254,312.66752 488.80822,311.10152 C488.084492,304.493475 488.021215,297.883452 488.55709,291.259589 C488.740989,288.973861 487.835339,287.265498 485.747203,286.294657 C483.696638,285.341611 482.15822,283.787475 480.524887,282.28277 C477.044661,279.08552 473.732514,275.771611 470.689294,272.129475 C468.97291,270.077066 466.957938,267.87043 463.811893,267.791339 C462.057938,263.937634 457.687881,262.984589 455.174605,260.004839 C454.015847,258.62668 451.898051,258.266816 451.087316,256.471452 C452.558503,255.478861 453.406808,256.121475 454.25709,256.918316 C456.473757,259.004339 459.420085,259.884225 461.893814,261.523384 C463.224605,262.40327 465.075452,260.857043 465.820932,262.296498 C467.175452,264.914407 469.840989,265.23868 472.027994,266.197657 C486.797203,272.689043 500.95935,280.34702 514.820932,288.530952 C519.376864,291.220043 524.872062,293.062861 527.373475,298.480589 C530.270367,298.304611 531.243249,301.211202 533.406525,302.263111 C535.328559,303.194407 536.366695,301.98827 537.559068,301.015452 C543.544661,296.129611 549.502571,291.210157 555.498051,286.340134 C557.333079,284.847293 559.237316,283.411793 561.847486,283.74793 C565.940706,284.275861 569.828277,285.280316 573.239294,287.825066 C576.668107,290.379702 578.916412,295.868611 577.892119,300.010998 C576.618672,305.161793 572.885339,308.881043 569.703701,312.744634 C567.842966,315.008611 564.940141,316.661611 562.080819,318.142589 C558.489859,320.001225 554.972062,322.20193 551.897203,324.976043 C548.260763,328.26227 544.394944,331.243998 539.665,332.867339 C538.429124,333.292452 537.238729,334.154543 536.81952,335.249952 C534.800593,340.527293 530.616412,343.955884 526.189011,346.720111 C522.129407,349.252998 519.109915,352.865475 516.867542,356.475975 C514.247486,360.69152 511.475169,364.404839 507.694379,367.501248 C507.029972,368.046975 506.191554,368.822066 507.338446,369.800816 C508.518955,369.729634 509.303983,368.86952 510.265,368.363339 C515.151158,365.794861 519.807938,362.82302 524.802853,360.424589 C532.518672,356.723134 540.60822,354.073589 548.632514,351.200611 C568.683362,344.019157 588.103418,335.329043 607.448333,326.470861 C609.987316,325.308225 612.459068,324.003225 615.130537,322.68043 C613.184774,319.890498 608.848333,321.73727 607.887316,318.140611 C608.887881,316.819793 609.779689,319.022475 610.873192,318.17818 C609.746073,315.24193 607.622345,312.900839 606.024605,310.247339 C600.074605,300.366907 593.616412,290.870066 585.81161,282.316384 C584.059633,280.396452 581.42178,279.22393 580.62291,276.463657 C580.118672,276.659407 579.735056,276.416202 579.410763,276.08402 C578.957938,275.623316 578.511045,275.150748 577.965282,275.913975 C577.826864,276.107748 577.76952,276.588225 577.888164,276.689066 C578.214435,276.971816 578.694944,277.341566 579.040989,277.276316 C579.600593,277.17152 580.102853,276.748384 580.628842,276.46168 C580.039576,278.369748 580.589294,279.89818 581.601723,281.661907 C585.319237,288.139452 591.148616,293.213134 593.883362,300.341202 C594.247203,301.288316 595.206243,302.308589 596.137599,302.686248 C600.137881,304.309589 600.596638,308.614111 603.024887,311.398111 C603.521215,311.965589 603.331384,312.594361 602.951723,313.13218 C602.271497,314.085225 601.601158,313.418884 600.924887,313.070884 C598.202006,311.670975 596.096073,309.567157 594.134492,307.267589 C590.960763,303.548339 588.441554,299.318952 584.935621,295.848839 C580.810763,291.761816 576.778842,287.583839 573.346073,282.852225 C567.423757,274.690043 560.86274,267.012293 555.377429,258.508043 C552.393531,253.883202 549.650876,248.967702 545.502288,245.244498 C541.596921,241.74077 538.162175,237.849498 534.836186,233.837611 C533.125734,231.775316 531.725734,229.390725 529.770085,227.609202 C518.253701,217.125702 507.314718,206.037157 495.735056,195.610998 C484.691271,185.671248 473.323192,176.156611 461.648616,166.989975 C455.799463,162.394793 449.452006,158.509452 442.843531,155.142157 C439.517542,153.449611 436.045226,152.194043 434.103418,148.567725 C425.080537,155.600884 415.051158,159.387361 404.167542,161.499089 C399.267542,162.452134 394.375452,161.80952 389.578277,162.572748 C380.606808,163.996384 371.981384,161.941998 363.391554,160.198043 C357.419802,158.985975 351.726864,156.443202 345.592966,155.685907 C344.171215,155.50993 342.925452,154.79218 341.715282,154.013134 C333.515,148.747657 335.522062,147.774839 328.081102,155.051202 C315.821215,167.045339 302.550876,177.997452 291.526864,191.334157 C285.276299,198.89327 280.01048,207.132566 273.716412,214.61852 C271.590706,217.151407 269.10709,219.361998 267.102006,221.940361 C263.052288,227.140589 259.753983,232.85293 256.570367,238.636452 C254.523757,242.351748 252.340706,246.049248 248.158503,247.979066 C247.082797,248.477339 246.301723,249.65777 245.441554,250.57918 C241.443249,254.875793 238.635339,259.98902 235.42404,264.849157 C226.901441,277.750861 218.643814,290.735611 213.427429,305.428725 C211.582514,310.626975 209.397486,315.730316 206.969237,320.683384 C203.831102,327.081839 201.570932,333.747225 199.658785,340.582657 C197.918672,346.805134 196.20822,353.019702 194.784492,359.335111 C193.509068,364.999998 191.173757,370.415748 190.080254,376.161702 C187.956525,387.329339 185.115,398.30518 181.579407,409.11493 C178.771497,417.69827 178.710198,426.779884 177.26274,435.608407 C176.230537,441.90602 176.902853,448.48243 176.879124,454.936248 C176.873192,456.349998 176.720932,457.915998 178.356243,459.203202 C178.449181,457.939725 178.894096,456.80477 178.520367,456.104816 C177.068955,453.380134 177.988446,451.139884 179.095791,448.557566 C180.513588,445.26343 181.148333,441.648975 181.490424,438.04243 C181.751441,435.270293 181.187881,432.245066 184.213305,430.447725 C184.828277,430.08193 184.581102,429.336498 184.622627,428.713657 C185.16839,420.545543 189.040141,413.460975 192.043814,406.093657 C192.196073,407.539043 192.348333,408.980475 192.534209,410.722452 C194.96839,407.398657 195.229407,403.665566 196.688729,400.403066 C198.444661,400.316066 198.314153,399.03677 198.500028,397.791089 C198.648333,396.79652 198.076864,395.414407 199.233644,394.850884 C201.695508,393.648702 202.181949,391.173157 203.305113,389.098998 C204.31161,388.470225 204.353136,387.271998 204.887034,386.36443 C205.555395,385.227498 204.861328,384.300157 204.020932,383.564611 C202.684209,382.39802 202.263023,384.11627 201.400876,384.454384 C201.274322,382.793475 202.237316,381.504293 202.899746,380.120202 C203.087599,379.720793 203.532514,379.264043 203.96952,379.594248 C204.432232,379.946202 203.888446,380.843884 204.641836,381.233407 C205.725452,380.697566 206.302853,379.35302 205.946921,378.629339 C204.404548,375.48943 206.427429,373.302566 207.625734,370.872498 C209.484492,367.095907 212.207373,363.815611 213.816977,359.874907 C214.384492,358.486861 215.396921,357.179884 216.876017,356.485861 C217.275452,359.572384 214.176864,361.769134 214.398333,365.12852 C217.939859,363.621839 217.315,360.209066 218.635904,357.877861 C220.666695,357.432975 220.490706,355.874884 220.575734,354.012293 C218.762458,355.089907 218.420367,356.400839 218.774322,358.018248 L218.774322,358.018248 Z M225.675452,643.92793 C226.430819,642.73168 226.175734,641.569043 225.689294,640.03468 C225.070367,641.594748 225.436186,642.733657 225.728842,643.87652 C226.749181,648.394589 228.694944,652.738657 228.321215,657.523657 C228.932232,657.853861 229.094379,658.415407 229.228842,659.059998 C230.089011,663.206339 230.933362,667.356634 231.904266,671.47727 C232.331384,673.284498 233.229124,674.449111 235.026582,672.519293 C234.190141,674.74768 235.815565,675.271657 237.348051,675.767952 C240.383362,676.750657 243.592684,676.59643 246.699181,677.122384 C256.801723,678.834702 266.951723,679.997339 277.21048,680.361157 C280.536469,680.48177 283.680537,679.528725 287.022345,679.718543 C293.261045,680.070498 299.547203,680.062589 305.789859,679.748202 C317.288446,679.168861 328.771215,678.308748 340.297486,678.37993 C363.998616,678.526248 387.701723,678.577657 411.402853,678.702225 C418.956525,678.743748 426.50822,679.020566 434.059915,678.953339 C441.609633,678.886111 448.967542,676.859407 456.523192,676.48768 C460.171497,676.309725 463.766412,675.010657 467.410763,674.215793 C466.904548,671.807475 466.109633,669.118384 467.244661,667.884566 C470.930537,663.87268 469.852853,658.798998 471.161893,654.300702 C471.480254,653.213202 472.039859,651.937861 471.42291,651.101475 C469.815282,648.918566 470.653701,646.836498 471.51387,644.90668 C472.211893,643.336725 472.231667,641.873543 472.012175,640.311498 C471.169802,634.272907 473.06613,628.443907 473.546638,622.510111 C473.716695,620.39443 474.570932,617.90702 474.023192,616.085952 C473.301441,613.69543 473.803701,611.451225 474.620367,609.851611 C475.765282,607.615316 475.089011,604.793748 477.222627,602.891611 C477.651723,602.50802 478.367542,600.548543 477.098051,599.482793 C476.591836,599.05768 476.06387,598.768998 476.627429,598.029498 C478.792684,595.20002 478.213305,591.739793 478.865847,588.55243 C481.940706,573.525157 484.645791,558.426702 488.149746,543.488407 C490.127147,535.059293 491.643814,526.525384 493.449181,518.054748 C496.425169,504.101134 499.55935,490.181134 502.440424,476.207748 C504.127147,468.03568 505.305678,459.756839 507.757655,451.746907 C508.004831,450.94018 508.287599,449.892225 507.306808,449.138884 C506.579124,449.382089 505.851441,449.755793 505.088164,449.858611 C500.225734,450.513089 495.497768,451.406816 491.185056,454.074157 C489.51613,455.104316 487.267825,455.17352 485.187599,454.696998 C482.885904,454.17302 480.596073,453.538316 478.264718,453.212066 C475.033644,452.75927 471.91726,452.227384 468.522062,453.360361 C462.103418,455.49977 455.455395,456.106793 448.581949,455.574907 C445.702853,455.349498 448.613588,452.338111 446.36726,452.71577 C446.050876,451.037066 447.454831,451.942657 447.974887,451.784475 C449.100028,451.44043 450.329972,451.442407 452.321215,451.211066 C450.290424,450.673248 448.734209,451.094407 447.652571,450.022725 C451.532232,447.665816 451.763588,447.707339 454.411328,451.220952 C454.883927,451.847748 456.076299,452.713793 456.173192,452.32427 C456.855395,449.550157 459.497203,451.725157 460.576864,450.321293 C459.744379,449.425589 458.138729,450.180907 457.42291,449.10527 C459.503136,446.283702 461.895791,448.980702 464.153983,448.69202 L464.051158,448.593157 C466.760198,450.22243 470.056525,449.828952 472.894096,451.153725 C473.592119,451.479975 475.221497,451.329702 475.567542,449.91793 C476.376299,446.635657 478.652288,445.892202 481.727147,445.591657 C484.827712,445.289134 487.91048,444.391452 490.898333,443.434452 C493.698333,442.534793 496.97291,443.910975 499.426864,441.571861 C502.20709,442.779975 504.40596,440.881793 506.782797,440.114611 C508.853136,439.44827 510.251158,436.654384 509.756808,434.45368 C509.181384,431.893111 506.881667,432.436861 505.145508,432.221339 C504.271497,432.114566 503.31048,432.600975 502.406808,432.875816 C492.786751,435.812066 483.083644,438.388452 473.143249,440.02168 C467.242684,440.990543 461.393531,442.607952 455.45935,442.983634 C445.242119,443.628225 435.011045,443.926793 424.795791,444.846225 C416.640989,445.579793 408.458503,446.139361 400.21274,445.745884 C391.539859,445.32868 382.961893,447.175452 374.324605,447.770611 C363.437034,448.521975 352.527712,447.879361 341.628277,448.162111 C338.343814,448.247134 335.102853,448.608975 331.747203,448.383566 C324.231102,447.875407 316.659633,447.458202 309.086186,448.34402 C317.440706,449.704384 325.848616,450.362816 334.294096,450.59218 C340.574322,450.764202 346.858503,450.870975 353.138729,451.035089 C357.346638,451.143839 361.554548,451.48393 365.756525,451.400884 C373.867825,451.242702 382.014718,449.945611 389.981667,452.644589 C391.179972,453.04993 392.287316,452.98468 393.368955,451.91893 C395.166412,450.151248 395.352288,451.964407 395.872345,453.652998 C390.833927,453.599611 385.91613,453.52843 381.06161,454.206634 C390.444379,454.400407 399.80935,454.406339 409.174322,454.396452 C411.331667,454.394475 414.125734,455.568975 414.256243,451.653975 C414.26613,451.337611 415.223192,450.872952 415.786751,450.78793 C417.746356,450.495293 419.777147,449.836861 421.584492,451.33168 C420.212175,453.251611 418.092401,452.964907 416.099181,453.111225 C424.728559,453.63718 433.179972,451.38902 441.86274,452.41918 C438.279689,451.764702 435.37291,452.988634 432.756808,455.209111 C432.16952,455.709361 431.246073,455.52152 430.447203,455.294134 C429.616695,453.690566 428.552853,453.48493 426.707938,455.017316 C428.309633,455.349498 429.397203,455.735066 430.597486,455.145839 C424.11161,459.21902 416.704266,460.005975 409.431384,460.00202 C401.577147,459.998066 393.778277,459.737066 385.999181,461.117202 C383.07065,461.637225 380.108503,462.200748 377.094944,462.00302 C370.286751,461.552202 363.450876,460.620907 356.66048,461.158725 C347.75822,461.85868 339.029972,460.298611 330.218672,459.907111 C327.26048,459.776611 324.347768,460.326293 321.306525,459.707407 C317.598898,458.950111 313.940706,458.04452 310.26274,457.178475 C306.325734,456.253111 302.491554,455.088498 298.283644,456.893748 C295.772345,457.971361 292.70935,457.84877 289.85596,457.328748 C284.097768,456.280793 278.238729,455.788452 272.437034,455.762748 C265.193814,455.733089 258.334209,454.511134 251.666412,451.837861 C247.543531,450.184861 243.292119,449.103293 238.844944,448.705861 C235.876864,448.43893 232.807938,448.27877 230.00596,447.379111 C226.367542,446.210543 222.66387,446.186816 218.896921,445.13293 C218.515282,447.454248 218.036751,449.753816 219.025452,450.738498 C220.599463,452.31043 220.134774,453.862589 220.164435,455.470111 C220.207938,457.927861 220.065565,460.399452 219.986469,462.843361 C219.583079,475.478134 218.70709,488.093134 217.386186,500.668589 C217.293249,501.560339 217.880537,503.037361 216.965,503.27068 C213.263305,504.217793 215.26048,506.926657 214.742401,508.955339 C216.539859,508.733884 215.149746,506.841634 216.399463,506.473861 C217.554266,517.746293 217.489011,521.66327 216.114718,523.355816 C215.147768,521.449725 216.241271,519.049316 214.42404,516.512475 C213.854548,522.699361 214.892684,528.039975 215.102288,533.418157 C215.479972,532.172475 215.390989,530.901089 215.636186,529.698907 C215.887316,528.455202 214.995508,526.97818 216.743531,525.19468 C219.50596,538.009384 219.191554,550.122157 217.249746,562.646202 C216.003983,560.718361 217.492966,558.816225 216.328277,557.258134 C215.272345,558.049043 216.437034,560.214157 214.261893,560.471202 C213.834774,555.54977 213.459068,550.63427 213.354266,545.681202 C212.648333,548.170589 213.494661,551.035657 212.11839,553.060384 C210.550311,555.367861 210.920085,557.554725 211.206808,559.830566 C212.36952,569.052566 213.553983,578.272589 214.924322,587.466907 C215.501723,591.330498 216.342119,595.209907 219.104548,598.29643 C218.218672,600.172861 218.222627,602.175839 218.111893,604.194634 C218.052571,605.260384 218.430254,605.537202 219.274605,605.721089 C220.82291,606.065134 220.239576,604.659293 220.192119,604.29943 C219.929124,602.294475 219.462458,600.315225 219.065,598.328066 C218.940424,597.22277 218.137599,595.858452 220.399746,595.385884 C219.978559,598.088816 221.578277,600.206475 221.643531,602.737384 C221.833362,609.964316 223.609068,617.003407 224.593814,624.137407 C225.738729,632.424157 229.122062,640.293702 229.887316,648.693157 C230.284774,653.058975 232.535056,657.124248 231.902288,661.644293 C230.81274,661.236975 230.85822,660.214725 230.609068,659.330884 C230.288729,658.197907 229.614435,657.440611 228.311328,657.525634 C229.926864,653.934907 228.250028,650.628907 227.332514,647.297202 C227.012175,646.128634 227.686469,644.299657 225.675452,643.92793 L225.675452,643.92793 Z M213.524322,294.81077 C216.399463,292.772202 217.55822,289.703475 218.491554,286.504248 C219.438729,286.541816 219.883644,285.841861 220.20596,285.165634 C222.893249,279.544248 226.565282,274.49627 229.515565,269.031089 C230.092966,267.963361 231.095508,267.047884 230.842401,265.649952 C231.214153,265.422566 231.732232,265.284157 231.935904,264.953952 C235.866977,258.527816 240.46839,252.592043 245.105395,246.672089 C245.601723,246.039361 246.436186,245.22868 245.328842,244.115475 C241.682514,248.827316 237.889859,253.396793 234.500593,258.24902 C232.944379,260.477407 231.158785,262.788839 230.937316,265.73893 C227.931667,267.469043 226.97065,270.765157 225.307655,273.444361 C222.71726,277.618384 219.573192,281.57293 218.580537,286.585316 C216.195791,288.928384 214.513023,291.684702 213.652853,294.939293 C213.012175,295.96352 212.248898,296.954134 212.606808,298.415339 C213.546073,297.262589 214.06613,296.163225 213.524322,294.81077 L213.524322,294.81077 Z M210.528559,548.712361 C210.461328,549.83743 209.66839,550.978316 210.81726,552.388111 C210.708503,550.952611 210.623475,549.839407 210.538446,548.724225 C208.903136,547.134498 210.06387,545.024748 209.282797,542.153748 C209.512175,545.121634 208.918955,547.120657 210.528559,548.712361 L210.528559,548.712361 Z M176.202853,472.95118 C173.707373,474.556725 175.311045,476.810816 175.504831,478.835543 C175.706525,476.846407 175.90822,474.853316 176.086186,472.84243 C176.987881,471.393089 176.473757,469.916066 176.295791,468.446952 C175.957655,469.945725 175.301158,471.454384 176.202853,472.95118 L176.202853,472.95118 Z M276.391836,202.048998 C278.681667,201.299611 279.775169,199.581361 280.20822,197.331225 C280.926017,197.410316 281.434209,196.989157 281.794096,196.492861 C289.114435,186.337589 298.125452,177.724589 306.887316,168.87827 C308.508785,167.241089 310.207373,165.568316 311.200028,163.420998 C310.503983,163.428907 310.021497,163.581157 309.70709,163.901475 C300.00596,173.799702 289.905395,183.332134 281.622062,194.525475 C281.001158,195.367793 279.992684,196.107293 280.287316,197.404384 C278.086469,198.230884 277.105678,200.038111 276.488729,202.137975 C274.734774,202.81618 273.890424,204.162702 273.659068,205.965975 C272.913588,205.837452 272.47065,206.329793 272.148333,206.83993 C269.542119,210.974407 266.16274,214.493952 263.135339,218.292293 C262.109068,219.57752 260.865282,220.787611 260.849463,222.723361 C263.698898,219.723839 266.437599,216.625452 268.838164,213.287816 C270.540706,210.919043 273.05596,209.016907 273.560198,205.876998 C275.349746,205.224498 276.178277,203.864134 276.391836,202.048998 L276.391836,202.048998 Z M295.25822,306.247316 C296.359633,305.19343 296.122345,303.977407 296.021497,302.142498 C294.229972,303.829111 296.55935,305.242861 295.370932,306.36793 C294.398051,307.328884 294.518672,308.436157 294.90822,309.721384 C295.645791,308.525134 295.331384,307.376339 295.25822,306.247316 L295.25822,306.247316 Z M210.101441,372.094452 C209.302571,372.054907 209.168107,372.667861 208.988164,373.231384 C208.82404,373.74943 208.294096,374.305043 209.025734,374.757839 C209.243249,374.892293 209.630819,374.88043 209.891836,374.791452 C210.740141,374.506725 210.324887,373.883884 210.222062,373.346066 C210.139011,372.905134 210.079689,372.462225 210.008503,372.015361 C210.324887,371.744475 210.789576,371.534884 210.927994,371.190839 C211.189011,370.550202 212.013588,370.020293 211.513305,369.193793 C211.400593,369.00793 210.973475,368.857657 210.753983,368.92093 C209.763305,369.191816 210.067825,370.093452 209.982797,370.771657 C209.927429,371.200725 210.05596,371.651543 210.101441,372.094452 L210.101441,372.094452 Z M327.65596,686.979089 C324.763023,685.737361 321.737599,686.773452 318.791271,686.466975 C318.637034,686.44918 318.352288,686.461043 318.338446,686.516407 C316.705113,692.570816 311.627147,689.152111 308.291271,689.800657 C303.177712,690.795225 297.755678,690.844657 292.527429,690.457111 C286.707938,690.026066 280.892401,690.33452 275.112458,689.911384 C271.752853,689.664225 268.549463,690.306839 265.268955,690.383952 C259.769802,690.51643 254.159915,691.024589 249.159068,688.09427 C246.548898,686.565839 243.96839,685.154066 241.737881,682.694339 C239.461893,680.183202 236.280254,677.41502 232.06048,677.753134 C230.846356,677.85002 230.484492,676.811952 229.998051,676.070475 C226.003701,669.988384 222.96839,663.558293 222.013305,656.198884 C221.471497,652.01893 220.283079,647.959589 218.983927,643.890361 C217.805395,640.210657 216.777147,636.384634 215.829972,632.586293 C215.41274,630.905611 214.649463,630.096907 212.913305,630.308475 C210.119237,630.646589 207.056243,628.700952 204.501441,631.619407 C203.831102,632.384611 202.60709,630.852225 201.766695,630.523998 C199.474887,629.628293 196.801441,630.118657 194.383079,630.858157 C190.481667,632.050452 186.920367,631.067748 183.432232,629.430566 C183.177147,629.309952 183.196921,628.453793 182.623475,628.993589 C180.092401,631.37027 176.985904,629.968384 174.156243,630.270907 C172.524887,630.444907 170.976582,630.39152 170.187599,632.159202 C167.411328,631.097407 164.502571,632.993611 161.736186,631.785498 C161.315,631.601611 160.945226,631.162657 160.529972,631.132998 C158.607938,630.988657 156.800593,631.581839 154.965565,632.07418 C153.05935,632.58827 152.588729,628.948111 150.231667,630.298589 C149.87178,630.502248 149.300311,630.338134 148.827712,630.346043 C149.195508,631.150793 150.111045,632.473589 148.151441,631.941702 C145.489859,631.219998 142.931102,631.216043 140.279407,631.76968 C139.045508,632.028702 137.845226,632.22643 137.598051,630.233339 C137.404266,628.671293 135.842119,629.106293 134.865282,629.305998 C129.971215,630.298589 124.962458,629.076634 120.038729,630.300566 C117.905113,630.832452 115.488729,630.654498 113.123757,630.011884 C113.27404,631.662907 114.604831,630.474566 114.71161,631.036111 C115.085339,631.690589 114.968672,631.912043 114.531667,632.00102 C110.353418,632.847293 106.230537,633.068748 101.949463,632.256089 C99.7703672,631.842839 97.3500282,632.952089 95.0325141,632.971861 C84.8093503,633.058861 74.5960734,632.68318 64.4085028,631.74793 C58.784774,631.233839 53.1610452,630.672293 47.525452,630.351975 C40.4166949,629.948611 33.3712147,629.205157 26.4246045,627.595657 C24.6607627,627.186361 22.5884463,627.556111 21.9398588,625.046952 C21.7282768,624.230339 20.6288418,624.380611 19.8477684,624.32327 C14.9734746,623.963407 10.1407062,623.045952 5.2189548,623.336611 C4.28957627,623.393952 3.29692091,623.336611 2.4169774,623.065725 C-0.333587569,622.215498 -0.653926552,621.035066 1.03675141,618.488339 C3.455113,614.850157 3.42742938,615.006361 7.64720339,615.728066 C11.8373164,616.443839 16.055113,617.08843 20.3421186,617.027134 C23.6483333,616.97968 26.954548,617.270339 30.2528531,617.375134 C35.7421186,617.549134 41.255113,617.205089 46.7522881,616.963861 C62.526017,616.269839 78.3037006,615.605475 94.0714972,614.767111 C108.714153,613.986089 123.337034,612.677134 137.987599,612.18677 C151.546638,611.73002 165.149181,611.619293 178.694379,612.212475 C185.304831,612.49918 191.867825,612.20852 198.450593,612.28168 C201.345508,612.311339 203.150876,613.38302 204.111893,616.117589 C204.629972,617.594611 203.87065,618.858089 202.170085,618.767134 C191.126299,618.183839 180.086469,619.085475 169.032797,618.695952 C158.459633,618.32027 147.860763,618.595111 137.27178,618.634657 C135.100593,618.640589 132.927429,618.869952 130.726582,619.601543 C134.742684,619.892202 138.758785,620.378611 142.778842,620.435952 C152.096356,620.564475 161.425734,620.718702 170.735339,620.433975 C181.571497,620.099816 192.387881,619.955475 203.210198,620.718702 C205.393249,620.87293 207.576299,620.206589 209.81274,620.522952 C211.762458,620.793839 212.800593,619.761702 212.656243,617.748839 C212.375452,613.81802 212.302288,609.849634 211.701158,605.96627 C210.746073,599.763566 210.204266,593.53318 208.65596,587.354202 C207.410198,582.379384 206.874322,577.00318 206.783362,571.646748 C206.704266,567.025861 205.646356,562.308089 204.855395,557.66743 C204.034774,552.858702 203.026299,548.083589 203.524605,543.177975 C203.833079,540.125066 202.75935,538.07068 200.558503,535.769134 C195.749463,530.746861 190.277994,527.359793 183.839576,524.654884 C175.239859,521.044384 167.72178,515.379498 161.659068,508.101157 C160.630819,506.867339 161.712458,504.642907 159.491836,503.59693 C158.230254,503.003748 158.127429,500.83468 158.26387,497.761998 C156.211328,497.33293 153.852288,497.558339 152.303983,495.610725 C151.779972,494.950316 151.346921,494.305725 151.687034,493.48318 C152.110198,492.462907 152.865565,492.923611 153.648616,493.060043 C159.042966,493.989361 164.314718,492.277043 169.673475,492.17027 C171.449181,492.13468 172.617825,491.053111 172.340989,488.613157 C171.994944,485.568157 170.543531,482.928498 169.981949,479.988293 C167.87404,468.957089 167.124605,457.821089 167.116695,446.617861 C167.108785,434.465543 168.257655,422.350793 168.26952,410.186611 C168.275452,403.90877 169.837599,397.678384 171.202006,391.521157 C173.659915,380.454361 175.012458,369.136452 178.553983,358.312861 C180.266412,353.073089 181.994661,347.829361 183.989859,342.69043 C188.444944,331.222248 193.079972,319.825248 197.752571,308.444066 C202.537881,296.782111 208.005395,285.52352 214.548616,274.753316 C216.251158,271.953498 217.178559,268.690998 218.618107,265.71718 C220.057655,262.741384 221.815565,260.121498 224.508785,257.88718 C227.138729,255.70427 228.837316,252.605884 230.187881,249.11402 C232.187034,243.939498 236.078559,239.488657 240.280537,235.907816 C244.717825,232.123316 247.428842,227.249339 250.812175,222.784657 C251.286751,222.157861 251.688164,221.428248 252.285339,220.945793 C259.973475,214.73518 264.303983,205.689157 271.16952,198.739043 C277.246073,192.58577 282.606808,185.740452 288.141554,179.071111 C290.433362,176.306884 292.77065,173.311316 295.770367,171.09677 C296.150028,170.815998 296.765,170.614316 296.881667,170.24852 C298.170932,166.22477 302.378842,164.983043 304.755678,161.943975 C306.669802,159.498089 309.285904,157.617702 310.87178,154.809975 C311.640989,153.447634 312.803701,152.328498 314.278842,151.60877 C316.048616,150.74668 317.203418,149.396202 317.990424,147.531634 C319.02065,145.089702 321.642684,144.638884 323.726864,143.675952 C324.017542,142.410498 323.117825,141.827202 322.449463,141.239952 C312.115565,132.195907 307.630819,120.379725 305.930254,107.118157 C302.61613,81.2534523 310.063023,58.2360205 323.639859,36.5512705 C330.337316,25.854225 339.296921,18.3188386 350.524605,12.8497023 C354.714718,10.8071795 358.533079,7.88279318 362.812175,5.83038409 C366.098616,4.25252045 369.41274,3.34890682 373.11839,3.168975 C377.814718,2.94158864 382.435904,1.65240682 387.225169,2.17836136 C388.751723,2.34445227 390.476017,2.24558864 391.879972,1.689975 C395.06161,0.424520455 398.124605,1.059225 401.130254,1.92131591 C406.993249,3.603975 412.743531,5.64254318 418.918955,6.06567955 C422.122345,6.28515682 424.781949,8.26045227 427.550311,9.67617955 C434.402006,13.1818841 441.233927,16.7132932 446.669802,22.4454068 C450.130254,26.0954523 452.004831,30.5917705 454.357938,34.8527932 C454.50822,35.1276341 454.70596,35.4558614 454.672345,35.7346568 C453.92291,42.1252023 457.830254,46.560225 461.009915,51.3808159 C462.190424,53.172225 462.674887,55.4539977 463.307655,57.565725 C464.126299,60.306225 465.176299,62.9201795 466.65935,65.3719977 C467.30596,66.439725 467.928842,67.5173386 468.089011,68.8421114 C468.709915,74.0107023 469.067825,79.2089523 470.024887,84.3439295 C470.303701,85.8446795 470.098051,87.5273386 469.746073,89.0419295 C468.737599,93.3701795 468.12065,97.7221568 468.292684,102.169043 C468.365847,104.124566 467.944661,105.757793 466.550593,107.351475 C463.908785,110.374725 462.993249,114.35102 461.581384,117.999089 C460.246638,121.445475 458.482797,124.543861 455.939859,127.171657 C454.387599,128.775225 452.985621,130.479634 451.909915,132.41143 C449.254266,137.18852 445.166977,140.619089 440.947203,143.794589 C441.26952,144.35218 441.376299,144.793111 441.56613,144.832657 C449.954266,146.54893 456.507373,151.488157 462.528559,157.127339 C468.66839,162.879225 475.46274,167.721566 482.350028,172.472952 C483.388164,173.188725 484.450028,173.894611 485.385339,174.732975 C495.149746,183.476475 505.100028,192.026202 514.552006,201.095952 C519.752571,206.084611 525.374322,210.582907 530.501723,215.601225 C536.062175,221.040702 541.197486,226.934952 546.20822,232.892475 C547.622062,234.575134 549.269237,235.99877 550.685056,237.675498 C553.937881,241.527225 556.789294,245.588543 559.496356,249.849566 C561.473757,252.961793 564.742401,255.275202 567.508785,257.863452 C575.815847,265.634134 584.461045,273.074611 592.402288,281.20318 C599.570367,288.542816 605.917825,296.679293 610.904831,305.733225 C613.356808,310.182089 616.305113,314.259225 619.492684,318.176202 C622.510198,321.883589 624.187034,326.306748 626.795226,330.975089 C622.537881,330.231634 622.177994,325.294384 618.130254,324.766452 C618.193531,326.215793 620.056243,326.907839 619.488729,328.485702 C618.836186,330.29293 617.171215,329.804543 616.046073,330.478793 C607.363305,335.667157 598.081384,339.692884 589.185056,344.46602 C577.075452,350.967293 564.418107,356.199157 551.414718,360.665816 C540.987881,364.246657 530.604548,367.932293 520.676017,372.87152 C513.90935,376.236839 506.81839,378.951634 500.186186,382.631339 C498.238446,383.712907 496.413305,384.960566 494.888729,386.554248 C493.907938,387.578475 491.479689,388.69168 494.431949,390.346657 C494.643531,390.463316 494.714718,391.384725 494.505113,391.618043 C491.380819,395.074316 492.470367,399.252293 493.128842,402.953748 C494.155113,408.72343 493.083362,414.222225 492.432797,420.187657 C494.46161,420.515884 496.597203,421.148611 498.730819,421.148611 C504.133079,421.146634 509.440424,421.66468 514.648898,423.11402 C516.903136,423.740816 518.599746,422.41802 520.353701,421.44718 C522.779972,420.100657 522.744379,420.037384 525.332797,422.05618 C525.396073,423.446202 523.96839,423.588566 523.343531,424.39727 C522.204548,425.874293 521.775452,427.42052 523.042966,429.093293 C524.134492,430.536702 525.631384,432.065134 522.671215,433.160543 C523.143814,436.154134 521.027994,438.495225 520.62065,441.263407 C517.976864,459.21902 513.333927,476.820702 511.231949,494.863316 C510.963023,497.15893 511.194379,499.511884 511.194379,502.26227 C512.80596,501.143134 514.229689,500.235566 515.566412,499.211339 C520.256808,495.620611 525.815282,494.370975 531.450876,493.738248 C537.153701,493.095634 543.600028,498.044748 544.541271,503.061089 C544.760763,504.231634 544.80822,505.28552 544.236751,506.252407 C541.428842,510.995884 538.785056,515.763089 533.552853,518.568839 C529.097768,520.959361 525.05596,524.105202 520.749181,526.784407 C519.45596,527.591134 517.887881,527.954952 516.422627,528.532316 C516.147768,527.419111 517.531949,526.993998 517.075169,525.724589 C513.561328,527.480407 510.790989,529.991543 508.161045,532.694475 C507.480819,533.39443 507.085339,534.137884 506.952853,535.15618 C505.548898,545.956043 501.948051,556.366384 501.070085,567.249293 C500.362175,576.012566 496.66839,584.034361 495.151723,592.560361 C493.902006,599.581657 491.537034,606.233202 489.433079,612.983611 C489.247203,613.576793 489.051441,614.201611 489.522062,614.84818 C491.612175,614.755248 490.451441,612.572339 491.503418,611.731998 C492.327994,612.936157 491.088164,614.515998 492.432797,615.741907 C498.473757,616.182839 504.690706,615.28318 510.923475,615.05777 C513.466412,614.966816 515.926299,615.146748 518.403983,615.63118 C520.664153,616.074089 522.944096,616.412202 525.222062,616.744384 C525.655113,616.809634 526.430254,616.772066 526.525169,616.552589 C528.271215,612.582225 531.696073,614.472498 534.547486,614.051339 C533.355113,617.434452 530.776582,617.723134 527.830254,617.792339 C523.438446,617.897134 519.058503,618.355861 514.674605,618.666293 C513.996356,618.715725 513.383362,618.877861 513.61274,619.753793 C513.768955,620.35093 514.006243,620.963884 514.866412,620.706839 C521.207938,618.808657 527.859915,619.979202 534.284492,618.753293 C537.509633,618.140339 540.81387,617.891202 544.094379,617.65393 C545.510198,617.553089 545.85822,616.789861 546.32291,615.690498 C546.803418,614.555543 546.900311,614.82643 548.927147,615.583725 C550.600028,616.208543 552.676299,616.408248 554.276017,616.267861 C561.792119,615.60943 569.36952,615.80518 576.857938,614.614861 C579.266412,614.23127 581.807373,614.711748 584.289011,614.70977 C590.51387,614.705816 596.701158,614.177884 602.854831,613.266361 C605.830819,612.82543 608.830537,613.017225 611.816412,612.874861 C620.321215,612.47743 628.814153,611.953452 637.336751,611.886225 C652.015,611.771543 666.691271,611.834816 681.365565,612.147225 C685.618955,612.236202 689.866412,612.647475 694.11387,612.918361 C695.624605,613.01327 698.96839,616.01477 699.138446,617.505634 C699.278842,618.721657 698.820085,619.710293 697.580254,620.113657 C695.027429,620.944111 692.460763,621.606498 689.727994,621.659884 C677.26839,621.891225 664.81274,622.318316 652.351158,622.450793 C645.932514,622.51802 639.496073,621.804225 633.089294,622.027657 C627.768107,622.21352 622.450876,622.282725 617.131667,622.357861 C611.375452,622.440907 605.540141,622.065225 599.876864,622.858111 C590.919237,624.11368 581.922062,622.984657 572.972345,624.076111 C567.663023,624.724657 562.239011,624.394452 556.86839,624.594157 C551.347486,624.80177 545.830537,625.34552 540.31161,625.325748 C534.189576,625.305975 528.767542,627.575884 523.31387,629.81218 C521.166412,630.690089 519.540989,631.20418 517.357938,629.438475 C514.72404,627.31093 511.241836,627.12902 507.870367,627.214043 C503.413305,627.326748 499.027429,626.964907 494.894661,625.02718 C494.890706,624.13543 495.964435,623.98318 496.308503,622.935225 C495.074605,622.023702 492.834209,622.703884 492.074887,620.898634 C491.580537,619.730066 493.296921,619.58968 493.285056,618.56743 C491.574605,618.375634 490.694661,619.427543 490.386186,620.845248 C488.122062,631.192316 483.402006,640.797907 481.264435,651.182543 C480.505113,654.866202 479.55596,658.508339 479.057655,662.318543 C481.559068,658.648725 482.423192,654.22952 484.133644,649.711452 C487.253983,654.023884 484.596356,657.442589 483.91613,660.940384 C483.131102,664.958202 478.782797,666.383816 477.204831,669.891498 C478.565282,670.844543 479.532232,669.155952 480.801723,669.458475 C481.230819,670.31068 479.862458,671.04227 480.200593,671.358634 C481.576864,672.63793 481.023192,673.316134 479.702288,673.970611 C479.136751,674.249407 478.590989,674.571702 478.029407,674.864339 C474.687599,676.620157 470.673475,677.626589 470.25822,682.312725 C468.16613,681.735361 469.965565,680.16343 468.496356,679.11943 C464.134209,681.581134 458.25935,681.005748 454.156243,685.10068 C451.488729,684.543089 449.738729,686.937566 447.25709,687.206475 C444.61726,687.491202 442.058503,688.434361 439.426582,688.865407 C431.360763,690.186225 423.316695,691.902498 415.193531,692.533248 C403.754266,693.421043 392.279407,694.698361 380.77291,693.595043 C376.563023,693.19168 372.412458,692.230725 368.252006,691.520884 C361.550593,690.376043 354.81161,690.109111 348.090424,689.751225 C344.173192,689.543611 340.337034,688.758634 336.419802,688.661748 C335.340141,688.634066 334.345508,688.365157 333.222345,688.742816 C332.376017,689.023589 331.448616,689.397293 331.215282,687.44968 C330.999746,685.642452 328.836469,686.945475 327.537316,686.844634 L327.65596,686.979089 Z" id="Fill-1" fill="#FFFFFF" mask="url(#mask-2)"></path>
            </g>
            <path d="M327.882956,686.533708 C327.933927,687.520905 327.716828,688.521547 326.61246,688.521547 C324.766181,688.523468 322.799083,688.759704 321,687.058037 C323.461704,686.335884 325.900755,688.573404 328,686.668151 C327.996224,686.66431 327.882956,686.533708 327.882956,686.533708" id="Fill-4" fill="#FFFFFF"></path>
            <path d="M175,631.244844 C176.420603,630.564844 177.655823,630.620844 178.884998,630.986844 C179.090532,631.274844 179.02605,631.554844 178.647223,631.688844 C177.420063,632.120844 176.080062,633.128844 175,631.244844" id="Fill-6" fill="#FFFFFF"></path>
            <path d="M569,615.067418 C567.058869,616.121418 566.014236,615.031418 564,614.379418 C566.29319,613.177418 567.55329,613.211418 569,615.067418" id="Fill-8" fill="#FFFFFF"></path>
            <g id="Group-12" transform="translate(700.000000, 614.533708)">
                <mask id="mask-4" fill="white">
                    <use xlink:href="#path-3"></use>
                </mask>
                <g id="Clip-11"></g>
                <path d="M3.9106,0.4302 C3.4986,0.7862 3.2886,1.0162 3.0366,1.1762 C2.3946,1.5842 1.7746,2.2122 0.9346,1.7302 C0.7326,1.6162 0.5406,1.1442 0.6186,0.9402 C1.0846,-0.2998 2.1966,0.4262 3.0126,0.2342 C3.1446,0.2042 3.3066,0.2942 3.9106,0.4302" id="Fill-10" fill="#FFFFFF" mask="url(#mask-4)"></path>
            </g>
            <path d="M523.807,614.568578 C523.523,614.618578 523.239,614.714578 522.959,614.702578 C522.701,614.692578 522.449,614.566578 522.193,614.492578 C522.475,614.444578 522.759,614.354578 523.037,614.364578 C523.297,614.374578 523.551,614.494578 523.807,614.568578" id="Fill-13" fill="#FFFFFF"></path>
            <path d="M117,631.685303 C118.517609,630.875303 119.702241,630.711303 121,631.323303 C119.830309,632.641303 118.592316,631.981303 117,631.685303" id="Fill-15" fill="#FFFFFF"></path>
            <path d="M247.085193,317.56506 C245.199206,318.163312 244.121499,320.416524 242,320.533708 C244.428608,316.206142 247.748397,312.657744 250.60658,308.533708 C251.418629,310.007753 250.840209,310.965779 250.075263,311.818957 C248.6132,313.453358 247.5939,315.346797 247.085193,317.56506" id="Fill-17" fill="#FFFFFF"></path>
            <path d="M275,281.533708 C273.787356,283.868952 272.005747,285.46558 270,287.533708 C270.965517,283.933708 271.404215,283.429829 275,281.533708" id="Fill-19" fill="#FFFFFF"></path>
            <path d="M197,400.463493 C195.63384,400.552036 195.326504,402.377704 194,402.533708 C194.315268,401.637739 194.618638,400.735446 194.951751,399.84791 C195.173827,399.255517 195.445473,398.43755 196.085922,398.542958 C196.992069,398.694746 196.551884,399.881641 197,400.463493" id="Fill-21" fill="#FFFFFF"></path>
            <path d="M201.94306,384.533708 C201.94706,385.539436 201.95306,386.547167 201.95906,387.552896 C201.18106,387.464744 201.05506,388.648779 200.65706,388.524565 C199.63706,388.204014 200.12706,387.286438 200.41106,386.727477 C200.81106,385.942128 200.95306,384.920372 201.94306,384.533708" id="Fill-23" fill="#FFFFFF"></path>
            <path d="M201.060731,386.745672 C201.717279,386.51812 201.739286,385.330968 202.515039,385.563812 C203.384322,385.82488 202.808468,386.703337 202.863486,387.310142 C202.900164,387.715855 202.914836,388.123332 202.940511,388.529046 C201.653091,388.578437 200.752631,388.252102 201.060731,386.745672" id="Fill-25" fill="#FFFFFF"></path>
            <path d="M290.916228,409.533708 C291.540228,411.612815 291.528228,412.827826 291.014228,414.533708 C290.452228,412.87245 290.524228,411.643241 290.916228,409.533708" id="Fill-27" fill="#FFFFFF"></path>
            <path d="M306.033286,240.533708 C305.795708,238.46749 306.869273,238.513054 308,238.540788 C307.953556,240.064203 305.913604,238.940957 306.033286,240.533708" id="Fill-29" fill="#FFFFFF"></path>
            <path d="M193.92206,402.533708 C194.180872,404.342994 193.857357,405.842744 192,406.533708 C192.266424,405.002005 192.89823,403.664012 193.92206,402.533708" id="Fill-31" fill="#FFFFFF"></path>
            <path d="M240.93155,320.533708 C241.16204,321.985926 240.880118,323.17364 239,323.533708 C239.114293,322.26067 239.855292,321.310158 240.93155,320.533708" id="Fill-33" fill="#FFFFFF"></path>
            <path d="M406.38965,674.533708 C404.980376,670.562227 404.574914,666.547169 404.098595,662.526168 C403.643927,658.665612 404.858343,655.605293 405.769648,652.214184 C406.2873,650.290838 408.241782,648.383339 406.429015,646.166837 C406.007807,645.649851 406.354221,645.178423 406.696698,645.035806 C408.83226,644.158317 408.135496,642.10622 408.446481,640.582994 C408.905086,638.338761 409.34204,636.124239 410.127375,633.949333 C411.845666,629.201383 411.599634,624.071141 412.823891,619.174632 C413.998943,614.458375 415.040152,609.732214 416.5813,605.105092 C418.059463,600.672087 419.52188,596.169755 420.305247,591.580268 C421.470457,584.752491 421.868046,577.795962 422.889573,570.938472 C424.190593,562.203195 424.582276,553.374821 425.775042,544.643505 C426.440314,539.78067 426.41079,534.894065 427.046538,530.029248 C428.331811,520.168883 429.426164,510.300595 431.162169,500.493712 C433.008397,490.082688 434.211004,479.556778 435.665548,469.078407 C435.887961,467.481891 436.153676,465.932915 437.519649,464.887059 C438.045174,464.484959 438.73997,464.383938 439.251718,464.805846 C439.562703,465.061368 439.887466,465.867549 439.751656,466.02007 C437.980222,468.018685 439.940609,469.850914 439.978006,471.750491 C440.098069,477.734452 439.71229,483.680779 439.169051,489.631068 C438.078635,501.614838 434.777863,513.232162 433.441414,525.176317 C432.459253,533.965075 431.321598,542.736006 430.357151,551.526745 C428.896702,564.859432 427.074093,578.122792 424.816499,591.354459 C422.340428,605.851849 419.44315,620.228412 415.99279,634.509896 C412.770748,647.844564 409.588072,661.193098 406.38965,674.533708" id="Fill-35" fill="#FFFFFF"></path>
            <path d="M444.230286,623.533708 C443.547016,620.651631 444.555845,617.878274 445.034134,615.136545 C446.663936,605.828108 448.114881,596.499903 449.54573,587.161815 C451.263955,575.95176 452.767151,564.704148 454.690357,553.517814 C455.932302,546.286923 457.849479,539.099521 457.548036,531.605725 C457.437507,528.850159 458.454374,526.025407 459.105491,523.265887 C462.371123,509.448521 464.091357,495.318832 467.801115,481.588442 C468.335674,479.611709 468.912435,477.67451 470.36338,475.533708 C471.151151,476.830445 470.986363,478.046136 470.984353,479.16892 C470.956218,490.246534 469.975524,501.252985 467.728769,512.103274 C464.850994,526.00564 461.48689,539.811145 458.751798,553.739208 C455.040031,572.622941 451.097157,591.45528 447.174379,610.295525 C446.251964,614.723407 445.753578,619.234313 444.230286,623.533708" id="Fill-37" fill="#FFFFFF"></path>
            <path d="M444,632.533708 C441.948651,640.500956 441.909274,648.81947 440.120438,656.835779 C439.786672,658.321298 439.801673,659.910822 438.449733,661.533708 C437.739074,658.780494 437.979085,656.37462 438.425357,654.049204 C439.728544,647.267231 441.806144,640.663834 442.794317,633.799441 C442.86182,633.326508 443.578105,632.959544 443.9925,632.541557 L444,632.533708 Z" id="Fill-39" fill="#FFFFFF"></path>
            <path d="M406,450.890329 C404.43779,451.719163 404.804539,454.072358 402.91966,453.421269 C402.082132,453.129534 401.840572,452.401165 402.098001,451.666999 C402.755681,449.787148 404.104542,450.789864 406,450.890329" id="Fill-41" fill="#FFFFFF"></path>
            <path d="M464.088346,448.782388 C465.237108,448.010388 466.42801,447.740388 468,448.460388 C466.539771,449.520388 465.251765,448.786388 464.000402,448.690388 C463.993073,448.682388 464.088346,448.782388 464.088346,448.782388" id="Fill-43" fill="#FFFFFF"></path>
            <path d="M444.030123,631.533708 C443.884123,630.238579 443.410123,628.958732 443.850123,627.533708 C445.004123,628.867041 443.678123,630.242399 444.038123,631.524157 C444.038123,631.526067 444.030123,631.533708 444.030123,631.533708" id="Fill-45" fill="#FFFFFF"></path>
            <path d="M465.819528,665.555482 C466.149528,665.47922 466.385528,665.601984 466.437528,665.944233 C466.519528,666.478067 466.881528,667.170005 466.267528,667.478773 C465.767528,667.729879 465.641528,667.058402 465.471528,666.710573 C465.257528,666.275321 465.447528,665.895871 465.819528,665.555482" id="Fill-47" fill="#FFFFFF"></path>
            <path d="M344,116.914479 C352.817232,119.709752 359.22404,124.888238 365.855166,129.716077 C377.084789,137.891904 389.857085,137.545219 401.755724,130.819526 C410.508022,125.868862 416.318619,117.954535 421.87932,109.871818 C424.106748,106.630807 426.428626,103.413568 427.96933,99.7367243 C428.880371,97.5674657 430.572587,97.4347348 432.670148,97.5714278 C434.690969,97.7041587 435.214375,98.7897785 434.927092,100.338966 C434.187239,104.342684 434.260044,108.445456 432.231352,112.276822 C427.959491,120.343691 422.967454,127.851901 415.399707,132.996709 C405.18738,139.942299 393.969563,143.173405 381.468809,140.716893 C371.974691,138.850736 363.960277,134.001106 356.048184,128.828563 C354.475997,127.800394 353.019905,126.589967 351.426073,125.601419 C348.193154,123.594607 346.817736,120.161434 344,116.914479" id="Fill-49" fill="#FFFFFF"></path>
            <path d="M438,426.045839 C440.396307,425.337839 442.66733,425.537839 445,427.071839 C442.303409,428.291839 440.412216,425.839839 438.103409,425.979839 C438.079545,425.995839 438,426.045839 438,426.045839" id="Fill-51" fill="#FFFFFF"></path>
        </g>
    </g>
</svg>