<?xml version="1.0" encoding="UTF-8"?>
<svg width="202px" height="171px" viewBox="0 0 202 171" version="1.1" xmlns="http://www.w3.org/2000/svg" xmlns:xlink="http://www.w3.org/1999/xlink">
    <!-- Generator: Sketch 59.1 (86144) - https://sketch.com -->
    <title>Res / Image / Tomate</title>
    <desc>Created with Sketch.</desc>
    <defs>
        <polygon id="path-1" points="0.000603331359 0.637974081 201.954512 0.637974081 201.954512 170.236607 0.000603331359 170.236607"></polygon>
    </defs>
    <g id="Res-/-Image-/-Tomate" stroke="none" stroke-width="1" fill="none" fill-rule="evenodd">
        <g id="Group-16">
            <g id="Group-3">
                <mask id="mask-2" fill="white">
                    <use xlink:href="#path-1"></use>
                </mask>
                <g id="Clip-2"></g>
                <path d="M39.4784722,20.748041 C39.1916378,20.6703602 38.9476637,20.5480543 38.7036896,20.5546654 C38.524006,20.5596238 38.3459708,20.7282076 38.1679356,20.824069 C38.4102613,20.8819164 38.6509384,20.9843889 38.8916156,20.9810834 C39.0778931,20.9777778 39.2608737,20.8389441 39.4784722,20.748041 M8.18219917,67.9134979 C7.46346464,68.2010821 6.69362743,68.6820418 7.24256917,69.6340446 C7.56896696,69.03739 7.87558306,68.475444 8.18219917,67.9134979 M53.3635661,16.0227356 C51.0441636,15.5797898 49.4484411,15.9202631 47.6334716,16.9978773 C49.7468148,17.4689203 51.2452774,16.6557513 53.3635661,16.0227356 M82.4986902,50.2535159 C81.8986457,49.6568614 81.4914727,49.7461116 81.1535356,49.9014732 C79.2940573,50.7526562 77.4510637,51.6385477 75.6014762,52.5112169 C78.2851914,52.8963152 80.4348011,51.9525764 82.4986902,50.2535159 M5.02372358,76.6848151 C2.26417862,80.7473547 2.6911333,85.1702009 3.18237846,90.3814245 C5.23637668,85.4825769 3.38349225,80.8465217 5.02372358,76.6848151 M132.406231,48.7379142 C128.715299,43.4357877 128.705408,43.4506627 124.083088,40.7533215 C123.418753,40.3649176 122.798927,39.8029715 122.334057,39.1881364 C120.848782,37.2196723 119.168987,37.5022982 117.151256,38.293981 C120.309731,42.9300362 128.0114,48.2090238 132.406231,48.7379142 M49.5044892,57.6893848 C47.8461247,59.5719041 45.6107944,60.7156297 43.7018618,62.2725509 C42.2891199,63.4245404 41.3593807,62.6361631 40.0719227,61.4197151 C44.1733253,59.7867659 45.8053143,55.9853659 48.1824133,52.8136761 C52.9168298,46.496741 57.7748817,40.2723618 63.4044194,34.7124011 C65.0331114,33.1025909 65.0858626,32.6778258 63.2857293,31.4134471 C62.2109244,30.6581254 61.0899623,29.9490817 59.9261399,29.3392049 C57.0792258,27.8450895 56.9292147,27.8946729 54.4630981,29.9606512 C53.9586651,30.380458 53.4410444,30.8019175 52.8706725,31.1192518 C38.7350106,38.9815386 27.0901924,49.7725561 17.4120034,62.5799685 C13.4902845,67.7713586 10.8708598,73.8816958 8.28770149,80.0019498 C5.84136653,85.7999111 5.68641,91.7234839 4.63468379,97.6156539 C3.9818882,101.281526 4.85557926,104.620147 6.56834343,107.887698 C11.8434592,117.948185 20.2424327,124.827066 29.6453266,130.593625 C39.4273695,136.591573 49.8688019,141.351587 60.326719,146.005823 C70.3313058,150.456766 80.7183386,153.397066 91.7284944,154.504431 C100.770373,155.415114 109.785875,156.06631 118.845887,155.889463 C129.153793,155.687823 138.87649,153.289636 147.379318,147.063604 C148.215094,146.450421 148.98658,145.662044 150.150402,145.698405 C150.191614,146.721478 148.513468,146.842131 148.722824,148.180885 C150.049845,147.637119 150.977936,146.95452 151.673592,145.964503 C154.973836,144.516666 157.397092,141.812713 160.362697,139.882263 C162.843649,138.267495 164.894351,135.879224 168.235807,135.869307 C168.853985,135.867654 169.468865,135.077624 170.279914,134.874332 C168.079202,137.513826 165.87849,140.153319 163.14532,143.43244 C165.665836,142.74323 166.892301,141.518518 168.125359,140.472307 C180.49056,129.992012 188.76425,116.908585 192.118894,100.992289 C193.9487,92.3069162 194.311364,83.4000708 193.000827,74.5956979 C191.637539,65.434324 187.37129,57.38362 182.394547,49.6849587 C177.663428,42.3647846 173.072429,34.971888 166.046634,29.4912609 C158.559266,23.6503272 150.204802,20.2670813 140.707945,19.7299269 C138.072035,19.5811765 135.446017,19.5101068 132.816701,19.7629826 C128.835637,20.1464281 125.258449,24.8089278 125.914542,28.7359393 C126.059607,29.6135668 126.705809,30.5391251 126.000262,31.368822 C125.232074,32.272894 125.850251,32.7703816 126.366224,33.3587722 C131.204494,38.849316 134.733876,45.18939 137.844546,51.7393674 C139.164973,54.5243061 139.740291,57.6612875 140.653545,60.6280322 C139.994156,60.8181022 139.626546,61.0180889 139.539177,60.9321442 C137.643432,59.0628471 135.645482,57.9620939 132.783732,57.4761758 C129.216435,56.8696046 126.386005,53.9689711 123.352814,51.8815067 C120.647668,50.0204735 117.911202,48.2371211 114.409844,46.6454915 C114.409844,49.3610133 114.256536,51.795562 114.437868,54.2020135 C115.023076,62.0180224 112.667407,68.9894594 108.51655,75.438617 C106.21693,79.0102802 104.306349,82.7125132 103.416173,86.9072755 C103.18209,88.0179454 103.824994,89.3368659 102.573803,90.3235771 C101.461083,90.4144801 101.278102,89.4178522 100.823124,88.6691417 C99.1186019,85.8759391 97.8740043,82.7786245 95.4804205,80.4316732 C94.7732253,79.7375046 94.3429736,78.7127794 94.5671661,77.9062214 C95.2034769,75.628687 94.069327,74.1196965 92.6796637,72.6999563 C90.3866368,70.3546578 89.997597,67.6705388 91.1976858,64.735197 C91.845536,63.153484 91.7350883,61.6461463 91.2306553,60.1007946 C90.4904906,57.8430935 89.8591252,55.5424202 88.9656525,53.3491777 C87.8479873,50.6088641 86.7154859,50.2882243 84.1488123,51.7790342 C81.1551841,53.5161087 77.9291211,54.5953757 74.5926103,55.4201143 C71.6912966,56.1341163 68.8097646,56.9241464 65.2606008,57.8530102 C67.2453631,55.5424202 69.9257813,55.5787814 71.6303031,53.5970951 C68.0267396,52.0021599 64.8039736,53.696262 61.3026154,54.4681115 C62.2851058,52.6153422 64.8270522,53.1987745 65.4518237,51.2980745 C66.0601105,50.9014066 66.9717165,50.7559618 66.7771966,49.6932226 C67.8058441,48.496608 69.3092522,48.4139688 70.6807823,48.0371344 C75.2915632,46.7727557 79.4720925,44.5596798 83.5949252,42.2110758 C84.2905811,41.8160607 84.9170011,41.4359207 85.1725145,40.5632515 C85.5203424,39.3732481 85.6637597,37.5237843 87.4737838,38.1353139 C89.2854564,38.7484962 91.9460929,38.6559404 92.0779708,41.6028518 C92.1422613,43.0258976 92.412611,44.2572206 91.5570531,45.8604197 C90.1772806,48.4437189 90.8267793,51.5311168 91.8999356,54.3127499 C93.8896434,59.47439 95.9189145,64.621155 97.9811551,69.896837 C99.9181117,70.0951709 101.208867,69.1117653 102.450167,67.8870534 C105.658097,64.7236275 107.435152,60.766866 108.575896,56.524173 C109.156158,54.3739029 109.274848,52.099674 109.625973,49.8849454 C109.797415,48.7974144 109.668834,48.0156482 108.716016,47.1330623 C107.169747,45.7017526 107.281844,43.7514691 108.500066,42.1300894 C109.677076,40.5649043 110.146891,39.0641777 109.874893,37.0494357 C109.541901,34.5735674 110.638136,33.9620378 112.954242,35.0578327 C113.900466,35.5073896 114.714812,36.2280028 115.644551,36.7188792 C118.141988,38.0361469 120.543815,36.8676296 121.534547,34.2512748 C123.349517,29.4648164 122.604407,24.4866352 122.769254,19.5993571 C122.879702,16.3681671 121.48839,15.6211094 118.443659,16.7631822 C114.73789,18.1548251 111.32555,20.1431226 107.995633,22.2768649 C106.800489,23.0454088 105.504789,24.4320934 104.126665,23.5412436 C102.799644,22.686755 102.687547,20.9083609 102.718868,19.2671478 C102.79305,15.4756645 103.140878,14.8657878 106.844998,14.3005361 C110.587033,13.7286733 113.531207,11.2858607 117.078723,10.2446076 C122.225258,8.73231156 127.271236,6.87127835 132.393043,5.27303759 C136.143321,4.10286751 137.376379,4.74579994 138.770988,8.27283799 C139.148489,9.22318799 139.443565,10.2065936 139.761721,11.1321519 C138.578117,12.4791697 136.191127,12.0031683 135.767469,14.1385634 C135.947153,14.3038417 136.191127,14.6261343 136.27355,14.5881203 C139.445214,13.1435883 142.611932,13.396464 145.80008,14.5269673 C146.164393,14.6558844 146.583105,14.7153845 146.968848,14.68894 C156.47065,14.0228686 163.407427,20.253859 171.346477,23.7858554 C172.398203,24.2535929 172.79054,25.2436097 173.36256,26.1295011 C174.707715,28.2153128 176.339704,30.1374989 177.740906,32.1324075 C183.375389,40.1632781 190.641861,47.0504232 194.265207,56.5274786 C196.563179,62.5336905 199.660661,68.2589294 200.817889,74.6469342 C201.848185,80.3242424 202.349321,86.0428702 201.58443,91.8606649 C200.82778,97.6057372 200.245869,103.375601 198.941926,109.028118 C197.776455,114.080674 195.625197,118.718382 192.944779,123.161062 C191.045737,126.303001 189.191204,129.448247 187.05808,132.451353 C182.528074,138.827788 176.9381,144.212554 171.315156,149.536166 C168.036342,152.641745 163.737122,154.347416 159.558241,155.899379 C147.95958,160.209836 136.304871,164.402946 123.83252,165.507004 C122.800575,165.59956 121.755443,165.905325 120.78614,166.287118 C114.45765,168.789431 107.740119,169.544752 101.09677,170.068684 C94.0281152,170.627325 86.9413268,169.728211 79.936962,168.316735 C69.6620255,166.247451 60.1536293,161.92873 50.4737917,158.205011 C43.7282374,155.610142 37.7854897,151.281505 32.0389104,146.812381 C30.8190399,145.865336 31.4916172,144.115039 29.9766699,143.329968 C28.7897688,142.71348 27.0868955,142.635799 26.6220259,140.94335 C26.6220259,140.94335 26.5577354,141.022683 26.5577354,141.022683 C27.8583812,140.340084 28.9414284,141.97138 30.5008845,141.313573 C28.0512526,139.695499 25.7137169,138.244356 23.4734411,136.656032 C12.5555999,128.921009 4.74513152,118.959688 1.73501856,105.659747 C0.625595766,100.754288 0.483827029,95.7166067 0.187101764,90.7169393 C-0.0222543948,87.1783318 -0.0140120264,83.6281548 0.0173089738,80.0713666 C0.0898418162,71.3463273 3.72802326,63.8955834 7.79151091,56.6795346 C13.6831559,46.2124624 22.5552413,38.621232 32.7164331,32.4232973 C36.4106627,30.1722074 40.6455916,28.8136201 43.8040672,25.6601109 C44.8409571,24.6238162 45.9866464,25.2700542 47.0977176,25.7295277 C47.6466594,25.9576117 48.1263652,25.613833 48.3670424,25.1014704 C48.7132218,24.3676349 47.9994327,24.1296342 47.6120414,24.0056755 C43.065551,22.5594907 38.3822372,22.0289475 33.6280391,21.9314333 C31.9136264,21.8967249 31.5229382,23.8139527 29.7739076,24.2288012 C29.0139612,21.4289874 30.1068993,18.9382441 30.8915728,16.4557646 C31.0811472,15.8558045 31.9795654,15.6789568 32.6389549,15.7929988 C36.7271696,16.5070009 40.4213992,14.826121 44.1518951,13.7303261 C48.5978287,12.4246279 53.1344283,11.7883066 57.6759733,11.0842212 C58.0633646,11.0230682 58.4804285,10.9619153 58.8562805,11.0379433 C64.6407747,12.2229884 70.5736315,12.6923786 76.2196539,14.5021756 C78.5687289,15.2558445 80.8155985,16.2028889 82.3387882,18.5200901 C83.3608419,20.0770113 85.3175802,20.467068 87.5611529,20.4092206 C86.9858356,17.2044751 88.7777265,13.9303128 86.23578,10.9933181 C85.4923184,10.1338712 86.0462056,8.41993564 86.8704424,8.20176834 C89.5838301,7.4844607 89.5310789,5.40526019 89.9910031,3.34258752 C90.4608181,1.22206745 92.036759,0.450217979 94.1583446,0.674996411 C95.7408793,0.841927453 96.4332383,1.7493051 96.8041449,3.15912865 C97.7783928,6.84979218 98.9141912,10.5007889 99.7582097,14.2195498 C101.015995,19.7348853 102.085855,25.2948459 103.206817,30.8415843 C103.276053,31.1870159 103.099666,31.5836837 102.915037,32.6811313 C99.2356436,26.7740863 99.0163966,19.934872 95.0814899,14.5963842 C93.7758987,18.1035889 92.6186702,21.2818898 93.9259098,24.7676083 C94.2539561,25.6386247 94.1682354,26.8550727 93.5006033,27.4037965 C91.6477192,28.9210509 91.6592585,31.0597516 91.375721,33.1604383 C90.9932751,32.9488821 90.62072,32.8629374 90.5877506,32.7042703 C89.8080225,28.9309676 87.4655414,27.4550328 83.7498817,27.985576 C78.9462294,28.669828 77.3356706,25.1113871 75.80259,21.7347522 C75.3476113,20.7282076 74.9223051,20.3067481 73.9727842,20.0885808 C71.2841236,19.4704401 68.5773298,18.9068412 65.9298811,18.1416029 C60.7157588,16.6342651 55.6137327,17.7432823 49.9264985,18.528354 C52.0101692,20.3183175 54.187803,20.8637358 56.1692684,21.6488075 C60.4767301,23.3528264 64.0176516,26.4517937 68.3350042,28.1442431 C69.4823419,28.5938 70.384057,29.7854562 71.2758813,30.752334 C73.018318,32.6447701 72.7166473,33.6761065 70.0988711,33.9884824 C66.8975351,34.3702751 65.2144435,36.1387525 63.458819,38.773288 C60.0514239,43.8803862 55.9516698,48.5180941 52.179962,53.3838861 C51.2271442,54.6119036 49.8457233,55.5391146 49.4401987,57.1687582 C49.4632774,57.3423004 49.4830591,57.5158426 49.5044892,57.6893848" id="Fill-1" fill="#FFFFFF" mask="url(#mask-2)"></path>
            </g>
            <path d="M66.9755749,51.0113372 C67.1534894,51.853839 66.3197036,51.9676552 65.7633439,52.2816311 C64.4289852,52.169123 63.3705447,53.2196339 62,52.9579873 C63.435378,51.8826201 64.9114652,50.8818221 66.9755749,51.0113372" id="Fill-4" fill="#FFFFFF"></path>
            <path d="M20.6353348,137.917831 C19.4235566,136.769104 18.2134405,135.620378 17,134.471652 L17.3075158,134 C18.3430958,134.644207 19.4385168,135.214462 20.394309,135.957272 C21.0641946,136.474938 21.2503663,137.253903 20.5838052,138 L20.6353348,137.917831 Z" id="Fill-6" fill="#FFFFFF"></path>
            <path d="M21,138.36471 C21.3284072,138.239754 21.8062397,137.912946 21.9605911,138.021882 C23.545156,139.136874 25.5221675,139.627086 26.9343186,141 C26.9359606,141 27,140.924706 27,140.923104 C24.4893268,141.171414 22.9737274,139.316298 21.0673235,138.26859 C21.0509031,138.28461 21,138.36471 21,138.36471" id="Fill-8" fill="#FFFFFF"></path>
            <path d="M49.0636475,57.97201 C49.0424317,57.7637806 49.0228478,57.5555513 49,57.3473219 C50.3561812,57.0240705 51.4920441,55.6854531 53,56.0681985 C51.8625051,57.2342831 50.6515708,58.1762731 49.0636475,57.97201" id="Fill-10" fill="#FFFFFF"></path>
            <path d="M172.179928,104.295021 C172.633242,104.201994 172.975303,104.23854 173.123087,104.087372 C176.256433,100.82646 178.654181,97.0140338 181.206356,93.311244 C181.8307,92.4042352 181.486979,91.6284603 181.342516,90.7031785 C180.638468,86.2594999 179.296791,81.9520389 178.486472,77.5465677 C176.468976,66.5860478 170.129222,58.3316034 162.389674,50.8811742 C161.738761,50.2549063 161.006485,49.555546 159.900598,50.4127192 C160.204468,50.8496117 160.453542,51.3164056 160.802245,51.6968177 C166.285185,57.6937072 169.589562,64.7105662 171.529015,72.616161 C173.147994,79.2160619 174.562732,85.7162914 173.627876,92.5421138 C173.096519,96.4326167 172.663131,100.336409 172.179928,104.295021 M169.763914,116.220691 C168.201392,118.076238 167.85767,120.489945 166.816542,123 C163.497221,118.601174 162.281742,114.117627 163.113648,108.894851 C164.365658,101.032447 164.838898,93.0869836 165.071367,85.1249084 C165.347008,75.6245729 162.841327,66.7405383 159.208173,58.1322609 C157.439751,53.9427441 154.235003,50.6436243 151.423792,47.1252277 C150.786164,46.3278573 149.964221,45.8743529 148.984531,46.2780217 C147.549867,46.8710659 146.473869,46.2863276 146.083654,45.071999 C145.273334,42.5453317 143.348825,41.7612509 141.088897,41.2579108 C140.333374,41.0901308 139.476561,41.0419564 139,40.0718224 C139.049815,38.6880526 141.025799,38.5269174 141.158638,37.0833448 C141.195169,36.7029327 141.660106,36.2211881 141.988883,36.4255143 C144.570947,38.0219162 144.994372,35.7842956 146.226456,34.4071706 C147.096553,33.4353755 148.531217,34.375608 149.197074,35.4238178 C150.885793,38.0750742 153.416381,39.9123484 155.860624,41.5918097 C160.337307,44.6666691 164.540009,48.0239305 168.550095,51.6569491 C173.289136,55.9494595 177.275974,60.9031228 181.01872,66.0511451 C184.530659,70.8835417 185.867354,76.6163023 187.288734,82.2743094 C187.753671,84.1265343 188.216948,85.8691207 189.787772,87.0934164 C191.315424,88.2861496 191.16764,89.6915148 190.599753,91.3659926 C189.249773,95.3528443 186.685976,98.5871778 184.276603,101.902909 C181.169825,106.180469 178.996243,111.072669 175.341502,115.008023 C174.056282,116.395116 172.601692,117.031351 170.982714,117.536352 C169.825352,117.89683 169.775537,116.893472 169.651,116.111052 C172.709624,115.326972 173.910159,112.903298 174.811806,110.218818 C173.373821,112.423215 170.353388,113.292016 169.763914,116.220691" id="Fill-12" fill="#FFFFFF"></path>
            <path d="M51,60.846169 C51.1656497,59.606169 51.6029052,58.848169 52.6027728,59.044169 C52.7639455,59.076169 53.0325666,59.654169 52.9967505,59.720169 C52.5192018,60.566169 51.9744978,61.304169 51,60.846169" id="Fill-14" fill="#FFFFFF"></path>
        </g>
    </g>
</svg>