<?xml version="1.0" encoding="UTF-8"?>
<svg width="530px" height="178px" viewBox="0 0 530 178" version="1.1" xmlns="http://www.w3.org/2000/svg" xmlns:xlink="http://www.w3.org/1999/xlink">
    <!-- Generator: Sketch 59.1 (86144) - https://sketch.com -->
    <title>Res / Button / Recette / Yellow</title>
    <desc>Created with Sketch.</desc>
    <defs>
        <polygon id="path-1" points="0.194704203 0.267238422 26.5748821 0.267238422 26.5748821 38.447177 0.194704203 38.447177"></polygon>
        <polygon id="path-3" points="0.000453879584 0.529110512 31.0275035 0.529110512 31.0275035 36.4434591 0.000453879584 36.4434591"></polygon>
        <polygon id="path-5" points="1.84580351 51.1132075 437.69486 51.1132075 437.69486 3.94339623 1.84580351 3.94339623"></polygon>
    </defs>
    <g id="Res-/-Button-/-Recette-/-Yellow" stroke="none" stroke-width="1" fill="none" fill-rule="evenodd">
        <g id="Group-10">
            <path d="M356.691871,32.7325861 C356.746598,32.4269482 356.799991,32.1213103 356.854718,31.816857 L347.656557,30.6049671 C347.613843,30.8513729 347.569795,31.096594 347.525746,31.3429998 C350.581121,31.8061952 353.636496,32.268206 356.691871,32.7325861 M74.7657782,133.712748 C74.6589936,133.991139 74.5535438,134.268345 74.448094,134.546737 C77.0442952,135.367694 79.6404964,136.187467 82.2380324,137.00724 L82.6331355,135.949354 C80.0102381,135.204214 77.3873408,134.457888 74.7657782,133.712748 M85.0371243,136.949193 C84.9944105,137.289185 84.9503618,137.627993 84.907648,137.967986 C88.2993946,138.670479 91.6898065,139.372973 95.0802183,140.074281 C95.1296062,139.874077 95.1803289,139.672687 95.2297168,139.473667 C91.8326309,138.632571 88.4342102,137.790289 85.0371243,136.949193 M211.584914,154.01753 C211.580909,154.377662 211.57557,154.736609 211.571566,155.09674 C215.499905,155.469903 219.428245,155.843065 223.355249,156.216228 C223.395293,155.867943 223.436672,155.518473 223.476717,155.170188 C219.513672,154.786364 215.547958,154.401355 211.584914,154.01753 M226.120971,155.155972 C226.111627,155.644045 226.103618,156.132118 226.094275,156.620191 C230.457762,156.845274 234.819913,157.067986 239.1834,157.293069 L239.25281,156.158181 C234.874641,155.822927 230.497806,155.490042 226.120971,155.155972 M313.065013,159.211006 L313.054334,158.033471 L285.680096,158.033471 C286.916128,158.642377 288.188199,158.88049 289.466945,158.91603 C294.29895,159.049894 299.133623,159.137558 303.968297,159.202713 C306.999646,159.242991 310.033664,159.211006 313.065013,159.211006 M25.2550868,113.599877 C28.2463911,119.136899 39.3279656,125.601497 43.4258256,124.729599 C37.3497804,121.007451 31.303101,117.304256 25.2550868,113.599877 M206.595402,154.826642 C206.640786,154.442817 206.684834,154.060178 206.730218,153.677538 C195.84486,152.317568 184.920793,151.329575 173.917972,151.105678 C179.255869,152.25952 184.635144,153.025984 190.042451,153.557889 C195.544528,154.100455 201.075972,154.413201 206.595402,154.826642 M241.58205,156.220967 C241.563363,156.748133 241.544675,157.274114 241.525988,157.80128 C255.214442,158.162597 268.901561,158.525097 282.59135,158.886414 L282.631394,157.772849 C268.94828,157.25516 255.265165,156.738656 241.58205,156.220967 M412.50419,47.6105187 C412.376049,47.8770634 412.245238,48.1447927 412.115761,48.4125221 C423.751281,52.8501951 435.388135,57.2890527 447.807187,62.0264405 C444.929342,58.1064565 418.965995,47.9031255 412.50419,47.6105187 M367.417052,41.3271717 C377.461481,40.7810513 386.447407,44.7401285 395.916534,46.5218317 C396.016644,46.2256709 396.116755,45.9283255 396.2182,45.6309801 C389.824471,43.8030758 383.432076,41.9739869 377.039681,40.1460826 C377.242572,39.6082546 377.446798,39.0704266 377.649689,38.5325987 C388.660518,41.6422868 399.671348,44.7531595 410.683512,47.8640323 C410.77161,47.6117033 410.858372,47.3581897 410.94647,47.1058607 C394.895406,39.8712454 377.528221,36.2640072 360.337231,32.1734346 C360.182394,32.5454125 360.027556,32.9150211 359.871383,33.2869991 L369.714256,36.6288772 C362.645114,35.7261792 355.664069,34.6256458 348.711055,33.4090173 C338.1901,31.5692666 327.751903,29.2461815 317.158868,27.8696262 C305.531357,26.3592063 293.767696,25.6673747 282.060097,24.663982 C278.106396,24.3263587 274.134008,24.159324 270.176303,23.8619786 C260.037103,23.1002531 249.912585,22.1572772 239.761372,21.5957564 C234.763852,21.3185499 229.718278,21.7852993 224.692727,21.8042536 C213.968881,21.8457161 203.239695,21.6312957 192.523858,21.8871786 C186.808211,22.0234126 181.127269,23.0481288 175.410287,23.4402457 C168.806993,23.893964 162.151641,23.8406551 155.573708,24.464962 C147.78377,25.2053639 140.00184,26.2028334 132.305339,27.5012022 C120.344126,29.5174647 108.450988,31.8630581 96.5431677,34.1221724 C94.7812214,34.4562418 93.0913547,35.0888412 91.3681178,35.584022 C91.4148361,35.8126581 91.4615543,36.0401096 91.5096074,36.2675611 C95.4392816,36.0128628 99.3689558,35.7581646 103.299965,35.5022816 L103.426772,36.5637219 C98.6668469,37.6607014 93.8828957,38.6794944 89.1536716,39.8665068 C73.7846945,43.7296279 59.1018085,48.9681197 45.2731996,56.1991811 C36.2498988,60.9164299 28.4546212,66.3077406 22.9952572,74.5528565 C18.516977,81.3171686 19.4967259,87.7071334 22.5787972,94.0722207 C26.3109198,101.783063 34.3437932,106.104641 41.6425224,110.756734 C50.6578143,116.504622 60.5380618,120.984942 71.0483385,124.184663 C84.3697204,128.240881 97.6216924,132.621692 111.227388,135.760996 C126.903371,139.376526 142.918396,141.846507 158.811952,144.701497 C167.000998,146.171639 175.239432,147.438023 183.475196,148.69019 C185.082305,148.934227 186.788189,148.604896 188.442016,148.679529 C191.418637,148.814578 194.399263,148.986351 197.361202,149.27422 C200.026813,149.533656 202.665728,149.998036 205.324665,150.31789 C206.728883,150.484925 208.154458,150.506248 209.56268,150.648405 C213.281455,151.023937 216.990885,151.474102 220.714999,151.798694 C222.260707,151.932559 223.841119,151.725246 225.390831,151.838972 C230.419052,152.205027 235.43259,152.771286 240.46615,153.030723 C248.612483,153.450086 256.774832,153.630152 264.922499,154.016346 C273.429229,154.419124 281.922612,155.215205 290.432011,155.343146 C299.080231,155.473457 307.743134,155.071863 316.395358,154.768594 C323.868947,154.505603 331.341201,154.120594 338.802777,153.634891 C340.825011,153.502211 343.0181,152.118548 344.749346,152.54265 C347.178696,153.13971 348.941977,153.22145 350.749307,151.628105 C350.982898,151.421977 351.763761,151.669568 352.278997,151.758416 C353.489667,151.962175 354.731038,152.494079 355.890986,152.370877 C362.041781,151.726431 368.195245,151.052369 374.301991,150.144932 C387.073432,148.247134 399.911613,146.579156 412.541565,144.092591 C423.532372,141.928248 434.342981,138.96664 445.106871,135.997924 C456.706351,132.799388 468.231082,129.360369 479.647693,125.685606 C487.505706,123.156393 494.851154,119.633265 500.544109,113.976594 C501.523858,113.002817 502.650436,111.603754 502.595145,110.445173 C502.378135,106.018162 501.212848,101.787801 497.578166,98.4091991 C495.866943,96.8205927 494.271847,95.130107 492.355063,93.2157238 C493.452275,93.3946049 494.04493,93.4917456 495.151486,93.672996 C456.801122,67.3052101 413.561358,51.5269487 367.417052,41.3271717 M250.518588,159.79385 C246.590249,159.361455 242.561799,159.573507 238.578732,159.622077 C237.314669,159.637477 236.065289,160.155166 234.795887,160.212029 C233.882878,160.253492 232.823041,160.104227 232.046183,159.705002 C229.950535,158.628161 228.249989,157.649646 225.946111,159.803327 C225.059799,160.630208 222.581061,160.113704 220.361275,160.235722 C220.921894,159.367379 221.16216,158.996585 221.136799,159.034494 C218.723466,159.034494 216.035163,159.208636 213.396248,158.966969 C211.937303,158.83192 210.585143,157.629507 209.140881,157.551321 C203.808324,157.264637 198.446401,157.398502 193.117848,157.086941 C187.188631,156.73984 181.292785,155.960345 175.364904,155.588367 C170.039021,155.254298 164.687776,155.218759 159.348545,155.051724 C158.20061,157.432856 155.970146,155.403563 153.93056,156.472111 C154.284284,155.370393 154.468488,154.795841 154.463148,154.814795 C122.473144,148.79207 90.4284131,142.759867 58.3850167,136.727665 C58.2461967,136.9255 58.1073767,137.12452 57.9685567,137.322355 C59.2406286,137.996417 60.4246031,138.928731 61.8007899,139.301894 C68.7671519,141.192584 75.8176068,142.845161 82.7679511,144.783238 C85.3508042,145.503501 87.7401102,146.775807 90.5325281,147.923726 C90.6139514,147.137123 90.6620045,146.662081 90.7380885,145.926418 C92.5814581,146.204809 94.402136,146.479646 97.0503947,146.878871 C95.7276001,147.487778 95.0989056,147.775646 94.4688764,148.064699 C97.5309255,148.412984 100.427458,150.794117 103.635002,148.494724 C103.935333,148.279119 105.507737,148.794439 105.545112,149.069276 C105.837434,151.232435 107.843651,151.048815 109.317278,151.186233 C112.771761,151.509641 116.256944,151.565319 119.731449,151.718138 C119.949023,151.7288 120.223993,151.570058 120.382835,151.643506 C130.953178,156.481588 142.951766,154.869289 154.568598,157.654385 C153.85848,158.196951 153.360597,158.887598 152.937463,158.853244 C148.840938,158.51799 144.740408,158.149566 140.670579,157.617661 C132.61101,156.563328 124.528748,155.583629 116.529245,154.233135 C106.703725,152.57582 96.9409404,150.627082 87.1754865,148.702037 C78.6901132,147.028136 70.0779332,145.665797 61.8128032,143.348635 C51.1370103,140.355042 40.3157234,137.693149 30.4181235,132.650123 C21.3240778,128.016984 13.2645083,122.776123 7.91860296,114.508499 C4.05433435,108.531974 2.36580246,102.227304 3.21474023,95.5245932 C4.13842724,88.2153453 5.51461409,80.9392674 7.01627288,73.7010981 C8.63405995,65.9085159 13.8237927,59.87039 20.1160768,54.5620043 C29.5918774,46.5668481 40.6961436,40.5535998 52.4397828,35.7783035 C63.0595137,31.4626487 74.2478728,28.182372 85.3628175,24.9210496 C91.8499834,23.0173281 98.8083366,22.3965751 105.331542,20.5698555 C113.901008,18.1697686 123.02442,18.7881523 131.50045,16.3880654 C138.899289,14.294801 146.415592,14.0543185 154.053362,13.8884684 C158.328752,13.7960663 162.556088,12.5012514 166.843491,12.2358913 C178.975559,11.4871969 191.120975,10.8510436 203.271731,10.4376031 C213.48568,10.089318 223.718317,9.92228337 233.93894,10.0348245 C241.853016,10.1224881 249.772431,10.6378078 257.669154,11.1910361 C273.022113,12.2678767 288.369733,13.4264576 303.70534,14.7046875 C312.615182,15.4462741 321.480976,16.6380251 330.394822,17.3499956 C338.790764,18.0205035 347.222745,18.3131104 355.637373,18.8047373 C357.966613,18.9409712 360.3092,19.0854977 362.607739,19.4278595 C364.946323,19.77496 368.810591,24.1913094 368.388792,27.4265697 C368.237959,28.5733042 368.016381,29.7141155 367.782789,31.1285794 C372.39722,32.2575442 376.90887,33.2561983 381.347106,34.4669036 C390.036705,36.8373744 398.730308,39.2090299 407.341154,41.7962904 C415.235207,44.1679459 423.075868,46.7007128 430.835106,49.401699 C435.73652,51.1099544 440.477758,53.1961109 445.227004,55.2254045 C450.379362,57.4288406 455.518372,59.6678161 460.559941,62.0631644 C466.50651,64.8873535 472.419709,67.7814366 478.198092,70.8638779 C482.163806,72.9796505 486.000043,75.3240592 489.66943,77.8248407 C495.160829,81.5659436 501.231535,84.9528382 505.609705,89.570577 C509.813015,94.0023268 512.586745,99.6578129 515.100188,105.097694 C515.897069,106.824904 514.338013,109.849297 512.999201,111.821728 C510.236149,115.892162 507.790781,120.248094 503.130967,123.086499 C494.993978,128.038307 486.61539,132.573121 477.199655,135.372433 C475.377643,135.914999 473.374096,135.980155 471.560092,136.538122 C464.386835,138.740373 457.321697,141.235231 450.085704,143.256233 C445.479282,144.54394 440.683318,145.407544 435.903371,146.081606 C418.649645,148.511309 401.375898,150.836764 384.091471,153.093509 C370.301572,154.892982 356.49165,156.569252 342.677724,158.223013 C339.701103,158.578406 336.671089,158.598545 333.665102,158.773872 L333.723833,159.574691 C336.369422,159.574691 339.027025,159.716848 341.657931,159.547444 C348.605605,159.096095 355.538597,158.454019 362.487607,158.026363 C363.761013,157.946992 365.083808,158.527467 366.390585,158.784534 C366.817723,158.869829 367.513158,159.075956 367.658652,158.919584 C370.72871,155.543351 374.200545,159.110311 377.541569,158.48482 C380.919968,157.853405 384.580011,158.51562 388.097229,158.328447 C393.090745,158.061902 398.057565,157.456549 403.048412,157.139065 C411.53512,156.596498 420.045854,156.319292 428.516545,155.638122 C435.46155,155.080155 442.363841,154.093348 449.283485,153.300821 C458.517685,152.24412 467.809282,151.474102 476.971403,150.054899 C486.348428,148.602527 495.633351,146.641943 504.891578,144.660035 C512.227682,143.089198 519.46501,141.149937 527,139.311371 C522.081233,142.390258 517.045003,144.943164 511.30266,146.35289 C504.819499,147.94505 498.403077,149.790724 491.855845,151.129371 C487.685905,151.983498 483.321084,152.0759 479.057708,152.594774 C477.111558,152.830518 475.189435,153.238035 473.271316,153.625414 C468.711612,154.545881 464.197292,155.724601 459.585531,156.340616 C457.532597,156.614268 455.299464,155.590736 453.13307,155.513735 C451.421847,155.453318 449.686597,155.940206 447.645676,156.228074 C448.167585,156.867782 448.450565,157.213698 448.732209,157.559613 C448.51597,157.601076 448.224982,157.742048 448.094171,157.667416 C443.725345,155.135834 439.239056,157.437595 434.814168,157.394948 C434.449765,159.723956 432.096499,159.354348 431.029988,158.823627 C426.848035,156.746948 422.664747,158.380571 418.532182,158.477712 C413.887051,158.585514 409.261942,159.293931 404.61948,159.664724 C401.099592,159.946669 397.561017,160.073426 394.039794,160.355371 C393.37239,160.40868 392.7477,160.868321 392.101653,161.140789 C392.231129,161.439319 392.36194,161.73548 392.490082,162.03401 C389.445385,162.178537 386.402023,162.320694 382.43097,162.507867 C383.92462,161.832621 384.58802,161.532906 385.617156,161.067341 C356.07786,161.596877 326.882943,162.120489 297.688027,162.644101 C297.66133,162.762566 297.634634,162.879845 297.607938,162.99831 C298.67178,163.213915 299.734287,163.42952 300.798129,163.645125 C300.771433,163.831114 300.746071,164.018287 300.719375,164.204276 C298.581013,163.973271 296.442651,163.742266 294.43777,163.524291 C294.29895,162.986463 294.178817,162.041118 294.034658,162.038749 C290.161045,161.958193 286.287433,161.974778 282.34975,162.424942 L286.678532,163.46269 C286.642492,163.71265 286.605117,163.962609 286.569078,164.213754 L276.337776,164.213754 C276.327097,164.607055 276.315084,164.999172 276.304405,165.391289 C285.54261,165.550031 294.77948,165.783406 304.01902,165.847376 C313.247881,165.911347 322.478077,165.797621 331.706939,165.783406 C341.03591,165.76919 350.364882,165.781036 359.693854,165.781036 C359.748581,166.08312 359.803308,166.386389 359.8567,166.690842 C360.534783,165.982426 361.2142,165.276378 362.088499,164.363019 C361.184834,164.037242 360.514761,163.795575 359.832674,163.550353 C359.978168,163.430704 360.141015,163.203253 360.253138,163.221023 C363.148337,163.681849 366.541418,161.215422 369.044183,164.667472 C369.642177,165.494353 372.01146,165.731281 373.47174,165.57017 C379.021871,164.960079 384.534627,164.07752 390.063401,163.29684 C390.252944,163.731604 390.441152,164.167552 390.630695,164.603501 C389.422694,165.176868 388.249397,166.176707 387.001352,166.254894 C377.664372,166.8484 368.318047,167.438352 358.962379,167.683573 C347.804721,167.97618 336.635049,168.006981 325.469382,167.997504 C316.931951,167.989211 308.393185,167.719112 299.855755,167.607756 C289.671171,167.471522 279.483918,167.457306 269.302004,167.235778 C264.650198,167.135083 260.013076,166.590148 255.362606,166.38402 C251.191331,166.201585 247.009378,166.238309 242.8341,166.109182 C241.849011,166.078382 240.877271,165.76919 240.037677,165.13659 C244.227639,164.132013 248.416266,163.126251 252.604893,162.121674 C252.687651,162.307663 252.771744,162.493652 252.854502,162.678456 C251.894775,163.116774 250.936383,163.552723 249.977991,163.988671 L250.012696,164.612978 C250.895004,164.68998 251.775977,164.832137 252.658285,164.832137 C255.530791,164.833322 258.401963,164.768166 261.274469,164.755135 C262.650656,164.749212 264.377898,165.024049 262.633304,163.070573 C264.861098,163.06465 267.249069,161.646632 268.908235,164.665103 C269.440824,165.631771 272.648367,167.161146 274.996294,164.688795 C273.098197,164.081074 269.909341,164.680503 272.101096,161.598062 C269.145831,161.277023 266.538951,160.897938 263.916054,160.743934 C262.458444,160.657455 260.743216,160.756965 261.725635,162.851414 C258.983939,159.029755 254.385526,160.220322 250.518588,159.79385 Z" id="Fill-60" fill="#FFDD00" transform="translate(265.000000, 88.999462) rotate(-2.000000) translate(-265.000000, -88.999462) "></path>
            <g id="Button" transform="translate(37.000000, 66.000000)">
                <path d="M265.699437,28.8824262 C267.816089,26.7598245 269.811993,24.878186 271.662288,22.8618917 C272.896409,21.5171048 274.0524,20.0624671 275.000631,18.5103811 C276.034097,16.8200957 275.703814,16.0777167 273.894361,15.1634742 C271.81855,14.1145759 269.749843,14.0525633 267.569265,15.0111005 C266.558883,15.4558192 266.19131,15.9448326 266.16645,17.0327102 C266.075889,20.8526844 265.875233,24.6726587 265.699437,28.8824262 M282.416016,53 C282.007602,52.5464224 281.68087,52.1849777 281.363017,51.8341637 C279.551788,52.941531 277.969626,52.5729992 277.000086,50.7462861 C275.373531,47.6899523 273.837538,44.5840085 272.221638,41.5205877 C271.232565,39.6495799 270.167136,37.8193232 269.064417,35.8402364 C267.237206,36.952919 265.789999,38.3508595 264.493727,39.8816841 C264.074658,40.3760128 263.747927,41.2353298 263.859797,41.8395094 C264.170547,43.536882 263.653814,45.1155449 263.465588,46.7420459 C263.316428,48.0549406 262.334458,48.6307716 261.055943,48.1222685 C259.963879,47.6899523 258.894898,47.1743621 257.774422,46.8324071 C256.975351,46.5896722 256.538525,46.0510487 256.485253,45.3618233 C256.314785,43.1896116 256.027119,40.9872796 256.218896,38.8327858 C256.685909,33.6255018 257.401522,28.4394793 258.003489,23.242826 C258.058537,22.7644433 258.010592,22.2754299 258.010592,21.8714624 C256.799555,21.8714624 255.714593,21.9352467 254.640286,21.8537445 C253.610371,21.7757858 252.591111,21.548997 251.665963,21.4019386 C250.499319,18.5458169 250.557917,17.9168323 252.624849,16.0670859 C254.194581,14.6602865 255.938333,13.4448402 257.579094,12.1124558 C257.868535,11.8750363 258.069191,11.4958737 258.234332,11.1468316 C258.690691,10.1688048 258.671158,10.2042405 260.093506,10.3052324 C260.432667,10.3282657 260.952952,10.0536386 261.128747,9.7612936 C261.554919,9.05080675 262.169316,8.99588133 262.881378,8.87362798 C264.82401,8.53876011 266.734679,7.82472967 268.679087,7.74322744 C273.164542,7.55718974 277.459996,8.30134056 280.663386,11.8785799 C281.58143,12.9062167 282.325455,14.1092606 283.016208,15.3087608 C283.266584,15.7446206 283.209761,16.4143563 283.147611,16.9600669 C282.820879,19.830363 281.876199,22.4720984 279.983287,24.7010073 C278.431312,26.5259486 276.827842,28.308367 275.130259,30.2431591 C276.126435,32.0362082 277.186536,33.857606 278.164955,35.7197548 C279.54291,38.3473159 280.849836,41.0120846 282.208258,43.6485047 C282.854618,44.9047021 283.552474,46.132551 284.211264,47.3816613 C284.619678,48.1577043 285.39389,48.9266601 284.317807,49.7930643 C284.20061,49.8869691 284.204161,50.1757704 284.214815,50.3724389 C284.303601,52.190293 284.307152,52.190293 282.416016,53" id="Fill-1" fill="#FFDD00"></path>
                <path d="M394.993912,23.1626489 C391.549082,22.9406847 388.649916,22.1828851 386.985031,19.0112252 C384.373515,21.3453172 381.195416,20.7193089 378.182933,21.0366483 C377.788939,23.147042 377.532669,25.151656 378.465353,27.1528017 C378.88201,28.0527971 379.464284,29.0394972 378.498477,29.9949836 C379.593291,31.4741667 378.60482,33.1666436 379.000557,34.7689475 C379.473001,36.6833885 379.474744,38.7192161 379.615954,40.7064891 C379.690918,41.7746917 379.628158,42.8532989 379.628158,44.07757 C379.357941,44.204159 378.948257,44.4001117 378.41131,44.6550237 C379.509611,46.7550129 378.226516,48.3365076 377.304292,50.1174233 C375.907881,50.0116435 374.487063,50.6237791 373.092395,49.309335 C371.70993,48.0087636 370.88882,47.2076117 370.840006,45.4735166 C370.782476,43.5347983 370.880103,41.5908776 370.785963,39.6556275 C370.507029,33.7805132 370.167079,27.9071331 369.842819,22.033753 C369.835845,21.907164 369.738218,21.7840433 369.583062,21.4389583 C368.354011,21.3036989 367.001183,21.1164166 365.644868,21.0175732 C364.0933,20.9031229 363.103086,19.9771161 362.384832,18.7701859 C361.854858,17.8823293 362.702119,16.0615294 363.84749,15.5360986 C364.50647,15.2361001 365.252618,15.0176041 365.974358,14.9811881 C370.834776,14.7332125 375.698681,14.5528666 380.560842,14.3326366 C382.61972,14.2389954 384.418842,14.6846579 385.989587,16.1759797 C387.061738,17.1938935 387.194231,17.0569 387.056508,18.6019787 C387.630065,18.1077616 388.154809,17.8493814 388.376213,17.4297304 C388.900956,16.4326257 389.622697,16.3112391 390.712281,16.2262684 C392.91237,16.054593 395.075849,15.4650007 397.261991,15.0904361 C400.22566,14.5806122 403.177126,14.1730998 405.973436,15.8395652 C406.545249,16.1811819 407.2513,16.3077709 407.906794,16.5054577 C409.216039,16.8973632 409.604802,17.7609426 409.289259,19.0355025 C409.226499,19.2921486 409.280542,19.5782743 409.280542,19.8141112 C407.810911,21.2655488 405.959489,21.2273987 403.83262,21.0106368 C404.108067,23.6187159 404.332957,25.9215942 404.592714,28.2210043 C405.009371,31.9232974 405.168015,35.6290586 404.922205,39.3538949 C404.875135,40.0700762 405.147095,40.8088007 405.300508,41.5301843 C405.506222,42.490873 406.166946,43.4827754 404.977991,44.3047365 C404.803658,44.424389 404.662448,44.8683174 404.749614,45.043461 C405.523655,46.611083 403.912814,47.3567439 403.4979,48.4943103 C403.31485,48.9937297 402.361246,49.5382355 401.561055,48.8116497 C401.310015,48.5844832 401.006674,48.4145419 400.581301,48.1162775 C400.43486,48.5203217 400.33026,48.8081815 400.18382,49.2104916 C398.602615,49.0682958 397.903538,47.9810181 397.488624,46.6440308 C397.183541,45.662533 396.892404,44.6584919 396.766884,43.6423122 C396.369403,40.4220975 395.834199,37.2296284 395.935313,33.9417841 C396.045143,30.3816868 395.780156,26.8025145 394.993912,23.1626489" id="Fill-3" fill="#FFDD00"></path>
                <path d="M343.916217,23.5138013 C343.675879,24.7268342 343.447644,25.8278128 343.241886,26.9323486 C343.048232,27.9692962 342.878785,29.0115796 342.685131,30.1356805 C346.501153,31.1317193 350.19787,30.4433853 354.119365,29.4615757 C354.757386,30.0520844 355.447278,30.8418009 356.273766,31.4198591 C357.430503,32.2291406 357.057027,33.1718201 356.546956,34.0095599 C355.208669,36.2008452 353.118242,37.3427325 350.702754,37.4601228 C348.313202,37.5757345 345.895984,37.335618 343.508161,37.0794937 C342.7785,37.0012335 342.105898,36.3573656 341.142815,35.825552 C340.841959,38.8492412 340.797004,41.5812333 342.137021,44.473303 C343.613633,44.3541341 345.202633,44.3701418 346.732846,44.0677729 C349.568495,43.5075011 352.369562,42.7640293 355.184462,42.0934818 C355.715282,41.9671983 356.093944,41.8853808 356.610931,42.4420953 C357.425316,43.3207438 358.519807,43.9290389 359.498452,44.6458311 C360.191802,45.1545224 360.113995,45.4889068 359.655795,46.319532 C358.7515,47.9505455 357.696777,49.1173338 355.886458,49.5673299 C353.355123,50.19519 350.860098,50.9991356 348.313202,51.5522929 C346.712098,51.9009065 345.041831,52.0947783 343.411334,52.0503123 C342.294365,52.0182967 341.17048,51.5131628 340.089821,51.1129686 C339.201087,50.7839201 338.393619,50.0119901 337.508343,49.9390658 C336.1251,49.8252328 335.691108,48.9448056 335.148185,47.9203086 C333.043926,43.9539399 332.637598,39.7474547 333.218561,35.3417618 C333.576475,32.6471211 334.416795,30.1250087 335.345297,27.5975603 C336.1251,25.4809779 336.721624,23.2861353 337.273192,21.0930713 C337.432265,20.4669898 337.155616,19.7252966 337.053602,18.8359763 C337.748682,18.1636501 338.474885,17.2903375 339.361889,16.6660347 C339.868502,16.3085279 340.686345,16.1359997 341.289784,16.2569473 C345.072954,17.0164269 348.838834,16.4935065 352.608172,16.2498327 C355.165442,16.0844192 357.653551,16.3974599 360.063852,17.3099026 C361.34681,17.7954715 361.538735,18.2365744 360.992354,19.5758908 C360.610233,20.5132344 360.008522,21.0681703 358.988381,21.4737004 C354.129739,23.396411 349.094734,23.7521391 343.916217,23.5138013" id="Fill-5" fill="#FFDD00"></path>
                <path d="M296.402811,29.942601 C299.411309,30.1227387 303.594806,29.4948803 306.258968,28.5312314 C306.700924,28.8320438 307.139331,29.3794523 307.586612,29.386448 C308.81131,29.405686 309.240841,30.3011274 309.427209,31.0916343 C309.6331,31.9730844 309.597601,33.0574081 309.246166,33.8811442 C308.733213,35.0948871 307.75168,36.0742762 306.317541,36.30863 C303.605456,36.751104 300.893371,37.3160016 298.158212,37.4943903 C294.830228,37.7130039 294.691784,37.6220607 294.693559,40.9624769 C294.695334,45.2228194 295.417728,45.0199459 298.868182,44.0265656 C300.7851,43.4739103 302.462404,42.4875256 304.203605,41.5868375 C305.098167,41.1233766 305.98563,39.4759043 307.096732,41.364726 C309.357986,42.038056 309.473357,42.1464884 310.34662,44.5022689 C307.927397,47.653803 305.02362,50.3051491 301.076188,51.6028396 C297.72868,52.7046523 290.829548,51.8669249 288.692539,48.3516177 C287.615159,46.5817217 286.679774,44.8013323 286.626526,42.7481131 C286.578603,40.8820271 286.809343,39.0054477 286.954887,37.135864 C287.02056,36.3051322 286.915839,35.6318022 286.512931,34.8010704 C285.676942,33.0801439 285.313082,32.3788313 286.985061,31.1808286 C287.911572,30.5162432 288.348203,29.424924 288.341103,28.2269213 C288.330454,25.5895664 288.337554,22.9522116 288.337554,20.3236013 C289.152244,18.86676 290.400016,17.945085 292.018747,17.4886197 C292.347108,17.3959275 292.65772,17.1843095 292.986081,17.1615737 C297.8476,16.8205364 302.709119,16.425283 307.577737,16.2189117 C309.356212,16.1437086 311.166635,16.4550145 312.932685,16.7610735 C313.404815,16.8432723 314.072186,17.5375892 314.104135,17.9870588 C314.150283,18.6568909 313.921318,19.6187909 313.440313,19.9948064 C312.414407,20.7940578 311.207458,21.4533965 309.97211,21.8888749 C305.829436,23.3492139 301.484421,23.8808823 296.921089,24.3390964 C296.752471,26.1474684 296.585629,27.9785762 296.402811,29.942601" id="Fill-7" fill="#FFDD00"></path>
                <g id="Group-11" transform="translate(410.336370, 13.377358)">
                    <mask id="mask-2" fill="white">
                        <use xlink:href="#path-1"></use>
                    </mask>
                    <g id="Clip-10"></g>
                    <path d="M21.9432783,0.267238422 C21.6425708,0.803473413 21.4550708,1.13576329 21.1384434,1.69661235 C22.9214623,1.50673242 24.465684,1.34146655 26.2097877,1.15510292 C25.9002358,3.26663808 25.0034198,4.53953688 23.5476415,5.56277873 C20.2380896,7.89232419 16.5163915,9.29005146 12.7115566,10.5330617 C12.4462264,10.6209691 12.1985849,10.7651372 11.7545991,10.9690823 L11.7545991,16.7621784 C15.3117925,16.9081046 18.5523585,15.3099485 21.8017689,13.8577187 C22.2634434,14.2796741 22.6154481,14.838765 23.1054245,15.0128216 C25.4527123,15.8479417 25.8011792,17.2333619 24.3666274,19.1761149 C22.3925708,21.8520154 19.7428066,23.1688679 16.5535377,23.6136792 C14.39375,23.9143225 12.2251179,24.1428816 9.7504717,24.4400086 C8.74929245,26.113765 8.39198113,28.1954117 8.40613208,30.5495712 C10.4527123,31.0682247 12.196816,31.5657804 14.3990566,30.4563894 C17.6573113,28.8125214 20.6449292,27.0086621 22.8666274,23.968825 C24.5700472,24.7810892 25.7056604,26.126072 26.3884434,27.675 C26.8235849,28.664837 26.4680425,29.9025729 25.670283,30.8273585 C22.7162736,34.2557461 19.1537736,36.8595626 14.7492925,38.0287307 C12.0517689,38.7442967 9.15613208,38.5262864 6.62311321,37.496012 C4.74988208,36.7347341 2.79882075,35.3686535 1.70035377,33.7318182 C0.274646226,31.6062178 -0.238325472,28.9408662 0.596580189,26.2632075 C1.28290094,24.0567324 1.98337264,21.846741 2.5370283,19.6051029 C3.12252358,17.2316038 3.58242925,14.8229417 4.01757075,12.4160377 C4.23514151,11.2117067 3.89021226,9.8983705 4.93915094,8.8733705 C5.18679245,8.62898799 5.28761792,8.03649228 5.19033019,7.67607204 C4.73573113,5.98297599 5.88195755,5.19005146 7.04941038,4.64326758 C9.13667453,3.66749571 11.3212264,3.01346484 13.6508255,2.63370497 C16.1820755,2.21878216 18.6142689,1.2025729 21.0924528,0.451843911 C21.2887972,0.392066895 21.4939858,0.363936535 21.9432783,0.267238422" id="Fill-9" fill="#FFDD00" mask="url(#mask-2)"></path>
                </g>
                <path d="M331.513349,25.3860198 C329.92744,26.1019605 329.92744,26.1019605 328.421172,25.3078224 C326.67598,26.6111125 325.739324,26.4460291 324.589713,24.6839809 C324.231325,24.1348614 323.775982,23.6482998 323.287744,23.0348846 C322.825475,23.429347 322.41861,23.6257094 322.243744,23.9489253 C320.863865,26.4894721 319.357598,28.9831004 318.220106,31.6331235 C316.906017,34.6915108 316.71557,37.9410473 317.54142,41.2183874 C318.417479,44.7042538 320.969477,46.1204957 324.426967,44.9318952 C325.727204,44.4835634 327.017054,43.9691982 328.241113,43.3453567 C329.276455,42.8170898 330.143857,42.6415801 331.007797,43.5955884 C331.165349,43.7710982 331.501229,43.7797868 332.034483,43.9587719 C331.549707,45.6235078 331.087439,47.2308988 330.600932,48.831339 C330.543797,49.017275 330.394902,49.2205883 330.230425,49.3179006 C326.899323,51.3214919 323.396818,52.7551109 319.442433,51.7003148 C317.953479,51.3041147 316.596107,50.4248283 315.16775,49.787085 C311.762201,48.2717931 310.38059,45.2151435 309.757307,41.9169508 C309.20674,39.0149583 309.201546,35.956571 310.292291,33.1049724 C311.277425,30.5261958 312.491096,28.0360429 313.573184,25.4937585 C314.622377,23.0244583 316.53551,21.1772618 318.131807,19.1076372 C319.213896,17.7018217 320.915805,17.1544399 322.557117,17.1509434 C325.138548,17.1457513 327.571083,18.1101859 329.697171,19.5177392 C331.174006,20.4960756 332.481169,21.8462841 331.539319,24.0097455 C331.362722,24.4128966 331.513349,24.9585407 331.513349,25.3860198" id="Fill-12" fill="#FFDD00"></path>
                <path d="M211.867588,35.2393919 C211.729421,32.5606382 211.606996,30.1669692 211.481072,27.7715619 C211.323667,27.750702 211.168012,27.7315805 211.012356,27.712459 C210.011962,29.7741085 209.665672,32.04088 208.948606,34.1112211 C209.954247,34.4988669 210.687053,34.7822133 211.867588,35.2393919 M220.713728,47.273793 C219.494717,48.2402998 218.527553,49.0468811 217.518414,49.7978361 C216.859063,50.2897811 216.246934,50.3436691 215.564848,49.6552937 C215.19757,49.2832928 214.515483,49.2189749 213.878869,48.9808249 C212.698334,46.2846879 212.327559,43.286083 212.199886,39.9293838 C211.112045,40.24402 210.277801,40.4700019 209.452301,40.7307501 C209.060538,40.8559093 208.698508,41.1566389 208.304996,41.1914054 C206.38466,41.3669759 205.16215,42.2726415 204.571008,44.1569822 C204.362885,44.8210211 203.633576,45.3077511 203.206835,45.9196404 C202.830813,46.463735 202.481025,47.0443345 202.230926,47.6527471 C201.71324,48.9130303 201.018911,49.5770692 200.256373,49.413667 C199.110817,49.1685636 197.792116,47.3485408 198.124414,46.2899029 C198.580888,44.8366659 199.145795,43.4147188 199.728193,42.0066782 C201.239277,38.352726 202.909515,34.7561385 204.284182,31.0517749 C205.464717,27.8723846 206.262234,24.5539285 207.350075,21.3345567 C207.991936,19.439786 208.773712,17.5763052 209.674416,15.7893105 C210.21309,14.7202427 210.499916,13.1905196 212.40801,13.468651 C212.775288,13.5208007 213.36643,12.6759763 213.707473,12.1492649 C214.321351,11.1984029 214.943974,11.3809267 215.566597,12.0397506 C216.483041,13.0114724 217.26132,14.0648954 217.355763,15.4781509 C217.544648,18.3150919 217.779006,21.1502946 217.959147,23.9872356 C218.308935,29.4455657 218.553787,34.9125874 219.012009,40.3604876 C219.153673,42.0414447 219.370542,43.783243 220.243263,45.3512092 C220.584306,45.9648367 220.596549,46.7575114 220.713728,47.273793" id="Fill-14" fill="#FFDD00"></path>
                <path d="M184.723714,43.5754793 C185.512763,43.675057 186.222184,43.7309603 186.917126,43.8619835 C188.462649,44.1519816 189.988265,44.5869788 191.546457,44.7634234 C193.571563,44.9940243 193.942561,46.4213041 194.257456,47.9132221 C194.396807,48.5735792 194.206783,49.1955029 193.310959,49.2129726 C189.059866,49.2933336 184.841348,49.0277931 180.700649,48.0250286 C179.55146,47.7455123 178.986819,47.0694324 178.646587,45.8989581 C178.038512,43.8060802 178.284638,41.7638647 178.476471,39.6849626 C178.970531,34.3374674 179.354197,28.9794904 179.942365,23.642477 C180.369465,19.7659361 181.042691,15.9155998 181.643526,12.0582756 C181.714106,11.6040617 182.021763,11.1847874 182.280557,10.618767 C182.789096,10.8808134 183.207147,11.0974385 183.661393,11.3315334 C183.963621,10.7917176 184.265848,10.2519019 184.629607,9.60377358 C186.166082,10.2222033 186.978658,11.1481008 186.938843,12.7570662 C186.868263,15.6849989 186.908078,18.6146786 186.804922,21.5408643 C186.756059,22.9244697 186.495455,24.3010872 186.316291,25.6794517 C186.084643,27.4718496 185.764318,29.2555127 185.617729,31.0548985 C185.281116,35.1463175 185.025942,39.2447245 184.723714,43.5754793" id="Fill-16" fill="#FFDD00"></path>
                <g id="Group-9" transform="translate(75.345804, 29.500000) rotate(-4.000000) translate(-75.345804, -29.500000) translate(1.845804, 6.000000)">
                    <g id="Group-20">
                        <mask id="mask-4" fill="white">
                            <use xlink:href="#path-3"></use>
                        </mask>
                        <g id="Clip-19"></g>
                        <path d="M24.0986583,9.85196765 C22.6534801,10.3022372 21.3472956,10.7104582 19.8237107,11.1852561 C19.4780084,10.6316173 19.075283,10.0849865 18.77413,9.48754717 C17.6853459,7.34132075 16.7337736,6.83849057 14.3851363,7.29226415 C13.549392,7.45345013 12.7172117,7.65493261 11.9046331,7.90897574 C11.4466667,8.05264151 11.0368134,8.34347709 10.4612369,8.64132075 C11.0279036,10.04469 12.1826205,10.7577628 13.3480294,11.3114016 C16.3542138,12.7410512 19.4263312,14.0322911 22.4610273,15.402372 C24.3873375,16.2731267 26.6130189,16.6866038 28.0439413,18.3545283 C29.5960377,20.1643666 30.7614465,22.2177358 30.9877568,24.663558 C31.6880713,32.2795957 22.9849266,37.4883558 16.6518029,36.2654447 C12.8758071,35.5348518 10.0193082,33.3290566 6.74582809,31.7767655 C3.8732914,30.4154447 2.37643606,27.8925337 0.574863732,25.5938814 C-0.793689727,23.8488679 0.508930818,20.7898383 2.12161426,20.3150404 C2.99656184,20.0574933 3.74142558,19.952372 4.37402516,20.851159 C5.04939203,21.8095148 5.90651992,22.6417251 6.61218029,23.5825606 C8.55096436,26.1720485 11.2577778,27.6542588 14.2550524,28.6564151 C15.5113417,29.0769003 16.8709853,29.383504 18.1896436,29.3975202 C20.9035849,29.4273046 22.5144864,27.6227224 23.7725577,25.5483288 C24.3677358,24.5671968 23.3555765,22.638221 21.9139623,21.902372 C20.8519078,21.3609973 19.7007547,20.9808086 18.5692034,20.5830997 C14.88587,19.2883558 11.2613417,17.8219137 7.99677149,15.7124798 C6.36092243,14.6577628 5.03870021,13.1177358 3.6487631,11.7266307 C3.28880503,11.3657143 3.17654088,10.7454987 3.01616352,10.2251482 C2.91459119,9.89752022 2.93953878,9.53134771 2.90389937,9.18444744 C2.7684696,7.88619946 2.06280922,6.50911051 2.90389937,5.31247978 C4.04436059,3.6883558 5.53765199,2.32703504 7.42832285,1.58943396 C10.8390147,0.259649596 14.3637526,0.252641509 17.8742348,1.15843666 C20.4901677,1.83296496 22.3345073,3.35371968 23.0579874,6.06234501 C23.2557862,6.80695418 23.8812579,7.43943396 24.4318868,8.31719677 C24.3481342,8.70789757 24.2002306,9.38067385 24.0986583,9.85196765 Z" id="Fill-18" fill="#FFDD00" mask="url(#mask-4)"></path>
                    </g>
                    <path d="M103.460597,23.5423355 C106.004868,21.6635823 108.431794,20.096773 110.165313,17.5923595 C107.494805,16.5377763 105.119441,16.8231341 102.914761,18.3669021 C103.085446,19.979794 103.257908,21.6299065 103.460597,23.5423355 M94.3396226,18.0921788 C95.2054929,15.2811386 96.0358038,12.5888497 97.0083521,9.43396226 C97.8599986,10.3414355 98.4022787,10.9174683 99.0707946,11.6299766 C99.3499355,11.3924739 99.6450781,11.1390194 99.8353207,10.9759578 C100.569621,11.0947092 101.211468,11.2240951 101.862204,11.2896742 C102.132455,11.3180327 102.427598,11.1407918 102.694293,11.17624 C105.979977,11.6157974 109.258549,12.0890305 112.542456,12.5268154 C114.505332,12.7873595 115.516995,14.4445617 116.663785,15.6427099 C118.054155,17.0996299 117.469204,19.6643053 115.758799,21.8727265 C113.916825,24.2459818 111.484565,25.9918043 109.09142,27.7659854 C108.865618,27.9325919 108.646928,28.1098327 108.337562,28.3526527 C108.88162,29.394829 109.294109,30.5132189 109.987516,31.415375 C110.712927,32.3600688 111.721034,33.0849839 112.583349,33.9268781 C115.57389,36.8460352 118.5751,39.7527855 121.528304,42.7109356 C122.259049,43.4447128 123.082248,44.2706552 122.365727,45.5308378 C121.055365,45.7772026 119.832123,46.4241318 118.359966,46.1671326 C117.296741,45.9810296 116.558884,45.5166586 115.821028,44.8041503 C112.053514,41.1653952 108.250442,37.5656331 104.456259,33.9552366 C104.422477,33.9251057 104.331801,33.9534642 104.125557,33.9534642 C103.513936,37.1243034 104.543379,40.2845081 104.13978,43.6893052 C103.263242,44.4709374 102.28536,45.2933351 100.574955,44.6712196 C99.9544445,44.4461237 99.6895273,44.1200005 99.3748271,43.7371602 C98.8787741,43.1309965 98.4236144,42.5939566 97.564856,43.4925678 C96.6509806,41.5978629 96.3700617,39.7953233 96.3611719,37.9715147 C96.3451702,34.6429312 96.4962974,31.3143477 96.4589601,27.9875365 C96.4305126,25.5823779 96.1922649,23.1825365 96.080253,20.7791503 C96.025136,19.5916365 95.7922222,18.5405982 94.3396226,18.0921788" id="Fill-21" fill="#FFDD00"></path>
                    <path d="M139.941212,16.7371094 C138.148458,17.7694608 136.541895,18.76811 134.862628,19.6248552 C134.194113,19.9671985 133.366006,20.0133173 132.605282,20.1623165 C131.853425,20.3095418 131.092701,20.4177436 130.264594,20.5543262 C130.347937,22.1347816 130.424186,23.6070353 130.502209,25.1183126 C132.349935,25.8331538 134.229578,25.1981336 136.116315,24.8380523 C138.698165,24.3484836 140.347286,25.0313964 141.512311,27.3125027 C141.80135,27.8801186 141.66481,28.664138 141.714461,29.2299801 C138.402032,31.496896 134.717222,32.1017617 131.051917,32.7917697 C130.913603,34.7323065 132.027203,36.1052274 132.679759,37.6892304 C135.176493,38.4963093 137.385961,37.6005405 139.561737,36.5362607 C140.07066,36.286155 140.552983,35.9863828 141.049493,35.7114439 C143.89733,34.1327622 146.089066,36.1850484 146.222059,38.9007356 C146.250431,39.4435183 146.133397,39.9933961 146.067787,40.7064636 C145.115552,41.9303853 143.150793,42.2851452 142.274808,43.9241361 C142.198558,44.0660401 141.907745,44.1068374 141.710915,44.1689204 C138.863077,45.0611416 136.020559,45.8859585 133.036182,44.6744533 C132.330429,44.3888716 131.530694,44.3356576 130.785929,44.1334444 C129.041052,43.6616137 127.562163,42.9343559 126.641847,41.1570087 C125.806647,39.5375296 124.604384,38.1078472 124.205403,36.268417 C123.983747,35.2467084 123.882672,34.18775 123.574127,33.1944222 C122.652037,30.2304031 122.792124,27.2788005 123.290407,24.2597936 C123.540435,22.7520639 123.334738,21.1698347 123.334738,19.8501277 C121.703349,18.8621214 120.236873,17.9752216 118.867925,17.1468571 C119.187109,14.1704214 119.187109,14.1704214 122.020761,13.9682082 C122.063319,13.7056859 122.104103,13.4396159 122.157301,13.1079154 C122.437474,13.1079154 122.726514,13.0547014 122.988955,13.1150106 C126.237546,13.872423 129.440033,13.5886151 132.665573,12.8737739 C134.371438,12.4977283 136.14646,12.3930742 137.89843,12.2671344 C139.137931,12.1784444 140.586675,14.0870528 140.310048,15.3358077 C140.19124,15.8785904 140.028102,16.4107303 139.941212,16.7371094" id="Fill-23" fill="#FFDD00"></path>
                    <path d="M89.5530242,10.714971 C89.9209398,13.6048093 88.6997362,16.0024224 88.9277403,18.6611443 C89.079743,20.4218638 88.4665502,22.2566818 88.1590902,24.0526864 C88.0399063,24.7583856 87.8999947,25.3970434 88.4544591,26.0321727 C88.6720994,26.2809317 88.6910997,26.8172631 88.6323714,27.1965764 C87.9241769,31.7042302 87.0760709,36.1942416 86.5146972,40.7230664 C86.3264211,42.2438482 85.4420417,42.9072055 84.4108415,43.2424126 C83.4625518,43.5529203 82.2551667,43.4629436 81.557336,42.3179466 C81.4588797,42.1556358 81.2170572,42.0868301 80.9355067,41.9068768 C80.6280467,42.1327006 80.1979481,42.654918 79.9630348,42.5737626 C79.4966629,42.4167445 79.0095633,42.0039105 78.757377,41.5628484 C77.016255,38.5142278 75.5929568,35.3103533 74.7448508,31.8788908 C74.1040212,29.2872104 73.6756499,26.6408383 72.9864558,24.0650361 C72.1746231,21.0305294 71.2176969,18.0330719 70.2573162,15.0426715 C69.8133991,13.6630295 69.5214848,12.315144 70.2745892,10.9884294 C71.3109713,9.16243265 72.8465442,9.17478239 74.0781116,10.879046 C74.5859389,11.582981 75.3701347,12.073442 75.9643271,12.720921 C76.4669724,13.2713664 77.0611649,13.8429828 77.2995328,14.520454 C78.3013688,17.3608934 79.1892028,20.2419105 80.106401,23.1123421 C80.2929498,23.701601 80.419043,24.3102666 80.6453197,25.1923906 C81.3103316,23.9891734 80.9838712,22.5319045 82.3553503,22.0643788 C82.5298079,22.0043943 82.5591721,21.4292495 82.6109912,21.0852211 C83.162001,17.5514322 83.6111,13.9964724 84.3020214,10.4926757 C84.5075705,9.45529783 85.3660404,8.53965308 85.9982335,7.62047984 C86.0880532,7.48992548 86.7081552,7.54108867 86.8895221,7.71574923 C87.5528067,8.35087854 88.134908,9.072456 88.7446461,9.76756974 C89.0590154,10.1257121 89.3647481,10.4944399 89.5530242,10.714971" id="Fill-25" fill="#FFDD00"></path>
                    <path d="M45.6539065,28.9286389 C45.9002311,28.5087494 46.0040394,28.3972435 46.0321908,28.2700571 C46.3242615,26.98077 46.5178023,25.6636064 46.9119218,24.4074226 C47.2902061,23.2017649 48.1065964,22.1006441 48.310694,20.8827904 C48.6889783,18.6317648 48.981049,16.3197595 48.8737218,14.0530534 C48.817419,12.8735299 47.8373987,11.7358211 47.1811194,10.3855542 C47.247979,10.1904189 47.6948823,9.55971358 47.548847,9.12937045 C47.3447494,8.53176845 46.6937485,8.08748709 46.06738,7.39231742 C46.4263103,7.09787212 46.8521,6.69017863 47.3341926,6.36611458 C47.6086687,6.18317519 48.0995586,6.22847447 48.2772642,6.00372037 C48.6643458,5.51413972 48.9247462,4.79109358 49.6953905,5.06985836 C50.5821593,5.39043785 51.5111552,5.54550076 52.237813,6.36611458 C53.7931774,8.12581724 53.9145802,10.3054094 54.3280538,12.3926606 C55.3309471,17.4836024 54.1784995,22.4473578 53.300528,27.4250513 C53.1597711,28.2212732 53.1368981,29.0401448 53.0665196,29.8485626 C53.0559628,29.9827182 53.1386575,30.1552039 53.0805953,30.2527716 C51.9404639,32.1553412 50.9146976,34.1729013 48.9528976,35.397724 C48.402186,35.7409531 47.5611632,35.9430576 46.9453515,35.8054175 C44.6527726,35.2897027 42.2335125,35.1067633 40.220688,33.6955166 C39.5362573,33.2163896 38.8078401,32.833088 38.7937644,31.792947 C38.788486,31.3974494 38.2852799,30.6656919 38.0389552,30.6796301 C36.9041023,30.7388676 36.7404723,29.825913 36.3076447,29.2039191 C34.4109448,26.4807357 34.0115469,23.2731984 33.4326839,20.1405792 C32.9875401,17.7379753 32.8590993,15.3196908 33.2584972,12.8752722 C33.5470489,11.1068581 33.684287,9.31230983 33.8127277,7.52298841 C33.9464468,5.65874895 35.5158868,4.94615649 36.6824101,3.93737644 C37.1926541,3.49483736 38.2553691,4.00009852 38.5122505,4.84161969 C39.0048998,6.46019769 39.828328,7.97075434 39.4518032,9.84196291 C39.1738082,11.2270754 39.5063465,12.7306629 39.5591304,14.1819821 C39.6031169,15.4433927 39.6347872,16.5898128 39.0770378,17.9034919 C38.6336534,18.9453752 39.1738082,20.7346966 39.8687957,21.8236216 C40.6112886,22.9892068 41.2200624,24.1704725 41.747901,25.4231718 C42.4815966,27.1724208 43.6692334,28.4094395 45.6539065,28.9286389" id="Fill-27" fill="#FFDD00"></path>
                    <path d="M67.3246966,41.1431746 C66.6289611,41.5251575 65.7239684,39.5360301 65.4771522,42.4528302 C65.309031,42.2345543 65.1409098,42.0162783 64.9745771,41.7962421 C64.6705282,41.2470317 64.3682678,40.6978213 64.0999893,40.2084608 C63.5831061,40.3563251 63.2164589,40.4601822 62.8837935,40.5534776 C60.1831235,35.8359012 60.2242596,30.7345816 59.9845975,25.6825501 C59.7968025,21.7606246 59.5195814,17.8404594 59.4373094,13.9167736 C59.3997504,12.1054355 59.6859141,10.2817754 59.9130565,8.47395784 C60.1097941,6.91962203 61.3510292,5.76663226 62.8891591,5.66277517 C63.2629605,5.63813111 63.8227682,5.80535864 64.0123517,6.07644325 C65.2625294,7.86665789 67.0349559,9.31361604 67.0385329,11.8519538 C67.045687,16.0590462 67.2567327,20.2696592 67.5500505,24.4679502 C67.855888,28.8739553 68.3781368,33.2641179 68.7626693,37.6666025 C68.8413643,38.5555488 69.2366279,39.6469284 67.7324799,39.9655408 C67.5089145,40.0130686 67.4409506,40.780555 67.3246966,41.1431746" id="Fill-29" fill="#FFDD00"></path>
                </g>
                <mask id="mask-6" fill="white">
                    <use xlink:href="#path-5"></use>
                </mask>
                <g id="Clip-32"></g>
                <polygon id="Fill-31" fill="#FFDD00" mask="url(#mask-6)" points="41.3882563 15.8669811 41.5486337 15.8669811 41.5486337 14.6613208 41.3882563 14.6613208"></polygon>
            </g>
        </g>
    </g>
</svg>