<?xml version="1.0" encoding="UTF-8"?>
<svg width="502px" height="75px" viewBox="0 0 502 75" version="1.1" xmlns="http://www.w3.org/2000/svg" xmlns:xlink="http://www.w3.org/1999/xlink">
    <!-- Generator: Sketch 59.1 (86144) - https://sketch.com -->
    <title>Res / Titre / Appel</title>
    <desc>Created with Sketch.</desc>
    <defs>
        <polygon id="path-1" points="0 0.656341041 39.4142496 0.656341041 39.4142496 52.7057143 0 52.7057143"></polygon>
    </defs>
    <g id="Res-/-Titre-/-Appel" stroke="none" stroke-width="1" fill="none" fill-rule="evenodd">
        <g id="Group-24" transform="translate(-0.000000, 0.000000)">
            <path d="M358.856357,43.0879286 C359.6085,50.3779286 360.864214,56.6500714 362.762786,62.7936429 C367.149214,61.7350714 372.337071,58.0429286 373.9185,54.9422143 C374.224929,54.3422143 374.400643,53.6672143 374.569929,53.0115 C375.094929,50.9650714 374.542071,49.3386429 372.699214,48.1750714 C368.6235,45.6036429 364.177071,44.1165 358.856357,43.0879286 M407.177786,37.4972143 C406.762071,36.5393571 406.367786,35.4165 405.8085,34.3836429 C403.965643,30.9807857 399.941357,30.8029286 397.946357,34.0879286 C397.252071,35.2322143 396.720643,36.5715 396.491357,37.8872143 C395.760643,42.0915 394.8885,46.3129286 394.702071,50.5536429 C394.594929,52.9943571 395.134929,55.8293571 396.375643,57.8865 C398.899929,62.0715 403.189929,64.0986429 407.9685,64.5807857 C411.874929,64.9772143 414.204214,61.9386429 416.3835,59.4229286 C421.125643,53.9479286 422.184214,46.5743571 418.982786,40.2722143 C417.772071,37.8936429 416.051357,36.1343571 413.612786,35.5065 C411.315643,36.2136429 409.965643,38.8129286 407.177786,37.4972143 M385.597071,56.6950714 C382.984929,62.7765 378.722786,66.6336429 373.335643,69.2222143 C370.419214,70.6236429 367.374214,71.7915 364.305643,72.8157857 C358.612071,74.7186429 358.586357,74.6436429 352.052786,73.6836429 C351.701357,73.1607857 351.184929,72.5007857 350.794929,71.7743571 C350.409214,71.0522143 350.149929,70.2615 349.794214,69.4022143 C350.9535,68.6672143 351.937071,68.0393571 353.156357,67.2636429 C352.734214,65.6115 352.312071,63.9786429 351.8985,62.3436429 C350.044929,55.0279286 348.480643,47.6843571 348.791357,40.0515 C348.872786,38.0415 348.427071,36.0057857 348.221357,33.9679286 C350.175643,32.3179286 352.2135,31.9557857 354.542786,32.5686429 C359.347071,33.8329286 364.3035,34.6429286 368.949214,36.3250714 C375.307071,38.6265 381.0435,42.0486429 384.240643,48.4879286 C384.461357,48.9357857 384.739929,49.3536429 385.224214,50.1872143 C385.7385,49.1393571 386.051357,48.7686429 386.100643,48.3679286 C387.079929,40.0557857 391.834929,33.8479286 397.440643,28.1543571 C399.307071,26.2579286 401.679214,25.5936429 404.432786,25.5100714 C410.445643,25.3279286 414.849214,28.3086429 418.920643,32.1615 C419.167071,32.3950714 419.402786,32.6779286 419.5335,32.9822143 C421.087071,36.5929286 422.9235,40.1157857 424.080643,43.8486429 C425.507786,48.4429286 425.336357,53.1357857 424.575643,57.9893571 C423.735643,63.3572143 420.825643,66.9936429 417.060643,70.3343571 C414.349929,72.7365 411.045643,73.8765 407.574214,73.5486429 C402.067071,73.0300714 396.862071,71.3543571 392.499214,67.6986429 C389.955643,65.5686429 387.879214,63.1450714 387.071357,59.7979286 C386.8485,58.8807857 386.257071,58.0515 385.597071,56.6950714" id="Fill-1" fill="#1D1D1B"></path>
            <g id="Group-5" transform="translate(0.000000, 1.487143)">
                <mask id="mask-2" fill="white">
                    <use xlink:href="#path-1"></use>
                </mask>
                <g id="Clip-4"></g>
                <path d="M25.2904286,29.43 C24.2768571,24.8207143 23.2118571,20.9978571 21.3347143,16.7871429 C18.8918571,20.9721429 17.5268571,24.9021429 16.5454286,29.1835714 C19.3997143,30.1071429 22.044,29.475 25.2904286,29.43 M23.7475714,0.679285714 C28.2818571,4.8 30.2147143,10.125 31.9225714,15.4607143 C34.1618571,22.4528571 36.2532857,29.5071429 37.9568571,36.6428571 C39.1011429,41.4364286 39.8361429,46.3885714 39.1482857,51.285 C37.6247143,53.1878571 35.6382857,52.4957143 34.0375714,52.7057143 C33.5447143,52.41 33.2425714,52.2514286 32.9682857,52.0585714 C29.5482857,49.6242857 27.6925714,46.4485714 28.0161429,42.1092857 C28.0868571,41.1664286 27.5854286,40.1785714 27.3111429,39.0578571 C22.389,39.3642857 17.6468571,39.66 12.6882857,39.9707143 C10.0247143,42.93 10.0332857,47.1492857 8.349,50.5778571 C6.34328571,52.0392857 4.29042857,51.7007143 2.559,50.4878571 C0.619714286,49.1314286 -0.267428571,46.8342857 0.069,44.6057143 C0.859714286,39.3792857 1.31185714,34.0457143 3.31328571,29.0785714 C4.90971429,25.1185714 6.33471429,21.0342857 8.43257143,17.3442857 C11.289,12.315 14.559,7.49357143 17.9661429,2.81142857 C19.2668571,1.02642857 21.6497143,0.537857143 23.7475714,0.679285714" id="Fill-3" fill="#1D1D1B" mask="url(#mask-2)"></path>
            </g>
            <path d="M244.016786,44.4816429 C243.3375,40.6566429 242.666786,36.8873571 241.903929,32.5952143 C238.7175,35.7945 237.671786,39.4545 236.780357,43.1552143 C236.555357,44.0937857 237.343929,44.7516429 238.243929,44.8652143 C240.061071,45.0923571 241.906071,45.2766429 244.016786,44.4816429 M231.348214,26.3016429 C232.955357,24.9387857 234.661071,23.2566429 236.593929,21.9002143 C242.135357,18.0109286 246.086786,18.8102143 249.0675,24.9130714 C250.691786,28.2345 251.4975,32.0145 252.286071,35.6702143 C253.404643,40.8473571 254.133214,46.0995 256.550357,50.9187857 C257.071071,51.9580714 257.169643,53.2116429 257.476071,54.3645 C257.8275,55.6802143 257.923929,57.1523571 258.6075,58.2687857 C260.191071,60.8552143 260.139643,63.4202143 259.091786,66.3045 C256.531071,67.3695 254.398929,66.7287857 252.363214,64.6480714 C250.421786,62.6637857 248.694643,60.6645 247.895357,57.9280714 C247.468929,56.4730714 246.706071,55.1145 246.058929,53.6295 C242.180357,53.1752143 238.5825,54.6195 234.631071,54.4695 C234.013929,56.3487857 233.4825,58.1145 232.858929,59.8480714 C231.928929,62.4195 231.633214,62.5909286 228.695357,62.5266429 C228.016071,62.5116429 227.341071,62.4130714 226.543929,62.3423571 C225.973929,61.5430714 225.528214,60.5616429 224.7825,59.9445 C222.573214,58.1123571 222.571071,55.8323571 223.235357,53.4045 C223.908214,50.9359286 224.825357,48.5273571 225.401786,46.0373571 C226.483929,41.3830714 227.488929,36.7459286 229.738929,32.4323571 C230.651786,30.6816429 230.791071,28.5259286 231.348214,26.3016429" id="Fill-6" fill="#1D1D1B"></path>
            <path d="M99.6919286,18.8196429 C97.7333571,16.8203571 95.5583571,16.2953571 93.4605,15.6696429 C92.1662143,15.2860714 91.1355,16.3317857 91.4097857,17.7139286 C91.9969286,20.6967857 92.6505,23.6667857 93.3362143,26.9217857 C96.9340714,25.3425 99.0340714,22.8310714 99.6919286,18.8196429 M94.2447857,36.1575 C94.8019286,41.6496429 95.5840714,46.5182143 97.2705,51.2003571 C98.1083571,53.5210714 98.3205,55.8417857 97.8512143,58.2567857 C97.3347857,60.9096429 97.0497857,61.1967857 94.1483571,61.5160714 C93.4733571,61.5889286 92.7855,61.5825 92.1726429,61.6103571 C88.6219286,59.0132143 87.2333571,55.2589286 85.8062143,51.3782143 C82.1633571,41.4696429 80.3912143,31.2696429 80.0805,20.7460714 C80.0055,18.2453571 80.5819286,16.0146429 81.5976429,13.8267857 C83.8583571,8.95607143 87.7090714,6.64178571 93.0597857,6.79607143 C100.081929,6.99321429 106.654071,11.4653571 108.919071,17.9453571 C110.2755,21.8282143 108.882643,25.3767857 106.476214,28.4882143 C103.463357,32.3796429 99.7369286,35.2832143 94.2447857,36.1575" id="Fill-8" fill="#1D1D1B"></path>
            <path d="M139.95,16.9780714 C138.27,20.3980714 135.902143,22.3802143 132.752143,23.6809286 C130.405714,24.6516429 128.254286,26.0937857 126.012857,27.3259286 C125.123571,29.3359286 125.016429,31.2666429 126.141429,33.5295 C128.014286,32.9873571 129.767143,32.4366429 131.543571,31.9780714 C133.360714,31.5066429 135.190714,31.0652143 137.037857,30.7266429 C139.281429,30.3109286 140.569286,31.4573571 141.289286,33.8787857 C138.012857,39.5337857 132.092143,41.8309286 126.244286,44.4559286 C125.385,47.2909286 125.76,50.1195 126.357857,53.2437857 C127.433571,53.0252143 128.468571,53.0016429 129.332143,52.6073571 C131.352857,51.6859286 133.29,50.5802143 135.267857,49.5666429 C137.862857,48.2380714 140.442857,47.8480714 143.198571,49.9459286 C143.470714,51.0152143 143.800714,52.3116429 144.064286,53.3530714 C142.855714,56.7366429 140.811429,58.7466429 137.627143,59.8395 C135.385714,60.6066429 133.345714,61.9502143 131.196429,63.0002143 C128.243571,64.4402143 124.913571,64.5130714 122.232857,63.2059286 C119.241429,61.7487857 116.477143,59.3080714 115.849286,55.5945 C115.337143,52.5645 114.902143,49.4959286 114.803571,46.4316429 C114.608571,40.4423571 114.724286,34.4423571 114.608571,28.4509286 C114.565714,26.2609286 114.24,24.0752143 113.997857,21.3773571 C114.891429,20.2073571 116.592857,19.3887857 118.352143,18.8487857 C121.778571,17.7945 125.237143,16.8023571 128.740714,16.0459286 C131.230714,15.5080714 133.810714,15.3452143 136.358571,15.1266429 C137.565,15.0216429 137.575714,15.1395 139.95,16.9780714" id="Fill-10" fill="#1D1D1B"></path>
            <path d="M65.9042143,16.1620714 C63.6563571,14.0106429 60.9906429,13.6742143 58.2692143,13.6699263 C56.4199286,13.6677857 54.7999286,15.1506429 55.1256429,16.9227857 C55.5970714,19.5092143 55.7192143,22.2756429 57.3777857,24.8342143 C61.7770714,23.3342143 64.6356429,20.6342143 65.9042143,16.1620714 M58.4577857,33.1163571 C59.5442143,37.9249286 60.5042143,42.4099286 61.5906429,46.8670714 C62.0535,48.7613571 62.2206429,50.5442143 61.2692143,52.3335 C60.4592143,53.8570714 59.6085,54.3777857 57.9949286,54.1249286 C56.6342143,53.9127857 55.4685,53.4413571 54.3670714,52.4556429 C49.5649286,48.1527857 47.5592143,42.3606429 45.8063571,36.4892143 C44.9342143,33.5706429 44.7027857,30.4613571 44.1349286,27.4485 C43.3870714,23.4970714 43.5906429,19.4985 44.7285,15.7592143 C46.2906429,10.6249286 49.6613571,6.74207143 55.0785,5.34921429 C60.4592143,3.96492857 65.6192143,5.21421429 70.4042143,7.73207143 C73.7342143,9.48492857 75.2770714,12.8963571 76.7835,16.1406429 C77.1606429,16.9527857 76.9570714,18.1806429 76.6827857,19.1235 C75.6049286,22.8327857 73.6892143,26.0363571 70.2585,28.0292143 C67.3227857,29.7349286 64.4342143,31.6056429 60.9413571,32.0877857 C60.2942143,32.1777857 59.6920714,32.5913571 58.4577857,33.1163571" id="Fill-12" fill="#1D1D1B"></path>
            <path d="M432.713786,27.8033571 C433.738071,27.6062143 434.895214,27.3876429 436.110214,27.1540714 C439.1595,28.4997857 440.777357,30.9576429 441.745929,34.0133571 C443.320929,38.9740714 445.960929,43.3605 449.228786,47.3762143 C449.760214,48.0297857 450.445929,48.5633571 451.0845,49.1247857 C451.161643,49.1912143 451.3995,49.0755 451.928786,48.9705 C451.928786,48.0833571 451.913786,47.1233571 451.933071,46.1590714 C451.967357,44.2990714 452.068071,42.4390714 452.057357,40.5769286 C452.048786,39.3855 451.950214,38.1855 451.776643,37.0047857 C451.628786,35.9933571 451.240929,35.0162143 451.097357,34.0047857 C450.625929,30.6212143 451.7145,29.7212143 455.091643,30.6319286 C455.580214,30.7647857 456.053786,30.9555 456.561643,31.1290714 C458.068071,33.6897857 458.803071,36.4562143 458.991643,39.4026429 C459.212357,42.8419286 459.8895,46.1933571 461.215929,49.3797857 C463.133786,53.9976429 462.325929,58.8383571 462.413786,63.5976429 C462.426643,64.2576429 461.635929,65.1555 460.980214,65.5626429 C458.458071,67.1333571 456.000214,66.5740714 453.895929,64.7397857 C451.577357,62.7212143 449.346643,60.5826429 447.227357,58.3519286 C445.581643,56.6205 444.186643,54.6512143 442.641643,52.8233571 C441.666643,51.6705 440.618786,50.5797857 439.262357,49.0819286 C438.8745,50.0697857 438.488786,50.6183571 438.465214,51.1840714 C438.302357,54.9533571 438.467357,58.6862143 439.4295,62.3826429 C440.108786,64.9862143 439.350214,66.4197857 437.215929,67.4783571 C435.505929,68.3247857 433.757357,67.8855 432.075214,66.3640714 C429.576643,64.1033571 429.182357,60.9597857 428.680929,57.9726429 C428.293071,55.6412143 428.263071,53.1447857 428.638071,50.8133571 C429.508071,45.3897857 429.921643,39.9640714 429.823071,34.4783571 C429.812357,33.6790714 430.148786,32.8283571 430.491643,32.0762143 C431.128071,30.6962143 431.888786,29.3697857 432.713786,27.8033571" id="Fill-14" fill="#1D1D1B"></path>
            <path d="M309.120643,37.9819286 C311.529214,36.8397857 312.675643,34.9283571 313.894929,33.1112143 C314.559214,32.1190714 315.041357,30.9983571 315.729214,30.0233571 C317.417786,27.6297857 320.235643,27.3040714 322.359214,29.3440714 C324.045643,30.9619286 324.8985,32.9719286 324.345643,35.3890714 C323.844214,37.5962143 322.8735,39.5890714 321.4785,41.3526429 C319.884214,43.3626429 318.292071,45.3812143 316.571357,47.2776429 C315.137786,48.8547857 314.702786,50.3912143 315.720643,52.3862143 C316.961357,54.8205 318.024214,57.3490714 319.144929,59.8455 C319.492071,60.6190714 319.894929,61.3969286 320.066357,62.2155 C320.559214,64.5405 319.554214,65.9826429 317.111357,66.6276429 C316.299214,66.8419286 315.474214,67.0219286 314.430643,67.2705 C312.3135,64.8383571 310.217786,62.4297857 307.927071,59.8005 C305.809929,60.8847857 304.4835,62.8776429 302.951357,64.6240714 C299.947071,68.0440714 297.180643,68.1105 293.989929,64.7633571 C293.762786,64.5255 293.632071,64.1933571 293.452071,63.8933571 C293.122071,61.7055 294.114214,59.8862143 295.192071,58.1333571 C296.7135,55.6562143 298.174929,53.1147857 299.9535,50.8262143 C301.905643,48.3169286 301.914214,45.9533571 300.4785,43.2640714 C299.109214,40.7012143 297.930643,38.0333571 296.692071,35.4040714 C296.254929,34.4740714 295.826357,33.5376429 295.496357,32.5690714 C294.969214,31.0262143 294.977786,29.4876429 296.2185,28.2683571 C297.379929,27.1262143 299.9685,26.9162143 301.526357,27.8269286 C303.652071,29.0697857 305.1285,30.9426429 306.3135,33.0683571 C307.219929,34.6905 308.1585,36.2976429 309.120643,37.9819286" id="Fill-16" fill="#1D1D1B"></path>
            <path d="M279.185571,59.5067143 C279.798429,57.5267143 280.394143,56.1252857 280.655571,54.6617143 C281.643429,49.1138571 282.549857,43.5552857 283.428429,37.9881429 C283.728429,36.0874286 283.595571,34.2831429 282.110571,32.7317143 C280.769143,31.3281429 281.174143,29.5945714 281.478429,27.9124286 C286.908429,28.4524286 291.018429,32.6352857 290.949857,37.5274286 C290.862,43.8467143 290.682,50.1681429 290.514857,56.4874286 C290.403429,60.7367143 288.815571,64.4845714 286.327714,67.8424286 C285.774857,68.586 284.780571,69.2395714 283.876286,69.4495714 C280.177714,70.3088571 276.699857,69.7367143 273.847714,67.0538571 C269.958429,63.3981429 266.568429,59.3545714 264.492,54.3467143 C261.980571,48.291 260.101286,42.0917143 260.525571,35.4445714 C260.656286,33.4174286 261.104143,31.401 261.543429,29.4081429 C262.317,25.8681429 266.652,25.8252857 268.569857,27.4945714 C269.784857,28.5531429 270.642,29.8152857 270.753429,31.4245714 C270.886286,33.2974286 270.944143,35.181 270.886286,37.056 C270.712714,42.5952857 271.389857,47.9524286 273.967714,52.9517143 C275.139857,55.2231429 276.204857,57.5631429 279.185571,59.5067143" id="Fill-18" fill="#1D1D1B"></path>
            <path d="M156.044571,20.7908571 C156.880286,20.2551429 157.673143,19.5715714 158.590286,19.1837143 C162.717429,17.4437143 167.288143,19.8865714 167.714571,24.3587143 C168.123857,28.5994286 168.006,32.8937143 168.021,37.1687143 C168.038143,41.7801429 167.888143,46.3937143 167.922429,51.0094286 C167.935286,52.848 167.858143,54.7937143 169.467429,56.4222857 C172.101,55.8458571 174.481714,54.4637143 177.046714,53.613 C179.307429,52.8672857 181.596,52.0872857 183.933857,51.6972857 C186.406714,51.2815714 187.851,52.2587143 188.913857,54.4058571 C189.989571,56.5765714 189.792429,58.0487143 187.731,59.2294286 C184.330286,61.1772857 180.693857,62.7115714 177.306,64.6787143 C173.538857,66.8665714 169.645286,67.4215714 165.552429,66.4572857 C158.301,61.9551429 156.346714,54.8237143 155.871,47.0665714 C155.661,43.6658571 156.010286,40.2308571 156.033857,36.813 C156.072429,31.5158571 156.044571,26.2187143 156.044571,20.7908571" id="Fill-20" fill="#1D1D1B"></path>
            <path d="M481.359,31.9551429 C480.373286,33.0094286 480.797571,33.7915714 481.271143,34.4858571 C482.743286,36.6437143 484.749,38.2315714 486.954,39.5901429 C489.137571,40.9358571 491.411143,42.1658571 493.453286,43.7001429 C495.064714,44.9151429 496.637571,46.3401429 497.794714,47.9794286 C501.587571,53.343 498.482571,62.5422857 493.669714,65.1137143 C489.146143,67.5287143 484.856143,68.5508571 479.979,66.6458571 C475.665429,64.9594286 472.909714,60.9394286 473.421857,56.7587143 C473.636143,54.9972857 475.039714,53.9022857 476.694,54.5601429 C478.412571,55.2394286 480.073286,56.1844286 481.569,57.273 C484.022571,59.0665714 486.362571,58.758 488.726143,57.2837143 C490.929,55.9101429 491.308286,53.3644286 489.366857,51.6694286 C487.841143,50.3365714 486.041143,49.2758571 484.249714,48.3051429 C480.459,46.2501429 476.966143,43.8608571 474.240429,40.4601429 C472.721143,38.5658571 471.570429,36.5708571 471.189,34.083 C470.361857,28.7108571 473.569714,24.2987143 479.061857,23.6172857 C483.516857,23.0687143 487.005429,25.218 490.161857,27.9587143 C490.849714,28.5522857 491.051143,29.7651429 491.349,30.7337143 C491.704714,31.8887143 491.068286,32.7801429 490.153286,33.2965714 C488.439,34.2651429 486.600429,34.458 484.753286,33.5987143 C483.583286,33.0544286 482.430429,32.4758571 481.359,31.9551429" id="Fill-22" fill="#1D1D1B"></path>
        </g>
    </g>
</svg>