<?xml version="1.0" encoding="UTF-8"?>
<svg width="688px" height="257px" viewBox="0 0 688 257" version="1.1" xmlns="http://www.w3.org/2000/svg" xmlns:xlink="http://www.w3.org/1999/xlink">
    <!-- Generator: Sketch 59.1 (86144) - https://sketch.com -->
    <title>Res / Titre / Merci</title>
    <desc>Created with Sketch.</desc>
    <defs>
        <polygon id="path-1" points="0.795984756 0.478518772 56.9007867 0.478518772 56.9007867 75.4315305 0.795984756 75.4315305"></polygon>
    </defs>
    <g id="Res-/-Titre-/-Merci" stroke="none" stroke-width="1" fill="none" fill-rule="evenodd">
        <g id="Group-32">
            <path d="M205.395227,41.6108826 C193.720234,34.211208 191.295715,34.3558422 183.010386,42.4646912 C182.753946,42.7119691 182.334318,42.8146128 182.096529,43.0758875 C179.984399,45.4133636 180.982182,49.4864505 183.88228,50.4429028 C191.104551,52.8037069 199.277978,49.6264191 205.395227,41.6108826 M218.119291,48.3620359 C217.07022,48.0681018 216.030475,47.7695021 215.149255,47.5222242 C210.169665,52.6077508 205.334614,57.5486433 200.219811,62.7834698 C203.357698,66.8798849 207.516682,68.5128522 211.190761,70.7710126 C214.743614,72.9545232 218.305793,75.1333681 223.546485,78.3386496 C221.345767,72.7305734 219.821117,69.0633954 218.468981,65.3308988 C216.436115,59.7134913 215.284469,54.0307652 217.848864,48.1427517 L217.848864,42.8052815 C215.531583,45.1940794 217.009607,46.761728 218.119291,48.3620359 M295.055818,59.1582825 C293.801595,52.86436 292.46811,47.0836558 291.540265,41.2376329 C290.780271,36.4600372 290.28138,31.6171228 290.085553,26.7928709 C289.875739,21.6140318 292.496085,18.1848005 297.130647,16.6964675 C300.594912,15.5860497 306.278545,18.1568068 308.129572,22.4398467 C310.03655,26.8441927 311.850277,31.5098136 312.437756,36.2174249 C313.976394,48.5253326 316.932442,60.4180001 321.837431,71.7554586 C324.215325,77.2515599 322.56945,81.9591713 320.266156,86.5828016 C318.321878,90.4785949 314.372709,91.3790597 310.763906,89.1768867 C307.257678,87.0400324 303.928626,84.7165532 302.795629,80.2935447 C302.259438,78.2126778 301.084478,76.2904421 299.797618,73.3930915 C297.741439,76.2064609 296.449916,78.6372493 294.547601,80.400854 C292.673261,82.1457962 290.192791,83.2328858 287.954774,84.5812502 C285.404366,86.1162395 282.835308,87.6325662 280.261587,89.1348961 C278.009582,90.4506012 275.87414,92.1068966 273.458945,92.9653708 C259.406058,97.9435882 246.360279,95.3541687 234.209707,87.2079947 C231.510098,85.3977339 229.052941,83.2235546 226.357994,81.1193596 C224.87997,84.7632094 223.644398,87.8051942 222.278274,91.1737724 C217.741626,91.7289813 213.363503,92.5827899 208.971393,92.6574398 C206.952515,92.6947648 204.81241,91.388391 202.90077,90.3712856 C199.674294,88.6636684 196.583032,86.7041077 193.752872,85.0384811 C190.750198,86.5081516 192.074358,88.5143686 191.901844,90.1566671 C191.561479,93.4692579 191.435591,96.8471673 190.68026,100.06178 C189.822353,103.724292 186.796366,105.427244 182.982411,104.746063 C181.178009,104.424136 179.466858,103.598321 177.699756,103.057109 C175.927992,102.511231 174.132915,102.030672 172.59894,101.596769 C171.326068,99.5159024 170.360923,97.4676949 168.976149,95.7507464 C159.03562,83.414845 156.499199,68.9840799 157.077354,53.7181686 C157.301156,47.7648364 158.168388,41.839498 158.345564,35.8861659 C158.46679,31.8970601 160.000765,28.5704724 162.378659,25.7151125 C163.674844,24.1614608 165.814949,22.8784151 167.796527,22.4165186 C172.104711,21.4087445 176.534122,20.8348732 180.944882,20.3869736 C194.676054,18.9966186 206.868589,21.7679973 215.601521,33.6140085 C216.42679,34.7290919 217.592424,35.5875661 219.140387,37.0945617 C221.336442,33.3713963 223.196794,30.2640928 225.015184,27.1334612 C229.971461,18.5953752 238.042313,15.3107781 247.236836,13.995073 C248.682223,13.7851201 250.23951,13.9204231 251.684897,14.2143572 C257.377855,15.3527687 261.933153,18.3667597 265.677171,22.7897683 C269.593702,27.4087329 273.11858,32.107013 271.836382,38.7741852 C266.474465,42.8845971 261.420274,41.5642264 256.482647,38.1956482 C254.039478,36.5300215 251.684897,34.7337575 248.826761,32.6668875 C247.138923,34.3371798 245.329858,35.6202255 244.192199,37.3465052 C240.401557,43.1085469 238.932857,49.7850503 238.531879,56.456888 C238.126238,63.2173726 241.259463,68.7834582 247.4653,72.0260646 C252.878506,74.8487652 258.622752,75.9451861 264.777301,74.6808029 C275.972053,72.3853174 286.052458,68.0042995 295.055818,59.1582825" id="Fill-1" fill="#01B4AD"></path>
            <path d="M27.8313808,38.4359733 C31.9352666,34.3932065 31.3864912,29.7532129 32.1977244,25.5864067 C32.6844644,23.0780537 32.3838309,20.422691 32.9373783,17.9419023 C33.7247517,14.4274517 36.330242,12.2498705 39.8376328,11.2391789 C43.6408852,10.1412002 46.6329042,11.767495 48.828006,14.5606793 C50.1593829,16.2512908 51.1280908,18.3048325 51.8343409,20.3399981 C56.6635647,34.2094444 62.3612853,47.7756832 64.2843853,62.5409699 C65.4153398,71.2191363 68.7079924,79.6170654 70.798111,88.1941625 C71.5711686,91.3640592 72.1342599,94.7131239 71.9720132,97.9427432 C71.7286433,102.876756 67.3336679,105.761822 62.3374255,104.659249 C59.4551615,104.02527 56.6492488,103.078895 52.8412245,101.999292 C51.1471787,95.5538356 49.3481496,88.492776 47.4298216,81.4638747 C45.6021608,74.7703393 43.6504291,68.1089623 41.6748375,61.1535659 C38.2199383,62.9084942 35.4187976,64.8242143 32.3027076,65.7614012 C29.5397426,66.5929248 26.4236525,66.3356578 22.8255945,66.6067069 C22.64426,72.4870949 22.4486096,77.940236 22.3149947,83.393377 C22.2338714,86.8389168 21.7566754,89.9582789 17.8627558,91.5386332 C13.9783802,93.1097993 10.4614454,92.7055227 7.0924415,90.3441794 C3.1412584,87.5739653 0.788681986,83.7884656 0.67415494,79.1806303 C0.282854198,63.41384 -0.0225512586,47.6424557 0.00130854275,31.8756654 C0.0108524633,24.745695 1.26110605,23.6523104 9.39252634,19.9495036 C15.2143179,21.4517589 19.4184149,24.6721902 22.0095893,30.1207371 C23.3743699,32.9920203 25.6983146,35.4498387 27.8313808,38.4359733" id="Fill-3" fill="#01B4AD"></path>
            <path d="M662.281577,22.9940488 C659.019725,21.7496301 656.351794,20.2487281 653.528313,19.8307554 C651.558003,19.5410243 648.710953,20.0919883 647.428838,21.4124021 C645.449101,23.4500191 644.284828,26.3948268 643.134695,29.1068997 C641.890289,32.0279589 642.017558,34.9917654 644.308396,37.5328495 C655.324217,38.7535198 659.269549,35.8182114 662.281577,22.9940488 M648.729808,63.6988909 C649.493421,71.8683574 653.594304,77.5204883 649.813949,83.8803231 C647.919059,84.4550355 645.82148,85.3337281 643.64377,85.704204 C639.58531,86.392909 636.224471,85.2672325 634.287157,81.2204967 C632.990901,78.5084238 631.176142,75.9673398 630.299402,73.1365246 C626.273937,60.112875 622.818825,46.9799826 623.007372,33.1393864 C623.063935,28.7886705 623.80398,25.2026546 626.872572,21.7733785 C630.106142,18.1636143 632.123588,13.4709207 635.206321,9.69491725 C643.525928,-0.478918415 659.707919,-2.04156638 669.550039,6.09940203 C679.411013,14.2641189 681.098503,26.8555467 673.372816,37.4093575 C670.290083,41.6270821 666.448451,45.2748439 662.564397,49.6160605 C664.685543,53.1403303 668.447043,55.0687044 671.426075,57.7285307 C674.230702,60.2316173 677.195594,62.6587088 680.405595,64.5633344 C683.662733,66.4917085 685.189959,69.2037814 685.845157,72.7138022 C686.924585,78.4989244 682.210927,83.1441211 676.361276,81.8712042 C674.570086,81.47698 672.783609,80.6600333 671.232815,79.6578488 C667.447747,77.2117585 663.785234,74.5709309 660.113294,71.9633512 C656.785451,69.6027554 653.509458,67.1756638 648.729808,63.6988909" id="Fill-5" fill="#01B4AD"></path>
            <path d="M129.08157,54.0559758 C127.918233,57.8929478 127.069312,61.0927843 125.955383,64.1840718 C125.488252,65.4725015 124.612381,66.7231751 123.646676,67.6717992 C119.743435,71.5087713 115.732394,75.2230357 111.716861,79.0316907 C112.705023,81.363135 113.073338,82.7884309 113.827935,83.9258359 C116.954122,88.6406392 120.188108,89.829959 124.634839,87.6306613 C127.208553,86.3611097 129.503785,84.4733005 131.983174,82.9724923 C134.134673,81.6651844 136.268206,80.1879738 138.594879,79.3431792 C142.727195,77.85181 146.010589,81.0799636 144.712503,85.4455222 C143.351534,90.0612156 141.824374,94.7052261 139.704316,98.9763942 C135.001561,108.434318 126.292257,112.66773 116.491482,110.204139 C107.377929,107.915171 100.083494,102.836964 96.2072023,93.4026378 C95.2100566,90.9862421 94.0781614,88.6170416 93.332548,86.1251335 C92.312944,82.7270771 90.4938268,80.1171809 87.6865471,78.1632985 C86.5007522,77.337382 85.3688571,76.3604407 84.3896779,75.2749505 C81.8429138,72.4668344 81.1197586,69.1537293 83.2622744,66.0577224 C89.5685474,56.9348847 88.4456355,47.911157 83.7338974,38.6986484 C83.3970238,38.0379152 83.1365083,37.3347063 82.745735,36.4143993 C83.3026992,30.5952277 86.2941364,27.1169393 92.0928533,26.1730348 C104.094535,24.2144328 116.069267,22.0717694 128.039508,26.4892428 C126.27429,31.798706 122.716905,36.4663141 118.732814,38.920466 C115.647052,40.8177142 112.520866,42.6630476 109.551887,44.7490767 C106.313409,47.0286062 106.582908,50.2095646 107.485729,53.9285486 C114.748723,54.5137695 121.567044,48.1329746 129.08157,54.0559758" id="Fill-7" fill="#01B4AD"></path>
            <path d="M298.487296,187.438565 C295.7645,185.503665 293.088407,183.648602 290.365611,186.020264 C288.226605,187.889416 286.6854,190.650875 285.424414,193.271444 C284.429636,195.351932 282.085136,197.507561 284.387603,200.527321 C291.196928,198.60651 295.806533,194.492498 298.487296,187.438565 M274.421143,187.015893 C276.961797,183.53589 278.843935,180.746252 280.936238,178.125683 C285.816721,172.006325 293.985108,169.320007 299.682897,171.827864 C309.808148,176.289406 315.272421,184.70998 313.483689,193.604886 C312.516933,198.418655 310.844959,202.94125 306.436178,205.951617 C303.67602,207.839554 301.242784,210.206519 298.094989,212.827088 C299.491414,214.597616 300.677675,216.32118 302.088111,217.838105 C308.95815,225.239569 315.898244,232.575283 322.805645,239.948569 C324.720476,241.991486 325.411683,244.288006 324.762509,247.166875 C323.809764,251.407688 320.867463,253.553924 316.692198,252.713276 C312.054572,251.783397 308.65458,248.909224 305.525466,245.607683 C301.91998,241.803631 298.412571,237.900956 294.73703,234.167349 C293.527417,232.936903 291.920827,232.091558 290.3516,230.969128 C288.137869,235.332047 289.576327,239.01869 289.543635,242.64428 C289.520284,246.119586 289.216713,249.63716 285.373041,251.06955 C281.398599,252.544207 275.10768,251.083639 273.122795,247.861936 C271.203294,244.748249 269.428572,241.249461 268.765387,237.694316 C266.439568,225.169123 264.613474,212.550003 262.609907,199.959061 C262.376391,198.479708 262.091502,196.986265 262.021447,195.497519 C261.741228,189.443911 264.183805,187.091034 270.71291,187.020589 C271.815105,187.0065 272.91263,187.015893 274.421143,187.015893" id="Fill-9" fill="#01B4AD"></path>
            <path d="M453.460116,33.9561802 C453.432012,30.6831418 450.841718,30.405686 448.90251,29.8978007 C442.513431,28.2001471 436.05409,26.8363811 429.243444,29.4792656 C429.290285,33.8950459 429.950739,37.6994828 432.419247,40.9019816 C440.246338,40.0366955 447.740859,39.6651869 453.460116,33.9561802 M435.403004,57.3706317 C438.958217,69.9125764 440.888056,81.3211844 439.62804,93.4681071 C436.456921,94.9494392 433.187436,96.4683923 430.138102,97.8932927 C423.074516,93.6044837 420.868316,87.4910499 420.081392,79.8492576 C419.121156,70.5662435 416.690121,61.4337139 414.825859,52.2494553 C413.785994,47.1000629 412.188724,42.0306155 411.584478,36.8341967 C410.867815,30.7489788 409.532853,25.2374831 405.509232,20.3138175 C402.689418,16.8573761 403.92133,14.459029 408.366518,12.9353732 C410.132415,12.3334351 411.893627,11.4587438 413.706364,11.3082592 C432.002365,9.7940087 449.586385,12.2252743 465.568452,21.9033103 C468.683362,23.7890695 471.339233,26.6858966 473.671903,29.5498052 C476.786814,33.382458 476.711868,36.85771 473.831162,40.9160895 C471.901322,43.6342162 469.582705,45.7833233 466.477163,47.5515165 C457.235481,52.8043669 447.230295,55.4049276 435.403004,57.3706317" id="Fill-11" fill="#01B4AD"></path>
            <path d="M480.974181,202.047805 C480.887792,203.947438 480.455843,205.818289 480.801402,207.535635 C481.550112,211.267743 483.085928,214.87033 483.594667,218.621627 C484.592947,225.96112 488.931627,226.460013 493.711853,221.960377 C496.178757,219.638602 498.607266,217.120149 498.794444,213.464794 C493.515077,205.659986 491.388932,204.278435 480.974181,202.047805 M459.823118,243.724612 C461.872472,241.086232 464.176196,238.107261 466.955063,234.523862 C466.14876,231.098765 464.972901,227.088428 464.281783,222.99654 C462.448403,212.097633 460.807,201.16035 459.132001,190.23266 C458.964021,189.110149 458.97362,187.939668 459.064809,186.802766 C459.688734,179.017147 465.270465,175.400168 471.543312,179.779879 C476.616304,183.324902 481.847676,182.427853 486.896671,182.634126 C494.714933,182.955529 501.054973,185.939296 506.435127,190.981 C514.594149,198.641896 519.297584,207.928993 517.684978,219.552255 C517.632184,219.931223 517.32982,220.329378 517.406611,220.650781 C519.537556,229.889907 513.735052,234.816482 507.092648,238.946746 C502.264428,241.949702 496.394732,243.542324 492.118445,247.116129 C487.050252,251.351928 481.07017,252.08108 475.31566,253.553776 C472.263226,254.335695 468.442884,253.673702 465.400049,252.517612 C462.098045,251.265581 460.38945,247.974802 459.823118,243.724612" id="Fill-13" fill="#01B4AD"></path>
            <path d="M679.798636,248.096343 C676.61459,247.553815 673.974622,247.524751 671.656371,246.618922 C665.586339,244.24536 660.405757,240.336249 656.053123,235.438962 C652.50478,231.442659 649.334926,227.107275 645.885937,223.014092 C644.774122,221.701367 643.326398,220.684126 641.083845,218.693241 C639.404296,224.719181 639.054193,229.597093 638.481727,234.445941 C638.079581,237.880339 637.597007,241.32927 636.778522,244.676477 C635.993155,247.892895 632.794915,249.530168 629.819038,248.663092 C623.247506,246.754554 619.509918,242.511207 619.112503,235.453494 C618.857023,230.85169 619.017881,226.123942 619.789054,221.589955 C621.601075,210.942835 623.015681,200.310247 622.869016,189.459678 C622.802781,184.601143 628.357121,177.766253 633.111901,176.966993 C635.028006,176.647288 637.970765,177.388421 639.139353,178.788338 C642.261895,182.532753 645.398631,186.320764 647.12076,191.198676 C651.042862,202.301132 658.22944,211.296447 665.908055,219.884866 C666.617724,220.679282 667.753194,221.076491 669.276616,222.025915 C670.024133,220.05925 671.320461,218.325096 671.178528,216.726575 C670.672297,210.991275 669.763922,205.27535 668.817697,199.58849 C668.500711,197.723549 667.398359,196.003927 667.010407,194.134142 C666.272352,190.573799 667.871472,187.216905 670.416817,186.451552 C673.785377,185.443999 677.451999,186.819696 679.22617,189.808447 C679.81283,190.791779 680.394758,191.823552 680.730668,192.908609 C683.110424,200.581511 686.346513,208.138157 687.481982,216.009663 C688.499174,223.101284 688.182189,230.691838 685.045453,237.589699 C683.626116,240.72377 681.979685,243.751272 679.798636,248.096343" id="Fill-15" fill="#01B4AD"></path>
            <path d="M559.366223,189.656066 C558.26896,190.364662 556.873318,191.039743 555.785681,192.045183 C554.683605,193.064987 553.754781,194.328968 552.984772,195.621677 C548.027839,203.98598 550.448555,218.804251 557.821392,225.124159 C560.80999,227.685637 564.125842,229.490642 568.298329,228.451687 C578.93408,225.794453 586.715984,219.493695 591.793232,209.908501 C593.169623,207.30872 592.308176,204.728091 589.709395,202.961389 C588.159752,201.912859 586.412793,201.098931 584.680273,200.356821 C576.662553,196.928749 568.615958,193.558131 559.366223,189.656066 M530,204.239734 C531.126138,192.792082 534.793307,184.849106 544.120042,180.410806 C551.266689,177.011461 558.548088,175.512877 566.296305,178.490895 C569.145339,179.582515 572.105061,180.525714 575.103284,181.05716 C586.97105,183.17816 594.59414,191.173802 601.346158,200.059977 C605.946962,206.116556 607.713171,213.164211 603.978627,220.42253 C600.87934,226.440807 597.505737,232.334601 593.886694,238.046457 C592.731681,239.870613 590.522717,241.14417 588.588069,242.341122 C582.634936,246.01816 576.022483,247.947647 569.135714,248.804665 C562.402946,249.637744 549.21654,244.457334 544.11523,239.166805 C539.832054,234.71893 536.107135,229.835364 534.528616,223.769209 C532.719095,216.779007 531.256077,209.702625 530,204.239734" id="Fill-17" fill="#01B4AD"></path>
            <path d="M349.673409,208.601744 C352.930308,209.10163 356.68009,209.672929 360.429872,210.272792 C365.846761,211.1345 366.093203,211.477279 366.861522,219.242175 C361.956846,223.003222 355.191774,224.655226 351.205215,229.825476 C353.751781,237.342809 354.698891,238.247365 360.386383,237.228549 C363.768918,236.619165 367.0983,235.505133 370.321373,234.286363 C375.482156,232.329667 380.729918,231.71076 386.204793,232.258254 C388.698205,232.505817 391.012826,233.191375 391.597522,235.695566 C392.191881,238.237843 392.515638,241.132421 389.683973,242.903446 C383.22333,246.945381 377.07678,251.687157 370.166743,254.753124 C356.805727,260.689866 340.018686,253.577202 334.384348,242.003651 C331.890937,236.88101 329.803429,231.558414 327.84639,226.216775 C327.237534,224.550488 327.561291,222.508097 327.628942,220.646617 C327.769075,216.861766 328.116993,213.086436 328.208805,209.301585 C328.295784,205.516734 327.923706,202.155595 325.140362,198.75161 C321.45823,194.238353 322.685608,192.71013 327.604781,188.711042 C334.587301,183.040907 342.966324,181.246078 351.335684,180.912821 C357.694851,180.660497 364.184487,182.912365 370.567815,184.259677 C372.631161,184.692911 373.984176,186.521066 373.471963,188.534892 C373.056394,190.158331 371.896668,191.972204 370.509828,192.862477 C368.997352,193.843205 366.803536,193.747989 364.976967,194.33357 C360.946917,195.618991 356.868546,196.828239 352.983462,198.470722 C348.808447,200.232225 347.320131,203.40293 349.673409,208.601744" id="Fill-19" fill="#01B4AD"></path>
            <path d="M164.928458,216.092188 C162.175684,215.032853 159.332421,214.244511 156.784438,212.869839 C154.236455,211.490241 151.983752,209.52924 149.088101,207.454914 C146.540118,209.105506 143.206308,210.154986 141.806108,212.465814 C140.134441,215.195449 139.615319,218.994272 139.50578,222.359508 C139.253363,230.218294 146.082909,235.179922 153.241075,232.248275 C159.818205,229.55313 164.699854,225.05958 164.928458,216.092188 M178.954271,223.25132 C180.00204,240.62441 162.890072,258.376889 143.496826,252.873276 C129.256697,248.828095 121.246029,239.86563 117.107342,226.389907 C111.706571,208.780315 126.889692,189.860103 144.673184,191.205212 C149.540546,191.574747 154.479347,191.303755 159.360997,190.944074 C166.433435,190.411943 170.805488,194.102369 173.953557,200.113478 C177.673136,207.223339 178.682804,214.958946 178.954271,223.25132" id="Fill-21" fill="#01B4AD"></path>
            <path d="M615.96702,59.4920356 C614.91935,64.7888893 614.425449,70.2707435 612.6943,75.3485178 C610.005281,83.2256404 604.582343,87.3881495 595.50254,89.1992061 C583.284716,91.633422 574.504247,87.4709129 566.546946,79.7495801 C551.799749,65.4558645 550.313056,48.8204332 556.269806,32.5793449 C556.668918,31.4936846 557.347409,30.5005245 557.9361,29.4878907 C559.986539,25.9485408 563.378993,25.218276 567.145615,25.4227502 C570.448268,25.5980137 571.685516,27.8959135 572.867886,30.5443404 C574.514224,34.2248748 575.202693,37.9443566 574.678858,41.8975232 C574.324646,44.589766 573.785845,47.2722719 573.566333,49.9839884 C572.857909,58.7569024 577.457677,64.7255997 584.601786,69.1948201 C587.375617,70.9328502 590.982594,70.0662694 593.127822,67.4178425 C595.732029,64.2046775 597.054089,60.4024323 596.121164,56.5076869 C594.58957,50.1251729 592.54412,43.8546328 590.428825,37.632777 C588.937143,33.2317147 586.732048,29.0643371 585.285266,24.6584064 C583.658884,19.7072113 584.492031,16.8786524 587.305772,15.3012806 C591.306872,13.0569335 596.151097,13.524303 599.498651,16.4989148 C600.082353,17.0149685 600.636121,17.5943119 601.105078,18.2126027 C608.114487,27.3311754 616.595622,44.9889774 615.96702,59.4920356" id="Fill-23" fill="#01B4AD"></path>
            <path d="M529.037571,48.9319009 C526.525069,47.0954695 524.38245,44.8748867 521.802286,43.811443 C518.888324,42.6168257 515.572903,42.527815 512.455956,41.8344684 C511.824448,41.6939252 511.364348,40.8834593 510.728329,40.5976881 C508.197783,39.4358642 506.307768,40.185428 505.987502,42.5090759 C505.094369,48.8616293 505.256757,55.1626502 508.188762,60.9998785 C511.801894,68.1863216 519.082287,71.6062066 526.326595,69.1794937 C532.6913,67.0526064 537.630601,62.7519839 540.752058,56.5306042 C543.079619,51.8833085 542.267679,49.8220079 536.850237,45.6338201 C534.360288,46.6878942 531.744037,47.7888161 529.037571,48.9319009 M551.844058,57.7626997 C551.699713,60.7937484 551.690692,62.6723428 551.514772,64.532198 C550.40061,76.3612521 544.094544,83.4399455 532.659725,85.7167456 C530.53966,86.1336905 528.320358,86.2086469 526.285998,86.8832543 C509.645742,92.3550702 491.147047,74.5763533 489.257032,58.0765796 C487.200118,40.1385803 497.660609,28.5765583 514.467763,25.0957713 C515.505241,24.8802717 516.673532,24.7959457 517.683946,25.0489235 C529.366858,28.0143854 539.998759,32.7788005 547.576864,43.1883681 C551.050162,47.9668375 552.507142,53.0685563 551.844058,57.7626997" id="Fill-25" fill="#01B4AD"></path>
            <g id="Group-29" transform="translate(50.000000, 180.893293)">
                <mask id="mask-2" fill="white">
                    <use xlink:href="#path-1"></use>
                </mask>
                <g id="Clip-28"></g>
                <path d="M6.96621086,0.478518772 C12.7032662,4.09923224 16.2261027,8.51669124 18.3217874,14.504069 C20.9010917,21.896359 24.2484975,29.0293531 27.1596975,36.020913 C29.9665875,36.4216431 29.6868467,34.3991351 30.3032246,33.3808095 C31.0713262,32.1173313 31.4790839,30.6322731 32.0907204,29.2603621 C34.8407139,23.098549 37.3062253,16.7905872 40.4355282,10.8220674 C44.8781901,2.34544915 47.2299087,1.96357703 56.6035934,7.34750252 C57.4048846,12.7738582 56.5135074,18.0493509 54.7971321,23.569996 C51.459209,34.2907023 48.3583543,45.1009835 47.1113745,56.3827118 C46.589824,61.1113259 44.5984494,65.8022242 42.5881093,70.1961108 C41.5781979,72.3977686 39.0178591,73.8922558 37.4532077,75.4197443 C27.539007,75.7544717 22.4183295,69.6162309 18.7627347,62.5398105 C10.8162017,47.1376349 4.92268122,30.9104269 1.13432811,13.9760483 C-0.0652380139,8.62512407 1.93561932,4.47167542 6.96621086,0.478518772" id="Fill-27" fill="#01B4AD" mask="url(#mask-2)"></path>
            </g>
            <path d="M209.282101,207.114092 C205.03693,206.175094 201.494752,205.424839 197.975251,204.589649 C196.569264,204.259348 195.13153,203.900736 193.848001,203.259008 C191.040564,201.857588 188.382796,196.737923 189.126608,193.831275 C189.806924,191.174712 191.444218,189.273122 194.238048,188.574771 C207.245689,185.34254 220.2624,182.17637 233.206545,178.689336 C237.614992,177.504971 241.810274,177.70787 246.055445,178.863923 C250.64531,180.114348 252.473092,183.299393 251.897091,187.918888 C244.980546,194.104953 236.694298,196.789828 228.861594,199.965436 C227.156268,203.683681 228.290128,206.915911 229.519232,209.997147 C230.902541,213.479463 232.33574,217.004246 234.276908,220.156261 C239.179719,228.116514 239.801074,237.095982 240.426964,246.080168 C240.798871,251.360264 237.243086,254.625525 232.231425,253.752587 C227.745876,252.97402 223.895287,251.152647 222.543726,245.966922 C221.877017,243.423604 220.634306,241.012407 220.230652,238.445497 C218.507185,227.507817 214.048848,217.669567 209.282101,207.114092" id="Fill-30" fill="#01B4AD"></path>
        </g>
    </g>
</svg>