<?xml version="1.0" encoding="UTF-8"?>
<svg width="530px" height="178px" viewBox="0 0 530 178" version="1.1" xmlns="http://www.w3.org/2000/svg" xmlns:xlink="http://www.w3.org/1999/xlink">
    <!-- Generator: Sketch 59.1 (86144) - https://sketch.com -->
    <title>Res / Button / Je Participe / BlueGreen</title>
    <desc>Created with Sketch.</desc>
    <defs>
        <polygon id="path-1" points="0.504543825 0.594616268 62.5607155 0.594616268 62.5607155 42 0.504543825 42"></polygon>
    </defs>
    <g id="Res-/-Button-/-Je-Participe-/-BlueGreen" stroke="none" stroke-width="1" fill="none" fill-rule="evenodd">
        <g id="Group-5">
            <g id="Group-27" transform="translate(83.000000, 63.000000)">
                <g id="Group-3" transform="translate(104.895833, 9.000000)">
                    <mask id="mask-2" fill="white">
                        <use xlink:href="#path-1"></use>
                    </mask>
                    <g id="Clip-2"></g>
                    <path d="M46.2080225,25.4243797 C45.6240337,21.4906169 45.6240337,21.4906169 43.9336517,19.4981085 C43.2562247,21.1382441 42.5257079,22.6053966 42.6637416,24.2711593 C42.7019663,24.7473966 43.3666517,25.3709898 43.8763146,25.5503797 C44.430573,25.7468542 45.1377303,25.5076678 46.2080225,25.4243797 M14.1141236,11.389261 C14.6705056,12.9503797 15.035764,13.9754644 15.4222584,15.0646169 C18.1510787,14.1527186 20.8544157,14.0160407 22.973764,11.6305831 C19.971,10.4282441 17.4078202,10.586278 14.1141236,11.389261 M50.0050112,34.0116 C48.9729438,34.0116 47.9621124,33.9283119 46.9661461,34.0244136 C44.6132022,34.252922 42.2687528,34.5625831 39.7629101,34.8594305 C39.3127079,36.2518373 38.8964831,37.5182441 38.4951236,38.788922 C37.9578539,40.495261 36.6773258,41.1786508 35.0294157,41.2939729 C31.2430449,41.560922 28.6926067,39.2074983 29.1725393,35.4573966 C29.8627079,30.0586169 30.0453371,24.5530576 31.9395843,19.3550237 C32.1031011,18.9065492 32.0606292,18.3833288 32.1476966,17.5910237 C30.387236,17.6145153 29.4464831,18.9044136 28.2275393,19.5835322 C26.8917978,20.3245831 25.5390674,21.0464136 24.150236,21.6764136 C22.9206742,22.235939 21.6231573,22.6352949 20.3681124,23.1392949 C18.9644157,23.7009559 17.5755843,24.3031932 16.1591461,24.8947525 C15.6558539,30.0287186 17.7008764,34.7398373 17.8601461,39.8353627 C16.7771124,40.2411254 15.8788315,40.7344475 14.9253371,40.9052949 C12.211382,41.3964814 10.1281348,40.369261 9.23622472,37.8214983 C8.51207865,35.7499729 8.03426966,33.5417695 7.78580899,31.354922 C7.09564045,25.2535322 6.57960674,19.1307864 5.99349438,13.0144475 C5.89580899,12.0043119 5.79175281,10.9920407 5.67283146,9.77902373 C4.73632584,9.35617627 3.78495506,9.0315661 2.94613483,8.52329492 C0.852269663,7.25261695 0.0474269663,5.05722712 0.756707865,2.8255322 C1.16231461,1.54417627 2.5362809,0.457159322 3.81893258,0.608786441 C11.2260337,1.48865085 18.626764,2.4176339 26.0274944,3.33380339 C26.3630225,3.37651525 26.6985506,3.45126102 27.0255843,3.54309153 C29.3891461,4.19871864 31.4384157,5.23448136 32.5660449,7.63702373 C33.1372921,8.85858305 33.9400112,9.96909153 34.8276742,11.4426508 C35.4413933,10.7400407 36.0975843,10.1100407 36.6072472,9.3775322 C37.9684719,7.4256 39.8542247,6.53932881 42.1455843,6.1335661 C44.562236,5.70431186 46.3226966,6.40265085 48.0364382,8.1816 C51.2982809,11.572922 53.6384831,15.3849559 54.7533708,19.9892949 C55.9255955,24.8370915 58.0258315,29.2876678 60.7079326,33.4777017 C62.5405955,36.3500746 62.6127978,36.8305831 62.5448427,40.9074305 C61.0455843,41.2726169 59.6418876,42.5155322 57.8453258,41.7616678 C56.1358315,41.0441085 54.3987303,40.3607186 53.313573,38.6372949 C52.3239775,37.0633627 51.156,35.6047525 50.0050112,34.0116" id="Fill-1" fill="#01B4AD" mask="url(#mask-2)"></path>
                </g>
                <path d="M273.026372,12.9115568 C271.014652,12.9864763 269.762112,13.4338531 268.92425,14.6475499 C267.186856,17.1541441 265.168757,19.5087587 264.709421,22.7153157 C264.592461,23.5437119 264.328768,24.4384655 263.860926,25.1106009 C261.54511,28.4306075 261.806676,32.2686293 261.700348,35.9846392 C261.59402,39.8012554 263.033697,41.1690724 266.702002,41.7513044 C269.506926,42.1944001 272.128966,41.5993247 274.68721,40.6767439 C277.239074,39.7541631 279.695243,38.5597314 282.217336,37.5493876 C283.990881,36.8387221 285.724022,37.8704714 285.864375,39.7926932 C285.987715,41.4922968 285.798452,43.0420613 284.384294,44.4398462 C280.726622,48.044547 276.488401,50.2065114 271.399558,50.81443 C264.871039,51.5978745 259.310102,49.9689093 255.099526,44.6217937 C254.470067,43.8233652 253.738532,43.1105592 252.807102,42.0873721 C253.045276,44.4655329 253.253678,46.5418748 253.440815,48.4170043 C252.398803,50.1893869 250.884697,50.5297357 249.33444,50.266447 C247.086673,49.8854275 245.128117,48.7423692 243.939374,46.7559307 C243.167435,45.4630332 242.661315,43.9539393 242.299801,42.4790944 C241.487458,39.16765 240.88139,35.8026917 240.113704,32.4805446 C239.269463,28.8244703 238.442233,25.1855205 236.532588,21.85053 C235.146076,19.4252769 236.126417,16.8758715 238.480511,15.8719495 C239.058934,15.6279258 239.971225,15.4331349 240.413548,15.7178292 C243.075993,17.4238545 246.180761,18.6803625 247.090926,22.2765012 C247.803322,25.0827736 248.739005,27.8291105 249.547095,30.6096963 C250.253111,33.0285276 250.474273,35.6100414 252.141491,38.4484223 C252.041543,32.6860382 252.921936,27.7220825 254.52323,22.8822793 C255.763011,19.1384421 257.062335,15.3839021 259.707768,12.3956821 C261.379239,10.5055688 263.390958,8.91085251 265.315489,7.25406006 C266.861493,5.92477309 268.769012,5.78991789 270.631873,6.21588908 C275.076369,7.23051391 278.806344,9.45241386 281.490054,13.2540462 C282.340676,14.4634618 281.960023,16.0431942 280.684091,16.7752652 C278.87652,17.8091551 276.450123,17.4324168 275.150799,15.8462628 C274.410758,14.9450875 273.774919,13.9540089 273.026372,12.9115568" id="Fill-4" fill="#01B4AD"></path>
                <path d="M175.356991,22.1697563 C175.458909,24.6539023 175.63302,24.8900786 176.983441,24.4756965 C177.618308,24.2824613 178.293519,24.0570202 178.803111,23.6533733 C179.11099,23.4107558 179.132223,22.7988443 179.344554,22.1697563 L175.356991,22.1697563 Z M179.520788,40.2501308 C180.136546,43.7240705 180.605795,46.3670987 181.045319,48.8405094 C180.011271,50.493744 178.548315,51.0820378 176.991934,50.8694791 C174.894111,50.5839204 172.987385,49.2591857 172.082858,47.5372453 C169.156947,41.9613359 165.596168,36.6280441 164.28609,30.3156939 C163.61725,27.09296 163.908142,23.827285 164.411365,20.5895217 C165.01226,16.707641 167.445565,14.4918773 171.014837,13.6695541 C173.297387,13.145672 175.711583,13.1800249 178.070572,13.0254367 C183.003004,12.7055251 186.370563,15.4408769 189.12024,19.1059047 C189.761477,19.9647278 190.099082,21.381786 189.952574,22.4531679 C189.519421,25.572843 188.447153,28.4456065 185.485145,30.1374881 C184.911854,30.4638409 184.406507,30.910429 183.487117,31.5824581 C185.117814,32.61734 186.502207,33.4589867 187.848381,34.3586039 C191.239296,36.621603 194.638704,38.8760137 197.987152,41.2012774 C200.681623,43.075659 202.242251,45.5963049 201.83033,49.269921 C201.021352,50.9725379 199.154969,51.1765084 197.570985,50.8952438 C195.127063,50.4636852 192.625813,49.9526854 190.704224,47.970951 C187.716737,44.8877758 184.166574,42.5818357 179.520788,40.2501308 L179.520788,40.2501308 Z" id="Fill-6" fill="#01B4AD"></path>
                <path d="M7.40009337,29.966682 C9.81202705,30.5210493 11.7032757,30.7436362 13.4202454,31.3987976 C16.3657737,32.5159317 18.721766,31.577287 21.0390297,29.9225846 C23.4875404,28.1733876 25.1442656,25.9055213 25.9790829,23.0727882 C26.4847069,21.3529895 26.2781541,19.7654831 24.9484708,18.4068631 C22.4655346,15.8723125 19.9998111,13.3251626 17.3791731,10.6310213 C14.8402956,10.7801126 12.2863569,10.9712013 9.73026659,11.0740952 C4.58581215,11.2777832 2.59559034,9.79947035 0.895833333,4.5938771 C1.68331569,2.97907225 2.97642197,2.06352621 4.84400309,1.85353858 C13.5364313,0.877096118 22.21595,-0.246337681 30.9987451,0.0476449951 C31.1708724,0.0518447476 31.3429997,0.0581443764 31.515127,0.0602442526 C34.1744936,0.0833428915 36.0614391,1.37686667 37.3889708,3.52713996 C38.5874071,5.46742562 37.3846676,7.01503443 36.614398,8.5479441 C34.1766452,9.79947035 31.3537576,8.7600316 28.9396724,10.3328389 C29.367839,10.9649017 29.6970324,11.5276685 30.1036832,12.0337387 C30.9492585,13.0857767 31.9131713,14.0559195 32.6898957,15.1499551 C38.5809523,23.4549657 36.0549843,30.8024327 27.1775192,36.2180136 C23.9243134,38.2023966 20.1073907,38.723166 16.3248935,38.9751511 C13.4912479,39.16414 10.8792163,38.2653929 8.64801624,36.6106904 C7.74004477,35.93873 6.84498286,34.8677931 6.60400465,33.834654 C6.37593599,32.8435124 7.00635219,31.6675817 7.40009337,29.966682" id="Fill-10" fill="#01B4AD"></path>
                <path d="M325.855982,17.0626817 C323.889693,14.0595147 321.504463,13.9397303 318.910815,14.418868 C317.603464,14.6605759 316.243483,14.7183291 315.357179,15.9953168 C314.232984,17.6145457 313.776148,19.2829719 314.605611,21.4369527 C318.748712,21.0818774 322.546554,20.3738659 325.855982,17.0626817 M316.308745,30.4977899 C317.651884,35.7961123 320.355005,40.1896344 319.668699,45.2120248 C318.453979,46.5210976 317.02663,47.4537051 315.534019,46.7692225 C313.750886,45.9499825 312.169855,44.6387707 310.588824,43.4195363 C310.094094,43.0409319 309.793045,42.3115302 309.563575,41.6805229 C308.456222,38.6409928 307.041504,35.6549378 306.409934,32.5127353 C305.304686,27.0069292 304.597327,21.4155627 303.929968,15.8348912 C303.757339,14.3889219 304.277332,12.8274462 304.641537,11.3600868 C304.791009,10.7547476 305.24995,9.99753884 305.769943,9.76010897 C308.342539,8.58365466 310.919346,7.33019607 313.618256,6.54090218 C316.542426,5.68529904 319.586595,6.01256724 322.622342,6.3826156 C327.887533,7.02431795 331.733796,9.39861665 333.973765,14.4552312 C335.388483,17.6487699 335.287431,20.3503368 332.883254,22.8337249 C329.876979,25.9395642 326.279134,28.0828501 322.091823,29.1331029 C320.312901,29.5780166 318.525557,29.975872 316.308745,30.4977899" id="Fill-12" fill="#01B4AD"></path>
                <path d="M363.274309,10.4924446 C363.784236,11.9016821 364.287762,13.2940928 364.895833,14.9767645 C362.60863,16.4028287 360.6564,17.9740233 357.69285,18.0728802 C354.848781,18.1696338 352.032449,18.9710062 349.322796,19.4421543 C348.358416,21.1668927 348.377618,22.5466834 349.33133,24.0190211 C352.188201,24.3134886 354.970396,22.6644704 358.170773,23.6635567 C358.731906,24.8077734 359.380516,26.1328773 360.022725,27.4432578 C358.761776,30.8801146 355.843032,31.7466904 352.815475,32.4471025 C351.671873,32.7100199 350.498401,32.8677704 349.367601,33.1790647 C348.571774,33.3999153 347.829287,33.7974465 346.89691,34.1865643 C346.841437,35.2529574 346.619544,36.2499404 346.777429,37.1817198 C347.052662,38.843358 347.940233,39.52484 349.589494,39.4596365 C350.773634,39.4154663 351.959907,39.2324758 353.122711,39.0032118 C355.458987,38.5404771 357.767526,37.9431287 360.110202,37.5245641 C361.070315,37.3520903 362.090169,37.4951173 363.169763,37.4951173 C363.406591,38.063019 363.624217,38.4815836 363.7629,38.9232849 C365.077188,43.1110339 364.714479,44.2194938 360.692671,45.9547489 C358.06196,47.0905522 355.269098,47.9529214 352.469834,48.6112667 C345.153771,50.3360051 338.735947,46.1840129 337.359785,38.8833214 C336.990675,36.916699 336.815721,34.8575296 336.930934,32.8635637 C337.319247,26.1118439 338.808489,19.570458 341.426398,13.3151262 C341.774172,12.4843071 342.638274,11.6955548 343.466105,11.2727836 C344.49236,10.7469487 345.719171,10.4125177 346.877708,10.3620376 C351.642003,10.1580136 356.412699,10.0717767 361.181262,10 C361.829872,9.98974646 362.484882,10.296834 363.274309,10.4924446" id="Fill-14" fill="#01B4AD"></path>
                <path d="M70.2743087,5.4924446 C70.7842355,6.90168208 71.2877616,8.29409284 71.8958333,9.97676446 C69.6086302,11.4028287 67.6563999,12.9740233 64.6928502,13.0728802 C61.8487814,13.1696338 59.0324491,13.9710062 56.3227961,14.4421543 C55.3584157,16.1668927 55.3776179,17.5466834 56.3313304,19.0190211 C59.1882008,19.3134886 61.9703957,17.6644704 65.1707733,18.6635567 C65.7319061,19.8077734 66.380516,21.1328773 67.0227251,22.4432578 C65.7617763,25.8801146 62.843032,26.7466904 59.8154748,27.4471025 C58.6718732,27.7100199 57.4984015,27.8677704 56.3676014,28.1790647 C55.5717742,28.3999153 54.8292866,28.7974465 53.8969099,29.1865643 C53.8414367,30.2529574 53.6195439,31.2499404 53.7774292,32.1817198 C54.0526616,33.843358 54.940233,34.52484 56.5894942,34.4596365 C57.7736339,34.4154663 58.9599072,34.2324758 60.1227111,34.0032118 C62.4589867,33.5404771 64.7675257,32.9431287 67.1102021,32.5245641 C68.0703154,32.3520903 69.090169,32.4951173 70.169763,32.4951173 C70.406591,33.063019 70.6242166,33.4815836 70.7628997,33.9232849 C72.0771881,38.1110339 71.7144786,39.2194938 67.6926708,40.9547489 C65.0619604,42.0905522 62.2690976,42.9529214 59.469834,43.6112667 C52.1537709,45.3360051 45.7359471,41.1840129 44.3597848,33.8833214 C43.9906746,31.916699 43.8157206,29.8575296 43.9309342,27.8635637 C44.3192467,21.1118439 45.808489,14.570458 48.4263979,8.31512624 C48.7741722,7.48430713 49.6382742,6.69555481 50.4661052,6.27278357 C51.4923596,5.74694869 52.719171,5.4125177 53.8777077,5.36203755 C58.6420031,5.15801362 63.4126992,5.0717767 68.1812618,5 C68.8298716,4.98974646 69.4848822,5.29683403 70.2743087,5.4924446" id="Fill-14" fill="#01B4AD"></path>
                <path d="M228.864153,48.421569 C223.940425,49.8957765 220.417949,48.5513333 218.449317,44.3967486 C216.628978,40.5612565 215.0343,36.6151456 213.325717,32.7243441 C211.890077,29.4589639 210.475929,26.1829474 208.956471,22.9516037 C208.462164,21.9007257 207.669124,20.9881211 206.906171,19.854279 C205.358775,19.7840786 203.824274,19.8330061 202.324159,19.6181505 C200.645664,19.3798947 198.934932,19.0756932 197.359597,18.4843084 C195.681102,17.8546325 194.744067,15.9932594 194.916,14.4041787 C195.105126,12.6619335 196.293613,11.2579264 198.096759,10.8069423 C198.917739,10.6027231 199.790298,10.5240136 200.643515,10.504868 C209.051035,10.3155398 217.458554,10.1389753 225.868222,10.0007018 C226.882627,9.98581084 227.901329,10.2113029 229.137097,10.3517036 C229.373505,12.7725522 233.164625,13.8532122 231.453893,17.0420102 C227.355442,19.5224227 222.416669,18.2481799 217.894834,19.8670427 C218.301025,20.9796119 218.580416,21.9432714 218.995204,22.8452396 C221.911616,29.1760352 224.82373,35.5132128 227.808915,41.8163537 C228.771739,43.8479095 229.233809,45.9007381 228.864153,48.421569" id="Fill-16" fill="#01B4AD"></path>
                <path d="M298.895833,46.1888222 C297.467182,47.906016 296.102597,48.2180374 294.748688,47.8780416 C293.467387,47.5552609 292.132698,47.0302041 291.099115,46.2318597 C289.612806,45.0827601 288.562138,43.5463236 287.987688,41.6311577 C285.386647,32.9720253 284.558072,24.1192246 285.015069,15.1308558 C285.175232,11.9998823 286.450127,10.2374992 288.421195,10.0244639 C290.938952,9.75332808 292.019516,11.7889989 292.995441,13.5018888 C293.723647,14.7779489 294.037566,16.404764 294.155019,17.9067705 C294.763637,25.7976846 295.978737,33.5723976 298.077936,41.2093908 C298.526391,42.8405096 298.637438,44.564159 298.895833,46.1888222" id="Fill-20" fill="#01B4AD"></path>
            </g>
            <path d="M356.691871,32.7325861 C356.746598,32.4269482 356.799991,32.1213103 356.854718,31.816857 L347.656557,30.6049671 C347.613843,30.8513729 347.569795,31.096594 347.525746,31.3429998 C350.581121,31.8061952 353.636496,32.268206 356.691871,32.7325861 M74.7657782,133.712748 C74.6589936,133.991139 74.5535438,134.268345 74.448094,134.546737 C77.0442952,135.367694 79.6404964,136.187467 82.2380324,137.00724 L82.6331355,135.949354 C80.0102381,135.204214 77.3873408,134.457888 74.7657782,133.712748 M85.0371243,136.949193 C84.9944105,137.289185 84.9503618,137.627993 84.907648,137.967986 C88.2993946,138.670479 91.6898065,139.372973 95.0802183,140.074281 C95.1296062,139.874077 95.1803289,139.672687 95.2297168,139.473667 C91.8326309,138.632571 88.4342102,137.790289 85.0371243,136.949193 M211.584914,154.01753 C211.580909,154.377662 211.57557,154.736609 211.571566,155.09674 C215.499905,155.469903 219.428245,155.843065 223.355249,156.216228 C223.395293,155.867943 223.436672,155.518473 223.476717,155.170188 C219.513672,154.786364 215.547958,154.401355 211.584914,154.01753 M226.120971,155.155972 C226.111627,155.644045 226.103618,156.132118 226.094275,156.620191 C230.457762,156.845274 234.819913,157.067986 239.1834,157.293069 L239.25281,156.158181 C234.874641,155.822927 230.497806,155.490042 226.120971,155.155972 M313.065013,159.211006 L313.054334,158.033471 L285.680096,158.033471 C286.916128,158.642377 288.188199,158.88049 289.466945,158.91603 C294.29895,159.049894 299.133623,159.137558 303.968297,159.202713 C306.999646,159.242991 310.033664,159.211006 313.065013,159.211006 M25.2550868,113.599877 C28.2463911,119.136899 39.3279656,125.601497 43.4258256,124.729599 C37.3497804,121.007451 31.303101,117.304256 25.2550868,113.599877 M206.595402,154.826642 C206.640786,154.442817 206.684834,154.060178 206.730218,153.677538 C195.84486,152.317568 184.920793,151.329575 173.917972,151.105678 C179.255869,152.25952 184.635144,153.025984 190.042451,153.557889 C195.544528,154.100455 201.075972,154.413201 206.595402,154.826642 M241.58205,156.220967 C241.563363,156.748133 241.544675,157.274114 241.525988,157.80128 C255.214442,158.162597 268.901561,158.525097 282.59135,158.886414 L282.631394,157.772849 C268.94828,157.25516 255.265165,156.738656 241.58205,156.220967 M412.50419,47.6105187 C412.376049,47.8770634 412.245238,48.1447927 412.115761,48.4125221 C423.751281,52.8501951 435.388135,57.2890527 447.807187,62.0264405 C444.929342,58.1064565 418.965995,47.9031255 412.50419,47.6105187 M367.417052,41.3271717 C377.461481,40.7810513 386.447407,44.7401285 395.916534,46.5218317 C396.016644,46.2256709 396.116755,45.9283255 396.2182,45.6309801 C389.824471,43.8030758 383.432076,41.9739869 377.039681,40.1460826 C377.242572,39.6082546 377.446798,39.0704266 377.649689,38.5325987 C388.660518,41.6422868 399.671348,44.7531595 410.683512,47.8640323 C410.77161,47.6117033 410.858372,47.3581897 410.94647,47.1058607 C394.895406,39.8712454 377.528221,36.2640072 360.337231,32.1734346 C360.182394,32.5454125 360.027556,32.9150211 359.871383,33.2869991 L369.714256,36.6288772 C362.645114,35.7261792 355.664069,34.6256458 348.711055,33.4090173 C338.1901,31.5692666 327.751903,29.2461815 317.158868,27.8696262 C305.531357,26.3592063 293.767696,25.6673747 282.060097,24.663982 C278.106396,24.3263587 274.134008,24.159324 270.176303,23.8619786 C260.037103,23.1002531 249.912585,22.1572772 239.761372,21.5957564 C234.763852,21.3185499 229.718278,21.7852993 224.692727,21.8042536 C213.968881,21.8457161 203.239695,21.6312957 192.523858,21.8871786 C186.808211,22.0234126 181.127269,23.0481288 175.410287,23.4402457 C168.806993,23.893964 162.151641,23.8406551 155.573708,24.464962 C147.78377,25.2053639 140.00184,26.2028334 132.305339,27.5012022 C120.344126,29.5174647 108.450988,31.8630581 96.5431677,34.1221724 C94.7812214,34.4562418 93.0913547,35.0888412 91.3681178,35.584022 C91.4148361,35.8126581 91.4615543,36.0401096 91.5096074,36.2675611 C95.4392816,36.0128628 99.3689558,35.7581646 103.299965,35.5022816 L103.426772,36.5637219 C98.6668469,37.6607014 93.8828957,38.6794944 89.1536716,39.8665068 C73.7846945,43.7296279 59.1018085,48.9681197 45.2731996,56.1991811 C36.2498988,60.9164299 28.4546212,66.3077406 22.9952572,74.5528565 C18.516977,81.3171686 19.4967259,87.7071334 22.5787972,94.0722207 C26.3109198,101.783063 34.3437932,106.104641 41.6425224,110.756734 C50.6578143,116.504622 60.5380618,120.984942 71.0483385,124.184663 C84.3697204,128.240881 97.6216924,132.621692 111.227388,135.760996 C126.903371,139.376526 142.918396,141.846507 158.811952,144.701497 C167.000998,146.171639 175.239432,147.438023 183.475196,148.69019 C185.082305,148.934227 186.788189,148.604896 188.442016,148.679529 C191.418637,148.814578 194.399263,148.986351 197.361202,149.27422 C200.026813,149.533656 202.665728,149.998036 205.324665,150.31789 C206.728883,150.484925 208.154458,150.506248 209.56268,150.648405 C213.281455,151.023937 216.990885,151.474102 220.714999,151.798694 C222.260707,151.932559 223.841119,151.725246 225.390831,151.838972 C230.419052,152.205027 235.43259,152.771286 240.46615,153.030723 C248.612483,153.450086 256.774832,153.630152 264.922499,154.016346 C273.429229,154.419124 281.922612,155.215205 290.432011,155.343146 C299.080231,155.473457 307.743134,155.071863 316.395358,154.768594 C323.868947,154.505603 331.341201,154.120594 338.802777,153.634891 C340.825011,153.502211 343.0181,152.118548 344.749346,152.54265 C347.178696,153.13971 348.941977,153.22145 350.749307,151.628105 C350.982898,151.421977 351.763761,151.669568 352.278997,151.758416 C353.489667,151.962175 354.731038,152.494079 355.890986,152.370877 C362.041781,151.726431 368.195245,151.052369 374.301991,150.144932 C387.073432,148.247134 399.911613,146.579156 412.541565,144.092591 C423.532372,141.928248 434.342981,138.96664 445.106871,135.997924 C456.706351,132.799388 468.231082,129.360369 479.647693,125.685606 C487.505706,123.156393 494.851154,119.633265 500.544109,113.976594 C501.523858,113.002817 502.650436,111.603754 502.595145,110.445173 C502.378135,106.018162 501.212848,101.787801 497.578166,98.4091991 C495.866943,96.8205927 494.271847,95.130107 492.355063,93.2157238 C493.452275,93.3946049 494.04493,93.4917456 495.151486,93.672996 C456.801122,67.3052101 413.561358,51.5269487 367.417052,41.3271717 M250.518588,159.79385 C246.590249,159.361455 242.561799,159.573507 238.578732,159.622077 C237.314669,159.637477 236.065289,160.155166 234.795887,160.212029 C233.882878,160.253492 232.823041,160.104227 232.046183,159.705002 C229.950535,158.628161 228.249989,157.649646 225.946111,159.803327 C225.059799,160.630208 222.581061,160.113704 220.361275,160.235722 C220.921894,159.367379 221.16216,158.996585 221.136799,159.034494 C218.723466,159.034494 216.035163,159.208636 213.396248,158.966969 C211.937303,158.83192 210.585143,157.629507 209.140881,157.551321 C203.808324,157.264637 198.446401,157.398502 193.117848,157.086941 C187.188631,156.73984 181.292785,155.960345 175.364904,155.588367 C170.039021,155.254298 164.687776,155.218759 159.348545,155.051724 C158.20061,157.432856 155.970146,155.403563 153.93056,156.472111 C154.284284,155.370393 154.468488,154.795841 154.463148,154.814795 C122.473144,148.79207 90.4284131,142.759867 58.3850167,136.727665 C58.2461967,136.9255 58.1073767,137.12452 57.9685567,137.322355 C59.2406286,137.996417 60.4246031,138.928731 61.8007899,139.301894 C68.7671519,141.192584 75.8176068,142.845161 82.7679511,144.783238 C85.3508042,145.503501 87.7401102,146.775807 90.5325281,147.923726 C90.6139514,147.137123 90.6620045,146.662081 90.7380885,145.926418 C92.5814581,146.204809 94.402136,146.479646 97.0503947,146.878871 C95.7276001,147.487778 95.0989056,147.775646 94.4688764,148.064699 C97.5309255,148.412984 100.427458,150.794117 103.635002,148.494724 C103.935333,148.279119 105.507737,148.794439 105.545112,149.069276 C105.837434,151.232435 107.843651,151.048815 109.317278,151.186233 C112.771761,151.509641 116.256944,151.565319 119.731449,151.718138 C119.949023,151.7288 120.223993,151.570058 120.382835,151.643506 C130.953178,156.481588 142.951766,154.869289 154.568598,157.654385 C153.85848,158.196951 153.360597,158.887598 152.937463,158.853244 C148.840938,158.51799 144.740408,158.149566 140.670579,157.617661 C132.61101,156.563328 124.528748,155.583629 116.529245,154.233135 C106.703725,152.57582 96.9409404,150.627082 87.1754865,148.702037 C78.6901132,147.028136 70.0779332,145.665797 61.8128032,143.348635 C51.1370103,140.355042 40.3157234,137.693149 30.4181235,132.650123 C21.3240778,128.016984 13.2645083,122.776123 7.91860296,114.508499 C4.05433435,108.531974 2.36580246,102.227304 3.21474023,95.5245932 C4.13842724,88.2153453 5.51461409,80.9392674 7.01627288,73.7010981 C8.63405995,65.9085159 13.8237927,59.87039 20.1160768,54.5620043 C29.5918774,46.5668481 40.6961436,40.5535998 52.4397828,35.7783035 C63.0595137,31.4626487 74.2478728,28.182372 85.3628175,24.9210496 C91.8499834,23.0173281 98.8083366,22.3965751 105.331542,20.5698555 C113.901008,18.1697686 123.02442,18.7881523 131.50045,16.3880654 C138.899289,14.294801 146.415592,14.0543185 154.053362,13.8884684 C158.328752,13.7960663 162.556088,12.5012514 166.843491,12.2358913 C178.975559,11.4871969 191.120975,10.8510436 203.271731,10.4376031 C213.48568,10.089318 223.718317,9.92228337 233.93894,10.0348245 C241.853016,10.1224881 249.772431,10.6378078 257.669154,11.1910361 C273.022113,12.2678767 288.369733,13.4264576 303.70534,14.7046875 C312.615182,15.4462741 321.480976,16.6380251 330.394822,17.3499956 C338.790764,18.0205035 347.222745,18.3131104 355.637373,18.8047373 C357.966613,18.9409712 360.3092,19.0854977 362.607739,19.4278595 C364.946323,19.77496 368.810591,24.1913094 368.388792,27.4265697 C368.237959,28.5733042 368.016381,29.7141155 367.782789,31.1285794 C372.39722,32.2575442 376.90887,33.2561983 381.347106,34.4669036 C390.036705,36.8373744 398.730308,39.2090299 407.341154,41.7962904 C415.235207,44.1679459 423.075868,46.7007128 430.835106,49.401699 C435.73652,51.1099544 440.477758,53.1961109 445.227004,55.2254045 C450.379362,57.4288406 455.518372,59.6678161 460.559941,62.0631644 C466.50651,64.8873535 472.419709,67.7814366 478.198092,70.8638779 C482.163806,72.9796505 486.000043,75.3240592 489.66943,77.8248407 C495.160829,81.5659436 501.231535,84.9528382 505.609705,89.570577 C509.813015,94.0023268 512.586745,99.6578129 515.100188,105.097694 C515.897069,106.824904 514.338013,109.849297 512.999201,111.821728 C510.236149,115.892162 507.790781,120.248094 503.130967,123.086499 C494.993978,128.038307 486.61539,132.573121 477.199655,135.372433 C475.377643,135.914999 473.374096,135.980155 471.560092,136.538122 C464.386835,138.740373 457.321697,141.235231 450.085704,143.256233 C445.479282,144.54394 440.683318,145.407544 435.903371,146.081606 C418.649645,148.511309 401.375898,150.836764 384.091471,153.093509 C370.301572,154.892982 356.49165,156.569252 342.677724,158.223013 C339.701103,158.578406 336.671089,158.598545 333.665102,158.773872 L333.723833,159.574691 C336.369422,159.574691 339.027025,159.716848 341.657931,159.547444 C348.605605,159.096095 355.538597,158.454019 362.487607,158.026363 C363.761013,157.946992 365.083808,158.527467 366.390585,158.784534 C366.817723,158.869829 367.513158,159.075956 367.658652,158.919584 C370.72871,155.543351 374.200545,159.110311 377.541569,158.48482 C380.919968,157.853405 384.580011,158.51562 388.097229,158.328447 C393.090745,158.061902 398.057565,157.456549 403.048412,157.139065 C411.53512,156.596498 420.045854,156.319292 428.516545,155.638122 C435.46155,155.080155 442.363841,154.093348 449.283485,153.300821 C458.517685,152.24412 467.809282,151.474102 476.971403,150.054899 C486.348428,148.602527 495.633351,146.641943 504.891578,144.660035 C512.227682,143.089198 519.46501,141.149937 527,139.311371 C522.081233,142.390258 517.045003,144.943164 511.30266,146.35289 C504.819499,147.94505 498.403077,149.790724 491.855845,151.129371 C487.685905,151.983498 483.321084,152.0759 479.057708,152.594774 C477.111558,152.830518 475.189435,153.238035 473.271316,153.625414 C468.711612,154.545881 464.197292,155.724601 459.585531,156.340616 C457.532597,156.614268 455.299464,155.590736 453.13307,155.513735 C451.421847,155.453318 449.686597,155.940206 447.645676,156.228074 C448.167585,156.867782 448.450565,157.213698 448.732209,157.559613 C448.51597,157.601076 448.224982,157.742048 448.094171,157.667416 C443.725345,155.135834 439.239056,157.437595 434.814168,157.394948 C434.449765,159.723956 432.096499,159.354348 431.029988,158.823627 C426.848035,156.746948 422.664747,158.380571 418.532182,158.477712 C413.887051,158.585514 409.261942,159.293931 404.61948,159.664724 C401.099592,159.946669 397.561017,160.073426 394.039794,160.355371 C393.37239,160.40868 392.7477,160.868321 392.101653,161.140789 C392.231129,161.439319 392.36194,161.73548 392.490082,162.03401 C389.445385,162.178537 386.402023,162.320694 382.43097,162.507867 C383.92462,161.832621 384.58802,161.532906 385.617156,161.067341 C356.07786,161.596877 326.882943,162.120489 297.688027,162.644101 C297.66133,162.762566 297.634634,162.879845 297.607938,162.99831 C298.67178,163.213915 299.734287,163.42952 300.798129,163.645125 C300.771433,163.831114 300.746071,164.018287 300.719375,164.204276 C298.581013,163.973271 296.442651,163.742266 294.43777,163.524291 C294.29895,162.986463 294.178817,162.041118 294.034658,162.038749 C290.161045,161.958193 286.287433,161.974778 282.34975,162.424942 L286.678532,163.46269 C286.642492,163.71265 286.605117,163.962609 286.569078,164.213754 L276.337776,164.213754 C276.327097,164.607055 276.315084,164.999172 276.304405,165.391289 C285.54261,165.550031 294.77948,165.783406 304.01902,165.847376 C313.247881,165.911347 322.478077,165.797621 331.706939,165.783406 C341.03591,165.76919 350.364882,165.781036 359.693854,165.781036 C359.748581,166.08312 359.803308,166.386389 359.8567,166.690842 C360.534783,165.982426 361.2142,165.276378 362.088499,164.363019 C361.184834,164.037242 360.514761,163.795575 359.832674,163.550353 C359.978168,163.430704 360.141015,163.203253 360.253138,163.221023 C363.148337,163.681849 366.541418,161.215422 369.044183,164.667472 C369.642177,165.494353 372.01146,165.731281 373.47174,165.57017 C379.021871,164.960079 384.534627,164.07752 390.063401,163.29684 C390.252944,163.731604 390.441152,164.167552 390.630695,164.603501 C389.422694,165.176868 388.249397,166.176707 387.001352,166.254894 C377.664372,166.8484 368.318047,167.438352 358.962379,167.683573 C347.804721,167.97618 336.635049,168.006981 325.469382,167.997504 C316.931951,167.989211 308.393185,167.719112 299.855755,167.607756 C289.671171,167.471522 279.483918,167.457306 269.302004,167.235778 C264.650198,167.135083 260.013076,166.590148 255.362606,166.38402 C251.191331,166.201585 247.009378,166.238309 242.8341,166.109182 C241.849011,166.078382 240.877271,165.76919 240.037677,165.13659 C244.227639,164.132013 248.416266,163.126251 252.604893,162.121674 C252.687651,162.307663 252.771744,162.493652 252.854502,162.678456 C251.894775,163.116774 250.936383,163.552723 249.977991,163.988671 L250.012696,164.612978 C250.895004,164.68998 251.775977,164.832137 252.658285,164.832137 C255.530791,164.833322 258.401963,164.768166 261.274469,164.755135 C262.650656,164.749212 264.377898,165.024049 262.633304,163.070573 C264.861098,163.06465 267.249069,161.646632 268.908235,164.665103 C269.440824,165.631771 272.648367,167.161146 274.996294,164.688795 C273.098197,164.081074 269.909341,164.680503 272.101096,161.598062 C269.145831,161.277023 266.538951,160.897938 263.916054,160.743934 C262.458444,160.657455 260.743216,160.756965 261.725635,162.851414 C258.983939,159.029755 254.385526,160.220322 250.518588,159.79385 Z" id="Fill-60" fill="#01B4AD" transform="translate(265.000000, 88.999462) rotate(-2.000000) translate(-265.000000, -88.999462) "></path>
        </g>
    </g>
</svg>