<?xml version="1.0" encoding="UTF-8"?>
<svg width="887px" height="100px" viewBox="0 0 887 100" version="1.1" xmlns="http://www.w3.org/2000/svg" xmlns:xlink="http://www.w3.org/1999/xlink">
    <!-- Generator: Sketch 59.1 (86144) - https://sketch.com -->
    <title>Res / Titre / Agir / White</title>
    <desc>Created with Sketch.</desc>
    <defs>
        <polygon id="path-1" points="0.267827516 0.467881373 55.5533199 0.467881373 55.5533199 80.1799547 0.267827516 80.1799547"></polygon>
        <polygon id="path-3" points="0.793916689 0.213782696 57.6468509 0.213782696 57.6468509 77.7195674 0.793916689 77.7195674"></polygon>
    </defs>
    <g id="Res-/-Titre-/-Agir-/-White" stroke="none" stroke-width="1" fill="none" fill-rule="evenodd">
        <g id="Group-29">
            <path d="M576.652414,65.9708085 C584.514588,68.0910298 591.739185,67.6458588 598.560111,63.4469151 C600.593561,62.1944 600.718058,59.4177401 598.650654,58.2821767 C595.221328,56.3996314 591.678823,54.7208085 588.151408,53.0193497 C584.001509,51.0198527 580.69668,48.1300137 577.837022,44.4931928 C573.328722,38.7474684 573.234406,32.7376596 576.780684,26.8259393 C581.16826,19.5070258 587.940141,15.7532531 596.405936,16.5568246 C600.046529,16.9039071 603.509809,20.9632632 603.638078,24.6944 C603.705986,26.6071264 601.702716,29.5460097 599.597586,30.123223 C597.877264,30.5985751 596.043763,30.651392 594.410211,30.8702048 C592.425805,32.5528004 592.369215,34.5749332 592.667254,36.7555167 C592.987928,39.0756877 594.444165,40.5734242 596.262575,41.6863517 C598.827968,43.2557682 601.498994,44.6554161 604.166247,46.0475187 C607.697435,47.888565 610.587274,50.4237763 613.111167,53.5060197 C618.705986,60.3344906 617.943913,70.7356475 610.542002,75.6400741 C601.883803,81.3782531 592.531439,85.3659292 581.624748,81.7479714 C579.330986,80.985899 577.022133,80.5859996 575.14336,78.9222672 C573.577716,77.5301646 571.906439,76.2663316 570.174799,74.8553658 C565.923038,77.9640177 561.686368,80.333233 556.185865,80.5558185 C551.541751,80.7519956 547.965292,79.4127099 544.675553,76.5643698 C532.557847,66.0575791 527.159205,52.4723175 526.461268,36.7366535 C526.295272,33.0092894 527.22334,29.5950539 529.087022,26.3807682 C531.278924,22.5854966 535.379779,21.7253356 538.933602,24.5246314 C540.808602,25.9959594 542.498742,27.708736 544.011569,29.0782028 C544.366197,41.8825288 543.758803,54.4755871 554.880533,62.9677904 C558.223089,61.9265429 559.645372,59.4743296 559.358652,57.2786555 C558.55508,51.151895 559.85664,44.6591887 556.076459,38.9775992 C553.333753,34.8541083 553.096076,28.9612511 547.297535,27.0183437 C546.629779,26.7919855 546.037475,25.7696012 545.792254,24.9962109 C544.894366,22.1629614 544.158702,19.2806676 543.385312,16.4851445 C545.539487,13.6254865 547.678571,11.7203054 551.119215,12.1579312 C554.880533,12.637056 557.989185,14.4479211 560.294266,17.3415328 C567.126509,25.9280519 571.634809,35.7557682 574.879276,46.1456073 C575.84507,49.235396 575.882797,52.6420861 576.165744,55.916734 C576.44492,59.1687461 576.490191,62.443394 576.652414,65.9708085" id="Fill-1" fill="#FFFFFF"></path>
            <g id="Group-5" transform="translate(830.583501, 18.959113)">
                <mask id="mask-2" fill="white">
                    <use xlink:href="#path-1"></use>
                </mask>
                <g id="Clip-4"></g>
                <path d="M21.5135815,31.799673 C27.7535211,29.0796026 32.7673541,25.7860915 35.0573441,19.3650654 C29.3003018,16.8147636 24.0412475,16.3658199 21.860664,18.5011318 C18.6350604,21.658828 19.4273139,25.6993209 20.0762072,29.5889085 C20.1629779,30.1057596 20.6760563,30.5471579 21.5135815,31.799673 M17.5447686,80.1799547 C14.1456237,76.7091298 11.1312877,73.2194416 10.0070423,68.2923793 C9.14310865,64.4895624 7.63405433,60.8338783 6.49471831,57.0914235 C4.48013078,50.4968561 2.59004024,43.9852867 2.75980885,36.8512324 C2.89562374,31.2111419 1.43184105,25.522007 0.560362173,19.8705986 C-0.412977867,13.5250252 0.877263581,11.4613934 6.94743461,9.22044769 C9.14310865,8.40933099 11.3199195,7.23226861 13.1421026,5.77225855 C23.5357143,-2.57281187 35.1214789,-0.403546278 45.3717304,7.63594064 C49.7178068,11.0426308 50.9401408,15.743335 49.3292254,21.4173793 C47.3712274,28.3175302 44.1644869,34.1613431 38.4489437,38.575327 C36.8003018,39.8504779 35.2912475,41.3104879 33.2238431,43.1138078 C35.5251509,45.2642103 38.3923541,46.1771881 40.6182093,47.9239185 C44.1569416,50.7005785 47.7635815,53.4244215 51.0080483,56.5217555 C52.6981891,58.1288984 53.9808853,60.3434356 54.9089537,62.5202465 C56.3953722,66.006162 55.1881288,69.8467052 52.5812374,71.3368964 C48.846328,73.4835262 45.3075956,73.340166 42.5799799,70.7219567 C41.2859658,69.4807596 40.2409457,67.9792505 39.1355634,66.5531942 C35.1139336,61.3658199 35.1214789,61.3620473 27.402666,57.6761821 C27.527163,59.6153169 27.5309356,61.2488682 27.7610664,62.8446932 C28.1949195,65.8250755 28.9796278,68.7677314 29.2059859,71.755659 C29.4964789,75.5282948 27.5233903,78.0521881 23.860161,79.0028924 C21.8568913,79.5197435 19.7819416,79.7725101 17.5447686,80.1799547" id="Fill-3" fill="#FFFFFF" mask="url(#mask-2)"></path>
            </g>
            <g id="Group-8" transform="translate(71.026157, 0.741952)">
                <mask id="mask-4" fill="white">
                    <use xlink:href="#path-3"></use>
                </mask>
                <g id="Clip-7"></g>
                <path d="M35.9715795,49.6360664 C37.416499,45.5918008 36.7449698,42.3133803 36.7713783,39.0877767 C36.8128773,33.6778169 36.9637827,28.2678571 36.9147384,22.8578974 C36.8958753,20.6584507 38.6275151,21.1753018 39.5480382,20.831992 C41.1136821,14.2411972 37.7711268,7.52967807 41.1174547,0.210764588 C42.5661469,3.25528169 43.6564386,5.5528169 44.9278169,8.22384306 C46.2029678,8.77087525 47.8327465,9.47258551 49.5794769,10.2195674 C49.9152414,10.9740946 50.4019115,11.7474849 50.6094064,12.5925553 C51.47334,16.0784708 51.7600604,19.8096076 53.1559356,23.0578471 C58.0980885,34.5379779 57.8490946,46.5613682 57.4605131,58.6224849 C57.3850604,61.014336 56.3928571,63.4250503 56.5852616,65.7640845 C57.1285211,72.4529678 53.4124748,75.652163 47.2555332,77.7195674 C46.2708753,77.2819416 44.9655433,76.5462777 43.569668,76.1086519 C35.0359658,73.4338531 27.6755533,69.3518612 23.3785211,60.931338 C22.5183602,59.2411972 20.3604125,58.2112676 18.4325956,56.5626258 C15.0485412,60.4484406 17.2668511,64.9831489 16.1916499,68.597334 C13.5168511,70.1214789 13.3848089,66.763833 11.3966298,66.6317907 C9.88757545,67.6692656 8.28420523,68.9972334 6.48088531,69.9517103 C4.67756539,70.9024145 2.7195674,70.0762072 2.11594567,68.193662 C1.58023139,66.5072938 1.11242455,64.722837 1.05583501,62.9647887 C0.633299799,49.4474346 0.655935614,35.9300805 1.61795775,22.4278169 C1.79527163,19.9001509 3.44014085,18.956992 5.52263581,18.0704225 C8.23138833,16.9122233 11.5852616,19.7492455 13.8827968,16.5953219 C15.3541247,17.5082998 17.4328471,18.0817404 18.1949195,19.402163 C21.4808853,25.1290241 24.6498994,30.9577465 27.3284708,36.9826459 C29.3128773,41.4305835 31.1765594,45.7992958 35.9715795,49.6360664" id="Fill-6" fill="#FFFFFF" mask="url(#mask-4)"></path>
            </g>
            <path d="M508.555206,45.7811706 C504.178949,43.2987763 500.153546,40.8088366 495.943285,38.6735248 C490.024019,35.6705067 485.213908,38.4924382 484.300931,45.041734 C483.365317,51.7268447 486.262701,57.348072 488.945045,63.0258889 C489.918385,65.0819755 492.280055,65.5460097 494.404049,64.2557682 C501.526786,59.9361002 507.170649,54.4657783 508.555206,45.7811706 M465.87915,50.3234242 C466.211142,45.9056676 466.101735,43.1403256 466.705357,40.5409795 C467.271253,38.1189473 467.584381,35.9911807 466.516725,33.5917843 C465.347208,30.9471666 466.694039,28.7665831 469.044391,27.6121566 C472.511444,25.9031525 476.061494,24.2130117 479.758677,23.1604463 C486.538104,21.2175388 493.472208,21.7419352 500.308224,23.1038568 C509.453094,24.9298125 515.991071,30.4265429 520.442782,38.3754865 C523.208124,43.3214121 523.419391,48.7238266 521.717933,54.1224684 C520.642731,57.5404765 519.443033,60.9283034 518.156564,64.2746314 C514.670649,73.3666837 501.636192,82.8246817 492.012198,82.3568749 C482.437248,81.8928407 474.597711,77.4071767 470.278043,68.5905268 C467.256162,62.4147219 464.720951,55.8427904 465.87915,50.3234242" id="Fill-9" fill="#FFFFFF"></path>
            <path d="M768.841424,73.8661807 C768.354754,75.3488266 767.524774,76.5447521 767.702088,77.5671364 C768.811242,84.0296616 764.993335,87.7758889 760.337902,90.8241787 C756.776534,93.151895 752.660589,94.3402753 748.32583,93.970557 C746.907319,93.8498326 745.356766,93.3857984 744.179703,92.6124081 C740.203345,90.0017441 736.404301,87.1269956 732.469442,84.4521968 C721.355257,76.888062 719.819794,62.7897219 723.324572,53.9278004 C725.308979,48.9026495 727.783828,44.0736757 730.021001,39.1466133 C731.952591,34.8873075 735.3291,31.8767441 738.82256,29.0057682 C742.055709,26.34606 746.243335,27.0138165 749.993335,26.2932431 C752.570045,25.7990278 755.346705,26.4818749 758.013959,26.3347421 C763.970951,26.0027501 768.369844,28.9604966 772.353747,32.8312209 C774.379653,34.8005368 774.334381,37.2867038 772.233023,39.1315228 C770.886192,40.3123578 769.384683,41.3498326 767.852993,42.2929916 C765.928949,43.4851445 763.763456,43.8510902 761.990317,42.2099936 C758.757168,39.2296113 755.154301,38.7316234 751.091172,39.8860499 C746.281061,41.2517441 742.172661,43.5341887 739.860035,48.2235751 C738.931967,50.1061203 738.015216,52.0037562 737.245599,53.9579815 C732.699572,65.5060197 738.916876,72.3005368 745.756665,77.0993296 C746.975226,77.9557179 749.385941,77.9972169 750.823315,77.3973678 C752.136192,76.846563 752.879401,74.9225187 754.29414,73.0512914 C749.880156,71.8289574 745.888707,71.5648729 742.930961,68.7165328 C740.742832,66.6076294 740.335387,63.7781525 742.478244,61.5862511 C746.416876,57.5646213 750.404552,55.082227 756.851987,56.9421364 C762.175176,58.4775992 768.188758,58.0248829 773.870347,57.7909795 C778.32583,57.609893 782.113556,59.2094906 785.980508,60.7713618 C788.342178,61.722066 789.096705,64.9514423 787.459381,66.8528507 C784.893989,69.8294604 782.102238,72.4891686 777.759935,72.7419352 C774.794643,72.9154765 771.851987,73.4738266 768.841424,73.8661807" id="Fill-11" fill="#FFFFFF"></path>
            <path d="M43.2922535,34.2594316 C40.3307344,33.602993 39.9949698,30.381162 38.2067404,28.4797535 C36.3091046,26.4576207 34.2492455,24.5826207 31.291499,24.83916 C20.9469316,25.7483652 10.0213783,37.145498 14.7673541,47.5843813 C16.3820423,51.1268863 17.8722334,54.7259809 19.51333,58.2533954 C21.6901408,62.9427817 25.6966801,64.5046529 30.555835,64.4254276 C37.6672535,64.3197938 47.3327465,57.5064135 50.1131791,50.5459004 C52.4182596,44.769995 52.5163481,38.8167757 51.0261569,32.8371479 C50.331992,30.0567153 47.5477867,29.5511821 45.5331992,31.8373994 C44.8390342,32.6296529 45.1144366,34.244341 43.2922535,34.2594316 M0.0238933602,43.4307093 C0.11443662,38.3866952 1.08400402,33.8633048 5.06036217,30.3509809 C6.16574447,29.3738682 7.06363179,28.0949447 7.85211268,26.8235664 C14.7032193,15.7886066 25.5646378,12.1631036 37.5842555,10.7521378 C38.6066398,10.6276408 39.7837022,11.2953974 40.8023139,11.78584 C41.5870221,12.1631036 42.1981891,13.2647133 42.9413984,13.3137575 C52.3843058,13.9739688 55.8174044,22.4095825 61.6989437,27.6610915 C66.0186117,36.7833249 66.9844064,46.0074195 62.5062877,55.3861922 C58.4242958,63.923667 51.1921529,69.1525402 43.2432093,73.5929326 C42.5075453,74.0003773 41.5342052,74.0154678 40.6627264,74.1512827 C37.123994,74.6983149 33.5739437,75.1585765 30.0427565,75.7621982 C15.7029678,78.2068662 3.78143863,69.3487173 1.94039235,54.9221579 C1.44617706,51.0702968 0.669014085,47.256162 0.0238933602,43.4307093" id="Fill-13" fill="#FFFFFF"></path>
            <path d="M390.140845,17.5603457 C392.657193,12.6898729 396.184608,10.8450539 401.319165,10.8827803 C407.012072,10.9242793 412.70498,9.9773477 418.409205,9.70194529 C429.232897,9.17000364 440.060362,8.64183462 450.895372,8.45697547 C455.705483,8.37020484 460.526911,9.15114046 463.982646,12.8558688 C464.141097,13.7122572 464.442907,14.3309694 464.325956,14.8478205 C463.156439,20.0729211 463.096076,20.012559 459.03672,20.7293598 C453.200453,21.7517441 447.386821,22.9137159 441.033702,24.1171867 C441.841046,26.4939473 442.263581,28.5462612 443.195423,30.3382632 C448.548793,40.6639674 451.110412,51.7140177 452.030936,63.2243296 C452.174296,65.0163316 452.276157,66.8649232 452.789235,68.5701545 C453.988934,72.5427401 453.094819,75.73439 449.608903,77.9791083 C446.236167,80.1483739 442.769115,82.2157783 438.951207,78.6544101 C438.309859,78.0583336 437.400654,77.7452048 436.510312,77.235899 C433.665744,71.5694 432.243461,65.4200036 431.734155,59.1083839 C430.794769,47.3566234 426.18838,37.0875087 419.416499,26.8900741 C415.153421,27.1767944 410.694165,27.4484242 406.234909,27.7841887 C396.80332,28.4934443 394.834004,27.3012914 390.140845,17.5603457" id="Fill-15" fill="#FFFFFF"></path>
            <path d="M688.90493,40.7265932 C682.302817,47.8493296 680.872988,50.3694503 679.152666,57.3563718 C681.623742,57.209239 684.011821,57.1526495 686.377264,56.8847924 C687.207243,56.7904765 687.976861,56.1717642 688.90493,55.7265932 L688.90493,40.7265932 Z M691.134557,70.8699533 C684.045775,71.8961103 677.594567,75.7026998 670.117203,72.707227 C668.498742,75.5329312 667.016097,78.0870056 665.567404,80.6637159 C664.692153,82.2293598 664.05835,83.9723175 662.983149,85.3832833 C661.047787,87.9147219 657.26006,87.873223 655.102113,85.4625087 C653.427062,83.5950539 652.382042,81.4106978 652.657445,78.8792592 C652.883803,76.8005368 653.362928,74.7331324 653.864688,72.6959091 C656.350855,62.6531525 661.051559,53.5271465 665.982394,44.5595912 C667.834759,41.1906274 670.668008,38.2932431 673.357897,35.4750841 C676.892857,31.777901 680.631539,28.2504865 684.46831,24.8664322 C690.210262,19.7997823 697.93662,22.2255871 699.834256,29.7444503 C700.717052,33.2265932 701.298038,36.8634141 701.407445,40.4474181 C701.833753,54.1005871 704.150151,67.3727199 708.632042,80.2751344 C709.122485,81.6974181 709.907193,83.1197018 709.967555,84.568394 C710.050553,86.6018447 710.156187,88.9974684 709.190392,90.6083839 C708.266097,92.1551646 705.99497,92.8983739 703.384306,94.6036052 C701.713028,92.472066 700.517103,90.2914825 698.721328,88.8691988 C697.151911,87.6280016 696.423793,86.3000338 695.963531,84.4929413 C694.790241,79.8676898 693.130282,75.4159795 691.134557,70.8699533 L691.134557,70.8699533 Z" id="Fill-17" fill="#FFFFFF"></path>
            <path d="M294.387953,28.228496 L294.387953,18.5592304 C295.798919,17.2425805 297.274019,15.869341 298.979251,14.2772887 C302.650025,15.8617958 306.433979,17.5670272 309.161595,21.0038984 C311.991071,24.5728119 314.330106,28.3794014 315.593939,32.8084759 C317.567027,39.7237173 319.943788,46.5408702 321.539613,53.535337 C322.633677,58.3303571 320.830357,63.0046529 318.755407,67.3658199 C317.989562,68.9767354 316.378647,70.2217052 315.786343,71.8590292 C314.111293,76.5106891 311.45913,78.9402666 306.275528,77.1897636 C305.788858,77.0237676 305.098466,77.3180332 304.540116,77.5142103 C296.776031,80.2644618 290.558727,77.1784457 284.658325,72.4400151 C274.73252,64.4684356 269.786595,53.6786972 267.338154,41.6175805 C266.149774,35.7624497 265.0708,29.8280936 265.734784,23.7088783 C266.123365,20.1286469 267.7041,17.4613934 270.175176,15.144995 C272.672661,12.8021881 276.015216,12.855005 278.071303,15.5977113 C280.587651,18.9591298 282.613556,22.5770875 282.643737,27.0589789 C282.692782,34.9551056 284.405558,42.5833753 286.963405,50.0192404 C288.676182,54.9953471 291.682973,59.0660211 295.817782,62.2803068 C297.836142,63.853496 299.533828,63.7855885 301.571051,62.2727616 C306.396253,58.7000755 307.833627,54.2559105 305.973717,47.8575201 C303.845951,40.5310614 300.35249,33.9289487 294.387953,28.228496" id="Fill-19" fill="#FFFFFF"></path>
            <path d="M184.270749,23.402163 C184.685739,27.5407445 185.108275,30.8795272 187.228496,34.1051308 C191.431212,33.222334 194.803949,31.6227364 197.723969,28.3933602 C194.245599,23.9906942 189.526031,24.0887827 184.270749,23.402163 M190.635186,79.1881288 C179.868084,84.2585513 175.103244,81.9761066 173.194291,71.6126761 C172.76421,69.2585513 172.639713,66.8327465 172.051182,64.5201207 C171.243838,61.3360161 170.455357,58.0689135 169.059482,55.1262575 C167.671152,52.2062374 165.543385,49.6332998 163.475981,46.5171026 C165.584884,41.8578974 167.690015,36.8327465 164.592681,31.5171026 C165.547158,26.1033702 163.721202,21.5799799 159.744844,18.305332 C161.416122,12.8840543 164.70586,10.6996982 169.402792,10.9109658 C175.921906,11.2165493 182.561745,10.5752012 188.745096,13.8347586 C190.718184,14.876006 193.415619,14.4685614 195.713154,15.0042757 C203.345196,16.7774145 209.603999,20.7952716 210.260438,30.8568913 C210.426434,33.3845573 210.026534,36.0367203 207.996856,37.4137324 C203.643234,40.3677062 199.651786,44.3780181 193.536343,43.4499497 C191.959381,43.2160463 190.227741,44.0233903 188.726232,44.3214286 C187.40581,56.2467304 191.450075,67.4061871 190.635186,79.1881288" id="Fill-21" fill="#FFFFFF"></path>
            <path d="M253.286972,9.25477867 C252.724849,16.2039738 249.07671,19.9917002 243.806338,22.096831 C239.807344,23.6964286 236.389336,25.9147384 233.314638,28.7178068 C233.442907,30.9172535 234.137072,32.5960765 236.577968,31.9811368 C242.410463,30.5098089 248.220322,28.9554829 253.981137,27.2200704 C257.003018,26.3108652 259.82495,25.6921529 263.099598,28.6084004 C263.099598,29.7288732 262.971328,31.471831 263.122233,33.1921529 C263.473089,37.1458753 261.567907,39.3566398 257.961268,40.556338 C250.276408,43.1066398 242.625503,45.7512575 234.457746,48.5241449 C234.314386,50.2406942 234.14839,52.2100101 234.001258,53.971831 C234.959507,54.4811368 235.52163,55.0583501 235.944165,54.9678068 C240.346831,54.0397384 244.734406,53.0399899 249.110664,51.9836519 C252.158954,51.2479879 255.048793,51.0367203 257.866952,54.1717807 C257.338783,56.9635312 256.742706,60.125 256.112676,63.4788732 C246.767857,67.915493 237.596579,72.1710262 227.614185,72.5369718 C219.850101,63.8410463 217.035714,54.3905936 218.080734,43.6838531 C218.375,40.6883803 218.44668,37.6702716 218.66172,34.6634809 C219.121982,28.2160463 219.1333,28.2160463 216.375503,22.5080483 C219.038984,16.0719316 225.358149,14.1893863 231.122736,11.9635312 C238.015342,9.30382294 245.03999,6.15744467 253.286972,9.25477867" id="Fill-23" fill="#FFFFFF"></path>
            <path d="M367.217555,27.207998 C362.188632,26.9363682 357.088028,24.3106137 351.85161,28.3246982 C352.2666,30.1091549 352.342052,32.2293763 353.224849,33.930835 C360.147636,47.3161469 360.472082,61.5578471 359.336519,75.8410463 C357.227616,78.0782193 355.382797,80.0362173 353.092807,82.4695674 C350.31992,81.3264588 347.362173,80.1041247 344.310111,78.847837 C341.884306,73.068159 341.412726,67.1753018 341.348592,61.1428571 C341.216549,49.8400402 339.232143,41.9024145 334.286217,32.0482897 C332.867706,31.9388833 331.136066,31.6861167 329.400654,31.6898893 C326.171278,31.693662 323.919014,30.0601107 321.515845,28.068159 C319.048541,26.027163 318.233652,23.6579477 319.067404,21.0171026 C319.984155,18.1272636 321.874245,15.6486419 325.326207,15.2374245 C333.671278,14.2414487 342.020121,13.3096076 350.361419,12.2985412 C356.186368,11.5892857 361.683099,12.6758048 367.255282,14.9771127 C369.35664,18.9949698 368.851107,22.9411469 367.217555,27.207998" id="Fill-25" fill="#FFFFFF"></path>
            <path d="M818.508174,92.6923879 C808.050428,95.1710097 806.850729,94.6617038 802.734784,85.2338869 C801.663355,82.777901 800.935236,80.1295107 800.373114,77.4999835 C797.094693,62.1604463 796.11758,46.5492793 794.951836,30.9607481 C794.736796,28.0897722 795.570548,25.5734242 797.679452,23.6267441 C798.520749,22.8533537 799.671403,22.0950539 800.75415,21.9630117 C804.655055,21.4914322 810.981766,25.5394704 812.041876,29.3536052 C812.837902,32.2170358 813.40757,35.2426898 813.441524,38.2042089 C813.558476,47.8244302 814.301685,57.3541083 815.629653,66.9026495 C816.387953,72.3616535 818.31577,77.3453054 819.749371,82.5326797 C821.009432,87.1013417 821.032067,87.0937964 818.508174,92.6923879" id="Fill-27" fill="#FFFFFF"></path>
        </g>
    </g>
</svg>