<?xml version="1.0" encoding="UTF-8"?>
<svg width="1457px" height="100px" viewBox="0 0 1457 100" version="1.1" xmlns="http://www.w3.org/2000/svg" xmlns:xlink="http://www.w3.org/1999/xlink">
    <!-- Generator: Sketch 59.1 (86144) - https://sketch.com -->
    <title>Res / Titre / Pauvreté / White</title>
    <desc>Created with Sketch.</desc>
    <defs>
        <polygon id="path-1" points="0.0428488848 0.556287031 53.4374589 0.556287031 53.4374589 77.769162 0.0428488848 77.769162"></polygon>
        <polygon id="path-3" points="0.883512156 0.513051343 34.3910467 0.513051343 34.3910467 20.8306475 0.883512156 20.8306475"></polygon>
    </defs>
    <g id="Res-/-Titre-/-Pauvreté-/-White" stroke="none" stroke-width="1" fill="none" fill-rule="evenodd">
        <g id="Group-41" transform="translate(0.000000, 0.000000)">
            <path d="M513.560566,43.3038183 C509.380184,43.096445 505.282093,42.7343647 501.243252,43.616524 C500.403884,43.7975642 499.307768,44.7982225 499.146478,45.5849243 C498.942396,46.6119157 499.55135,47.8001975 500.008887,49.7718894 C504.488808,46.3913759 509.814681,46.9509546 513.560566,43.3038183 M526.476959,71.2761685 C521.200461,67.8726136 509.920013,63.5375247 502.382159,62.0167874 C502.546741,67.9088216 503.981896,73.3531929 506.322251,78.4914417 C512.487492,79.5678078 516.200461,79.0773535 521.713957,76.6086241 C523.896313,75.6310072 525.993088,74.6105991 526.476959,71.2761685 M585.189928,51.1181698 C582.92528,51.5296248 581.276169,52.1550362 579.67314,52.0595787 C575.347926,51.7962475 571.84233,49.3472679 568.139236,47.3689928 C562.826531,44.5283081 554.139895,47.8726136 552.421659,53.5013167 C551.105003,57.8100724 550.93713,62.2801185 552.566491,66.664582 C554.406517,71.6283739 557.997696,74.4888084 563.205069,74.5776827 C566.819289,74.6402238 570.558591,74.182686 574.05102,73.2379855 C580.558591,71.4769585 586.536208,63.5539829 587.006912,56.8884134 C587.164911,54.6797235 586.618499,52.7343647 585.189928,51.1181698 M540.176761,74.4822251 C538.491442,80.7692561 535.868005,86.0885451 530.07472,89.1300197 C523.642857,92.50395 516.911455,94.2386438 509.55135,92.9911126 C506.526333,92.4743252 503.412442,92.4776169 499.064187,92.1550362 C498.68894,91.8884134 497.227452,90.8285056 495.749506,89.7883476 C493.471692,88.1853193 492.266952,85.9371297 491.690915,83.2709019 C489.485517,72.9976959 487.158328,62.7508229 485.087887,52.4512837 C484.261685,48.3367347 483.787689,44.1300197 483.481567,39.9430546 C483.070112,34.3703094 484.518433,32.2932851 489.883805,30.6902567 C497.842989,28.3071099 505.884463,28.498025 514.083937,29.6665569 C520.660632,30.6079658 525.973338,33.6922317 531.016129,37.5566162 C534.455892,40.1932192 534.557933,41.381501 532.954905,45.7330481 C531.733706,49.0444371 530.022054,51.8686636 526.911455,53.735023 C525.831797,54.383476 524.91343,55.3084266 523.744898,56.2564187 C528.333443,59.5052666 532.602699,62.5335747 536.891705,65.5355497 C537.04312,65.6408822 537.375576,65.4828835 537.701448,65.4433838 C539.390059,63.8732719 538.056945,62.0167874 537.935155,60.3610928 C537.207702,50.578341 541.542791,43.9687294 549.837722,39.0312706 C557.625741,34.3933509 565.631007,33.7251481 574.136603,35.6639236 C582.467742,37.5599078 588.893022,42.1155365 593.474984,49.4032258 C599.857472,59.5447663 600.120803,61.134628 594.979263,71.7896643 C593.409151,75.0549704 592.296577,78.5934826 589.343976,81.144503 C585.058262,84.8475971 580.364384,87.339368 574.699473,88.3235681 C563.461817,90.2788018 553.922646,87.494075 546.09842,79.0740619 C544.676432,77.5467413 543.099737,76.1609612 541.565833,74.738973 C541.407834,74.5941409 541.075379,74.6402238 540.176761,74.4822251" id="Fill-1" fill="#FFFFFF"></path>
            <path d="M940.408864,69.3936801 C947.021767,69.9532587 947.021767,69.9532587 952.084308,67.9486504 C952.637303,62.6655695 949.128416,58.8505596 946.906559,54.5911784 C946.659686,54.1270573 945.626112,54.084266 944.757119,53.7715602 C943.318673,58.9427255 941.942767,63.8966425 940.408864,69.3936801 M962.601095,90.9769585 C960.563571,87.3759052 958.772919,84.2225148 956.916434,80.9407505 C953.061925,82.0138249 949.628745,83.4292298 946.080358,83.8308097 C942.798594,84.202765 939.388455,83.4917709 935.872985,83.2481896 C934.892076,85.9934167 934.138291,88.481896 933.114591,90.8551679 C932.140266,93.1132324 930.356197,94.0809743 927.989509,93.4621461 C925.208074,92.7412772 922.522096,91.6319947 920.18174,90.8222515 C916.050733,91.7932851 912.24889,93.3930217 908.470088,93.3502304 C905.254157,93.317314 902.061266,91.3884134 899.194249,90.4107966 C895.408864,85.4502962 894.322623,80.1672153 893.990167,74.5319289 C893.443755,65.2593812 894.704453,56.1514154 895.942109,47.0236998 C896.330523,44.1599737 896.850602,41.3127057 897.308139,38.4588545 C897.620845,36.5233706 898.532629,34.9335089 900.333156,34.1171824 C901.221898,33.7156024 902.538554,33.2843976 903.256131,33.6596445 C906.271273,35.2165899 909.427955,36.957867 909.760411,40.835418 C910.030325,43.9361422 909.974367,47.0994075 909.720911,50.2034233 C909.164624,57.0072416 908.321964,63.7880184 907.742636,70.5918367 C907.571471,72.6293614 907.373972,74.8479263 909.753827,76.8887426 C913.542504,76.283081 917.759094,75.6017117 922.502346,74.8380513 C925.524071,68.3436471 927.821635,61.1053325 929.829535,53.764977 C931.080358,49.1994733 932.24889,44.604345 933.716961,40.1079658 C934.773577,36.8591178 936.797935,34.4825543 940.738027,35.4404213 C942.535262,35.8782093 943.700503,34.959842 945.007284,34.0678078 C946.975684,32.7215273 948.848627,32.9782752 950.846652,34.3048058 C953.289048,35.9275839 955.504321,37.5931534 956.801227,40.3844635 C962.907218,53.4983542 969.434538,66.4312047 973.63467,80.3416722 C974.23704,82.3528637 974.987534,84.3706386 975.214657,86.4312047 C975.764361,91.3982883 972.011892,94.3179724 967.304848,92.7511521 C965.826902,92.2541145 964.381872,91.6517446 962.601095,90.9769585" id="Fill-3" fill="#FFFFFF"></path>
            <g id="Group-7" transform="translate(0.000000, 0.695194)">
                <mask id="mask-2" fill="white">
                    <use xlink:href="#path-1"></use>
                </mask>
                <g id="Clip-6"></g>
                <path d="M20.6856485,34.0450955 C25.2083608,32.8798552 28.6909151,30.3156682 30.2643186,25.7929559 C31.1991442,23.1069783 31.4953917,20.1905859 31.9957209,17.3630678 C32.4137591,14.9700461 30.2445688,13.1267281 28.0753785,14.2689269 C25.5605662,15.5921659 23.0918367,17.1820276 21.0148124,19.1010533 C17.0516787,22.7547729 17.0023041,28.6007242 20.6856485,34.0450955 M31.7521396,41.7903226 C35.7185648,46.0497038 39.8759052,50.3387097 43.8258723,54.8087558 C47.6540487,59.1372614 51.0608953,63.7916392 53.4374589,69.0121791 C52.6902567,71.6816985 51.9957209,74.1471363 51.2156024,76.90553 C47.0023041,79.0780118 43.7468729,76.8001975 40.9588545,73.9628045 C38.9641211,71.9285714 37.3610928,69.4302172 35.9127716,66.9516129 C32.2722186,60.7205398 27.377551,55.6678736 21.7685978,51.2439105 C21.1695194,50.7732061 20.4552337,50.4539171 19.8923634,50.1280448 C17.979921,50.5757077 18.1477946,52.0766952 18.1313364,53.2781435 C18.0720869,57.2050691 17.8219223,61.1714944 18.2827518,65.0490454 C18.736998,68.9167215 17.3940092,71.6026991 14.4348255,74.1635945 C10.9423963,73.4822251 8.19058591,71.5829493 5.79098091,69.1833443 C4.91211323,68.3077683 4.20770244,67.0799868 3.87195523,65.8851218 C2.65734036,61.5928242 1.21889401,57.297235 0.632982225,52.9028966 C-0.473008558,44.5651745 0.0470704411,36.1912442 1.59743252,27.9226465 C2.17676103,24.8317972 3.49670836,21.8495721 3.79953917,18.7521396 C4.16491113,15.0227123 5.96214615,12.2906517 8.57899934,10.0260039 C11.1497696,7.81073074 13.855497,5.69749835 16.7323897,3.91013825 C24.7244898,-1.05694536 32.5618828,-0.303159974 40.2774852,4.80875576 C42.8515471,6.51711652 44.5500329,8.63364055 45.0108624,11.6619487 C45.6066491,15.6020408 45.6362739,19.5849243 44.0924951,23.2913101 C41.465767,29.6046741 38.6349572,35.8522054 32.815339,40.0556287 C32.4269256,40.335418 32.2689269,40.9279131 31.7521396,41.7903226" id="Fill-5" fill="#FFFFFF" mask="url(#mask-2)"></path>
            </g>
            <path d="M1258.47305,39.6593153 C1256.75152,39.7547729 1256.66594,40.9529296 1256.30715,41.8219223 C1256.17219,42.1510862 1256.48161,42.664582 1256.58694,43.0957867 C1257.21564,42.8785385 1258.25909,42.7995392 1258.39076,42.4111257 C1258.67055,41.5882159 1258.47305,40.6007242 1258.47305,39.6593153 M1247.37035,32.7534562 C1248.98325,30.0016458 1250.16166,27.6415405 1251.67252,25.5118499 C1254.63171,21.341343 1261.74494,21.0023041 1264.69096,25.1234365 C1269.0458,31.222844 1271.84369,37.9772877 1271.39603,45.7225148 C1271.18207,49.4025675 1269.69096,52.3057933 1266.45528,54.1820276 C1264.65804,55.2254773 1262.81801,56.1899276 1260.55007,57.4407505 C1261.25778,59.5934826 1262.89043,60.9726794 1264.24988,62.345293 C1271.51453,69.662607 1277.36048,78.0793285 1283.32493,86.4170507 C1284.79629,88.4776169 1285.50399,90.5645161 1285.11229,93.0365372 C1284.64487,95.9628045 1282.01156,97.6316656 1279.31242,96.4795918 C1274.96416,94.616524 1270.64553,92.6942067 1268.1373,88.2307439 C1267.13335,86.4466754 1265.67516,84.9226465 1263.62117,82.2235023 C1263.62117,84.5836076 1263.39405,85.7323897 1263.66397,86.7495063 C1264.52308,89.9489796 1264.30254,92.9871626 1262.76206,95.9792627 C1260.89241,97.5789993 1258.85159,97.2004608 1256.92927,96.140553 C1253.18009,94.0668203 1250.3427,91.377551 1248.91084,86.979921 C1246.78444,80.4591837 1244.99708,74.0075708 1244.22354,67.1050033 C1243.2953,58.7903226 1241.07015,50.6171824 1239.36508,42.3880843 C1238.83842,39.8469388 1237.69622,37.4407505 1238.75613,34.698815 C1240.0267,31.4038841 1241.63632,30.6500987 1245.41183,32.0227123 C1245.8957,32.1938776 1246.36969,32.3782093 1247.37035,32.7534562" id="Fill-8" fill="#FFFFFF"></path>
            <path d="M95.1270573,43.5674786 C94.5345622,34.9565504 93.2146149,30.6082949 90.2784727,26.9545754 C86.5227123,35.0882159 85.3245556,39.4628045 85.5418038,44.5154707 C87.0724161,44.5154707 88.6194865,44.6306781 90.1435155,44.485846 C91.6741277,44.3377222 93.1816985,43.9361422 95.1270573,43.5674786 M98.961817,56.8558262 C96.7202107,57.2508229 94.4917709,57.00395 93.2179065,57.9914417 C89.6201448,60.7860434 85.9795918,60.443713 82.0559579,59.3048058 C81.3515471,59.1040158 80.5023041,59.4002633 79.5839368,59.475971 C76.0816327,62.4581962 75.2488479,67.0434496 73.1619487,70.8551679 C71.4305464,72.0895326 69.6958525,72.0072416 67.9907834,70.9473338 C66.2198815,69.8545095 64.4851876,68.7024358 62.7965767,67.6161949 C61.5918367,64.0645161 61.8913759,60.7202107 63.2146149,57.4746544 C64.3008558,54.805135 65.2883476,52.0335747 66.8057933,49.6142199 C71.4733377,42.1685319 74.1428571,33.9822251 76.3943384,25.5951284 C77.3456221,22.0467413 78.4549045,18.5411455 79.4851876,15.0190915 C80.1270573,12.8235681 81.5523371,11.5365372 83.7478604,10.8156682 C86.2034233,10.005925 88.560237,8.89664253 91.0915076,7.85977617 C96.8617512,8.43910467 100.222515,11.7899934 101.927584,17.4186965 C104.287689,25.1869651 107.339039,32.7577354 109.458855,40.5885451 C111.381172,47.7116524 113.84661,54.5845951 116.769585,61.3258723 C117.187623,62.2870309 117.64187,63.2383147 118.069783,64.1961817 C119.119816,66.5529954 119.017775,68.8209348 117.289664,70.8090849 C115.890718,72.4318631 112.424621,72.915734 110.018433,71.520079 C108.257406,70.4996708 106.512837,69.1105991 105.35418,67.4647795 C103.119157,64.2817643 101.305464,60.8057933 98.961817,56.8558262" id="Fill-10" fill="#FFFFFF"></path>
            <path d="M379.422976,18.4298881 C379.153061,24.124424 375.038512,26.3462804 370.571758,28.0480579 C366.167544,29.7235023 361.628374,31.0302831 357.184661,32.6069783 C354.75214,33.4660961 353.26761,35.0757077 353.955563,38.238973 C357.326201,38.5681369 360.680382,38.2356814 364.054312,37.8900592 C365.864714,37.7024358 367.731073,37.7386438 369.534891,37.9756419 C372.006912,38.3015142 374.785056,40.4937459 374.722515,42.1757735 C374.640224,44.516129 374.353851,46.9749835 371.914747,48.2620145 C370.071429,49.2330481 368.208361,50.2040816 366.263002,50.9282423 C361.618499,52.6530612 356.92133,54.2330481 352.201119,55.8887426 C351.885122,57.1955234 351.424292,58.1895984 351.44075,59.1803818 C351.536208,65.9249506 352.526991,66.6194865 358.807439,64.8749177 C361.578999,64.1079658 364.406517,63.4792627 367.24391,63.038183 C370.795589,62.4851876 373.399276,63.8742594 374.775181,67.6497696 C372.688282,72.2251481 369.926596,76.3759052 364.683015,78.3146807 C363.465109,78.7689269 362.359118,79.5358789 361.223502,80.1942067 C354.794931,83.8907176 349.284727,82.4588545 344.126728,77.4917709 C339.817972,73.3443055 336.825872,68.6175115 336.062212,62.6135616 C335.927255,61.5701119 335.775839,60.5266623 335.719882,59.479921 C335.430217,54.1277156 338.646149,31.3759052 339.788348,25.9611587 C340.690257,21.6886109 343.103028,19.5457538 346.987163,18.6570112 C350.825214,17.7781435 354.689598,16.9585253 358.583608,16.4154049 C362.740948,15.8327847 366.944371,15.5924951 371.128045,15.2238315 C374.376893,14.9407505 377.461159,15.1250823 379.422976,18.4298881" id="Fill-12" fill="#FFFFFF"></path>
            <path d="M1107.76831,56.4328506 C1106.69194,60.698815 1106.27391,63.664582 1106.5142,66.5513496 C1109.24955,67.6869651 1111.46153,67.9963792 1113.61755,66.3472679 C1113.4036,62.4664253 1111.43191,59.6816985 1107.76831,56.4328506 M1108.33118,30.8864384 C1111.60636,33.3518762 1114.35817,35.2939434 1115.70774,38.70079 C1121.2377,52.6770902 1128.72618,65.6461488 1136.38582,78.5230415 C1137.58398,80.5309414 1138.59122,82.7297564 1139.21663,84.9713627 C1139.60505,86.3637261 1139.38121,88.0885451 1138.94013,89.5072416 C1138.22256,91.7883476 1136.06653,92.8548387 1133.92038,92.0088874 C1130.27325,90.5605662 1126.80715,88.9147465 1124.65442,85.1919026 C1123.26864,82.8054641 1122.6169,79.694865 1119.69063,78.463792 C1116.99478,79.7211982 1114.51617,81.2320606 1111.82032,82.0286373 C1109.35817,82.7626728 1106.6689,82.7231731 1103.64718,83.0786702 C1103.27522,84.4842001 1102.76502,85.9028966 1102.55435,87.3643845 C1102.36673,88.6514154 1102.63335,89.9976959 1102.49181,91.2978934 C1101.98161,96.0082291 1099.08497,97.5092166 1094.72025,95.3992758 C1089.28576,92.7692561 1088.40031,91.054312 1088.71301,84.9186965 C1088.92038,80.7580645 1090.10867,76.6336406 1089.08167,72.3874259 C1088.80518,71.2320606 1089.10801,69.576366 1089.79267,68.6119157 C1093.34435,63.6119157 1093.10077,57.6507571 1094.22651,52.0516787 C1095.25679,46.9101382 1095.90195,41.6928901 1096.95857,36.5612245 C1097.68602,33.0391705 1099.29892,31.8475971 1102.79464,31.5052666 C1103.80847,31.4032258 1104.82229,31.3242265 1105.83612,31.2156024 C1106.60307,31.1333114 1107.36015,31.0148124 1108.33118,30.8864384" id="Fill-14" fill="#FFFFFF"></path>
            <path d="M1166.31044,30.6171824 C1169.47042,32.3979592 1171.98523,33.8989467 1173.42038,37.1050033 C1175.12875,40.9101382 1177.66002,44.3400263 1179.59879,48.0529954 C1185.2242,58.8462804 1185.68503,70.1859776 1182.61064,81.7495063 C1180.89899,88.1945359 1176.63632,92.7732061 1170.96811,96.0286373 C1166.47173,98.6158657 1161.69557,97.7797893 1157.23869,96.1076366 C1147.9036,92.6152074 1141.60669,86.104345 1137.89701,76.6705069 C1133.62447,65.8015142 1132.60406,54.8107307 1134.58892,43.4084924 C1135.03987,40.8245556 1135.3032,38.2011192 1135.75416,35.6138907 C1136.20511,33.0069124 1137.7456,31.4005925 1140.97799,30.9265964 C1142.91676,32.4210007 1145.16495,34.1524029 1147.72585,36.1306781 C1147.88385,38.3196182 1148.20972,40.6336406 1148.18668,42.9443713 C1148.13072,48.9680711 1147.79497,54.9884793 1147.80156,61.0121791 C1147.80814,67.5921659 1150.60603,73.2439105 1154.36179,78.4315339 C1156.51453,81.4137591 1160.07937,82.1115866 1163.49938,80.4624753 C1166.78444,78.8759052 1168.77588,76.1899276 1169.74691,72.7402897 C1171.57377,66.2623436 1171.65936,59.7514812 1169.58892,53.3360764 C1168.54876,50.1102699 1167.02473,47.0358789 1165.72782,43.8890718 C1165.0267,42.1938776 1164.26634,40.5118499 1163.67384,38.777156 C1162.64685,35.7422646 1163.21301,33.0826201 1166.31044,30.6171824" id="Fill-16" fill="#FFFFFF"></path>
            <path d="M724.289048,47.682686 C726.175157,57.4753127 725.668245,67.8768927 727.929601,78.8084266 C729.509588,77.6530612 730.691286,77.0901909 731.454946,76.1718236 C734.29234,72.7583937 737.057316,69.2758394 739.713669,65.7175774 C740.951326,64.0552995 741.988192,62.2119816 742.923018,60.355497 C743.913801,58.3838051 743.841385,56.2903226 742.903268,54.2890059 C741.119199,50.4707044 737.715644,48.5319289 734.121174,46.8400263 C731.106033,45.4213298 728.123808,45.2962475 724.289048,47.682686 M757.653103,58.8841343 C756.718278,61.6063199 756.319989,64.6741277 754.749877,66.9223173 C751.912484,70.9743252 748.65047,74.835418 745.052708,78.2290981 C741.063241,81.998025 736.491155,85.1481238 732.175815,88.5714286 C731.152116,89.3877551 730.230457,90.3785385 729.114591,91.040158 C725.358831,93.2620145 721.030325,92.3469388 718.815052,88.7458855 C715.977659,84.1178407 713.48918,79.4996708 713.24889,73.6899276 C712.893393,65.036208 711.738027,56.4088216 710.737369,47.7946017 C710.128416,42.5773535 709.127758,37.4127716 708.377264,32.2119816 C708.120516,30.4180382 707.765019,28.5450955 708.021767,26.7840685 C708.607679,22.6958525 713.311431,21.1619487 716.474696,23.8874259 C716.869693,24.2264648 717.235065,24.6313364 717.518146,25.0691244 C720.371997,29.5095458 724.424005,31.7939434 729.585295,33.0315997 C733.607679,33.9927584 737.277856,36.3660303 741.178449,37.9262673 C747.929601,40.6287031 752.228482,45.8262014 755.493788,51.9782752 C756.563571,53.9927584 756.899318,56.395655 757.653103,58.8841343" id="Fill-18" fill="#FFFFFF"></path>
            <path d="M1322.47042,40.2156024 C1321.48293,44.5572745 1319.59023,47.0786702 1315.08069,47.4835418 C1311.74626,47.7863726 1308.42499,48.859447 1305.23869,49.981896 C1302.83579,50.8245556 1300.65672,52.2926267 1298.23737,53.5566162 C1298.82328,55.5283081 1299.25449,56.979921 1299.69886,58.4677419 C1303.6192,59.3861093 1307.22354,58.9581962 1310.84764,58.3130349 C1313.4217,57.8522054 1316.03197,57.2728769 1318.62578,57.2794602 C1323.54349,57.2926267 1325.34731,59.7053983 1324.73177,64.899605 C1324.66923,65.4032258 1324.37957,65.8805135 1324.16561,66.4565504 C1317.31242,71.8383805 1309.07674,73.0826201 1300.89043,73.50395 C1298.9352,75.9990125 1299.63302,78.3525346 1300.18273,80.5908492 C1301.18009,84.6395655 1302.64817,85.5184332 1307.04909,84.9061883 C1311.20643,84.3301514 1315.36048,83.7244898 1319.50136,83.0332456 C1322.45725,82.5394997 1325.23869,82.5987492 1328.0662,85.1793943 C1327.95758,86.8449638 1328.05962,88.9252798 1327.60208,90.8739302 C1327.33546,91.9930876 1326.36443,93.3624095 1325.3506,93.8166557 C1320.81143,95.8607637 1316.26897,98.0694536 1311.49938,99.3762344 C1303.64553,101.528966 1297.22684,97.7666228 1291.18997,93.2669519 C1289.8799,90.1431863 1288.09254,87.1214615 1287.37496,83.8693219 C1286.41709,79.544108 1286.16364,75.0477288 1285.85093,70.6040158 C1285.53822,66.1570112 1285.81472,61.6573404 1285.30781,57.2366689 C1284.80419,52.8620803 1283.64224,48.5631995 1282.78312,44.3005267 C1292.81604,35.6764319 1309.77127,33.8166557 1322.47042,40.2156024" id="Fill-20" fill="#FFFFFF"></path>
            <path d="M1447.3664,43.616524 C1438.6666,48.4716919 1429.71005,48.7514812 1420.54612,49.4690586 L1420.54612,56.5164582 C1421.39537,56.8456221 1422.10636,57.3788677 1422.76798,57.3229098 C1426.17154,57.0497038 1429.55863,56.6119157 1432.95231,56.2531271 C1434.52243,56.0885451 1436.09583,55.861422 1437.66923,55.861422 C1441.0695,55.8581303 1442.93915,57.375576 1443.60735,60.8712969 C1443.89043,62.3558262 1443.65343,63.945688 1443.65343,65.6178407 C1437.46186,69.9660961 1429.96021,70.7462146 1423.36377,73.178736 C1422.39273,75.6770902 1422.45857,77.8693219 1423.99247,79.4526004 C1425.2005,80.6902567 1426.96482,81.7764977 1428.63368,82.0727452 C1431.15837,82.5204082 1433.8246,82.3262014 1436.4217,82.1978275 C1437.70544,82.1352864 1438.96943,81.5954575 1440.24988,81.2959184 C1442.62973,80.7396313 1445.11163,80.3446346 1446.70149,82.7113232 C1448.43618,85.2985517 1448.19589,88.2445688 1447.10636,91.0029625 C1446.77061,91.8522054 1445.71071,92.6191573 1444.8088,92.9944042 C1441.65541,94.301185 1438.47898,95.5980908 1435.21367,96.582291 C1426.22091,99.2946017 1415.477,94.1859776 1411.74099,85.5520079 C1408.65672,78.4387755 1408.20906,70.7824226 1407.23803,63.2412772 C1406.89899,60.6342989 1406.83316,57.9944042 1406.62249,55.3742594 C1406.27029,50.9272548 1405.54942,46.4440421 1409.48622,42.9121132 C1410.11492,42.3459513 1409.98984,40.9470046 1410.21038,39.9364714 C1411.12216,35.742923 1412.21499,34.5645161 1416.23737,33.9786043 C1418.04448,33.7185648 1419.98984,33.4749835 1421.72782,33.863397 C1426.98457,35.0385122 1432.17549,34.3044766 1437.39603,33.8568137 C1438.44606,33.7712311 1439.49609,33.6527321 1440.54612,33.662607 C1444.13072,33.6955234 1445.82921,34.9068466 1446.81011,38.415734 C1447.22157,39.8870968 1447.15903,41.4901251 1447.3664,43.616524" id="Fill-22" fill="#FFFFFF"></path>
            <path d="M796.431905,38.084266 C793.285098,40.3949967 790.118541,42.682686 786.191615,43.6438446 C785.181082,43.8907176 784.246257,44.4338381 783.275223,44.835418 C781.886151,45.4081633 781.224532,46.3824885 781.593195,47.9032258 C781.896026,49.160632 783.304848,49.7695853 784.743294,49.1540487 C787.159357,48.1336406 789.63467,47.1889401 791.902609,45.8953259 C794.371339,44.4930876 796.899318,44.5490454 799.535921,44.7926267 C802.314064,45.0493746 803.578054,46.8630678 804.456921,49.2297564 C805.306164,51.524029 804.684045,53.3903884 802.916434,54.8683344 C798.910509,58.2093483 795.289706,62.1033575 790.046125,63.6833443 C788.594512,64.1178407 787.291023,65.0329164 785.648495,65.8624095 C785.862451,68.1237656 785.938159,70.1909151 786.290365,72.2119816 C786.596487,73.9697169 787.208732,75.674786 787.804519,77.8077683 C792.554354,77.7616853 796.731444,76.1356155 801.013867,75.2304147 C803.726178,74.6576695 806.063241,75.0230415 808.531971,76.4219882 C810.901951,77.7748519 811.938817,79.6741277 812.054025,82.116524 C812.172524,84.5589203 810.467455,85.8130349 808.373972,86.6622778 C804.256131,88.3311389 800.207415,90.1942067 796.036908,91.7083608 C790.174499,93.8347597 784.637962,92.0506912 779.27259,89.7004608 C776.981609,88.6965109 775.559621,86.6886109 774.967126,84.3317972 C774.206757,81.2969059 773.535262,78.202765 773.24889,75.0954575 C772.814393,70.3620803 772.172524,65.6879526 770.167916,61.359447 C769.108008,59.0849243 769.256131,56.8663594 769.285756,54.4897959 C769.338422,50.1349572 768.502346,46.0994075 763.387139,44.716919 C759.05205,43.5450955 759.180424,37.7485188 762.857185,35.3456221 C763.923676,34.6510862 765.174499,34.0980908 766.415447,33.8380513 C772.067191,32.6629361 777.715644,31.4154049 783.423347,30.5924951 C786.487863,30.1514154 789.690628,30.3028308 792.797935,30.5760369 C796.494446,30.8953259 797.106691,31.8367347 796.932234,35.6978275 C796.899318,36.4713627 796.619528,37.2317314 796.431905,38.084266" id="Fill-24" fill="#FFFFFF"></path>
            <path d="M135.861093,61.0895326 C139.425938,58.2093483 142.753785,59.1310072 146.019092,60.2534562 C151.990125,62.3041475 157.921659,61.7939434 163.84661,60.1415405 C165.897301,59.5655036 167.82291,58.7162607 168.879526,56.2606978 C167.852535,52.4851876 164.547729,50.9447005 161.180382,49.4272548 C154.922976,46.6030283 149.281106,42.7748519 143.909151,38.5418038 C139.883476,35.3752469 136.884793,31.5339039 136.17709,26.20474 C135.15339,18.5023041 139.620145,13.3245556 145.499013,11.6820276 C154.922976,9.04542462 164.241606,9.99341672 173.135616,14.1573404 C174.527979,14.8090849 175.745885,15.9282423 176.894668,16.9947334 C179.261356,19.1902567 179.314022,21.2936142 177.276498,23.9433838 C176.206715,25.3324556 174.745227,25.9907834 173.14549,25.4575379 C170.917051,24.7136274 168.810402,23.6109282 166.63792,22.6958525 C162.592495,20.9874918 158.461488,20.9249506 154.290981,22.1428571 C152.355497,22.7090191 151.443713,24.4042133 151.911126,26.4483213 C152.780118,30.2468729 155.133641,33.0579329 158.194865,35.2139566 C160.541804,36.8696511 163.24424,38.0085583 165.657011,39.5885451 C170.475971,42.7419355 175.499013,45.6813693 179.883476,49.3712969 C184.936142,53.6208032 185.113891,56.1290323 181.81896,61.6688611 C174.20869,74.4634628 162.125082,77.9855168 149.495063,72.8176432 C148.283739,72.3206057 147.138249,71.6030283 145.887426,71.3067808 C140.502304,70.0197498 137.230415,66.7017775 135.861093,61.0895326" id="Fill-26" fill="#FFFFFF"></path>
            <path d="M1065.20511,48.9911126 C1059.13533,47.0556287 1056.5086,46.8910467 1050.78773,48.2373272 C1051.44935,50.3999342 1052.10439,52.5230415 1052.71992,54.5375247 C1060.15244,53.7936142 1061.45593,53.1912442 1065.20511,48.9911126 M1038.50004,29.7745227 C1043.42104,33.2735352 1049.49083,33.2932851 1055.47832,33.8561554 C1059.38549,34.224819 1063.2795,34.9028966 1067.1373,35.6599737 C1073.06225,36.825214 1076.75547,40.7653061 1079.19787,46.0187623 C1080.63302,49.1030283 1080.30715,51.5585912 1077.52572,53.7705727 C1073.43092,57.0227123 1069.05962,59.9391047 1064.70478,62.8489138 C1062.55534,64.2840685 1060.18536,65.3900592 1057.59813,66.815339 C1057.97338,68.457867 1058.15771,69.9753127 1058.66792,71.377551 C1059.74428,74.3301514 1061.02144,77.2103357 1062.14718,80.1497696 C1062.71005,81.614549 1063.29925,83.1056616 1063.55271,84.6395655 C1063.93125,86.9502962 1064.46778,89.6198157 1062.29859,91.2162607 C1060.16561,92.7929559 1057.9668,91.5947992 1055.69557,90.574391 C1051.32756,88.6026991 1048.70412,85.4624753 1047.21959,80.9825543 C1045.74494,76.5256748 1044.70149,71.8482554 1041.67977,68.0233706 C1041.22552,67.4473338 1040.9589,66.5717577 1040.95231,65.8311389 C1040.90952,60.7192232 1038.56258,56.1932192 1037.36443,51.377551 C1036.54152,48.0793285 1035.78444,44.8601053 1032.89438,42.4670836 C1031.20906,41.0747202 1030.90623,38.8331139 1032.06818,36.6935484 C1033.54612,33.9647795 1034.48424,30.7587228 1038.50004,29.7745227" id="Fill-28" fill="#FFFFFF"></path>
            <path d="M1209.04086,68.9950625 C1209.69919,66.463792 1210.28181,64.3143515 1210.82164,62.1517446 C1212.79004,54.2715602 1214.73539,46.3913759 1216.70709,38.5111916 C1216.83217,38.0042791 1217.08892,37.5335747 1217.2535,37.0332456 C1217.75054,35.5092166 1218.31999,34.0115207 1220.08431,33.5638578 C1221.69063,33.1556945 1224.34369,34.465767 1225.36739,36.3222515 C1227.05271,39.383476 1227.91512,42.5961159 1226.93092,46.1510862 C1224.74527,54.0148124 1223.83349,62.0826201 1223.23441,70.1965109 C1222.86903,75.1603028 1222.5695,80.1339697 1222.03954,85.0813035 C1221.76304,87.6619487 1221.27259,90.2689269 1220.47601,92.7310731 C1219.58398,95.4894668 1216.77292,96.7764977 1214.15936,95.5388413 C1211.82888,94.4361422 1209.19227,93.178736 1207.70774,91.2202107 C1198.6327,79.2583937 1190.5188,66.7172482 1187.81308,51.5625411 C1187.16792,47.9746544 1187.15475,44.255102 1187.05271,40.5947992 C1187.00992,39.0477288 1187.26337,37.4117841 1187.77029,35.9535879 C1189.14619,31.9970375 1192.93816,31.144503 1195.79859,34.1135616 C1198.77094,37.2109941 1200.56489,40.6441738 1200.5616,45.2656353 C1200.55501,53.4420671 1203.72157,61.5724161 1209.04086,68.9950625" id="Fill-30" fill="#FFFFFF"></path>
            <path d="M1393.44343,34.9535879 C1390.81011,37.297235 1387.85422,38.1793943 1384.73704,38.7422646 C1381.68898,39.2919684 1378.64092,39.8877551 1375.58299,40.4670836 C1374.61525,43.775181 1375.91216,46.3788677 1376.72519,49.1142199 C1379.0458,56.9022383 1381.15244,64.7593812 1383.42697,72.5638578 C1384.50004,76.2406188 1384.51321,79.7758394 1382.61722,83.3505596 C1378.4928,86.694865 1375.51058,82.461817 1371.74165,81.6981567 C1369.97733,77.544108 1368.48951,73.4493088 1367.46581,69.0615537 C1365.67516,61.4052008 1363.27884,53.8903884 1361.02078,46.3492429 C1360.58299,44.8811718 1359.635,43.5579329 1359.0425,42.3992758 C1355.50399,41.3163265 1352.22223,40.5197498 1349.1248,39.2689269 C1347.79168,38.7258065 1346.48161,37.4354839 1345.78049,36.1451613 C1343.95692,32.8271889 1345.54678,29.1372614 1349.10175,27.9193548 C1350.08266,27.5836076 1351.13928,27.3762344 1352.17614,27.3136932 C1362.66331,26.6619487 1373.15705,26.0529954 1383.64751,25.4440421 C1384.4375,25.4012508 1385.22749,25.4111257 1386.0142,25.4506254 C1391.0109,25.7106649 1392.23539,26.823239 1393.1011,31.9252798 C1393.26897,32.9226465 1393.33151,33.9364714 1393.44343,34.9535879" id="Fill-32" fill="#FFFFFF"></path>
            <path d="M298.073733,26.1737986 C300.292298,32.875576 301.05925,39.0934826 300.842001,45.4562212 C300.680711,50.1863068 300.545754,54.9163924 300.555629,59.6464779 C300.562212,62 300.766294,64.3798552 301.167874,66.7004608 C301.58262,69.0967742 303.304147,70.2916392 305.789335,69.7814352 C308.597103,69.198815 311.306122,68.1290323 314.094141,67.4246215 C317.899276,66.4634628 321.727452,65.5549704 325.572087,64.7880184 C329.383805,64.034233 332.24424,65.4792627 334.275181,69.445688 C333.504937,70.7129691 332.945359,72.7899934 331.605662,73.6556945 C326.118499,77.1909151 320.605003,80.7360105 314.321264,82.8327847 C307.362739,85.1533904 301.513496,84.1494404 295.150757,79.8176432 C288.060566,74.9822251 285.957209,68.761027 285.792627,61.0750494 C285.730086,58.194865 285.871626,55.2949309 286.105332,52.4213298 C286.734036,44.7748519 286.855826,37.1711652 284.475971,29.7682686 C283.863726,27.8591178 283.837393,26.2692561 285.022383,24.5806452 C286.701119,22.1909151 288.379855,21.3054641 291.036208,22.3752469 C293.42923,23.3364055 295.608295,24.8176432 298.073733,26.1737986" id="Fill-34" fill="#FFFFFF"></path>
            <path d="M624.457209,76.2876893 C628.5158,75.596445 631.837064,75.0138249 635.164911,74.4707044 C636.458525,74.2633311 637.768598,73.9769585 639.065504,74.0032916 C641.718565,74.0559579 644.193878,74.5266623 646.218236,76.636603 C648.29526,78.8025016 647.060895,81.0539829 646.879855,83.5556287 C641.372943,87.558262 635.072745,89.839368 628.212969,90.761027 C623.594799,91.3831468 620.066162,89.7307439 617.27156,86.0506912 C611.577024,78.5490454 607.817972,70.3001975 607.525016,60.7709019 C607.288018,53.1277156 606.399276,45.6030283 604.565833,38.1803818 C604.190586,36.6629361 603.986504,35.0664911 603.976386,33.5029625 C603.963463,31.3436471 604.48025,29.3522054 606.70869,28.2626728 C608.798881,27.2455563 610.823239,27.6339697 613.05497,29.8558262 C615.708032,32.4957209 617.729098,35.5766952 618.272219,39.355497 C619.388084,47.1435155 620.382159,54.9479921 621.438776,62.7393022 C621.863397,65.8564845 622.235352,68.9835418 622.804806,72.0776827 C623.028637,73.3120474 623.719882,74.4608295 624.457209,76.2876893" id="Fill-36" fill="#FFFFFF"></path>
            <g id="Group-40" transform="translate(1420.967126, 3.291639)">
                <mask id="mask-4" fill="white">
                    <use xlink:href="#path-3"></use>
                </mask>
                <g id="Clip-39"></g>
                <path d="M11.9855168,20.8258723 C6.52468729,20.9707044 3.92758394,17.7942725 1.36339697,14.9371297 C0.629361422,14.1175115 0.803818302,11.7804477 1.43910467,10.6119157 C2.24226465,9.13396972 3.76300197,7.81073074 5.2837393,6.99440421 C12.7886768,2.95227123 21.0934826,1.72778144 29.3851218,0.555957867 C31.1329822,0.309084924 32.6273864,1.14516129 33.2857143,2.60994075 C34.2402897,4.72646478 35.0829493,7.06682028 33.5457538,9.32488479 C32.9664253,10.1675444 32.2258065,10.9707044 31.3930217,11.5566162 C26.0375247,15.3189598 20.0796577,17.9588545 14.0954575,20.5164582 C13.1705069,20.9081633 12.0480579,20.819289 11.9855168,20.8258723" id="Fill-38" fill="#FFFFFF" mask="url(#mask-4)"></path>
            </g>
        </g>
    </g>
</svg>