<?xml version="1.0" encoding="UTF-8"?>
<svg width="250px" height="110px" viewBox="0 0 250 110" version="1.1" xmlns="http://www.w3.org/2000/svg" xmlns:xlink="http://www.w3.org/1999/xlink">
    <!-- Generator: Sketch 59.1 (86144) - https://sketch.com -->
    <title>Res / Button / Devenir Bénévole / White_Yellow</title>
    <desc>Created with Sketch.</desc>
    <defs>
        <polygon id="path-1" points="0.18164686 0.716145924 12.802 0.716145924 12.802 18.2239 0.18164686 18.2239"></polygon>
        <polygon id="path-3" points="0.380110923 0.523802938 11.4186074 0.523802938 11.4186074 20 0.380110923 20"></polygon>
        <polygon id="path-5" points="0.000237949091 0.623 20.2125327 0.623 20.2125327 24.1686695 0.000237949091 24.1686695"></polygon>
    </defs>
    <g id="Res-/-Button-/-Devenir-Bénévole-/-White_Yellow" stroke="none" stroke-width="1" fill="none" fill-rule="evenodd">
        <g id="Group">
            <g id="Cercle" fill="#FFDD00" fill-rule="nonzero">
                <path d="M82.9249334,105.667938 L83.6666077,104.43251 C91.5424828,104.997277 99.4889936,105.562044 107.400187,106.056215 C115.399716,106.72562 123.435879,106.843559 131.451626,106.409194 C127.310426,105.658802 123.12009,105.210512 118.913798,105.067873 C111.603008,104.503106 104.292218,103.832446 96.981428,103.232381 C93.944095,103.020593 90.8714441,102.985295 87.8341111,102.597018 C82.2538947,101.855762 76.6736782,100.973313 71.0934618,99.8437797 C71.8334695,99.7735033 72.5784771,99.7735033 73.3184848,99.8437797 L90.1297698,102.032251 L91.9309789,102.244039 C105.69032,103.296923 119.498951,103.556205 133.288153,103.020593 C141.340617,102.597018 149.393081,101.855762 157.410228,100.655632 C167.193191,99.0078845 176.874209,96.8040716 186.406162,94.0549196 C190.75064,92.6167384 195.017995,90.9555285 199.191215,89.0779119 C200.427339,88.6190388 201.734099,88.018974 201.769417,86.0422901 C201.209064,86.1073982 200.654257,86.213578 200.109479,86.3599714 C197.354688,87.2071217 194.599898,88.1601658 191.80979,89.007316 C186.988228,90.4087747 182.045542,91.3542105 177.046939,91.8311502 C171.396087,92.3606191 165.780552,92.6077046 160.165018,92.8194922 C150.982383,93.1371735 141.799749,92.8194922 132.617114,93.0312797 C126.050395,92.874845 119.496118,92.3800167 112.980403,91.5487668 C108.106543,91.1251917 103.197365,91.2310854 98.3235053,91.1251917 L98.3235053,91.1251917 C94.9608576,89.4439488 91.1358926,88.9226565 87.445615,89.6426787 L87.6928398,91.0192979 C83.9115261,93.0229929 79.4032492,93.1146794 75.5435078,91.2663834 L75.8613682,90.489829 L75.6494613,91.3722771 C66.5366419,90.6794187 57.6175842,88.3851904 49.3023634,84.5950751 C46.0178056,83.0772642 42.6626122,81.6653471 39.3780544,80.1122383 C37.8947057,79.3709818 36.5173105,78.4179378 35.1045975,77.5354896 C35.1045975,77.5354896 34.8220549,77.2531062 34.8573727,77.1825103 C35.2105509,76.4059559 35.3518222,76.9001269 35.4930935,77.1825103 L36.2700857,77.1825103 L36.6938996,77.1825103 C36.6938996,77.1825103 36.6938996,76.9001269 36.6938996,76.9001269 C36.6938996,76.9001269 36.1994501,76.9001269 36.0228609,76.9001269 C35.8193243,77.0879377 35.6412263,77.3015349 35.4930935,77.5354896 L35.8462718,76.0529766 C31.5374971,72.0290129 27.0521332,68.0050492 27.7584897,61.0513575 C25.7806915,61.757316 27.4053115,63.4163186 26.3457767,64.1575751 C26.3457767,63.9457875 26.0279163,63.7339999 26.0279163,63.5222124 C25.9508136,61.5421004 26.0334894,59.5589986 26.2751411,57.5921606 C26.8314048,54.3750858 27.8922179,51.2659148 29.4184275,48.3794015 C33.7879615,39.9954799 40.051724,32.7442443 47.7130612,27.200645 C51.2448438,24.6238963 54.5647194,21.6941683 58.8381763,18.2349714 L48.2428286,20.7411243 L48.2428286,20.7411243 C48.1868072,19.5072933 48.9702156,18.3908403 50.1499912,18.0231839 C52.410332,16.9289481 54.7413085,15.9406062 57.2135563,15.058158 C58.3437267,14.5992849 59.4385793,14.2816036 60.0036645,13.0461761 L60.0036645,13.0461761 C64.0335517,12.6550382 67.9973608,11.7536018 71.7998183,10.3635336 C72.7779992,9.98845312 73.7810896,9.68179834 74.8018335,9.44578751 C79.2871973,8.70453104 83.7725612,8.10446627 88.2226072,7.46910357 C93.8015064,6.8293498 99.2400882,5.29167044 104.327536,2.91567093 L104.327536,2.91567093 C106.383361,3.49568938 108.541752,3.61620192 110.649426,3.26865021 L111.320465,1.60964762 L111.320465,1.60964762 C116.234606,0.93325446 121.205651,0.767646292 126.153952,1.11547663 C133.782602,1.3272642 141.411253,1.82143518 149.039903,2.13911653 C151.33245,2.10490797 153.613947,2.46305644 155.785608,3.19805435 C158.301109,4.22225538 161.119998,4.20956483 163.626165,3.16275642 C165.670844,2.43315555 167.814124,2.01664143 169.983374,1.92732896 L170.866319,0.0918367347 L173.974288,1.04488078 C175.094425,1.56323742 176.385933,1.56323742 177.50607,1.04488078 C177.901304,0.817558788 178.365973,0.742249509 178.81283,0.833093211 C184.075186,1.99792482 189.408178,1.29196627 194.811805,2.20971238 L195.694751,2.38620202 C198.802719,2.98626679 198.802719,2.98626679 201.204331,6.19837819 L200.286068,8.21036005 C200.533293,8.5280414 200.709882,9.05751031 201.027742,9.26929787 C202.452569,10.1630553 203.926463,10.9761862 205.44247,11.7048549 C207.138788,12.3793815 208.722641,13.3077344 210.139741,14.4580932 C211.021177,15.0281893 211.98643,15.456949 213.000485,15.7288186 C214.576678,16.2899359 216.110982,16.9622899 217.591802,17.7408005 C218.192206,18.0937797 218.156888,19.3998031 218.757291,19.8233782 C220.240639,20.882316 221.900577,21.6941683 223.631151,22.6825103 C224.196968,22.578982 224.752464,22.4254207 225.291088,22.2236373 C227.078453,21.4503611 229.139898,21.6644165 230.730034,22.7884041 C232.707832,23.9179378 234.579677,25.259259 236.522157,26.3181968 C237.405103,26.8829637 238.358684,27.3065388 239.312265,27.8007098 L239.312265,27.8007098 C240.025094,27.9367504 240.69989,28.2257858 241.290063,28.6478601 C243.410102,30.6112094 244.688284,33.3179118 244.857164,36.2016165 C244.970775,36.9363417 245.222424,37.6429565 245.598838,38.2841942 L249.059985,45.9791424 C249.343539,46.5232859 249.54582,47.106003 249.660388,47.7087409 C250.402062,53.8858782 250.296109,59.8865259 245.492885,64.7576398 C244.645257,65.6047901 243.832947,66.5578341 243.055955,67.4755803 C241.553893,69.1611253 240.358599,71.0964115 239.524172,73.1938445 C239.024222,74.6140429 238.099508,75.8462996 236.875335,76.7236373 C232.813785,79.1591942 229.81177,82.7948808 225.502995,85.0539481 C211.090805,93.0348027 195.638541,98.9746326 179.589822,102.702912 L168.994474,104.961979 C167.081083,105.52683 165.045107,105.52683 163.131715,104.961979 C162.142816,104.961979 161.083281,104.079531 159.917793,105.562044 L163.237669,104.891383 C162.320758,105.383302 161.363746,105.796593 160.376925,106.126811 C150.629871,108.019974 140.707394,108.860187 130.780587,108.632964 C124.0702,108.632964 117.359813,108.915347 110.649426,109.091837 C109.731163,109.091837 108.8129,109.091837 107.894636,109.091837 L88.6817389,107.997601 C87.1630724,107.997601 85.6444059,107.750515 84.9380494,105.950321 C84.7261425,105.45615 83.8785147,105.491448 83.3840651,105.950321 L82.9249334,105.667938 Z M175.24573,100.69093 L173.550474,101.89106 C174.963187,102.667614 174.927869,101.467484 175.24573,100.69093 L177.929884,101.220399 L177.929884,100.69093 L175.24573,100.69093 Z M31.8200397,52.8269404 C30.7605049,53.1093238 30.6545514,53.6740906 31.2902723,54.6977305 C31.4668614,53.9211761 31.5728149,53.3211113 31.6787684,52.7210466 C31.8448037,52.514118 31.9869724,52.2891443 32.1025823,52.050386 C32.1025823,52.050386 32.1025823,51.8738963 31.8906753,51.8033005 L31.8200397,52.8269404 Z M91.6131185,10.8930025 L85.4678168,12.4814093 C87.2768821,12.6336581 89.0984307,12.4420242 90.8361263,11.9166424 C91.1539867,11.9166424 91.3305759,11.2459818 91.5778006,10.8930025 L94.4738623,10.8930025 L94.4738623,10.681215 L91.6131185,10.8930025 Z M81.370949,10.681215 C79.7233052,11.7370388 77.7783216,12.2322968 75.8260504,12.0931321 C72.0430872,12.0158024 68.3331884,13.1405044 65.2307027,15.3052435 C64.7362532,15.5876269 63.747354,15.7288186 64.0652145,16.9642461 C64.9542301,16.9711859 65.8416756,16.8884043 66.7140514,16.7171606 C70.9168727,15.4464352 75.0490583,14.069816 79.2165617,12.7637927 C80.2684151,12.5142905 81.1048048,11.7188197 81.4062669,10.681215 C84.5204527,11.7368186 87.9599389,11.0947862 90.482948,8.98691445 C88.880054,8.4905478 87.1475227,8.62957778 85.6444059,9.37519166 C84.2316929,9.62227715 83.1015225,10.9988963 81.370949,10.681215 Z M223.843058,76.370658 C224.42233,76.3641205 224.996018,76.2566146 225.538313,76.0529766 C227.833972,74.5351658 230.129631,73.0173549 232.284018,71.3230544 C236.594071,68.1338023 240.120839,64.0054633 242.596823,59.2511632 C243.608168,57.7098907 243.940264,55.8205623 243.515086,54.0270699 C243.515086,53.7446865 243.055955,53.3917072 242.914683,53.4270051 C242.773412,53.4623031 241.855149,53.7446865 241.855149,53.956474 C241.22509,56.939146 239.740246,59.6741359 237.581692,61.8279119 C233.991946,66.7333442 229.653904,71.0451199 224.726003,74.6057616 C223.878375,74.6057616 222.783523,74.6057616 222.147802,75.0646347 C216.591672,78.8769207 210.677489,82.1397102 204.488889,84.8068626 C204.171029,84.9833523 204.029757,85.4422253 203.464672,86.2540777 C204.306507,86.2519811 205.146202,86.1692409 205.972238,86.0069922 C210.04713,84.2946141 213.939817,82.1779014 217.591802,79.6886632 C218.969198,78.8415129 220.06405,77.4295958 222.077166,77.817873 C222.606934,77.7472771 223.277972,76.9001269 223.843058,76.370658 Z M134.241734,7.15142223 C133.676649,7.15142223 132.934974,7.15142223 132.511161,7.71618907 C130.659026,9.32997211 128.078308,9.81611627 125.765456,8.98691445 C123.075752,8.54567724 120.33206,8.54567724 117.642356,8.98691445 C115.653229,9.07484521 113.793613,9.99772043 112.521271,11.5283652 C111.391101,13.081474 110.331566,12.7284948 108.989489,12.7637927 C107.647411,12.7990906 107.753365,10.8930025 106.411287,11.140088 C106.130299,11.1852988 105.884204,11.3535849 105.740249,11.5989611 C105.740249,11.8107487 105.740249,12.3402176 106.022791,12.3402176 C107.047008,12.3402176 108.071225,12.5520051 109.095442,12.622601 C108.433559,12.9885905 107.735172,13.2843505 107.01169,13.5050492 C104.610078,13.9639222 102.208466,14.2816036 99.9481253,14.7757746 C97.6508247,15.5258003 95.284702,16.046054 92.8845602,16.3288834 C90.468144,16.7032836 88.1223627,17.4411339 85.9269485,18.5173549 C81.6534916,19.6468885 77.4506704,20.9882098 73.2125313,22.0471476 C72.3622453,22.3500173 71.4663677,22.5052152 70.5636944,22.5060207 C68.869876,22.4826317 67.200191,22.9089533 65.7251523,23.7414481 C58.1791997,27.1247303 51.3103829,31.8488662 45.4527204,37.6841295 C40.9830859,41.8928357 37.4458697,46.9912531 35.0692796,52.6504507 C32.682799,58.2809353 34.1940146,64.8068487 38.8129692,68.8169015 C45.5686531,74.0938965 53.3512005,77.9048355 61.6636023,80.0063445 C70.5635782,82.282029 79.6168879,83.9099989 88.7523746,84.8774585 C100.442575,86.3599714 112.203411,87.1012279 124.0702,87.8424844 C136.288453,88.6543618 148.547168,88.6543618 160.765421,87.8424844 C165.921824,87.4542072 171.113544,86.8188445 176.234629,86.0422901 C183.633967,84.770719 190.878753,82.7239184 197.849138,79.9357487 C200.872602,78.8894627 203.802557,77.590618 206.607959,76.0529766 C213.46352,72.353442 219.686585,67.5874965 225.043864,61.9338056 C229.624524,57.2013246 233.225164,51.6114819 235.639211,45.4849714 C236.596222,43.5623246 236.870234,41.3714638 236.416204,39.2725362 C235.391987,37.3311502 232.884421,36.3428082 233.343553,33.4836761 C233.343553,33.0953989 232.74315,32.4600362 232.319336,32.071759 C231.127661,30.890719 229.865694,29.7826995 228.540328,28.7537538 C222.240282,24.1426365 215.496654,20.1696852 208.409168,16.8936502 C205.099826,14.9602665 201.41497,13.7567435 197.601913,13.3638575 C196.718968,13.3638575 195.341572,13.3638575 195.094348,11.8107487 L195.094348,11.8107487 C195.094348,11.4930673 195.412208,10.8930025 195.341572,10.8224067 C194.34641,10.1635881 193.280151,9.61891844 192.162968,9.19870202 C188.421627,8.00761232 184.502788,7.47026972 180.578721,7.61029528 C179.695776,5.42182378 179.307279,4.71586523 178.177109,4.50407767 C175.407991,3.72362098 172.455352,3.91039157 169.806784,5.03354658 C166.557544,4.25699218 166.557544,4.25699218 164.014661,6.02188855 C165.674599,6.02188855 167.087312,6.02188855 168.429389,6.02188855 C168.923839,6.02188855 169.312335,5.31593 169.736149,4.96295072 C170.936955,5.98659062 172.738164,6.7278471 171.890536,8.9163186 C170.230598,8.9163186 168.570661,8.9163186 166.910723,8.9163186 C163.295945,8.41056497 159.637448,8.29223371 155.997515,8.56333933 C154.48474,8.66355251 152.96535,8.56864417 151.476833,8.28095591 C148.784873,7.78728442 146.032387,7.71583156 143.318415,8.06916834 C141.234663,8.31625383 139.115594,8.35155176 137.031842,8.56333933 C135.901544,8.64963068 134.815523,8.10692623 134.206416,7.15142223 L135.054044,7.15142223 L134.241734,7.15142223 Z M109.060124,7.92797663 C110.885212,8.30948182 112.786475,8.034454 114.428434,7.15142223 C112.203411,5.98659062 110.649426,7.71618907 109.060124,7.99857249 L109.060124,7.92797663 Z M166.416273,90.5251269 L161.259871,90.5251269 C162.575194,90.9204641 163.950987,91.075901 165.321421,90.9839999 C165.694894,90.8799648 166.060719,90.7502293 166.416273,90.5957227 L166.416273,90.5251269 Z M139.256865,105.385554 L139.256865,105.985619 L142.294198,105.773832 L142.294198,105.562044 L139.256865,105.385554 Z M125.69482,2.80977715 C124.494014,1.82143518 123.540433,2.31560616 121.562635,2.80977715 L125.69482,2.80977715 Z M169.630195,89.7132746 L169.630195,90.2427435 L171.50204,90.2427435 L171.50204,89.7132746 L169.630195,89.7132746 Z M97.2286527,8.06916834 L97.2286527,7.78678492 L96.4163428,7.78678492 C96.4163428,7.78678492 96.4163428,7.99857249 96.4163428,7.99857249 L97.2286527,8.06916834 Z M165.462692,103.76185 L165.462692,103.58536 L164.367839,103.58536 L164.367839,103.76185 L165.462692,103.76185 Z M80.2760964,88.6543367 L80.0641895,88.3366554 L79.5697399,88.6543367 C79.5697399,88.6543367 79.7816469,88.9014222 79.9229182,88.9014222 C80.0641895,88.9014222 80.1348251,88.7249326 80.2760964,88.6543367 Z M118.06617,2.73918129 L118.666573,2.45679787 C118.666573,2.45679787 118.419348,2.24501031 118.278077,2.28030824 C117.996559,2.24629935 117.711967,2.24629935 117.430449,2.28030824 L118.06617,2.73918129 Z M48.2781464,30.6951398 C48.2781464,30.6951398 48.5253712,30.6951398 48.560689,30.6951398 C48.6803516,30.6149639 48.7775932,30.5056288 48.8432316,30.3774585 C48.8611227,30.2486504 48.8611227,30.1179894 48.8432316,29.9891813 L48.2781464,30.6951398 Z M159.070165,6.41016575 L159.458661,6.19837819 C159.21049,6.0582366 158.950496,5.94012409 158.681669,5.84539891 C158.681669,5.84539891 158.434445,5.84539891 158.293173,6.0924844 L159.070165,6.41016575 Z M74.5899265,15.3052435 L74.9431048,15.517031 L74.9431048,15.1993497 L74.5899265,15.3052435 Z" id="Shape"></path>
                <path d="M32.3335456,91.7276749 L30.5949005,91.7276749 L30.5949005,91.7276749 L28.572395,91.7276749 L28.572395,91.7276749 C28.113873,91.7987662 27.6470974,91.7987662 27.1885754,91.7276749 C23.4897145,90.3037902 19.9270389,88.5500636 16.5438095,86.4877905 C15.5640531,85.8442547 14.759444,84.9684271 14.201961,83.9386575 C13.3858623,82.7703049 12.4278333,81.35412 10.6537057,81.8851893 C10.6537057,81.0354784 10.6537057,80.221172 10.6537057,79.371461 C8.66668272,79.371461 8.48926996,76.8931373 6.75062486,76.5744957 C7.38931081,79.2652471 7.60220613,79.4422703 10.6537057,79.371461 L10.6537057,81.920594 L8.16992698,81.2833107 L7.95703166,82.2746402 C6.59725163,81.9964877 5.45116158,81.0895161 4.87004954,79.8317211 C3.69912529,78.0614899 2.7056138,76.2912587 1.71210232,74.2731951 C1.40528636,73.7616272 1.32803311,73.1449586 1.499207,72.5737732 C2.18204926,70.8322142 2.02506068,68.8741668 1.07341636,67.2630795 C-0.267724151,63.0350287 -0.353986355,58.5100613 0.82503849,54.2341778 C1.21534657,52.3931373 1.28631168,52.3931373 3.37978231,50.0918367 C3.94750316,50.6937153 3.73460784,51.1185708 3.13140444,51.5080217 L3.55719508,52.6055651 L3.30881721,51.5434263 C3.7700904,51.8266633 4.16039848,52.4639466 4.83456699,51.8974726 L6.25386911,50.5166922 C6.25386911,53.7739177 4.26684614,56.2168367 4.47974146,60.0051315 C6.46676443,57.1727616 5.79259592,54.1279639 8.02799677,52.4993512 C8.68971996,53.4718062 8.68971996,54.748717 8.02799677,55.721172 C5.90623336,60.9479617 6.92241176,66.9220255 10.6537057,71.1575882 C13.9295239,75.6190392 17.9361263,79.4971475 22.5048784,82.6286864 C29.0947876,87.1714672 36.3809285,90.6152171 44.0782707,92.8252182 C51.3876766,95.0203049 58.8390128,96.89675 67,99.0918367 C65.5473054,99.0500525 64.1000286,98.8961732 62.6711285,98.6315766 L41.7009396,93.6749292 C40.3394235,93.4669607 38.9616633,93.3840026 37.5849635,93.4270969 C36.3387898,93.4932092 35.1844159,94.1014836 34.4270163,95.0911142 L34.4270163,95.0911142 C34.0041595,94.8434681 33.730441,94.4041252 33.695004,93.9161686 C33.659567,93.4282121 33.8669463,92.9540836 34.2496035,92.6481951 L34.2496035,92.6481951 L35.243115,92.2233396 L34.2496035,91.5860564 L34.2496035,91.5860564 C33.5399524,91.054987 32.8657839,90.8779639 32.1916154,91.5860564 L32.3335456,91.7276749 Z" id="Path"></path>
                <path d="M98.5782106,91.0918367 C99.5237348,91.484486 100.5207,91.7600678 101.543518,91.9115089 C107.605136,92.5233121 113.697019,92.8406842 119.794279,92.8623285 C128.124263,93.7525053 136.518975,94.004722 144.893488,93.6164269 C145.49856,93.6340887 146.100888,93.6999035 146.693853,93.8131482 C147.147146,93.9467095 147.584751,94.1224654 148,94.3377384 C147.147879,94.577807 146.273219,94.7424748 145.387705,94.8295417 C137.762629,94.8295417 130.137553,94.8295417 122.512477,94.8295417 C120.217894,94.8295417 117.958612,94.3049515 115.69933,94.2065908 C114.251978,94.2065908 112.592818,93.5508531 111.498478,95.0918367 C111.1189,95.049168 110.749306,94.9495092 110.404139,94.7967548 C109.909921,94.6328203 109.133293,94.1410171 108.921485,94.3049515 C107.474133,95.3213449 105.956178,94.5016728 104.508825,94.6000335 C103.061473,94.6983941 101.296409,93.026263 99.6019477,94.4033121 L94.1302495,93.7803613 C92.9433496,93.6708942 91.7645437,93.4957192 90.6001217,93.2557712 C90.3883141,93.2557712 90.2824102,92.6000335 90,91.9442958 L98.754717,91.2557712 L98.5782106,91.0918367 Z" id="Path"></path>
                <path d="M59.7205056,12.5946741 L56.3328795,13.0918367 C55.5537255,12.2750696 56.3328795,11.6003489 56.7393946,11.2452327 C61.6027833,8.09664495 67.3054397,6.67688218 73,7.19690847 L73,7.19690847 C71.9498359,8.65288473 70.2560228,8.72390796 68.8332199,9.11453574 C65.6306435,9.91208319 62.5514312,11.1793168 59.6866293,12.878767 L59.7205056,12.5946741 Z" id="Path"></path>
                <path d="M23.1050584,36.0918367 C23.1050584,35.7388956 23.1050584,35.2255266 23.4902724,35.0330132 C26.0116732,33.364564 28.5680934,31.8244571 31.1595331,30.0918367 C31.1595331,30.0918367 31.7198444,30.0918367 32,30.0918367 L32,30.0918367 C32,30.3164357 32,30.7014624 32,30.8298046 C29.3541003,33.0222785 26.3076122,34.7708866 23,35.9955801 L23.1050584,36.0918367 Z" id="Path"></path>
                <path d="M83,105.508603 C80.69,105.298603 78.17,106.348603 76,104.488603 C76.8137291,103.547786 78.326704,103.288419 79.5,103.888603 C80.7017568,104.370947 81.870333,104.911831 83,105.508603 L83,105.508603 Z" id="Path"></path>
                <path d="M63,102.126837 L70,102.126837 L70,102.516837 C69.4217841,102.785538 68.7945359,102.968133 68.145,103.056837 C66.78,102.936837 65.38,102.606837 63,102.126837 Z" id="Path"></path>
                <path d="M78.0340426,5.46642762 C80.3020493,3.94358127 83.2135716,3.37340814 86,3.90642762 L86,3.90642762 C83.5205361,5.00089078 80.7719628,5.53686256 78,5.46642762 L78.0340426,5.46642762 Z" id="Path"></path>
                <path d="M39.1142857,97.7169836 C38.4971429,97.3269836 37.5028571,97.7169836 37.1257143,96.6069836 C37.1257143,96.1569836 35.7542857,96.0069836 35,95.7669836 L35,95.7669836 C37.0748744,95.0661013 39.4269092,95.5012278 41,96.8769836 L41,96.8769836 C40.28,97.0269836 39.3542857,96.8769836 39.0457143,97.7469836 L39.1142857,97.7169836 Z" id="Path"></path>
                <path d="M41.8909091,19.0918367 C40.5454545,20.9609956 38.2545455,21.4095937 36,23.0918367 C38.6181818,19.8395003 39.1636364,19.353519 42,19.353519 L41.8909091,19.0918367 Z" id="Path"></path>
                <path d="M5.405,46.8314153 C5.74217553,45.7175139 6.53899799,44.8006223 7.595,44.3114153 C6.965,46.9814153 6.965,46.9514153 5.405,46.8314153 Z" id="Path"></path>
                <path d="M91.1004785,3.02827556 C93.2932959,2.2625446 95.6635377,1.99458564 98,2.24827556 L98,2.24827556 C95.7894737,3.38827556 93.3444976,2.72827556 91,2.99827556 L91.1004785,3.02827556 Z" id="Path"></path>
                <polygon id="Path" points="122 95.5918367 126 95.5918367 126 95.5918367"></polygon>
                <path d="M39,24.827169 C39.3902439,22.697169 40.9837398,22.247169 43,22.337169 L43,22.337169 L39.0650407,24.857169 L39,24.827169 Z" id="Path"></path>
                <path d="M32,28.8342117 C32.7301587,27.1242117 34.5396825,27.0042117 36,26.3142117 L36,26.3142117 C36,26.6442117 36,27.1242117 36,27.3042117 C35.0682514,28.3539662 33.6703657,28.9312108 32.2222222,28.8642117 L32,28.8342117 Z" id="Path"></path>
                <path d="M86,3.99501428 C87.8949336,3.36329469 89.9506598,3.09605028 92,3.21501428 L92,3.21501428 C91.1544643,3.47957727 90.283793,3.69024187 89.3962264,3.84501428 C88.3074986,3.95472249 87.2105766,4.00484047 86.1132075,3.99501428 L86,3.99501428 Z" id="Path"></path>
                <path d="M99.0316456,2.88385699 C100.585906,2.10513631 102.44574,2.10513631 104,2.88385699 L104,2.88385699 L99,2.88385699 L99.0316456,2.88385699 Z" id="Path"></path>
                <path d="M21.82,36.5718367 C21.118572,37.5321281 20.1315587,38.2461378 19,38.6118367 C20.38,36.9918367 20.38,36.9918367 22,36.6618367 L21.82,36.5718367 Z" id="Path"></path>
                <path d="M32.13,74.2987593 L30.87,73.0687593 C32.07,72.3787593 31.92,73.8187593 32.13,74.2987593 Z" id="Path"></path>
                <path d="M16.9131824,39.9068367 L16.1031824,39.9068367 C16.0813627,39.7979188 16.0813627,39.6857547 16.1031824,39.5768367 C16.2831824,39.5768367 16.5231824,39.3968367 16.7031824,39.2768367 L16.9131824,39.9068367 Z" id="Path"></path>
                <path d="M74,7.00659507 C75.1464842,6.3222655 76.5900405,6.04077203 78,6.22659507 L78,6.22659507 C76.953271,7.33659507 75.4579439,6.91659507 74.2616822,7.00659507 L74,7.00659507 Z" id="Path"></path>
                <path d="M43.7719754,22.8518367 C43.5019754,22.1318367 43.9519754,21.7718367 44.4319754,21.3518367 C44.7523205,21.0389358 45.0435217,20.6975275 45.3019754,20.3318367 L45.3019754,20.3318367 C45.5419754,21.6818367 44.8219754,22.3418367 43.6519754,22.7018367 L43.7719754,22.8518367 Z" id="Path"></path>
                <path d="M41.135,97.1268367 C42.125,97.2768367 43.295,96.9468367 43.865,98.1468367 L43.865,98.1468367 L41.135,97.8468367 L41.135,97.0368367 L41.135,97.1268367 Z" id="Path"></path>
                <path d="M112.51,95.5768367 C112.891263,95.4454188 113.282541,95.3450909 113.68,95.2768367 C113.89,95.2768367 114.1,95.4868367 114.49,95.6668367 C114.099948,95.7903559 113.697555,95.8708346 113.29,95.9068367 C113.08,95.7568367 112.87,95.5768367 112.51,95.5768367 Z" id="Path"></path>
                <path d="M44.825,97.4868367 L46.175,97.4868367 L46.175,97.6968367 L44.915,97.5468367 C44.915,97.5468367 44.825,97.4868367 44.825,97.4868367 Z" id="Path"></path>
                <polygon id="Path" points="239.62 26.8918367 239.62 26.8918367 239.38 26.2918367"></polygon>
                <path d="M31.28,92.3595548 C30.71,93.0795548 30.17,92.8695548 29.63,92.3595548 L29.63,92.3595548 L31.37,92.3595548 L31.28,92.3595548 Z" id="Path"></path>
                <polygon id="Path" points="35.31 92.9518367 33.63 92.1418367 33.63 92.1418367 35.37 92.1418367 35.37 92.1418367 35.37 93.0418367"></polygon>
                <path d="M38.58,25.5504128 C37.86,25.7604128 37.2,26.3004128 36.42,25.7604128 L36.42,25.7604128 C36.6619163,25.4413238 37.0257726,25.2373746 37.4242118,25.1975307 C37.8226509,25.1576868 38.2196881,25.2855466 38.52,25.5504128 L38.58,25.5504128 Z" id="Path"></path>
                <polygon id="Path" points="41.31 97.5918367 39.66 97.5918367 41.34 97.5918367"></polygon>
                <path d="M47.61,19.3473681 C46.83,20.1273681 46.08,19.8573681 45.3,19.3473681 L45.3,19.3473681 L47.7,19.3473681 L47.61,19.3473681 Z" id="Path"></path>
                <path d="M41.125,19.9668367 L41.515,19.2168367 L41.965,19.4868367 C41.7717576,19.6177559 41.5714546,19.7379378 41.365,19.8468367 C41.365,19.8468367 41.155,19.8468367 41.035,19.8468367 L41.125,19.9668367 Z" id="Path"></path>
                <polygon id="Path" points="110.815 1.48683673 110.185 1.69683673 110.395 1.69683673 110.725 1.69683673"></polygon>
                <path d="M181,9.0364828 L177,9.0364828 C177,7.9564828 177.622951,8.1364828 178.114754,8.1964828 C178.606557,8.2564828 180.016393,8.4964828 180.967213,8.6764828 L181,9.0364828 Z" id="Path"></path>
                <path d="M116.975,10.6408766 C117.176155,10.5533885 117.387988,10.4928647 117.605,10.4608766 C117.605,10.4608766 117.875,10.4608766 118.025,10.7008766 C117.90678,10.7301037 117.78322,10.7301037 117.665,10.7008766 C117.433455,10.7075825 117.201912,10.6874483 116.975,10.6408766 L116.975,10.6408766 Z" id="Path"></path>
                <path d="M123.875,10.4656623 C123.875,10.4656623 123.875,10.7056623 123.875,10.7056623 C123.625271,10.7221275 123.374729,10.7221275 123.125,10.7056623 C123.125,10.7056623 123.125,10.5256623 123.305,10.5256623 L123.875,10.4656623 Z" id="Path"></path>
                <polygon id="Path" points="175.38 6.48683673 175.62 6.60683673 175.38 6.69683673"></polygon>
            </g>
            <g id="Group-40" transform="translate(74.000000, 20.000000)">
                <path d="M16.467,36.8988277 C16.585,37.4748277 16.674,37.9058277 16.781,38.4248277 C17.864,37.8328277 18.454,37.0398277 19.022,35.9848277 C18.122,36.3068277 17.368,36.5768277 16.467,36.8988277 M18.173,48.5278277 C19.347,48.1658277 20.102,47.3088277 20.765,46.3708277 C21.041,45.9808277 20.933,45.5128277 20.62,45.1508277 C19.747,44.1388277 18.58,43.5868277 17.279,42.9318277 C17.179,44.9728277 17.731,46.7088277 18.173,48.5278277 M10.351,38.8018277 C10.396,38.3568277 10.42,38.1248277 10.448,37.8458277 C10.294,37.8278277 10.135,37.7708277 9.991,37.7978277 C8.692,38.0448277 8.693,38.0488277 8,36.9938277 C8.025,36.9268277 8.06,36.8618277 8.073,36.7938277 C8.329,35.4668277 9.319,35.0158277 10.468,34.6168277 C12.535,33.8988277 14.643,33.3778277 16.789,32.9788277 C18.301,32.6968277 19.787,32.6448277 21.245,33.2388277 C21.501,33.3428277 21.784,33.3788277 22.023,33.4388277 C22.314,33.9768277 22.592,34.4908277 22.895,35.0518277 C22.628,37.2208277 21.272,38.8108277 19.679,40.3228277 C19.899,40.4508277 20.056,40.5668277 20.231,40.6388277 C21.778,41.2768277 23.014,42.2928277 24.005,43.6368277 C24.503,44.3128277 24.738,45.0368277 24.688,45.8678277 C24.584,47.5808277 24.047,49.0778277 22.505,50.0158277 C21.019,50.9198277 19.511,51.7888277 17.992,52.6378277 C17.384,52.9768277 16.731,53.2398277 16.084,53.5038277 C15.147,53.8878277 14.212,54.0728277 13.182,53.7358277 C12.778,53.6038277 12.254,53.8478277 11.782,53.9098277 C11.153,53.9928277 9.974,53.2528277 9.972,52.6928277 C9.97,52.2538277 10.079,51.7638277 10.297,51.3878277 C10.572,50.9148277 11.104,50.9598277 11.596,51.0708277 C11.708,51.0968277 11.832,51.0748277 11.952,51.0748277 C12.405,49.9828277 13.637,50.4588277 14.422,49.7898277 C14.234,49.1978277 14.006,48.5428277 13.818,47.8768277 C13.26,45.9078277 12.989,43.9108277 13.064,41.8508277 C13.11,40.5938277 12.94,39.3298277 12.858,37.9078277 C11.964,38.2268277 11.246,38.4828277 10.351,38.8018277" id="Fill-1" fill="#FFFFFF"></path>
                <path d="M43.3186,38.5214277 C44.0986,41.1654277 45.0066,43.5104277 46.1676,45.7564277 C46.2736,45.9624277 46.3676,46.1754277 46.5256,46.5084277 C46.8916,45.7294277 47.0226,44.0264277 46.9756,43.1984277 C46.9026,41.8834277 46.8706,40.5664277 46.8296,39.2504277 C46.7986,38.2624277 47.5776,37.9474277 48.3376,37.4524277 C48.8876,37.9554277 49.4456,38.4344277 49.9616,38.9554277 C50.1126,39.1084277 50.2126,39.3754277 50.2196,39.5954277 C50.2826,41.3414277 50.3146,43.0884277 50.3616,44.8354277 C50.3776,45.4244277 50.3496,46.0224277 50.4436,46.5994277 C50.6356,47.7914277 50.4476,48.9644277 50.3376,50.1384277 C50.2926,50.6074277 50.0496,51.0584277 49.8566,51.6434277 L49.8566,53.8964277 C49.1716,53.7754277 48.6006,53.6414277 48.3236,54.4544277 C47.9446,54.0944277 47.6656,53.8294277 47.3776,53.5554277 C46.3366,53.8744277 45.9326,53.8244277 45.3626,52.9744277 C44.8166,52.1584277 44.4286,51.2374277 43.9566,50.3724277 C43.7566,50.0064277 43.5156,49.6634277 43.1966,49.1544277 C42.6366,50.3624277 42.9106,51.4904277 42.6646,52.7004277 C42.3116,52.4054277 42.0766,52.2084277 41.7606,51.9444277 C41.6696,52.3134277 41.5906,52.6274277 41.4746,53.0954277 C41.2026,52.7084277 40.9906,52.4064277 40.7356,52.0434277 C40.3156,52.0904277 39.8546,52.1424277 39.3306,52.2014277 C38.3736,49.8074277 38.1026,47.3614277 38.2796,44.8574277 C38.3636,43.6674277 38.5046,42.4774277 38.6876,41.2974277 C38.7776,40.7174277 38.9646,40.1324277 39.2226,39.6074277 C39.3616,39.3274277 39.7266,39.1294277 40.0286,38.9684277 C40.4096,38.7644277 40.8206,38.5364277 41.2356,38.4964277 C41.9196,38.4294277 42.6176,38.5054277 43.3186,38.5214277" id="Fill-3" fill="#FFFFFF"></path>
                <path d="M65.8752,41.5526277 C64.0542,42.6786277 62.0672,43.0186277 60.0522,43.2586277 C59.8132,43.2866277 59.5742,43.2966277 59.3352,43.3196277 C58.0982,43.4356277 58.0652,43.4606277 58.0052,44.6596277 C57.9802,45.1336277 58.0012,45.6096277 58.0012,46.2416277 C58.5802,46.1436277 59.1502,46.0466277 59.7222,45.9506277 C60.7422,45.7796277 61.7612,45.6016277 62.7832,45.4426277 C63.2782,45.3656277 63.6812,45.5396277 63.7872,46.0576277 C63.8942,46.5756277 64.1892,47.1536277 63.5532,47.5726277 C63.2532,47.7696277 62.9212,47.9436277 62.6842,48.2006277 C62.5332,48.3646277 62.5302,48.6636277 62.4132,49.0706277 C61.1752,49.9486277 59.4612,49.9786277 57.9162,50.3456277 C57.8342,50.4846277 57.7572,50.5536277 57.7602,50.6196277 C57.8602,53.2526277 58.2132,52.9456277 60.2002,52.4366277 C60.9702,52.2396277 61.7112,51.9356277 62.4692,51.6956277 C62.8492,51.5756277 63.2372,51.4846277 63.6242,51.3906277 C64.3922,51.2056277 64.9232,51.5396277 65.3312,52.1656277 C65.6772,52.6936277 65.7712,53.1846277 65.2082,53.6296277 C65.1782,53.6536277 65.1342,53.6916277 65.1362,53.7216277 C65.2052,55.3326277 63.7832,55.4016277 62.8242,55.9156277 C62.3772,56.1556277 61.8382,56.2146277 61.3582,56.4026277 C59.4032,57.1656277 57.5792,56.6776277 55.8862,55.6996277 C54.5382,54.9226277 53.8122,53.6356277 53.7262,52.0596277 C53.6542,50.7866277 53.6272,49.5106277 53.6191774,48.2366277 C53.6172,47.8086277 53.7482,47.3826277 53.7942,46.9516277 C53.9572,45.4046277 54.1232,43.8566277 54.2652,42.3066277 C54.4012,40.8056277 55.6422,39.5346277 57.1192,39.5106277 C58.1462,39.4946277 59.1772,39.6056277 60.2062,39.6346277 C61.0442,39.6586277 61.8842,39.6256277 62.7212,39.6566277 C63.3162,39.6786277 63.9152,39.7306277 64.5022,39.8306277 C65.7762,40.0496277 65.7802,40.0736277 65.8752,41.5526277" id="Fill-5" fill="#FFFFFF"></path>
                <path d="M85.3489,50.0268277 C85.5089,50.5198277 85.6459,51.1868277 85.9369,51.7778277 C86.5329,52.9848277 87.5359,53.2518277 88.5629,52.3838277 C90.2619,50.9478277 91.5139,49.2008277 91.7359,46.8878277 C91.7569,46.6558277 91.7879,46.2298277 91.7389,46.2178277 C91.2249,46.0968277 91.1839,45.5248277 90.8019,45.3028277 C90.7439,45.2688277 90.6229,45.2448277 90.5889,45.2768277 C89.9899,45.8458277 89.3279,45.3118277 88.7059,45.3968277 C88.3309,45.4488277 87.8809,45.4488277 87.6069,45.6588277 C86.2399,46.7028277 85.6409,48.1808277 85.3489,50.0268277 M81.0889,50.2248277 C81.1629,47.9658277 81.8729,45.9548277 83.1279,44.1478277 C84.1249,42.7108277 85.5089,41.6978277 87.1169,41.0178277 C87.6769,40.7798277 88.2569,40.8458277 88.8609,41.0578277 C89.4429,41.2618277 90.0939,41.2638277 90.7089,41.3838277 C91.4829,41.5348277 92.2499,41.7118277 93.0199,41.8848277 C93.0919,41.9008277 93.1769,41.9508277 93.2179,42.0108277 C94.0039,43.1548277 94.9659,44.1028277 94.958938,45.7508277 C94.9519,47.8278277 94.1229,49.5998277 93.5509,51.4808277 C93.4719,51.7408277 93.3769,52.0108277 93.3719,52.2778277 C93.3599,52.9048277 93.5159,53.5198277 93.0639,54.1078277 C92.3549,55.0268277 91.6199,55.8548277 90.4689,56.2498277 C89.3749,56.6258277 88.3209,57.0688277 87.1189,56.7628277 C84.5319,56.1028277 82.3149,54.9928277 81.4839,52.1928277 C81.2939,51.5538277 81.2179,50.8808277 81.0889,50.2248277" id="Fill-7" fill="#FFFFFF"></path>
                <path d="M36.6751,38.6283277 C35.8931,38.8133277 35.1601,38.7393277 34.6151,39.4893277 C34.3541,39.8503277 33.5241,39.8223277 32.9431,39.9233277 C32.1601,40.0603277 31.3661,40.1293277 30.5861,40.2733277 C30.1221,40.3583277 30.1301,40.3983277 30.1051,41.1893277 C31.7611,41.0483277 33.4261,40.8373277 35.0251,41.5213277 C35.5681,41.9153277 35.8141,42.4203277 35.6001,43.1823277 C35.4231,43.8103277 35.1911,44.2333277 34.5131,44.3713277 C33.3001,44.6193277 32.1001,44.9253277 30.8871,45.1743277 C29.7221,45.4143277 29.7071,45.3953277 29.6641,46.6273277 C29.6511,47.0153277 29.7181,47.4053277 29.7581,47.9253277 C30.1721,47.9013277 30.5161,47.9133277 30.8481,47.8573277 C31.6721,47.7163277 32.4941,47.5603277 33.3111,47.3833277 C34.5911,47.1063277 35.6551,47.4913277 36.5011,48.3223277 C36.4341,48.7773277 36.3491,49.1653277 36.3231,49.5563277 C36.2761,50.3033277 36.1251,50.8223277 35.2661,51.1733277 C34.2201,51.6013277 33.1291,51.9333277 32.1051,52.4813277 C31.1971,52.9653277 29.9711,53.0723277 28.9371,52.2443277 C28.3931,51.8093277 27.6431,51.6343277 27.0811,51.2143277 C25.8581,50.3003277 25.2251,48.9983277 25.2481,47.4933277 C25.2841,45.2183277 25.4521,42.9463277 25.5681,40.6743277 C25.5771,40.4753277 25.6461,40.2713277 25.6151,40.0803277 C25.4091,38.7613277 26.1161,37.7533277 26.9081,36.9003277 C27.3271,36.4493277 28.1581,36.1593277 28.7971,36.1703277 C31.1071,36.2083277 33.4151,36.3913277 35.7211,36.5503277 C36.4761,36.6023277 36.7701,36.9613277 36.7771479,37.7173277 C36.7791,37.9923277 36.7181,38.2673277 36.6751,38.6283277" id="Fill-9" fill="#FFFFFF"></path>
                <g id="Group-13" transform="translate(107.724400, 39.662228)">
                    <mask id="mask-2" fill="white">
                        <use xlink:href="#path-1"></use>
                    </mask>
                    <g id="Clip-12"></g>
                    <path d="M4.0317,4.8079 C4.2227,5.8299 4.3887,6.7169 4.5687,7.6729 C4.8457,7.6599 5.1157,7.6629 5.3817,7.6329 C6.6467,7.4909 7.9087,7.2949 9.1777,7.2039 C10.4187,7.1149 10.8137,7.5819 10.6687,8.7889 C10.6487,8.9459 10.6537,9.1069 10.6557,9.2659 C10.6627,9.7719 10.4627,10.0389 9.9257,10.1699 C8.6577,10.4789 7.4687,11.0629 6.1577,11.2459 C5.7407,11.3039 5.3427,11.4999 4.8627,11.6559 C5.1047,12.6609 5.3247,13.5749 5.5377,14.4609 C7.0577,14.8139 8.3997,14.3499 9.7607,14.1189 C10.7507,13.9509 11.7337,13.8449 12.8027,14.3549 L12.8027,16.2209 C10.1927,17.9069 7.3817,18.0669 4.4857,18.2239 C4.1787,17.4479 3.7567,16.7639 2.8357,16.5439 C2.6487,16.4989 2.4737,16.1299 2.4147,15.8819 C2.1917,14.9549 2.0127,14.0179 1.8297,13.0819 C1.4047,10.9269 1.0117,8.7669 1.0577,6.5559 C1.0647,6.2359 1.0197,5.9059 1.0877,5.5999 C1.2587,4.8399 1.1507,4.2139 0.5087,3.6849 C-0.0513,3.2239 0.2157,2.5829 0.5127,2.1769 C0.8097,1.7729 1.3427,1.4069 1.8297,1.3059 C3.0317,1.0569 4.2817,1.0399 5.4857,0.7959 C6.7787,0.5339 7.9087,0.9679 9.2217,1.3669 C9.1187,1.6809 9.0737,1.9709 8.9357,2.2079 C8.1487,3.5629 6.8057,4.0239 5.3967,4.3779 C4.9397,4.4929 4.4967,4.6599 4.0317,4.8079" id="Fill-11" fill="#FFFFFF" mask="url(#mask-2)"></path>
                </g>
                <g id="Group-16" transform="translate(97.724400, 40.662228)">
                    <mask id="mask-4" fill="white">
                        <use xlink:href="#path-3"></use>
                    </mask>
                    <g id="Clip-15"></g>
                    <path d="M4.6772,1.6961 C4.7362,3.1581 4.8472,4.7081 4.8482,6.2581 C4.8502,8.2941 4.7302,10.3311 4.7342,12.3671 C4.7362,13.2761 4.9122,14.1831 5.0272,15.2461 C5.6562,15.1211 6.2222,15.0101 6.7862,14.8971 C7.6462,14.7241 8.4982,14.4851 9.3652,14.3921 C10.3642,14.2861 11.0552,14.7821 11.3332,15.5761 C11.5012,16.0561 11.4302,16.4541 11.0412,16.7541 C10.5392,17.1421 10.0662,17.5151 9.7902,18.1361 C9.6662,18.4161 9.2722,18.6381 8.9512,18.7571 C7.8692,19.1581 6.7712,19.5151 5.6692,19.8631 C4.6142,20.1971 3.5842,19.8661 2.6682,19.4491 C2.1202,19.1991 1.6042,18.5641 1.3842,17.9841 C0.9782,16.9161 0.6742,15.7731 0.5582,14.6371 C0.3892,12.9771 0.3882,11.2961 0.3812,9.6231 C0.3712,7.2671 0.4332,4.9101 0.4392,2.5531 C0.4402,1.8921 0.5462,1.3351 1.1412,0.9271 C1.9482,0.3741 1.9062,0.3981 2.7802,0.9481 C3.2672,1.2551 3.8652,1.3851 4.6772,1.6961" id="Fill-14" fill="#FFFFFF" mask="url(#mask-4)"></path>
                </g>
                <path d="M81.5452,40.8422277 C81.5242,41.0992277 81.3912,41.4492277 81.4912,41.7082277 C82.0762,43.2112277 81.2652,44.2952277 80.4422,45.3672277 C80.1642,45.7302277 79.8392,46.0072277 80.1932,46.5012277 C80.2632,46.5972277 80.2012,46.8122277 80.1592,46.9602277 C79.7962,48.2552277 79.3872,49.5382277 79.0642,50.8422277 C78.7092,52.2672277 78.4332,53.7102277 78.1052,55.2252277 C77.8412,55.2662277 77.5462,55.3122277 77.2262,55.3622277 C77.1502,55.6372277 77.0782,55.9012277 76.9632,56.3252277 C76.5332,55.9442277 76.1612,55.6142277 75.7262,55.2282277 C75.3392,55.5232277 74.8992,55.5922277 74.5632,55.1132277 C73.9722,54.2712277 73.3112,53.4622277 72.8392,52.5552277 C71.4552,49.8942277 70.5292,47.0482277 69.6382,44.1942277 C69.5482,43.9052277 69.4942,43.5722277 69.5422,43.2802277 C69.6672,42.5162277 70.2462,41.9212277 70.8162,41.8832277 C72.0142,41.8022277 72.9342,42.4022277 73.2922,43.4372277 C73.8122,44.9382277 74.3642,46.4272277 74.9062,47.9212277 C74.9182,47.9552277 74.9592,47.9792277 75.0142,48.0352277 C76.2072,45.9042277 77.2012,43.7042277 77.9092,41.3762277 C78.4282,39.6732277 79.4122,39.7292277 80.6512,40.2482277 C80.9622,40.3792277 81.2252,40.6252277 81.5452,40.8422277" id="Fill-17" fill="#FFFFFF"></path>
                <path d="M39.1272,29.0761277 C39.0002,29.1191277 38.7592,29.1401277 38.7382,29.2191277 C38.5002,30.1281277 37.6542,30.1281277 37.0022,30.3811277 C35.8652,30.8221277 34.7112,31.2201277 33.5542,31.6071277 C32.4742,31.9691277 31.4462,31.8091277 30.4902,31.1921277 C30.3912,31.1281277 30.3022,30.9711277 30.2142,30.9741277 C29.0122,31.0251277 28.4382,30.3421277 28.2172,29.1061277 C28.5412,28.1601277 29.3262,27.6491277 30.4812,27.5561277 C32.3452,27.4061277 34.2042,27.1941277 36.0652,27.0141277 C36.2632,26.9951277 36.4652,26.9961277 36.6632,27.0121277 C38.0862,27.1181277 38.8222,27.0351277 39.1272,29.0761277" id="Fill-19" fill="#FFFFFF"></path>
                <path d="M58.1585,36.0614277 C57.7345,36.0254277 57.2585,36.1004277 56.8955,35.9314277 C55.9985,35.5154277 55.8475,34.4854277 56.5995,33.7534277 C56.9745,33.3904277 57.5105,33.0924277 58.0185,32.9834277 C60.4195,32.4684277 62.8485,32.6484277 65.2705,32.8184277 C65.5835,32.8404277 65.9115,32.9244277 66.1925,33.0614277 C67.0935,33.4944277 67.0625,34.0804277 66.3375,34.7674277 C65.0535,35.9834277 63.3585,35.9054277 61.8315,36.3224277 C60.9235,36.5704277 59.9375,36.5694277 58.9845,36.6034277 C58.7225,36.6124277 58.4505,36.3474277 58.1825,36.2074277 C58.1755,36.1594277 58.1665,36.1104277 58.1585,36.0614277" id="Fill-21" fill="#FFFFFF"></path>
                <g id="Group-25" transform="translate(0.000000, 0.377400)">
                    <mask id="mask-6" fill="white">
                        <use xlink:href="#path-5"></use>
                    </mask>
                    <g id="Clip-24"></g>
                    <path d="M10.018,9.7776 C10.139,12.5236 10.253,15.1486 10.372,17.8546 C11.183,17.6296 12.01,17.3606 12.854,17.1736 C14.293,16.8526 15.284,15.8916 16.209,14.8616 C16.759,14.2496 16.806,13.2666 16.338,12.7606 C14.66,10.9456 12.618,9.8646 10.018,9.7776 M7.33,18.3676 C7.067,18.3246 6.806,18.2826 6.655,18.2576 C5.346,16.6496 5.8,14.7956 5.634,13.0566 C5.472,11.3476 5.338,9.6346 5.232,7.9216 C5.197,7.3586 4.956,7.0416 4.442,6.8736 C4.101,6.7626 3.777,6.5716 3.429,6.5086 C2.42,6.3256 2.108,5.4356 1.651,4.7396 C1.27,4.1596 2.131,2.8486 2.884,2.7856 C3.43,2.7396 3.983,2.7766 4.65,2.7766 C4.65,2.5456 4.617,2.1956 4.657,1.8546 C4.789,0.7226 5.89,0.2186 6.709,0.9996 C7.524,1.7756 8.423,2.5696 8.606,3.7896 C8.709,4.4766 9.099,4.7576 9.722,5.0146 C11.97,5.9386 14.319,6.6876 16.28,8.1786 C17.286,8.9436 18.119,9.9296 19.088,10.7456 C19.936,11.4596 19.822,12.4996 20.132,13.3926 C20.231,13.6776 20.209,14.0096 20.212,14.3206 C20.22,15.0086 20.145,15.6546 19.498,16.1016 C19.251,16.2726 19.107,16.5846 18.884,16.7996 C18.317,17.3496 17.767,17.9246 17.146,18.4086 C16.435,18.9626 15.713,19.5646 14.895,19.9056 C13.434,20.5146 11.898,20.9496 10.391,21.4466 C7.906,22.2676 5.428,23.1106 2.925,23.8736 C2.331,24.0546 1.56,24.4346 1.037,23.8756 C0.538,23.3416 -0.308,22.7736 0.115,21.8776 C0.379,21.3156 0.896,20.7696 1.439,20.4676 C2.228,20.0296 3.134,19.7886 4.007,19.5176 C5.099,19.1786 6.207,18.8946 7.309,18.5876 C7.316,18.5136 7.323,18.4416 7.33,18.3676" id="Fill-23" fill="#FFFFFF" mask="url(#mask-6)"></path>
                </g>
                <path d="M80.5322,20.3797 C80.8502,19.2347 81.1532,18.2127 81.4182,17.1797 C81.7142,16.0237 82.0032,14.8637 82.2412,13.6947 C82.3752,13.0347 82.4062,12.3527 82.4722,11.6797 C82.5392,11.0047 82.6182,10.3417 83.4602,9.9067 C83.4492,10.8007 84.0612,10.9947 84.8472,11.1977 C84.8472,12.4457 84.6502,13.7427 84.9042,14.9447 C85.1442,16.0847 84.8902,17.1257 84.8652,18.2127 C84.8282,19.8877 84.2302,21.4487 83.9542,23.0747 C83.8492,23.6977 83.3832,24.2747 83.0252,24.8377 C82.6622,25.4077 82.2302,25.8467 81.4572,25.3487 C81.2752,25.2307 80.8792,25.2927 80.6602,25.4137 C80.0622,25.7447 79.7102,25.4167 79.2992,25.0647 C77.3982,23.4387 76.2882,21.2807 75.2312,19.0857 C74.9572,18.5177 74.7092,17.9357 74.3712,17.1887 C73.6872,19.9187 73.7662,22.6467 72.6852,25.1777 C72.3162,25.0697 72.0942,25.0177 71.8832,24.9397 C71.6972,24.8717 71.5212,24.7747 71.3692,24.7037 C70.8972,24.8407 70.4542,24.9707 70.0552,25.0877 C68.8312,23.8237 68.9102,22.3637 69.1322,20.8987 C69.3572,19.4087 69.6392,17.9267 69.9172,16.4447 C70.2362,14.7447 70.2572,13.0497 69.9792,11.3387 C69.8062,10.2807 69.9532,10.1887 71.0282,9.8157 C71.3382,9.7077 71.5802,9.3007 71.7722,8.9817 C72.0462,8.5277 72.2452,8.0287 72.5132,7.4697 C72.8372,7.5887 73.0572,7.7547 73.2402,7.7207 C73.6682,7.6417 74.0972,7.4097 74.4722,7.7947 C74.9322,8.2657 75.5062,8.5947 75.7462,9.3127 C76.5432,11.6947 77.4192,14.0507 78.2842,16.4097 C78.7642,17.7167 79.2492,19.0267 80.1612,20.1177 C80.2092,20.1747 80.2852,20.2077 80.5322,20.3797" id="Fill-26" fill="#FFFFFF"></path>
                <path d="M105.3496,17.5144 C106.9836,17.4044 108.0566,16.5024 108.9386,15.3354 C109.2976,14.8614 109.1066,14.4454 108.5066,14.2754 C107.8606,14.0934 107.2006,13.9544 106.5406,13.8264 C105.7036,13.6624 104.9826,13.8504 104.4516,14.6164 C104.6496,15.4174 104.8406,16.2214 105.0526,17.0204 C105.0906,17.1644 105.2096,17.2874 105.3496,17.5144 M107.7506,21.2974 C108.7186,21.9894 109.5706,22.5754 110.3946,23.1984 C110.8056,23.5084 111.1996,23.8554 111.5386,24.2414 C112.4166,25.2384 112.4256,25.3474 112.1336,26.6724 C111.5996,26.7974 111.0836,26.9514 110.5566,27.0234 C110.3466,27.0524 110.0786,26.9454 109.8966,26.8164 C109.6496,26.6414 109.4836,26.4874 109.1796,26.7514 C109.0956,26.8244 108.7636,26.6634 108.5776,26.5544 C108.0976,26.2704 107.6526,25.9254 107.1626,25.6614 C106.5196,25.3154 106.4326,25.3814 106.1436,26.0664 C105.9786,26.4574 105.7556,26.8244 105.5346,27.2474 C105.2256,27.1074 105.0046,27.0254 104.8046,26.9094 C104.6346,26.8114 104.4886,26.6734 104.2936,26.5224 C104.0946,26.6484 103.9076,26.7934 103.6986,26.8924 C103.2886,27.0864 102.9196,27.0374 102.6606,26.6224 C102.1026,25.7274 101.2316,24.9704 101.3756,23.7594 C100.4936,21.3844 100.6196,18.9214 100.6766,16.4524 C100.6946,15.6744 100.4326,14.8874 100.2806,14.1084 C100.2266,13.8354 100.1186,13.5734 100.0306,13.3084 C99.6676,12.2154 99.6756,11.1934 100.6566,10.2844 C101.1966,10.4124 101.7876,10.5824 102.3906,10.6804 C102.5996,10.7144 102.8916,10.6364 103.0546,10.4994 C104.9496,8.9184 106.8836,9.7244 108.8036,10.3994 C109.8376,10.7624 110.7076,11.4134 111.4196,12.2394 C112.1126,13.0424 112.3656,13.9544 111.8996,14.9894 C111.7216,15.3854 111.6056,15.8104 111.4736,16.2254 C111.4126,16.4154 111.4396,16.6624 111.3266,16.8014 C110.3696,17.9704 110.1366,19.6964 108.5346,20.3824 C108.2486,20.5054 108.0806,20.8994 107.7506,21.2974" id="Fill-28" fill="#FFFFFF"></path>
                <path d="M55.1152,11.4295 C54.0202,11.0145 53.7012,10.1685 53.4412,9.3905 C53.1152,8.4185 54.4322,7.1075 55.4952,7.3945 C58.2992,8.1505 61.1722,8.0265 64.0182,8.2625 C64.9142,8.3375 65.8032,8.5765 66.6792,8.8045 C67.1202,8.9205 67.5232,9.1795 68.0132,9.4065 C67.7012,9.9885 67.3242,10.1955 66.7702,10.2715 C65.9742,10.3815 65.1152,10.3085 64.4902,11.0575 C64.3202,11.2625 63.8162,11.2155 63.4622,11.2365 C61.9152,11.3265 60.3672,11.3965 58.8202,11.4845 C58.6292,11.4945 58.4422,11.5675 58.1262,11.6405 C58.8072,12.8005 58.6602,14.0335 58.7222,15.3235 C59.6932,15.3235 60.6322,15.3245 61.5712,15.3215 C61.6902,15.3215 61.8092,15.2895 61.9282,15.2875 C62.9982,15.2645 63.7242,15.7155 63.7662,16.4225 C63.8372,17.6225 63.2782,18.4655 62.2462,18.6265 C60.9882,18.8225 59.7262,18.9975 58.4612,19.1325 C57.8662,19.1965 57.5242,19.3965 57.3932,20.0295 C57.1962,20.9845 57.1432,21.3815 57.3562,22.3205 C58.5132,22.5755 59.6102,22.1585 60.7042,21.8595 C61.4682,21.6495 62.1832,21.2625 62.9462,21.0465 C63.6892,20.8365 64.4602,20.6805 65.2292,20.6155 C65.8002,20.5665 66.2592,21.3825 66.0732,22.0765 C65.7872,23.1445 65.2502,24.0455 64.2422,24.6145 C62.7972,25.4295 61.2922,26.0435 59.5982,25.9915 C58.4902,25.9575 57.3942,26.0795 56.2762,25.7675 C54.2572,25.2025 52.8062,22.4085 52.9802,20.8215 C53.0282,20.3855 53.0172,19.9215 53.1722,19.5245 C53.4642,18.7755 53.3982,18.0945 53.1262,17.3575 C52.7712,16.3975 52.9472,15.8465 53.8032,15.4015 C54.2612,15.1635 54.4572,14.8665 54.5422,14.4115 C54.7252,13.4365 54.9162,12.4635 55.1152,11.4295" id="Fill-30" fill="#FFFFFF"></path>
                <path d="M33.6089,13.3079 C33.4119,13.7669 33.1839,14.0859 33.1499,14.4239 C33.0689,15.2349 32.5339,15.4719 31.8679,15.5959 C31.0859,15.7419 30.2989,15.8669 29.5179,16.0219 C28.4099,16.2419 28.2519,16.4529 28.4059,17.5639 C28.4589,17.9489 28.6099,18.3199 28.7299,18.7449 C30.5929,18.6519 32.3439,18.3199 34.0849,17.9329 C34.7789,17.7779 35.4509,17.5079 36.1509,17.3939 C36.7989,17.2889 37.4049,17.5079 37.9999,18.0899 C37.9149,18.7969 37.8189,19.5909 37.7199,20.4159 C35.1919,21.9259 32.3659,22.3649 29.5059,22.6129 C27.5369,22.7839 26.0399,22.0009 24.8949,20.3079 C24.0379,19.0429 23.6769,17.7259 23.6839,16.2609 C23.6899,15.2229 23.6909,14.1779 23.8049,13.1489 C23.9419,11.9249 23.7079,10.8259 23.1629,9.7259 C22.5269,8.4429 22.9889,7.5429 24.4149,7.3289 C26.0669,7.0799 27.7369,6.9479 29.4029,6.8189 C30.3069,6.7489 31.2229,6.6029 32.1219,6.9209 C32.7779,7.1539 33.4469,7.3499 34.0829,7.5529 C34.0829,7.7199 34.1099,7.8119 34.0779,7.8709 C33.6969,8.5639 32.7899,8.4509 32.2809,9.1189 C31.9389,9.5679 31.0009,9.5639 30.3289,9.7579 C30.2139,9.7909 30.0909,9.7919 29.9739,9.8169 C27.9709,10.2429 27.7589,10.6049 28.2909,12.7479 C30.0549,12.7389 31.9519,11.7229 33.6089,13.3079" id="Fill-32" fill="#FFFFFF"></path>
                <path d="M44.3403,22.9217 C42.2653,21.0647 41.3403,18.7797 40.8953,16.2467 C40.4553,13.7397 40.0113,11.2337 39.5633,8.7277 C39.4173,7.9077 39.6143,7.3937 40.2553,6.9997 C40.7063,6.7217 41.5853,6.9087 42.0993,7.3537 C43.1373,8.2537 43.6663,9.4117 43.9073,10.7357 C44.0353,11.4387 44.2113,12.1317 44.3523,12.8327 C44.4913,13.5277 44.6143,14.2277 44.8813,14.9447 C45.0273,14.3707 45.1533,13.7907 45.3263,13.2247 C45.6853,12.0467 46.0193,10.8577 46.4643,9.7127 C46.6743,9.1727 47.0513,8.6577 47.4673,8.2497 C48.0813,7.6497 49.7863,8.0747 50.1823,8.8907 C50.5213,9.5867 50.6983,10.2467 50.1123,10.9937 C49.5983,11.6487 49.5663,12.4997 49.4913,13.3587 C49.3373,15.1287 48.9453,16.8807 48.6073,18.6327 C48.4713,19.3327 48.2733,20.0317 48.0013,20.6897 C47.7623,21.2647 47.4303,21.8207 47.0383,22.3037 C46.8873,22.4897 46.3613,22.6037 46.1723,22.4847 C45.4163,22.0107 44.8963,22.3537 44.3403,22.9217" id="Fill-34" fill="#FFFFFF"></path>
                <path d="M91.876,10.3611 C92.273,10.4361 92.876,10.3701 93.159,10.6401 C93.687,11.1421 94.14,11.7941 94.42,12.4681 C94.735,13.2251 94.836,14.0731 95.011,14.8851 C95.31,16.2831 95.621,17.6791 95.876,19.0851 C96.152,20.6051 96.382,22.1341 96.605,23.6641 C96.723,24.4761 96.398,25.1781 95.908,26.0581 C95.574,25.5581 95.319,25.1751 95.063,24.7931 C94.977,24.8361 94.891,24.8801 94.805,24.9241 C94.727,25.2351 94.648,25.5471 94.563,25.8861 C93.766,25.7521 93.262,25.2781 93.029,24.5611 C92.786,23.8081 92.602,23.0331 92.441,22.2581 C92.013,20.1951 91.588,18.1321 91.21,16.0591 C91.018,15.0051 90.936,13.9311 90.793,12.8671 C90.664,11.8951 90.841,11.0441 91.876,10.3611" id="Fill-36" fill="#FFFFFF"></path>
                <path d="M90.7378,3.2537 C92.8188,3.1967 93.0678,4.8997 93.7748,6.1547 C93.2188,6.6217 92.7108,7.0487 92.1838,7.4927 C90.0488,6.6717 89.4968,5.1597 90.7378,3.2537" id="Fill-38" fill="#FFFFFF"></path>
            </g>
        </g>
    </g>
</svg>